<svg width="22" height="21" viewBox="0 0 22 21" fill="none" xmlns="http://www.w3.org/2000/svg">
<path d="M15.2847 12.4614C17.8055 8.90175 16.9624 3.97273 13.4028 1.45252C9.84316 -1.0677 4.91414 -0.225218 2.39392 3.335C-0.126292 6.89461 0.716189 11.823 4.27641 14.3432C6.81709 16.142 10.1762 16.2805 12.856 14.6979L18.6787 20.4857C19.3074 21.1475 20.3534 21.174 21.0152 20.5453C21.677 19.9172 21.7035 18.8712 21.0754 18.2094C21.0556 18.1883 21.0363 18.169 21.0152 18.1492L15.2847 12.4614ZM8.83447 13.0009C6.02159 13.0015 3.74105 10.7228 3.73924 7.90993C3.73864 5.09704 6.01737 2.8165 8.83086 2.8153C11.6401 2.81409 13.9195 5.08921 13.9249 7.89848C13.9297 10.712 11.6522 12.9961 8.83808 13.0009C8.83688 13.0009 8.83628 13.0009 8.83447 13.0009Z" fill="#75CB40"/>
</svg>
