<svg width="131" height="123" viewBox="0 0 131 123" fill="none" xmlns="http://www.w3.org/2000/svg">
<g clip-path="url(#clip0)">
<path d="M99.8974 55.7824C103.18 65.2705 118.408 62.5569 118.408 71.6802C118.408 80.0136 91.0842 85.1812 82.2061 85.6109L45.1944 86.2578C21.4823 86.2578 4.30176 80.1753 4.30176 61.895C4.30176 43.6146 21.8292 23.8195 46.8924 23.8195C70.5635 23.8195 93.8577 38.3266 99.8974 55.7824V55.7824Z" fill="#D87E35"/>
<path d="M110.939 24.9083C109.629 26.5828 109.884 28.61 110.323 30.0101C110.66 31.081 110.249 32.2347 109.289 32.8919L92.8489 44.0979C90.848 45.4622 90.4093 48.0986 91.8725 49.9735C93.3347 51.8474 96.1401 52.2433 98.124 50.8555L114.412 39.4558C115.367 38.7911 116.659 38.7676 117.644 39.39C118.932 40.2043 120.913 41.0402 123.002 40.366C125.742 39.4831 126.896 36.6238 125.743 34.1255C124.837 32.1623 122.89 31.1083 120.912 31.1083C120.486 31.1083 120.123 30.908 119.898 30.6146C119.668 30.3251 119.574 29.9395 119.701 29.5578C120.294 27.7807 119.808 25.7178 118.088 24.3168C115.899 22.5341 112.654 22.7137 110.939 24.9083Z" fill="#E2E2E2"/>
<path d="M50.5557 78.5119C57.379 87.2544 70.8846 88.8331 80.7232 82.0369C85.3517 78.8401 88.1622 74.4839 89.9282 69.305C92.2739 62.4261 95.71 56.8814 101.445 51.931C102.896 50.6777 103.166 48.6721 102.065 47.2598L97.6769 41.6381C96.5745 40.2268 94.4597 39.8676 92.7546 40.7947C86.0153 44.4607 79.363 45.8843 71.6842 45.9294C65.9043 45.9632 60.6442 47.1818 56.0147 50.3787C46.1771 57.1739 43.7325 69.7695 50.5557 78.5119V78.5119Z" fill="#E88C38"/>
<path d="M125.267 84.8728H5.22114C3.25621 84.8728 1.66309 86.3716 1.66309 88.2201C1.66309 90.0696 3.25621 91.5683 5.22114 91.5683H12.1793C13.0658 91.5683 13.8654 92.0733 14.2002 92.8452L15.4185 95.6509C16.5579 98.2742 19.2704 99.9883 22.2828 99.9883H108.206C111.218 99.9883 113.931 98.2742 115.07 95.6509L116.287 92.8452C116.623 92.0733 117.422 91.5683 118.309 91.5683H125.267C127.232 91.5683 128.825 90.0696 128.825 88.2201C128.825 86.3716 127.232 84.8728 125.267 84.8728V84.8728Z" fill="#E2E2E2"/>
<path d="M125.268 84.8728H114.2C114.2 88.5708 111.013 91.5683 107.083 91.5683H106.997C104.106 91.5683 101.502 93.2138 100.408 95.7318L99.5398 97.7326C98.9471 99.0969 97.5369 99.9883 95.9697 99.9883H108.206C111.218 99.9883 113.931 98.2742 115.07 95.6509L116.288 92.8452C116.623 92.0733 117.422 91.5683 118.309 91.5683H125.268C127.233 91.5683 128.826 90.0696 128.826 88.2201C128.826 86.3716 127.233 84.8728 125.268 84.8728V84.8728Z" fill="#D8D6D4"/>
<path d="M125.267 83.0675H105.076C106.29 82.6877 107.501 82.2758 108.682 81.8311C116.409 78.9257 120.327 75.5107 120.327 71.6801C120.327 65.7923 115.257 63.814 110.783 62.0698C108.866 61.3223 106.885 60.5485 105.262 59.4982C104.389 58.9341 103.193 59.1419 102.594 59.9627C101.993 60.7845 102.214 61.9081 103.088 62.4732C105.042 63.7388 107.214 64.5859 109.313 65.4049C113.897 67.1923 116.489 68.3648 116.489 71.6801C116.489 73.7948 113.125 76.2723 107.258 78.4791C100.229 81.1221 92.0716 82.5541 88.7324 83.0675H82.4478C86.7525 79.9092 89.8028 75.5831 91.7547 69.857C94.1314 62.8878 97.5196 57.7691 102.743 53.2606C104.192 52.0091 104.837 50.2424 104.611 48.5659L115.555 40.9066C115.853 40.6988 116.262 40.6913 116.575 40.8888C118.946 42.3866 121.385 42.7965 123.626 42.0735C125.394 41.5037 126.78 40.3115 127.528 38.7158C128.305 37.0591 128.297 35.1241 127.504 33.4062C126.466 31.1553 124.255 29.6236 121.733 29.3481C122.209 27.0022 121.317 24.5585 119.345 22.9525C117.84 21.7274 115.881 21.1397 113.967 21.3409C112.126 21.5346 110.501 22.4222 109.393 23.8382C107.989 25.6341 107.674 27.9453 108.484 30.5216C108.591 30.861 108.461 31.2267 108.164 31.4298L97.1148 38.9613C95.4817 38.257 93.4968 38.3059 91.7937 39.232C85.6571 42.5699 79.4515 44.0781 71.6717 44.1242C64.9904 44.1637 59.4974 45.7329 54.8789 48.9242C49.7238 52.484 46.2687 57.6224 45.1493 63.3909C44.0229 69.1988 45.3931 74.9484 49.0082 79.5801C50.0166 80.872 51.18 82.0389 52.4693 83.0675H28.1636C13.3977 80.2693 6.21959 73.3425 6.21959 61.8949C6.21959 53.1854 10.3563 44.2079 17.5704 37.2641C25.3671 29.7581 35.7814 25.6247 46.8923 25.6247C59.6213 25.6247 72.8541 29.9931 83.1984 37.6101C84.033 38.225 85.2393 38.0859 85.892 37.3008C86.5456 36.5157 86.3987 35.3817 85.5641 34.7668C74.5582 26.6628 60.4629 22.0142 46.8923 22.0142C34.739 22.0142 23.3512 26.5339 14.8259 34.7405C6.91721 42.3527 2.3817 52.2508 2.3817 61.8949C2.3817 71.6726 6.97218 78.7584 16.0462 83.0675H5.22114C2.20079 83.0675 -0.255859 85.3787 -0.255859 88.2201C-0.255859 91.0615 2.20079 93.3736 5.22114 93.3736H12.1793C12.2873 93.3736 12.3832 93.4338 12.4242 93.5278L13.6425 96.3335C15.0827 99.6507 18.4739 101.794 22.2828 101.794H108.206C112.015 101.794 115.406 99.6507 116.846 96.3335L118.064 93.5288C118.105 93.4347 118.201 93.3736 118.309 93.3736H125.267C128.287 93.3736 130.744 91.0615 130.744 88.2201C130.744 85.3796 128.288 83.0675 125.267 83.0675V83.0675ZM110.419 34.3512C112.028 33.2492 112.729 31.2991 112.164 29.4976C111.846 28.4859 111.643 27.053 112.484 25.9773C113.081 25.2138 113.852 24.9863 114.393 24.9289C115.248 24.8396 116.135 25.1142 116.833 25.6821C118.079 26.6976 118.186 28.0703 117.87 29.0162C117.569 29.9207 117.749 30.9165 118.352 31.6837C118.949 32.4538 119.904 32.9126 120.911 32.9126H120.912C121.966 32.9126 123.326 33.4204 123.983 34.8439C124.35 35.6393 124.363 36.5204 124.016 37.2585C123.796 37.7267 123.333 38.3501 122.381 38.6576C121.039 39.0901 119.645 38.4798 118.714 37.8912C117.058 36.8447 114.87 36.8899 113.267 38.0069L102.891 45.2685L99.9423 41.4915L110.419 34.3512ZM52.1025 77.4439C49.1181 73.6199 47.9897 68.8594 48.9252 64.0396C49.8677 59.1814 52.7891 54.8459 57.1497 51.8342C61.0935 49.1094 65.8519 47.7686 71.6957 47.7347C80.1791 47.684 86.9694 46.0263 93.7147 42.3574C94.4573 41.9541 95.3348 42.0133 95.8935 42.4675C95.9015 42.474 95.9095 42.4797 95.9175 42.4863C95.9944 42.5521 96.0664 42.6254 96.1293 42.7063L100.517 48.329C100.578 48.407 100.633 48.4945 100.678 48.5894C100.68 48.5932 100.682 48.596 100.684 48.5988C100.986 49.2391 100.784 50.0515 100.147 50.6006C94.4073 55.5558 90.6913 61.155 88.1007 68.7541C86.3157 73.9894 83.5302 77.8585 79.5864 80.5824C78.1152 81.5988 76.5111 82.4347 74.817 83.0675H59.7423C56.679 81.8696 54.0434 79.9308 52.1025 77.4439V77.4439ZM125.267 89.7631H40.6677C39.6083 89.7631 38.7488 90.5707 38.7488 91.5683C38.7488 92.565 39.6083 93.3736 40.6677 93.3736H113.986L113.294 94.9683C112.445 96.9212 110.449 98.183 108.206 98.183H22.2828C20.04 98.183 18.0431 96.9212 17.1946 94.9683L16.503 93.3736H31.7396C32.799 93.3736 33.6586 92.565 33.6586 91.5683C33.6586 90.5707 32.799 89.7631 31.7396 89.7631H5.22114C4.31664 89.7631 3.58204 89.071 3.58204 88.2201C3.58204 87.3701 4.31664 86.6781 5.22114 86.6781H125.267C126.171 86.6781 126.906 87.3701 126.906 88.2201C126.906 89.071 126.171 89.7631 125.267 89.7631V89.7631Z" fill="black"/>
</g>
<defs>
<clipPath id="clip0">
<rect width="131" height="123" fill="white"/>
</clipPath>
</defs>
</svg>
