<svg width="15" height="16" viewBox="0 0 15 16" fill="none" xmlns="http://www.w3.org/2000/svg">
<path d="M6.92844 12.0303C6.99809 12.1 7.08077 12.1552 7.17177 12.1929C7.26276 12.2306 7.36029 12.25 7.45879 12.25C7.55728 12.25 7.65481 12.2306 7.74581 12.1929C7.83681 12.1552 7.91949 12.1 7.98913 12.0303L10.8175 9.20191C10.9582 9.06125 11.0372 8.87049 11.0372 8.67158C11.0372 8.47267 10.9582 8.2819 10.8175 8.14125C10.6769 8.0006 10.4861 7.92158 10.2872 7.92158C10.0883 7.92158 9.89753 8.0006 9.75688 8.14125L8.20879 9.68934V1.5C8.20879 1.30109 8.12977 1.11032 7.98912 0.96967C7.84847 0.829018 7.6577 0.75 7.45879 0.75C7.25988 0.75 7.06911 0.829018 6.92846 0.96967C6.78781 1.11032 6.70879 1.30109 6.70879 1.5V9.68934L5.16069 8.14125C5.02004 8.0006 4.82928 7.92158 4.63037 7.92158C4.43146 7.92158 4.24069 8.0006 4.10004 8.14125C3.95939 8.2819 3.88037 8.47267 3.88037 8.67158C3.88037 8.87049 3.95939 9.06125 4.10004 9.20191L6.92844 12.0303Z" fill="white"/>
<path d="M13.959 7.25C13.7601 7.25 13.5693 7.32902 13.4287 7.46967C13.288 7.61032 13.209 7.80109 13.209 8V13.75H1.70898V8C1.70898 7.80109 1.62997 7.61032 1.48931 7.46967C1.34866 7.32902 1.1579 7.25 0.958984 7.25C0.760072 7.25 0.569307 7.32902 0.428654 7.46967C0.288002 7.61032 0.208984 7.80109 0.208984 8V14C0.208984 14.3315 0.34068 14.6495 0.575101 14.8839C0.809521 15.1183 1.12746 15.25 1.45898 15.25H13.459C13.7905 15.25 14.1084 15.1183 14.3429 14.8839C14.5773 14.6495 14.709 14.3315 14.709 14V8C14.709 7.80109 14.63 7.61032 14.4893 7.46967C14.3487 7.32902 14.1579 7.25 13.959 7.25Z" fill="white"/>
</svg>
