<svg width="35" height="34" viewBox="0 0 35 34" fill="none" xmlns="http://www.w3.org/2000/svg">
<g clip-path="url(#clip0)">
<path d="M32.4668 19.4072V3.05469C32.4668 2.5045 32.0209 2.05859 31.4707 2.05859H26.4238V0.996094C26.4238 0.445908 25.9779 0 25.4277 0C24.8775 0 24.4316 0.445908 24.4316 0.996094V2.05859H20.4473V0.996094C20.4473 0.445908 20.0014 0 19.4512 0C18.901 0 18.4551 0.445908 18.4551 0.996094V2.05859H14.4707V0.996094C14.4707 0.445908 14.0248 0 13.4746 0C12.9244 0 12.4785 0.445908 12.4785 0.996094V2.05859H8.49414V0.996094C8.49414 0.445908 8.04823 0 7.49805 0C6.94786 0 6.50195 0.445908 6.50195 0.996094V2.05859H1.45508C0.904892 2.05859 0.458984 2.5045 0.458984 3.05469V29.0195C0.458984 29.5697 0.904892 30.0156 1.45508 30.0156H18.0437C19.654 32.4164 22.3925 34 25.4941 34C30.4373 34 34.459 29.9783 34.459 25.0352C34.459 22.9055 33.7119 20.947 32.4668 19.4072ZM6.50195 4.05078V5.04688C6.50195 5.59706 6.94786 6.04297 7.49805 6.04297C8.04823 6.04297 8.49414 5.59706 8.49414 5.04688V4.05078H12.4785V5.04688C12.4785 5.59706 12.9244 6.04297 13.4746 6.04297C14.0248 6.04297 14.4707 5.59706 14.4707 5.04688V4.05078H18.4551V5.04688C18.4551 5.59706 18.901 6.04297 19.4512 6.04297C20.0014 6.04297 20.4473 5.59706 20.4473 5.04688V4.05078H24.4316V5.04688C24.4316 5.59706 24.8775 6.04297 25.4277 6.04297C25.9779 6.04297 26.4238 5.59706 26.4238 5.04688V4.05078H30.4746V8.03516H2.45117V4.05078H6.50195ZM2.45117 28.0234V10.0273H30.4746V17.5847C29.0492 16.6288 27.3356 16.0703 25.4941 16.0703C22.3466 16.0703 19.5731 17.7012 17.9731 20.1618C17.8385 20.0939 17.6867 20.0547 17.5254 20.0547H15.5332C14.983 20.0547 14.5371 20.5006 14.5371 21.0508C14.5371 21.601 14.983 22.0469 15.5332 22.0469H17.0421C16.8172 22.6814 16.6616 23.3485 16.5851 24.0391H15.5332C14.983 24.0391 14.5371 24.485 14.5371 25.0352C14.5371 25.5853 14.983 26.0312 15.5332 26.0312H16.5851C16.6616 26.7218 16.817 27.3889 17.0421 28.0234H2.45117ZM25.4941 32.0078C21.6493 32.0078 18.5215 28.88 18.5215 25.0352C18.5215 21.1903 21.6493 18.0625 25.4941 18.0625C29.339 18.0625 32.4668 21.1903 32.4668 25.0352C32.4668 28.88 29.339 32.0078 25.4941 32.0078Z" fill="white"/>
<path d="M29.4785 24.0391H26.4902V21.0508C26.4902 20.5006 26.0443 20.0547 25.4941 20.0547C24.944 20.0547 24.498 20.5006 24.498 21.0508V25.0352C24.498 25.5853 24.944 26.0312 25.4941 26.0312H29.4785C30.0287 26.0312 30.4746 25.5853 30.4746 25.0352C30.4746 24.485 30.0287 24.0391 29.4785 24.0391Z" fill="white"/>
<path d="M9.49023 12.0859H7.49805C6.94786 12.0859 6.50195 12.5318 6.50195 13.082C6.50195 13.6322 6.94786 14.0781 7.49805 14.0781H9.49023C10.0404 14.0781 10.4863 13.6322 10.4863 13.082C10.4863 12.5318 10.0404 12.0859 9.49023 12.0859Z" fill="white"/>
<path d="M9.49023 16.0703H7.49805C6.94786 16.0703 6.50195 16.5162 6.50195 17.0664C6.50195 17.6166 6.94786 18.0625 7.49805 18.0625H9.49023C10.0404 18.0625 10.4863 17.6166 10.4863 17.0664C10.4863 16.5162 10.0404 16.0703 9.49023 16.0703Z" fill="white"/>
<path d="M9.49023 20.0547H7.49805C6.94786 20.0547 6.50195 20.5006 6.50195 21.0508C6.50195 21.601 6.94786 22.0469 7.49805 22.0469H9.49023C10.0404 22.0469 10.4863 21.601 10.4863 21.0508C10.4863 20.5006 10.0404 20.0547 9.49023 20.0547Z" fill="white"/>
<path d="M15.5332 14.0781H17.5254C18.0756 14.0781 18.5215 13.6322 18.5215 13.082C18.5215 12.5318 18.0756 12.0859 17.5254 12.0859H15.5332C14.983 12.0859 14.5371 12.5318 14.5371 13.082C14.5371 13.6322 14.983 14.0781 15.5332 14.0781Z" fill="white"/>
<path d="M15.5332 18.0625H17.5254C18.0756 18.0625 18.5215 17.6166 18.5215 17.0664C18.5215 16.5162 18.0756 16.0703 17.5254 16.0703H15.5332C14.983 16.0703 14.5371 16.5162 14.5371 17.0664C14.5371 17.6166 14.983 18.0625 15.5332 18.0625Z" fill="white"/>
<path d="M9.49023 24.0391H7.49805C6.94786 24.0391 6.50195 24.485 6.50195 25.0352C6.50195 25.5853 6.94786 26.0312 7.49805 26.0312H9.49023C10.0404 26.0312 10.4863 25.5853 10.4863 25.0352C10.4863 24.485 10.0404 24.0391 9.49023 24.0391Z" fill="white"/>
<path d="M23.502 14.0781H25.4941C26.0443 14.0781 26.4902 13.6322 26.4902 13.082C26.4902 12.5318 26.0443 12.0859 25.4941 12.0859H23.502C22.9518 12.0859 22.5059 12.5318 22.5059 13.082C22.5059 13.6322 22.9518 14.0781 23.502 14.0781Z" fill="white"/>
</g>
<defs>
<clipPath id="clip0">
<rect width="34" height="34" fill="white" transform="translate(0.458984)"/>
</clipPath>
</defs>
</svg>
