<svg width="16" height="16" viewBox="0 0 16 16" fill="none" xmlns="http://www.w3.org/2000/svg">
<path d="M13.4929 1H8.17974C8.07101 1 7.96665 1.04326 7.88975 1.12016L1.4406 7.5691C0.853135 8.15678 0.853135 9.11285 1.4406 9.70031L6.29954 14.5591C6.58324 14.8428 6.96167 14.9991 7.36499 14.9992H7.36509C7.76852 14.9992 8.14695 14.8428 8.43075 14.559L14.8797 8.10999C14.9566 8.03309 14.9999 7.92874 14.9999 7.82L15 2.50689C14.9999 1.67601 14.3237 1 13.4929 1ZM14.1795 7.65017L7.85066 13.9791C7.72184 14.108 7.54934 14.1789 7.36509 14.1789C7.18074 14.1789 7.00834 14.108 6.87953 13.9792L2.02058 9.12032C1.75291 8.85265 1.75291 8.41686 2.02058 8.14909L8.34957 1.82031H13.4929C13.8715 1.82031 14.1796 2.12835 14.1796 2.507L14.1795 7.65017Z" fill="#75CB40" stroke="#75CB40" stroke-width="0.5"/>
<path d="M11.3845 3.32642C11.0402 3.32642 10.7166 3.46057 10.4732 3.70399C10.2298 3.94731 10.0957 4.27095 10.0957 4.6152C10.0957 4.95946 10.2298 5.2831 10.4732 5.52652C10.7166 5.76994 11.0402 5.90399 11.3845 5.90399C11.7286 5.90399 12.0523 5.76994 12.2957 5.52652C12.5391 5.2831 12.6732 4.95946 12.6732 4.6152C12.6732 4.27095 12.5391 3.94731 12.2958 3.70399C12.0524 3.46057 11.7287 3.32642 11.3845 3.32642ZM11.7157 4.94643C11.6273 5.03497 11.5096 5.08368 11.3845 5.08368C11.2593 5.08368 11.1417 5.03497 11.0533 4.94643C10.9647 4.85799 10.916 4.74028 10.916 4.6152C10.916 4.49013 10.9647 4.37242 11.0533 4.28398C11.1417 4.19543 11.2594 4.14673 11.3845 4.14673C11.5096 4.14673 11.6272 4.19543 11.7157 4.28398C11.8043 4.37242 11.853 4.49013 11.853 4.6152C11.853 4.74028 11.8042 4.85799 11.7157 4.94643Z" fill="#75CB40" stroke="#75CB40" stroke-width="0.5"/>
</svg>
