<svg width="15" height="14" viewBox="0 0 15 14" fill="none" xmlns="http://www.w3.org/2000/svg">
<path d="M8.17383 9.95312C8.17383 10.5562 8.69953 11.0469 9.3457 11.0469H10.7227C11.3688 11.0469 11.8945 10.5562 11.8945 9.95312V8.66797C11.8945 8.06488 11.3688 7.57422 10.7227 7.57422H9.3457C8.69953 7.57422 8.17383 8.06488 8.17383 8.66797V9.95312ZM9.3457 8.66797H10.7227L10.7234 9.9531C10.7234 9.9531 10.7232 9.95312 10.7227 9.95312H9.3457V8.66797Z" fill="#75CB40"/>
<path d="M11.3086 6.28906C11.6322 6.28906 11.8945 6.04422 11.8945 5.74219C11.8945 5.44016 11.6322 5.19531 11.3086 5.19531C10.985 5.19531 10.7227 5.44016 10.7227 5.74219C10.7227 6.04422 10.985 6.28906 11.3086 6.28906Z" fill="#75CB40"/>
<path d="M8.75977 6.28906C9.08337 6.28906 9.3457 6.04422 9.3457 5.74219C9.3457 5.44016 9.08337 5.19531 8.75977 5.19531C8.43616 5.19531 8.17383 5.44016 8.17383 5.74219C8.17383 6.04422 8.43616 6.28906 8.75977 6.28906Z" fill="#75CB40"/>
<path d="M14.4141 9.625C14.7377 9.625 15 9.38016 15 9.07812V3.28125C15 2.07506 13.9486 1.09375 12.6562 1.09375H11.8945V0.546875C11.8945 0.244836 11.6322 0 11.3086 0C10.985 0 10.7227 0.244836 10.7227 0.546875V1.09375H8.05664V0.546875C8.05664 0.244836 7.79432 0 7.4707 0C7.14709 0 6.88477 0.244836 6.88477 0.546875V1.09375H4.24805V0.546875C4.24805 0.244836 3.98572 0 3.66211 0C3.3385 0 3.07617 0.244836 3.07617 0.546875V1.09375H2.34375C1.05141 1.09375 0 2.07506 0 3.28125V11.8125C0 13.0187 1.05141 14 2.34375 14H12.6562C13.9486 14 15 13.0187 15 11.8125C15 11.5105 14.7377 11.2656 14.4141 11.2656C14.0904 11.2656 13.8281 11.5105 13.8281 11.8125C13.8281 12.4156 13.3024 12.9062 12.6562 12.9062H2.34375C1.69758 12.9062 1.17188 12.4156 1.17188 11.8125V3.28125C1.17188 2.67816 1.69758 2.1875 2.34375 2.1875H3.07617V2.73438C3.07617 3.03641 3.3385 3.28125 3.66211 3.28125C3.98572 3.28125 4.24805 3.03641 4.24805 2.73438V2.1875H6.88477V2.73438C6.88477 3.03641 7.14709 3.28125 7.4707 3.28125C7.79432 3.28125 8.05664 3.03641 8.05664 2.73438V2.1875H10.7227V2.73438C10.7227 3.03641 10.985 3.28125 11.3086 3.28125C11.6322 3.28125 11.8945 3.03641 11.8945 2.73438V2.1875H12.6562C13.3024 2.1875 13.8281 2.67816 13.8281 3.28125V9.07812C13.8281 9.38016 14.0904 9.625 14.4141 9.625Z" fill="#75CB40"/>
<path d="M3.66211 11.0469C3.98571 11.0469 4.24805 10.802 4.24805 10.5C4.24805 10.198 3.98571 9.95312 3.66211 9.95312C3.33851 9.95312 3.07617 10.198 3.07617 10.5C3.07617 10.802 3.33851 11.0469 3.66211 11.0469Z" fill="#75CB40"/>
<path d="M3.66211 6.28906C3.98571 6.28906 4.24805 6.04422 4.24805 5.74219C4.24805 5.44016 3.98571 5.19531 3.66211 5.19531C3.33851 5.19531 3.07617 5.44016 3.07617 5.74219C3.07617 6.04422 3.33851 6.28906 3.66211 6.28906Z" fill="#75CB40"/>
<path d="M3.66211 8.66797C3.98571 8.66797 4.24805 8.42312 4.24805 8.12109C4.24805 7.81906 3.98571 7.57422 3.66211 7.57422C3.33851 7.57422 3.07617 7.81906 3.07617 8.12109C3.07617 8.42312 3.33851 8.66797 3.66211 8.66797Z" fill="#75CB40"/>
<path d="M6.21094 8.66797C6.53454 8.66797 6.79688 8.42312 6.79688 8.12109C6.79688 7.81906 6.53454 7.57422 6.21094 7.57422C5.88733 7.57422 5.625 7.81906 5.625 8.12109C5.625 8.42312 5.88733 8.66797 6.21094 8.66797Z" fill="#75CB40"/>
<path d="M6.21094 6.28906C6.53454 6.28906 6.79688 6.04422 6.79688 5.74219C6.79688 5.44016 6.53454 5.19531 6.21094 5.19531C5.88733 5.19531 5.625 5.44016 5.625 5.74219C5.625 6.04422 5.88733 6.28906 6.21094 6.28906Z" fill="#75CB40"/>
<path d="M6.21094 11.0469C6.53454 11.0469 6.79688 10.802 6.79688 10.5C6.79688 10.198 6.53454 9.95312 6.21094 9.95312C5.88733 9.95312 5.625 10.198 5.625 10.5C5.625 10.802 5.88733 11.0469 6.21094 11.0469Z" fill="#75CB40"/>
</svg>
