<svg width="19" height="19" viewBox="0 0 19 19" fill="none" xmlns="http://www.w3.org/2000/svg">
<path d="M18.2257 9.33026C18.226 9.06575 18.1211 8.81198 17.934 8.62493C17.747 8.43789 17.4932 8.33295 17.2287 8.33324L10.3203 8.32617L10.3203 1.41067C10.3206 1.14615 10.2156 0.892381 10.0286 0.705339C9.84154 0.518297 9.58777 0.413349 9.32325 0.413647C8.77171 0.413647 8.32623 0.859125 8.32623 1.41067L8.32623 8.32617L1.41073 8.32617C0.859184 8.32617 0.413707 8.77165 0.413707 9.32319C0.413707 9.87474 0.859184 10.3202 1.41073 10.3202L8.32623 10.3202L8.32623 17.2357C8.32623 17.7873 8.77171 18.2327 9.32325 18.2327C9.8748 18.2327 10.3203 17.7873 10.3203 17.2357V10.3202L17.2358 10.3202C17.7732 10.3202 18.2257 9.86766 18.2257 9.33026Z" fill="white"/>
</svg>
