<svg width="24" height="40" viewBox="0 0 24 40" fill="none" xmlns="http://www.w3.org/2000/svg">
<path d="M20.1995 0H3.36985C1.75918 0 0.458984 1.30603 0.458984 2.91378V37.0891C0.458984 38.6954 1.75918 40 3.36985 40H20.1995C21.8073 40 23.1104 38.6954 23.1104 37.0891V2.91378C23.1104 1.30603 21.8073 0 20.1995 0ZM7.63193 1.76955H15.9404C16.1503 1.76955 16.3208 2.08294 16.3208 2.47067C16.3208 2.85839 16.1503 3.17324 15.9404 3.17324H7.63193C7.42058 3.17324 7.25295 2.85839 7.25295 2.47067C7.25295 2.08294 7.42058 1.76955 7.63193 1.76955ZM11.7861 37.1241C10.7614 37.1241 9.92768 36.2904 9.92768 35.2642C9.92768 34.238 10.7614 33.4072 11.7861 33.4072C12.8079 33.4072 13.6417 34.238 13.6417 35.2642C13.6417 36.2904 12.8079 37.1241 11.7861 37.1241ZM20.9298 30.7558H2.64104V4.91655H20.9298V30.7558Z" fill="white"/>
</svg>
