<svg width="35" height="36" viewBox="0 0 35 36" fill="none" xmlns="http://www.w3.org/2000/svg">
<path d="M17.498 28.2439C18.253 28.2439 18.8651 27.6318 18.8651 26.8767C18.8651 26.1217 18.253 25.5096 17.498 25.5096C16.7429 25.5096 16.1309 26.1217 16.1309 26.8767C16.1309 27.6318 16.7429 28.2439 17.498 28.2439Z" fill="white"/>
<path d="M21.3121 8.46216H13.6842C13.2566 8.46216 12.9087 8.79384 12.9087 9.20078V23.6199C12.9087 24.0272 13.2564 24.3585 13.6842 24.3585H21.3121C21.7397 24.3585 22.0876 24.0268 22.0876 23.6199V9.20078C22.0874 8.79349 21.7397 8.46216 21.3121 8.46216Z" fill="white"/>
<path d="M17.4995 0.5C7.83489 0.5 0 8.33547 0 17.9997C0 27.6639 7.83489 35.5001 17.4995 35.5001C27.1641 35.5001 34.9999 27.6644 34.9999 17.9997C34.9999 8.33501 27.1641 0.5 17.4995 0.5ZM24.3079 26.6359C24.3079 27.9726 23.2241 29.0566 21.8872 29.0566H13.1122C11.7754 29.0566 10.6915 27.9728 10.6915 26.6359V9.28771C10.6915 7.95094 11.7753 6.86699 13.1122 6.86699H21.8872C23.224 6.86699 24.3079 7.95082 24.3079 9.28771V26.6359Z" fill="white"/>
</svg>
