<svg width="130" height="134" viewBox="0 0 130 134" fill="none" xmlns="http://www.w3.org/2000/svg">
<g clip-path="url(#clip0)">
<rect x="5.02539" width="116.442" height="86.5664" fill="#F9F7F8"/>
<path d="M125.464 77.6726H3.88394C1.60075 88.108 7.11845 92.6933 10.1627 93.6815C44.4105 94.472 114.276 95.4602 119.756 93.0885C125.235 90.7169 125.844 81.8231 125.464 77.6726Z" fill="#C4C4C4"/>
<rect x="19.8662" y="46.2478" width="36.531" height="11.8584" fill="#75CB40"/>
<path d="M15.8706 104.947C15.414 107.793 23.2909 124.711 27.2865 132.814L66.6714 132.814L75.8041 103.761C75.9944 96.8436 76.3749 80.7557 76.3749 71.7433C74.5484 65.5769 67.2422 68.3834 63.8174 70.5575C63.0564 69.5693 60.8493 67.5929 58.1095 67.5929C54.6847 67.5929 52.4015 72.9292 51.8307 70.5575C51.2599 68.1858 47.2643 68.1858 44.9811 68.1858C43.1546 68.1858 41.1758 70.1622 40.4148 71.1504V54.5486C39.844 52.3746 38.2457 47.5522 36.4192 45.6548C34.136 43.2831 28.428 48.6194 27.8572 50.9911C27.2864 53.3628 27.8572 77.0796 25.0033 86.5663C18.7245 92.4955 16.4414 101.389 15.8706 104.947Z" fill="#FED2A4"/>
<path d="M126.94 75.8942H124.924V13.0859C124.924 5.87035 119.273 0 112.327 0H17.5928C10.6464 0 4.99512 5.87035 4.99512 13.0859V75.8945H2.97949C1.58796 75.8945 0.459961 77.0662 0.459961 78.5117V82.9609C0.459961 90.0323 5.99814 95.7851 12.8057 95.7851H15.7182C13.7165 100.212 13.5172 105.338 15.2536 109.974L23.6263 132.332C24.014 133.367 24.9662 134.001 25.975 134.001C26.2789 134.001 26.5878 133.943 26.8878 133.822C28.1846 133.298 28.8269 131.781 28.3224 130.434L19.9498 108.077C18.4779 104.147 18.9649 99.7203 21.2529 96.2366L25.4053 89.9135V94.9869C25.4053 96.4324 26.5333 97.6041 27.9249 97.6041C29.3164 97.6041 30.4444 96.4324 30.4444 94.9869V51.8321C30.4444 49.8051 32.032 48.1562 33.9831 48.1562C35.9342 48.1562 37.5218 49.8051 37.5218 51.8321V86.3028C37.5218 87.7483 38.6498 88.92 40.0413 88.92C41.4328 88.92 42.5608 87.7483 42.5608 86.3028V73.9845C42.5608 71.9575 44.1481 70.3086 46.0995 70.3086C48.0509 70.3086 49.6382 71.9575 49.6382 73.9845V86.3028C49.6382 87.7483 50.7662 88.92 52.1577 88.92C53.5493 88.92 54.6772 87.7483 54.6772 86.3028V73.9845C54.6772 71.9575 56.2648 70.3086 58.2159 70.3086C60.1671 70.3086 61.7546 71.9575 61.7546 73.9845V86.3028C61.7546 87.7483 62.8826 88.92 64.2741 88.92C65.6657 88.92 66.7937 87.7483 66.7937 86.3028V73.9845V73.9471C66.7937 71.9201 68.381 70.2712 70.3324 70.2712C72.2837 70.2712 73.871 71.9201 73.871 73.9471V97.3183C73.871 105.153 72.3719 112.78 69.415 119.987L65.161 130.356C64.6155 131.686 65.2112 133.223 66.4911 133.79C66.8133 133.932 67.1482 134 67.4777 134C68.4571 134 69.3885 133.403 69.7967 132.408L74.0507 122.039C77.2749 114.179 78.9101 105.862 78.9101 97.3185V95.7851H117.113C123.921 95.7851 129.459 90.0323 129.459 82.9609V78.5117C129.459 77.066 128.331 75.8942 126.94 75.8942ZM18.8873 90.5505H12.8057C8.77693 90.5505 5.49902 87.1458 5.49902 82.9607V81.1286H25.0748L18.8873 90.5505ZM25.4058 51.8318V57.5779H23.6389C21.1383 57.5779 19.1037 55.4645 19.1037 52.8669C19.1037 50.2694 21.1383 48.156 23.6389 48.156H26.173C25.6817 49.2775 25.4058 50.5214 25.4058 51.8318ZM41.7941 48.156H50.7606C53.2613 48.156 55.2958 50.2694 55.2958 52.8669C55.2958 55.4645 53.2613 57.5779 50.7606 57.5779H42.5613V51.8318C42.5613 50.5214 42.2852 49.2775 41.7941 48.156ZM70.3326 65.0368C67.9605 65.0368 65.8106 66.0426 64.2563 67.6645C62.7047 66.0644 60.5699 65.074 58.2162 65.074C55.8534 65.074 53.7108 66.0717 52.158 67.6823C50.6052 66.0714 48.4626 65.074 46.0998 65.074C44.8382 65.074 43.6407 65.3606 42.5611 65.8707V62.8122H50.7604C56.0396 62.8122 60.3346 58.3507 60.3346 52.8669C60.3346 47.3831 56.0396 42.9216 50.7604 42.9216H23.6389C18.3597 42.9216 14.0647 47.3831 14.0647 52.8669C14.0647 58.3507 18.3597 62.8122 23.6389 62.8122H25.4058V75.8945H10.0342V13.0859C10.0342 8.75659 13.425 5.23438 17.5928 5.23438H112.327C116.494 5.23438 119.885 8.75659 119.885 13.0859V64.3862H98.2145C96.823 64.3862 95.695 65.5579 95.695 67.0034C95.695 68.4489 96.823 69.6206 98.2145 69.6206H119.885V75.8945H78.9103V73.9471C78.9106 69.0336 75.0625 65.0368 70.3326 65.0368ZM124.42 82.9607C124.42 87.1458 121.143 90.5505 117.114 90.5505H78.9103V81.1286H124.42V82.9607Z" fill="black"/>
<path d="M89.9576 65.152C89.4867 64.6652 88.8389 64.3851 88.1763 64.3851C87.5111 64.3851 86.8636 64.6652 86.395 65.152C85.9238 65.6388 85.6567 66.314 85.6567 67.0023C85.6567 67.6933 85.9238 68.3659 86.395 68.8527C86.8636 69.3421 87.5111 69.6195 88.1763 69.6195C88.8389 69.6195 89.4889 69.3421 89.9576 68.8527C90.4262 68.3659 90.6958 67.6933 90.6958 67.0023C90.6958 66.3137 90.4262 65.6388 89.9576 65.152Z" fill="black"/>
<path d="M45.6168 29.5557C45.1481 29.0689 44.4983 28.7888 43.8354 28.7888C43.1703 28.7888 42.5228 29.0689 42.0541 29.5557C41.583 30.0425 41.3159 30.7177 41.3159 31.406C41.3159 32.0943 41.583 32.7696 42.0541 33.2564C42.5228 33.7432 43.1728 34.0232 43.8354 34.0232C44.4981 34.0232 45.1456 33.7432 45.6168 33.2564C46.0854 32.7696 46.355 32.0943 46.355 31.406C46.355 30.7177 46.0854 30.0425 45.6168 29.5557Z" fill="black"/>
<path d="M34.7143 28.7888H16.584C15.1924 28.7888 14.0645 29.9605 14.0645 31.406C14.0645 32.8515 15.1924 34.0232 16.584 34.0232H34.7143C36.1058 34.0232 37.2338 32.8515 37.2338 31.406C37.2338 29.9605 36.1058 28.7888 34.7143 28.7888Z" fill="black"/>
<path d="M57.8147 14.1328H16.5972C15.2056 14.1328 14.0776 15.3045 14.0776 16.75C14.0776 18.1955 15.2056 19.3672 16.5972 19.3672H57.8147C59.2062 19.3672 60.3342 18.1955 60.3342 16.75C60.3342 15.3045 59.2062 14.1328 57.8147 14.1328Z" fill="black"/>
<path d="M108.295 32.8643V28.9197C108.295 26.0334 106.035 23.6853 103.256 23.6853H94.3957C93.4773 23.6853 92.6184 23.946 91.8761 24.3935C91.1339 23.946 90.275 23.6853 89.3566 23.6853H80.4962C77.7176 23.6853 75.4571 26.0334 75.4571 28.9197V32.7654C70.9189 33.923 67.5415 38.1829 67.5415 43.2488V51.8201C67.5415 53.2655 68.6695 54.4373 70.061 54.4373H113.334C114.726 54.4373 115.854 53.2655 115.854 51.8201V43.2488C115.854 38.3167 112.652 34.1496 108.295 32.8643ZM94.3957 28.9197H103.256V32.4529H94.3957V28.9197ZM80.4967 28.9197H89.3571V32.4529H80.4967V28.9197ZM110.815 49.2029H72.5811V43.2488C72.5811 40.1822 74.9829 37.6873 77.9351 37.6873H77.9772H91.8766H105.461C108.413 37.6873 110.815 40.1822 110.815 43.2488V49.2029H110.815Z" fill="black"/>
</g>
<defs>
<clipPath id="clip0">
<rect width="129" height="134" fill="white" transform="translate(0.458984)"/>
</clipPath>
</defs>
</svg>
