<svg width="21" height="21" viewBox="0 0 21 21" fill="none" xmlns="http://www.w3.org/2000/svg">
<path fill-rule="evenodd" clip-rule="evenodd" d="M18.9 0H2.1C0.9345 0 0 0.9345 0 2.1V13.65C0 14.8155 0.9345 15.75 2.1 15.75H6.3V21L10.5 18.9L14.7 21V15.75H18.9C20.0655 15.75 21 14.8155 21 13.65V2.1C21 0.9345 20.0655 0 18.9 0ZM18.9004 13.6499H2.1004V11.5499H18.9004V13.6499ZM2.1004 8.4004H18.9004V3.1504C18.9004 2.5729 18.4279 2.1004 17.8504 2.1004H3.1504C2.5729 2.1004 2.1004 2.5729 2.1004 3.1504V8.4004Z" fill="#F29946"/>
</svg>
