<svg width="119" height="119" viewBox="0 0 119 119" fill="none" xmlns="http://www.w3.org/2000/svg">
<g clip-path="url(#clip0)">
<path d="M17.3827 40.0406L8.73118 33.015C6.47064 31.1795 6.12632 27.8588 7.96207 25.5985C9.79759 23.3382 13.1182 22.9937 15.3785 24.8294L17.3827 26.457L27.6506 35.4344L23.1985 44.8014L17.3827 40.0406Z" fill="#FED2A4"/>
<path d="M17.3828 90.0518C17.3828 94.2812 20.8115 97.7099 25.0409 97.7099H65.4696C68.9336 97.7099 71.742 94.9018 71.742 91.4376V9.41249C71.742 5.1831 68.3133 1.75439 64.0839 1.75439H25.0409C20.8115 1.75439 17.3828 5.1831 17.3828 9.41249V90.0518Z" fill="#A79BA7"/>
<path d="M64.7245 9.41241C64.7245 9.0585 64.4377 8.77172 64.0838 8.77172H55.5256C55.0428 8.77172 54.6155 9.08446 54.4695 9.54457L54.2761 10.1539C53.9254 11.2589 52.8995 12.0098 51.7402 12.0098H38.1809C37.0217 12.0098 35.9957 11.2592 35.6451 10.1539L35.4519 9.54457C35.3059 9.08423 34.8785 8.77148 34.3958 8.77148H25.0411C24.6872 8.77148 24.4004 9.05826 24.4004 9.41217V90.0515C24.4004 90.4054 24.6872 90.6922 25.0411 90.6922H64.7245V9.41241Z" fill="#F9F7F8"/>
<path d="M111.109 115.94L90.8647 92.1255C90.2137 91.3597 89.8563 90.3873 89.8563 89.3825V80.3503C89.8563 74.496 87.6199 68.8626 83.6045 64.6021L61.6758 41.3364C60.5935 40.1881 58.757 40.2237 57.7199 41.4129L57.2855 41.9111C54.1857 45.4654 54.0413 50.7184 56.9407 54.4379L65.0692 64.8646C66.0278 66.0943 66.1494 67.7808 65.3775 69.1354L56.6991 84.3606C54.6879 87.8889 54.0294 92.0285 54.8462 96.0069L55.4928 99.1554C56.8902 105.96 62.3488 111.193 69.2064 112.301L72.3065 116.345C72.7416 116.913 73.4162 117.246 74.1312 117.246H110.505C111.181 117.246 111.547 116.455 111.109 115.94Z" fill="#FED2A4"/>
<path d="M22.3312 57.8218L14.9026 51.7894C12.642 49.9539 12.2977 46.6332 14.1335 44.3729L14.271 44.2033C16.1065 41.9428 19.4272 41.5985 21.6875 43.4342L29.1161 49.4666C31.3766 51.3022 31.721 54.6228 29.8852 56.8831L29.7477 57.0527C27.9119 59.313 24.5915 59.6573 22.3312 57.8218Z" fill="#FED2A4"/>
<path d="M19.9341 69.4799L12.4421 63.3958C10.1816 61.5603 9.83726 58.2397 11.673 55.9794L11.8382 55.7759C13.6737 53.5153 16.9943 53.171 19.2546 55.0068L26.7466 61.0908C29.0072 62.9264 29.3515 66.247 27.5157 68.5073L27.3506 68.7108C25.5151 70.9711 22.1947 71.3154 19.9341 69.4799Z" fill="#FED2A4"/>
<path d="M17.6067 81.3031L9.80638 74.9689C7.54584 73.1334 7.20152 69.8128 9.03727 67.5525L9.33644 67.1841C11.172 64.9235 14.4926 64.5792 16.7529 66.415L24.5532 72.7491C26.8138 74.5846 27.1581 77.9053 25.3223 80.1656L25.0232 80.534C23.1876 82.7943 19.8672 83.1386 17.6067 81.3031Z" fill="#FED2A4"/>
<path d="M35.7692 68.6863C34.5164 68.6863 33.501 69.7019 33.501 70.9545V78.4611C33.501 79.7139 34.5166 80.7293 35.7692 80.7293H54.9827C55.9153 80.7293 56.6715 79.9733 56.6715 79.0405V70.3749C56.6715 69.4423 55.9155 68.686 54.9827 68.686H35.7692V68.6863Z" fill="#75CB40"/>
<path d="M48.0317 95.9557H25.0409C21.7855 95.9557 19.1371 93.3073 19.1371 90.0519V83.5871C19.6536 83.7073 20.1839 83.7739 20.7223 83.7739C20.967 83.7739 21.2136 83.7613 21.4606 83.7356C21.8657 83.6935 22.2615 83.6158 22.6458 83.5082V90.0519C22.6458 91.3726 23.7202 92.447 25.0409 92.447H47.5712C48.54 92.447 49.3255 91.6617 49.3255 90.6926C49.3255 89.7235 48.54 88.9383 47.5712 88.9383H26.1545V81.2177C26.1662 81.2035 26.1788 81.1901 26.1903 81.1756C28.5016 78.3296 28.2123 74.2071 25.6259 71.7026C26.7554 71.2792 27.7912 70.5623 28.605 69.5602C30.9163 66.7142 30.6269 62.5917 28.0406 60.0872C29.1701 59.6638 30.2059 58.9468 31.0197 57.9447C32.2028 56.4877 32.7478 54.6571 32.5542 52.7902C32.3605 50.9236 31.4515 49.2436 29.9944 48.0605L26.1543 44.942V10.526H33.9223L33.9726 10.6846C34.5572 12.5265 36.2481 13.7641 38.1805 13.7641H51.7397C53.6721 13.7641 55.3631 12.5267 55.9478 10.6844L55.9986 10.526H62.9702V34.8718C62.9702 35.8409 63.7554 36.6261 64.7245 36.6261C65.6936 36.6261 66.4789 35.8409 66.4789 34.8718V9.41237C66.4789 8.0917 65.4045 7.01733 64.0841 7.01733H55.5259C54.273 7.01733 53.1764 7.81989 52.7973 9.01425L52.604 9.62313C52.4841 10.0014 52.1369 10.2554 51.7402 10.2554H38.1809C37.7845 10.2554 37.4373 10.0014 37.3173 9.62336L37.1241 9.01425C36.7452 7.81989 35.6488 7.01733 34.3955 7.01733H25.0409C23.7202 7.01733 22.6458 8.09193 22.6458 9.41237V42.102C21.6093 41.3299 20.4026 40.866 19.1371 40.7449V22.8884C19.1371 21.9193 18.3516 21.134 17.3828 21.134C16.4197 21.134 15.6387 21.9099 15.6293 22.8708C14.341 22.1062 12.8474 21.7754 11.33 21.9328C9.46315 22.1265 7.78342 23.0355 6.60028 24.4925C5.41715 25.9496 4.87213 27.7802 5.06558 29.6471C5.25926 31.5137 6.16825 33.1937 7.62529 34.3768L15.6284 40.8758V41.3041C14.6156 41.7474 13.7157 42.4274 12.9985 43.3104C11.8154 44.7675 11.2704 46.5981 11.4638 48.4649C11.6357 50.1234 12.3737 51.6333 13.5576 52.7795C12.4041 53.2124 11.381 53.9441 10.5836 54.9259C8.27183 57.7728 8.56165 61.8962 11.1494 64.4008C10.0194 64.8234 8.98293 65.5387 8.16891 66.5413C6.98554 67.9983 6.44052 69.829 6.6342 71.6958C6.82788 73.5625 7.73687 75.2424 9.19392 76.4258L15.6282 81.6507V90.0517C15.6282 95.2418 19.8505 99.4642 25.0406 99.4642H48.0315C49.0004 99.4642 49.7859 98.6789 49.7859 97.7098C49.7859 96.7407 49.0006 95.9557 48.0317 95.9557ZM9.83718 31.6529C9.10784 31.0606 8.65264 30.2197 8.55557 29.285C8.45873 28.3502 8.73147 27.4338 9.32397 26.7042C9.91624 25.9749 10.7572 25.5199 11.6921 25.4226C12.6259 25.3253 13.5433 25.5983 14.2726 26.191L15.6284 27.292V36.3557L9.83718 31.6529ZM15.7224 45.5221C16.3147 44.7927 17.1556 44.3378 18.0906 44.2405C18.2141 44.2276 18.3374 44.2213 18.4602 44.2213C19.2644 44.2213 20.0384 44.495 20.6714 45.0089L27.7833 50.784C28.5126 51.3762 28.9678 52.2171 29.0649 53.1519C29.1617 54.0866 28.889 55.0031 28.2967 55.7324C27.0738 57.2383 24.854 57.4692 23.3478 56.2456L16.2359 50.4705C15.5065 49.8782 15.0513 49.0373 14.9543 48.1026C14.8572 47.1681 15.1302 46.2516 15.7224 45.5221ZM13.3078 57.1377C13.9 56.4084 14.7409 55.9534 15.6759 55.8561C16.5718 55.7642 17.4497 56.0138 18.1636 56.5562L21.1357 58.9698C21.1694 58.9971 21.2049 59.0198 21.2388 59.0465L25.3681 62.3996C26.874 63.6225 27.1042 65.8426 25.8813 67.3483C24.6584 68.854 22.4383 69.0844 20.9324 67.8615L13.8207 62.0864C12.315 60.8638 12.0849 58.6437 13.3078 57.1377ZM10.1247 71.334C10.0278 70.3995 10.3006 69.483 10.8931 68.7534C11.5873 67.8985 12.6032 67.4545 13.6273 67.4545C14.3653 67.4545 15.1061 67.6882 15.7353 68.1611L18.721 70.5857C18.7551 70.6135 18.7916 70.6367 18.8262 70.6636L22.9536 74.0153C24.4596 75.2382 24.6897 77.4583 23.4668 78.964C22.8743 79.6933 22.0334 80.1485 21.0987 80.2456C20.1642 80.3422 19.2475 80.0695 18.5182 79.4772L11.4065 73.7021C10.6767 73.1098 10.2215 72.2687 10.1247 71.334Z" fill="black"/>
<path d="M17.3828 17.1664C18.3516 17.1664 19.1371 16.3812 19.1371 15.4121V9.41245C19.1371 6.15707 21.7857 3.5087 25.0409 3.5087H64.0839C67.339 3.5087 69.9874 6.15707 69.9874 9.41245V41.7851C69.9874 42.7542 70.7726 43.5395 71.7417 43.5395C72.7108 43.5395 73.4961 42.7542 73.4961 41.7851V9.41245C73.4963 4.22237 69.2739 0 64.0839 0H25.0409C19.8508 0 15.6284 4.22237 15.6284 9.41245V15.4119C15.6284 16.381 16.4139 17.1664 17.3828 17.1664Z" fill="black"/>
<path d="M113.555 116.109L101.586 102.03C100.959 101.292 99.8518 101.202 99.1138 101.83C98.3755 102.458 98.2857 103.565 98.9135 104.303L110.882 118.382C111.229 118.79 111.723 119 112.22 119C112.621 119 113.025 118.863 113.355 118.582C114.093 117.955 114.183 116.847 113.555 116.109Z" fill="black"/>
<path d="M70.5984 111.234C70.3261 110.878 69.9283 110.64 69.4862 110.569C63.3869 109.583 58.4536 104.854 57.2106 98.8021L56.5641 95.6534C55.8324 92.0909 56.4214 88.3887 58.2225 85.229L66.9009 70.0038C68.0296 68.024 67.8534 65.5833 66.4523 63.7857L58.3238 53.359C55.9456 50.3085 56.0649 45.9788 58.6071 43.064L59.0415 42.5658C59.2737 42.2993 59.5629 42.2549 59.7142 42.2519C59.8695 42.2469 60.1563 42.2825 60.3986 42.5396L73.0113 55.957C73.6759 56.6623 74.786 56.6946 75.4915 56.0302C76.1965 55.3657 76.2293 54.2553 75.5647 53.5501L62.952 40.1328C62.0975 39.226 60.8929 38.7177 59.6466 38.7436C58.4005 38.7677 57.2162 39.32 56.3971 40.2591L55.9627 40.7574C52.3183 44.936 52.1476 51.1427 55.5566 55.5159L63.6851 65.9426C64.2086 66.6142 64.2746 67.5262 63.8528 68.2661L55.1744 83.4913C52.9511 87.3916 52.224 91.9615 53.1272 96.3591L53.7737 99.5078C55.26 106.745 61.0213 112.45 68.2254 113.905L71.604 118.313C71.9495 118.764 72.4704 119 72.9977 119C73.3698 119 73.7453 118.882 74.0636 118.638C74.8327 118.048 74.9782 116.947 74.3888 116.178L70.5984 111.234Z" fill="black"/>
<path d="M92.201 90.9894C91.82 90.5413 91.6102 89.9705 91.6102 89.3825V80.3503C91.6102 74.0232 89.2203 68.0032 84.8807 63.3989L75.8388 53.8056C75.1742 53.1003 74.0638 53.0681 73.3586 53.7324C72.6536 54.3969 72.6208 55.5073 73.2854 56.2126L82.3273 65.8058C86.0507 69.7564 88.1014 74.9217 88.1014 80.3506V89.3827C88.1014 90.8023 88.6079 92.1801 89.5276 93.2621L101.652 107.494C101.999 107.903 102.493 108.113 102.99 108.113C103.392 108.113 103.795 107.976 104.125 107.695C104.864 107.067 104.953 105.96 104.326 105.222L92.201 90.9894Z" fill="black"/>
<path d="M49.4893 78.9749H35.7682C35.4849 78.9749 35.2543 78.7445 35.2543 78.461V70.9545C35.2543 70.671 35.4849 70.4406 35.7682 70.4406H53.3786C54.3475 70.4406 55.133 69.6553 55.133 68.6862C55.133 67.7171 54.3475 66.9319 53.3786 66.9319H35.7682C33.5502 66.9319 31.7456 68.7365 31.7456 70.9545V78.461C31.7456 80.679 33.5502 82.4836 35.7682 82.4836H49.4893C50.4582 82.4836 51.2437 81.6984 51.2437 80.7293C51.2437 79.7602 50.4582 78.9749 49.4893 78.9749Z" fill="black"/>
</g>
<defs>
<clipPath id="clip0">
<rect width="119" height="119" fill="white"/>
</clipPath>
</defs>
</svg>
