<svg width="39" height="38" viewBox="0 0 39 38" fill="none" xmlns="http://www.w3.org/2000/svg">
<path d="M19.459 0C12.0889 0 6.09961 5.98945 6.09961 13.3594C6.09961 15.8531 6.78999 18.2802 8.10359 20.3731L18.5534 37.4742C18.7316 37.7636 18.9988 37.9418 19.3106 37.9863C19.7335 38.0531 20.2013 37.875 20.4462 37.452L30.9259 20.1949C32.1726 18.1466 32.8184 15.7641 32.8184 13.3594C32.8184 5.98945 26.8291 0 19.459 0ZM19.459 20.0391C15.7185 20.0391 12.7793 17.0109 12.7793 13.3594C12.7793 9.68547 15.7851 6.67969 19.459 6.67969C23.1329 6.67969 26.1387 9.68547 26.1387 13.3594C26.1387 16.9887 23.2441 20.0391 19.459 20.0391Z" fill="white"/>
</svg>
