<svg width="76" height="98" viewBox="0 0 76 98" fill="none" xmlns="http://www.w3.org/2000/svg">
<path d="M27.32 27.35C27.32 17.66 33.64 9.45 42.39 6.62C40.27 5.93 38.01 5.56 35.66 5.56C23.62 5.56 13.87 15.32 13.87 27.35C13.87 39.39 23.63 49.14 35.66 49.14C38.01 49.14 40.27 48.77 42.39 48.08C33.65 45.25 27.32 37.04 27.32 27.35Z" fill="#D8EEF1"/>
<path d="M75.42 93.87C75.42 79.18 66.19 66.61 53.22 61.64C53.17 61.62 53.12 61.59 53.06 61.57C50.57 60.63 47.99 59.99 45.35 59.66C45.31 59.66 45.28 59.65 45.24 59.65C45.01 59.62 44.77 59.59 44.54 59.57C44.47 59.56 44.41 59.56 44.34 59.55C44.13 59.53 43.93 59.51 43.72 59.5C43.64 59.49 43.55 59.49 43.47 59.48C43.28 59.47 43.09 59.45 42.89 59.44C42.8 59.43 42.7 59.43 42.61 59.42C42.42 59.41 42.22 59.4 42.03 59.4C41.94 59.4 41.86 59.39 41.77 59.39C41.5 59.38 41.22 59.38 40.95 59.38C40.94 59.38 40.94 59.38 40.93 59.38H35.25C35.24 59.38 35.24 59.38 35.23 59.38C34.96 59.38 34.68 59.38 34.41 59.39C34.32 59.39 34.23 59.4 34.15 59.4C33.96 59.41 33.76 59.41 33.57 59.42C33.48 59.42 33.38 59.43 33.29 59.44C33.1 59.45 32.91 59.46 32.71 59.48C32.62 59.49 32.54 59.49 32.46 59.5C32.25 59.52 32.05 59.53 31.84 59.55C31.77 59.56 31.71 59.56 31.64 59.57C31.41 59.59 31.17 59.62 30.94 59.65C30.9 59.65 30.87 59.66 30.83 59.66C28.2 60 25.62 60.64 23.12 61.57C23.06 61.59 23.01 61.62 22.96 61.64C9.98999 66.6 0.76001 79.18 0.76001 93.87C0.76001 95.96 2.45999 97.66 4.54999 97.66C6.63999 97.66 8.34 95.96 8.34 93.87C8.34 80.19 18.6 68.86 31.82 67.18H31.83C32.03 67.15 32.24 67.13 32.45 67.11C32.49 67.11 32.52 67.1 32.56 67.1C32.73 67.08 32.91 67.07 33.08 67.05C33.14 67.05 33.19 67.04 33.25 67.04C33.41 67.03 33.56 67.02 33.72 67.01C33.79 67.01 33.86 67 33.92 67C34.07 66.99 34.23 66.99 34.38 66.98C34.45 66.98 34.51 66.97 34.58 66.97C34.79 66.96 35 66.96 35.21 66.96C35.22 66.96 35.23 66.96 35.23 66.96H40.91C40.92 66.96 40.93 66.96 40.93 66.96C41.14 66.96 41.35 66.96 41.56 66.97C41.63 66.97 41.69 66.97 41.76 66.98C41.91 66.98 42.07 66.99 42.22 67C42.29 67 42.36 67.01 42.42 67.01C42.58 67.02 42.73 67.03 42.89 67.04C42.95 67.04 43 67.05 43.06 67.05C43.23 67.06 43.41 67.08 43.58 67.1C43.62 67.1 43.65 67.11 43.69 67.11C43.9 67.13 44.1 67.15 44.31 67.18H44.32C57.55 68.87 67.8 80.2 67.8 93.87C67.8 95.96 69.5 97.66 71.59 97.66C73.72 97.66 75.42 95.96 75.42 93.87Z" fill="#40B3C2"/>
<path d="M37.7 51.8C51.81 51.8 63.28 40.32 63.28 26.22C63.28 12.12 51.8 0.640015 37.7 0.640015C23.6 0.640015 12.12 12.12 12.12 26.22C12.12 40.32 23.59 51.8 37.7 51.8ZM37.7 8.21002C47.63 8.21002 55.7 16.29 55.7 26.21C55.7 36.13 47.62 44.21 37.7 44.21C27.78 44.21 19.7 36.13 19.7 26.21C19.7 16.29 27.77 8.21002 37.7 8.21002Z" fill="#40B3C2"/>
</svg>
