<svg width="198" height="199" viewBox="0 0 198 199" fill="none" xmlns="http://www.w3.org/2000/svg">
<g clip-path="url(#clip0)">
<path d="M192.7 111.6C192.7 60.1999 152.7 2.8999 103.4 2.8999C54.1001 2.8999 14.1001 60.1999 14.1001 111.6C14.1001 163 54.1001 179.3 103.4 179.3C152.7 179.3 192.7 163 192.7 111.6Z" fill="#E3E3FC"/>
<path opacity="0.5" d="M0 76.3C0 134.3 39.8 198.8 88.9 198.8C138 198.8 198 134.3 198 76.3C198 18.3 138 0 88.9 0C39.8 0 0 18.3 0 76.3Z" fill="#E7E3FC"/>
<path d="M54.0002 158.7L144.3 158.6C148.3 158.6 151.5 155.3 151.5 151.3L151.4 93.6997L46.7002 93.8997L46.8002 151.5C46.8002 155.5 50.0002 158.7 54.0002 158.7Z" fill="#FFD54F"/>
<path d="M46.3003 93.8997H46.7003L54.8003 100.7L92.9003 132.7C96.8003 135.2 101.6 135.1 105.5 132.7L144.7 99.3997L151.4 93.6997L144.7 87.9997L105.5 54.8997C101.7 52.3997 96.8003 52.4997 92.9003 54.8997L54.9003 86.7997L46.3003 93.8997Z" fill="#FFA726"/>
<path d="M54.8999 52.4999V100.8L92.9999 132.8C96.8999 135.3 101.7 135.2 105.6 132.8L144.8 99.4999V41.7999C144.8 38.4999 142.1 35.8999 138.9 35.8999H71.4999L54.8999 52.4999Z" fill="#FFF8ED"/>
<path opacity="0.1" d="M65.1999 48.6997L54.8999 52.4997V65.6997L69.8999 50.6997L65.1999 48.6997Z" fill="#111111"/>
<path d="M54.8999 52.4999H65.5999C68.8999 52.4999 71.5999 49.7999 71.5999 46.4999V35.8999L54.8999 52.4999Z" fill="#FFE2B7"/>
<path d="M166.4 158.4L106.8 120.4C102.2 117.4 96.3001 117.5 91.6001 120.4L32.1001 158.6L166.4 158.4Z" fill="url(#paint0_linear)"/>
<path d="M131.1 57.7998H66.7002V66.0998H131.1V57.7998Z" fill="#FFE2B7"/>
<path d="M131.1 73.0996H66.7002V75.0996H131.1V73.0996Z" fill="#FFE2B7"/>
<path d="M131.1 77.0996H66.7002V79.0996H131.1V77.0996Z" fill="#FFE2B7"/>
<path d="M131.1 81H66.7002V83H131.1V81Z" fill="#FFE2B7"/>
<path d="M131.1 85H66.7002V87H131.1V85Z" fill="#FFE2B7"/>
<path d="M131.1 88.8999H66.7002V90.8999H131.1V88.8999Z" fill="#FFE2B7"/>
<path d="M115.1 92.8999H66.7002V94.8999H115.1V92.8999Z" fill="#FFE2B7"/>
<path d="M131.1 100.8H66.7002V102.8H131.1V100.8Z" fill="#FFE2B7"/>
<path d="M101.6 104.8H66.7002V106.8H101.6V104.8Z" fill="#FFE2B7"/>
<path d="M119.1 39.9004C119.1 40.4004 118.7 40.8004 118.2 40.8004C117.7 40.8004 117.2 40.4004 117.2 39.9004C117.2 39.4004 117.6 38.9004 118.2 38.9004C118.7 38.9004 119.1 39.3004 119.1 39.9004Z" fill="white"/>
<path d="M102.5 42.0004C102.5 43.2004 101.6 44.1004 100.4 44.1004C99.2003 44.1004 98.3003 43.2004 98.3003 42.0004C98.3003 40.8004 99.2003 39.9004 100.4 39.9004C101.5 39.9004 102.5 40.8004 102.5 42.0004Z" fill="white"/>
<path d="M40.5002 77.4C40.5002 77.9 40.1002 78.3 39.6002 78.3C39.1002 78.3 38.7002 77.9 38.7002 77.4C38.7002 76.9 39.1002 76.5 39.6002 76.5C40.1002 76.5 40.5002 76.9 40.5002 77.4Z" fill="white"/>
<path d="M105.6 23.4004C105.6 24.2004 104.9 24.9004 104.1 24.9004C103.3 24.9004 102.6 24.2004 102.6 23.4004C102.6 22.6004 103.3 21.9004 104.1 21.9004C104.9 21.9004 105.6 22.6004 105.6 23.4004Z" fill="white"/>
<path d="M65.1001 29C65.1001 29.8 64.4001 30.5 63.6001 30.5C62.8001 30.5 62.1001 29.8 62.1001 29C62.1001 28.2 62.8001 27.5 63.6001 27.5C64.4001 27.5 65.1001 28.2 65.1001 29Z" fill="white"/>
<path d="M41.6999 62.9002L45.3999 62.0002C45.7999 61.9002 45.7999 61.3002 45.3999 61.2002L41.6999 60.3002C41.3999 60.2002 41.1999 60.0002 41.0999 59.7002L40.1999 56.0002C40.0999 55.6002 39.4999 55.6002 39.3999 56.0002L38.4999 59.7002C38.3999 60.0002 38.1999 60.2002 37.8999 60.3002L34.1999 61.2002C33.7999 61.3002 33.7999 61.9002 34.1999 62.0002L37.8999 62.9002C38.1999 63.0002 38.3999 63.2002 38.4999 63.5002L39.3999 67.2002C39.4999 67.6002 40.0999 67.6002 40.1999 67.2002L41.0999 63.5002C41.1999 63.2002 41.3999 63.0002 41.6999 62.9002Z" fill="white"/>
<path d="M125.1 21.9002L128.8 21.0002C129.2 20.9002 129.2 20.3002 128.8 20.2002L125.1 19.3002C124.8 19.2002 124.6 19.0002 124.5 18.7002L123.6 15.0002C123.5 14.6002 122.9 14.6002 122.8 15.0002L121.9 18.7002C121.8 19.0002 121.6 19.2002 121.3 19.3002L117.6 20.2002C117.2 20.3002 117.2 20.9002 117.6 21.0002L121.3 21.9002C121.6 22.0002 121.8 22.2002 121.9 22.5002L122.8 26.2002C122.9 26.6002 123.5 26.6002 123.6 26.2002L124.5 22.5002C124.5 22.2002 124.8 22.0002 125.1 21.9002Z" fill="white"/>
<path d="M81.3 20.5001L84.1 19.8001C84.4 19.7001 84.4 19.3001 84.1 19.2001L81.3 18.5001C81.1 18.4001 80.9 18.3001 80.8 18.0001L80.1 15.2001C80 14.9001 79.6 14.9001 79.5 15.2001L78.9 18.0001C78.8 18.2001 78.7 18.4001 78.4 18.5001L75.6 19.2001C75.3 19.3001 75.3 19.7001 75.6 19.8001L78.4 20.5001C78.6 20.6001 78.8 20.7001 78.9 21.0001L79.6 23.8001C79.7 24.1001 80.1 24.1001 80.2 23.8001L80.9 21.0001C80.9 20.7001 81.1 20.5001 81.3 20.5001Z" fill="white"/>
<path d="M154.5 76.8003C154.5 77.6003 153.8 78.3003 153 78.3003C152.2 78.3003 151.5 77.6003 151.5 76.8003C151.5 76.0003 152.2 75.3003 153 75.3003C153.9 75.4003 154.5 76.0003 154.5 76.8003Z" fill="white"/>
<path d="M182.6 44.0001L185.4 43.3001C185.7 43.2001 185.7 42.8001 185.4 42.7001L182.6 42.0001C182.4 41.9001 182.2 41.8001 182.1 41.5001L181.4 38.7001C181.3 38.4001 180.9 38.4001 180.8 38.7001L180.1 41.5001C180 41.7001 179.9 41.9001 179.6 42.0001L176.8 42.7001C176.5 42.8001 176.5 43.2001 176.8 43.3001L179.6 44.0001C179.8 44.1001 180 44.2001 180.1 44.5001L180.8 47.3001C180.9 47.6001 181.3 47.6001 181.4 47.3001L182.1 44.5001C182.2 44.2001 182.3 44.0001 182.6 44.0001Z" fill="white"/>
<path d="M158.5 43.2002L160.4 42.7002C160.6 42.7002 160.6 42.4002 160.4 42.3002L158.5 41.8002C158.3 41.8002 158.2 41.6002 158.2 41.5002L157.7 39.6002C157.6 39.4002 157.4 39.4002 157.3 39.6002L156.8 41.5002C156.8 41.7002 156.6 41.8002 156.5 41.8002L154.6 42.3002C154.4 42.4002 154.4 42.6002 154.6 42.7002L156.5 43.2002C156.7 43.2002 156.8 43.4002 156.8 43.5002L157.3 45.4002C157.4 45.6002 157.6 45.6002 157.7 45.4002L158.2 43.5002C158.2 43.3002 158.3 43.2002 158.5 43.2002Z" fill="white"/>
<path d="M34.9001 28.2002L36.8001 27.7002C37.0001 27.7002 37.0001 27.4002 36.8001 27.3002L34.9001 26.8002C34.7001 26.8002 34.6001 26.6002 34.6001 26.5002L34.1001 24.6002C34.0001 24.4002 33.8001 24.4002 33.7001 24.6002L33.2001 26.5002C33.2001 26.7002 33.0001 26.8002 32.9001 26.8002L31.0001 27.3002C30.8001 27.4002 30.8001 27.6002 31.0001 27.7002L32.9001 28.2002C33.1001 28.2002 33.2001 28.4002 33.2001 28.5002L33.7001 30.4002C33.8001 30.6002 34.0001 30.6002 34.1001 30.4002L34.6001 28.5002C34.6001 28.3002 34.7001 28.2002 34.9001 28.2002Z" fill="white"/>
</g>
<defs>
<linearGradient id="paint0_linear" x1="99.2901" y1="158.528" x2="99.2901" y2="118.111" gradientUnits="userSpaceOnUse">
<stop stop-color="#FFA726"/>
<stop offset="1" stop-color="#FFC46E"/>
</linearGradient>
<clipPath id="clip0">
<rect width="198" height="198.8" fill="white"/>
</clipPath>
</defs>
</svg>
