<svg width="27" height="28" viewBox="0 0 27 28" fill="none" xmlns="http://www.w3.org/2000/svg">
<path d="M18.2068 15.8716V18.8407L25.2402 12.6428L18.2068 6.42627V9.39534C11.4238 9.39534 3.90713 13.8675 3.90713 23.2943C3.90713 23.2943 8.02342 15.8716 18.2068 15.8716Z" stroke="white" stroke-width="1.5" stroke-miterlimit="10" stroke-linecap="round" stroke-linejoin="round"/>
<path d="M14.4897 5.66795C14.3144 5.66795 14.1723 5.5259 14.1723 5.35059C14.1723 5.14056 14.0015 4.96976 13.7915 4.96976C13.6162 4.96976 13.4741 4.8277 13.4741 4.65239C13.4741 4.47708 13.6162 4.33503 13.7915 4.33503C14.0015 4.33503 14.1723 4.16423 14.1723 3.9542C14.1723 3.77889 14.3144 3.63684 14.4897 3.63684C14.6649 3.63684 14.807 3.77889 14.807 3.9542C14.807 4.16423 14.9778 4.33503 15.1879 4.33503C15.3631 4.33503 15.5052 4.47708 15.5052 4.65239C15.5052 4.8277 15.3631 4.96976 15.1879 4.96976C14.9778 4.96976 14.807 5.14056 14.807 5.35059C14.807 5.52584 14.665 5.66795 14.4897 5.66795Z" fill="#FFF7E4"/>
<path d="M25.1611 19.8966C24.9858 19.8966 24.8437 19.7545 24.8437 19.5792C24.8437 19.3692 24.6729 19.1984 24.4629 19.1984C24.2876 19.1984 24.1455 19.0563 24.1455 18.881C24.1455 18.7057 24.2876 18.5637 24.4629 18.5637C24.6729 18.5637 24.8437 18.3929 24.8437 18.1828C24.8437 18.0075 24.9858 17.8655 25.1611 17.8655C25.3363 17.8655 25.4784 18.0075 25.4784 18.1828C25.4784 18.3929 25.6492 18.5637 25.8593 18.5637C26.0345 18.5637 26.1766 18.7057 26.1766 18.881C26.1766 19.0563 26.0345 19.1984 25.8593 19.1984C25.6492 19.1984 25.4784 19.3692 25.4784 19.5792C25.4784 19.7545 25.3364 19.8966 25.1611 19.8966Z" fill="#FFF7E4"/>
<path d="M15.3793 24.3431C15.2041 24.3431 15.062 24.2011 15.062 24.0258C15.062 23.8157 14.8911 23.6449 14.6811 23.6449C14.5059 23.6449 14.3638 23.5029 14.3638 23.3276C14.3638 23.1523 14.5059 23.0102 14.6811 23.0102C14.8912 23.0102 15.062 22.8394 15.062 22.6294C15.062 22.4541 15.2041 22.312 15.3793 22.312C15.5546 22.312 15.6967 22.4541 15.6967 22.6294C15.6967 22.8394 15.8675 23.0102 16.0775 23.0102C16.2528 23.0102 16.3949 23.1523 16.3949 23.3276C16.3949 23.5029 16.2528 23.6449 16.0775 23.6449C15.8676 23.6449 15.6967 23.8157 15.6967 24.0258C15.6967 24.2011 15.5546 24.3431 15.3793 24.3431Z" fill="#FFF7E4"/>
<path d="M10.9325 27.9003C10.7573 27.9003 10.6152 27.7582 10.6152 27.5829C10.6152 27.3729 10.4444 27.2021 10.2344 27.2021C10.0591 27.2021 9.91699 27.06 9.91699 26.8847C9.91699 26.7094 10.0591 26.5673 10.2344 26.5673C10.4444 26.5673 10.6152 26.3965 10.6152 26.1865C10.6152 26.0112 10.7573 25.8691 10.9325 25.8691C11.1078 25.8691 11.2499 26.0112 11.2499 26.1865C11.2499 26.3965 11.4207 26.5673 11.6307 26.5673C11.806 26.5673 11.9481 26.7094 11.9481 26.8847C11.9481 27.06 11.806 27.2021 11.6307 27.2021C11.4207 27.2021 11.2499 27.3729 11.2499 27.5829C11.2499 27.7582 11.1078 27.9003 10.9325 27.9003Z" fill="#FFF7E4"/>
<path d="M1.17 17.2681C1.08583 17.2681 1.0051 17.2347 0.945559 17.1751L0.227689 16.4572C0.168152 16.3977 0.134766 16.317 0.134766 16.2328C0.134766 16.1487 0.168215 16.0679 0.227689 16.0085L0.945559 15.2906C1.06952 15.1666 1.27047 15.1667 1.39437 15.2905L2.1123 16.0084C2.17184 16.0679 2.20529 16.1487 2.20529 16.2328C2.20529 16.317 2.17184 16.3977 2.11237 16.4572L1.39437 17.1752C1.33483 17.2347 1.25416 17.2681 1.17 17.2681ZM0.900938 16.2329L1.17 16.502L1.43905 16.2329L1.17 15.9639L0.900938 16.2329Z" fill="#FFF7E4"/>
<path d="M10.0631 3.03952C9.98182 3.03952 9.90064 3.00854 9.83863 2.94653L9.12076 2.22866C9.06122 2.16913 9.02783 2.08845 9.02783 2.00429C9.02783 1.92012 9.06128 1.83939 9.12076 1.77991L9.83863 1.06198C9.89816 1.00244 9.9789 0.968994 10.0631 0.968994C10.1472 0.968994 10.228 1.00238 10.2875 1.06198L11.0054 1.77991C11.065 1.83945 11.0984 1.92012 11.0984 2.00429C11.0984 2.08845 11.0649 2.16919 11.0054 2.22873L10.2875 2.9466C10.2255 3.00854 10.1442 3.03952 10.0631 3.03952ZM9.79401 2.00435L10.0631 2.27335L10.3321 2.00435L10.0631 1.73529L9.79401 2.00435Z" fill="#FFF7E4"/>
</svg>
