<svg width="15" height="15" viewBox="0 0 15 15" fill="none" xmlns="http://www.w3.org/2000/svg">
<path d="M10.379 8.901C12.1796 6.35841 11.5774 2.83767 9.03479 1.03751C6.4922 -0.762643 2.97146 -0.16087 1.1713 2.38215C-0.628854 4.92474 -0.0270811 8.44505 2.51594 10.2452C4.33072 11.53 6.73007 11.629 8.64422 10.4986L12.8033 14.6327C13.2524 15.1054 13.9995 15.1243 14.4723 14.6753C14.945 14.2266 14.9639 13.4795 14.5153 13.0067C14.5011 12.9917 14.4873 12.9779 14.4723 12.9637L10.379 8.901ZM5.77171 9.28641C3.7625 9.28684 2.13354 7.65917 2.13225 5.64996C2.13182 3.64075 3.75949 2.01179 5.76913 2.01093C7.77575 2.01007 9.40385 3.63516 9.40772 5.64179C9.41117 7.65143 7.78436 9.28297 5.77429 9.28641C5.77343 9.28641 5.773 9.28641 5.77171 9.28641Z" fill="#63294E"/>
</svg>
