<svg width="80" height="77" viewBox="0 0 80 77" fill="none" xmlns="http://www.w3.org/2000/svg">
<g clip-path="url(#clip0)">
<path d="M72.7996 52.3H6.29961C5.89961 52.3 5.59961 52 5.59961 51.6V12.7C5.59961 12.3 5.89961 12 6.29961 12H72.6996C73.0996 12 73.3996 12.3 73.3996 12.7V51.6C73.3996 52 73.0996 52.3 72.7996 52.3ZM6.99961 51H72.0996V13.4H6.99961V51Z" fill="#8E75B0"/>
<path d="M78.5 13.4H0.7C0.3 13.4 0 13.1 0 12.7V7.10002C0 6.70002 0.3 6.40002 0.7 6.40002H78.5C78.9 6.40002 79.2 6.70002 79.2 7.10002V12.7C79.1 13.1 78.8 13.4 78.5 13.4ZM1.3 12.1H77.8V7.80002H1.3V12.1Z" fill="#8E75B0"/>
<path d="M57.1998 46.3H52.4998C52.0998 46.3 51.7998 46 51.7998 45.6V22C51.7998 21.6 52.0998 21.3 52.4998 21.3H57.1998C57.5998 21.3 57.8998 21.6 57.8998 22V45.7001C57.7998 46 57.4998 46.3 57.1998 46.3ZM53.0998 45H56.4998V22.6H53.0998V45Z" fill="#8E75B0"/>
<path d="M49.4996 46.3001H44.7996C44.3996 46.3001 44.0996 46.0001 44.0996 45.6001V24.9001C44.0996 24.5001 44.3996 24.2001 44.7996 24.2001H49.4996C49.8996 24.2001 50.1996 24.5001 50.1996 24.9001V45.7001C50.1996 46.0001 49.8996 46.3001 49.4996 46.3001ZM45.4996 45.0001H48.8996V25.6001H45.4996V45.0001Z" fill="#8E75B0"/>
<path d="M41.9 46.3H37.2C36.8 46.3 36.5 46 36.5 45.6V27.8C36.5 27.4 36.8 27.1 37.2 27.1H41.9C42.3 27.1 42.6 27.4 42.6 27.8V45.7C42.5 46 42.3 46.3 41.9 46.3ZM37.9 45H41.3V28.4H37.9V45Z" fill="#8E75B0"/>
<path d="M34.3004 46.3H29.6004C29.2004 46.3 28.9004 46 28.9004 45.6V31.8C28.9004 31.4 29.2004 31.1 29.6004 31.1H34.3004C34.7004 31.1 35.0004 31.4 35.0004 31.8V45.7C34.9004 46 34.6004 46.3 34.3004 46.3ZM30.2004 45H33.6004V32.4H30.2004V45Z" fill="#8E75B0"/>
<path d="M26.5998 46.3H21.9998C21.5998 46.3 21.2998 46 21.2998 45.6V35.8C21.2998 35.4 21.5998 35.1 21.9998 35.1H26.6998C27.0998 35.1 27.3998 35.4 27.3998 35.8V45.6C27.2998 46 26.9998 46.3 26.5998 46.3ZM22.5998 45H25.9998V36.5H22.5998V45Z" fill="#8E75B0"/>
<path d="M60.2996 49.2001H18.7996C18.3996 49.2001 18.0996 48.9 18.0996 48.5C18.0996 48.1 18.3996 47.8 18.7996 47.8H60.2996C60.6996 47.8 60.9996 48.1 60.9996 48.5C60.9996 48.9 60.6996 49.2001 60.2996 49.2001Z" fill="#8E75B0"/>
<path d="M22 32.4C21.7 32.4 21.5 32.2 21.4 32C21.3 31.7 21.5 31.3 21.8 31.2C22 31.1 39.4 24.8 47 15.9C47.2 15.6 47.6 15.6 47.9 15.8C48.2 16 48.2 16.4 48 16.7C40.2 25.8 23 32.1 22.3 32.3C22.1 32.4 22 32.4 22 32.4Z" fill="#8E75B0"/>
<path d="M47.3004 20.9001C46.9004 20.9001 46.6004 20.6001 46.6004 20.2001V17.0001H43.6004C43.2004 17.0001 43.0004 16.7001 42.9004 16.4001C42.9004 16.0001 43.2004 15.7001 43.5004 15.7001H47.2004C47.4004 15.7001 47.5004 15.8001 47.7004 15.9001C47.8004 16.0001 47.9004 16.2001 47.9004 16.4001V20.3001C48.0004 20.6001 47.7004 20.9001 47.3004 20.9001Z" fill="#8E75B0"/>
<path d="M42.1004 7.80002H37.1004C36.7004 7.80002 36.4004 7.50002 36.4004 7.10002V3.10002C36.4004 1.30002 37.8004 -0.0999756 39.6004 -0.0999756C41.4004 -0.0999756 42.8004 1.30002 42.8004 3.10002V7.10002C42.7004 7.50002 42.4004 7.80002 42.1004 7.80002ZM37.7004 6.50002H41.4004V3.20002C41.4004 2.20002 40.6004 1.30002 39.5004 1.30002C38.5004 1.30002 37.6004 2.10002 37.6004 3.20002V6.50002H37.7004Z" fill="#8E75B0"/>
<path d="M70.1996 76.9C69.7996 76.9 69.4996 76.6 69.4996 76.2V73.2C69.4996 70.9 67.5996 69 65.2996 69H58.2996C55.9996 69 54.0996 70.9 54.0996 73.2V76.2C54.0996 76.6 53.7996 76.9 53.3996 76.9C52.9996 76.9 52.6996 76.6 52.6996 76.2V73.2C52.6996 70.1 55.1996 67.7 58.1996 67.7H65.1996C68.2996 67.7 70.6996 70.2 70.6996 73.2V76.2C70.8996 76.6 70.5996 76.9 70.1996 76.9ZM47.0996 76.9C46.6996 76.9 46.3996 76.6 46.3996 76.2V73.2C46.3996 70.9 44.4996 69 42.1996 69H35.1996C32.8996 69 30.9996 70.9 30.9996 73.2V76.2C30.9996 76.6 30.6996 76.9 30.2996 76.9C29.8996 76.9 29.5996 76.6 29.5996 76.2V73.2C29.5996 70.1 32.0996 67.7 35.0996 67.7H42.0996C45.1996 67.7 47.5996 70.2 47.5996 73.2V76.2C47.7996 76.6 47.4996 76.9 47.0996 76.9ZM25.6996 76.9C25.2996 76.9 24.9996 76.6 24.9996 76.2V73.2C24.9996 70.9 23.0996 69 20.7996 69H13.6996C11.3996 69 9.49961 70.9 9.49961 73.2V76.2C9.49961 76.6 9.19961 76.9 8.79961 76.9C8.39961 76.9 8.09961 76.6 8.09961 76.2V73.2C8.09961 70.1 10.5996 67.7 13.5996 67.7H20.6996C23.7996 67.7 26.1996 70.2 26.1996 73.2V76.2C26.3996 76.6 26.0996 76.9 25.6996 76.9ZM61.6996 66.9C58.7996 66.9 56.4996 64.6 56.4996 61.7C56.4996 58.8 58.7996 56.5 61.6996 56.5C64.5996 56.5 66.8996 58.8 66.8996 61.7C66.8996 64.5 64.5996 66.9 61.6996 66.9ZM57.7996 62C57.9996 64 59.6996 65.6 61.6996 65.6C63.8996 65.6 65.5996 63.8 65.5996 61.7C65.5996 61.6 65.5996 61.4 65.5996 61.3C64.3996 61.4 63.2996 61.1 62.3996 60.5C61.1996 61.7 59.4996 62.3 57.7996 62ZM57.8996 60.7C59.3996 61 60.8996 60.4 61.7996 59.2C61.8996 59.1 62.0996 59 62.1996 58.9C62.3996 58.9 62.5996 58.9 62.6996 59C63.3996 59.6 64.3996 59.9 65.1996 59.9C64.5996 58.6 63.1996 57.7 61.6996 57.7C59.8996 57.7 58.2996 59 57.8996 60.7ZM38.5996 66.9C35.6996 66.9 33.3996 64.6 33.3996 61.7C33.3996 58.8 35.6996 56.5 38.5996 56.5C40.9996 56.5 42.9996 58.1 43.5996 60.3V60.4C43.6996 60.8 43.7996 61.2 43.7996 61.7C43.7996 64.5 41.4996 66.9 38.5996 66.9ZM34.6996 62C34.8996 64 36.5996 65.6 38.5996 65.6C40.7996 65.6 42.4996 63.8 42.4996 61.7C42.4996 61.6 42.4996 61.4 42.4996 61.3C41.3996 61.4 40.1996 61.1 39.2996 60.5C38.0996 61.7 36.3996 62.3 34.6996 62ZM34.7996 60.7C36.2996 61 37.7996 60.4 38.6996 59.2C38.7996 59.1 38.9996 59 39.0996 58.9C39.2996 58.9 39.4996 58.9 39.5996 59C40.2996 59.6 41.1996 59.9 42.0996 59.9C41.4996 58.6 40.0996 57.7 38.5996 57.7C36.6996 57.7 35.1996 59 34.7996 60.7ZM17.1996 66.9C14.2996 66.9 11.9996 64.6 11.9996 61.7C11.9996 58.8 14.2996 56.5 17.1996 56.5C20.0996 56.5 22.3996 58.8 22.3996 61.7C22.3996 64.5 20.0996 66.9 17.1996 66.9ZM13.2996 62C13.4996 64 15.1996 65.6 17.1996 65.6C19.3996 65.6 21.0996 63.8 21.0996 61.7C21.0996 61.6 21.0996 61.4 21.0996 61.3C19.8996 61.4 18.7996 61.1 17.8996 60.5C16.6996 61.7 14.9996 62.3 13.2996 62ZM13.3996 60.7C14.8996 61 16.3996 60.4 17.2996 59.2C17.3996 59.1 17.5996 59 17.6996 58.9C17.8996 58.9 18.0996 58.9 18.1996 59C18.8996 59.6 19.8996 59.9 20.6996 59.9C20.0996 58.6 18.6996 57.7 17.1996 57.7C15.2996 57.7 13.7996 59 13.3996 60.7Z" fill="#8E75B0"/>
</g>
<defs>
<clipPath id="clip0">
<rect width="79.1" height="76.9" fill="white"/>
</clipPath>
</defs>
</svg>
