<svg width="34" height="28" viewBox="0 0 34 28" fill="none" xmlns="http://www.w3.org/2000/svg">
<path d="M25.2245 0.00012207H8.42429L0.0244141 14.0001L8.42429 28.0001H25.2245L33.6243 14.0001L25.2245 0.00012207Z" fill="#FFD500"/>
<path d="M25.2241 0H16.8242V27.9999H25.2241L33.624 14L25.2241 0Z" fill="#FFB600"/>
<path d="M13.9769 10.2396C13.8001 10.2395 13.6273 10.2919 13.4803 10.39C13.3334 10.4881 13.2188 10.6277 13.1511 10.7909C13.0834 10.9542 13.0657 11.1339 13.1002 11.3072C13.1346 11.4806 13.2197 11.6398 13.3447 11.7648C13.4697 11.8898 13.6289 11.9749 13.8022 12.0093C13.9756 12.0438 14.1553 12.0261 14.3185 11.9584C14.4818 11.8907 14.6213 11.7761 14.7195 11.6291C14.8176 11.4821 14.8699 11.3094 14.8699 11.1326C14.8699 11.0153 14.8469 10.8992 14.802 10.7908C14.7571 10.6824 14.6914 10.584 14.6084 10.501C14.5255 10.4181 14.427 10.3523 14.3187 10.3075C14.2103 10.2626 14.0942 10.2396 13.9769 10.2396Z" fill="white"/>
<path d="M22.2764 6.87854H11.3711C10.9282 6.87854 10.5035 7.05448 10.1903 7.36766C9.87711 7.68084 9.70117 8.1056 9.70117 8.5485V19.4525C9.70117 19.8954 9.87711 20.3201 10.1903 20.6333C10.5035 20.9465 10.9282 21.1224 11.3711 21.1224H22.2764C22.7193 21.1224 23.144 20.9465 23.4572 20.6333C23.7704 20.3201 23.9463 19.8954 23.9463 19.4525V8.54762C23.9461 8.10487 23.77 7.68034 23.4569 7.36735C23.1437 7.05436 22.7191 6.87854 22.2764 6.87854ZM22.8318 19.4525C22.8316 19.5999 22.7729 19.7413 22.6686 19.8456C22.5644 19.9499 22.423 20.0086 22.2755 20.0088H11.3711C11.2236 20.0086 11.0823 19.9499 10.978 19.8456C10.8737 19.7413 10.815 19.5999 10.8148 19.4525V8.54762C10.815 8.40014 10.8737 8.25876 10.978 8.15447C11.0823 8.05018 11.2236 7.99149 11.3711 7.99126H22.2764C22.4237 7.99172 22.5649 8.05052 22.669 8.15478C22.773 8.25904 22.8316 8.40029 22.8318 8.54762V19.4525Z" fill="white"/>
<path d="M14.7173 12.6996H13.1924V17.6234H14.7173V12.6996Z" fill="white"/>
<path d="M18.6022 12.6127C17.8603 12.6127 17.3624 12.984 17.159 13.3699V12.7006H15.6758V17.6226H17.1576V15.1787C17.1576 14.5384 17.3207 13.9183 18.1139 13.9183C18.897 13.9183 18.9221 14.6505 18.9221 15.2196V17.6226H20.4255V14.9146C20.4255 13.5927 20.1464 12.6127 18.6022 12.6127Z" fill="white"/>
</svg>
