<svg width="14" height="15" viewBox="0 0 14 15" fill="none" xmlns="http://www.w3.org/2000/svg">
<path d="M11.1871 4.5264C11.1871 7.54401 8.91536 9.99581 7.00027 9.99581C5.36253 9.99581 2.81348 7.54401 2.81348 4.5264C2.81348 1.5088 4.68895 0 7.00027 0C9.31159 0 11.1871 1.5088 11.1871 4.5264Z" fill="#FFCA01"/>
<path d="M9.40377 9.75696C8.28113 11.1777 7 12.0956 7 12.0956C7 12.0956 5.71887 11.1903 4.59623 9.75696C1.91509 10.9891 0 13.793 0 13.793C0 13.793 3.13019 14.9875 7 14.9875C10.8698 14.9875 14 13.793 14 13.793C14 13.793 12.0849 10.9891 9.40377 9.75696Z" fill="#FFCA01"/>
</svg>
