<svg width="50" height="42" viewBox="0 0 50 42" fill="none" xmlns="http://www.w3.org/2000/svg">
<path d="M15.0021 27.9574L49.1247 2.29468L0.875488 27.6741L15.0021 27.9574Z" stroke="white" stroke-miterlimit="10" stroke-linecap="round" stroke-linejoin="round"/>
<path d="M49.1249 2.29431L18.0786 29.6976L29.8171 36.6597L49.1249 2.29431Z" stroke="white" stroke-miterlimit="10" stroke-linecap="round" stroke-linejoin="round"/>
<path d="M13.2617 29.5358L16.7428 39.0075L18.8881 32.0859" stroke="white" stroke-miterlimit="10" stroke-linecap="round" stroke-linejoin="round"/>
<path d="M16.7427 39.0076L21.6 33.5027" stroke="white" stroke-miterlimit="10" stroke-linecap="round" stroke-linejoin="round"/>
<path d="M30.2399 7.24451C29.9428 7.24451 29.7018 7.00366 29.7018 6.70643C29.7018 6.35032 29.4123 6.06073 29.0561 6.06073C28.759 6.06073 28.5181 5.81988 28.5181 5.52265C28.5181 5.22541 28.759 4.98456 29.0561 4.98456C29.4123 4.98456 29.7018 4.69497 29.7018 4.33886C29.7018 4.04163 29.9428 3.80078 30.2399 3.80078C30.5371 3.80078 30.778 4.04163 30.778 4.33886C30.778 4.69497 31.0676 4.98456 31.4237 4.98456C31.7208 4.98456 31.9618 5.22541 31.9618 5.52265C31.9618 5.81988 31.7208 6.06073 31.4237 6.06073C31.0676 6.06073 30.778 6.35032 30.778 6.70643C30.778 7.00356 30.5372 7.24451 30.2399 7.24451Z" fill="#FFF7E4"/>
<path d="M41.0114 37.6118C40.7143 37.6118 40.4733 37.371 40.4733 37.0737C40.4733 36.7176 40.1836 36.428 39.8276 36.428C39.5305 36.428 39.2896 36.1872 39.2896 35.89C39.2896 35.5927 39.5305 35.3519 39.8276 35.3519C40.1837 35.3519 40.4733 35.0623 40.4733 34.7062C40.4733 34.4089 40.7143 34.1681 41.0114 34.1681C41.3085 34.1681 41.5495 34.4089 41.5495 34.7062C41.5495 35.0623 41.8391 35.3519 42.1952 35.3519C42.4923 35.3519 42.7333 35.5927 42.7333 35.89C42.7333 36.1872 42.4923 36.428 42.1952 36.428C41.8392 36.428 41.5495 36.7176 41.5495 37.0737C41.5495 37.371 41.3085 37.6118 41.0114 37.6118Z" fill="#FFF7E4"/>
<path d="M37.965 41.5706C37.6679 41.5706 37.4269 41.3297 37.4269 41.0325C37.4269 40.6764 37.1373 40.3868 36.7812 40.3868C36.4841 40.3868 36.2432 40.1459 36.2432 39.8487C36.2432 39.5515 36.4841 39.3106 36.7812 39.3106C37.1373 39.3106 37.4269 39.021 37.4269 38.6649C37.4269 38.3677 37.6679 38.1268 37.965 38.1268C38.2622 38.1268 38.5031 38.3677 38.5031 38.6649C38.5031 39.021 38.7927 39.3106 39.1488 39.3106C39.4459 39.3106 39.6869 39.5515 39.6869 39.8487C39.6869 40.1459 39.4459 40.3868 39.1488 40.3868C38.7927 40.3868 38.5031 40.6764 38.5031 41.0325C38.5031 41.3297 38.2622 41.5706 37.965 41.5706Z" fill="#FFF7E4"/>
<path d="M5.64634 35.3555C5.50364 35.3555 5.36675 35.2989 5.26581 35.1978L4.04866 33.9806C3.94772 33.8796 3.89111 33.7428 3.89111 33.6001C3.89111 33.4574 3.94783 33.3206 4.04866 33.2197L5.26581 32.0026C5.47598 31.7924 5.8167 31.7925 6.02676 32.0025L7.24401 33.2196C7.34496 33.3206 7.40167 33.4574 7.40167 33.6001C7.40167 33.7428 7.34496 33.8797 7.24412 33.9806L6.02676 35.1979C5.92582 35.2989 5.78904 35.3555 5.64634 35.3555ZM5.19015 33.6003L5.64634 34.0564L6.10253 33.6003L5.64634 33.1442L5.19015 33.6003Z" fill="#FFF7E4"/>
<path d="M23.8651 3.51056C23.7273 3.51056 23.5897 3.45804 23.4846 3.3529L22.2674 2.13576C22.1665 2.03481 22.1099 1.89803 22.1099 1.75533C22.1099 1.61263 22.1666 1.47575 22.2674 1.37491L23.4846 0.157658C23.5855 0.0567139 23.7224 0 23.8651 0C24.0078 0 24.1447 0.0566063 24.2456 0.157658L25.4629 1.37491C25.5638 1.47585 25.6204 1.61263 25.6204 1.75533C25.6204 1.89803 25.5637 2.03492 25.4628 2.13587L24.2456 3.35301C24.1405 3.45804 24.0027 3.51056 23.8651 3.51056ZM23.4089 1.75544L23.8651 2.21152L24.3213 1.75544L23.8651 1.29925L23.4089 1.75544Z" fill="#FFF7E4"/>
</svg>
