<svg width="11" height="13" viewBox="0 0 11 13" fill="none" xmlns="http://www.w3.org/2000/svg">
<path d="M11 4.54102C11 3.69271 11 3.09926 11 3.04297C11 2.41295 10.5663 1.90039 10.0332 1.90039H9.9043V3.29688C9.9043 3.50721 9.76001 3.67773 9.58203 3.67773C9.40405 3.67773 9.25977 3.50721 9.25977 3.29688C9.25977 2.86932 9.25977 1.69138 9.25977 1.26562C9.25977 1.05529 9.11548 0.884766 8.9375 0.884766C8.75952 0.884766 8.61523 1.05529 8.61523 1.26562V1.90039H6.4668V3.29688C6.4668 3.50721 6.32251 3.67773 6.14453 3.67773C5.96655 3.67773 5.82227 3.50721 5.82227 3.29688C5.82227 2.86932 5.82227 1.69138 5.82227 1.26562C5.82227 1.05529 5.67798 0.884766 5.5 0.884766C5.32202 0.884766 5.17773 1.05529 5.17773 1.26562V1.90039H3.0293V3.29688C3.0293 3.50721 2.88501 3.67773 2.70703 3.67773C2.52905 3.67773 2.38477 3.50721 2.38477 3.29688C2.38477 2.86932 2.38477 1.69138 2.38477 1.26562C2.38477 1.05529 2.24048 0.884766 2.0625 0.884766C1.88452 0.884766 1.74023 1.05529 1.74023 1.26562V1.90039H0.966797C0.433705 1.90039 0 2.41295 0 3.04297V4.54102H11Z" fill="#FFCA01"/>
<path d="M0 5.30273V11.4727C0 12.1027 0.433705 12.6152 0.966797 12.6152H10.0332C10.5663 12.6152 11 12.1027 11 11.4727C11 11.3095 11 7.74501 11 5.30273C10.7994 5.30273 0.110945 5.30273 0 5.30273ZM3.09375 10.584H2.40625C2.22827 10.584 2.08398 10.4135 2.08398 10.2031C2.08398 9.99279 2.22827 9.82227 2.40625 9.82227H3.09375C3.27173 9.82227 3.41602 9.99279 3.41602 10.2031C3.41602 10.4135 3.27173 10.584 3.09375 10.584ZM3.09375 8.95898H2.40625C2.22827 8.95898 2.08398 8.78846 2.08398 8.57812C2.08398 8.36779 2.22827 8.19727 2.40625 8.19727H3.09375C3.27173 8.19727 3.41602 8.36779 3.41602 8.57812C3.41602 8.78846 3.27173 8.95898 3.09375 8.95898ZM3.09375 7.33398H2.40625C2.22827 7.33398 2.08398 7.16346 2.08398 6.95312C2.08398 6.74279 2.22827 6.57227 2.40625 6.57227H3.09375C3.27173 6.57227 3.41602 6.74279 3.41602 6.95312C3.41602 7.16346 3.27173 7.33398 3.09375 7.33398ZM5.84375 10.584H5.15625C4.97827 10.584 4.83398 10.4135 4.83398 10.2031C4.83398 9.99279 4.97827 9.82227 5.15625 9.82227H5.84375C6.02173 9.82227 6.16602 9.99279 6.16602 10.2031C6.16602 10.4135 6.02173 10.584 5.84375 10.584ZM5.84375 8.95898H5.15625C4.97827 8.95898 4.83398 8.78846 4.83398 8.57812C4.83398 8.36779 4.97827 8.19727 5.15625 8.19727H5.84375C6.02173 8.19727 6.16602 8.36779 6.16602 8.57812C6.16602 8.78846 6.02173 8.95898 5.84375 8.95898ZM5.84375 7.33398H5.15625C4.97827 7.33398 4.83398 7.16346 4.83398 6.95312C4.83398 6.74279 4.97827 6.57227 5.15625 6.57227H5.84375C6.02173 6.57227 6.16602 6.74279 6.16602 6.95312C6.16602 7.16346 6.02173 7.33398 5.84375 7.33398ZM8.59375 10.584H7.90625C7.72827 10.584 7.58398 10.4135 7.58398 10.2031C7.58398 9.99279 7.72827 9.82227 7.90625 9.82227H8.59375C8.77173 9.82227 8.91602 9.99279 8.91602 10.2031C8.91602 10.4135 8.77173 10.584 8.59375 10.584ZM8.59375 8.95898H7.90625C7.72827 8.95898 7.58398 8.78846 7.58398 8.57812C7.58398 8.36779 7.72827 8.19727 7.90625 8.19727H8.59375C8.77173 8.19727 8.91602 8.36779 8.91602 8.57812C8.91602 8.78846 8.77173 8.95898 8.59375 8.95898ZM8.59375 7.33398H7.90625C7.72827 7.33398 7.58398 7.16346 7.58398 6.95312C7.58398 6.74279 7.72827 6.57227 7.90625 6.57227H8.59375C8.77173 6.57227 8.91602 6.74279 8.91602 6.95312C8.91602 7.16346 8.77173 7.33398 8.59375 7.33398Z" fill="#FFCA01"/>
</svg>
