<svg width="68" height="80" viewBox="0 0 68 80" fill="none" xmlns="http://www.w3.org/2000/svg">
<path d="M10.8996 12.6C7.39961 12.6 4.59961 9.8 4.59961 6.3C4.59961 2.8 7.39961 0 10.8996 0C14.3996 0 17.1996 2.8 17.1996 6.3C17.1996 9.8 14.2996 12.6 10.8996 12.6ZM10.8996 1.3C8.09961 1.3 5.89961 3.5 5.89961 6.3C5.89961 9.1 8.09961 11.3 10.8996 11.3C13.6996 11.3 15.8996 9.1 15.8996 6.3C15.8996 3.5 13.5996 1.3 10.8996 1.3Z" fill="#8E75B0"/>
<path d="M19.5 32C18.1 32 17 30.9 17 29.5V27.2C17 26.8 17.3 26.5 17.7 26.5C18.1 26.5 18.4 26.8 18.4 27.2V29.5C18.4 30.2 19 30.7 19.6 30.7C20.3 30.7 20.8 30.1 20.8 29.4V20.6C20.8 17.6 18.4 15.2 15.4 15.2H6.7C3.7 15.2 1.3 17.6 1.3 20.6V29.5C1.3 30.2 1.9 30.7 2.5 30.7C3.2 30.7 3.7 30.1 3.7 29.5V27.2C3.7 26.8 4 26.5 4.4 26.5C4.8 26.5 5.1 26.8 5.1 27.2V29.5C5.1 30.9 4 32 2.6 32C1.1 32 0 30.9 0 29.5V20.6C0 16.9 3 13.9 6.7 13.9H15.4C19.1 13.9 22.1 16.9 22.1 20.6V29.5C21.9 31 20.8 32 19.5 32Z" fill="#8E75B0"/>
<path d="M17.6002 35.5H4.4002C4.0002 35.5 3.7002 35.2 3.7002 34.8V24.8C3.7002 24.4 4.0002 24.1 4.4002 24.1C4.8002 24.1 5.1002 24.4 5.1002 24.8V34.2H17.0002V24.8C17.0002 24.4 17.3002 24.1 17.7002 24.1C18.1002 24.1 18.4002 24.4 18.4002 24.8V34.9C18.3002 35.2 18.0002 35.5 17.6002 35.5Z" fill="#8E75B0"/>
<path d="M11.0002 26.5C10.6002 26.5 10.3002 26.1999 10.3002 25.7999V18.1H8.9002C8.5002 18.1 8.2002 17.8 8.2002 17.4C8.2002 17 8.5002 16.7 8.9002 16.7H13.2002C13.6002 16.7 13.9002 17 13.9002 17.4C13.9002 17.8 13.6002 18.1 13.2002 18.1H11.7002V25.7999C11.7002 26.1999 11.4002 26.5 11.0002 26.5Z" fill="#8E75B0"/>
<path d="M47.7004 56.2C44.2004 56.2 41.4004 53.4 41.4004 49.9C41.4004 46.4 44.2004 43.6 47.7004 43.6C51.2004 43.6 54.0004 46.4 54.0004 49.9C54.0004 53.3 51.2004 56.2 47.7004 56.2ZM47.7004 44.9C44.9004 44.9 42.7004 47.1 42.7004 49.9C42.7004 52.7 44.9004 54.9 47.7004 54.9C50.5004 54.9 52.7004 52.7 52.7004 49.9C52.7004 47.1 50.5004 44.9 47.7004 44.9Z" fill="#8E75B0"/>
<path d="M43.8996 50.2C43.1996 50.2 42.4996 50.1 41.8996 49.9C41.5996 49.8 41.3996 49.3999 41.4996 49.0999C41.5996 48.7999 41.9996 48.6 42.2996 48.7C42.7996 48.9 43.3996 49 43.8996 49C45.4996 49 46.9996 48.3 47.8996 47C47.9996 46.9 48.1996 46.8 48.2996 46.7C48.4996 46.7 48.6996 46.6999 48.7996 46.7999C49.9996 47.6999 51.4996 48.0999 52.9996 47.7999C53.3996 47.6999 53.6996 47.9999 53.7996 48.2999C53.8996 48.6999 53.5996 48.9999 53.2996 49.0999C51.6996 49.3999 49.8996 49.1 48.4996 48.2C47.3996 49.5 45.6996 50.2 43.8996 50.2Z" fill="#8E75B0"/>
<path d="M56.3004 75.6C54.9004 75.6 53.8004 74.5 53.8004 73.1V70.8C53.8004 70.4 54.1004 70.1 54.5004 70.1C54.9004 70.1 55.2004 70.4 55.2004 70.8V73C55.2004 73.7 55.7004 74.2 56.4004 74.2C57.2004 74.2 57.6004 73.5 57.6004 72.9V64.1C57.6004 61.1 55.2004 58.7 52.2004 58.7H43.5004C40.5004 58.7 38.1004 61.1 38.1004 64.1V73C38.1004 73.7 38.6004 74.2 39.3004 74.2C40.0004 74.2 40.5004 73.6 40.5004 73V70.7C40.5004 70.3 40.8004 70 41.2004 70C41.6004 70 41.9004 70.3 41.9004 70.7V73C41.9004 74.4 40.8004 75.5 39.4004 75.5C38.0004 75.5 36.9004 74.4 36.9004 73V64.1C36.9004 60.4 39.9004 57.4 43.6004 57.4H52.3004C56.0004 57.4 59.0004 60.4 59.0004 64.1V73C58.7004 74.5 57.7004 75.6 56.3004 75.6Z" fill="#8E75B0"/>
<path d="M54.4996 79.1H41.2996C40.8996 79.1 40.5996 78.8 40.5996 78.4V68.4C40.5996 68 40.8996 67.7 41.2996 67.7C41.6996 67.7 41.9996 68 41.9996 68.4V77.9H53.8996V68.4C53.8996 68 54.1996 67.7 54.5996 67.7C54.9996 67.7 55.2996 68 55.2996 68.4V78.5C55.0996 78.8 54.7996 79.1 54.4996 79.1Z" fill="#8E75B0"/>
<path d="M47.9 70.1C47.5 70.1 47.2 69.8001 47.2 69.4001V61.7001H45.7C45.3 61.7001 45 61.4 45 61C45 60.6 45.3 60.3 45.7 60.3H50C50.4 60.3 50.7 60.6 50.7 61C50.7 61.4 50.4 61.7001 50 61.7001H48.5V69.4001C48.5 69.8001 48.2 70.1 47.9 70.1Z" fill="#8E75B0"/>
<path d="M34.5998 41.5999C34.4998 41.5999 34.3998 41.5999 34.2998 41.5C34.0998 41.4 33.8998 41.0999 33.9998 40.7999L35.2998 31.7999H29.4998C29.0998 31.7999 28.7998 31.5 28.7998 31.1V7.39995C28.7998 6.99995 29.0998 6.69995 29.4998 6.69995H66.3998C66.7998 6.69995 67.0998 6.99995 67.0998 7.39995V31.2C67.0998 31.6 66.7998 31.9 66.3998 31.9H46.3998L34.9998 41.4C34.8998 41.5 34.6998 41.5999 34.5998 41.5999ZM30.0998 30.5H35.9998C36.1998 30.5 36.3998 30.6 36.4998 30.7C36.5998 30.8 36.6998 31 36.6998 31.2L35.4998 39.2L45.7998 30.6C45.8998 30.5 46.0998 30.4 46.1998 30.4H65.6998V8.09995H30.0998V30.5Z" fill="#8E75B0"/>
<path d="M52.2998 12.1H35.9998C35.5998 12.1 35.2998 11.8 35.2998 11.4C35.2998 11 35.5998 10.7 35.9998 10.7H52.1998C52.5998 10.7 52.8998 11 52.8998 11.4C52.8998 11.8 52.5998 12.1 52.2998 12.1Z" fill="#8E75B0"/>
<path d="M59.7004 12.1H55.6004C55.2004 12.1 54.9004 11.8 54.9004 11.4C54.9004 11 55.2004 10.7 55.6004 10.7H59.7004C60.1004 10.7 60.4004 11 60.4004 11.4C60.4004 11.8 60.1004 12.1 59.7004 12.1Z" fill="#8E75B0"/>
<path d="M7.09984 6.6C6.39984 6.6 5.69984 6.5 5.09984 6.3C4.79984 6.2 4.59984 5.8 4.69984 5.5C4.79984 5.1 5.19984 5 5.49984 5.1C5.99984 5.2 6.59984 5.3 7.09984 5.3C8.69984 5.3 10.0998 4.6 11.0998 3.3C11.1998 3.2 11.3998 3.1 11.4998 3C11.6998 3 11.8998 3 11.9998 3.1C12.8998 3.8 13.9998 4.2 15.0998 4.2C15.4998 4.2 15.7998 4.2 16.0998 4.1C16.3998 4 16.7998 4.2 16.8998 4.6C16.9998 5 16.7998 5.3 16.3998 5.4C15.9998 5.5 15.4998 5.5 15.0998 5.5C13.8998 5.5 12.6998 5.1 11.6998 4.5C10.5998 5.9 8.89984 6.6 7.09984 6.6Z" fill="#8E75B0"/>
<path d="M30.9 70.7H10.2C9.8 70.7 9.5 70.4 9.5 70V37.6C9.5 37.2 9.8 36.9 10.2 36.9C10.6 36.9 10.9 37.2 10.9 37.6V69.4H31C31.4 69.4 31.7 69.7 31.7 70.1C31.5 70.4 31.3 70.7 30.9 70.7Z" fill="#8E75B0"/>
<path d="M59.6998 15.8H43.4998C43.0998 15.8 42.7998 15.5 42.7998 15.1C42.7998 14.7 43.0998 14.4 43.4998 14.4H59.7998C60.1998 14.4 60.4998 14.7 60.4998 15.1C60.3998 15.5 60.0998 15.8 59.6998 15.8Z" fill="#8E75B0"/>
<path d="M40.0998 15.8H35.9998C35.5998 15.8 35.2998 15.5 35.2998 15.1C35.2998 14.7 35.5998 14.4 35.9998 14.4H40.0998C40.4998 14.4 40.7998 14.7 40.7998 15.1C40.7998 15.5 40.4998 15.8 40.0998 15.8Z" fill="#8E75B0"/>
<path d="M52.2998 19.5H35.9998C35.5998 19.5 35.2998 19.2 35.2998 18.8C35.2998 18.4 35.5998 18.1 35.9998 18.1H52.1998C52.5998 18.1 52.8998 18.4 52.8998 18.8C52.8998 19.2 52.5998 19.5 52.2998 19.5Z" fill="#8E75B0"/>
<path d="M59.7004 19.5H55.6004C55.2004 19.5 54.9004 19.2 54.9004 18.8C54.9004 18.4 55.2004 18.1 55.6004 18.1H59.7004C60.1004 18.1 60.4004 18.4 60.4004 18.8C60.4004 19.2 60.1004 19.5 59.7004 19.5Z" fill="#8E75B0"/>
<path d="M59.6998 23.2001H43.4998C43.0998 23.2001 42.7998 22.9 42.7998 22.5C42.7998 22.1 43.0998 21.8 43.4998 21.8H59.7998C60.1998 21.8 60.4998 22.1 60.4998 22.5C60.3998 23 60.0998 23.2001 59.6998 23.2001Z" fill="#8E75B0"/>
<path d="M40.0998 23.2001H35.9998C35.5998 23.2001 35.2998 22.9 35.2998 22.5C35.2998 22.1 35.5998 21.8 35.9998 21.8H40.0998C40.4998 21.8 40.7998 22.1 40.7998 22.5C40.7998 23 40.4998 23.2001 40.0998 23.2001Z" fill="#8E75B0"/>
<path d="M52.2998 27H35.9998C35.5998 27 35.2998 26.7 35.2998 26.3C35.2998 25.9 35.5998 25.6 35.9998 25.6H52.1998C52.5998 25.6 52.8998 25.9 52.8998 26.3C52.8998 26.7 52.5998 27 52.2998 27Z" fill="#8E75B0"/>
<path d="M59.7004 27H55.6004C55.2004 27 54.9004 26.7 54.9004 26.3C54.9004 25.9 55.2004 25.6 55.6004 25.6H59.7004C60.1004 25.6 60.4004 25.9 60.4004 26.3C60.4004 26.7 60.1004 27 59.7004 27Z" fill="#8E75B0"/>
</svg>
