<svg width="71" height="80" viewBox="0 0 71 80" fill="none" xmlns="http://www.w3.org/2000/svg">
<g clip-path="url(#clip0)">
<path d="M53.6 79.1H0.7C0.3 79.1 0 78.8 0 78.5V3.90005C0 3.50005 0.3 3.30005 0.7 3.30005H53.6C54 3.30005 54.3 3.60005 54.3 3.90005V78.5C54.2 78.8 53.9 79.1 53.6 79.1ZM1.3 77.8H52.9V4.60005H1.3V77.8Z" fill="#8E75B0"/>
<path d="M64.1996 78C63.9996 78 63.6996 77.9 63.5996 77.6L57.6996 65.4C57.6996 65.3 57.5996 65.2 57.5996 65.1V23.1C57.5996 22.7 57.8996 22.5 58.2996 22.5H70.0996C70.4996 22.5 70.7996 22.8 70.7996 23.1V65.2C70.7996 65.3 70.7996 65.4 70.6996 65.5L64.7996 77.7C64.5996 77.9 64.3996 78 64.1996 78ZM58.8996 65L64.1996 75.9L69.3996 65V23.7H58.8996V65Z" fill="#8E75B0"/>
<path d="M64.2002 78C64.0002 78 63.7002 77.9 63.6002 77.6L61.9002 74.1C61.8002 73.9 61.8002 73.7 61.9002 73.5C62.0002 73.3 62.1002 73.2 62.3002 73.1C63.4002 72.8 64.8002 72.8 66.0002 73.1C66.2002 73.1 66.4002 73.3 66.4002 73.5C66.5002 73.7 66.5002 73.9 66.4002 74.1L64.7002 77.6C64.6002 77.9 64.4002 78 64.2002 78ZM63.5002 74.4L64.2002 75.9L64.9002 74.4C64.4002 74.3 63.9002 74.3 63.5002 74.4Z" fill="#8E75B0"/>
<path d="M70.1998 65.8C70.0998 65.8 69.9998 65.8 69.8998 65.7L67.9998 64.6L66.7998 65.6C66.5998 65.8 66.1998 65.8 65.9998 65.6L64.0998 64.2L62.7998 65.5C62.6998 65.6 62.4998 65.7 62.2998 65.7C62.0998 65.7 61.9998 65.6 61.7998 65.5L60.4998 64.2L58.5998 65.6C58.2998 65.8 57.8998 65.7 57.6998 65.5C57.4998 65.2 57.5998 64.8 57.7998 64.6L60.1998 62.9C60.4998 62.7 60.7998 62.7 60.9998 63L62.1998 64.2L63.3998 63C63.5998 62.8 63.9998 62.7 64.1998 62.9L66.0998 64.3L67.2998 63.3C67.4998 63.1 67.7998 63.1 68.0998 63.2L70.3998 64.6C70.6998 64.8 70.7998 65.2 70.5998 65.5C70.6998 65.7 70.4998 65.8 70.1998 65.8Z" fill="#8E75B0"/>
<path d="M60.9002 64.3C60.5002 64.3 60.2002 64 60.2002 63.7V23.1C60.2002 22.7 60.5002 22.5 60.9002 22.5C61.3002 22.5 61.6002 22.8 61.6002 23.1V63.7C61.6002 64 61.3002 64.3 60.9002 64.3Z" fill="#8E75B0"/>
<path d="M63.9996 64.5C63.5996 64.5 63.3996 64.2 63.2996 63.9L63.0996 23.1C63.0996 22.7 63.3996 22.4 63.6996 22.4C64.0996 22.4 64.2996 22.7 64.3996 23L64.5996 63.8C64.5996 64.2 64.2996 64.5 63.9996 64.5Z" fill="#8E75B0"/>
<path d="M66.9998 65C66.5998 65 66.2998 64.7 66.2998 64.4V23.1C66.2998 22.7 66.5998 22.5 66.9998 22.5C67.3998 22.5 67.6998 22.8 67.6998 23.1V64.3C67.6998 64.7 67.3998 65 66.9998 65Z" fill="#8E75B0"/>
<path d="M70.0996 23.7001H58.2996C57.8996 23.7001 57.5996 23.4 57.5996 23V20C57.5996 17.9 59.2996 16.3 61.2996 16.3H66.9996C69.0996 16.3 70.6996 18 70.6996 20V23.1C70.6996 23.4001 70.4996 23.7001 70.0996 23.7001ZM58.8996 22.4H69.3996V20C69.3996 18.7 68.2996 17.6 66.9996 17.6H61.2996C59.9996 17.6 58.8996 18.7 58.8996 20V22.4Z" fill="#8E75B0"/>
<path d="M44.6998 24.3H9.4998C9.0998 24.3 8.7998 24 8.7998 23.7V15.2C8.7998 14.8 9.0998 14.6 9.4998 14.6H44.5998C44.9998 14.6 45.2998 14.9 45.2998 15.2V23.7C45.2998 24 44.9998 24.3 44.6998 24.3ZM10.1998 23H43.9998V15.8H10.1998V23Z" fill="#8E75B0"/>
<path d="M44 29.9H10.2C9.8 29.9 9.5 29.5999 9.5 29.2999C9.5 28.9999 9.8 28.7 10.2 28.7H44C44.4 28.7 44.7 28.9999 44.7 29.2999C44.7 29.5999 44.4 29.9 44 29.9Z" fill="#8E75B0"/>
<path d="M44 35.2H10.2C9.8 35.2 9.5 34.9 9.5 34.6C9.5 34.2 9.8 34 10.2 34H44C44.4 34 44.7 34.3 44.7 34.6C44.7 34.9 44.4 35.2 44 35.2Z" fill="#8E75B0"/>
<path d="M44 40.5H20.7C20.3 40.5 20 40.2001 20 39.9001C20 39.5001 20.3 39.3 20.7 39.3H44C44.4 39.3 44.7 39.6001 44.7 39.9001C44.7 40.2001 44.4 40.5 44 40.5Z" fill="#8E75B0"/>
<path d="M35.6 45.8H10.2C9.8 45.8 9.5 45.5 9.5 45.2C9.5 44.8 9.8 44.6 10.2 44.6H35.6C36 44.6 36.3 44.9 36.3 45.2C36.2 45.5 35.9 45.8 35.6 45.8Z" fill="#8E75B0"/>
<path d="M44 51.1H10.2C9.8 51.1 9.5 50.8 9.5 50.5C9.5 50.1 9.8 49.9 10.2 49.9H44C44.4 49.9 44.7 50.2 44.7 50.5C44.7 50.8 44.4 51.1 44 51.1Z" fill="#8E75B0"/>
<path d="M43.9996 56.4H17.2996C16.8996 56.4 16.5996 56.0999 16.5996 55.7999C16.5996 55.3999 16.8996 55.2 17.2996 55.2H43.9996C44.3996 55.2 44.6996 55.4999 44.6996 55.7999C44.6996 56.0999 44.3996 56.4 43.9996 56.4Z" fill="#8E75B0"/>
<path d="M44 61.7H10.2C9.8 61.7 9.5 61.4 9.5 61.1C9.5 60.7 9.8 60.5 10.2 60.5H44C44.4 60.5 44.7 60.8 44.7 61.1C44.7 61.4 44.4 61.7 44 61.7Z" fill="#8E75B0"/>
<path d="M48.1004 7.8C47.7004 7.8 47.4004 7.5 47.4004 7.2V0.6C47.4004 0.2 47.7004 0 48.1004 0C48.5004 0 48.8004 0.3 48.8004 0.6V7.1C48.7004 7.5 48.4004 7.8 48.1004 7.8ZM41.1004 7.8C40.7004 7.8 40.4004 7.5 40.4004 7.2V0.6C40.4004 0.2 40.7004 0 41.1004 0C41.5004 0 41.8004 0.3 41.8004 0.6V7.1C41.7004 7.5 41.5004 7.8 41.1004 7.8ZM34.1004 7.8C33.7004 7.8 33.4004 7.5 33.4004 7.2V0.6C33.4004 0.2 33.7004 0 34.1004 0C34.5004 0 34.8004 0.3 34.8004 0.6V7.1C34.8004 7.5 34.5004 7.8 34.1004 7.8ZM27.1004 7.8C26.7004 7.8 26.4004 7.5 26.4004 7.2V0.6C26.4004 0.2 26.7004 0 27.1004 0C27.5004 0 27.8004 0.3 27.8004 0.6V7.1C27.8004 7.5 27.5004 7.8 27.1004 7.8ZM20.1004 7.8C19.7004 7.8 19.4004 7.5 19.4004 7.2V0.6C19.4004 0.2 19.7004 0 20.1004 0C20.5004 0 20.8004 0.3 20.8004 0.6V7.1C20.8004 7.5 20.5004 7.8 20.1004 7.8ZM13.1004 7.8C12.7004 7.8 12.4004 7.5 12.4004 7.2V0.6C12.4004 0.2 12.7004 0 13.1004 0C13.5004 0 13.8004 0.3 13.8004 0.6V7.1C13.8004 7.5 13.5004 7.8 13.1004 7.8ZM6.10039 7.8C5.70039 7.8 5.40039 7.5 5.40039 7.2V0.6C5.50039 0.3 5.80039 0 6.10039 0C6.50039 0 6.80039 0.3 6.80039 0.6V7.1C6.80039 7.5 6.50039 7.8 6.10039 7.8Z" fill="#8E75B0"/>
</g>
<defs>
<clipPath id="clip0">
<rect width="70.9" height="79.1" fill="white"/>
</clipPath>
</defs>
</svg>
