<svg width="50" height="42" viewBox="0 0 50 42" fill="none" xmlns="http://www.w3.org/2000/svg">
<path d="M15.002 27.9574L49.1246 2.29468L0.875366 27.6741L15.002 27.9574Z" stroke="white" stroke-miterlimit="10" stroke-linecap="round" stroke-linejoin="round"/>
<path d="M49.1246 2.29443L18.0784 29.6977L29.8168 36.6598L49.1246 2.29443Z" stroke="white" stroke-miterlimit="10" stroke-linecap="round" stroke-linejoin="round"/>
<path d="M13.2615 29.5359L16.7426 39.0076L18.8879 32.086" stroke="white" stroke-miterlimit="10" stroke-linecap="round" stroke-linejoin="round"/>
<path d="M16.7426 39.0076L21.5999 33.5027" stroke="white" stroke-miterlimit="10" stroke-linecap="round" stroke-linejoin="round"/>
<path d="M30.2397 7.24451C29.9426 7.24451 29.7017 7.00366 29.7017 6.70643C29.7017 6.35032 29.4121 6.06073 29.056 6.06073C28.7588 6.06073 28.5179 5.81988 28.5179 5.52265C28.5179 5.22541 28.7588 4.98456 29.056 4.98456C29.4121 4.98456 29.7017 4.69497 29.7017 4.33886C29.7017 4.04163 29.9426 3.80078 30.2397 3.80078C30.5369 3.80078 30.7778 4.04163 30.7778 4.33886C30.7778 4.69497 31.0674 4.98456 31.4235 4.98456C31.7207 4.98456 31.9616 5.22541 31.9616 5.52265C31.9616 5.81988 31.7207 6.06073 31.4235 6.06073C31.0674 6.06073 30.7778 6.35032 30.7778 6.70643C30.7778 7.00356 30.537 7.24451 30.2397 7.24451Z" fill="#FFF7E4"/>
<path d="M41.0114 37.6117C40.7142 37.6117 40.4733 37.3709 40.4733 37.0736C40.4733 36.7175 40.1836 36.4279 39.8276 36.4279C39.5304 36.4279 39.2895 36.1871 39.2895 35.8898C39.2895 35.5926 39.5304 35.3518 39.8276 35.3518C40.1837 35.3518 40.4733 35.0622 40.4733 34.7061C40.4733 34.4088 40.7142 34.168 41.0114 34.168C41.3085 34.168 41.5494 34.4088 41.5494 34.7061C41.5494 35.0622 41.839 35.3518 42.1951 35.3518C42.4923 35.3518 42.7332 35.5926 42.7332 35.8898C42.7332 36.1871 42.4923 36.4279 42.1951 36.4279C41.8391 36.4279 41.5494 36.7175 41.5494 37.0736C41.5494 37.3709 41.3085 37.6117 41.0114 37.6117Z" fill="#FFF7E4"/>
<path d="M37.9647 41.5704C37.6676 41.5704 37.4266 41.3296 37.4266 41.0324C37.4266 40.6763 37.137 40.3867 36.7809 40.3867C36.4838 40.3867 36.2429 40.1458 36.2429 39.8486C36.2429 39.5513 36.4838 39.3105 36.7809 39.3105C37.137 39.3105 37.4266 39.0209 37.4266 38.6648C37.4266 38.3676 37.6676 38.1267 37.9647 38.1267C38.2619 38.1267 38.5028 38.3676 38.5028 38.6648C38.5028 39.0209 38.7924 39.3105 39.1485 39.3105C39.4456 39.3105 39.6866 39.5513 39.6866 39.8486C39.6866 40.1458 39.4456 40.3867 39.1485 40.3867C38.7924 40.3867 38.5028 40.6763 38.5028 41.0324C38.5028 41.3296 38.2619 41.5704 37.9647 41.5704Z" fill="#FFF7E4"/>
<path d="M5.64622 35.3555C5.50352 35.3555 5.36663 35.2989 5.26569 35.1978L4.04854 33.9806C3.9476 33.8796 3.89099 33.7428 3.89099 33.6001C3.89099 33.4574 3.94771 33.3206 4.04854 33.2197L5.26569 32.0026C5.47586 31.7924 5.81657 31.7925 6.02664 32.0025L7.24389 33.2196C7.34484 33.3206 7.40155 33.4574 7.40155 33.6001C7.40155 33.7428 7.34484 33.8797 7.244 33.9806L6.02664 35.1979C5.9257 35.2989 5.78892 35.3555 5.64622 35.3555ZM5.19003 33.6003L5.64622 34.0564L6.1024 33.6003L5.64622 33.1442L5.19003 33.6003Z" fill="#FFF7E4"/>
<path d="M23.8648 3.51056C23.727 3.51056 23.5894 3.45804 23.4843 3.3529L22.2671 2.13576C22.1662 2.03481 22.1096 1.89803 22.1096 1.75533C22.1096 1.61263 22.1663 1.47575 22.2671 1.37491L23.4843 0.157658C23.5852 0.0567139 23.7221 0 23.8648 0C24.0075 0 24.1444 0.0566063 24.2453 0.157658L25.4626 1.37491C25.5635 1.47585 25.6201 1.61263 25.6201 1.75533C25.6201 1.89803 25.5634 2.03492 25.4625 2.13587L24.2453 3.35301C24.1402 3.45804 24.0024 3.51056 23.8648 3.51056ZM23.4086 1.75544L23.8648 2.21152L24.321 1.75544L23.8648 1.29925L23.4086 1.75544Z" fill="#FFF7E4"/>
</svg>
