<svg width="20" height="19" viewBox="0 0 20 19" fill="none" xmlns="http://www.w3.org/2000/svg">
<path fill-rule="evenodd" clip-rule="evenodd" d="M16.7118 2.97832C15.8542 2.11525 14.8339 1.43089 13.71 0.964877C12.5861 0.498863 11.3809 0.260454 10.1642 0.263456C5.06216 0.263456 0.909471 4.41615 0.907813 9.51986C0.905538 11.1441 1.33173 12.7403 2.1434 14.1472L0.829346 18.9443L5.73632 17.6567C7.09348 18.396 8.6143 18.7834 10.1598 18.7834H10.1642C15.2662 18.7834 19.4189 14.6307 19.4206 9.52704C19.4244 8.31061 19.1869 7.1055 18.722 5.98143C18.257 4.85736 17.5738 3.83664 16.7118 2.97832ZM10.1642 17.2202H10.1609C8.78296 17.2206 7.4303 16.8503 6.2447 16.1482L5.96453 15.9824L3.0524 16.7461L3.82989 13.9069L3.64367 13.6145C2.87339 12.3881 2.46573 10.9687 2.46777 9.52041C2.46777 5.27819 5.92088 1.82728 10.1647 1.82728C11.1754 1.82757 12.1761 2.02696 13.1097 2.41407C14.0434 2.80117 14.8916 3.36841 15.6059 4.08338C16.3203 4.79834 16.8868 5.64703 17.2731 6.58097C17.6594 7.51492 17.8579 8.51581 17.8573 9.52649C17.8556 13.7687 14.4042 17.2202 10.1642 17.2202ZM14.3843 11.4578C14.1533 11.3423 13.0161 10.7831 12.8039 10.7057C12.5917 10.6284 12.4375 10.5897 12.2839 10.8212C12.1303 11.0527 11.6855 11.5738 11.5506 11.7274C11.4158 11.8811 11.281 11.9015 11.0494 11.7855C10.8179 11.6694 10.073 11.4252 9.18943 10.6372C8.50201 10.0244 8.03784 9.26677 7.90301 9.03469C7.76818 8.8026 7.90301 8.68987 8.00413 8.56278C8.25501 8.25167 8.50533 7.92564 8.58269 7.77147C8.66005 7.6173 8.62082 7.48191 8.56335 7.36642C8.50588 7.25093 8.04281 6.11205 7.84996 5.64898C7.66208 5.19807 7.47199 5.25885 7.32998 5.25167C7.18796 5.24448 7.04097 5.24393 6.88791 5.24393C6.77068 5.24695 6.65536 5.27424 6.54921 5.32408C6.44307 5.37391 6.34841 5.44522 6.27122 5.53349C6.05958 5.76502 5.46168 6.32424 5.46168 7.46257C5.46168 8.60091 6.29056 9.70111 6.40605 9.85528C6.52154 10.0095 8.03729 12.3458 10.3576 13.3476C10.7881 13.5334 11.2282 13.6961 11.6761 13.835C12.1478 13.9787 12.6466 14.0101 13.1327 13.9267C13.5748 13.8604 14.5009 13.367 14.6937 12.8271C14.8866 12.2872 14.8866 11.8236 14.8286 11.7269C14.7706 11.6302 14.6153 11.5738 14.3837 11.4578H14.3843Z" fill="white"/>
</svg>
