<svg xmlns="http://www.w3.org/2000/svg" xmlns:xlink="http://www.w3.org/1999/xlink" viewBox="0 0 1920 1349.62"><defs><style>.cls-1{fill:none;}.cls-2{clip-path:url(#clip-path);}.cls-3,.cls-4{fill:#f3ebff;}.cls-18,.cls-3{opacity:0.6;}.cls-5{fill:#d8ccea;}.cls-6{fill:#b2a6d7;}.cls-7{fill:#d5c7e5;}.cls-8{fill:#4f3077;}.cls-9{fill:#a087bb;}.cls-10{fill:#70529a;}.cls-11{fill:#f3eff9;}.cls-12{fill:#cdc3e2;}.cls-13{fill:#c6a0e2;}.cls-14{fill:#53327a;}.cls-15,.cls-33,.cls-35,.cls-37{fill:#fff;}.cls-16{fill:#c6adde;}.cls-17{fill:#513279;}.cls-18{fill:#a295b7;}.cls-19{fill:#bbaece;}.cls-20{fill:#f8f3ff;}.cls-21{fill:#c99fe3;}.cls-22{fill:#8d6fbc;}.cls-23{fill:#412566;}.cls-24{fill:#6b4799;}.cls-25{fill:url(#Degradado_sin_nombre_7);}.cls-26{fill:url(#Degradado_sin_nombre_9);}.cls-27{fill:url(#Degradado_sin_nombre_9-2);}.cls-28{fill:url(#Degradado_sin_nombre_9-3);}.cls-29{fill:#311352;}.cls-30{fill:url(#Degradado_sin_nombre_190);}.cls-31{fill:url(#Degradado_sin_nombre_87);}.cls-32{fill:#2cdd44;}.cls-32,.cls-33,.cls-34{fill-rule:evenodd;}.cls-34{fill:#fd4e49;}.cls-35{font-size:12px;font-family:MicrosoftYaHeiUI, Microsoft YaHei UI;}.cls-36{letter-spacing:-0.02em;}.cls-37{font-size:26px;font-family:Montserrat-Bold, Montserrat;font-weight:700;}.cls-38{letter-spacing:0.01em;}.cls-39{letter-spacing:-0.01em;}.cls-40{letter-spacing:-0.02em;}.cls-41{letter-spacing:-0.01em;}.cls-42{letter-spacing:-0.03em;}.cls-43{fill:url(#Degradado_sin_nombre_157);}.cls-44{fill:url(#Degradado_sin_nombre_162);}.cls-45{fill:url(#Degradado_sin_nombre_162-2);}.cls-46{fill:url(#Degradado_sin_nombre_9-4);}.cls-47{fill:url(#Degradado_sin_nombre_9-5);}</style><clipPath id="clip-path" transform="translate(0 1.05)"><rect class="cls-1" width="1920" height="1080"/></clipPath><linearGradient id="Degradado_sin_nombre_7" x1="960" y1="393.84" x2="960" y2="1068.36" gradientUnits="userSpaceOnUse"><stop offset="0.01" stop-color="#dacbff" stop-opacity="0"/><stop offset="1" stop-color="#a978df" stop-opacity="0.6"/></linearGradient><linearGradient id="Degradado_sin_nombre_9" x1="773.17" y1="396.43" x2="1182" y2="396.43" gradientUnits="userSpaceOnUse"><stop offset="0" stop-color="#ffce00"/><stop offset="1" stop-color="#f5801f"/></linearGradient><linearGradient id="Degradado_sin_nombre_9-2" x1="599.53" y1="1039.89" x2="925.16" y2="1039.89" xlink:href="#Degradado_sin_nombre_9"/><linearGradient id="Degradado_sin_nombre_9-3" x1="683.21" y1="639.74" x2="1087.59" y2="639.74" xlink:href="#Degradado_sin_nombre_9"/><linearGradient id="Degradado_sin_nombre_190" x1="1005.27" y1="326.25" x2="1005.27" y2="781.12" gradientUnits="userSpaceOnUse"><stop offset="0" stop-color="#5d446d" stop-opacity="0.94"/><stop offset="1" stop-color="#412a5e"/></linearGradient><linearGradient id="Degradado_sin_nombre_87" x1="943.85" y1="484.18" x2="1335.2" y2="126.08" gradientUnits="userSpaceOnUse"><stop offset="0" stop-color="#fff" stop-opacity="0.1"/><stop offset="1" stop-color="#fff"/></linearGradient><linearGradient id="Degradado_sin_nombre_157" x1="12973.84" y1="548.62" x2="13003.23" y2="548.62" gradientTransform="matrix(-1, 0, 0, 1, 14140.87, 0)" gradientUnits="userSpaceOnUse"><stop offset="0" stop-color="#fff" stop-opacity="0"/><stop offset="0.37" stop-color="#fff" stop-opacity="0.8"/><stop offset="0.47" stop-color="#fff" stop-opacity="0.8"/><stop offset="0.56" stop-color="#fff" stop-opacity="0.8"/><stop offset="0.63" stop-color="#fff" stop-opacity="0.8"/><stop offset="0.75" stop-color="#fff" stop-opacity="0.8"/><stop offset="1" stop-color="#fff" stop-opacity="0"/></linearGradient><linearGradient id="Degradado_sin_nombre_162" x1="1006.35" y1="4054.17" x2="1006.35" y2="4050.02" gradientTransform="matrix(1, 0, 0, -1, 0, 4896.37)" gradientUnits="userSpaceOnUse"><stop offset="0" stop-color="#fff" stop-opacity="0"/><stop offset="1" stop-color="#fff" stop-opacity="0.8"/></linearGradient><linearGradient id="Degradado_sin_nombre_162-2" x1="1006.35" y1="241.83" x2="1006.35" y2="235.53" gradientTransform="matrix(1, 0, 0, 1, 0, 0)" xlink:href="#Degradado_sin_nombre_162"/><linearGradient id="Degradado_sin_nombre_9-4" x1="7767.75" y1="4900.96" x2="8019.52" y2="4900.96" gradientTransform="matrix(0.81, -0.58, 0.58, 0.81, -8079.94, 1083.81)" xlink:href="#Degradado_sin_nombre_9"/><linearGradient id="Degradado_sin_nombre_9-5" x1="7782.16" y1="5008.66" x2="7982.19" y2="5008.66" gradientTransform="matrix(0.81, -0.58, 0.58, 0.81, -8079.94, 1083.81)" xlink:href="#Degradado_sin_nombre_9"/></defs><g id="Capa_2" data-name="Capa 2"><g id="_2.CAPITULO_2:_UN_HOMBRE_LA_ESENCIA_DE_TODO" data-name="2.CAPITULO 2: UN HOMBRE, LA ESENCIA DE TODO"><g id="Capa_9" data-name="Capa 9"><g class="cls-2"><rect class="cls-3" width="1920" height="1080"/><rect class="cls-4" width="1920" height="1080"/><rect class="cls-5" y="883.88" width="1920" height="196.12"/><rect class="cls-6" x="1541.41" y="93.14" width="235.51" height="228.49" rx="11.93"/><rect class="cls-7" x="1551.62" y="103.03" width="215.11" height="208.69" rx="10.9"/><path class="cls-8" d="M1654.29,122.83a4.88,4.88,0,1,1,4.88,4.88A4.88,4.88,0,0,1,1654.29,122.83Z" transform="translate(0 1.05)"/><path class="cls-8" d="M1693.66,129.73a4.88,4.88,0,1,1,1.89,6.63A4.88,4.88,0,0,1,1693.66,129.73Z" transform="translate(0 1.05)"/><path class="cls-8" d="M1727.38,156.52a4.88,4.88,0,1,1-1.45,6.75A4.88,4.88,0,0,1,1727.38,156.52Z" transform="translate(0 1.05)"/><path class="cls-8" d="M1744.09,198a4.88,4.88,0,1,1-4.88,4.88A4.89,4.89,0,0,1,1744.09,198Z" transform="translate(0 1.05)"/><path class="cls-8" d="M1735.56,246.12a4.88,4.88,0,1,1-6.9,0A4.89,4.89,0,0,1,1735.56,246.12Z" transform="translate(0 1.05)"/><path class="cls-8" d="M1704.92,276.84a4.88,4.88,0,1,1-6.9,0A4.87,4.87,0,0,1,1704.92,276.84Z" transform="translate(0 1.05)"/><path class="cls-8" d="M1654.29,292.67a4.88,4.88,0,1,1,4.88,4.88A4.89,4.89,0,0,1,1654.29,292.67Z" transform="translate(0 1.05)"/><path class="cls-8" d="M1624.53,129.73a4.88,4.88,0,1,0-1.9,6.63A4.89,4.89,0,0,0,1624.53,129.73Z" transform="translate(0 1.05)"/><path class="cls-8" d="M1590.8,156.52a4.88,4.88,0,1,0,1.46,6.75A4.87,4.87,0,0,0,1590.8,156.52Z" transform="translate(0 1.05)"/><path class="cls-8" d="M1574.1,198a4.88,4.88,0,1,0,4.88,4.88A4.88,4.88,0,0,0,1574.1,198Z" transform="translate(0 1.05)"/><path class="cls-8" d="M1582.63,246.12a4.88,4.88,0,1,0,6.9,0A4.87,4.87,0,0,0,1582.63,246.12Z" transform="translate(0 1.05)"/><path class="cls-8" d="M1613.26,276.84a4.88,4.88,0,1,0,6.9,0A4.89,4.89,0,0,0,1613.26,276.84Z" transform="translate(0 1.05)"/><path class="cls-8" d="M1657.85,202.87a4.88,4.88,0,1,1,4.88,4.88A4.89,4.89,0,0,1,1657.85,202.87Z" transform="translate(0 1.05)"/><rect class="cls-8" x="1662.07" y="142.98" width="1.33" height="60.95"/><rect class="cls-8" x="1657.74" y="188.11" width="41.08" height="4" transform="matrix(0.79, -0.62, 0.62, 0.79, 240.9, 1078.12)"/><path class="cls-9" d="M899.65,1079.85h-.31a3.26,3.26,0,0,1-3.25-3.33L901,862.88l14.52-1.69-12.39,215.34A3.51,3.51,0,0,1,899.65,1079.85Z" transform="translate(0 1.05)"/><path class="cls-10" d="M815,1079.85h-.31a3.26,3.26,0,0,1-3.25-3.33l4.93-213.64,14.52-1.69-12.38,215.34A3.53,3.53,0,0,1,815,1079.85Z" transform="translate(0 1.05)"/><path class="cls-9" d="M1048.51,1079.85h.31a3.26,3.26,0,0,0,3.25-3.33l-4.93-213.64-14.52-1.69L1045,1076.53A3.53,3.53,0,0,0,1048.51,1079.85Z" transform="translate(0 1.05)"/><path class="cls-9" d="M805.42,849.63V703.24a46.64,46.64,0,0,1,46.64-46.64H957.53a46.64,46.64,0,0,1,46.64,46.64v152Z" transform="translate(0 1.05)"/><path class="cls-10" d="M805.42,850.69h217.65a0,0,0,0,1,0,0V873.8a0,0,0,0,1,0,0H821a15.63,15.63,0,0,1-15.63-15.63v-7.48A0,0,0,0,1,805.42,850.69Z"/><rect class="cls-11" x="883.05" y="850.69" width="174.78" height="23.11" rx="8.57"/><path class="cls-12" d="M1516.12,1080.42h.31a3.25,3.25,0,0,0,3.25-3.33l-4.93-213.64-14.52-1.69,12.39,215.34A3.51,3.51,0,0,0,1516.12,1080.42Z" transform="translate(0 1.05)"/><path class="cls-13" d="M1600.73,1080.42h.31a3.26,3.26,0,0,0,3.25-3.33l-4.93-213.64-14.52-1.69,12.39,215.34A3.51,3.51,0,0,0,1600.73,1080.42Z" transform="translate(0 1.05)"/><path class="cls-12" d="M1367.26,1080.42H1367a3.26,3.26,0,0,1-3.25-3.33l4.93-213.64,14.52-1.69-12.38,215.34A3.53,3.53,0,0,1,1367.26,1080.42Z" transform="translate(0 1.05)"/><path class="cls-12" d="M1610.35,850.2V703.81a46.64,46.64,0,0,0-46.64-46.64H1458.24a46.64,46.64,0,0,0-46.64,46.64v152Z" transform="translate(0 1.05)"/><path class="cls-13" d="M1408.33,850.2h202a0,0,0,0,1,0,0v23.11a0,0,0,0,1,0,0H1392.7a0,0,0,0,1,0,0v-7.48A15.63,15.63,0,0,1,1408.33,850.2Z" transform="translate(3003.05 1724.57) rotate(-180)"/><rect class="cls-12" x="1357.94" y="850.2" width="174.78" height="23.11" rx="8.57" transform="translate(2890.66 1724.57) rotate(-180)"/><polygon class="cls-14" points="1466.53 750.04 1325.67 750.04 1283.3 644.67 1423.94 644.67 1466.53 750.04"/><polygon class="cls-14" points="1324.02 745.93 1510.02 745.93 1510.02 750.04 1325.67 750.04 1324.02 745.93"/><path class="cls-15" d="M1361.23,696.3c-1.06-3.71,1.08-6.71,4.78-6.71a9.6,9.6,0,0,1,8.63,6.71c1.06,3.7-1.08,6.71-4.78,6.71A9.61,9.61,0,0,1,1361.23,696.3Z" transform="translate(0 1.05)"/><path class="cls-16" d="M730.84,1084.32h-.41a4.44,4.44,0,0,1-4.29-4.66l6.51-299.12,19.2-2.37-16.37,301.51A4.78,4.78,0,0,1,730.84,1084.32Z" transform="translate(0 1.05)"/><path class="cls-16" d="M1509.32,1084.32h.41a4.44,4.44,0,0,0,4.3-4.66l-6.52-299.12-19.2-2.37,16.38,301.51A4.77,4.77,0,0,0,1509.32,1084.32Z" transform="translate(0 1.05)"/><rect class="cls-16" x="695.54" y="749.95" width="845.87" height="36.09" rx="13.39" transform="translate(2236.95 1537.04) rotate(-180)"/><polygon class="cls-17" points="979.73 751 1120.59 751 1162.96 645.63 1022.32 645.63 979.73 751"/><polygon class="cls-17" points="1122.24 746.9 936.24 746.9 936.24 751 1120.59 751 1122.24 746.9"/><path class="cls-15" d="M1085,697.26c1.07-3.7-1.07-6.7-4.78-6.7a9.61,9.61,0,0,0-8.63,6.7c-1.06,3.71,1.08,6.71,4.78,6.71A9.6,9.6,0,0,0,1085,697.26Z" transform="translate(0 1.05)"/><rect class="cls-18" x="38.12" y="99.33" width="608.04" height="524.88" transform="translate(684.29 724.59) rotate(-180)"/><rect class="cls-19" x="45.66" y="91.84" width="608.04" height="524.88" transform="translate(699.36 709.61) rotate(-180)"/><rect class="cls-20" x="57.48" y="100.58" width="584.64" height="505.67" transform="translate(699.61 707.89) rotate(-180)"/><polygon class="cls-15" points="437.79 321.65 565.89 321.65 565.89 161.68 544.17 142.09 437.79 142.09 437.79 321.65"/><polygon class="cls-21" points="565.89 161.68 544.87 161.68 544.17 142.09 565.89 161.68"/><rect class="cls-21" x="481.33" y="156.61" width="41.02" height="1.95" transform="translate(1003.68 316.23) rotate(-180)"/><rect class="cls-21" x="471.67" y="162.47" width="60.33" height="1.95" transform="translate(1003.68 327.95) rotate(-180)"/><rect class="cls-21" x="450.55" y="200.11" width="100.18" height="2.51" transform="translate(1001.28 403.78) rotate(-180)"/><rect class="cls-21" x="450.55" y="207.74" width="100.18" height="2.51" transform="translate(1001.28 419.04) rotate(-180)"/><rect class="cls-21" x="450.55" y="215.36" width="100.18" height="2.51" transform="translate(1001.28 434.29) rotate(-180)"/><rect class="cls-21" x="450.55" y="222.99" width="100.18" height="2.51" transform="translate(1001.28 449.55) rotate(-180)"/><rect class="cls-21" x="450.55" y="304.61" width="100.18" height="2.51" transform="translate(1001.28 612.79) rotate(-180)"/><polygon class="cls-15" points="289.86 543.6 417.97 543.6 417.97 383.62 396.24 364.04 289.86 364.04 289.86 543.6"/><polygon class="cls-21" points="417.97 383.62 396.94 383.62 396.24 364.04 417.97 383.62"/><rect class="cls-21" x="333.4" y="378.56" width="41.02" height="1.95" transform="translate(707.83 760.13) rotate(-180)"/><rect class="cls-21" x="323.75" y="384.42" width="60.33" height="1.95" transform="translate(707.83 771.84) rotate(-180)"/><rect class="cls-21" x="302.63" y="422.06" width="100.18" height="2.51" transform="translate(705.43 847.68) rotate(-180)"/><rect class="cls-21" x="302.63" y="429.68" width="100.18" height="2.51" transform="translate(705.43 862.93) rotate(-180)"/><rect class="cls-21" x="302.63" y="437.31" width="100.18" height="2.51" transform="translate(705.43 878.18) rotate(-180)"/><rect class="cls-21" x="302.63" y="444.94" width="100.18" height="2.51" transform="translate(705.43 893.44) rotate(-180)"/><rect class="cls-21" x="302.63" y="468.41" width="100.18" height="2.51" transform="translate(705.43 940.37) rotate(-180)"/><rect class="cls-21" x="302.63" y="476.03" width="100.18" height="2.51" transform="translate(705.43 955.63) rotate(-180)"/><rect class="cls-21" x="302.63" y="484.88" width="100.18" height="2.51" transform="translate(705.43 973.32) rotate(-180)"/><rect class="cls-22" x="217.56" y="141.04" width="70.74" height="62.37" transform="translate(505.87 345.5) rotate(-180)"/><path class="cls-23" d="M256,148.47a3.1,3.1,0,1,0-3.1,3.09A3.1,3.1,0,0,0,256,148.47Z" transform="translate(0 1.05)"/><rect class="cls-15" x="217.56" y="225.39" width="70.74" height="62.37" transform="matrix(-1, -0.07, 0.07, -1, 487.39, 531.19)"/><path class="cls-22" d="M257.41,237a3.1,3.1,0,1,0-3.31,2.87A3.1,3.1,0,0,0,257.41,237Z" transform="translate(0 1.05)"/><rect class="cls-15" x="452.64" y="455.15" width="70.74" height="62.37" transform="translate(940.96 1006.53) rotate(-176.01)"/><path class="cls-21" d="M492.48,466.71a3.1,3.1,0,1,0-3.3,2.87A3.09,3.09,0,0,0,492.48,466.71Z" transform="translate(0 1.05)"/><rect class="cls-15" x="543.36" y="497.89" width="70.74" height="62.37" transform="translate(1152.01 1065.1) rotate(-179.41)"/><path class="cls-23" d="M582,509.21a3.1,3.1,0,1,0-3.13,3.07A3.11,3.11,0,0,0,582,509.21Z" transform="translate(0 1.05)"/><rect class="cls-21" x="117.65" y="266.41" width="70.74" height="62.37" transform="translate(356.02 564.68) rotate(169.87)"/><path class="cls-23" d="M151.68,274.74a2.7,2.7,0,1,0-2.18,3.13A2.71,2.71,0,0,0,151.68,274.74Z" transform="translate(0 1.05)"/><rect class="cls-21" x="326.46" y="225.39" width="70.74" height="62.37" transform="translate(693.96 551.64) rotate(-173.82)"/><path class="cls-23" d="M367,234.26a2.7,2.7,0,1,0-3,2.39A2.68,2.68,0,0,0,367,234.26Z" transform="translate(0 1.05)"/><rect class="cls-21" x="506.37" y="375.88" width="70.74" height="62.37" transform="translate(986.67 919.2) rotate(-167.96)"/><path class="cls-22" d="M548,387.07a2.69,2.69,0,1,0-3.73-.8A2.7,2.7,0,0,0,548,387.07Z" transform="translate(0 1.05)"/><polygon class="cls-15" points="328.17 204.46 395.5 204.46 395.5 159.22 376.86 142.09 328.17 142.09 328.17 204.46"/><polygon class="cls-21" points="395.86 159.22 377.47 159.22 376.86 142.09 395.86 159.22"/><path class="cls-22" d="M361.59,146.81a2.22,2.22,0,1,0-2.22,2.21A2.21,2.21,0,0,0,361.59,146.81Z" transform="translate(0 1.05)"/><polygon class="cls-15" points="131.44 574.78 198.78 574.78 198.78 529.54 180.13 512.41 131.44 512.41 131.44 574.78"/><polygon class="cls-21" points="199.13 529.54 180.74 529.54 180.13 512.41 199.13 529.54"/><path class="cls-21" d="M164.86,517.13a2.21,2.21,0,1,0-2.21,2.21A2.21,2.21,0,0,0,164.86,517.13Z" transform="translate(0 1.05)"/><polygon class="cls-15" points="100.73 485 168.06 485 168.06 439.76 149.42 422.64 100.73 422.64 100.73 485"/><polygon class="cls-21" points="168.42 439.76 150.03 439.76 149.42 422.64 168.42 439.76"/><path class="cls-21" d="M134.15,427.35a2.22,2.22,0,1,0-2.21,2.22A2.21,2.21,0,0,0,134.15,427.35Z" transform="translate(0 1.05)"/><polygon class="cls-22" points="189.58 485 256.92 485 256.92 439.76 238.27 422.64 189.58 422.64 189.58 485"/><polygon class="cls-24" points="257.27 439.76 238.88 439.76 238.27 422.64 257.27 439.76"/><path class="cls-23" d="M223,427.35a2.22,2.22,0,1,0-2.21,2.22A2.21,2.21,0,0,0,223,427.35Z" transform="translate(0 1.05)"/><polygon class="cls-22" points="81.73 188.85 149.06 188.85 149.06 143.61 130.42 126.48 81.73 126.48 81.73 188.85"/><polygon class="cls-24" points="149.42 143.61 131.03 143.61 130.42 126.48 149.42 143.61"/><path class="cls-24" d="M115.15,131.2a2.22,2.22,0,1,0-2.21,2.21A2.21,2.21,0,0,0,115.15,131.2Z" transform="translate(0 1.05)"/><rect class="cls-25" width="1920" height="1080"/><path class="cls-26" d="M1177.87,251.18c-1.71,4.42-3.62,8.67-5.59,12.86s-4,8.32-6.15,12.4c-4.24,8.15-8.73,16.08-13.35,23.9-9.31,15.6-19.32,30.61-29.87,45.16s-21.55,28.72-33.12,42.42-23.62,27-35.64,40.32-24,26.69-35.47,40.46c-5.77,6.86-11.42,13.82-17.11,20.75s-11.38,13.86-17,20.84q-17,20.88-33.68,42t-33.07,42.47A80.54,80.54,0,1,1,789.61,497.2c1.53-2,3.23-4,4.91-5.86q18.26-19.79,36.05-40T866,410.89c5.9-6.75,11.72-13.57,17.56-20.38s11.7-13.59,17.45-20.46c11.56-13.71,22.64-27.82,33.66-42s22-28.39,33.48-42.13,23.52-27.07,36-40,25.53-25.39,39.25-37.28c6.9-5.92,13.93-11.72,21.21-17.31,3.65-2.79,7.34-5.55,11.14-8.22s7.63-5.3,11.68-7.75a62.35,62.35,0,0,1,90.44,75.82Z" transform="translate(0 1.05)"/><path class="cls-27" d="M922.7,843,821.28,1262.52a112.44,112.44,0,0,1-218.58-52.84c.89-3.69,2-7.43,3.24-10.94L749.33,791.68a90.52,90.52,0,0,1,115.45-55.31C908.88,751.91,933.29,798.53,922.7,843Z" transform="translate(0 1.05)"/><path class="cls-28" d="M897.74,444.66A151.82,151.82,0,0,0,861.86,449c0-.27,0-.54,0-.81l.1-3L862,442c0-2.11.09-4.18.08-6.47s0-4.39-.07-6.9l-.11-3.63,0-.91-.06-1-.13-2-.33-4c-.19-1.58-.39-3.16-.61-4.73l-.36-2.35c0-.35-.14-.87-.24-1.36l-.29-1.46c-.4-1.94-.81-3.88-1.31-5.79A58.12,58.12,0,1,0,744.33,422.7a3.32,3.32,0,0,1-.6-.82l-.12-.22c0-.08-.06-.18-.1-.11l-.18.14a3,3,0,0,0-.25.28l-.25,1-.92,5.56c-.16,1.05-.39,2.31-.63,3.53l-.36,1.83-.41,2c-.52,2.56-1.17,5.34-1.83,8.07-2.73,11.15-6.28,23-10.29,34.91-2,5.95-4.09,11.95-6.3,17.93s-4.5,12-6.81,18-4.66,12-7,17.95l-3.61,8.91L702.85,546l-.89,2.15c-.28.69-.6,1.48-.84,2L699.64,557c-2.17,8-4.3,16-6.26,24-1.76,8.14-3.48,16.29-4.93,24.54-.62,4.14-1.29,8.29-1.84,12.46s-1.2,8.31-1.52,12.54-.73,8.43-1.05,12.64-.47,8.47-.61,12.73-.16,8.52-.22,12.78.22,8.57.38,12.86.3,8.55.77,12.86.77,8.6,1.26,12.89l.37,3.22.46,3.22c.29,2.16.62,4.3,1,6.45l1,6.43c.18,1.07.33,2.14.53,3.21l.66,3.21c.9,4.28,1.75,8.56,2.71,12.81.44,2.13,1,4.26,1.61,6.38s1.13,4.24,1.73,6.35A262.85,262.85,0,0,0,715.13,808a236.52,236.52,0,0,0,29.92,44.72c1.49,1.72,2.91,3.44,4.44,5.12l4.7,5c1.55,1.65,3.14,3.25,4.81,4.83s3.29,3.15,5,4.67c3.32,3.09,7,6,10.46,8.87,3.71,2.8,7.3,5.55,11.2,8.1,1.91,1.3,3.89,2.53,5.83,3.76s4,2.36,6,3.51c4.1,2.26,8.25,4.38,12.6,6.27l3.24,1.4,3.34,1.31c2.21.85,4.49,1.65,6.8,2.35,1.14.36,2.34.7,3.5,1l1.74.49.63.15a154.8,154.8,0,0,0,68.38,16.09c104.85,0,189.85-107.67,189.85-240.48S1002.59,444.66,897.74,444.66Z" transform="translate(0 1.05)"/><rect class="cls-29" x="839.8" y="231.02" width="330.94" height="622.97" rx="77.49"/><path class="cls-30" d="M1154.34,277.69V801.05a32.25,32.25,0,0,1-32,32.28H888.24a32.24,32.24,0,0,1-32-32.28V277.69a32.24,32.24,0,0,1,32-32.28H1122.3A32.25,32.25,0,0,1,1154.34,277.69Z" transform="translate(0 1.05)"/><path class="cls-31" d="M1122.3,245.41,891.14,833.33h-2.9a32.24,32.24,0,0,1-32-32.28V277.69a32.24,32.24,0,0,1,32-32.28Z" transform="translate(0 1.05)"/><path class="cls-15" d="M1117.36,265.52v-6.77a2.41,2.41,0,0,1,2.42-2.41h15.73a2.41,2.41,0,0,1,2.42,2.41v6.77a2.42,2.42,0,0,1-2.42,2.42h-15.73A2.42,2.42,0,0,1,1117.36,265.52Zm20-6.77a1.8,1.8,0,0,0-1.8-1.79h-15.73a1.79,1.79,0,0,0-1.8,1.79v6.77a1.8,1.8,0,0,0,1.8,1.8h15.73a1.81,1.81,0,0,0,1.8-1.8Z" transform="translate(0 1.05)"/><path class="cls-15" d="M1138.27,261.05h.6a1.47,1.47,0,0,1,1.47,1.47v0a.69.69,0,0,1-.69.69h-2.16a.69.69,0,0,1-.69-.69v0a1.47,1.47,0,0,1,1.47-1.47Z" transform="translate(1400.7 -875.38) rotate(90)"/><path class="cls-15" d="M1115.24,261h9.11a0,0,0,0,1,0,0v0a2.26,2.26,0,0,1-2.26,2.26h-4.6a2.26,2.26,0,0,1-2.26-2.26v0A0,0,0,0,1,1115.24,261Z" transform="translate(1381.9 -856.63) rotate(90)"/><rect class="cls-15" x="1118.34" y="260.98" width="9.11" height="2.26" transform="translate(1385.01 -859.73) rotate(90)"/><rect class="cls-15" x="1121.44" y="260.98" width="9.11" height="2.26" transform="translate(1388.11 -862.83) rotate(90)"/><rect class="cls-15" x="1124.63" y="261.03" width="9.11" height="2.26" transform="translate(1391.35 -865.97) rotate(90)"/><path class="cls-15" d="M1104.89,266.67l-1.83,1.31-1.84-1.3a2.28,2.28,0,0,1,1.84-.95A2.23,2.23,0,0,1,1104.89,266.67Z" transform="translate(0 1.05)"/><path class="cls-15" d="M1103.06,262.53a5.46,5.46,0,0,0-4.45,2.31l1.16.82a4,4,0,0,1,6.57,0l1.15-.83A5.44,5.44,0,0,0,1103.06,262.53Z" transform="translate(0 1.05)"/><path class="cls-15" d="M1103.06,256.44a11.52,11.52,0,0,0-9.42,4.9l1.17.82a10.1,10.1,0,0,1,16.47-.07l1.15-.83A11.51,11.51,0,0,0,1103.06,256.44Z" transform="translate(0 1.05)"/><path class="cls-15" d="M1103.06,259.78a8.23,8.23,0,0,0-6.71,3.46l1.16.82a6.82,6.82,0,0,1,11.08,0l1.15-.83A8.21,8.21,0,0,0,1103.06,259.78Z" transform="translate(0 1.05)"/><path class="cls-15" d="M888.87,261.55a6.25,6.25,0,0,1,.87-3.6,2.86,2.86,0,0,1,2.5-1.24q3.13,0,3.13,4.63a6.17,6.17,0,0,1-.85,3.52,2.79,2.79,0,0,1-2.45,1.24Q888.88,266.1,888.87,261.55Zm1.92-.05c0,2.1.44,3.14,1.34,3.14s1.32-1.08,1.32-3.23-.43-3.25-1.29-3.25S890.79,259.28,890.79,261.5Z" transform="translate(0 1.05)"/><path class="cls-15" d="M896.83,264.17a3.05,3.05,0,0,0,1.71.47c1.47,0,2.22-.95,2.25-2.86h0a2,2,0,0,1-1.84.92,2.39,2.39,0,0,1-1.86-.79,2.83,2.83,0,0,1-.73-2,3.12,3.12,0,0,1,.88-2.31,3.07,3.07,0,0,1,2.29-.88,2.72,2.72,0,0,1,2.31,1.12,5.17,5.17,0,0,1,.83,3.12,6.19,6.19,0,0,1-1,3.76,3.39,3.39,0,0,1-2.91,1.39,4.78,4.78,0,0,1-1.88-.35Zm1.34-4.44a1.72,1.72,0,0,0,.35,1.13,1.21,1.21,0,0,0,1,.41,1.13,1.13,0,0,0,.88-.39,1.4,1.4,0,0,0,.35-1,2.1,2.1,0,0,0-.35-1.22,1.12,1.12,0,0,0-1.84-.07A1.8,1.8,0,0,0,898.17,259.73Z" transform="translate(0 1.05)"/><path class="cls-15" d="M903.8,265.09a.9.9,0,0,1,.33-.72,1.2,1.2,0,0,1,.8-.28,1.14,1.14,0,0,1,.79.28,1,1,0,0,1,0,1.45,1.21,1.21,0,0,1-.81.28,1.17,1.17,0,0,1-.79-.29A.93.93,0,0,1,903.8,265.09Z" transform="translate(0 1.05)"/><path class="cls-15" d="M911.73,256.66v9.28h-1.9V258.8a3.57,3.57,0,0,1-1,.54,4.17,4.17,0,0,1-1.12.3V258a8.39,8.39,0,0,0,2.78-1.36Z" transform="translate(0 1.05)"/><path class="cls-15" d="M915.06,265.7v-1.63a3.78,3.78,0,0,0,2,.57,1.85,1.85,0,0,0,1.25-.39,1.37,1.37,0,0,0,.46-1.07c0-.94-.65-1.41-1.94-1.41a14.75,14.75,0,0,0-1.64.1l.34-5h4.8v1.56h-3.27l-.13,1.91c.32,0,.62,0,.89,0a2.9,2.9,0,0,1,2.1.73,2.54,2.54,0,0,1,.77,2,2.94,2.94,0,0,1-.93,2.25,3.55,3.55,0,0,1-2.53.87A5.41,5.41,0,0,1,915.06,265.7Z" transform="translate(0 1.05)"/><rect class="cls-15" x="1085.27" y="257.47" width="2.64" height="11.49"/><rect class="cls-15" x="1080.73" y="259.83" width="2.64" height="9.13"/><rect class="cls-15" x="1076.18" y="262.12" width="2.64" height="6.84"/><rect class="cls-15" x="1071.64" y="264.24" width="2.64" height="4.72"/><path class="cls-32" d="M1078.21,648.34a40.11,40.11,0,1,1-40.13,40.1,40.11,40.11,0,0,1,40.13-40.1Z" transform="translate(0 1.05)"/><path class="cls-33" d="M1099.24,700.63a2.07,2.07,0,0,1-.63,1.79l-5.94,5.88a3.5,3.5,0,0,1-1,.77,4.71,4.71,0,0,1-1.28.4h-.28a4.71,4.71,0,0,1-.57,0,18.7,18.7,0,0,1-2.73-.28,22.38,22.38,0,0,1-4.66-1.42,41.32,41.32,0,0,1-6.22-3.41,59.39,59.39,0,0,1-12.56-12.13,40.16,40.16,0,0,1-3.3-5.21,25.81,25.81,0,0,1-1.88-4.31,22,22,0,0,1-.85-3.36,10.14,10.14,0,0,1-.17-2.21c0-.54,0-.83,0-.89a4.45,4.45,0,0,1,.4-1.27,3.71,3.71,0,0,1,.77-1.06l5.94-5.91a1.88,1.88,0,0,1,1.42-.62,1.62,1.62,0,0,1,1,.31,4.64,4.64,0,0,1,.77.82l4.77,9.07a2.1,2.1,0,0,1,.2,1.56,2.78,2.78,0,0,1-.74,1.42l-2.19,2.19a1.71,1.71,0,0,0-.17.29,1.88,1.88,0,0,0-.06.34,8.65,8.65,0,0,0,.8,2.13,21.37,21.37,0,0,0,1.65,2.61,31.39,31.39,0,0,0,3.18,3.55,29.54,29.54,0,0,0,3.55,3.19,20,20,0,0,0,2.62,1.67,7.56,7.56,0,0,0,1.62.66l.54.11a.87.87,0,0,0,.28-.08.6.6,0,0,0,.31-.15l2.53-2.58a2.74,2.74,0,0,1,1.88-.71,2.32,2.32,0,0,1,1.19.25h.06l8.61,5.09a2.25,2.25,0,0,1,1.11,1.48Z" transform="translate(0 1.05)"/><path class="cls-34" d="M937.4,648.34a40.11,40.11,0,1,1-40.1,40.1,40.09,40.09,0,0,1,40.1-40.1Z" transform="translate(0 1.05)"/><path class="cls-33" d="M913.93,698.27a2.08,2.08,0,0,1-.83-1.71l0-8.35a3.55,3.55,0,0,1,.2-1.28,5,5,0,0,1,.62-1.19,1.56,1.56,0,0,0,.17-.2,4.63,4.63,0,0,1,.4-.43,23.31,23.31,0,0,1,2.13-1.73,21.24,21.24,0,0,1,4.3-2.27,37.86,37.86,0,0,1,6.82-2,47.75,47.75,0,0,1,9.66-.83,49.76,49.76,0,0,1,7.81.51,42.65,42.65,0,0,1,6,1.34,28.45,28.45,0,0,1,4.4,1.73,27.56,27.56,0,0,1,3,1.76,10.94,10.94,0,0,1,1.67,1.45,7.5,7.5,0,0,0,.63.66,4.91,4.91,0,0,1,.6,1.19,3.16,3.16,0,0,1,.2,1.28v8.38a1.89,1.89,0,0,1-.57,1.45,1.6,1.6,0,0,1-.94.49,3.36,3.36,0,0,1-1.14,0l-9.77-3a2.19,2.19,0,0,1-1.25-.94,2.78,2.78,0,0,1-.49-1.57v-3.06a1.08,1.08,0,0,0-.08-.34c-.09-.12-.14-.2-.2-.29a9.21,9.21,0,0,0-2.07-.94,20.49,20.49,0,0,0-3-.68,45.44,45.44,0,0,0-9.52,0,19.14,19.14,0,0,0-3,.68A7,7,0,0,0,928,689l-.48.34a.77.77,0,0,0-.14.23.9.9,0,0,0-.09.34l0,3.61a2.8,2.8,0,0,1-.83,1.84,2.57,2.57,0,0,1-1,.66l0,0-9.69,2.5a2.19,2.19,0,0,1-1.81-.26Z" transform="translate(0 1.05)"/><path class="cls-15" d="M1078.2,585.37c-4.36,0-7.89,2.82-7.89,6.3a6.16,6.16,0,0,0,3.78,5.37c-.54.94-1.14,1.86-1.14,1.86a4.29,4.29,0,0,0,3.43-1.11,9.77,9.77,0,0,0,1.82.18c4.35,0,7.89-2.83,7.89-6.3S1082.55,585.37,1078.2,585.37Z" transform="translate(0 1.05)"/><text class="cls-35" transform="translate(920.18 617.65)"><tspan class="cls-36">A</tspan><tspan x="8.17" y="0">visar</tspan></text><text class="cls-37" transform="translate(884.06 376.53)">Llam<tspan class="cls-38" x="66.85" y="0">a</tspan><tspan x="83.04" y="0">da ent</tspan><tspan class="cls-39" x="170.12" y="0">r</tspan><tspan x="181.14" y="0">an</tspan><tspan class="cls-40" x="215.15" y="0">t</tspan><tspan x="226.02" y="0">e </tspan></text><text class="cls-35" transform="translate(1054.13 617.65)">Mensaje</text><text class="cls-35" transform="translate(1050.46 747.6)">Con<tspan class="cls-41" x="23.05" y="0">t</tspan><tspan x="27.42" y="0">estar</tspan></text><text class="cls-35" transform="translate(911.68 747.86)"><tspan class="cls-42">R</tspan><tspan x="7.47" y="0">echazar</tspan></text><path class="cls-15" d="M933.5,585.41a2.9,2.9,0,0,0-2.31,4.68l4.18-4A2.85,2.85,0,0,0,933.5,585.41Z" transform="translate(0 1.05)"/><rect class="cls-15" x="931.26" y="597.33" width="2.72" height="1" transform="translate(-154.02 814.28) rotate(-43.87)"/><path class="cls-15" d="M941.32,585.41a2.91,2.91,0,0,1,2.92,2.92,2.87,2.87,0,0,1-.61,1.76l-4.18-4A2.89,2.89,0,0,1,941.32,585.41Z" transform="translate(0 1.05)"/><rect class="cls-15" x="941.71" y="596.47" width="1" height="2.72" transform="translate(-141.63 864.31) rotate(-46.16)"/><path class="cls-15" d="M937.41,586.74a6,6,0,1,0,6,6A6,6,0,0,0,937.41,586.74Zm.5,7H934v-1h2.9v-3.91h1Z" transform="translate(0 1.05)"/><path class="cls-43" d="M1147.29,824.23a78.61,78.61,0,0,1-9.56,10.87c-.75.67,3.74-.48,12.9-10.77a70,70,0,0,0,12.11-21.89c.53-1.75,1.62-6.16,2-7.91s.72-3.52,1-5.28.51-3.53.69-5.32c0-.11,0-.22,0-.33v-.08l.5-126.41.09-126.42-.33-126.41-.26-63.21-.14-31.6c0-2.65,0-5.24,0-7.93s-.2-5.37-.47-8.06a66.65,66.65,0,0,0-1.28-8.09c-.31-1.36-.68-2.7-1.13-4.06-.33-1.07-1.17-3.6-1.62-4.93-.19-.57-.41-1.12-.65-1.67l-1.71-3.86-2.34-4.05c-.61-1-4.11-5.38-5.13-4.77-.67.4,1.44,2.16,3.33,8.19h0a77.14,77.14,0,0,1,2.08,18.16l-.48,115.88-.33,126.41.09,126.42.5,126.41,0-.41c-.13,1.74-.24,3.51-.3,5.27s-.09,3.53-.09,5.3-.3,7.12-.59,9.25C1156.15,802.93,1154.51,815.12,1147.29,824.23Z" transform="translate(0 1.05)"/><path class="cls-44" d="M881.46,842.48a54,54,0,0,0,20.32,4.69c15.92.57,31.2.4,47.36.43l56.36.06,56.36-.15,28.18-.1c9.36,0,18.71.49,27.92-1,8.46-1.41,18-6.1,18-7.21.11-1.28-7.47,1.8-11.35,2.16-9.7.9-25.06.11-34.46.07l-28.33.18-56.36-.15-56.36.05c-16.76,0-33.53-.09-50.29.56a64.89,64.89,0,0,1-17.71-1.69c-3.75-.89-4.49-1.42-4.44-.67C876.73,840.12,878.75,841.25,881.46,842.48Z" transform="translate(0 1.05)"/><rect class="cls-29" x="941.87" y="234.67" width="126.8" height="31.25" rx="14.65"/><path class="cls-45" d="M881.46,241.39a39.65,39.65,0,0,1,20.32-7.1c15.92-.85,31.2-.6,47.36-.65l56.36-.09,56.36.23,28.18.14c9.36.07,18.71-.73,27.92,1.59,8.46,2.13,18,9.23,18,10.91.11,1.93-7.47-2.73-11.35-3.28-9.7-1.36-25.06-.16-34.46-.09l-28.33-.28-56.36.23-56.36-.09c-16.76,0-33.53.15-50.29-.84a44.08,44.08,0,0,0-17.71,2.55c-3.75,1.36-4.49,2.16-4.44,1C876.73,245,878.75,243.25,881.46,241.39Z" transform="translate(0 1.05)"/><path class="cls-46" d="M1100.55,440.63q10.89-9.56,21.46-19.39t21-19.76c3.5-3.31,7-6.64,10.4-10s6.93-6.66,10.33-10A244.83,244.83,0,0,0,1183,360.23c19.31-24.62,56.08-25.9,82.13-2.87,25.21,22.28,31.07,59.27,14,83.94a253,253,0,0,0-14.87,24.95c-2.29,4.32-4.5,8.71-6.75,13.06s-4.48,8.72-6.68,13.11q-6.64,13.14-13.12,26.43T1225,545.64c-17.46,38.25-63.27,50.88-102.32,28.21s-56.56-72.05-39.1-110.3A68.6,68.6,0,0,1,1100.55,440.63Z" transform="translate(0 1.05)"/><path class="cls-47" d="M1172.53,526.72l72.08-52.35c21.94-15.93,54.28-8.75,72.23,16,14.76,20.38,15.16,46.35,2.66,63.78L1267,627.37c-20.17,28.09-60.44,31.13-90,6.8s-37.1-66.82-16.94-94.91A57.46,57.46,0,0,1,1172.53,526.72Z" transform="translate(0 1.05)"/></g></g></g></g></svg>