<svg width="95" height="72" viewBox="0 0 95 72" fill="none" xmlns="http://www.w3.org/2000/svg">
<path opacity="0.5" d="M30.9 71.8C40.0292 71.8 47.5923 68.2563 52.8557 61.9402C58.1038 55.6425 61 46.6712 61 35.9H59C59 46.3288 56.1962 54.8075 51.3193 60.6598C46.4577 66.4937 39.4708 69.8 30.9 69.8V71.8ZM61 35.9C61 25.0819 58.1303 16.1094 52.8934 9.82247C47.6402 3.51608 40.0757 0 30.9 0V2C39.5243 2 46.5098 5.28391 51.3567 11.1025C56.2197 16.9406 59 25.4181 59 35.9H61ZM30.9 0C21.7731 0 14.2096 3.51694 8.94493 9.82154C3.69576 16.1076 0.8 25.0798 0.8 35.9H2.8C2.8 25.4202 5.60424 16.9424 10.4801 11.1035C15.3404 5.28306 22.3269 2 30.9 2V0ZM0.8 35.9C0.8 46.6732 3.7223 55.6444 8.98256 61.9411C14.2575 68.2555 21.8195 71.8 30.9 71.8V69.8C22.3805 69.8 15.3925 66.4945 10.5174 60.6589C5.6277 54.8056 2.8 46.3268 2.8 35.9H0.8ZM30.9 54C27.805 54 25.4173 52.5099 23.7469 49.5354C22.0424 46.4998 21.1 41.9227 21.1 35.9H19.1C19.1 42.0773 20.0576 47.0502 22.0031 50.5146C23.9827 54.0401 26.995 56 30.9 56V54ZM21.1 35.9C21.1 29.8258 22.0428 25.2502 23.7461 22.2286C25.4136 19.2705 27.7994 17.8 30.9 17.8V15.8C27.0006 15.8 23.9864 17.7295 22.0039 21.2464C20.0572 24.6998 19.1 29.6742 19.1 35.9H21.1ZM30.9 17.8C33.9975 17.8 36.4114 19.2928 38.1059 22.2697C39.8337 25.3049 40.8 29.8808 40.8 35.9H42.8C42.8 29.7192 41.8163 24.7451 39.8441 21.2803C37.8386 17.7572 34.8025 15.8 30.9 15.8V17.8ZM40.8 35.9C40.8 41.9707 39.8332 46.5451 38.1068 49.5664C36.4151 52.5268 34.0031 54 30.9 54V56C34.7969 56 37.8349 54.0732 39.8432 50.5586C41.8168 47.1049 42.8 42.1293 42.8 35.9H40.8ZM65.9391 2.5V1.5H64.9391V2.5H65.9391ZM65.9391 17.6H64.9391V18.6H65.9391V17.6ZM75.8391 17.6H76.8391V16.6H75.8391V17.6ZM75.8391 69H74.8391V70H75.8391V69ZM93.7391 69V70H94.7391V69H93.7391ZM93.7391 2.5H94.7391V1.5H93.7391V2.5ZM64.9391 2.5V17.6H66.9391V2.5H64.9391ZM65.9391 18.6H75.8391V16.6H65.9391V18.6ZM74.8391 17.6V69H76.8391V17.6H74.8391ZM75.8391 70H93.7391V68H75.8391V70ZM94.7391 69V2.5H92.7391V69H94.7391ZM93.7391 1.5H65.9391V3.5H93.7391V1.5Z" fill="#FFD500"/>
</svg>
