<svg width="118" height="73" viewBox="0 0 118 73" fill="none" xmlns="http://www.w3.org/2000/svg">
<path opacity="0.5" d="M30.9 72.8C40.0292 72.8 47.5923 69.2563 52.8557 62.9402C58.1038 56.6425 61 47.6712 61 36.9H59C59 47.3288 56.1962 55.8075 51.3193 61.6598C46.4577 67.4937 39.4708 70.8 30.9 70.8V72.8ZM61 36.9C61 26.0819 58.1303 17.1094 52.8934 10.8225C47.6402 4.51608 40.0757 1 30.9 1V3C39.5243 3 46.5098 6.28391 51.3567 12.1025C56.2197 17.9406 59 26.4181 59 36.9H61ZM30.9 1C21.7731 1 14.2096 4.51694 8.94493 10.8215C3.69576 17.1076 0.8 26.0798 0.8 36.9H2.8C2.8 26.4202 5.60424 17.9424 10.4801 12.1035C15.3404 6.28306 22.3269 3 30.9 3V1ZM0.8 36.9C0.8 47.6732 3.7223 56.6444 8.98256 62.9411C14.2575 69.2555 21.8195 72.8 30.9 72.8V70.8C22.3805 70.8 15.3925 67.4945 10.5174 61.6589C5.6277 55.8056 2.8 47.3268 2.8 36.9H0.8ZM30.9 55C27.805 55 25.4173 53.5099 23.7469 50.5354C22.0424 47.4998 21.1 42.9227 21.1 36.9H19.1C19.1 43.0773 20.0576 48.0502 22.0031 51.5146C23.9827 55.0401 26.995 57 30.9 57V55ZM21.1 36.9C21.1 30.8258 22.0428 26.2502 23.7461 23.2286C25.4136 20.2705 27.7994 18.8 30.9 18.8V16.8C27.0006 16.8 23.9864 18.7295 22.0039 22.2464C20.0572 25.6998 19.1 30.6742 19.1 36.9H21.1ZM30.9 18.8C33.9975 18.8 36.4114 20.2928 38.1059 23.2697C39.8337 26.3049 40.8 30.8808 40.8 36.9H42.8C42.8 30.7192 41.8163 25.7451 39.8441 22.2803C37.8386 18.7572 34.8025 16.8 30.9 16.8V18.8ZM40.8 36.9C40.8 42.9707 39.8332 47.5451 38.1068 50.5664C36.4151 53.5268 34.0031 55 30.9 55V57C34.7969 57 37.8349 55.0732 39.8432 51.5586C41.8168 48.1049 42.8 43.1293 42.8 36.9H40.8ZM97.6156 54.3L96.8577 53.6477L95.4357 55.3H97.6156V54.3ZM67.7156 25.4H66.7156V26.4H67.7156V25.4ZM85.3156 25.4V26.4H86.3156V25.4H85.3156ZM66.6156 66L65.853 65.3532L65.6156 65.633V66H66.6156ZM66.6156 70H65.6156V71H66.6156V70ZM116.116 70V71H117.116V70H116.116ZM116.116 54.3H117.116V53.3H116.116V54.3ZM98.3736 54.9523C112.575 38.4507 115.916 31.8009 115.916 23H113.916C113.916 30.9991 111.056 37.1493 96.8577 53.6477L98.3736 54.9523ZM115.916 23C115.916 16.4753 113.376 10.9239 108.967 7.01423C104.566 3.1129 98.3667 0.899994 91.1156 0.899994V2.89999C97.9645 2.89999 103.665 4.98709 107.64 8.51077C111.605 12.026 113.916 17.0247 113.916 23H115.916ZM91.1156 0.899994C83.6144 0.899994 77.4953 3.16401 73.2459 7.26821C68.9933 11.3755 66.7156 17.2275 66.7156 24.2H68.7156C68.7156 17.6725 70.8379 12.3745 74.6353 8.70678C78.436 5.03598 84.0168 2.89999 91.1156 2.89999V0.899994ZM66.7156 24.2V25.4H68.7156V24.2H66.7156ZM67.7156 26.4H85.3156V24.4H67.7156V26.4ZM86.3156 25.4V24.1H84.3156V25.4H86.3156ZM86.3156 24.1C86.3156 22.288 86.8346 20.9265 87.6632 20.0279C88.4833 19.1387 89.7005 18.6 91.3156 18.6V16.6C89.2307 16.6 87.4479 17.3113 86.193 18.6721C84.9467 20.0235 84.3156 21.912 84.3156 24.1H86.3156ZM91.3156 18.6C92.7732 18.6 93.9562 19.1098 94.7751 19.9485C95.595 20.7885 96.1156 22.0266 96.1156 23.6H98.1156C98.1156 21.5733 97.4362 19.8115 96.2062 18.5515C94.975 17.2902 93.2581 16.6 91.3156 16.6V18.6ZM96.1156 23.6C96.1156 26.1265 95.3462 28.6114 91.1041 34.5032C86.8576 40.4011 79.2627 49.5417 65.853 65.3532L67.3783 66.6468C80.7686 50.8583 88.4237 41.6489 92.7272 35.6718C97.035 29.6886 98.1156 26.7735 98.1156 23.6H96.1156ZM65.6156 66V70H67.6156V66H65.6156ZM66.6156 71H116.116V69H66.6156V71ZM117.116 70V54.3H115.116V70H117.116ZM116.116 53.3H97.6156V55.3H116.116V53.3Z" fill="#FFD500"/>
</svg>
