<svg width="118" height="72" viewBox="0 0 118 72" fill="none" xmlns="http://www.w3.org/2000/svg">
<path opacity="0.5" d="M30.9 71.8C40.0292 71.8 47.5923 68.2563 52.8557 61.9402C58.1038 55.6425 61 46.6712 61 35.9H59C59 46.3288 56.1962 54.8075 51.3193 60.6598C46.4577 66.4937 39.4708 69.8 30.9 69.8V71.8ZM61 35.9C61 25.0819 58.1303 16.1094 52.8934 9.82247C47.6402 3.51608 40.0757 0 30.9 0V2C39.5243 2 46.5098 5.28391 51.3567 11.1025C56.2197 16.9406 59 25.4181 59 35.9H61ZM30.9 0C21.7731 0 14.2096 3.51694 8.94493 9.82154C3.69576 16.1076 0.8 25.0798 0.8 35.9H2.8C2.8 25.4202 5.60424 16.9424 10.4801 11.1035C15.3404 5.28306 22.3269 2 30.9 2V0ZM0.8 35.9C0.8 46.6732 3.7223 55.6444 8.98256 61.9411C14.2575 68.2555 21.8195 71.8 30.9 71.8V69.8C22.3805 69.8 15.3925 66.4945 10.5174 60.6589C5.6277 54.8056 2.8 46.3268 2.8 35.9H0.8ZM30.9 54C27.805 54 25.4173 52.5099 23.7469 49.5354C22.0424 46.4998 21.1 41.9227 21.1 35.9H19.1C19.1 42.0773 20.0576 47.0502 22.0031 50.5146C23.9827 54.0401 26.995 56 30.9 56V54ZM21.1 35.9C21.1 29.8258 22.0428 25.2502 23.7461 22.2286C25.4136 19.2705 27.7994 17.8 30.9 17.8V15.8C27.0006 15.8 23.9864 17.7295 22.0039 21.2464C20.0572 24.6998 19.1 29.6742 19.1 35.9H21.1ZM30.9 17.8C33.9975 17.8 36.4114 19.2928 38.1059 22.2697C39.8337 25.3049 40.8 29.8808 40.8 35.9H42.8C42.8 29.7192 41.8163 24.7451 39.8441 21.2803C37.8386 17.7572 34.8025 15.8 30.9 15.8V17.8ZM40.8 35.9C40.8 41.9707 39.8332 46.5451 38.1068 49.5664C36.4151 52.5268 34.0031 54 30.9 54V56C34.7969 56 37.8349 54.0732 39.8432 50.5586C41.8168 47.1049 42.8 42.1293 42.8 35.9H40.8ZM101.316 27L100.466 26.4721L99.744 27.6344L101.071 27.9695L101.316 27ZM114.616 5.6L115.465 6.12786L115.616 5.88543V5.6H114.616ZM114.616 2.5H115.616V1.5H114.616V2.5ZM69.0156 2.5V1.5H68.0156V2.5H69.0156ZM69.0156 17.7H68.0156V18.7H69.0156V17.7ZM91.3156 17.7L92.1706 18.2187L93.092 16.7H91.3156V17.7ZM80.5156 35.5L79.6607 34.9813L79.5156 35.2204V35.5H80.5156ZM80.5156 39.2H79.5156V40.2H80.5156V39.2ZM84.4156 47.5L85.4147 47.4575L85.374 46.5H84.4156V47.5ZM67.3156 47.5V46.5H66.2862L66.316 47.529L67.3156 47.5ZM102.165 27.5279L115.465 6.12786L113.766 5.07214L100.466 26.4721L102.165 27.5279ZM115.616 5.6V2.5H113.616V5.6H115.616ZM114.616 1.5H69.0156V3.5H114.616V1.5ZM68.0156 2.5V17.7H70.0156V2.5H68.0156ZM69.0156 18.7H91.3156V16.7H69.0156V18.7ZM90.4607 17.1813L79.6607 34.9813L81.3706 36.0187L92.1706 18.2187L90.4607 17.1813ZM79.5156 35.5V39.2H81.5156V35.5H79.5156ZM80.5156 40.2H91.1156V38.2H80.5156V40.2ZM91.1156 40.2C93.527 40.2 95.3884 40.8936 96.6371 42.0471C97.8764 43.1919 98.6156 44.8842 98.6156 47.1H100.616C100.616 44.4158 99.7048 42.1581 97.9942 40.5779C96.2929 39.0064 93.9043 38.2 91.1156 38.2V40.2ZM98.6156 47.1C98.6156 49.3298 97.8906 51.1222 96.7273 52.3496C95.5672 53.5735 93.9115 54.3 91.9156 54.3V56.3C94.4198 56.3 96.614 55.3765 98.1789 53.7254C99.7406 52.0778 100.616 49.7702 100.616 47.1H98.6156ZM91.9156 54.3C89.9629 54.3 88.4082 53.6188 87.3141 52.4722C86.2121 51.3171 85.5065 49.6136 85.4147 47.4575L83.4165 47.5425C83.5248 50.0864 84.3692 52.2829 85.8671 53.8528C87.3731 55.4312 89.4683 56.3 91.9156 56.3V54.3ZM84.4156 46.5H67.3156V48.5H84.4156V46.5ZM66.316 47.529C66.523 54.6694 69.1942 60.7044 73.705 64.9529C78.2133 69.1992 84.4939 71.6 91.8156 71.6V69.6C84.9373 69.6 79.1679 67.3508 75.0763 63.497C70.987 59.6456 68.5082 54.1306 68.3152 47.471L66.316 47.529ZM91.8156 71.6C106.892 71.6 117.916 61.5251 117.916 47.4H115.916C115.916 60.2749 105.939 69.6 91.8156 69.6V71.6ZM117.916 47.4C117.916 36.649 111.511 28.5443 101.561 26.0305L101.071 27.9695C110.12 30.2557 115.916 37.551 115.916 47.4H117.916Z" fill="#FFD500"/>
</svg>
