<svg width="122" height="72" viewBox="0 0 122 72" fill="none" xmlns="http://www.w3.org/2000/svg">
<path opacity="0.5" d="M30.9 71.8C40.0292 71.8 47.5923 68.2563 52.8557 61.9402C58.1038 55.6425 61 46.6712 61 35.9H59C59 46.3288 56.1962 54.8075 51.3193 60.6598C46.4577 66.4937 39.4708 69.8 30.9 69.8V71.8ZM61 35.9C61 25.0819 58.1303 16.1094 52.8934 9.82247C47.6402 3.51608 40.0757 0 30.9 0V2C39.5243 2 46.5098 5.28391 51.3567 11.1025C56.2197 16.9406 59 25.4181 59 35.9H61ZM30.9 0C21.7731 0 14.2096 3.51694 8.94493 9.82154C3.69576 16.1076 0.8 25.0798 0.8 35.9H2.8C2.8 25.4202 5.60424 16.9424 10.4801 11.1035C15.3404 5.28306 22.3269 2 30.9 2V0ZM0.8 35.9C0.8 46.6732 3.7223 55.6444 8.98256 61.9411C14.2575 68.2555 21.8195 71.8 30.9 71.8V69.8C22.3805 69.8 15.3925 66.4945 10.5174 60.6589C5.6277 54.8056 2.8 46.3268 2.8 35.9H0.8ZM30.9 54C27.805 54 25.4173 52.5099 23.7469 49.5354C22.0424 46.4998 21.1 41.9227 21.1 35.9H19.1C19.1 42.0773 20.0576 47.0502 22.0031 50.5146C23.9827 54.0401 26.995 56 30.9 56V54ZM21.1 35.9C21.1 29.8258 22.0428 25.2502 23.7461 22.2286C25.4136 19.2705 27.7994 17.8 30.9 17.8V15.8C27.0006 15.8 23.9864 17.7295 22.0039 21.2464C20.0572 24.6998 19.1 29.6742 19.1 35.9H21.1ZM30.9 17.8C33.9975 17.8 36.4114 19.2928 38.1059 22.2697C39.8337 25.3049 40.8 29.8808 40.8 35.9H42.8C42.8 29.7192 41.8163 24.7451 39.8441 21.2803C37.8386 17.7572 34.8025 15.8 30.9 15.8V17.8ZM40.8 35.9C40.8 41.9707 39.8332 46.5451 38.1068 49.5664C36.4151 52.5268 34.0031 54 30.9 54V56C34.7969 56 37.8349 54.0732 39.8432 50.5586C41.8168 47.1049 42.8 42.1293 42.8 35.9H40.8ZM120.116 42.2H121.116V41.2H120.116V42.2ZM114.116 42.2H113.116V43.2H114.116V42.2ZM114.116 27.6H115.116V26.6H114.116V27.6ZM102.116 27.6V26.6H101.348L101.149 27.3419L102.116 27.6ZM98.2156 42.2V43.2H98.9836L99.1817 42.4581L98.2156 42.2ZM87.6156 42.2L86.6914 41.8182L86.1206 43.2H87.6156V42.2ZM104.016 2.5L104.94 2.8818L105.511 1.5H104.016V2.5ZM86.4156 2.5V1.5H85.7481L85.4921 2.11653L86.4156 2.5ZM65.1156 53.8L64.1921 53.4165L64.1156 53.6006V53.8H65.1156ZM65.1156 57.1H64.1156V58.1H65.1156V57.1ZM97.0156 57.1H98.0156V56.1H97.0156V57.1ZM97.0156 69H96.0156V70H97.0156V69ZM114.116 69V70H115.116V69H114.116ZM114.116 57.1V56.1H113.116V57.1H114.116ZM120.116 57.1V58.1H121.116V57.1H120.116ZM120.116 41.2H114.116V43.2H120.116V41.2ZM115.116 42.2V27.6H113.116V42.2H115.116ZM114.116 26.6H102.116V28.6H114.116V26.6ZM101.149 27.3419L97.2495 41.9419L99.1817 42.4581L103.082 27.8581L101.149 27.3419ZM98.2156 41.2H87.6156V43.2H98.2156V41.2ZM88.5399 42.5818L104.94 2.8818L103.091 2.11819L86.6914 41.8182L88.5399 42.5818ZM104.016 1.5H86.4156V3.5H104.016V1.5ZM85.4921 2.11653L64.1921 53.4165L66.0392 54.1835L87.3392 2.88346L85.4921 2.11653ZM64.1156 53.8V57.1H66.1156V53.8H64.1156ZM65.1156 58.1H97.0156V56.1H65.1156V58.1ZM96.0156 57.1V69H98.0156V57.1H96.0156ZM97.0156 70H114.116V68H97.0156V70ZM115.116 69V57.1H113.116V69H115.116ZM114.116 58.1H120.116V56.1H114.116V58.1ZM121.116 57.1V42.2H119.116V57.1H121.116Z" fill="#FFD500"/>
</svg>
