<svg width="119" height="72" viewBox="0 0 119 72" fill="none" xmlns="http://www.w3.org/2000/svg">
<path opacity="0.5" d="M30.9 71.8C40.0292 71.8 47.5923 68.2563 52.8557 61.9402C58.1038 55.6425 61 46.6712 61 35.9H59C59 46.3288 56.1962 54.8075 51.3193 60.6598C46.4577 66.4937 39.4708 69.8 30.9 69.8V71.8ZM61 35.9C61 25.0819 58.1303 16.1094 52.8934 9.82247C47.6402 3.51608 40.0757 0 30.9 0V2C39.5243 2 46.5098 5.28391 51.3567 11.1025C56.2197 16.9406 59 25.4181 59 35.9H61ZM30.9 0C21.7731 0 14.2096 3.51694 8.94493 9.82154C3.69576 16.1076 0.8 25.0798 0.8 35.9H2.8C2.8 25.4202 5.60424 16.9424 10.4801 11.1035C15.3404 5.28306 22.3269 2 30.9 2V0ZM0.8 35.9C0.8 46.6732 3.7223 55.6444 8.98256 61.9411C14.2575 68.2555 21.8195 71.8 30.9 71.8V69.8C22.3805 69.8 15.3925 66.4945 10.5174 60.6589C5.6277 54.8056 2.8 46.3268 2.8 35.9H0.8ZM30.9 54C27.805 54 25.4173 52.5099 23.7469 49.5354C22.0424 46.4998 21.1 41.9227 21.1 35.9H19.1C19.1 42.0773 20.0576 47.0502 22.0031 50.5146C23.9827 54.0401 26.995 56 30.9 56V54ZM21.1 35.9C21.1 29.8258 22.0428 25.2502 23.7461 22.2286C25.4136 19.2705 27.7994 17.8 30.9 17.8V15.8C27.0006 15.8 23.9864 17.7295 22.0039 21.2464C20.0572 24.6998 19.1 29.6742 19.1 35.9H21.1ZM30.9 17.8C33.9975 17.8 36.4114 19.2928 38.1059 22.2697C39.8337 25.3049 40.8 29.8808 40.8 35.9H42.8C42.8 29.7192 41.8163 24.7451 39.8441 21.2803C37.8386 17.7572 34.8025 15.8 30.9 15.8V17.8ZM40.8 35.9C40.8 41.9707 39.8332 46.5451 38.1068 49.5664C36.4151 52.5268 34.0031 54 30.9 54V56C34.7969 56 37.8349 54.0732 39.8432 50.5586C41.8168 47.1049 42.8 42.1293 42.8 35.9H40.8ZM85.7156 25.3L84.7211 25.1953L84.6048 26.3H85.7156V25.3ZM86.5156 17.7V16.7H85.6154L85.5211 17.5953L86.5156 17.7ZM112.216 17.7V18.7H113.216V17.7H112.216ZM112.216 2.5H113.216V1.5H112.216V2.5ZM72.8156 2.5V1.5H71.9166L71.8213 2.39397L72.8156 2.5ZM69.1156 37.2L68.1213 37.094L68.0787 37.4935L68.3243 37.8114L69.1156 37.2ZM70.8156 39.4L70.0243 40.0114L70.3246 40.4H70.8156V39.4ZM84.5156 47.6H85.5156V46.6H84.5156V47.6ZM67.4156 47.6V46.6H66.4156V47.6H67.4156ZM91.9156 24.3H85.7156V26.3H91.9156V24.3ZM86.7101 25.4047L87.5101 17.8047L85.5211 17.5953L84.7211 25.1953L86.7101 25.4047ZM86.5156 18.7H112.216V16.7H86.5156V18.7ZM113.216 17.7V2.5H111.216V17.7H113.216ZM112.216 1.5H72.8156V3.5H112.216V1.5ZM71.8213 2.39397L68.1213 37.094L70.11 37.306L73.81 2.60603L71.8213 2.39397ZM68.3243 37.8114L70.0243 40.0114L71.6069 38.7886L69.9069 36.5886L68.3243 37.8114ZM70.8156 40.4H91.5156V38.4H70.8156V40.4ZM91.5156 40.4C93.6821 40.4 95.4732 41.1413 96.7178 42.3538C97.9606 43.5644 98.7156 45.2995 98.7156 47.4H100.716C100.716 44.8005 99.7707 42.5356 98.1134 40.9212C96.4581 39.3087 94.1492 38.4 91.5156 38.4V40.4ZM98.7156 47.4C98.7156 51.4823 95.9294 54.3 92.1156 54.3V56.3C97.1019 56.3 100.716 52.5177 100.716 47.4H98.7156ZM92.1156 54.3C88.2766 54.3 85.5156 51.5564 85.5156 47.6H83.5156C83.5156 52.6436 87.1547 56.3 92.1156 56.3V54.3ZM84.5156 46.6H67.4156V48.6H84.5156V46.6ZM66.4156 47.6C66.4156 61.6154 77.1286 71.6 92.1156 71.6V69.6C78.1026 69.6 68.4156 60.3846 68.4156 47.6H66.4156ZM92.1156 71.6C107.094 71.6 118.016 61.623 118.016 47.5H116.016C116.016 60.377 106.137 69.6 92.1156 69.6V71.6ZM118.016 47.5C118.016 40.6715 115.324 34.8459 110.678 30.7383C106.042 26.6389 99.5185 24.3 91.9156 24.3V26.3C99.1128 26.3 105.14 28.5111 109.353 32.2367C113.558 35.9541 116.016 41.2285 116.016 47.5H118.016Z" fill="#FFD500"/>
</svg>
