<svg width="1280" height="358" viewBox="0 0 1280 358" fill="none" xmlns="http://www.w3.org/2000/svg">
<path d="M34.5263 356.718H-31.7347L-64.8652 301.187L-31.7347 245.657H34.5263L67.6568 301.187L34.5263 356.718Z" stroke="#FFE079" stroke-width="2" stroke-miterlimit="10"/>
<path d="M924.087 355.644H857.826L824.695 300.114L857.826 244.583H924.087L957.217 300.114L924.087 355.644Z" stroke="#FFE079" stroke-width="2" stroke-miterlimit="10"/>
<path d="M477.696 356.718H411.435L378.305 301.187L411.435 245.657H477.696L510.827 301.187L477.696 356.718Z" stroke="#FFE079" stroke-width="2" stroke-miterlimit="10"/>
<path d="M700.892 356.718H634.631L601.5 301.187L634.631 245.657H700.892L734.022 301.187L700.892 356.718Z" stroke="#FFE079" stroke-width="2" stroke-miterlimit="10"/>
<path d="M1367.26 355.644H1301L1267.87 300.114L1301 244.583H1367.26L1400.39 300.114L1367.26 355.644Z" stroke="#FFE079" stroke-width="2" stroke-miterlimit="10"/>
<path d="M255.038 356.718H188.777L155.646 301.187L188.777 245.657H255.038L288.169 301.187L255.038 356.718Z" stroke="#FFE079" stroke-width="2" stroke-miterlimit="10"/>
<path d="M1144.6 355.644H1078.34L1045.21 300.114L1078.34 244.583H1144.6L1177.73 300.114L1144.6 355.644Z" stroke="#FFE079" stroke-width="2" stroke-miterlimit="10"/>
<path d="M34.5263 234.926H-31.7347L-64.8652 179.395L-31.7347 123.865H34.5263L67.6568 179.395L34.5263 234.926Z" stroke="#FFE079" stroke-width="2" stroke-miterlimit="10"/>
<path d="M924.087 233.853H857.826L824.695 178.323L857.826 122.792H924.087L957.217 178.323L924.087 233.853Z" stroke="#FFE079" stroke-width="2" stroke-miterlimit="10"/>
<path d="M477.696 234.926H411.435L378.305 179.395L411.435 123.865H477.696L510.827 179.395L477.696 234.926Z" stroke="#FFE079" stroke-width="2" stroke-miterlimit="10"/>
<path d="M1367.26 233.853H1301L1267.87 178.323L1301 122.792H1367.26L1400.39 178.323L1367.26 233.853Z" stroke="#FFE079" stroke-width="2" stroke-miterlimit="10"/>
<path d="M699.818 234.926H633.557L600.427 179.395L633.557 123.865H699.818L732.949 179.395L699.818 234.926Z" stroke="#FFE079" stroke-width="2" stroke-miterlimit="10"/>
<path d="M30.7704 113.134H-35.4906L-68.6211 57.6039L-35.4906 2.07343H30.7704L63.9009 57.6039L30.7704 113.134Z" stroke="#FFE079" stroke-width="2" stroke-miterlimit="10"/>
<path d="M920.33 112.061H854.069L820.938 56.5306L854.069 1.00007H920.33L953.46 56.5306L920.33 112.061Z" stroke="#FFE079" stroke-width="2" stroke-miterlimit="10"/>
<path d="M252.356 113.134H186.095L152.965 57.6039L186.095 2.07343H252.356L285.487 57.6039L252.356 113.134Z" stroke="#FFE079" stroke-width="2" stroke-miterlimit="10"/>
<path d="M1141.92 112.061H1075.65L1042.52 56.5306L1075.65 1.00007H1141.92L1175.05 56.5306L1141.92 112.061Z" stroke="#FFE079" stroke-width="2" stroke-miterlimit="10"/>
<path d="M473.94 113.134H407.679L374.549 57.6039L407.679 2.07343H473.94L507.071 57.6039L473.94 113.134Z" stroke="#FFE079" stroke-width="2" stroke-miterlimit="10"/>
<path d="M698.744 113.134H632.483L599.353 57.6039L632.483 2.07343H698.744L731.875 57.6039L698.744 113.134Z" stroke="#FFE079" stroke-width="2" stroke-miterlimit="10"/>
<path d="M1363.5 112.061H1297.24L1264.11 56.5306L1297.24 1.00007H1363.5L1396.63 56.5306L1363.5 112.061Z" stroke="#FFE079" stroke-width="2" stroke-miterlimit="10"/>
<path d="M255.038 234.926H188.777L155.646 179.395L188.777 123.865H255.038L288.169 179.395L255.038 234.926Z" stroke="#FFE079" stroke-width="2" stroke-miterlimit="10"/>
<path d="M1144.6 233.853H1078.34L1045.21 178.323L1078.34 122.792H1144.6L1177.73 178.323L1144.6 233.853Z" stroke="#FFE079" stroke-width="2" stroke-miterlimit="10"/>
<path d="M811.952 296.091H745.691L712.561 240.56L745.691 185.03H811.952L845.083 240.56L811.952 296.091Z" stroke="#FFE079" stroke-width="2" stroke-miterlimit="10"/>
<path d="M365.563 297.163H299.302L266.172 241.633L299.302 186.102H365.563L398.694 241.633L365.563 297.163Z" stroke="#FFE079" stroke-width="2" stroke-miterlimit="10"/>
<path d="M1255.12 296.091H1188.86L1155.73 240.56L1188.86 185.03H1255.12L1288.25 240.56L1255.12 296.091Z" stroke="#FFE079" stroke-width="2" stroke-miterlimit="10"/>
<path d="M142.904 297.163H76.6432L43.5127 241.633L76.6432 186.102H142.904L176.035 241.633L142.904 297.163Z" stroke="#FFE079" stroke-width="2" stroke-miterlimit="10"/>
<path d="M1032.47 296.091H966.205L933.074 240.56L966.205 185.03H1032.47L1065.6 240.56L1032.47 296.091Z" stroke="#FFE079" stroke-width="2" stroke-miterlimit="10"/>
<path d="M586.074 297.163H519.813L486.683 241.633L519.813 186.102H586.074L619.205 241.633L586.074 297.163Z" stroke="#FFE079" stroke-width="2" stroke-miterlimit="10"/>
<path d="M812.489 174.299H746.228L713.098 118.768L746.228 63.2379H812.489L845.62 118.768L812.489 174.299Z" stroke="#FFE079" stroke-width="2" stroke-miterlimit="10"/>
<path d="M366.099 175.372H299.838L266.707 119.841L299.838 64.3109H366.099L399.229 119.841L366.099 175.372Z" stroke="#FFE079" stroke-width="2" stroke-miterlimit="10"/>
<path d="M1255.66 174.299H1189.4L1156.27 118.768L1189.4 63.2379H1255.66L1288.79 118.768L1255.66 174.299Z" stroke="#FFE079" stroke-width="2" stroke-miterlimit="10"/>
<path d="M143.44 175.372H77.1793L44.0488 119.841L77.1793 64.3109H143.44L176.571 119.841L143.44 175.372Z" stroke="#FFE079" stroke-width="2" stroke-miterlimit="10"/>
<path d="M1033 174.299H966.739L933.608 118.768L966.739 63.2379H1033L1066.13 118.768L1033 174.299Z" stroke="#FFE079" stroke-width="2" stroke-miterlimit="10"/>
<path d="M586.61 175.372H520.349L487.219 119.841L520.349 64.3109H586.61L619.741 119.841L586.61 175.372Z" stroke="#FFE079" stroke-width="2" stroke-miterlimit="10"/>
</svg>
