<svg width="198" height="199" viewBox="0 0 198 199" fill="none" xmlns="http://www.w3.org/2000/svg">
<path d="M192.7 111.6C192.7 60.1999 152.7 2.8999 103.4 2.8999C54.1001 2.8999 14.1001 60.1999 14.1001 111.6C14.1001 163 54.1001 179.3 103.4 179.3C152.7 179.3 192.7 163 192.7 111.6Z" fill="#E3E3FC"/>
<path opacity="0.5" d="M0 76.3C0 134.3 39.8 198.8 88.9 198.8C138 198.8 198 134.3 198 76.3C198 18.3 138 0 88.9 0C39.8 0 0 18.3 0 76.3Z" fill="#E7E3FC"/>
<path d="M54.0001 158.7L144.3 158.6C148.3 158.6 151.5 155.3 151.5 151.3L151.4 93.7L46.7001 93.9L46.8001 151.5C46.8001 155.5 50.0001 158.7 54.0001 158.7Z" fill="#FFD54F"/>
<path d="M46.3001 93.8999H46.7001L54.8001 100.7L92.9001 132.7C96.8001 135.2 101.6 135.1 105.5 132.7L144.7 99.3999L151.4 93.6999L144.7 87.9999L105.5 54.8999C101.7 52.3999 96.8001 52.4999 92.9001 54.8999L54.9001 86.7999L46.3001 93.8999Z" fill="#FFA726"/>
<path d="M54.9001 52.4999V100.8L93.0001 132.8C96.9001 135.3 101.7 135.2 105.6 132.8L144.8 99.4999V41.7999C144.8 38.4999 142.1 35.8999 138.9 35.8999H71.5001L54.9001 52.4999Z" fill="#FFF8ED"/>
<path opacity="0.1" d="M65.2001 48.7L54.9001 52.5V65.6999L69.9001 50.7L65.2001 48.7Z" fill="#111111"/>
<path d="M54.9001 52.4999H65.6001C68.9001 52.4999 71.6001 49.7999 71.6001 46.4999V35.8999L54.9001 52.4999Z" fill="#FFE2B7"/>
<path d="M166.4 158.4L106.8 120.4C102.2 117.4 96.3001 117.5 91.6001 120.4L32.1001 158.6L166.4 158.4Z" fill="url(#paint0_linear)"/>
<path d="M131.1 57.7998H66.7001V66.0998H131.1V57.7998Z" fill="#FFE2B7"/>
<path d="M131.1 73.0999H66.7001V75.0999H131.1V73.0999Z" fill="#FFE2B7"/>
<path d="M131.1 77.0999H66.7001V79.0999H131.1V77.0999Z" fill="#FFE2B7"/>
<path d="M131.1 80.9998H66.7001V82.9998H131.1V80.9998Z" fill="#FFE2B7"/>
<path d="M131.1 84.9998H66.7001V86.9998H131.1V84.9998Z" fill="#FFE2B7"/>
<path d="M131.1 88.8999H66.7001V90.8999H131.1V88.8999Z" fill="#FFE2B7"/>
<path d="M115.1 92.8999H66.7001V94.8999H115.1V92.8999Z" fill="#FFE2B7"/>
<path d="M131.1 100.8H66.7001V102.8H131.1V100.8Z" fill="#FFE2B7"/>
<path d="M101.6 104.8H66.7001V106.8H101.6V104.8Z" fill="#FFE2B7"/>
<path d="M119.1 39.8999C119.1 40.3999 118.7 40.7999 118.2 40.7999C117.7 40.7999 117.2 40.3999 117.2 39.8999C117.2 39.3999 117.6 38.8999 118.2 38.8999C118.7 38.8999 119.1 39.2999 119.1 39.8999Z" fill="white"/>
<path d="M102.5 41.9999C102.5 43.1999 101.6 44.0999 100.4 44.0999C99.2001 44.0999 98.3001 43.1999 98.3001 41.9999C98.3001 40.7999 99.2001 39.8999 100.4 39.8999C101.5 39.8999 102.5 40.7999 102.5 41.9999Z" fill="white"/>
<path d="M40.5001 77.4C40.5001 77.9 40.1001 78.3 39.6001 78.3C39.1001 78.3 38.7001 77.9 38.7001 77.4C38.7001 76.9 39.1001 76.5 39.6001 76.5C40.1001 76.5 40.5001 76.9 40.5001 77.4Z" fill="white"/>
<path d="M105.6 23.3999C105.6 24.1999 104.9 24.8999 104.1 24.8999C103.3 24.8999 102.6 24.1999 102.6 23.3999C102.6 22.5999 103.3 21.8999 104.1 21.8999C104.9 21.8999 105.6 22.5999 105.6 23.3999Z" fill="white"/>
<path d="M65.1001 29C65.1001 29.8 64.4001 30.5 63.6001 30.5C62.8001 30.5 62.1001 29.8 62.1001 29C62.1001 28.2 62.8001 27.5 63.6001 27.5C64.4001 27.5 65.1001 28.2 65.1001 29Z" fill="white"/>
<path d="M41.7001 62.9L45.4001 62C45.8001 61.9 45.8001 61.3 45.4001 61.2L41.7001 60.3C41.4001 60.2 41.2001 60 41.1001 59.7L40.2001 56C40.1001 55.6 39.5001 55.6 39.4001 56L38.5001 59.7C38.4001 60 38.2001 60.2 37.9001 60.3L34.2001 61.2C33.8001 61.3 33.8001 61.9 34.2001 62L37.9001 62.9C38.2001 63 38.4001 63.2 38.5001 63.5L39.4001 67.1999C39.5001 67.5999 40.1001 67.5999 40.2001 67.1999L41.1001 63.5C41.2001 63.2 41.4001 63 41.7001 62.9Z" fill="white"/>
<path d="M125.1 21.9L128.8 21C129.2 20.9 129.2 20.3 128.8 20.2L125.1 19.3C124.8 19.2 124.6 19 124.5 18.7L123.6 15C123.5 14.6 122.9 14.6 122.8 15L121.9 18.7C121.8 19 121.6 19.2 121.3 19.3L117.6 20.2C117.2 20.3 117.2 20.9 117.6 21L121.3 21.9C121.6 22 121.8 22.2 121.9 22.5L122.8 26.2C122.9 26.6 123.5 26.6 123.6 26.2L124.5 22.5C124.5 22.2 124.8 22 125.1 21.9Z" fill="white"/>
<path d="M81.3001 20.4999L84.1001 19.7999C84.4001 19.6999 84.4001 19.2999 84.1001 19.1999L81.3001 18.4999C81.1001 18.3999 80.9001 18.2999 80.8001 17.9999L80.1001 15.1999C80.0001 14.8999 79.6001 14.8999 79.5001 15.1999L78.9001 17.9999C78.8001 18.1999 78.7001 18.3999 78.4001 18.4999L75.6001 19.1999C75.3001 19.2999 75.3001 19.6999 75.6001 19.7999L78.4001 20.4999C78.6001 20.5999 78.8001 20.6999 78.9001 20.9999L79.6001 23.7999C79.7001 24.0999 80.1001 24.0999 80.2001 23.7999L80.9001 20.9999C80.9001 20.6999 81.1001 20.4999 81.3001 20.4999Z" fill="white"/>
<path d="M154.5 76.8C154.5 77.6 153.8 78.3 153 78.3C152.2 78.3 151.5 77.6 151.5 76.8C151.5 76 152.2 75.3 153 75.3C153.9 75.4 154.5 76 154.5 76.8Z" fill="white"/>
<path d="M182.6 43.9999L185.4 43.2999C185.7 43.1999 185.7 42.7999 185.4 42.6999L182.6 41.9999C182.4 41.8999 182.2 41.7999 182.1 41.4999L181.4 38.6999C181.3 38.3999 180.9 38.3999 180.8 38.6999L180.1 41.4999C180 41.6999 179.9 41.8999 179.6 41.9999L176.8 42.6999C176.5 42.7999 176.5 43.1999 176.8 43.2999L179.6 43.9999C179.8 44.0999 180 44.1999 180.1 44.4999L180.8 47.2999C180.9 47.5999 181.3 47.5999 181.4 47.2999L182.1 44.4999C182.2 44.1999 182.3 43.9999 182.6 43.9999Z" fill="white"/>
<path d="M158.5 43.2L160.4 42.7C160.6 42.7 160.6 42.4 160.4 42.3L158.5 41.8C158.3 41.8 158.2 41.6 158.2 41.5L157.7 39.6C157.6 39.4 157.4 39.4 157.3 39.6L156.8 41.5C156.8 41.7 156.6 41.8 156.5 41.8L154.6 42.3C154.4 42.4 154.4 42.6 154.6 42.7L156.5 43.2C156.7 43.2 156.8 43.4 156.8 43.5L157.3 45.4C157.4 45.6 157.6 45.6 157.7 45.4L158.2 43.5C158.2 43.3 158.3 43.2 158.5 43.2Z" fill="white"/>
<path d="M34.9001 28.2L36.8001 27.7C37.0001 27.7 37.0001 27.4 36.8001 27.3L34.9001 26.8C34.7001 26.8 34.6001 26.6 34.6001 26.5L34.1001 24.6C34.0001 24.4 33.8001 24.4 33.7001 24.6L33.2001 26.5C33.2001 26.7 33.0001 26.8 32.9001 26.8L31.0001 27.3C30.8001 27.4 30.8001 27.6 31.0001 27.7L32.9001 28.2C33.1001 28.2 33.2001 28.4 33.2001 28.5L33.7001 30.4C33.8001 30.6 34.0001 30.6 34.1001 30.4L34.6001 28.5C34.6001 28.3 34.7001 28.2 34.9001 28.2Z" fill="white"/>
<defs>
<linearGradient id="paint0_linear" x1="99.2901" y1="158.528" x2="99.2901" y2="118.111" gradientUnits="userSpaceOnUse">
<stop stop-color="#FFA726"/>
<stop offset="1" stop-color="#FFC46E"/>
</linearGradient>
</defs>
</svg>
