<svg width="173" height="58" viewBox="0 0 173 58" fill="none" xmlns="http://www.w3.org/2000/svg">
<rect x="63" y="26" width="45" height="6" fill="#582D4E"/>
<path d="M51.9385 0H17.3128L0 28.8547L17.3128 57.7094H51.9385L69.2513 28.8547L51.9385 0Z" fill="#582D4E"/>
<g style="mix-blend-mode:multiply">
<path d="M51.9388 0H34.626V57.7094H51.9388L69.2516 28.8547L51.9388 0Z" fill="#1E0818"/>
</g>
<path d="M26.735 17.725V23.745H30.165V41H37.725V17.725H26.735Z" fill="white"/>
<path d="M120.313 0H154.939L172.251 28.8547L154.939 57.7094H120.313L103 28.8547L120.313 0Z" fill="#0A0107"/>
<path d="M120.313 0H137.625V57.7094H120.313L103 28.8547L120.313 0Z" fill="#582D4E"/>
<path d="M139.606 36.595L143.106 33.41C146.676 30.19 147.306 28.02 147.306 25.605C147.306 20.95 143.211 17.94 137.401 17.94C132.116 17.94 128.581 20.25 126.796 23.61L133.026 26.725C133.761 25.255 135.161 24.45 136.631 24.45C138.206 24.45 139.011 25.185 139.011 26.375C139.011 27.215 138.766 28.16 137.086 29.735L128.231 37.925V43H147.866V36.595H139.606Z" fill="white"/>
</svg>
