<svg xmlns="http://www.w3.org/2000/svg" xmlns:xlink="http://www.w3.org/1999/xlink" viewBox="0 0 2266.62 1397.16"><defs><style>.cls-1{fill:none;}.cls-2{isolation:isolate;}.cls-3{clip-path:url(#clip-path);}.cls-4,.cls-5{fill:#f3ebff;}.cls-10,.cls-11,.cls-12,.cls-13,.cls-14,.cls-15,.cls-19,.cls-22,.cls-26,.cls-30,.cls-31,.cls-34,.cls-42,.cls-43,.cls-5,.cls-9{mix-blend-mode:multiply;}.cls-6{fill:#311352;}.cls-7{fill:url(#Degradado_sin_nombre_30);}.cls-8{fill:#fff;}.cls-9{fill:url(#Degradado_sin_nombre_30-2);}.cls-10{fill:url(#Degradado_sin_nombre_30-3);}.cls-11,.cls-21{fill:#ffa539;}.cls-12{fill:url(#Degradado_sin_nombre_30-4);}.cls-13{fill:url(#Degradado_sin_nombre_30-5);}.cls-14,.cls-23{fill:#ffcb57;}.cls-15{fill:url(#Degradado_sin_nombre_30-6);}.cls-16{fill:url(#Degradado_sin_nombre_9);}.cls-17{fill:url(#Degradado_sin_nombre_9-2);}.cls-18,.cls-19{fill:#ffc83f;}.cls-20{fill:url(#Degradado_sin_nombre_9-3);}.cls-22{fill:url(#Degradado_sin_nombre_30-7);}.cls-24{fill:url(#Degradado_sin_nombre_9-4);}.cls-25{fill:url(#Degradado_sin_nombre_9-5);}.cls-26{fill:url(#Degradado_sin_nombre_30-8);}.cls-27{fill:url(#Degradado_sin_nombre_9-6);}.cls-28{fill:url(#Degradado_sin_nombre_9-7);}.cls-29{fill:url(#Degradado_sin_nombre_9-8);}.cls-30{fill:url(#Degradado_sin_nombre_30-9);}.cls-31{fill:url(#Degradado_sin_nombre_30-10);}.cls-32{fill:url(#Degradado_sin_nombre_9-9);}.cls-33{fill:url(#Degradado_sin_nombre_9-10);}.cls-34{fill:url(#Degradado_sin_nombre_30-11);}.cls-35{fill:url(#Degradado_sin_nombre_9-11);}.cls-36{fill:url(#Degradado_sin_nombre_9-12);}.cls-37{fill:#6b3e6a;}.cls-38{fill:#d1b7ea;}.cls-39{fill:#b588db;}.cls-40{fill:#825482;}.cls-41{fill:url(#Degradado_sin_nombre_9-13);}.cls-42{fill:url(#Degradado_sin_nombre_30-12);}.cls-43{fill:url(#Degradado_sin_nombre_30-13);}</style><clipPath id="clip-path" transform="translate(185.76)"><rect class="cls-1" width="1967.04" height="1126.78"/></clipPath><linearGradient id="Degradado_sin_nombre_30" x1="1136.34" y1="165.08" x2="1136.34" y2="1097.68" gradientUnits="userSpaceOnUse"><stop offset="0.01" stop-color="#dacbff"/><stop offset="1" stop-color="#a978df"/></linearGradient><linearGradient id="Degradado_sin_nombre_30-2" x1="1179.55" y1="585.23" x2="1430.26" y2="585.23" xlink:href="#Degradado_sin_nombre_30"/><linearGradient id="Degradado_sin_nombre_30-3" x1="736.74" y1="554.77" x2="939.25" y2="554.77" xlink:href="#Degradado_sin_nombre_30"/><linearGradient id="Degradado_sin_nombre_30-4" x1="379.18" y1="331.06" x2="586.32" y2="331.06" xlink:href="#Degradado_sin_nombre_30"/><linearGradient id="Degradado_sin_nombre_30-5" x1="393.48" y1="570.81" x2="1878.84" y2="570.81" xlink:href="#Degradado_sin_nombre_30"/><linearGradient id="Degradado_sin_nombre_30-6" x1="1379.02" y1="581.69" x2="2001.96" y2="581.69" xlink:href="#Degradado_sin_nombre_30"/><linearGradient id="Degradado_sin_nombre_9" x1="1499.05" y1="470.93" x2="2076.03" y2="470.93" gradientUnits="userSpaceOnUse"><stop offset="0" stop-color="#ffce00"/><stop offset="1" stop-color="#f5801f"/></linearGradient><linearGradient id="Degradado_sin_nombre_9-2" x1="1358.03" y1="348.33" x2="1581.36" y2="348.33" xlink:href="#Degradado_sin_nombre_9"/><linearGradient id="Degradado_sin_nombre_9-3" x1="405.31" y1="-171.34" x2="545.84" y2="-171.34" gradientTransform="translate(1019.87 439.41) rotate(10.14)" xlink:href="#Degradado_sin_nombre_9"/><linearGradient id="Degradado_sin_nombre_30-7" x1="1298.76" y1="1119.81" x2="1555.32" y2="1119.81" xlink:href="#Degradado_sin_nombre_30"/><linearGradient id="Degradado_sin_nombre_9-4" x1="-15358.58" y1="12231.7" x2="-15120.02" y2="12231.7" gradientTransform="matrix(-0.47, 0.88, 0.88, 0.47, -16488.38, 8573.79)" xlink:href="#Degradado_sin_nombre_9"/><linearGradient id="Degradado_sin_nombre_9-5" x1="-15218.69" y1="12550.65" x2="-15029.05" y2="12550.65" gradientTransform="matrix(-0.47, 0.88, 0.88, 0.47, -16488.38, 8573.79)" xlink:href="#Degradado_sin_nombre_9"/><linearGradient id="Degradado_sin_nombre_30-8" x1="814.98" y1="920.95" x2="1051.26" y2="920.95" xlink:href="#Degradado_sin_nombre_30"/><linearGradient id="Degradado_sin_nombre_9-6" x1="851.37" y1="711.77" x2="937.42" y2="711.77" xlink:href="#Degradado_sin_nombre_9"/><linearGradient id="Degradado_sin_nombre_9-7" x1="857.39" y1="683.66" x2="1059.98" y2="683.66" xlink:href="#Degradado_sin_nombre_9"/><linearGradient id="Degradado_sin_nombre_9-8" x1="912.18" y1="1034.27" x2="1091.68" y2="1034.27" xlink:href="#Degradado_sin_nombre_9"/><linearGradient id="Degradado_sin_nombre_30-9" x1="572.3" y1="958.46" x2="758.26" y2="958.46" xlink:href="#Degradado_sin_nombre_30"/><linearGradient id="Degradado_sin_nombre_30-10" x1="421.32" y1="979.95" x2="680.11" y2="979.95" xlink:href="#Degradado_sin_nombre_30"/><linearGradient id="Degradado_sin_nombre_9-9" x1="452.52" y1="855.77" x2="716.07" y2="855.77" xlink:href="#Degradado_sin_nombre_9"/><linearGradient id="Degradado_sin_nombre_9-10" x1="270.47" y1="1122.76" x2="606.81" y2="1122.76" xlink:href="#Degradado_sin_nombre_9"/><linearGradient id="Degradado_sin_nombre_30-11" x1="-30.6" y1="571.74" x2="525.95" y2="571.74" xlink:href="#Degradado_sin_nombre_30"/><linearGradient id="Degradado_sin_nombre_9-11" x1="-178.82" y1="565.43" x2="317.66" y2="565.43" xlink:href="#Degradado_sin_nombre_9"/><linearGradient id="Degradado_sin_nombre_9-12" x1="223.67" y1="343.89" x2="435.63" y2="343.89" xlink:href="#Degradado_sin_nombre_9"/><linearGradient id="Degradado_sin_nombre_9-13" x1="249.89" y1="377.24" x2="444.3" y2="377.24" xlink:href="#Degradado_sin_nombre_9"/><linearGradient id="Degradado_sin_nombre_30-12" x1="194.32" y1="748.46" x2="410.63" y2="748.46" xlink:href="#Degradado_sin_nombre_30"/><linearGradient id="Degradado_sin_nombre_30-13" x1="275.99" y1="657.21" x2="481.26" y2="657.21" xlink:href="#Degradado_sin_nombre_30"/></defs><g class="cls-2"><g id="Capa_2" data-name="Capa 2"><g id="_4._CAPITULO_4:" data-name="4. CAPITULO 4:"><g class="cls-3"><rect class="cls-4" x="185.76" width="1967.04" height="1126.78"/><rect class="cls-5" x="309.54" y="125.11" width="1571.39" height="952.48"/><rect class="cls-6" x="357.06" y="94.87" width="1571.39" height="952.48"/><rect class="cls-7" x="393.65" y="136.52" width="1485.37" height="868.56"/><path class="cls-8" d="M1559.64,335.43c4.79,44.7,8.64,89.44,12.17,134.2,1.85,22.37,3.36,44.76,5,67.15l4.51,67.17,4,67.19,1.8,33.61.88,16.8.79,16.81c2.14,44.82,4,89.66,4.82,134.54-4.8-44.7-8.66-89.44-12.18-134.2l-1.34-16.78-1.24-16.79-2.46-33.58-4.5-67.17-4-67.2c-1.16-22.4-2.48-44.8-3.46-67.22C1562.33,425.14,1560.52,380.31,1559.64,335.43Z" transform="translate(185.76)"/><path class="cls-8" d="M391.89,851.71c95.46-.22,190.9.36,286.34,1.21,47.72.35,95.43,1,143.14,1.5l143.14,2,143.13,2.37,71.56,1.37,35.78.69,35.78.78c95.41,2,190.82,4.35,286.2,7.46-95.45.23-190.89-.34-286.33-1.2l-35.79-.3-35.78-.4-71.58-.8-143.13-2L821.22,862c-47.71-.94-95.42-1.75-143.12-2.84C582.69,857.13,487.28,854.81,391.89,851.71Z" transform="translate(185.76)"/><path class="cls-8" d="M1133.36,325.8c-1.45,48.58-3.83,97.11-6.54,145.63-1.27,24.26-2.87,48.51-4.32,72.76l-4.84,72.73-5.35,72.71L1109.43,726,1108,744.15l-1.56,18.17c-4.09,48.44-8.51,96.87-13.88,145.25,1.44-48.58,3.81-97.11,6.53-145.63l1-18.19,1.1-18.19,2.22-36.38,4.86-72.73,5.36-72.71c2-24.23,3.75-48.47,5.89-72.68C1123.58,422.61,1128,374.18,1133.36,325.8Z" transform="translate(185.76)"/><path class="cls-8" d="M589.16,216c4.22,50.19,7.51,100.4,10.48,150.62,1.56,25.11,2.79,50.23,4.18,75.35l3.67,75.36,3.15,75.38L612,630.4l.67,18.84.57,18.86c1.58,50.27,2.82,100.55,3.12,150.86-4.23-50.18-7.52-100.4-10.48-150.62l-1.13-18.84-1-18.83-2-37.68-3.65-75.36-3.14-75.38C594,417.12,593,392,592.3,366.85,590.72,316.58,589.48,266.3,589.16,216Z" transform="translate(185.76)"/><path class="cls-8" d="M362.42,229.48c-.13,53.67-1.18,107.32-2.57,161-.6,26.83-1.55,53.64-2.33,80.45l-2.86,80.44-3.36,80.42-1.89,40.2-1,20.11-1.06,20.1c-2.77,53.59-5.87,107.18-9.92,160.75.12-53.68,1.17-107.32,2.56-161l.5-20.12.6-20.11,1.23-40.22,2.87-80.43,3.38-80.43c1.29-26.8,2.43-53.6,3.9-80.4C355.28,336.63,358.38,283,362.42,229.48Z" transform="translate(185.76)"/><path class="cls-8" d="M401,216Q548,211.34,695.1,208.54c49-1.09,98.06-1.9,147.09-2.84l147.1-2.39,147.11-1.95,73.55-.8,36.78-.4,36.78-.3c98.08-.86,196.17-1.43,294.27-1.21-98,3.12-196.08,5.44-294.14,7.47l-36.77.78-36.77.69L1136.55,209l-147.1,2.37-147.1,1.95c-49,.5-98.08,1.14-147.12,1.5C597.15,215.63,499.07,216.21,401,216Z" transform="translate(185.76)"/><path class="cls-8" d="M389.63,273.78c93.56-.37,187.11,0,280.66.74,46.77.27,93.54.83,140.31,1.25l140.3,1.71,140.3,2.14,70.14,1.24,35.07.63,35.07.72c93.53,1.87,187,4,280.54,7-93.56.38-187.11,0-280.66-.73l-35.08-.24-35.07-.33-70.16-.68-140.3-1.72-140.3-2.15c-46.76-.86-93.52-1.58-140.28-2.59C576.64,278.88,483.13,276.73,389.63,273.78Z" transform="translate(185.76)"/><path class="cls-8" d="M367,404.78c97.69-6.55,195.47-11.9,293.29-16.68,48.91-2.47,97.84-4.55,146.77-6.67s97.88-3.85,146.84-5.59,97.92-3.11,146.9-4.35l36.74-.84,36.74-.74c24.49-.47,49-.89,73.49-1.1s49-.45,73.51-.51l36.76.1,36.76.33c12.25.16,24.51.48,36.76.72,6.12.1,12.25.36,18.37.53l18.37.62c24.47,1.17,49,2.35,73.25,5.28l-18.3-1.3c-1.53-.12-3-.19-4.58-.24l-4.59-.18-9.17-.37c-3.06-.11-6.11-.27-9.17-.37l-9.17-.2-18.35-.4c-12.25-.05-24.48-.25-36.72-.26s-24.48,0-36.72.12c-49,.28-97.91,1.27-146.86,2.39q-18.36.4-36.71.93l-36.71.94-36.71,1-36.7,1.13q-73.41,2.21-146.81,4.76l-73.41,2.5L807.42,389l-146.81,5.33Q513.81,399.73,367,404.78Z" transform="translate(185.76)"/><path class="cls-8" d="M380.56,537.7c95-7.28,190.16-13.15,285.36-18.32,47.59-2.65,95.22-4.88,142.84-7.1s95.29-4,143-5.73,95.34-3,143-4.08q35.76-.74,71.55-1.25l35.78-.42,35.79-.17c23.86,0,47.72,0,71.58.28s47.72.78,71.57,1.55,47.7,1.89,71.48,3.63,47.59,4,70.86,8.5c-11.71-1.93-23.56-3.08-35.41-4.06l-8.89-.7-8.91-.56c-3-.21-5.94-.37-8.91-.51l-8.92-.45c-23.79-1.07-47.6-1.64-71.42-1.91s-47.65-.37-71.48-.23-47.65.35-71.47.73c-47.65.8-95.31,1.77-142.94,3.17s-95.29,2.78-142.92,4.49l-71.44,2.53-71.44,2.76-71.44,2.83-71.44,2.93Z" transform="translate(185.76)"/><path class="cls-8" d="M378.29,707.23q143.28-8,286.67-14.2c47.78-2.21,95.58-4.14,143.38-6.2l143.4-5.76,143.43-5.33,71.73-2.49,35.86-1.23,35.87-1.15c95.64-3.11,191.3-5.93,287-8-95.52,5.36-191.09,9.92-286.67,14.2l-35.84,1.62-35.85,1.54-71.69,3.05-143.41,5.75L808.74,694.4c-47.81,1.63-95.62,3.39-143.45,4.87C569.65,702.37,474,705.19,378.29,707.23Z" transform="translate(185.76)"/><path class="cls-8" d="M1347.25,762.45q5.7-.57,11.39-1c3.8-.31,7.59-.54,11.39-.78,7.59-.5,15.19-.84,22.79-1.15q22.79-.9,45.58-1c15.19-.08,30.39.05,45.6.47,7.6.22,15.2.5,22.81.92q5.71.29,11.43.73c1.92.14,3.82.31,5.75.51,1,.1,1.94.21,2.93.34.51.07,1,.13,1.55.23.3.06.5.08.89.18l.54.13a5.49,5.49,0,0,1,1.2.54l0,0a1.74,1.74,0,0,1,.4.36,42.29,42.29,0,0,0,5.08,5,27.18,27.18,0,0,0,6.16,3.95,12.72,12.72,0,0,0,7.22,1.17,11.18,11.18,0,0,0,3.56-1.28,16,16,0,0,0,3.07-2.3,11.81,11.81,0,0,1-6.14,5,15.32,15.32,0,0,1-8.92-.11,32.23,32.23,0,0,1-7.74-3.58,39.09,39.09,0,0,1-3.39-2.34c-1.09-.84-2.09-1.66-3.15-2.65l.44.37-43.84.37q-22.76.12-45.52-.16c-15.18-.2-30.36-.56-45.54-1.16-7.6-.31-15.19-.64-22.78-1.12-3.8-.22-7.6-.44-11.39-.73S1351.05,762.81,1347.25,762.45Z" transform="translate(185.76)"/><path class="cls-8" d="M1163.59,775.29c10.78-2.21,21.62-3.58,32.47-4.74s21.74-1.93,32.63-2.47,21.82-.81,32.75-.75,21.89.39,32.91,1.54c-10.79,2.22-21.63,3.6-32.48,4.76s-21.73,1.93-32.63,2.46-21.81.79-32.75.74S1174.6,776.43,1163.59,775.29Z" transform="translate(185.76)"/><path class="cls-8" d="M1141.67,740a256.86,256.86,0,0,1,28.4-5.17q14.27-1.87,28.64-2.81c9.58-.64,19.19-1,28.83-1,4.83,0,9.65.13,14.5.4,2.42.14,4.84.29,7.26.54s4.86.53,7.25.92c-9.53,1.85-19,3.28-28.5,4.44s-19,2-28.61,2.65-19.15,1-28.77,1.07A279.47,279.47,0,0,1,1141.67,740Z" transform="translate(185.76)"/><path class="cls-8" d="M1140.91,700.16a233.47,233.47,0,0,1,26.78-2.34c8.9-.32,17.8-.32,26.68-.06s17.75.8,26.6,1.66a227,227,0,0,1,26.51,4,226.78,226.78,0,0,1-26.77,2.35q-13.37.48-26.68.06t-26.6-1.67A229.31,229.31,0,0,1,1140.91,700.16Z" transform="translate(185.76)"/><path class="cls-8" d="M1131.84,908.22a90.87,90.87,0,0,1,11.32-2.81,105.71,105.71,0,0,1,11.75-1.56,82.83,82.83,0,0,1,12.1,0l3.06.35c1,.11,2,.35,3.06.52l1.54.29,1.53.42,1.54.43.77.23.62.19a56,56,0,0,0,10.48,2.07,53.16,53.16,0,0,0,10.7,0l1.31-.12c.44,0,.87-.14,1.3-.2.86-.15,1.74-.25,2.59-.42a46.28,46.28,0,0,0,5-1.36c.8-.29,1.64-.49,2.41-.85l2.33-1a18.25,18.25,0,0,0,2.25-1.14l2.2-1.21.32-.17h0c1.38-.66,2.52-1.17,3.79-1.68s2.48-1,3.74-1.41,2.53-.85,3.79-1.27l3.85-1.12a96.74,96.74,0,0,1,16-2.78c2.71-.3,5.46-.3,8.19-.39,2.75.12,5.5.14,8.22.52l2,.22a19.65,19.65,0,0,1,2,.3l4,.78,1,.2,1,.27,2,.55,2,.55,1.72.5a63.49,63.49,0,0,0,14.1,2.38,39.21,39.21,0,0,0,7-.22,28.91,28.91,0,0,0,3.39-.59c.56-.13,1.08-.32,1.62-.47.29-.09.51-.14.85-.26l1-.33a45.83,45.83,0,0,1,7.92-1.71,39.42,39.42,0,0,1,8.13-.27,25.89,25.89,0,0,1,7.82,1.83,17.27,17.27,0,0,1,6.06,4.27,21.49,21.49,0,0,0-13.94-3.6,41.76,41.76,0,0,0-14,3.46l-.76.35-.92.4c-.65.26-1.29.56-2,.79a35.89,35.89,0,0,1-4.06,1.12c-1.37.34-2.76.49-4.15.7s-2.78.25-4.16.27a67.39,67.39,0,0,1-16.35-1.62l-1.09-.27-.87-.2-1.75-.4-1.75-.4-.87-.2-.89-.13-3.54-.52a13.41,13.41,0,0,0-1.79-.19l-1.79-.14c-2.38-.27-4.8-.15-7.2-.22-2.41.14-4.82.17-7.22.49a92.35,92.35,0,0,0-14.21,2.63l-3.47,1c-1.14.38-2.29.72-3.41,1.12s-2.24.79-3.33,1.23-2.22.9-3.09,1.3l.33-.18a53.36,53.36,0,0,1-11.49,4.9,51.83,51.83,0,0,1-6.21,1.44c-1,.18-2.11.28-3.16.41-.53.06-1.06.14-1.59.17l-1.6.07a56.69,56.69,0,0,1-12.58-.73c-2.05-.34-4.08-.78-6.07-1.29a59.76,59.76,0,0,1-5.89-2l-.72-.3-.59-.22-1.2-.43-1.2-.46-1.28-.36c-.87-.22-1.71-.52-2.6-.69l-2.69-.56a94.39,94.39,0,0,0-11.18-1.23A155.22,155.22,0,0,0,1131.84,908.22Z" transform="translate(185.76)"/><path class="cls-8" d="M1155.65,936.47a180.77,180.77,0,0,1,21-8q10.79-3.43,22-5.86a228.43,228.43,0,0,1,45.84-5.47c3.87-.13,7.82.09,11.74.19l1.47.06c.25,0,.49,0,.75.05l.67,0,2.74.18c1.84.1,3.69.16,5.54.24,3.7.14,7.4.15,11.11.14,1.85,0,3.7-.05,5.54-.14l2.77-.1,2.76-.16c1.85-.11,3.67-.29,5.51-.44s3.65-.38,5.44-.68l2.71-.41,2.7-.53,1.39-.27c.56-.11,1-.18,1.5-.26,1-.15,1.94-.29,2.91-.4a87.29,87.29,0,0,1,11.65-.62,46.67,46.67,0,0,1,11.44,1.52,78.32,78.32,0,0,0-22.09,2.95c-.89.23-1.77.47-2.63.72l-1.25.38-1.33.43-2.75.88-2.82.74a106.42,106.42,0,0,1-11.46,2.25,167.74,167.74,0,0,1-23.26,1.61c-2,0-3.89,0-5.85-.08l-2.94-.11-.75,0c-.21,0-.44,0-.67,0h-1.38c-3.66-.06-7.3-.24-11-.09a358.1,358.1,0,0,0-44.46,3.61c-7.42,1-14.82,2.18-22.22,3.46S1163.1,935,1155.65,936.47Z" transform="translate(185.76)"/><path class="cls-8" d="M1349.14,917.53a45,45,0,0,1,11.21-3.23,73.49,73.49,0,0,1,11.24-.95,72.13,72.13,0,0,1,11.25.78,44.79,44.79,0,0,1,11.27,3.08,44.6,44.6,0,0,1-11.21,3.23,70.81,70.81,0,0,1-11.23.94,72.14,72.14,0,0,1-11.25-.79A45.22,45.22,0,0,1,1349.14,917.53Z" transform="translate(185.76)"/><path class="cls-8" d="M1318.91,945.78a156,156,0,0,1,21.67-3.47c7.23-.69,14.46-1.07,21.71-1.18s14.49,0,21.75.53a153.89,153.89,0,0,1,21.79,2.84,153.12,153.12,0,0,1-21.67,3.47c-7.23.7-14.46,1.08-21.71,1.18s-14.49-.06-21.75-.55A155.3,155.3,0,0,1,1318.91,945.78Z" transform="translate(185.76)"/><path class="cls-8" d="M1271.67,610.91a241.32,241.32,0,0,1,29.47-3.65c9.91-.67,19.87-1,29.82-.8,2.49,0,5,.08,7.46.17s5,.16,7.46.29c5,.3,9.95.54,14.9,1l7.43.68,7.41.85c5,.55,9.79,1.31,14.65,2l3.63.56c.95.12,2.29.25,3.47.37l7.31.71c4.87.5,9.75.92,14.63,1.37q14.64,1.32,29.31,2.4t29.36,1.72a284.79,284.79,0,0,0,29.51,0c-2.39.54-4.81,1-7.24,1.53l-7.35,1.08c-4.93.58-9.89,1-14.85,1.35-9.93.61-19.88.78-29.8.64s-19.84-.52-29.73-1.12c-5-.3-9.89-.67-14.83-1.06l-7.4-.67c-1.27-.13-2.38-.22-3.88-.39l-3.64-.55-7.29-1.13c-2.44-.41-4.84-.64-7.25-1l-7.23-1-7.26-.84c-4.83-.63-9.7-1-14.55-1.53-2.43-.24-4.86-.4-7.3-.62s-4.86-.44-7.3-.59c-9.75-.76-19.54-1.22-29.35-1.56S1281.58,610.73,1271.67,610.91Z" transform="translate(185.76)"/><path class="cls-8" d="M1399.41,590.36c11.68-.87,23.29-.9,34.88-.73s23.13.75,34.66,1.54,23,1.88,34.5,3.27,22.91,3.07,34.27,5.55c-11.69.88-23.3.92-34.88.74s-23.14-.75-34.66-1.56-23-1.88-34.5-3.27S1410.77,592.83,1399.41,590.36Z" transform="translate(185.76)"/><path class="cls-8" d="M852.57,250.35a13.08,13.08,0,0,1,4.5-4.77,11.38,11.38,0,0,1,3.47-1.4,11.85,11.85,0,0,1,4-.16,13.77,13.77,0,0,1,3.77,1.07,20.65,20.65,0,0,1,3.25,1.78,33.06,33.06,0,0,1,5.31,4.51l-.53-.46c.25.12.68.33,1,.48s.78.31,1.18.46c.81.28,1.63.54,2.46.74a25.83,25.83,0,0,0,5.06.78,23.4,23.4,0,0,0,9.71-1.51,28.15,28.15,0,0,0,8.19-5.05,43.57,43.57,0,0,0,6.5-7.19,4.83,4.83,0,0,1,6-1.15,4,4,0,0,1,1.46,1.29l.15.23c.12.18.38.55.58.82l.7.9c.47.6,1,1.18,1.51,1.75a32.11,32.11,0,0,0,3.41,3.19,24.59,24.59,0,0,0,8,4.39,20.52,20.52,0,0,0,4.4.86,23.86,23.86,0,0,0,4.54-.12,32,32,0,0,0,9.12-2.89l.14-.07a5,5,0,0,1,1.91-.47c7.34-.3,14.6-.43,21.9-.44,3.65,0,7.29,0,10.94.09l5.47.12,5.47.2c7.28.32,14.57.72,21.83,1.48,3.63.38,7.26.73,10.86,1.29s7.19,1.12,10.74,1.81c-7.3,0-14.53.13-21.77.3s-14.45.49-21.66.79-14.42.66-21.63,1-14.43.74-21.56,1.17l2-.53a39.52,39.52,0,0,1-12.31,4,34.23,34.23,0,0,1-7,.22,31.94,31.94,0,0,1-6.79-1.37,32.36,32.36,0,0,1-11.13-6.27,40.21,40.21,0,0,1-4.2-4.15c-.63-.74-1.23-1.49-1.79-2.26-.28-.39-.56-.78-.83-1.18s-.51-.77-.83-1.32l7.62.37a47.31,47.31,0,0,1-8.22,8.14,35,35,0,0,1-11.14,5.82,30.48,30.48,0,0,1-13.18,1,32.7,32.7,0,0,1-6.25-1.58c-1-.36-1.94-.79-2.88-1.24-.46-.23-.92-.47-1.37-.73s-.87-.5-1.41-.86l-.14-.09a1.54,1.54,0,0,1-.39-.37,30.85,30.85,0,0,0-3.91-4.48,13.17,13.17,0,0,0-5.07-3,9,9,0,0,0-6,.35A14.89,14.89,0,0,0,852.57,250.35Z" transform="translate(185.76)"/><path class="cls-8" d="M1008.64,271.22a27.42,27.42,0,0,1,7.45-5.22,32.48,32.48,0,0,1,9.44-3,29.71,29.71,0,0,1,10.58.27,30.17,30.17,0,0,1,9.73,3.94l.31.22c-.14-.11-.06,0-.05-.06l.1.06.29.13a4.42,4.42,0,0,0,.7.25,8.1,8.1,0,0,0,1.6.29,10.81,10.81,0,0,0,3.66-.37,19.87,19.87,0,0,0,4-1.51c.66-.37,1.35-.72,2-1.11s1.31-.86,2-1.27l.7-.42a1.62,1.62,0,0,1,.35-.17c.58-.21.93-.3,1.36-.43s.81-.22,1.22-.32c.8-.2,1.59-.39,2.39-.53,1.59-.29,3.18-.53,4.76-.68a62.65,62.65,0,0,1,9.48-.17c1.56.14,3.11.23,4.64.48s3.06.49,4.55.81,3,.75,4.42,1.15,2.85,1,4.24,1.53c-1.55.1-3,.12-4.55.19l-2.23.12c-.74,0-1.47.06-2.21.13-2.93.16-5.8.51-8.62.85s-5.58.89-8.25,1.52c-1.34.3-2.65.64-3.92,1-.63.2-1.27.38-1.87.59-.3.11-.61.21-.88.32l-.41.16-.3.13,1.05-.59c-.78.61-1.59,1.19-2.39,1.77s-1.75,1.09-2.63,1.63a27.9,27.9,0,0,1-6.26,2.48,20.92,20.92,0,0,1-7.52.56,17.31,17.31,0,0,1-3.87-.92,15.52,15.52,0,0,1-1.84-.8,10.25,10.25,0,0,1-.9-.51,5.2,5.2,0,0,1-.47-.3,6.39,6.39,0,0,1-.6-.44l.31.23a25,25,0,0,0-3.11-1.95,22.06,22.06,0,0,0-3.4-1.5,23.33,23.33,0,0,0-3.72-1,27.34,27.34,0,0,0-4-.45,39.75,39.75,0,0,0-8.54.61A59.63,59.63,0,0,0,1008.64,271.22Z" transform="translate(185.76)"/><path class="cls-8" d="M629.22,302.68a267,267,0,0,1,29.27-.4q14.64.54,29.21,2.32c2.43.28,4.85.63,7.27,1s4.83.72,7.24,1.13l7.1,1.19q3.5.58,7,1.05c4.68.61,9.37,1.13,14.08,1.46l3.53.23,3.63.22,7.25.43q29,1.82,58,4.51c19.29,1.83,38.56,3.91,57.75,6.8-19.48.45-38.9.09-58.3-.51s-38.76-1.57-58.1-2.8l-7.25-.48-3.63-.24c-1.24-.08-2.48-.17-3.71-.28-5-.46-9.87-1-14.75-1.86-2.43-.41-4.86-.85-7.27-1.33-1.21-.24-2.41-.5-3.61-.76l-3.48-.74q-3.48-.76-7-1.44c-2.33-.47-4.67-.94-7-1.36C667.61,307.32,648.55,304.66,629.22,302.68Z" transform="translate(185.76)"/><path class="cls-8" d="M665.5,346.35a37.08,37.08,0,0,1,7.55-4.93l2.08-1c.71-.34,1.44-.6,2.16-.91s1.45-.6,2.19-.86l2.25-.77a79.42,79.42,0,0,1,19-3.54,93.65,93.65,0,0,1,9.77-.05l2.44.12,1.23.06,1.2.13,4.84.58c1.63.16,3.2.5,4.78.8l4.75.94c3.11.76,6.18,1.65,9.25,2.51l-.84-.19c6.81.93,13.75,1.86,20.63,2.75l10.35,1.32,10.36,1.3c6.91.82,13.82,1.68,20.76,2.41s13.9,1.36,21,1.92a154.08,154.08,0,0,1-21.16,2.2c-7.11.3-14.21.22-21.3,0s-14.15-.77-21.19-1.44c-3.51-.34-7-.7-10.53-1.14s-7-.88-10.53-1.43a3.84,3.84,0,0,1-.69-.15l-.15,0-8.49-2.49-4.31-1c-1.44-.34-2.87-.74-4.33-.94s-2.92-.5-4.38-.77l-1.09-.2-1.11-.13-2.21-.25-2.21-.26-1.11-.14-1.11-.06-4.46-.26a99.61,99.61,0,0,0-17.9,1.06A69.88,69.88,0,0,0,665.5,346.35Z" transform="translate(185.76)"/><path class="cls-8" d="M457.65,454.22a54.61,54.61,0,0,1,16.67-8.47,83.09,83.09,0,0,1,19.21-3.86c1.65-.17,3.31-.17,5-.25l2.5-.07c.82,0,1.65.05,2.48.07,1.66.05,3.32.13,5,.21l4.93.56,2.46.31c.82.12,1.62.29,2.43.44,1.62.3,3.23.63,4.83,1,3.2.72,6.3,1.7,9.42,2.59h0a4.12,4.12,0,0,1,.78.32,10.67,10.67,0,0,0,1.08.48c.43.16.86.33,1.32.48a21.58,21.58,0,0,0,2.74.7,16.07,16.07,0,0,0,5.44.08,13.14,13.14,0,0,0,5.05-1.85l.62-.34c.19-.13.37-.29.56-.43l1.14-.87c.72-.63,1.39-1.35,2.11-2l.26-.3a13.06,13.06,0,0,1,1.31-1c.42-.29.86-.55,1.3-.8a26.64,26.64,0,0,1,2.74-1.33,21.84,21.84,0,0,1,6-1.49,21.14,21.14,0,0,1,3.08-.09,19.27,19.27,0,0,1,3,.43,18.83,18.83,0,0,1,5.27,2c-.95-.11-1.85-.31-2.77-.36a20.5,20.5,0,0,0-2.71,0,20.08,20.08,0,0,0-2.6.27,21.31,21.31,0,0,0-2.44.65,18.3,18.3,0,0,0-6.14,3.5c-.29.25-.56.5-.82.76a5.47,5.47,0,0,0-.65.7l.25-.3c-.69,1-1.31,2-2.11,2.94L555,450.25c-.23.23-.44.47-.68.68l-.79.63a19.71,19.71,0,0,1-7.59,3.83,24.25,24.25,0,0,1-8.88.61,31.55,31.55,0,0,1-4.25-.8c-.69-.17-1.37-.38-2.05-.62a22.49,22.49,0,0,1-2.16-.88l.8.32-4.36-1.08-2.17-.58a19.71,19.71,0,0,0-2.18-.5c-1.47-.28-2.94-.57-4.4-.87-.74-.15-1.46-.32-2.2-.44l-2.23-.3-4.45-.66c-1.49-.12-3-.23-4.48-.38-.75-.07-1.5-.16-2.25-.21l-2.25-.06c-1.51,0-3-.18-4.52-.15a122.07,122.07,0,0,0-18.17,1.26A106.45,106.45,0,0,0,457.65,454.22Z" transform="translate(185.76)"/><path class="cls-8" d="M484.1,473.49a166.52,166.52,0,0,1,22.37-4.74q11.25-1.68,22.59-2.47t22.76-.75a168.44,168.44,0,0,1,23,1.54,166.42,166.42,0,0,1-22.36,4.75q-11.25,1.68-22.59,2.46c-7.56.53-15.15.79-22.76.74A171.93,171.93,0,0,1,484.1,473.49Z" transform="translate(185.76)"/><path class="cls-8" d="M1045,756a58.76,58.76,0,0,1,3.46,14.25,87.21,87.21,0,0,1,.39,14.82,128.51,128.51,0,0,1-5.53,29.55A175.33,175.33,0,0,1,1031.79,843c-2.37,4.61-4.92,9.16-7.71,13.6a122.69,122.69,0,0,1-9.26,13c3.3-9.61,6.77-19,10.08-28.38s6.5-18.73,9.36-28.11,5.38-18.79,7.28-28.27c.93-4.74,1.76-9.5,2.34-14.29S1044.79,760.9,1045,756Z" transform="translate(185.76)"/><path class="cls-8" d="M1010.75,791.29c2.46-4,5.1-7.84,7.74-11.65l7.92-11.31c2.61-3.73,5.17-7.48,7.46-11.19a62,62,0,0,0,3-5.49l.55-1.31c.13-.4.32-.84.42-1.21a6,6,0,0,0,.28-1.68v-.68c0-2.18,2.11-4.07,4.64-4.2a4.67,4.67,0,0,1,3.44,1.16q3.91,3.72,7.7,7.56c2.5,2.57,5,5.17,7.37,7.83s4.72,5.38,7,8.15,4.42,5.63,6.4,8.63c-3.35-1.87-6.49-3.92-9.57-6s-6.07-4.26-9-6.5-5.78-4.5-8.6-6.81-5.55-4.7-8.26-7.1l8.09-3.72a10.48,10.48,0,0,1,0,2.56,13.57,13.57,0,0,1-.43,2.18c-.18.69-.42,1.29-.64,1.94l-.79,1.78a47.87,47.87,0,0,1-3.76,6.39,101.83,101.83,0,0,1-9.08,11.28,142.53,142.53,0,0,1-10.36,10.2A115.29,115.29,0,0,1,1010.75,791.29Z" transform="translate(185.76)"/><path class="cls-8" d="M1211.59,565.09a207.18,207.18,0,0,0,24.92-.15,224.75,224.75,0,0,0,24.7-2.87,172.47,172.47,0,0,0,24-6,116.89,116.89,0,0,0,22.47-10,83.62,83.62,0,0,0,19.09-15A70,70,0,0,0,1340,510.94a77.68,77.68,0,0,0,3.85-11.44,90.07,90.07,0,0,0,2.1-11.92,120.37,120.37,0,0,0-.24-24.3c0-.08,0-.15,0-.22V463c0-1.75-.14-3.69-.28-5.54s-.35-3.76-.57-5.63q-.69-5.62-1.77-11.21a174.33,174.33,0,0,0-5.76-21.94,163.12,163.12,0,0,0-8.65-20.91,150.93,150.93,0,0,0-11.45-19.45,142.44,142.44,0,0,0-31.12-32.35,150.37,150.37,0,0,0-18.95-12.17,167.5,167.5,0,0,0-20.5-9.44,209.86,209.86,0,0,0-43.87-11.18,294.89,294.89,0,0,0-45.46-2.95c-3.81,0-7.62.16-11.43.23l-5.67.28-2.83.15-.71,0-.35,0h-.22l-1.31.17a112.48,112.48,0,0,0-21.52,5.66c-13.94,5.18-27,13-37.13,23.67-1.31,1.3-2.47,2.72-3.68,4.11-.62.68-1.14,1.43-1.71,2.15s-1.14,1.45-1.68,2.19a81,81,0,0,0-5.81,9.35l-1.28,2.44c-.41.82-.76,1.67-1.15,2.51s-.77,1.67-1.11,2.53l-1,2.58c-.32.88-.66,1.69-1,2.63l-1,2.75-2,5.49c-1.34,3.66-2.74,7.3-4.23,10.92-.74,1.8-1.5,3.61-2.29,5.4l-1.2,2.68c-.41.89-.84,1.8-1.17,2.6a59.76,59.76,0,0,0-3.4,10.3c-.33,1.79-.7,3.57-1,5.38l-.28,2.73c-.07.91-.24,1.82-.23,2.74,0,1.84-.12,3.67-.1,5.51l.31,5.53a98.33,98.33,0,0,0,1.71,11c.64,3.67,1.86,7.24,2.84,10.85.58,1.78,1.27,3.54,1.9,5.31s1.22,3.55,2,5.26c5.86,13.92,13.78,27,22.64,39.4l6.81,9.2c1.11,1.37,2.4,2.84,3.66,4.22s2.58,2.78,3.91,4.13A198.09,198.09,0,0,0,1122.3,551a169.51,169.51,0,0,0,20.06,11,161.85,161.85,0,0,0,21.39,8.11,141.67,141.67,0,0,0,22.42,4.74,135.31,135.31,0,0,0,22.95,1l5.76-.32c1.91-.18,3.82-.43,5.73-.64l2.87-.34,2.84-.5,5.69-1-5.64,1.25-2.83.63-2.86.45c-1.91.3-3.81.63-5.72.89l-5.78.57a129.46,129.46,0,0,1-23.21-.13,143,143,0,0,1-22.93-4,163.43,163.43,0,0,1-22-7.63,185,185,0,0,1-40.1-23.76,202.56,202.56,0,0,1-17.67-15.33q-2.1-2-4.13-4.17c-1.37-1.43-2.66-2.83-4-4.42l-7.16-9.23c-9.27-12.51-17.63-25.81-24-40.22-.87-1.77-1.51-3.64-2.23-5.48s-1.44-3.67-2.08-5.54c-1.11-3.8-2.44-7.54-3.2-11.46a105.57,105.57,0,0,1-2-11.79l-.39-6c0-2,0-4,0-6,0-1,.15-2,.22-3l.28-3c.27-2,.66-4,1-6a65.38,65.38,0,0,1,3.73-11.66c.4-1,.78-1.82,1.17-2.69l1.13-2.6c.75-1.74,1.47-3.5,2.17-5.26,1.41-3.53,2.74-7.1,4-10.69l1.88-5.41.91-2.72c.29-.89.67-1.87,1-2.81l1-2.83c.38-.93.8-1.85,1.2-2.77s.79-1.85,1.22-2.76l1.38-2.69a89.15,89.15,0,0,1,6.28-10.33,90.46,90.46,0,0,1,7.71-9.31,95.16,95.16,0,0,1,8.84-8.21,107.54,107.54,0,0,1,9.78-7,116.74,116.74,0,0,1,21.45-10.57A121,121,0,0,1,1133.6,303l1.55-.21.3,0h.2l.37,0,.73,0,2.94-.16,5.88-.31c3.89-.09,7.79-.28,11.69-.28a296.25,296.25,0,0,1,46.72,3.16,217.37,217.37,0,0,1,45.52,11.77,172.24,172.24,0,0,1,21.44,10,157.68,157.68,0,0,1,19.8,13,150.06,150.06,0,0,1,32.39,34.34,158.37,158.37,0,0,1,11.79,20.48,168.48,168.48,0,0,1,8.66,21.93,179.59,179.59,0,0,1,5.6,22.85q1,5.79,1.65,11.65c.2,2,.37,3.92.49,5.89s.21,3.9.21,6v-.31a119.57,119.57,0,0,1-.26,25.51,96.37,96.37,0,0,1-2.51,12.59,82.85,82.85,0,0,1-4.38,12.1A74.38,74.38,0,0,1,1329.82,534a86,86,0,0,1-20.39,15.19,120,120,0,0,1-23.36,9.59,167.07,167.07,0,0,1-24.56,5.27,213.06,213.06,0,0,1-25,2A210,210,0,0,1,1211.59,565.09Z" transform="translate(185.76)"/><path class="cls-9" d="M1387.81,632.32c.55,6.95,1.12,11.73,1.69,13.3,0,0-151.19-1.11-179.33-15.45,0,0,7.81-79.66,9.33-128.51-8.45,47.71-26.47,141.45-40,155.55L1341,668.79s18.87-.74,28.27-12.36a5,5,0,0,1,4.27-1.9l32.07,2.54a15.3,15.3,0,0,0,11.92-4.33c3.64-3.55,8.64-8.37,12.78-12.09C1419.2,638.46,1404.22,635.52,1387.81,632.32Z" transform="translate(185.76)"/><path class="cls-10" d="M799.64,614.72s40.83-73.79,40.79-154.12c-8.57,30-30,98.84-51.83,119.35,0,0-49.66,49.11-51.86,69,0,0,135.86-13.47,202.17-12.82.18-3.87.3-7.72.34-11.49C887.63,624.54,817,622.88,799.64,614.72Z" transform="translate(185.76)"/><path class="cls-8" d="M650.92,442a105.91,105.91,0,0,1,8.39,16.73A147.29,147.29,0,0,1,665,476.61c1.58,6.07,2.61,12.25,3.59,18.44s1.43,12.43,1.88,18.67.47,12.48.43,18.72-.31,12.48-.86,18.69A229.48,229.48,0,0,1,664.36,588c.63-12.42,1-24.76,1.2-37.09,0-6.16.08-12.32-.11-18.46s-.28-12.29-.72-18.41a314.81,314.81,0,0,0-4.1-36.52c-1.13-6-2.35-12-4-18S653.11,447.8,650.92,442Z" transform="translate(185.76)"/><path class="cls-8" d="M628.41,494.1c1.52-5.31,3.17-10.55,4.74-15.8l2.35-7.86q1.2-3.92,2.27-7.86c1.5-5.22,2.82-10.48,3.88-15.71a61.11,61.11,0,0,0,1.12-7.77c.16-2.5.09-5.12-.57-6.63l-3.56-8.14,7.51,4.45c3.82,2.27,7.64,4.56,11.4,6.93s7.55,4.73,11.28,7.16,7.43,4.92,11.11,7.44,7.31,5.12,10.87,7.85c-4.13-1.76-8.16-3.68-12.17-5.63s-8-3.94-11.94-6-7.88-4.14-11.77-6.31-7.78-4.32-11.63-6.54l4-3.69a14.72,14.72,0,0,1,1.25,5c.08.8.06,1.54.08,2.32l-.12,2.23a66.07,66.07,0,0,1-1.37,8.48c-.58,2.76-1.34,5.46-2.17,8.12s-1.67,5.31-2.63,7.91q-2.87,7.8-6.32,15.33C633.64,484.37,631.21,489.33,628.41,494.1Z" transform="translate(185.76)"/><path class="cls-11" d="M1296.25,451.94s-19.86,149.53-27.59,157.26l17.59,3.4c-1.93-12.06-4-33.47,2.55-46.85,0,0,24.83-56.7,28.56-59.6,0,0,74.05,24.68,150.55-4.17l4.91-23.56S1337.64,467.94,1296.25,451.94Z" transform="translate(185.76)"/><path class="cls-12" d="M451.46,416.07s-34.21-9.38-45.25-7.72c0,0,34-127.14,7.86-182-1.84,37.22-10.18,173.24-34.89,200.8,0,0,145.58,27.08,207.14-14.26C550,421.45,494.17,430.08,451.46,416.07Z" transform="translate(185.76)"/><polygon class="cls-13" points="1878.84 1004.74 1878.84 136.52 393.48 136.52 393.48 1005.1 488.88 1005.1 488.88 764.3 1061.28 163.42 1825.92 163.42 1199.52 1004.74 1878.84 1004.74"/><path class="cls-14" d="M1467.33,829.37c-4.33,63.21-13.27,136.29-13.27,136.29,14.43-3.8,74.6-3.42,110.72-2.81C1545.57,909.87,1491.1,852.64,1467.33,829.37Z" transform="translate(185.76)"/><path class="cls-15" d="M1448.55,255.5s-60.15,23.73-69.53,25.38c0,0,31.45,120.85,28.69,192,0,0-27,177.67,49.66,209.13,0,0,90.5,50.21,134.64-.56,0,0,359.19,235.23,410,235.78l-2.16-208.44s-361.44-63.2-387.37-92.45c0,0-16.56-171-85-189.81l43-113.67-40.83-66.77Z" transform="translate(185.76)"/><path class="cls-16" d="M1574.42,372.11l19.9,6.92,20.09,6.84q20.11,6.76,40.3,13.29Q1695,412.21,1735.49,424c13.47,3.88,26.92,7.66,40.34,11.21s26.78,6.89,40,9.91,26.34,5.65,38.83,7.59l4.67.72c1.56.25,3,.37,4.51.57l4.47.55c1.47.17,2.8.22,4.2.35s2.8.24,4.11.32l3.62.07,1.8.05c.55,0,.93-.08,1.4-.1.9-.07,1.78-.12,2.67-.15l1.26,0c193.41-18.41,192.44,26.93,193.41,57.19s-7.56,77.76-189.91,52.4c-1.91-.27-3.9,0-5.78-.12-2.69-.2-5.36-.42-8-.66-1.31-.13-2.72-.23-3.95-.39l-3.52-.53-7-1.09c-2.22-.41-4.32-.86-6.48-1.3s-4.33-.86-6.36-1.35l-6-1.47c-2-.51-4.07-1-6-1.51l-5.79-1.61c-15.36-4.31-29.8-9.11-44-14.11-28.27-10.08-55.47-21-82.36-32.33s-53.36-23.1-79.66-35.16q-19.73-9-39.31-18.3L1567,445.39l-19.64-9.54a34.67,34.67,0,0,1,26.52-63.93Z" transform="translate(185.76)"/><path class="cls-17" d="M1431.06,439.44a64.42,64.42,0,0,1-15.18-5.71,65.32,65.32,0,0,1-12.43-8.72c-1-.79-1.77-1.65-2.64-2.47s-1.73-1.67-2.5-2.54l-2.37-2.6-2.17-2.66c-1.49-1.76-2.71-3.61-4-5.41s-2.42-3.68-3.57-5.52a149.09,149.09,0,0,1-11-22.63,13.3,13.3,0,0,1,23.89-11.52l.12.21a120.5,120.5,0,0,0,11.51,16.75,59.54,59.54,0,0,0,13.33,12.07,31.19,31.19,0,0,0,4.85,2.51,92.64,92.64,0,0,1-2.69-16.59,46.86,46.86,0,0,1-4.23-2.79,44.47,44.47,0,0,1-4-3.48c-.61-.6-1.22-1.21-1.81-1.83l-1.6-1.85a56.85,56.85,0,0,1-8.81-15l-.75-1.82c-.24-.61-.42-1.2-.63-1.79-.39-1.19-.83-2.39-1.17-3.56-.64-2.33-1.32-4.68-1.75-6.93a139.57,139.57,0,0,1-2.88-26.11c-.2-8.38.13-16.54.69-24.6a15.15,15.15,0,0,1,30.21-.29l0,.29c.64,7.27,1.49,14.44,2.75,21.31a103.39,103.39,0,0,0,5.2,19.09.14.14,0,0,1,0,.07c.29-.43.59-.85.88-1.27a38.36,38.36,0,0,1,5.52-6.17l-1.28-2.59a157.37,157.37,0,0,1-9.35-24.57c-1-4.19-2.24-8.33-3-12.53-.39-2.1-.85-4.18-1.17-6.28l-.86-6.29-.41-3.14-.25-3.14-.48-6.27c-.1-1-.1-2.09-.12-3.13l-.06-3.12-.1-6.22A13.75,13.75,0,0,1,1454.1,248l.17,1,1,5.25.47,2.62c.15.87.29,1.75.52,2.6l1.24,5.13.62,2.55.76,2.51,1.51,5c.53,1.64,1.19,3.24,1.76,4.86,1.1,3.27,2.61,6.34,3.92,9.47a119.09,119.09,0,0,0,10,17.22l1.41,2c.47.65,1,1.26,1.47,1.89s1,1.26,1.48,1.85l1.52,1.76c.5.6,1,1.13,1.53,1.67s1,1.1,1.54,1.57,1,1,1.48,1.38l.35.31a3.27,3.27,0,0,0,.32.25l.27.2.06,0,0,0,0,0-.12-.15a21.7,21.7,0,0,1,3.15,3.74c10.93,4.05,25.28,8.65,37.32,12.36a69,69,0,0,1,42.53,37.28c3,6.58,5,11.57,5,11.57,34.56,107.28-90,69.84-90,69.84S1442.41,442.26,1431.06,439.44Z" transform="translate(185.76)"/><path class="cls-18" d="M1597.57,145s-26.49,129.67-19.31,165l-148.43,17.11s-11-148.44-34.77-181C1395.06,146.07,1465.14,107.44,1597.57,145Z" transform="translate(185.76)"/><path class="cls-6" d="M1446.1,233a34.12,34.12,0,0,1,6.33-2.89,65,65,0,0,1,6.7-2,92.83,92.83,0,0,1,13.77-2.07c1.16-.07,2.31-.17,3.47-.22l3.53-.1h.44a2.16,2.16,0,0,1,.26,0h1c.53,0,1.08,0,1.62,0,1.09,0,2.17-.1,3.24-.22a23.8,23.8,0,0,0,6-1.33,8,8,0,0,0,2.29-1.31,3.45,3.45,0,0,0,1.13-1.79l.39-1.49,1.21-.12a39.5,39.5,0,0,1,5.84-.1,36.47,36.47,0,0,1,5.69.74,29.57,29.57,0,0,1,5.46,1.71,21.68,21.68,0,0,1,4.85,2.89,30.94,30.94,0,0,0-5.28-1.51,37.32,37.32,0,0,0-5.35-.62,53.21,53.21,0,0,0-5.36.08,39.22,39.22,0,0,0-5.21.66l1.61-1.6a7.46,7.46,0,0,1-2.08,4.14,11.93,11.93,0,0,1-3.47,2.34A24.82,24.82,0,0,1,1487,230c-1.2.14-2.4.24-3.6.27-.6,0-1.2,0-1.81,0l-.91,0h-4.16l-3.38,0c-4.5.09-9,.28-13.51.67A96.29,96.29,0,0,0,1446.1,233Z" transform="translate(185.76)"/><path class="cls-6" d="M1439.9,189.94a297.44,297.44,0,0,1,30.77-6.82q15.52-2.72,31.25-4.17a301.94,301.94,0,0,1,31.55-1.31,160.61,160.61,0,0,1,31.41,3.19c-10.52-.35-20.93-.08-31.34.4-2.61.16-5.21.31-7.81.42l-7.8.58c-2.6.16-5.2.38-7.8.6s-5.2.41-7.79.7l-7.8.69c-2.59.27-5.19.57-7.79.81l-15.59,1.63C1460.77,187.79,1450.36,188.92,1439.9,189.94Z" transform="translate(185.76)"/><path class="cls-6" d="M1430,169.24a281.41,281.41,0,0,1,33.32-7.62q16.85-2.91,34-4.17a275.94,275.94,0,0,1,34.27-.33,156.53,156.53,0,0,1,33.78,5.5,306.07,306.07,0,0,0-33.89-1.91c-2.82,0-5.64.09-8.46.09s-5.64.21-8.46.3c-1.41.07-2.82.1-4.23.14l-4.23.25c-2.82.19-5.64.3-8.45.54l-8.46.63-8.44.78c-2.82.21-5.63.53-8.45.82l-8.44.9C1452.52,166.43,1441.27,167.81,1430,169.24Z" transform="translate(185.76)"/><path class="cls-6" d="M1554.94,202.35a16.52,16.52,0,0,1,6.8-.25,12.2,12.2,0,0,1,3.47,1.15,8.2,8.2,0,0,1,3.09,2.69,7.7,7.7,0,0,1,1.28,4.14,11.51,11.51,0,0,1-.65,3.92,21.36,21.36,0,0,1-3.54,6.18l-.17.21-.09.09c-.85.75-1.78,1.6-2.63,2.44s-1.71,1.72-2.53,2.61a24.67,24.67,0,0,0-2.22,2.81,5.79,5.79,0,0,0-1.15,3.39,5.18,5.18,0,0,1-.5-4,15.38,15.38,0,0,1,1.39-3.85,28.2,28.2,0,0,1,2.1-3.42,30.59,30.59,0,0,1,2.55-3.1l-.26.29a27.57,27.57,0,0,0,2.73-5.14c.59-1.71.8-3.23.2-4.47a8.27,8.27,0,0,0-3.89-3.38A38.53,38.53,0,0,0,1554.94,202.35Z" transform="translate(185.76)"/><path class="cls-6" d="M1454.79,213.94a29.88,29.88,0,0,0-9,2.11,17.59,17.59,0,0,0-7.32,5.22c-.47.57-.83,1.22-1.24,1.83s-.65,1.34-.88,2a7.92,7.92,0,0,0-.24,4.15,7.62,7.62,0,0,0,1.86,3.62,7.17,7.17,0,0,0,1.58,1.3,17,17,0,0,0,1.91,1.07,33,33,0,0,0,8.62,2.56,76.53,76.53,0,0,0,9.12.9c3.07.11,6.16.09,9.24,0,1.54-.06,3.08-.17,4.63-.26s3.09-.28,4.71-.37a257.08,257.08,0,0,0,36.87-4.59,89.46,89.46,0,0,0,17.47-5.29,28.55,28.55,0,0,0,7.38-4.45,11.85,11.85,0,0,0,2.47-3,7.37,7.37,0,0,0,.85-3.42l0,.26c0,.07,0-.07,0-.14a2.13,2.13,0,0,0-.09-.27,4.48,4.48,0,0,0-.24-.58,7.81,7.81,0,0,0-.68-1.18,9.39,9.39,0,0,0-.9-1.12l-.49-.54-.56-.5-.56-.5-.63-.44a11.44,11.44,0,0,0-1.28-.86l-1.36-.78-1.46-.67a43.34,43.34,0,0,0-12.79-3.1c-2.22-.32-4.49-.33-6.74-.48s-4.54,0-6.82,0q-6.86.18-13.69.88a129.67,129.67,0,0,0-26.87,5.3,64.88,64.88,0,0,0-12.5,5.53,34.48,34.48,0,0,0-10.24,9.05,33.43,33.43,0,0,1,9.64-10,61.4,61.4,0,0,1,12.43-6.46,95.44,95.44,0,0,1,13.39-4.13c4.54-1.07,9.13-1.94,13.76-2.56s9.26-1.08,13.92-1.36c2.34-.13,4.65-.25,7-.23s4.71.07,7.08.36a47.33,47.33,0,0,1,14.09,3.16,22.76,22.76,0,0,1,6.51,3.91l.73.65.69.73a15.13,15.13,0,0,1,1.27,1.58,12.39,12.39,0,0,1,1,1.81,9.44,9.44,0,0,1,.42,1c.06.18.13.34.18.55s.1.36.16.71v.26a11.82,11.82,0,0,1-1.34,5.61,16,16,0,0,1-3.41,4.25,32.81,32.81,0,0,1-8.56,5.29,93.15,93.15,0,0,1-18.42,5.48c-6.22,1.26-12.48,2.17-18.76,2.8s-12.55,1.08-18.87,1.29c-1.5,0-3.11.15-4.65.22s-3.17.1-4.75.11c-3.17,0-6.34,0-9.52-.27a68.13,68.13,0,0,1-9.49-1.33,35.11,35.11,0,0,1-9.19-3.2,20.24,20.24,0,0,1-2.12-1.32,8.82,8.82,0,0,1-1.94-1.78,9.76,9.76,0,0,1-2.12-4.75,9.9,9.9,0,0,1,.59-5.09c.32-.78.75-1.48,1.13-2.22a22.08,22.08,0,0,1,1.5-2,18.72,18.72,0,0,1,8.15-5A29.59,29.59,0,0,1,1454.79,213.94Z" transform="translate(185.76)"/><path class="cls-19" d="M1578,272.46c-38.38,6.67-85.54-1.82-85.54-1.82-39.54-7.71-46.52-58.56-47.74-77.64a21.92,21.92,0,0,1,5.44-15.93c11.25-12.75,36.62-34,54.06-48.09-71.76-3.51-109.15,17.09-109.15,17.09,23.73,32.56,34.77,181,34.77,181L1578.26,310C1576.58,301.67,1576.74,288.22,1578,272.46Z" transform="translate(185.76)"/><path class="cls-20" d="M1580.18,404.23l-8.17-85.5-.9-9.42a16.73,16.73,0,0,0-16.66-15.06h0l-.17,0-.35-.07-.72-.17-1.56-.38c-1.07-.29-2.13-.56-3.22-.88s-2.16-.62-3.24-1-2.16-.67-3.23-1c-4.28-1.43-8.52-3-12.48-4.77-1-.41-2-.9-2.93-1.34l-1.46-.69c-.48-.23-.92-.47-1.38-.71-.9-.49-1.87-1-2.74-1.45l-2.56-1.5a55,55,0,0,1-8.22-6.11l-2-1.85a19.83,19.83,0,0,0-30,25.57,87.29,87.29,0,0,0,13.83,15.82l3.65,3.19c1.23,1,2.46,2,3.7,2.95.62.48,1.24,1,1.86,1.45l1.87,1.34c1.25.88,2.51,1.84,3.76,2.65,4.1,2.81,8.25,5.32,12.45,7.71l-8.43,70.42a37,37,0,0,0-.09,7.45,34.82,34.82,0,0,0,69.33-6.63Z" transform="translate(185.76)"/><path class="cls-18" d="M1382.33,482.84s3.31,152.29,7.17,162.78c0,0-151.19-1.11-179.33-15.45,0,0,13.8-140.71,8.28-162.78C1218.45,467.39,1365.23,484.49,1382.33,482.84Z" transform="translate(185.76)"/><path class="cls-19" d="M1382.85,504.38c-.34-13.07-.52-21.54-.52-21.54-17.1,1.65-163.88-15.45-163.88-15.45,5.52,22.07-8.28,162.78-8.28,162.78,12.37,6.3,48.52,10.05,85.14,12.27-7.79-96.55-54.51-135.87-54.51-135.87C1265.78,494.93,1353.3,501.69,1382.85,504.38Z" transform="translate(185.76)"/><path class="cls-21" d="M1296.25,451.94s-19.86,149.53-27.59,157.26c0,0,131.33,25.38,169.95,33.11l34.21-163.89S1337.64,467.94,1296.25,451.94Z" transform="translate(185.76)"/><path class="cls-6" d="M1302.6,564c8.79.54,17.51,1.57,26.19,2.78,4.35.57,8.67,1.31,13,2s8.64,1.51,13,2.3,8.6,1.71,12.9,2.61,8.57,1.88,12.81,3,8.5,2.25,12.72,3.52l3.14,1c1,.33,2.1.68,3.13,1.09l3.09,1.18c1,.5,2,1,3,1.47l-3.19-.8-3.23-.62c-2.12-.45-4.31-.76-6.45-1.15l-12.93-2.2-12.92-2.25-12.91-2.38L1341,573c-4.28-.91-8.58-1.75-12.85-2.73C1319.6,568.37,1311.07,566.37,1302.6,564Z" transform="translate(185.76)"/><path class="cls-6" d="M1387.85,566.16c2.54,2.32,5.17,4.52,7.82,6.65s5.37,4.15,8.19,6a73.55,73.55,0,0,0,8.67,5,43.38,43.38,0,0,0,9.16,3.15l16.06,3.57-16.44.81c-4.94.25-9.92.65-14.88,1s-9.92.74-14.87,1.2-9.89,1-14.81,1.61c-1.22.19-2.45.37-3.68.53l-3.66.67c-1.22.24-2.42.55-3.64.83s-2.36.75-3.58,1.1c1.08-.62,2.16-1.32,3.3-1.86s2.32-1,3.51-1.49l3.59-1.24c1.21-.37,2.43-.7,3.66-1a147.62,147.62,0,0,1,14.83-3c5-.73,10-1.36,15-1.77s10-.71,15.07-.89l-.37,4.39a42.36,42.36,0,0,1-10.07-3.94,65.15,65.15,0,0,1-8.73-5.95,82.88,82.88,0,0,1-7.6-7.14A68.87,68.87,0,0,1,1387.85,566.16Z" transform="translate(185.76)"/><path class="cls-6" d="M1312.25,543a143.25,143.25,0,0,1,24.84-1.94,73.63,73.63,0,0,1,12.64,1.07,24.69,24.69,0,0,1,3.24.8,13.91,13.91,0,0,1,3.34,1.5l.42.27.25.17a4.85,4.85,0,0,0,.49.29,4.71,4.71,0,0,0,1,.4,3.69,3.69,0,0,0,1,.15l1.51,0c4.16.13,8.31.33,12.45.67s8.29.8,12.4,1.53A93.62,93.62,0,0,1,1398,550.7a46.19,46.19,0,0,1,5.89,2.27,17.54,17.54,0,0,1,5.19,3.53,21.11,21.11,0,0,0-5.63-2.34,55.05,55.05,0,0,0-6-1.26c-4-.67-8.08-1.07-12.15-1.42s-8.15-.6-12.24-.75-8.19-.36-12.28-.42l-1.59,0a8.39,8.39,0,0,1-2.07-.36,10.37,10.37,0,0,1-2.69-1.31l-.39-.28-.23-.14a9.9,9.9,0,0,0-2.28-1c-.87-.29-1.79-.54-2.74-.77a95.16,95.16,0,0,0-11.93-1.74C1328.77,543.87,1320.53,543.51,1312.25,543Z" transform="translate(185.76)"/><path class="cls-6" d="M1315.56,519.53a37.34,37.34,0,0,1,9-4.2,32.78,32.78,0,0,1,10-1.58,29,29,0,0,1,5.15.51,24.23,24.23,0,0,1,5,1.59,25.69,25.69,0,0,1,4.58,2.62c.69.54,1.42,1,2.06,1.65l1.8,1.64a18.15,18.15,0,0,0,7.72,4.07c2.77.61,5.9.66,8.2-.43a8.11,8.11,0,0,0,3-2.36,12.85,12.85,0,0,0,1.91-3.62,29.48,29.48,0,0,0,1.21-9l0-6.1,3.9,4.68c1.79,2.15,3.69,4.36,5.68,6.41s4.06,4,6.2,5.92a41.77,41.77,0,0,0,6.82,4.92c2.37,1.36,5,2.39,7.49,2.05l-.4.16a15,15,0,0,1,4.33-1.53,11.9,11.9,0,0,1,4.53,0,9.67,9.67,0,0,1,4,1.81,12.54,12.54,0,0,1,2.9,3.19c-.53-.48-1-1-1.55-1.44a10.85,10.85,0,0,0-1.74-1.14,8.55,8.55,0,0,0-3.84-1.11,11,11,0,0,0-3.91.49,13.36,13.36,0,0,0-3.5,1.69l-.15.1-.25.06a11.14,11.14,0,0,1-4.91,0,20.75,20.75,0,0,1-4.46-1.52,44,44,0,0,1-7.74-4.83,73.6,73.6,0,0,1-6.79-5.88c-2.15-2.1-4.22-4.19-6.19-6.53l3.93-1.42a33.82,33.82,0,0,1-1.32,10.45,16,16,0,0,1-2.65,5,12.71,12.71,0,0,1-4.71,3.62c-7.5,3-15.32,0-20.42-4.83-.33-.3-.64-.62-1-.94l-.82-.81c-.51-.57-1.11-1-1.67-1.55a23.93,23.93,0,0,0-3.79-2.51,24.44,24.44,0,0,0-8.83-2.57,34.18,34.18,0,0,0-9.5.47A44.75,44.75,0,0,0,1315.56,519.53Z" transform="translate(185.76)"/><path class="cls-6" d="M1333.5,488.36a35.63,35.63,0,0,1,21.17-6.47l2.87.11c1,.07,1.89.27,2.84.4l1.42.22c.47.1.93.23,1.4.35l2.78.73c.91.29,1.8.67,2.69,1a22.06,22.06,0,0,1,2.64,1.13l2.54,1.35,1.26.69,1.19.8,4.47,3.1a38.24,38.24,0,0,0,4.5,2.47,51.72,51.72,0,0,0,9.87,3.44,55.91,55.91,0,0,0,10.53,1.5,87.75,87.75,0,0,0,10.87-.08,48.18,48.18,0,0,1-10.83,2.34,54.83,54.83,0,0,1-5.6.24,50.7,50.7,0,0,1-5.63-.48,45.6,45.6,0,0,1-11-3,37.46,37.46,0,0,1-5.17-2.62c-1.78-1.18-3.09-2.11-4.55-3.08l-1.06-.74-1.14-.63-2.28-1.25a18.41,18.41,0,0,0-2.34-1.09c-.8-.34-1.59-.7-2.39-1a43.31,43.31,0,0,0-10.09-2.35A45.91,45.91,0,0,0,1333.5,488.36Z" transform="translate(185.76)"/><path class="cls-6" d="M1231.69,586.3a16.86,16.86,0,0,1,5.44-1.75,24.73,24.73,0,0,1,5.5-.22,21.28,21.28,0,0,1,5.47,1.11,13.86,13.86,0,0,1,2.64,1.26,6.53,6.53,0,0,1,2.2,2.08c-1,0-1.89,0-2.79.09s-1.77.12-2.63.14a45.61,45.61,0,0,1-5.23-.1,36.84,36.84,0,0,1-5.26-.76A21.9,21.9,0,0,1,1231.69,586.3Z" transform="translate(185.76)"/><path class="cls-6" d="M1238.59,549.88a32.51,32.51,0,0,1,8.7-.78,46.12,46.12,0,0,1,8.58,1.1,37.11,37.11,0,0,1,8.26,2.86,19.48,19.48,0,0,1,7,5.37c-2.87-.79-5.53-1.36-8.23-2l-8.06-1.77c-2.69-.63-5.39-1.28-8.1-2A65.6,65.6,0,0,1,1238.59,549.88Z" transform="translate(185.76)"/><path class="cls-22" d="M1480.27,846.19c-41.38-19-75.59,40.84-75.59,40.84-23.45,1.38-57.66,37.52-57.66,37.52-16.28,19.86-6.9,47.45-6.9,47.45,4.41,10.49,8.28,26.76,8.28,26.76-17.66,35.32-11,94.91-11,94.91-5.1,1.52-7.45,16.56-7.45,16.56-2.21-7.59-12.14-7.32-12.14-7.32-26.9,7.87-17.38,72.43-17.38,72.43,33.94,138.22,86.08,143.19,86.08,143.19,19.86,1.65,80.28,78.63,80.28,78.63s89.39-5,88.57-7.45-50.49-118.36-50.49-118.36c-9.11-7.45,9.93-73.67,9.93-73.67l20.69,4.14L1550,1043a220,220,0,0,0-32-135.69Z" transform="translate(185.76)"/><path class="cls-23" d="M1645,759.84s-61.8,159.47-52.42,203.61c0,0-117.53-3.31-138.5,2.21,0,0,19.32-157.82,14.9-210.24,0,0,85,13.8,121.4,7.18C1590.36,762.6,1625.67,757.08,1645,759.84Z" transform="translate(185.76)"/><path class="cls-6" d="M1485.79,781.36c.09,7.41.07,14.83.55,22.17.11,1.83.27,3.65.53,5.4l.12.64.06.33,0,.16c0,.09,0,0,0-.06a.65.65,0,0,0-1-.31c-.27.29,0-.06.09-.24l.35-.6.7-1.19c1.85-3.2,3.74-6.37,5.53-9.58q1.36-2.42,2.64-4.83l1.24-2.42c.21-.4.39-.8.58-1.2l.07-.15.1-.19a2.73,2.73,0,0,1,1.25-1.15,2.7,2.7,0,0,1,2.61.24,2.66,2.66,0,0,1,.9,1.07,1.66,1.66,0,0,1,.12.31l.07.2,0,.16.18.64.39,1.27c.28.84.58,1.67.9,2.48a26.12,26.12,0,0,0,2.32,4.57,11.07,11.07,0,0,0,3.12,3.31,4.54,4.54,0,0,0,3.65.63,7.13,7.13,0,0,0,2-.78l.61-.33a7.35,7.35,0,0,1,1-.43,6.6,6.6,0,0,1,2.16-.3,7.59,7.59,0,0,1,1.08.14l.53.14.42.14c.36.13.74.24,1.13.34a15.48,15.48,0,0,0,2.39.4,26.45,26.45,0,0,0,10.06-1.19c.83-.27,1.67-.53,2.49-.85l.62-.23c.24-.09.52-.2.78-.28a11.92,11.92,0,0,1,1.64-.41,11.44,11.44,0,0,1,6.7.76,65.35,65.35,0,0,0,20.64,5.86,39.1,39.1,0,0,0,10.59-.4,27.67,27.67,0,0,0,9.88-3.71,15.71,15.71,0,0,1,1.4-.74,5.92,5.92,0,0,1,1.65-.39,5.43,5.43,0,0,1,3.23.79,7.17,7.17,0,0,1,1.21,1c.31.32.64.62,1,.91a18.59,18.59,0,0,0,2.13,1.61,13.3,13.3,0,0,0,4.93,2,11.87,11.87,0,0,0,5.42-.34,12.17,12.17,0,0,1-5.49,1,14.21,14.21,0,0,1-5.5-1.58,18.12,18.12,0,0,1-2.45-1.51,26,26,0,0,0-2.12-1.58,3.37,3.37,0,0,0-2.11-.33,3.6,3.6,0,0,0-1,.34,10.76,10.76,0,0,0-1,.65,30.06,30.06,0,0,1-10.5,4.78,40,40,0,0,1-11.48,1,64.82,64.82,0,0,1-22.1-5.44,7.56,7.56,0,0,0-4.19-.4,7.74,7.74,0,0,0-1,.28c-.18.05-.33.12-.52.19l-.68.26c-.9.36-1.83.67-2.76,1a30.42,30.42,0,0,1-11.84,1.47,19.41,19.41,0,0,1-3.07-.55c-.51-.13-1-.29-1.53-.47l-.24-.09-.14,0-.3,0a1.92,1.92,0,0,0-.58.07l-.26.11-.62.33a11.94,11.94,0,0,1-3.18,1.18,9.16,9.16,0,0,1-3.62.08,9.35,9.35,0,0,1-3.35-1.36,14.51,14.51,0,0,1-4.41-4.73,29.78,29.78,0,0,1-2.55-5.4c-.34-.91-.64-1.83-.91-2.76l-.39-1.4-.18-.7,0-.18v0l0,.07.06.15a1.4,1.4,0,0,0,.46.54,1.32,1.32,0,0,0,1.29.11,1.37,1.37,0,0,0,.54-.44.91.91,0,0,0,.08-.13l0-.07s0,0,0,0l-.08.17c-.22.42-.44.86-.67,1.28-.45.84-.91,1.66-1.38,2.47-1,1.62-1.93,3.21-2.92,4.79-2,3.15-4,6.28-6.07,9.35l-.79,1.16-.39.57-.2.29a2.65,2.65,0,0,1-.51.6,2.13,2.13,0,0,1-3.32-.93,1.51,1.51,0,0,1-.1-.4l0-.18,0-.37-.09-.73c-.15-1.92-.2-3.8-.17-5.67A213.62,213.62,0,0,1,1485.79,781.36Z" transform="translate(185.76)"/><path class="cls-6" d="M1487.17,843.16a164.35,164.35,0,0,1,23.88-3.15,206.44,206.44,0,0,1,24.12-.26c2,.06,4,.26,6,.4s4,.31,6,.59l6,.81c2,.33,4,.7,6,1.09a88.41,88.41,0,0,1,22.9,7.69,199.38,199.38,0,0,0-23.47-4.15q-3-.27-5.89-.63l-5.92-.47c-2-.19-4-.29-5.92-.4s-4-.29-5.93-.34c-7.92-.42-15.86-.59-23.81-.76Z" transform="translate(185.76)"/><path class="cls-6" d="M1491,854.47a32.17,32.17,0,0,1,4.72-1.25c.8-.16,1.61-.28,2.42-.4s1.63-.17,2.46-.21a25.1,25.1,0,0,1,5,.13,14.9,14.9,0,0,1,5.23,1.6l.21.15s0,0,.08,0l.17.09a4.09,4.09,0,0,0,.42.2c.3.13.6.27.93.38.64.25,1.33.48,2,.68,1.39.4,2.83.75,4.3,1,2.92.59,5.92,1,9,1.4l9.18,1.06c1.54.13,3.09.34,4.64.52s3.12.37,4.69.65a66,66,0,0,1-9.34,1.58,73.25,73.25,0,0,1-9.49.35,60.92,60.92,0,0,1-9.55-1.05c-.79-.18-1.58-.33-2.38-.56l-1.19-.31-1.18-.39a22.28,22.28,0,0,1-2.36-.94,13.27,13.27,0,0,1-1.19-.6c-.19-.09-.4-.23-.61-.35l-.32-.22a3.92,3.92,0,0,1-.4-.29l.21.15a12.88,12.88,0,0,0-3.73-1.6,36.11,36.11,0,0,0-4.45-.92c-1.53-.22-3.09-.4-4.67-.54Z" transform="translate(185.76)"/><path class="cls-6" d="M1607.46,849.5a7.72,7.72,0,0,1-1.46,4.34,15.18,15.18,0,0,1-3.24,3.31,36.35,36.35,0,0,1-8.06,4.55,97.1,97.1,0,0,1-17.75,5.44,195.67,195.67,0,0,1-36.94,4.2,191.25,191.25,0,0,1-37.28-2.58,94.28,94.28,0,0,1-18.25-5.1,38.54,38.54,0,0,1-8.59-4.77,17.12,17.12,0,0,1-3.73-3.77,9.21,9.21,0,0,1,0-11.23,17,17,0,0,1,3.73-3.78,38.49,38.49,0,0,1,8.59-4.76,92.91,92.91,0,0,1,18.25-5.11,189.71,189.71,0,0,1,37.28-2.58,195.06,195.06,0,0,1,37,4.21,97.21,97.21,0,0,1,17.74,5.43,36.39,36.39,0,0,1,8.06,4.56,15,15,0,0,1,3.24,3.31A7.71,7.71,0,0,1,1607.46,849.5Zm0,0a7.68,7.68,0,0,0-1.5-4.3,14.83,14.83,0,0,0-3.25-3.27,36.63,36.63,0,0,0-8.08-4.47,91.49,91.49,0,0,0-17.8-5A187.82,187.82,0,0,0,1540,830a193.65,193.65,0,0,0-36.5,4.16,94.74,94.74,0,0,0-17.3,5.29,34.41,34.41,0,0,0-7.55,4.26c-2.22,1.67-3.84,3.86-3.81,5.82s1.59,4.16,3.81,5.83a33.78,33.78,0,0,0,7.55,4.26,94,94,0,0,0,17.3,5.3,192.74,192.74,0,0,0,36.5,4.16,187.83,187.83,0,0,0,36.82-2.54,90.82,90.82,0,0,0,17.8-5,36.6,36.6,0,0,0,8.08-4.46,15,15,0,0,0,3.25-3.27A7.72,7.72,0,0,0,1607.46,849.5Z" transform="translate(185.76)"/><path class="cls-24" d="M1417.69,1010.4l-7.85-19.82a25.59,25.59,0,0,1,2-22.82l-.94-1.87a25.66,25.66,0,0,1,6.88-31.49l-7-12.73a25.64,25.64,0,0,1,8.35-33.69,25.17,25.17,0,0,1-4.1-25.06c3.49-9.73,4.93-24.51,1.56-29a25.64,25.64,0,1,1,41.21-30.53c13.8,18.62,13.13,42.32,10.25,58.66a317.76,317.76,0,0,1,28.33,30.09c.58.28,1.13.54,1.64.76s18.1,4.69,33,8.45l-.19-.41a2.72,2.72,0,0,0-.15-.28l-.42-.58-.34-.49c-.43-.63-.88-1.31-1.16-1.79l-.94-1.61-.77-1.49c-.54-1-1-2-1.36-2.94l-.61-1.46-.53-1.44c-.32-.95-.68-1.92-1-2.87a62.69,62.69,0,0,1-2.32-22.35,67.5,67.5,0,0,1,4.6-19.82,70.55,70.55,0,0,1,3.94-8.62l.52-1,.59-1,1.19-1.94c.8-1.28,1.59-2.56,2.41-3.82a17.48,17.48,0,0,1,31.75,13.19l-.58,2.63c-.21,1-.45,1.94-.68,2.89l-.36,1.42-.18.7-.11.69a51.87,51.87,0,0,0-.76,5.38l-.11,1.28a7.79,7.79,0,0,0-.07,1.26c0,.82,0,1.62,0,2.41s.15,1.52.19,2.27a12.73,12.73,0,0,0,.34,2.11,18.35,18.35,0,0,0,2.53,6.64c.12.21.28.37.41.56l.19.27.21.2a1.38,1.38,0,0,0,.35.32l.14.12.07-.06c.05,0,0-.15-.11-.28l-.06-.11-.14-.21.39.47,1.62,2c1.08,1.32,2.14,2.67,3.19,4,7.92,10.52,23.41,34,26.2,46.88a93.28,93.28,0,0,1,1.86,19.63c-.06,1.65-.06,3.28-.21,4.94s-.28,3.29-.53,5c-.11.83-.23,1.67-.36,2.5l-.49,2.57c-.14.83-.39,1.8-.6,2.68l-.38,1.47-.56,2a18.48,18.48,0,0,1-3.17,6.27,73.5,73.5,0,0,1-1.1,11.93c-15.91,69.38-61.51,57.05-61.51,57.05l-1.89,0c-31.07-.68-90.61-12.81-90.61-12.81a11.25,11.25,0,0,1-2-1.34A25.63,25.63,0,0,1,1417.69,1010.4Z" transform="translate(185.76)"/><path class="cls-25" d="M1527.29,1031.22l4.13,6.21,4,5.87q4,5.84,8.06,11.56,8.13,11.45,16.49,22.65,16.72,22.42,34.4,44.09t36.31,42.66c6.19,7,12.54,13.9,18.88,20.8l9.65,10.24,2.42,2.56,2.45,2.53,4.91,5.06,4.92,5,5,5c3.34,3.31,6.65,6.67,10,10l10.2,9.82,2.55,2.46,2.6,2.42,5.19,4.83,5.2,4.84c1.73,1.62,3.52,3.17,5.28,4.76l10.61,9.5,10.82,9.32c1.81,1.54,3.59,3.12,5.44,4.64l5.52,4.55,5.53,4.56c1.85,1.52,3.68,3,5.58,4.52l11.31,8.9,2.83,2.22,2.89,2.17,5.78,4.33c3.86,2.87,7.68,5.81,11.65,8.58l11.85,8.4c1,.71,2,1.39,3,2.06l3,2,6.06,4.07,6.07,4.06c2,1.33,4.13,2.61,6.19,3.92l12.44,7.81a53.39,53.39,0,0,0,56.8-90.41c-1.51-.94-3-1.81-4.61-2.58l-1.11-.55-11.21-5.56c-1.87-.94-3.75-1.83-5.61-2.8l-5.55-3-5.57-3-2.78-1.48c-.93-.48-1.86-1-2.77-1.52l-11-6.26c-3.7-2-7.3-4.29-10.95-6.47l-5.46-3.29-2.74-1.64-2.7-1.72-10.81-6.87c-1.82-1.13-3.59-2.33-5.37-3.52l-5.35-3.57-5.36-3.57c-1.79-1.19-3.53-2.46-5.3-3.68l-10.59-7.4-10.48-7.63c-1.74-1.28-3.51-2.52-5.23-3.84l-5.17-3.93-5.19-3.93-2.59-2-2.56-2L1747,1160c-3.41-2.7-6.76-5.49-10.15-8.23l-5.06-4.14-5-4.21-5-4.22-2.5-2.11-2.48-2.15-9.92-8.6c-6.54-5.82-13.1-11.64-19.54-17.61q-19.38-17.83-38.07-36.54T1612.71,1034q-8.94-9.74-17.59-19.66-4.32-5-8.55-9.94l-4.17-5-3.91-4.75-.76-.91a31.45,31.45,0,0,0-50.44,37.43Z" transform="translate(185.76)"/><path class="cls-18" d="M839.37,438.7s126.36,3.31,176-9.94c0,0-2.76,152.85-19.31,195.34,0,0-168.3,3.86-196.44-9.38C799.64,614.72,848.2,527,839.37,438.7Z" transform="translate(185.76)"/><path class="cls-6" d="M854.82,568.09a2.45,2.45,0,0,0,1.37,2.1,8.3,8.3,0,0,0,2.47.89,25.68,25.68,0,0,0,5.34.44c.89,0,1.8-.06,2.7-.1s1.81-.1,2.71-.19c1.8-.12,3.61-.43,5.41-.61l-.22,0a104.22,104.22,0,0,1,13.8-2.54,112.93,112.93,0,0,1,14-.83l3.51.05,3.52.23c1.17.06,2.34.19,3.51.33s2.35.24,3.51.45,2.32.42,3.48.63,2.3.55,3.45.81a67.29,67.29,0,0,1,6.79,2.08l.15,0,.1.06a37,37,0,0,0,6,2.55,32.69,32.69,0,0,0,6.37,1.54,23.49,23.49,0,0,0,6.54,0,18.3,18.3,0,0,0,6.22-2.42,16.24,16.24,0,0,1-5.88,3.7,23.24,23.24,0,0,1-7,1.08,34.19,34.19,0,0,1-7.06-.88,39.11,39.11,0,0,1-6.81-2.26l.26.1a90.18,90.18,0,0,0-13.16-2.64,118.38,118.38,0,0,0-13.47-.88c-4.51-.07-9,.14-13.56.43-2.26.17-4.52.39-6.78.64s-4.53.54-6.71.91l-.2,0h0c-1.87.06-3.73.11-5.61,0a42.79,42.79,0,0,1-5.63-.42,22,22,0,0,1-5.53-1.34,8.57,8.57,0,0,1-1.3-.62,6.56,6.56,0,0,1-1.19-.84c-.18-.17-.34-.36-.5-.54a4.58,4.58,0,0,1-.38-.63A2.07,2.07,0,0,1,854.82,568.09Z" transform="translate(185.76)"/><path class="cls-6" d="M863.1,531.4a4.43,4.43,0,0,1,1.17-3.09,12.91,12.91,0,0,1,2.59-2.2,28.28,28.28,0,0,1,6.12-2.83,68.05,68.05,0,0,1,13-2.67l3.29-.37c1.1-.13,2.2-.14,3.3-.22,2.19-.13,4.4-.27,6.64-.27a97.26,97.26,0,0,1,13.31,1l6.44,1.09,6.4,1c4.27.68,8.55,1.17,12.83,1.67s8.58.82,12.87.86a52.93,52.93,0,0,0,6.42-.25l1.6-.18c.54-.07,1-.22,1.58-.32a18.74,18.74,0,0,0,3.11-.93,19.62,19.62,0,0,1-6,2.69,46.84,46.84,0,0,1-6.54,1.24,91.4,91.4,0,0,1-13.23.47c-4.4-.08-8.78-.5-13.15-.93s-8.75-1.19-13-1.84a102,102,0,0,0-12.7-1.21c-2.12-.11-4.26-.07-6.42-.05s-4.29.07-6.44.13a90.14,90.14,0,0,0-12.75,1.28,29.66,29.66,0,0,0-6.08,1.77,12.13,12.13,0,0,0-2.7,1.57A4.25,4.25,0,0,0,863.1,531.4Z" transform="translate(185.76)"/><path class="cls-6" d="M848.47,501.6a3.74,3.74,0,0,1-.3-4,7.51,7.51,0,0,1,3.34-2.65,29.63,29.63,0,0,1,8.08-1.86,81.53,81.53,0,0,1,16.38.18l16,1.86c5.32.61,10.63,1.24,16,1.77s10.64,1.13,16,1.61,10.64.92,16,1.33,10.66.66,16,.72a90.2,90.2,0,0,0,16-.89,65.16,65.16,0,0,1-15.9,3.15c-5.4.47-10.81.65-16.21.61s-10.8-.28-16.18-.58-10.75-.85-16.11-1.38-10.7-1.27-16-2-10.64-1.61-15.94-2.63l-2-.37c-.59-.09-1.28-.15-1.92-.23l-3.92-.43-4-.32c-1.32-.06-2.64-.07-4-.12a30.74,30.74,0,0,0-7.75.8,6.73,6.73,0,0,0-3.2,1.85A3.38,3.38,0,0,0,848.47,501.6Z" transform="translate(185.76)"/><path class="cls-6" d="M868.34,484.22a41.1,41.1,0,0,0,5.52-1.08,33.38,33.38,0,0,0,5.24-1.8,21.24,21.24,0,0,0,4.64-2.74,14,14,0,0,0,3.31-3.88l-.06.1a17.22,17.22,0,0,1,3-4.49,11.15,11.15,0,0,1,4.73-3.12,9.3,9.3,0,0,1,5.9.09l.71.21.63.31,1.28.63c.78.48,1.5,1,2.25,1.56l-.11-.09a82.17,82.17,0,0,0,11.51,6.39,43.08,43.08,0,0,0,12.22,3.87,18.64,18.64,0,0,0,6-.05,10.07,10.07,0,0,0,4.92-2.42,12.93,12.93,0,0,0,3.14-4.79,26.34,26.34,0,0,0,1.56-6.05l.81-4.61,2.79,3.61a33.66,33.66,0,0,0,3.08,3.4,21.31,21.31,0,0,0,3.5,2.85,8.7,8.7,0,0,0,3.76,1.48,4.3,4.3,0,0,0,3.33-1.16l1.09-.94.93.93a28.75,28.75,0,0,0,4.6,3.63,30.14,30.14,0,0,0,5.33,2.74,26.47,26.47,0,0,0,5.83,1.59,27.9,27.9,0,0,0,6.14.24,23.56,23.56,0,0,1-6.22.69,28,28,0,0,1-3.16-.24,29.84,29.84,0,0,1-3.12-.67,31,31,0,0,1-6-2.31,30.13,30.13,0,0,1-5.43-3.61h2a8.07,8.07,0,0,1-2.46,1.77,6.76,6.76,0,0,1-3,.6,12,12,0,0,1-5.43-1.67,25,25,0,0,1-4.3-3.08,34,34,0,0,1-3.65-3.74l3.6-1a31,31,0,0,1-1.57,7.11A16,16,0,0,1,943,481a14.52,14.52,0,0,1-7,3.59,21.61,21.61,0,0,1-7.51.16A47.52,47.52,0,0,1,915,480.31a80.94,80.94,0,0,1-11.94-7.18l-.11-.09c-.58-.42-1.15-.89-1.73-1.3l-.91-.52-.45-.26-.46-.16a5.7,5.7,0,0,0-3.74-.32,8.28,8.28,0,0,0-3.5,2,14.47,14.47,0,0,0-2.74,3.45l0,.1a15.12,15.12,0,0,1-4.36,4.3,22.78,22.78,0,0,1-5.35,2.44A30.83,30.83,0,0,1,874,484,36,36,0,0,1,868.34,484.22Z" transform="translate(185.76)"/><path class="cls-19" d="M1015.05,442.35c.25-8.52.34-13.59.34-13.59-49.66,13.25-176,9.94-176,9.94,8.83,88.28-39.73,176-39.73,176,15.14,7.12,70.87,9.3,119.12,9.78-30.48-19.55-64.91-45.92-64.91-45.92-5.79-4.14-5.38-103.88-5.38-103.88C883.26,486.29,981.53,454.06,1015.05,442.35Z" transform="translate(185.76)"/><path class="cls-21" d="M940.9,511.53l157.81-9.38s2.21,81.67,4.41,107.6c0,0,7.73,62.35-6.06,83.87L932.62,698s9.93-63.46,5.52-97.67C938.14,600.37,934.83,543.54,940.9,511.53Z" transform="translate(185.76)"/><path class="cls-6" d="M985,662.17a33.53,33.53,0,0,1,.53-5.9,36.46,36.46,0,0,1,1.49-5.79A30.13,30.13,0,0,1,993.15,640a24.76,24.76,0,0,1,10.49-6.75,32.42,32.42,0,0,1,12.38-1.34c1,.11,2.11.19,3.07.34l2.85.39q2.88.36,5.76.63c3.85.36,7.69.68,11.53.76a86.16,86.16,0,0,0,11.39-.37,36.21,36.21,0,0,0,5.41-1.06,12.61,12.61,0,0,0,4.58-2.21l-.21.23a10.64,10.64,0,0,1,1.37-1.39,13.28,13.28,0,0,1,1.48-1.11,13.8,13.8,0,0,1,1.6-.88l.83-.38.86-.29a14,14,0,0,1,7.06-.41,19.56,19.56,0,0,1,6.34,2.48c.93.63,1.87,1.23,2.75,1.89l2.5,2.17-2.83-1.65c-1-.49-1.95-1-2.92-1.4a20.25,20.25,0,0,0-6.1-1.49,12.55,12.55,0,0,0-5.83,1l-.67.3-.63.37a10.87,10.87,0,0,0-2.26,1.79,8,8,0,0,0-.87,1l-.08.12-.12.12a16.19,16.19,0,0,1-5.67,3.34,32.76,32.76,0,0,1-6,1.51,69.91,69.91,0,0,1-12,.82c-4,0-8-.25-11.9-.66q-3-.32-5.9-.73l-3-.44c-1-.17-1.84-.23-2.77-.35-7.31-.89-14.88.79-20.29,5.88a30.75,30.75,0,0,0-6.59,9A46.36,46.36,0,0,0,985,662.17Z" transform="translate(185.76)"/><path class="cls-6" d="M1030.56,657.48a2.6,2.6,0,0,1,.14-1.77,6.52,6.52,0,0,1,.48-.8c.19-.23.39-.49.6-.72a10.23,10.23,0,0,1,1.44-1.11c.26-.16.51-.34.77-.49l.8-.39a25,25,0,0,1,6.69-1.91,33.13,33.13,0,0,1,3.4-.4c1.13-.12,2.26-.13,3.39-.15,2.25-.06,4.48.1,6.72.26h.14l.11,0c1.38.26,3,.49,4.44.67s3,.32,4.56.42,3.06.1,4.62.11,3.11-.18,4.74-.37a17.48,17.48,0,0,1-4.37,2.28,25.8,25.8,0,0,1-4.82,1.22,35.65,35.65,0,0,1-5,.4,34.38,34.38,0,0,1-5-.31l.25,0c-2.16,0-4.32-.19-6.47-.21-1.07,0-2.14-.07-3.21-.08s-2.13-.05-3.19,0a40.39,40.39,0,0,0-6.26.42,11.65,11.65,0,0,0-3,.77A3.2,3.2,0,0,0,1030.56,657.48Z" transform="translate(185.76)"/><path class="cls-11" d="M1098.71,502.15,940.9,511.53c-6.07,32-2.76,88.84-2.76,88.84a191.27,191.27,0,0,1,1.05,27.79c22.33-10.12,68.22-34,93.86-69.45,0,0,42.6-12.09,66.62-24.9C1099.08,515.85,1098.71,502.15,1098.71,502.15Z" transform="translate(185.76)"/><path class="cls-26" d="M908.89,495s-23.17-5-44.14,114.22c0,0-8.28,116.43-16,129.67,0,0-51.87,44.7-27,82.77,0,0,61.8,86.08,68.42,99.32l3.87,426,157.26-5.51L959.11,917.1l24.83-120.29L914.41,598.16Z" transform="translate(185.76)"/><path class="cls-27" d="M851.66,737.56a32.65,32.65,0,0,0,13.52,22.6c13.89,9.66,32.31,5.63,41.14-9l26.44-43.79c8.83-14.63,4.74-34.32-9.15-44s-32.31-5.63-41.15,9L856,716.18A32.89,32.89,0,0,0,851.66,737.56Z" transform="translate(185.76)"/><path class="cls-28" d="M1033.54,703a6.12,6.12,0,0,1-6.41-6.08L1027,682a24,24,0,0,0-33.58-21.86,2.81,2.81,0,0,1-3.88-2.73l.39-9.27c.55-13.18-9.36-24.77-22.53-25.55a23.84,23.84,0,0,0-14.06,3.55s-.05,0-.06,0c-.16-2.52-.38-5-.56-7.5l-.81-8.43c-1.14-11.17-2.66-22.12-4.35-33s-3.66-21.62-5.72-32.32c-1.05-5.35-2.18-10.66-3.26-16L935.07,513a21.66,21.66,0,0,0-42.78,5.78v.08l.56,15.59c.1,5.18.24,10.37.31,15.54.07,10.33.09,20.64-.22,30.87s-.73,20.39-1.54,30.36l-.65,7.43c-.27,2.43-.49,4.91-.79,7.3l-.45,3.58L889,633l-.54,3.33-.28,1.55-.15.63-.07.32s0,0,0,0c-.07.65-.12,1.31-.15,2a20.68,20.68,0,0,0-.33,6.11c2.48,27.2,3.76,87.05-30.05,106.22a0,0,0,0,0,0,0c.66,1.64,27.15,66.79,70.61,107.51h0s62.69,40.8,113.25-37.34c0,0,17.59-25.27,16.22-58.36a48.65,48.65,0,0,1,1.39-12.93,24.54,24.54,0,0,0,.6-4.82l.5-21.51a22.37,22.37,0,0,0-21.9-22.9h0Z" transform="translate(185.76)"/><path class="cls-29" d="M1008.3,810.12l0,6.41,0,6.7.17,13.51q.22,13.53.7,27.12.95,27.15,2.77,54.24c2.46,36.07,6.07,71.95,11.3,107.19,2.62,17.61,5.66,35,9.2,52.2q2.68,12.85,5.74,25.46t6.63,24.82q3.57,12.21,7.67,23.91c2.72,7.8,5.65,15.37,8.8,22.62,6.26,14.49,13.43,27.88,21.21,38.47a54.77,54.77,0,0,1-88.29,64.84c-.74-1-1.44-2-2.1-3.08l-.67-1.06a268.75,268.75,0,0,1-16.5-30.53c-4.71-10.15-8.75-20.25-12.34-30.29s-6.73-20.05-9.5-30-5.25-19.84-7.45-29.69-4.13-19.67-5.89-29.46-3.26-19.54-4.65-29.27c-2.73-19.45-4.83-38.8-6.45-58.08-3.22-38.57-4.6-76.85-4.76-115q-.12-28.6.73-57.15.42-14.28,1.08-28.58.33-7.15.74-14.34l.44-7.22.5-7.51a40.51,40.51,0,0,1,80.92,2.69Z" transform="translate(185.76)"/><path class="cls-30" d="M572.3,928.69l1.11,51.86s117,13.8,162.22,4.42c0,0,20.42-23.18,22.63-40.83Z" transform="translate(185.76)"/><path class="cls-31" d="M639.62,939.17s55.73-5.52,36.42,34.76c0,0-29,19-55.39,55.15-17.27,23.68-27.52,70.2-82.81,66.74-23-1.44-69.12,54.72-105.12,76.32-19.36,11.62,46.47-84.07,36.08-104.12-11.17-21.55-25.63-52-36.1-83.36a224,224,0,0,1-9.78-97.37c5.42-45.74,18.38-113.88,46.75-98.21l29.8,109.26S550.78,1009.8,639.62,939.17Z" transform="translate(185.76)"/><path class="cls-18" d="M550.51,741.63s165.53,11.59,202-8.28c0,0,2.9,99.32,8.28,124.16,0,0,8.69,75.31,9.52,100.56,0,0-195.75-10.76-210.65-4.14l-8.69-214" transform="translate(185.76)"/><path class="cls-6" d="M694.25,790.74c-2.37-4.54-4.38-9.16-6.42-13.73-1-2.29-2-4.57-3.05-6.8-.52-1.12-1-2.22-1.58-3.3l-.84-1.57-1-1.62a4.11,4.11,0,0,1,.05-4.06,4,4,0,0,1,1.48-1.48,4.09,4.09,0,0,1,1-.41l.34-.08.25-.05a32.39,32.39,0,0,1,4-.53,37.16,37.16,0,0,1,7.9.36,41.86,41.86,0,0,1,14.54,5.13,108.39,108.39,0,0,0-14.85-1.52,50.2,50.2,0,0,0-7.18.37,32.3,32.3,0,0,0-3.45.63l-.21,0c-.06,0-.17,0-.12,0l.1,0a.4.4,0,0,0,.17-.17.45.45,0,0,0,0-.45l1,1.64.9,1.78c.53,1.2,1.07,2.38,1.52,3.59q1.38,3.6,2.43,7.27A91.18,91.18,0,0,1,694.25,790.74Z" transform="translate(185.76)"/><path class="cls-6" d="M685.7,761.77a28.3,28.3,0,0,1,4.61-.53,30.54,30.54,0,0,1,4.68.14,24.73,24.73,0,0,1,9.23,2.67,16.48,16.48,0,0,1,7,7.27,21.38,21.38,0,0,1,1.8,9.9v.09l0,.16c-.8,4.79-1.74,9.5-2.85,14.21s-2.39,9.37-3.85,14c-.7,2.32-1.55,4.6-2.4,6.87s-1.82,4.51-2.87,6.72a47,47,0,0,1-3.62,6.39c-1.39,2-3.08,4-5.34,5a14.88,14.88,0,0,0,4-5.73,63.37,63.37,0,0,0,2.52-6.61c1.46-4.5,2.69-9.09,3.84-13.7.59-2.3,1.14-4.62,1.65-6.94l1.59-7c1-4.65,2-9.33,3-14l0,.24a17.46,17.46,0,0,0-1-8,13.35,13.35,0,0,0-5-6.22,24.94,24.94,0,0,0-7.93-3.5A45.85,45.85,0,0,0,685.7,761.77Z" transform="translate(185.76)"/><path class="cls-6" d="M674.66,819.71c4.79-.25,9.49-.15,14.18,0s9.34.4,14,.65,9.27.52,13.88.63c2.3,0,4.61.1,6.9,0a20.48,20.48,0,0,0,6.79-1.22,14.92,14.92,0,0,1-6.39,3.45,46.25,46.25,0,0,1-7.12,1.42,83.54,83.54,0,0,1-14.31.35,115,115,0,0,1-14.11-1.66A85.55,85.55,0,0,1,674.66,819.71Z" transform="translate(185.76)"/><path class="cls-6" d="M637.69,797.64c8.67-1.26,17.37-1.95,26.08-2.41,4.36-.27,8.71-.35,13.08-.49s8.72-.08,13.08-.08,8.73.19,13.1.38,8.73.48,13.08,1,8.71,1,13,1.8c2.16.43,4.31.9,6.44,1.5a25.61,25.61,0,0,1,6.11,2.48c-4.18-1.26-8.51-1.47-12.83-1.74s-8.64-.36-13-.46-8.66-.18-13-.18-8.68-.13-13-.13l-13-.18c-4.35-.11-8.69-.12-13-.27C655.12,798.59,646.42,798.29,637.69,797.64Z" transform="translate(185.76)"/><path class="cls-6" d="M659.21,891.72c-.46-3-.73-6-.91-9.06s-.15-6.08,0-9.13A76.46,76.46,0,0,1,661,855.39c.2-.75.49-1.47.74-2.2s.48-1.48.82-2.18a44.7,44.7,0,0,1,2.05-4.25,25.06,25.06,0,0,1,15-11.4,25.62,25.62,0,0,1,4.77-.84c1.66-.12,3.14-.11,4.71-.1a55.76,55.76,0,0,1,18.47,3,30,30,0,0,1,8.5,4.68,16.22,16.22,0,0,1,1.85,1.67,14,14,0,0,1,1.67,1.86l.77,1,.35.47.32.45,1.32,1.83c3.56,4.84,7.18,9.66,11.07,14.15,1,1.13,2,2.21,3,3.25a30.53,30.53,0,0,1,3.16,3.75,25.1,25.1,0,0,1,4,9.06,23,23,0,0,1,0,10,17.87,17.87,0,0,1-1.86,4.84,17.26,17.26,0,0,1-1.46,2.15l-1.31,1.79-2.64,3.56c-.88,1.17-1.73,2.55-2.64,3.78a87.82,87.82,0,0,1-5.8,7.26,71.73,71.73,0,0,1-14,12.32,49.71,49.71,0,0,1-8.34,4.44,39.77,39.77,0,0,1-9.17,2.49,36,36,0,0,1-9.5.12,22.14,22.14,0,0,1-4.73-1.06l-1.13-.36-1.1-.44a23.28,23.28,0,0,1-2.17-.94,44.76,44.76,0,0,1-8-4.88c-1.18-1-2.41-2-3.53-3.07s-2.21-2.19-3.19-3.4-1.92-2.43-2.82-3.68l-2.45-3.92c-.76-1.34-1.38-2.75-2.08-4.12a34,34,0,0,1-1.76-4.23l-.8-2.15-.4-1.07-.31-1.1-1.18-4.42a42,42,0,0,1-.87-4.47l-.74-4.49c1.4,5.9,2.88,11.78,5.43,17.23a32.67,32.67,0,0,0,1.95,4c.76,1.29,1.44,2.62,2.24,3.88l2.58,3.64c.93,1.15,1.94,2.24,2.9,3.36s2.12,2.06,3.16,3.09,2.3,1.84,3.44,2.76a41.92,41.92,0,0,0,7.66,4.25c.66.31,1.35.54,2,.78a21.64,21.64,0,0,0,2.07.66,19.06,19.06,0,0,0,4.14.81,32.56,32.56,0,0,0,8.6-.36,40.73,40.73,0,0,0,15.84-6.74,67.12,67.12,0,0,0,13-11.84c1.92-2.24,3.76-4.56,5.47-7,.88-1.21,1.62-2.43,2.54-3.69l2.74-3.75,1.37-1.88a13.32,13.32,0,0,0,1.08-1.61,13.59,13.59,0,0,0,1.36-3.62,18.66,18.66,0,0,0,0-8,20.51,20.51,0,0,0-3.26-7.45,25.54,25.54,0,0,0-2.68-3.2c-1.09-1.14-2.13-2.29-3.13-3.47-4-4.71-7.67-9.57-11.19-14.55L717.5,850l-.32-.47a4.08,4.08,0,0,0-.33-.45l-.61-.82a11.49,11.49,0,0,0-1.33-1.54,11.65,11.65,0,0,0-1.5-1.39,25.72,25.72,0,0,0-7.27-4.16A55.16,55.16,0,0,0,689,838c-1.46-.06-3-.1-4.38,0a22.56,22.56,0,0,0-4.17.61,21,21,0,0,0-4,1.38,22.07,22.07,0,0,0-3.69,2.1,21.84,21.84,0,0,0-5.9,6.1c-.78,1.18-1.37,2.55-2.05,3.85s-1.13,2.72-1.67,4.1a74.52,74.52,0,0,0-3.67,17.52A116.43,116.43,0,0,0,659.21,891.72Z" transform="translate(185.76)"/><path class="cls-19" d="M752.46,733.35c-35.27,19.24-191.68,9-201.47,8.31l2,48.51c49.1-1.33,153.57-8.07,200-40.64C752.65,739.68,752.46,733.35,752.46,733.35Z" transform="translate(185.76)"/><path class="cls-32" d="M680.33,844.12c-1.83-.2-3.66-.36-5.51-.53l-2.77-.23-1.39-.1h-1.43a90.86,90.86,0,0,0-11.59.44,82.52,82.52,0,0,0-24.19,5.88,78,78,0,0,0-18.93,11.18,37.08,37.08,0,0,0,.21-11.44l.07.6v.49c0,.11,0,.13,0,.15v.07c0,.14,0,.06-.07.06s-.06-.1-.09-.17a1,1,0,0,1-.08-.27,7.61,7.61,0,0,1-.15-.75c0-.27-.08-.58-.11-.91a33,33,0,0,1-.1-4.42,57.18,57.18,0,0,1,1.5-10.4,77.15,77.15,0,0,1,3.57-11.14,92.19,92.19,0,0,1,5.45-11.33l.78-1.42.85-1.4,1.72-2.81c1.26-1.84,2.4-3.74,3.77-5.56l2-2.77,2.13-2.72c1.38-1.84,2.95-3.59,4.44-5.4A194,194,0,0,1,661,768.79l.35-.3a26.78,26.78,0,0,0-31.54-43.07A251.51,251.51,0,0,0,599.72,747c-2.39,2.07-4.83,4.08-7.16,6.29L589,756.56,585.59,760c-2.32,2.25-4.5,4.73-6.74,7.12l-3.25,3.75-1.61,1.9-1.57,2a158.92,158.92,0,0,0-11.8,16.71c-.22.36-.42.73-.64,1.09a28,28,0,0,0-44.94-.61l-1.34,1.72-.93,1.22-.85,1.16-.78,1.09c-1,1.41-1.85,2.74-2.74,4.11,0-.16,0-.32,0-.49l.08-2c0-.71.1-1.3.14-2a35.72,35.72,0,0,1,1.27-7.09,28.77,28.77,0,0,1,2.53-5.93l2-3.49a21.46,21.46,0,0,0-32.91-26.67,71.71,71.71,0,0,0-12.05,14,80.41,80.41,0,0,0-7.95,15.8c-.47,1.33-1,2.7-1.42,4l-1.23,4c-.7,2.65-1.4,5.33-1.89,8a125.13,125.13,0,0,0-2.15,15.59,174.28,174.28,0,0,0,.18,28.29c-1.3,6-7.63,43.1,16.86,98.62,9,20.51,25.94,36.74,47.1,44.12a71.67,71.67,0,0,0,36.84,3,22,22,0,0,0,8.6,0l2.49-.48,1.82-.39c1.09-.26,2.27-.52,3.26-.82l3.08-.88c1-.31,2-.64,2.94-1,2-.65,3.83-1.43,5.73-2.16s3.69-1.64,5.52-2.48A114.71,114.71,0,0,0,609.67,968c12.61-10.18,29.71-40,36.85-54.44.9-1.9,1.79-3.8,2.65-5.71l1.27-2.87.3-.68-.15.27-.09.13c-.11.16-.26.35-.25.28l-.09,0a1.43,1.43,0,0,0,0-.22,1.62,1.62,0,0,1,.17-.56l.1-.34.19-.35a6.73,6.73,0,0,1,.38-.76,22.31,22.31,0,0,1,5.87-6.41A15.59,15.59,0,0,1,659,894.7c.79-.45,1.51-1,2.37-1.46s1.76-.85,2.64-1.32a9,9,0,0,1,1.41-.62l1.47-.59a65.44,65.44,0,0,1,6.3-2.12l.82-.27.86-.18,1.75-.39c1.17-.27,2.35-.53,3.54-.84l3.18-.82a21.4,21.4,0,0,0-3-42Z" transform="translate(185.76)"/><path class="cls-33" d="M569.5,978.1l-6.14,8.95-6.24,9.23c-4.16,6.17-8.27,12.41-12.37,18.65s-8.12,12.55-12.18,18.82l-12,18.94q-23.78,38-45.82,76.81c-14.77,25.79-28.63,51.93-41.88,78.13l-9.74,19.69-1.21,2.46-1.16,2.48-2.3,5-4.61,9.89-4.6,9.88c-1.52,3.29-2.89,6.62-4.35,9.92l-8.59,19.81-.53,1.21a66.9,66.9,0,1,1-122.74-53.27,71.86,71.86,0,0,1,4.87-9.2l12.94-20.39c2.16-3.38,4.28-6.81,6.49-10.14L304,1185l6.68-9.92,3.34-5,1.66-2.47,1.72-2.43,13.71-19.41c18.49-25.66,37.35-50.79,56.92-75.18s39.41-48.41,59.79-71.91l15.38-17.53c5.2-5.79,10.33-11.62,15.57-17.37s10.46-11.51,15.77-17.23l8-8.58,8.26-8.72a38.24,38.24,0,0,1,59.32,47.91Z" transform="translate(185.76)"/><path class="cls-21" d="M615.34,212.46l8.28,189.82S520.43,438.7,451.46,416.07c0,0-34.21-9.38-45.25-7.72,0,0,40.28-150.64-.55-194.78,0,0,92.7-7.18,139.05-1.66C544.71,211.91,591.06,219.64,615.34,212.46Z" transform="translate(185.76)"/><path class="cls-6" d="M449.94,336.48A39.67,39.67,0,0,1,455,331a36.73,36.73,0,0,1,6.08-4.54,27,27,0,0,1,7.12-3,21.15,21.15,0,0,1,7.94-.53,20.76,20.76,0,0,1,7.57,2.74,28.83,28.83,0,0,1,3.3,2.32,16.92,16.92,0,0,1,2.8,3.09c.39.54.78,1.15,1.1,1.66a9.17,9.17,0,0,0,.92,1.18,10,10,0,0,0,2.44,1.91,17.58,17.58,0,0,0,6.26,2,38.54,38.54,0,0,0,14-.8,48.13,48.13,0,0,0,6.77-2.1c1.1-.43,2.18-.91,3.25-1.43s2.24-1.14,3.4-1.66a49.61,49.61,0,0,1,14.93-4.15,42.92,42.92,0,0,1,7.77-.19,47.18,47.18,0,0,1,7.67,1.25l.12,0,.08,0a69.84,69.84,0,0,0,7.38,2.37,55.42,55.42,0,0,0,7.65,1.44,28.5,28.5,0,0,0,7.72-.12,12.73,12.73,0,0,0,6.9-3.41,12.51,12.51,0,0,1-6.64,4.47,27,27,0,0,1-8.09,1,47.83,47.83,0,0,1-8.11-.8,59.58,59.58,0,0,1-7.94-1.93l.2.06c-9.4-1.86-19.18-.1-27.78,4-1.09.51-2.07,1-3.27,1.65s-2.35,1.12-3.55,1.61a47,47,0,0,1-7.44,2.37,42.86,42.86,0,0,1-15.66.69,21.05,21.05,0,0,1-7.75-2.79,14.36,14.36,0,0,1-3.31-2.79,13.2,13.2,0,0,1-1.3-1.81c-.32-.55-.59-1-.91-1.49a15.62,15.62,0,0,0-2.07-2.53,26.48,26.48,0,0,0-2.68-2.11,17.37,17.37,0,0,0-6.22-2.67,18.43,18.43,0,0,0-6.87-.08,27.76,27.76,0,0,0-6.79,2.2A46.83,46.83,0,0,0,449.94,336.48Z" transform="translate(185.76)"/><path class="cls-6" d="M534.23,277.57a11,11,0,0,1,8.17,2.52,18.53,18.53,0,0,1,3.16,3.16,18.9,18.9,0,0,1,1.26,1.8l.57.93a6.52,6.52,0,0,0,.44.5,6.28,6.28,0,0,0,5.63,1.89,16.28,16.28,0,0,0,6.53-2.75l-.41.36a13.08,13.08,0,0,1,1.52-1.32,16.7,16.7,0,0,1,1.59-1,14.73,14.73,0,0,1,3.55-1.39,12.48,12.48,0,0,1,3.85-.25,12.76,12.76,0,0,1,1.88.37c.31.09.61.17.91.27l.89.38c.66.28,1,.49,1.42.71a14.08,14.08,0,0,0,1.37.58,21.42,21.42,0,0,0,2.93.81,20.53,20.53,0,0,0,6.33.2,14.54,14.54,0,0,1-6.46,1.82,16.19,16.19,0,0,1-3.47-.17c-.58-.09-1.16-.21-1.74-.35s-1.23-.43-1.6-.48l-.64-.16-.68-.09a7.43,7.43,0,0,0-1.33-.08,9,9,0,0,0-2.57.46,10.34,10.34,0,0,0-2.39,1.16,11.58,11.58,0,0,0-1.09.79,8.61,8.61,0,0,0-.9.83l-.18.21-.23.15a18.23,18.23,0,0,1-8.63,3.45,10.23,10.23,0,0,1-5.06-.76,9.69,9.69,0,0,1-4-3.19,7.88,7.88,0,0,1-.73-1.2l-.4-.9c-.25-.62-.56-1.17-.85-1.74s-.65-1.1-1-1.66a19,19,0,0,0-1.16-1.52A12.4,12.4,0,0,0,534.23,277.57Z" transform="translate(185.76)"/><path class="cls-6" d="M465.26,344.34a46.28,46.28,0,0,0-4.79,7.32,28.11,28.11,0,0,0-2.88,8,17.05,17.05,0,0,0-.24,4.08,12.19,12.19,0,0,0,.92,3.84,14.62,14.62,0,0,0,5,6l-.5-.27a16,16,0,0,0,2.2.41,20.11,20.11,0,0,0,2.33.16,24.14,24.14,0,0,0,4.66-.34,23.35,23.35,0,0,0,8.63-3.34,29,29,0,0,0,3.72-2.83l1-.88a6.33,6.33,0,0,1,1.65-1,6.48,6.48,0,0,1,3.82-.36,6.14,6.14,0,0,1,3.38,2,5.85,5.85,0,0,1,.6.81l.32.51a9.6,9.6,0,0,0,.59.83,6.1,6.1,0,0,0,2.95,2.07c2.26.71,5.27-.22,8-1.71.69-.34,1.34-.81,2-1.21l.61-.38q.34-.21.72-.39a8.58,8.58,0,0,1,1.52-.6,9.77,9.77,0,0,1,3.17-.37,19.06,19.06,0,0,0,2.27-.07,16.38,16.38,0,0,0,8.36-3.13,19.44,19.44,0,0,0,5.84-7.12l1-2,1.56,1.51a38.28,38.28,0,0,0,5.72,4.51,36.7,36.7,0,0,0,6.59,3.33,25.82,25.82,0,0,0,7.23,1.57,23.83,23.83,0,0,0,7.48-.8,21.25,21.25,0,0,1-7.48,1.88,24.83,24.83,0,0,1-7.81-.8,33.13,33.13,0,0,1-7.34-2.91,36.9,36.9,0,0,1-6.62-4.45l2.58-.49a23.12,23.12,0,0,1-6.43,8.79,20.11,20.11,0,0,1-10.23,4.29,21.82,21.82,0,0,1-2.8.18,6.52,6.52,0,0,0-1,.07,4.41,4.41,0,0,0-.87.21,6.58,6.58,0,0,0-.83.34,3.61,3.61,0,0,0-.39.22l-.46.3c-.77.47-1.49,1-2.32,1.42a20.7,20.7,0,0,1-5.21,2.16,11.79,11.79,0,0,1-6.19,0,10.3,10.3,0,0,1-5.24-3.62c-.29-.42-.61-.82-.86-1.25l-.35-.57a1.62,1.62,0,0,0-1-.75,1.92,1.92,0,0,0-1.16.09,1.63,1.63,0,0,0-.51.3L488,370l-.26.22-.52.44a27.66,27.66,0,0,1-14.69,6.8,25.49,25.49,0,0,1-5.45.16c-.91-.07-1.81-.19-2.71-.35a18.84,18.84,0,0,1-2.75-.7l-.3-.1-.2-.16a17,17,0,0,1-5.62-7.75,16,16,0,0,1-.06-9.42,27.75,27.75,0,0,1,3.95-8.15A38.46,38.46,0,0,1,465.26,344.34Z" transform="translate(185.76)"/><path class="cls-6" d="M551.33,392.35c5.53-1,11-1.53,16.52-2.07s11-.94,16.45-1.3l16.39-1.14c1.36-.13,2.72-.25,4.09-.34s2.71-.29,4.08-.42,2.68-.39,4.07-.54a13.47,13.47,0,0,0,2-.39c.68-.14,1.36-.3,2.06-.43a28.28,28.28,0,0,1-3.7,2c-.65.28-1.31.54-2,.8s-1.32.52-2,.73c-1.35.39-2.7.83-4.06,1.18s-2.72.65-4.1.95a134.75,134.75,0,0,1-16.58,2.14c-5.54.37-11.1.48-16.65.32A121.1,121.1,0,0,1,551.33,392.35Z" transform="translate(185.76)"/><path class="cls-6" d="M499.19,405.59a21.11,21.11,0,0,1,5-1.48,36.09,36.09,0,0,1,4.8-.47,41.93,41.93,0,0,1,4.75.13,42.84,42.84,0,0,1,5,.72,10.38,10.38,0,0,1-4.57,2.86,17.3,17.3,0,0,1-5.09.89,19.26,19.26,0,0,1-5.07-.53A13.79,13.79,0,0,1,499.19,405.59Z" transform="translate(185.76)"/><path class="cls-6" d="M529.81,276.47c-3.85,2.28-6.7,5.83-9.09,9.48a53.25,53.25,0,0,0-5.5,11.95c-.75,2.06-1.21,4.22-1.79,6.33-.24,1.08-.44,2.16-.66,3.23s-.45,2.15-.58,3.25a62.12,62.12,0,0,0-.75,6.44,24.07,24.07,0,0,0,.68,6.22A21.77,21.77,0,0,0,518.18,334,24.76,24.76,0,0,0,529,339.75a41.88,41.88,0,0,0,12.62,1.17,77.83,77.83,0,0,0,12.83-1.79l-.19.05a34.21,34.21,0,0,0,3.93-1.69c1.31-.65,2.6-1.37,3.85-2.14a45.86,45.86,0,0,0,7-5.32,41.56,41.56,0,0,0,10.15-14.12,47,47,0,0,0,3.65-17.17,93.82,93.82,0,0,0-.78-18,62.39,62.39,0,0,0-4.63-17.27,35.8,35.8,0,0,0-4.54-7.55,26.21,26.21,0,0,0-6.53-5.76,27.37,27.37,0,0,0-8.26-2.93c-.73-.16-1.48-.15-2.22-.24a15.3,15.3,0,0,0-2.24-.13,34.09,34.09,0,0,0-4.51.25,67.25,67.25,0,0,0-17.64,4.84,62.93,62.93,0,0,1,17.44-6.29,36.43,36.43,0,0,1,4.68-.54,17,17,0,0,1,2.37,0,23.76,23.76,0,0,1,2.39.12,27.24,27.24,0,0,1,9.21,2.73,28.91,28.91,0,0,1,7.56,6,36.66,36.66,0,0,1,5.28,8,65,65,0,0,1,5.51,18.11,98.48,98.48,0,0,1,1.2,18.79,49.59,49.59,0,0,1-3.82,18.78,45.32,45.32,0,0,1-11.17,15.71,49.92,49.92,0,0,1-7.72,5.8c-1.38.84-2.79,1.62-4.24,2.32a36.66,36.66,0,0,1-4.57,1.91l-.08,0-.11,0a73.9,73.9,0,0,1-13.63,1.74,46,46,0,0,1-13.86-1.59,31.79,31.79,0,0,1-6.58-2.68,24.6,24.6,0,0,1-5.74-4.36A25.21,25.21,0,0,1,509,324.08a25.85,25.85,0,0,1-.47-7.07,64.81,64.81,0,0,1,1.1-6.78c.18-1.11.48-2.2.75-3.3s.54-2.2.84-3.29c.71-2.15,1.32-4.32,2.21-6.41a51,51,0,0,1,6.43-11.89C522.52,281.75,525.76,278.41,529.81,276.47Z" transform="translate(185.76)"/><path class="cls-11" d="M468,381.86c-8.27-3.31-27-142.36-27-142.36,6.74-11.61,59.24-22.71,92.27-28.65-48.61-3.4-127.59,2.72-127.59,2.72,40.83,44.14.55,194.78.55,194.78,11-1.66,45.25,7.72,45.25,7.72,44.28,14.53,102.64,4.72,138.77-4.17C548,403.7,468,381.86,468,381.86Z" transform="translate(185.76)"/><path class="cls-34" d="M502.78,294.13l-2.21-6.07-74.49,22.07s17.1-23.73-39.18-35.32c0,0-144.57,13.25-157.81,59.05,0,0-4.42,29.79-4.42,47.45L-22,553.3-30.6,868.66s255.83-331.75,271.83-348.3c0,0,87.73,17.11,129.12-50.76,0,0,25.38-45.8,41.93-56.84,0,0,16.56-41.38,15.45-60.14,0,0,72.29-31.46,79.46-43.59L526,296.33ZM346.07,434.28c-39.73,21.52-23.18-40.83-23.18-40.83l37.52-5C373.11,397.31,346.07,434.28,346.07,434.28Z" transform="translate(185.76)"/><path class="cls-35" d="M271.71,452.31a14.56,14.56,0,0,0-1.87,1.47l-1.76,1.56-3.53,3.13-7.05,6.24-14.1,12.44L215.12,502c-18.92,16.49-37.87,32.94-57,49.29l-14.4,12.25c-4.82,4.08-9.61,8.17-14.49,12.23l-14.58,12.2L99.82,600.08c-4.88,4.06-10,8.1-15,12.15l-7.59,6.08-7.88,6.09-7.9,6.1-8.58,6.24-4.3,3.12-1.08.78c-.35.26-.7.52-1.18.82l-2.67,1.73q-5.34,3.46-10.77,6.86c-31.28,19.64-195,136.5-214.64,105.21s34.56-172.8,143.55-218.51c2.84-1.19,5.29-3.07,8-4.31l2-.89q2.68-1.2,5.46-2.34l1.38-.56a7.1,7.1,0,0,0,.82-.39l.9-.46L-16,526l7.21-3.69L-1.21,518l7.66-4.23,7.78-4.49c5.2-3,10.38-5.94,15.62-9.1l15.71-9.33,15.74-9.54c5.24-3.16,10.49-6.41,15.74-9.63L92.79,462c21-13,42-26.22,62.9-39.5l31.37-20,15.65-10.06,7.82-5,3.89-2.52,2-1.26a12.79,12.79,0,0,0,1.84-1.35A44.29,44.29,0,1,1,272,452.13Z" transform="translate(185.76)"/><path class="cls-36" d="M411.2,258.88l-41.35-4.06-20.68-2-5.17-.5-2.59-.26c-.89,0-1.94-.07-2.91-.09s-2,0-3,0-2.11.11-3.16.21c-10-.93-24.53,1.52-45.3,8.85,0,0-48.24,19.08-59.4,57.24,0,0-20.47,93.1,31.1,114.55a40.43,40.43,0,0,0,36-2.71c16.13-9.54,42.46-23.38,43.92-70.2l1.77-26.21,5.94-19.34h.44l20.77-.49,41.54-1a27.07,27.07,0,0,0,2-54Z" transform="translate(185.76)"/><path class="cls-37" d="M512.68,291.25a.5.5,0,0,1,0-1l16.69-2.32a.5.5,0,1,1,.14,1l-16.69,2.32Z" transform="translate(185.76)"/><path class="cls-38" d="M491.51,287.05l31.6,1.57a.81.81,0,0,1,.3,1.53l-29.28,13Z" transform="translate(185.76)"/><path class="cls-39" d="M473.42,289.06l18.11-3.29a4.6,4.6,0,0,1,4.6,1.89c2.11,3,4.81,8.71,1.74,15.12a4.59,4.59,0,0,1-3.29,2.54l-19.47,3.77Z" transform="translate(185.76)"/><path class="cls-37" d="M483.06,310.83l-294.5,51-9-34.77,297.94-41.28S493.48,292.46,483.06,310.83Z" transform="translate(185.76)"/><ellipse class="cls-40" cx="184.12" cy="344.49" rx="8.88" ry="17.92" transform="translate(104.5 57.88) rotate(-14.67)"/><path class="cls-41" d="M302.65,371.78c-.51-.25-.31-.19-.35-.24s.09,0,.14,0a4.35,4.35,0,0,1,.5.06l1.27.26,2.88.62c2,.44,4,.88,5.88,1.27s3.79.7,5.59,1c.87.1,1.77.31,2.6.37s1.66.22,2.48.32a60.83,60.83,0,0,0,8.78.37c.36,0,.68-.07,1-.08s.73,0,1.08-.1.69-.14,1-.19a5.73,5.73,0,0,0,1.11-.21,15.4,15.4,0,0,0,2.25-.66l1.17-.42a6.9,6.9,0,0,0,1.17-.55,29.31,29.31,0,0,0,9.45-7.68l2.17-2.84c.63-.9,1.17-1.79,1.8-2.7l.46-.68.11-.17,0,0s0-.08,0,.09l-.05.17s-.06.17,0,.11l0-.12.37-.86c.45-1,.88-2,1.33-2.91.89-1.86,1.78-3.67,2.7-5.46a173.1,173.1,0,0,1,12.83-21.39,98,98,0,0,1,9-11,70.24,70.24,0,0,1,6.08-5.62,58.91,58.91,0,0,1,7.95-5.42A23.95,23.95,0,0,1,418,349.36c0-.07-.13-.06-.47.22a8.85,8.85,0,0,0-1.35,1.29,28.59,28.59,0,0,0-3.46,4.93,70.31,70.31,0,0,0-6,14.52c-.39,1.32-.77,2.66-1.07,4-.15.65-.3,1.3-.4,1.86,0,.12-.05.28-.05.34v0l-.14.43-.11.34-.14.41-.52,1.66c-.7,2.21-1.44,4.45-2.19,6.63l-2.4,6.24a106.17,106.17,0,0,1-14.39,25,84.74,84.74,0,0,1-24.12,21.06A89.76,89.76,0,0,1,330.83,449a101.6,101.6,0,0,1-15.21,1.25,104.82,104.82,0,0,1-14.61-1,102.55,102.55,0,0,1-14-3c-2.28-.66-4.55-1.42-6.84-2.29l-1.74-.69-1.78-.73-1.87-.85-1-.48-1.52-.73a37.56,37.56,0,0,1,30.39-68.69Z" transform="translate(185.76)"/><path class="cls-42" d="M226.88,635.69S233,697.49,215.29,724c0,0-21.52,29.25-21,112.57,0,0,53,45.24,129.67,13.24,0,0,43.59-13.24,62.35-14.35,0,0,18.21-21,24.28-38.07Z" transform="translate(185.76)"/><path class="cls-43" d="M284.82,566.71,276,650.58l60.15,97.12s99.32-8.83,113.66-22.62l31.46-32Z" transform="translate(185.76)"/><path class="cls-21" d="M415,635.69S427.18,775.84,421.66,815c0,0-124.15,43.59-200.3,4.41,0,0,30.35-162.78-3.31-184.3,0,0,72.84-10.48,140.16-1.1C358.21,634,403.45,640.1,415,635.69Z" transform="translate(185.76)"/><path class="cls-6" d="M252.54,767.56a25.39,25.39,0,0,1,7.39-3.11,54.87,54.87,0,0,1,7.93-1.5,90.7,90.7,0,0,1,16.15-.31l1,.06h.26l.27,0,.47,0,1.91.14c1.28.08,2.57.14,3.85.15a45.07,45.07,0,0,0,7.57-.51,19.62,19.62,0,0,0,6.73-2.12,7.65,7.65,0,0,0,2.34-2,3.75,3.75,0,0,1,.27-.3l.19-.17a3.84,3.84,0,0,1,.34-.28c.21-.15.42-.29.61-.4a8.36,8.36,0,0,1,1.16-.58,15.2,15.2,0,0,1,2.22-.74,35.76,35.76,0,0,1,8.45-.78c1.38,0,2.76.06,4.09.16l3.94.24,15.84.89c5.28.27,10.57.59,15.85.81l4,.17,4,.11c1.31,0,2.64.07,4,0,.66,0,1.32,0,2,0l2-.16a47.53,47.53,0,0,1-7.86,1.46c-2.65.31-5.31.51-8,.71q-8,.47-16,.52c-5.31.09-10.62,0-15.94-.13l-2-.06-2-.1c-1.32-.08-2.58-.1-3.86-.1a32.08,32.08,0,0,0-7.33.75,10.22,10.22,0,0,0-1.56.49,4,4,0,0,0-.62.29,1.72,1.72,0,0,0-.22.14l-.05,0s0,0,0,0l.1-.11c-.19.22-.51.62-.78.9a11.91,11.91,0,0,1-.91.84,13.33,13.33,0,0,1-2,1.36,22.8,22.8,0,0,1-8.37,2.53,50.15,50.15,0,0,1-8.29.23c-1.37-.08-2.73-.18-4.08-.35-.68-.08-1.36-.18-2-.29l-.51-.08-.22,0-.25,0-1-.12a114.17,114.17,0,0,0-15.6-1,62.25,62.25,0,0,0-7.83.5,39.2,39.2,0,0,0-3.87.69A18.53,18.53,0,0,0,252.54,767.56Z" transform="translate(185.76)"/><path class="cls-6" d="M247.57,712.94a37.31,37.31,0,0,1,7.51-3.87,57.49,57.49,0,0,1,8.15-2.45,70.35,70.35,0,0,1,8.44-1.24c1.42-.16,2.84-.14,4.27-.22s2.85,0,4.28,0h.13l.27.08a27.47,27.47,0,0,0,4.67,1,22.74,22.74,0,0,0,4.72.18,12.81,12.81,0,0,0,4.3-1.05,8,8,0,0,0,3.13-2.6,10.71,10.71,0,0,0,1.59-3.91c.06-.37.14-.73.19-1.11l.11-1.14,0-.31a2.07,2.07,0,0,1,2.44-1.7,2.11,2.11,0,0,1,1.47,1.17l.12.34.09.3.17.61.35,1.22,2.81,9.75.7,2.44.34,1.22.17.61,0,.15,0,.08v0a2.67,2.67,0,0,0-.09-.26,2,2,0,0,0-2.66-1,1.88,1.88,0,0,0-.62.43l0-.06.11-.11.21-.22.42-.45.84-.91,1.66-1.85a58.47,58.47,0,0,0,5.87-7.77,18.82,18.82,0,0,0,1.09-2,7.9,7.9,0,0,0,.41-1l.17-.47.14-.38a2.49,2.49,0,0,1,1.73-1.44,2.44,2.44,0,0,1,2.3.7,2.12,2.12,0,0,1,.35.47,2,2,0,0,1,.15.3l0,.07,2,4.52.5,1.14.26.56.12.28.1.19a4.9,4.9,0,0,0,1.1,1.34,5.07,5.07,0,0,0,3.25,1.21q20.28.51,40.55,1.41c13.51.63,27,1.33,40.53,2.4-13.54.53-27.07.71-40.59.81s-27.06,0-40.58-.17a9.48,9.48,0,0,1-8.19-4.77l-.2-.37-.14-.3-.27-.59-.54-1.18L316,698.34l0-.07a.93.93,0,0,0,.11.23,1.92,1.92,0,0,0,.31.41,2.13,2.13,0,0,0,3.5-.63c.07-.14.11-.3.08-.22v.05l0,.09-.25.72a11.91,11.91,0,0,1-.58,1.35,24.74,24.74,0,0,1-1.35,2.44,63.45,63.45,0,0,1-6.4,8.34c-.57.65-1.16,1.28-1.74,1.92l-.89.94-.46.47-.22.23-.12.12-.06.06a2.31,2.31,0,0,1-.75.52,2.42,2.42,0,0,1-3.19-1.25c-.05-.1-.13-.37-.12-.33v0l0-.08,0-.15-.16-.61-.33-1.23-.65-2.45-2.55-9.82-.32-1.22-.16-.62-.08-.3c0,.12-.12-.33.1.26a2,2,0,0,0,3,.77,1.94,1.94,0,0,0,.77-1.26c0-.34,0-.07,0-.13V697l-.17,1.38c-.07.46-.18.92-.28,1.39a13.85,13.85,0,0,1-2.41,5.31,11.77,11.77,0,0,1-4.74,3.61,16.1,16.1,0,0,1-5.55,1.12,28.12,28.12,0,0,1-10.55-1.88l.4.08c-1.37-.09-2.75-.21-4.13-.27s-2.75-.11-4.13-.05a69.19,69.19,0,0,0-8.26.58,63.39,63.39,0,0,0-8.15,1.69A39.51,39.51,0,0,0,247.57,712.94Z" transform="translate(185.76)"/><path class="cls-6" d="M306.61,704.38a82.66,82.66,0,0,1,16.43-7.2A116.57,116.57,0,0,1,340.58,693c1.49-.25,3-.4,4.48-.6l2.24-.28,2.26-.19,4.51-.33,4.53-.08c3-.13,6,.1,9,.17s6,.51,9,.79h.05l.09,0a35.36,35.36,0,0,1,5.2,1.6,34.68,34.68,0,0,1,4.89,2.33,20.75,20.75,0,0,1,8,7.85,16.59,16.59,0,0,1,1.48,11.39,31,31,0,0,1-4.28,10.07l-.12.19-.12.13a22.51,22.51,0,0,1-1.8,1.68c-.58.53-1.2,1-1.81,1.46s-1.25.88-1.88,1.32-1.27.85-1.93,1.22-1.31.78-2,1.15l-2,1c-1.33.73-2.75,1.24-4.13,1.85A71.6,71.6,0,0,1,359,740.22l-4.45.46c-1.48.09-3,.1-4.46.16l-2.22.07c-.75,0-1.49,0-2.23-.07l-4.44-.19a18.12,18.12,0,0,1-2.21-.18l-2.21-.26-4.4-.53L323.66,738h-.09l-.06,0a65.62,65.62,0,0,1-12-5.63,46.22,46.22,0,0,1-10.4-8.2,23.74,23.74,0,0,1-6.2-11.68,19.76,19.76,0,0,1,0-6.6,25.07,25.07,0,0,1,2-6.18,24.48,24.48,0,0,0-1.43,6.26,19.43,19.43,0,0,0,.48,6.28,22.86,22.86,0,0,0,6.54,10.49,46.47,46.47,0,0,0,10.3,7.23,70.84,70.84,0,0,0,11.64,4.84l-.15,0,8.5,1.3,4.27.36,2.14.18a16.9,16.9,0,0,0,2.13.12l4.27.09c.72,0,1.43.06,2.14,0l2.13-.11c1.41-.09,2.83-.13,4.25-.25l4.21-.54a70.25,70.25,0,0,0,16.27-4.32c1.27-.58,2.59-1.06,3.81-1.74l1.85-1c.61-.34,1.19-.71,1.79-1.06a20.67,20.67,0,0,0,1.74-1.12c.56-.4,1.16-.77,1.69-1.19s1.1-.82,1.59-1.27a16.85,16.85,0,0,0,1.4-1.27l-.24.31a26.23,26.23,0,0,0,3.74-8.54,12,12,0,0,0-1-8.4,16.82,16.82,0,0,0-6.3-6.32A32.43,32.43,0,0,0,376,696.4l.14,0-4.38-.53c-1.46-.15-2.91-.43-4.38-.49-2.94-.18-5.87-.52-8.81-.5l-4.42-.07-4.42.13-2.21.07-2.2.16c-1.47.13-2.95.19-4.41.37a128.14,128.14,0,0,0-17.46,3.07A93,93,0,0,0,306.61,704.38Z" transform="translate(185.76)"/><path class="cls-6" d="M282.61,716.52a28.53,28.53,0,0,1,6.13-20.89,31.15,31.15,0,0,1,8.55-7.5,42.52,42.52,0,0,1,10.42-4.4,63.31,63.31,0,0,1,22-1.78A91.46,91.46,0,0,1,351,686.17c-7.23-.35-14.36-.76-21.42-.64-3.53.07-7,.31-10.5.68a67.41,67.41,0,0,0-10.17,1.95,45.4,45.4,0,0,0-9.47,3.73,33.09,33.09,0,0,0-8,6.08A33.93,33.93,0,0,0,282.61,716.52Z" transform="translate(185.76)"/><path class="cls-6" d="M265.78,687.28c1.45-2,2.78-4.13,4.08-6.24s2.51-4.25,3.57-6.45c.55-1.1,1-2.21,1.52-3.32a35.82,35.82,0,0,0,1.2-3.38,17.72,17.72,0,0,0,.87-6.69l3.42-.49a52.48,52.48,0,0,0,1.82,5.48,45.92,45.92,0,0,0,2.36,5.25c1.79,3.33,4,6.44,6.85,8.36a9.62,9.62,0,0,0,4.55,1.71,6.92,6.92,0,0,0,1.21,0,8,8,0,0,0,1.2-.1c.36,0,.9-.14,1.39-.22l1.5-.26q6-1,12-1.75c4-.46,8-.8,12.06-1.11s8.06-.39,12.1-.37a112.78,112.78,0,0,1,24.06,2.35,198.6,198.6,0,0,0-23.93.7c-4,.3-7.93.73-11.88,1.2s-7.9,1-11.83,1.58-7.87,1.18-11.77,1.89l-1.46.27a15.32,15.32,0,0,1-1.57.27,12.05,12.05,0,0,1-1.79.12,10.75,10.75,0,0,1-1.79-.1,14,14,0,0,1-6.55-2.54c-3.83-2.66-6.18-6.44-8-10.2a48.69,48.69,0,0,1-3.88-11.87l3.41-.49a19.18,19.18,0,0,1-1.6,7.91,39.22,39.22,0,0,1-3.57,6.8,62.64,62.64,0,0,1-4.45,6.1A66.58,66.58,0,0,1,265.78,687.28Z" transform="translate(185.76)"/><path class="cls-18" d="M281,564.5s145.67-19.86,175.47-36.41c0,0,24.27,154.5,29.24,168.84,0,0-146.78,23.18-167.19,39.18C318.48,736.11,289.79,584.92,281,564.5Z" transform="translate(185.76)"/><path class="cls-6" d="M350.62,594.92c3.43.05,6.83.06,10.21,0,1.69-.07,3.38-.1,5.06-.22s3.34-.26,5-.43a65.22,65.22,0,0,0,9.69-1.76,25.06,25.06,0,0,0,8.38-3.9l.5-.38.63-.08c4-.47,8-.93,12-1.32s8-.75,12-1.09l6-.45,6-.37c4-.2,8-.42,12.08-.5-3.88,1.17-7.83,2-11.77,2.87l-5.93,1.16-5.95,1c-4,.63-7.94,1.24-11.93,1.77s-8,1-12,1.44l1.14-.46a25.85,25.85,0,0,1-10.15,4.34q-2.64.56-5.26.84c-1.75.15-3.5.23-5.25.26a74.25,74.25,0,0,1-10.35-.66A69.1,69.1,0,0,1,350.62,594.92Z" transform="translate(185.76)"/><path class="cls-6" d="M378.14,605.89a147.43,147.43,0,0,1,16.46-5.21q8.34-2.16,16.81-3.68c5.64-1,11.34-1.81,17.07-2.32a80.23,80.23,0,0,1,17.32,0c-5.67,1.14-11.2,2.38-16.79,3.55s-11.18,2.26-16.79,3.26-11.25,1.92-16.92,2.69S383.93,605.63,378.14,605.89Z" transform="translate(185.76)"/><path class="cls-6" d="M420.15,608.79a15.47,15.47,0,0,1,4.57-2.43,23.29,23.29,0,0,1,4.76-1.1,22.81,22.81,0,0,1,4.89-.07,14.85,14.85,0,0,1,5,1.32,17.39,17.39,0,0,1-4.62,2.28,25.14,25.14,0,0,1-9.59,1.15A16.59,16.59,0,0,1,420.15,608.79Z" transform="translate(185.76)"/><path class="cls-6" d="M328.07,609.2A42.47,42.47,0,0,1,333,598.54a52,52,0,0,1,7.35-9.27,58.64,58.64,0,0,1,19.85-13,70.37,70.37,0,0,1,11.44-3.44,82.67,82.67,0,0,1,11.82-1.69c2-.09,4-.26,6-.23h3c1.06,0,2,.09,3,.15,3.95.29,7.89.69,11.8,1.37a88.52,88.52,0,0,1,11.67,2.74A39.64,39.64,0,0,1,430,580.49a17,17,0,0,1,4.56,4.93,12.09,12.09,0,0,1,1.33,3.31,9,9,0,0,1,.29,1.75c0,.3.07.54.07,1s0,.64-.06.95a15.55,15.55,0,0,1-2.29,6.39,28.41,28.41,0,0,1-1.94,2.67c-.76.76-1.51,1.54-2.3,2.27a36.57,36.57,0,0,1-10.84,6l-2.9.9a25.73,25.73,0,0,1-2.91.81c-2,.4-3.92.9-5.89,1.2l-5.91.77c-2,.16-3.95.24-5.92.36-1,.05-2,.14-3,.14h-3l-5.9,0h-.15a114.48,114.48,0,0,1-11.79-2.41,101.67,101.67,0,0,1-11.44-3.57,72.79,72.79,0,0,1-10.85-5.07,43.12,43.12,0,0,1-9.41-7.29,46.06,46.06,0,0,0,9.91,6.36,81.22,81.22,0,0,0,11,4.21c3.75,1.16,7.57,2,11.4,2.84s7.74,1.39,11.56,1.77h-.15a142.13,142.13,0,0,0,22.93-2c1.87-.32,3.69-.84,5.54-1.25a24.58,24.58,0,0,0,2.69-.82l2.67-.89a34.36,34.36,0,0,0,9.41-5.4l1.85-1.84c.48-.7,1.07-1.34,1.47-2.07a11.29,11.29,0,0,0,1.63-4.52l0-.51a4.21,4.21,0,0,0-.05-.49,5.13,5.13,0,0,0-.19-1.13,7.21,7.21,0,0,0-.86-2.08,12.65,12.65,0,0,0-3.36-3.55,34.91,34.91,0,0,0-9.83-4.7,83,83,0,0,0-11-2.68c-3.77-.66-7.57-1.19-11.38-1.54-.94-.08-1.93-.16-2.82-.2l-2.86,0c-1.9-.07-3.81,0-5.72.09a77.44,77.44,0,0,0-22.39,4.13,58.54,58.54,0,0,0-19.67,11.4A51.56,51.56,0,0,0,328.07,609.2Z" transform="translate(185.76)"/><path class="cls-19" d="M460,550.38c-2.17-13.53-3.54-22.29-3.54-22.29C426.63,544.64,281,564.5,281,564.5c3.4,7.86,9.74,35.1,16.25,65.63a615,615,0,0,0-79.16,5c33.66,21.52,3.31,184.3,3.31,184.3C274,846.52,349.59,834,391.24,823.76,344.6,814,272.4,787.57,272.4,787.57,265,783.43,247.57,656,247.57,656c7.27-6,29.41-12,51.54-16.86,8.59-1.88,17.17-3.58,24.89-5,4.77-.89,9.2-1.69,13.09-2.37-4.54-.37-9.08-.67-13.58-.9-1.1-7.62-2-15.54-1.86-19.54C321.65,611.27,414.3,607.52,460,550.38Z" transform="translate(185.76)"/></g></g></g></g></svg>