<svg xmlns="http://www.w3.org/2000/svg" xmlns:xlink="http://www.w3.org/1999/xlink" viewBox="0 0 1920 1223.65"><defs><style>.cls-1,.cls-11,.cls-26,.cls-27,.cls-5{fill:none;}.cls-2{clip-path:url(#clip-path);}.cls-3{fill:url(#Degradado_sin_nombre_30);}.cls-4{fill:url(#Degradado_sin_nombre_4);}.cls-26,.cls-27,.cls-5{stroke:#63294e;}.cls-11,.cls-26,.cls-5{stroke-miterlimit:10;}.cls-6{fill:#fff;}.cls-39,.cls-7{fill:#63294e;}.cls-8{fill:url(#Degradado_sin_nombre_34);}.cls-9{fill:url(#Degradado_sin_nombre_34-2);}.cls-10{fill:url(#Degradado_sin_nombre_33);}.cls-11{stroke:#fff;stroke-width:4px;}.cls-12{fill:#f4eaf9;}.cls-13{fill:url(#linear-gradient);}.cls-14{fill:url(#linear-gradient-2);}.cls-15{fill:url(#linear-gradient-3);}.cls-16{fill:url(#linear-gradient-4);}.cls-17{fill:url(#linear-gradient-5);}.cls-18{fill:url(#linear-gradient-6);}.cls-19{fill:url(#linear-gradient-7);}.cls-20{fill:url(#linear-gradient-8);}.cls-21{fill:url(#linear-gradient-9);}.cls-22{fill:url(#linear-gradient-10);}.cls-23{fill:url(#linear-gradient-11);}.cls-24{fill:url(#linear-gradient-12);}.cls-25{fill:#ffb900;}.cls-26{stroke-width:6px;}.cls-27{stroke-linecap:round;stroke-linejoin:round;stroke-width:5px;}.cls-28{fill:#d1b7e6;}.cls-28,.cls-29,.cls-39{fill-rule:evenodd;}.cls-29,.cls-43{fill:#ecdff2;}.cls-30{fill:gold;}.cls-31{opacity:0.43;}.cls-32{fill:#ffce00;}.cls-33{fill:url(#Degradado_sin_nombre_9);}.cls-34{fill:url(#Degradado_sin_nombre_9-2);}.cls-35{fill:url(#Degradado_sin_nombre_12);}.cls-36{fill:url(#Degradado_sin_nombre_12-2);}.cls-37{fill:#ce5502;}.cls-38{fill:#ffd800;}.cls-40{fill:url(#Degradado_sin_nombre_171);}.cls-41{fill:url(#Degradado_sin_nombre_171-2);}.cls-42{fill:#3f1c30;}.cls-43{opacity:0.4;}.cls-44{fill:#ff9300;}.cls-45{fill:#e66600;}.cls-46{fill:#29161a;}.cls-46,.cls-47{opacity:0.5;}.cls-48{fill:#55327a;}.cls-49{fill:#9d6dd8;}.cls-50{fill:url(#Degradado_sin_nombre_98);}.cls-51{fill:url(#Degradado_sin_nombre_98-2);}.cls-52{fill:url(#Degradado_sin_nombre_92);}</style><clipPath id="clip-path" transform="translate(0 143.38)"><rect class="cls-1" width="1920" height="1080.27"/></clipPath><linearGradient id="Degradado_sin_nombre_30" x1="960" y1="193.91" x2="960" y2="1102.85" gradientUnits="userSpaceOnUse"><stop offset="0.01" stop-color="#dacbff"/><stop offset="1" stop-color="#a978df"/></linearGradient><radialGradient id="Degradado_sin_nombre_4" cx="965.25" cy="76.7" r="944.52" gradientTransform="translate(0 1129.7) scale(1 0.06)" gradientUnits="userSpaceOnUse"><stop offset="0" stop-color="#63294e"/><stop offset="1" stop-color="#63294e" stop-opacity="0"/></radialGradient><linearGradient id="Degradado_sin_nombre_34" x1="207.11" y1="644.81" x2="309.52" y2="813.11" gradientUnits="userSpaceOnUse"><stop offset="0" stop-color="#fff"/><stop offset="0.78" stop-color="#bc96e6" stop-opacity="0.23"/><stop offset="1" stop-color="#a978df" stop-opacity="0"/></linearGradient><linearGradient id="Degradado_sin_nombre_34-2" x1="7175.39" y1="644.81" x2="7277.81" y2="813.11" gradientTransform="matrix(-1, 0, 0, 1, 8850.02, 0)" xlink:href="#Degradado_sin_nombre_34"/><linearGradient id="Degradado_sin_nombre_33" x1="962.87" y1="208.73" x2="962.87" y2="929.88" gradientUnits="userSpaceOnUse"><stop offset="0" stop-color="#fff"/><stop offset="1" stop-color="#a978df"/></linearGradient><linearGradient id="linear-gradient" x1="1486.47" y1="662.94" x2="1501.58" y2="654.68" gradientUnits="userSpaceOnUse"><stop offset="0" stop-opacity="0.72"/><stop offset="1" stop-opacity="0"/></linearGradient><linearGradient id="linear-gradient-2" x1="1483.25" y1="662.1" x2="1468.09" y2="675.43" xlink:href="#linear-gradient"/><linearGradient id="linear-gradient-3" x1="1483.96" y1="716.81" x2="1498.35" y2="708.56" xlink:href="#linear-gradient"/><linearGradient id="linear-gradient-4" x1="1490.85" y1="711.39" x2="1470.62" y2="724.07" xlink:href="#linear-gradient"/><linearGradient id="linear-gradient-5" x1="1482.13" y1="770.31" x2="1499.4" y2="760.12" xlink:href="#linear-gradient"/><linearGradient id="linear-gradient-6" x1="1486.31" y1="768.05" x2="1468.88" y2="776.35" xlink:href="#linear-gradient"/><linearGradient id="linear-gradient-7" x1="385.62" y1="418.18" x2="400.73" y2="409.92" xlink:href="#linear-gradient"/><linearGradient id="linear-gradient-8" x1="382.4" y1="417.34" x2="367.24" y2="430.66" xlink:href="#linear-gradient"/><linearGradient id="linear-gradient-9" x1="383.1" y1="472.04" x2="397.5" y2="463.79" xlink:href="#linear-gradient"/><linearGradient id="linear-gradient-10" x1="390" y1="466.63" x2="369.77" y2="479.31" xlink:href="#linear-gradient"/><linearGradient id="linear-gradient-11" x1="381.27" y1="525.55" x2="398.55" y2="515.36" xlink:href="#linear-gradient"/><linearGradient id="linear-gradient-12" x1="385.46" y1="523.29" x2="368.03" y2="531.59" xlink:href="#linear-gradient"/><linearGradient id="Degradado_sin_nombre_9" x1="-11539.93" y1="785.14" x2="-11454.62" y2="785.14" gradientTransform="matrix(1, 0.05, -0.05, 1, 12561.89, 402.51)" gradientUnits="userSpaceOnUse"><stop offset="0" stop-color="#ffce00"/><stop offset="1" stop-color="#f5801f"/></linearGradient><linearGradient id="Degradado_sin_nombre_9-2" x1="-11656.55" y1="787.4" x2="-11587.01" y2="787.4" xlink:href="#Degradado_sin_nombre_9"/><linearGradient id="Degradado_sin_nombre_12" x1="-11604.01" y1="815.56" x2="-11566.9" y2="815.56" gradientTransform="matrix(1, 0.05, -0.05, 1, 12561.89, 402.51)" gradientUnits="userSpaceOnUse"><stop offset="0.12" stop-color="#ffce00"/><stop offset="1" stop-color="#f5801f"/></linearGradient><linearGradient id="Degradado_sin_nombre_12-2" x1="-11555.34" y1="818.34" x2="-11504.63" y2="818.34" xlink:href="#Degradado_sin_nombre_12"/><radialGradient id="Degradado_sin_nombre_171" cx="-15118.21" cy="594.67" r="12.61" gradientTransform="translate(16000.58 2501.44) rotate(9.98)" gradientUnits="userSpaceOnUse"><stop offset="0.06" stop-color="#f5531f"/><stop offset="0.33" stop-color="#f55a1f" stop-opacity="0.79"/><stop offset="1" stop-color="#f5801f" stop-opacity="0"/></radialGradient><radialGradient id="Degradado_sin_nombre_171-2" cx="-15205.79" cy="595.32" r="12.61" gradientTransform="translate(5913.98 14839.73) rotate(73.09)" xlink:href="#Degradado_sin_nombre_171"/><linearGradient id="Degradado_sin_nombre_98" x1="293" y1="964.46" x2="291.47" y2="984.76" gradientUnits="userSpaceOnUse"><stop offset="0" stop-color="#fff"/><stop offset="1" stop-color="#c8bde2"/></linearGradient><linearGradient id="Degradado_sin_nombre_98-2" x1="219.96" y1="71.89" x2="465.52" y2="-80.25" xlink:href="#Degradado_sin_nombre_98"/><linearGradient id="Degradado_sin_nombre_92" x1="1648.16" y1="376.94" x2="1665.53" y2="253.5" xlink:href="#Degradado_sin_nombre_98"/></defs><g id="Capa_2" data-name="Capa 2"><g id="_2.CAPITULO_2:_UN_HOMBRE_LA_ESENCIA_DE_TODO" data-name="2.CAPITULO 2: UN HOMBRE, LA ESENCIA DE TODO"><g id="Capa_10" data-name="Capa 10"><g class="cls-2"><rect class="cls-3" y="143.38" width="1920" height="1080.27"/><ellipse class="cls-4" cx="965.25" cy="1134.46" rx="815.58" ry="38.53"/><circle class="cls-5" cx="633.94" cy="32.89" r="32.84"/><circle class="cls-6" cx="1747.98" cy="700" r="32.84"/><circle class="cls-6" cx="1665.44" cy="238.53" r="18.88"/><circle class="cls-6" cx="200.42" cy="475.1" r="32.84"/><circle class="cls-6" cx="138.92" cy="386.24" r="22.72"/><circle class="cls-6" cx="266.76" cy="729.56" r="32.84"/><circle class="cls-5" cx="561.89" cy="85.78" r="19.38"/><circle class="cls-5" cx="365.65" cy="96.76" r="19.38"/><circle class="cls-6" cx="1523.91" cy="203.09" r="9.12"/><circle class="cls-6" cx="107.24" cy="692.47" r="9.12"/><circle class="cls-6" cx="1581.69" cy="879.61" r="15.45"/><circle class="cls-6" cx="1581.69" cy="921.75" r="15.45"/><circle class="cls-6" cx="1581.69" cy="963.89" r="15.45"/><circle class="cls-6" cx="1287.06" cy="257.26" r="9.12"/><circle class="cls-7" cx="757.78" cy="806.29" r="4.13"/><circle class="cls-7" cx="757.78" cy="818.3" r="4.13"/><circle class="cls-7" cx="757.78" cy="846" r="4.13"/><circle class="cls-7" cx="757.78" cy="868.79" r="4.13"/><circle class="cls-7" cx="757.78" cy="910.96" r="4.13"/><circle class="cls-7" cx="757.78" cy="924.19" r="4.13"/><path class="cls-8" d="M402.15,642l-47.79,82.76h-94L212.54,642H114.66L65.72,726.76l47.79,82.76L65.72,892.28,114.66,977h97.88l47.78-82.76h96l47.78-82.76h96L549,726.76,500,642ZM70.34,726.76,117,646h93.26l46.62,80.76-46.62,80.76H117ZM210.23,973H117L70.34,892.28,117,811.52h93.26l46.62,80.76ZM354,890.28H260.71l-46.62-80.76,46.62-80.76H354l46.63,80.76Zm143.74-82.76H404.46l-46.63-80.76L404.46,646h93.25l46.63,80.76Z" transform="translate(0 143.38)"/><path class="cls-9" d="M1381.72,642l-48.94,84.76,48.94,84.76h96l47.78,82.76h96L1669.2,977h97.88L1816,892.28l-47.78-82.76L1816,726.76,1767.08,642H1669.2l-47.78,82.76h-94.05L1479.59,642Zm383,165.52h-93.26l-46.63-80.76L1671.51,646h93.26l46.62,80.76Zm-139.89,84.76,46.63-80.76h93.26l46.62,80.76L1764.77,973h-93.26Zm-143.74-82.76,46.63-80.76H1621l46.63,80.76L1621,890.28h-93.25ZM1337.4,726.76,1384,646h93.25l46.63,80.76-46.63,80.76H1384Z" transform="translate(0 143.38)"/><path class="cls-10" d="M1734.05,976.86s6-248-112-354.2a568.24,568.24,0,0,1-105.7-127.56c-85.82-141.35-258.89-383.41-433.43-390.73,0,0-157.08-12.85-294.16,228.47,0,0-58.93,100.05-198.49,8.57,0,0-188.49-172.78-304.16,17.14,0,0-90,195.63,148.51,241.32,0,0,133.51,25,25,117.81a993,993,0,0,1-86.31,58c-36,21.28-76.39,33.59-118,38.06-14.74,1.59-33,9.47-45.63,35.36,0,0-22.84,65-17.13,127.8Z" transform="translate(0 143.38)"/><polyline class="cls-11" points="384.8 760.03 384.8 878.13 722.12 878.13"/><polyline class="cls-11" points="1261.83 589.87 1484.99 589.87 1484.99 753.77"/><polyline class="cls-11" points="1615.31 777.15 1615.31 1012.28 1226.06 1012.28"/><circle class="cls-6" cx="1512.34" cy="542" r="15.45"/><circle class="cls-6" cx="1470.2" cy="542" r="15.45"/><circle class="cls-6" cx="1428.07" cy="542" r="15.45"/><circle class="cls-6" cx="515.71" cy="702.18" r="15.45"/><rect class="cls-12" x="1472.13" y="813.01" width="27.05" height="1.76"/><rect class="cls-12" x="1463.91" y="819.26" width="43.49" height="1.76"/><rect class="cls-12" x="1461.04" y="825.51" width="49.22" height="1.76"/><rect class="cls-12" x="1460.61" y="831.75" width="50.08" height="1.76"/><rect class="cls-12" x="1461.04" y="838" width="49.22" height="1.77"/><rect class="cls-12" x="1463.91" y="844.25" width="43.49" height="1.76"/><rect class="cls-12" x="1472.13" y="850.5" width="27.05" height="1.76"/><rect class="cls-12" x="1472.13" y="865.32" width="27.05" height="1.76"/><rect class="cls-12" x="1463.91" y="871.56" width="43.49" height="1.76"/><rect class="cls-12" x="1461.04" y="877.81" width="49.22" height="1.76"/><rect class="cls-12" x="1460.61" y="884.06" width="50.08" height="1.76"/><rect class="cls-12" x="1461.04" y="890.31" width="49.22" height="1.77"/><rect class="cls-12" x="1463.91" y="896.56" width="43.49" height="1.76"/><rect class="cls-12" x="1472.13" y="902.81" width="27.05" height="1.77"/><rect class="cls-12" x="1472.13" y="918.46" width="27.05" height="1.76"/><rect class="cls-12" x="1463.91" y="924.71" width="43.49" height="1.77"/><rect class="cls-12" x="1461.04" y="930.95" width="49.22" height="1.76"/><rect class="cls-12" x="1472.13" y="797.38" width="27.05" height="1.77"/><rect class="cls-12" x="1463.91" y="791.13" width="43.49" height="1.76"/><rect class="cls-12" x="1461.04" y="784.88" width="49.22" height="1.76"/><path class="cls-12" d="M1461.7,689.29h-6c0-14.95,14.56-22,28.64-28.83,13-6.31,25.26-12.26,25.26-23.45h6c0,14.94-14.56,22-28.63,28.83C1474,672.14,1461.7,678.09,1461.7,689.29Z" transform="translate(0 143.38)"/><path class="cls-12" d="M1515.59,689.29h-6c0-11.2-12.27-17.15-25.26-23.45C1470.27,659,1455.71,652,1455.71,637h6c0,11.19,12.27,17.14,25.26,23.45C1501,667.28,1515.59,674.34,1515.59,689.29Z" transform="translate(0 143.38)"/><path class="cls-12" d="M1461.7,741.57h-6c0-14.94,14.56-22,28.64-28.83,13-6.3,25.26-12.25,25.26-23.45h6c0,14.94-14.56,22-28.63,28.83C1474,724.42,1461.7,730.38,1461.7,741.57Z" transform="translate(0 143.38)"/><path class="cls-12" d="M1515.59,741.57h-6c0-11.19-12.27-17.15-25.26-23.45-14.08-6.83-28.64-13.89-28.64-28.83h6c0,11.2,12.27,17.15,25.26,23.45C1501,719.57,1515.59,726.63,1515.59,741.57Z" transform="translate(0 143.38)"/><path class="cls-12" d="M1461.7,793.86h-6c0-15,14.56-22,28.64-28.84,13-6.3,25.26-12.25,25.26-23.45h6c0,14.95-14.56,22-28.63,28.84C1474,776.71,1461.7,782.66,1461.7,793.86Z" transform="translate(0 143.38)"/><path class="cls-12" d="M1515.59,793.86h-6c0-11.2-12.27-17.15-25.26-23.45-14.08-6.83-28.64-13.89-28.64-28.84h6c0,11.2,12.27,17.15,25.26,23.45C1501,771.85,1515.59,778.91,1515.59,793.86Z" transform="translate(0 143.38)"/><path class="cls-13" d="M1487,660.46c1.83.88,3.66,1.77,5.47,2.69a94,94,0,0,0,10.44-5.94l-4.51-4.19a126.28,126.28,0,0,1-12.71,6.8Z" transform="translate(0 143.38)"/><path class="cls-14" d="M1484.35,665.84c-1.83-.89-3.67-1.78-5.48-2.69a78.13,78.13,0,0,0-13.4,8.1l5.28,3.51a105.08,105.08,0,0,1,14.9-8.29Z" transform="translate(0 143.38)"/><path class="cls-15" d="M1487,712.74c1.83.89,3.66,1.78,5.47,2.69a95.62,95.62,0,0,0,10.44-5.93l-4.51-4.19a128.34,128.34,0,0,1-12.71,6.8Z" transform="translate(0 143.38)"/><path class="cls-16" d="M1484.35,718.13c-1.83-.89-3.67-1.78-5.48-2.69a77.5,77.5,0,0,0-13.4,8.1l5.28,3.51a104.09,104.09,0,0,1,14.9-8.29Z" transform="translate(0 143.38)"/><path class="cls-17" d="M1487,765c1.83.88,3.66,1.78,5.47,2.69a94,94,0,0,0,10.44-5.94l-4.51-4.19a126.28,126.28,0,0,1-12.71,6.8Z" transform="translate(0 143.38)"/><path class="cls-18" d="M1484.35,770.41c-1.83-.89-3.67-1.78-5.48-2.69a78.77,78.77,0,0,0-13.4,8.1l5.28,3.51a105.07,105.07,0,0,1,14.9-8.28Z" transform="translate(0 143.38)"/><rect class="cls-12" x="371.27" y="568.24" width="27.05" height="1.76"/><rect class="cls-12" x="363.05" y="574.49" width="43.49" height="1.76"/><rect class="cls-12" x="360.19" y="580.74" width="49.22" height="1.76"/><rect class="cls-12" x="359.76" y="586.99" width="50.08" height="1.76"/><rect class="cls-12" x="360.19" y="593.24" width="49.22" height="1.77"/><rect class="cls-12" x="363.05" y="599.49" width="43.49" height="1.76"/><rect class="cls-12" x="371.27" y="605.74" width="27.05" height="1.76"/><rect class="cls-12" x="371.27" y="620.55" width="27.05" height="1.76"/><rect class="cls-12" x="363.05" y="626.8" width="43.49" height="1.76"/><rect class="cls-12" x="360.19" y="633.05" width="49.22" height="1.76"/><rect class="cls-12" x="359.76" y="639.3" width="50.08" height="1.76"/><rect class="cls-12" x="360.19" y="645.54" width="49.22" height="1.77"/><rect class="cls-12" x="363.05" y="651.79" width="43.49" height="1.76"/><rect class="cls-12" x="371.27" y="658.04" width="27.05" height="1.77"/><rect class="cls-12" x="371.27" y="673.69" width="27.05" height="1.76"/><rect class="cls-12" x="363.05" y="679.94" width="43.49" height="1.77"/><rect class="cls-12" x="360.19" y="686.19" width="49.22" height="1.76"/><rect class="cls-12" x="371.27" y="552.62" width="27.05" height="1.77"/><rect class="cls-12" x="363.05" y="546.37" width="43.49" height="1.76"/><rect class="cls-12" x="360.19" y="540.12" width="49.22" height="1.76"/><path class="cls-12" d="M360.84,444.53h-6c0-14.95,14.55-22,28.63-28.84,13-6.3,25.26-12.25,25.26-23.45h6c0,14.95-14.56,22-28.64,28.84C373.11,427.38,360.84,433.33,360.84,444.53Z" transform="translate(0 143.38)"/><path class="cls-12" d="M414.74,444.53h-6c0-11.2-12.27-17.15-25.26-23.45-14.08-6.83-28.63-13.89-28.63-28.84h6c0,11.2,12.27,17.15,25.26,23.45C400.18,422.52,414.74,429.58,414.74,444.53Z" transform="translate(0 143.38)"/><path class="cls-12" d="M360.84,496.81h-6c0-14.95,14.55-22,28.63-28.83,13-6.31,25.26-12.26,25.26-23.45h6c0,14.94-14.56,22-28.64,28.83C373.11,479.66,360.84,485.61,360.84,496.81Z" transform="translate(0 143.38)"/><path class="cls-12" d="M414.74,496.81h-6c0-11.2-12.27-17.15-25.26-23.45-14.08-6.83-28.63-13.89-28.63-28.83h6c0,11.19,12.27,17.14,25.26,23.45C400.18,474.8,414.74,481.86,414.74,496.81Z" transform="translate(0 143.38)"/><path class="cls-12" d="M360.84,549.09h-6c0-14.94,14.55-22,28.63-28.83,13-6.3,25.26-12.25,25.26-23.45h6c0,14.94-14.56,22-28.64,28.83C373.11,531.94,360.84,537.89,360.84,549.09Z" transform="translate(0 143.38)"/><path class="cls-12" d="M414.74,549.09h-6c0-11.2-12.27-17.15-25.26-23.45-14.08-6.83-28.63-13.89-28.63-28.83h6c0,11.2,12.27,17.15,25.26,23.45C400.18,527.09,414.74,534.15,414.74,549.09Z" transform="translate(0 143.38)"/><path class="cls-19" d="M386.1,415.69c1.83.89,3.67,1.78,5.48,2.69A94.8,94.8,0,0,0,402,412.44l-4.51-4.18a128.14,128.14,0,0,1-12.7,6.8Z" transform="translate(0 143.38)"/><path class="cls-20" d="M383.49,421.08c-1.83-.89-3.66-1.78-5.47-2.69a77.5,77.5,0,0,0-13.4,8.1L369.9,430c4.19-3,9.45-5.64,14.9-8.29Z" transform="translate(0 143.38)"/><path class="cls-21" d="M386.1,468c1.83.89,3.67,1.78,5.48,2.69A94.8,94.8,0,0,0,402,464.73l-4.51-4.19a128.14,128.14,0,0,1-12.7,6.81Z" transform="translate(0 143.38)"/><path class="cls-22" d="M383.49,473.36c-1.83-.88-3.66-1.78-5.47-2.69a78.77,78.77,0,0,0-13.4,8.1l5.28,3.51c4.19-3,9.45-5.63,14.9-8.28Z" transform="translate(0 143.38)"/><path class="cls-23" d="M386.1,520.26c1.83.89,3.67,1.78,5.48,2.69A94.76,94.76,0,0,0,402,517l-4.51-4.19a128.14,128.14,0,0,1-12.7,6.8Z" transform="translate(0 143.38)"/><path class="cls-24" d="M383.49,525.65c-1.83-.89-3.66-1.78-5.47-2.69a77.5,77.5,0,0,0-13.4,8.1l5.28,3.51a104.52,104.52,0,0,1,14.9-8.29Z" transform="translate(0 143.38)"/><circle class="cls-6" cx="384.8" cy="730.65" r="11.59"/><polygon class="cls-11" points="615.6 201.6 530.26 244.61 524.83 340.02 604.75 392.43 690.09 349.42 695.51 254.01 615.6 201.6"/><circle class="cls-6" cx="530.19" cy="244.16" r="13.48"/><circle class="cls-6" cx="524.91" cy="339.99" r="13.48"/><circle class="cls-6" cx="604.65" cy="392.08" r="13.48"/><circle class="cls-6" cx="689.44" cy="350.03" r="13.48"/><polyline class="cls-11" points="433.93 478.37 513.85 530.77 599.19 487.76 604.61 392.35"/><circle class="cls-6" cx="434.01" cy="478.33" r="13.48"/><circle class="cls-6" cx="513.74" cy="530.42" r="13.48"/><circle class="cls-6" cx="598.54" cy="488.38" r="13.48"/><circle class="cls-6" cx="694.99" cy="254.27" r="13.48"/><circle class="cls-6" cx="615.71" cy="203.09" r="13.48"/><rect class="cls-11" x="1208.74" y="358.76" width="156.64" height="166.93" rx="15.84"/><circle class="cls-6" cx="1618.49" cy="752.28" r="11.59"/><rect class="cls-25" x="660.61" y="297.26" width="647.31" height="852.41" rx="30.24"/><rect class="cls-6" x="692.32" y="333.02" width="583.9" height="785.39"/><circle class="cls-26" cx="1173.26" cy="1024.47" r="52.03"/><polygon class="cls-7" points="1167.44 1034.71 1147.59 1018.04 1170.14 1053.83 1201.51 997.45 1167.44 1034.71"/><line class="cls-27" x1="1098.87" y1="437.28" x2="1114.31" y2="437.28"/><line class="cls-27" x1="1128.28" y1="437.28" x2="1203.29" y2="437.28"/><line class="cls-27" x1="1098.87" y1="455.29" x2="1126.08" y2="455.29"/><line class="cls-27" x1="1153.29" y1="455.29" x2="1203.29" y2="455.29"/><line class="cls-27" x1="1098.87" y1="473.68" x2="1174.98" y2="473.68"/><line class="cls-27" x1="1188.95" y1="473.68" x2="1203.29" y2="473.68"/><line class="cls-27" x1="1203.29" y1="491.33" x2="1128.28" y2="491.33"/><line class="cls-27" x1="775.21" y1="806.29" x2="839.43" y2="806.29"/><line class="cls-27" x1="845.56" y1="806.29" x2="887.97" y2="806.29"/><line class="cls-27" x1="775.21" y1="818.3" x2="839.43" y2="818.3"/><line class="cls-27" x1="845.56" y1="818.3" x2="887.97" y2="818.3"/><line class="cls-27" x1="775.21" y1="846" x2="887.97" y2="846"/><line class="cls-27" x1="775.21" y1="868.79" x2="872.53" y2="868.79"/><line class="cls-27" x1="775.21" y1="910.96" x2="843.6" y2="910.96"/><line class="cls-27" x1="775.21" y1="924.19" x2="843.6" y2="924.19"/><path class="cls-28" d="M934,453.44c-29.35-34.53-111.56-75.79-150.26-40.8C708.12,481,878.91,578.31,941,582.59c59.72,4.12,47.57-64.91-7-129.15Z" transform="translate(0 143.38)"/><path class="cls-29" d="M810.06,431.39c-2.32,6.73,24.77,18.6,27.45,12.64,2.54-5.75-25-19.69-27.45-12.64Zm96.12,32c-.95,2.66,4.1,4.47,5.14,2.16s-4.22-4.92-5.14-2.16ZM827.27,472c-.95,2.66,4.14,4.53,5.14,2.16s-4.18-4.91-5.14-2.16Zm50.59-19.37c-.89,2.62,4.15,4.48,5.19,2.17s-4.22-4.92-5.19-2.17ZM802.8,477.67c-.91,2.67,4.14,4.48,5.18,2.17s-4.22-4.92-5.18-2.17Zm43.89,11.17c-1.8,5.29,8.29,9,10.33,4.32,2-4.49-8.4-9.83-10.33-4.32Zm13.56-18.29c-.76,7.13,28.37,12.55,29.59,6.12,1.13-6.16-28.79-13.52-29.59-6.12Zm6.61-38.33c-2.32,6.78,24.77,18.65,27.45,12.64,2.48-5.7-25-19.64-27.45-12.64Zm-54.08-17c-1.85,5.29,10.35,10.15,12.44,5.43,2-4.5-10.5-11-12.44-5.43ZM789.14,431c-1.86,5.33,10.35,10.14,12.38,5.46,2-4.5-10.5-11-12.38-5.46Zm17.12,17.56c-1.85,5.33,10.35,10.15,12.38,5.47,2-4.5-10.5-11-12.38-5.47Zm44.25-4.12c-2.38,6.77,13.19,12.93,15.81,7,2.54-5.74-13.36-14-15.81-7ZM827,456.7c-2.32,6.78,18.54,15.55,21.21,9.59,2.49-5.71-18.75-16.59-21.21-9.59Zm7.46-37.39c-2.32,6.74,18.54,15.56,21.21,9.6,2.49-5.76-18.75-16.64-21.21-9.6Z" transform="translate(0 143.38)"/><path class="cls-28" d="M1040.66,459.12c32.85-31.22,119-63.51,153.74-24.61,67.91,76-112.24,154.62-174.4,152.29-59.81-2.24-40.4-69.6,20.66-127.68Z" transform="translate(0 143.38)"/><path class="cls-29" d="M1169.36,451.32c-1.72-7.26-30.54,3.76-28.61,9.74,2,6.2,30.21-2.8,28.61-9.74Zm-98.92,21.86c-.62-2.84-6.07-.75-5.33,1.61s6,1.14,5.33-1.61Zm77.6,16.71c-.67-2.84-6.12-.7-5.33,1.62s6,1.13,5.33-1.62Zm-48.32-24.5c-.67-2.84-6.12-.75-5.38,1.62s6,1.08,5.38-1.62Zm72.07,32.72c-.67-2.84-6.12-.75-5.38,1.62s6,1.13,5.38-1.62ZM1127,504.68c-1.35-5.68-12.25-1.45-10.72,3.23,1.54,4.87,12,2.22,10.72-3.23Zm-11.6-19.59c0-7.45-30.55-3.22-30.06,3,.55,6.53,30.08,4.15,30.06-3Zm-2.61-38.81c-1.72-7.21-30.49,3.8-28.61,9.73,2,6.26,30.22-2.74,28.61-9.73ZM1168.32,435c-1.36-5.73-14.46-.57-12.93,4.1,1.59,4.91,14.22,1.34,12.93-4.1Zm21.88,18.08c-1.3-5.68-14.41-.53-12.88,4.15,1.54,4.87,14.18,1.34,12.88-4.15Zm-18.84,15.7c-1.31-5.68-14.42-.52-12.88,4.15,1.54,4.87,14.17,1.35,12.88-4.15Zm-43.58-8.68c-1.72-7.21-18.39-.69-16.45,5.29,2,6.21,18.1,1.69,16.45-5.29Zm22.12,14.63c-1.72-7.22-24,1.41-22.09,7.34,2,6.21,23.7-.36,22.09-7.34Zm-3.55-38c-1.72-7.26-24,1.37-22.09,7.35,2,6.21,23.69-.41,22.09-7.35Z" transform="translate(0 143.38)"/><path class="cls-7" d="M1100.56,666.84s19.79,17.21,48.75,16.56c0,0-10.14,25.92-67.58,15.32C1081.73,698.72,1070.15,678.42,1100.56,666.84Z" transform="translate(0 143.38)"/><path class="cls-30" d="M1045.85,677.27c28.88-24.31,34.35-63.77,13.74-91.08l-1.21-.46c-2.72-1-5.37-1.79-7.93-2.48,10.25,24.78,2.7,55.16-21,75.12-24.88,20.93-59.68,23.8-84.82,9-.64-.38-1.28-.77-1.91-1.18.79,2.17,1.69,4.29,2.68,6.36a73.42,73.42,0,0,0,4.3,7.77C976,702.07,1017.32,701.28,1045.85,677.27Z" transform="translate(0 143.38)"/><path class="cls-30" d="M1020.74,651.29c22.52-19,27.92-48.94,14.26-71a80.19,80.19,0,0,0-10.54-.66,91.78,91.78,0,0,1-16.85-.17,80.7,80.7,0,0,1-14.22-2.78A71.89,71.89,0,0,1,986,574c-6.22-2.6-26.62,13.62-30.84,18.67-12.87,15.43-16.06,35.2-16.58,41.37a77.46,77.46,0,0,0,.51,17.75,55.21,55.21,0,0,0,5.38,4.45C966,671.81,998.17,670.28,1020.74,651.29Z" transform="translate(0 143.38)"/><path class="cls-7" d="M1054.85,684.24c27.34-23,36.28-57.91,25.1-86.92a81.73,81.73,0,0,0-20.36-11.13c20.61,27.31,15.14,66.77-13.74,91.08-28.53,24-69.89,24.8-96.17,3.06a81.84,81.84,0,0,0,18.61,20.44C996.15,710.69,1029.83,705.3,1054.85,684.24Z" transform="translate(0 143.38)"/><path class="cls-7" d="M1029.43,658.37c23.72-20,31.27-50.34,21-75.12a109.12,109.12,0,0,0-15.45-3c13.66,22.09,8.26,52.07-14.26,71s-54.74,20.52-76.32,5a55.21,55.21,0,0,1-5.38-4.45,73,73,0,0,0,3.66,14.39c.63.41,1.27.8,1.91,1.18C969.75,682.17,1004.55,679.3,1029.43,658.37Z" transform="translate(0 143.38)"/><path class="cls-30" d="M1100.74,620.82a76.52,76.52,0,0,0-20.79-23.5c11.18,29,2.24,63.91-25.1,86.92-25,21.06-58.7,26.45-86.56,16.53A97.86,97.86,0,0,0,996,715.94l1.47.51a102.69,102.69,0,0,0,14.21,3.75c19.85-.74,40.82-8.52,58.26-23.19C1095.07,675.85,1106,646.11,1100.74,620.82Z" transform="translate(0 143.38)"/><path class="cls-7" d="M1107.53,637.3a71.62,71.62,0,0,0-6.79-16.48c5.3,25.29-5.67,55-30.81,76.19-17.44,14.67-38.41,22.45-58.26,23.19a93.86,93.86,0,0,0,44.1-2.14,113.94,113.94,0,0,0,21.67-14.37c16.19-13.63,27.13-30.44,32.4-47.67A63.83,63.83,0,0,0,1107.53,637.3Z" transform="translate(0 143.38)"/><path class="cls-30" d="M1077.44,703.69a113.94,113.94,0,0,1-21.67,14.37c12.32-3.63,19.52-8.55,19.52-8.55,25.7-17.19,34-36.42,34.55-53.49C1104.57,673.25,1093.63,690.06,1077.44,703.69Z" transform="translate(0 143.38)"/><path class="cls-7" d="M923.48,868l-.09,0a12.62,12.62,0,0,1-4.7.28l-4.34-.56a22.72,22.72,0,0,0-8,.39l-2.75.63c-2.23.51-4.47,1-6.69,1.59s-4.43,1.23-6.66,1.73a41,41,0,0,1-6.78.95,35.77,35.77,0,0,1-6.92-.23,28.32,28.32,0,0,1-3.54-.69c-.59-.15-1.19-.33-1.79-.54a14.49,14.49,0,0,1-1.82-.74,13.72,13.72,0,0,1-3-22.81,15,15,0,0,1,1.57-1.18c.53-.36,1.06-.68,1.6-1a32.1,32.1,0,0,1,3.24-1.57,35.81,35.81,0,0,1,6.64-2,40.64,40.64,0,0,1,6.78-.82c2.29-.09,4.6,0,6.9,0s4.58-.11,6.87-.19l6.86-.23,6.88-.16c2.45,0,4.89-.08,7.35-.09,6.63,0,11.65,5.31,12.13,12a31.49,31.49,0,0,1,0,5C932.94,862.87,928.44,866.78,923.48,868Z" transform="translate(0 143.38)"/><ellipse class="cls-30" cx="919.07" cy="841.76" rx="8.59" ry="12.82" transform="translate(5.99 1833.38) rotate(-85.38)"/><path class="cls-7" d="M920.27,843.65l-.51,0a6.05,6.05,0,0,1-5.51-6.53c4.64-54.75,14-97,21-122.86,7.64-28.14,14.13-43.15,14.4-43.78a6,6,0,0,1,11.07,4.82h0c-.26.59-25.72,60.11-34.41,162.84A6,6,0,0,1,920.27,843.65Z" transform="translate(0 143.38)"/><path class="cls-7" d="M1033.6,870.85l.09,0a13,13,0,0,0,4.78.28l4.4-.57a23.11,23.11,0,0,1,8.08.4l2.79.64c2.26.52,4.53,1,6.79,1.61s4.5,1.25,6.76,1.76a42.07,42.07,0,0,0,6.87,1,36.13,36.13,0,0,0,7-.23,31.54,31.54,0,0,0,3.59-.7c.6-.16,1.21-.33,1.82-.55a14.83,14.83,0,0,0,1.84-.75,13.91,13.91,0,0,0,6.55-18.56,14.12,14.12,0,0,0-3.53-4.58,15.42,15.42,0,0,0-1.59-1.2c-.54-.36-1.08-.69-1.62-1a32.06,32.06,0,0,0-3.29-1.6,36.8,36.8,0,0,0-6.73-2,40.9,40.9,0,0,0-6.89-.83c-2.32-.09-4.66,0-7,0s-4.65-.11-7-.19l-7-.23-7-.17c-2.49,0-5-.08-7.46-.08-6.73,0-11.83,5.38-12.31,12.2a32.38,32.38,0,0,0,0,5C1024,865.64,1028.57,869.6,1033.6,870.85Z" transform="translate(0 143.38)"/><ellipse class="cls-30" cx="1038.08" cy="844.21" rx="13.01" ry="8.72" transform="translate(-64.66 229.78) rotate(-4.62)"/><path class="cls-7" d="M1036.86,846a6,6,0,0,1-6-5.52c-4.61-54.47-13.86-96.49-20.8-122.15-7.53-27.82-14-42.94-14.11-43.09a6,6,0,0,1,11.06-4.82c.27.64,6.86,15.86,14.6,44.41,7.11,26.2,16.57,69.09,21.28,124.63a6,6,0,0,1-5.51,6.52A4.35,4.35,0,0,1,1036.86,846Z" transform="translate(0 143.38)"/><path class="cls-30" d="M1021.35,461.08c-13.69-5.85-31.76,8.76-31.76,8.76s4.61,14.25,19.66,11.42c0,0,10-4.52,11.26-9.18Z" transform="translate(0 143.38)"/><path class="cls-30" d="M907.09,472.4c3.12,5.48,12.12,9.74,12.12,9.74,19.43,6.91,22.29-9.78,22.29-9.78s-17-15.85-31-11Z" transform="translate(0 143.38)"/><ellipse class="cls-30" cx="1030.6" cy="610.39" rx="12.12" ry="15.55" transform="translate(-45.01 226.73) rotate(-4.53)"/><g class="cls-31"><path class="cls-6" d="M1011.67,587.85s81.93-17.34,92.55,59.9C1104.22,647.75,1074.39,593,1011.67,587.85Z" transform="translate(0 143.38)"/></g><ellipse class="cls-7" cx="977.06" cy="571.63" rx="44.4" ry="60.9" transform="translate(-41.23 220.54) rotate(-4.43)"/><path class="cls-32" d="M983.09,503.38l1,5.86,1,5.86c.33,1.95.66,3.89,1,5.82.17,1,.35,1.91.53,2.86l.27,1.41.28,1.37a12.66,12.66,0,1,1-24.93.65l0-.23.24-1.58.26-1.53c.17-1,.34-2,.52-3q.54-3,1.1-6l1.13-5.92,1.16-5.91a8.35,8.35,0,0,1,16.44.24Z" transform="translate(0 143.38)"/><path class="cls-33" d="M1004.57,530c1.59.48,3.08.95,4.6,1.44s3,1,4.53,1.51q4.51,1.54,9,3.2c6,2.22,11.9,4.6,17.77,7.23a178,178,0,0,1,17.4,8.85c2.86,1.68,5.68,3.49,8.47,5.52a58.56,58.56,0,0,1,8.11,7.09,35,35,0,0,1,3.72,4.73c.29.44.56.93.84,1.39s.53,1,.79,1.5a18,18,0,0,1,1.34,3.92,18.47,18.47,0,0,1-.09,8.27c-.08.34-.17.67-.27,1s-.21.67-.33,1-.24.65-.37,1c-.07.15-.14.33-.21.46l-.18.4a27.15,27.15,0,0,1-1.63,2.94,38.91,38.91,0,0,1-8,8.95,55.62,55.62,0,0,1-9.23,6.23,86.93,86.93,0,0,1-19.6,7.59c-3.32.87-6.63,1.59-10,2.2s-6.64,1.07-9.95,1.47a10.31,10.31,0,0,1-2.49-20.47l.69-.06h.1c2.93-.15,5.85-.35,8.73-.67s5.73-.73,8.52-1.26a68.66,68.66,0,0,0,15.79-4.82,39.07,39.07,0,0,0,6.64-3.79,22.72,22.72,0,0,0,4.89-4.62,10.36,10.36,0,0,0,.75-1.11l.12-.2a.76.76,0,0,0,.08-.11.67.67,0,0,0,.06-.12.31.31,0,0,0,.06-.13,2.5,2.5,0,0,0,.23-1,2.28,2.28,0,0,0-.08-.55c-.09-.2-.16-.4-.26-.61s-.19-.43-.31-.66a18.73,18.73,0,0,0-1.87-2.81,41.78,41.78,0,0,0-5.61-5.72,82.91,82.91,0,0,0-6.88-5.31,166.29,166.29,0,0,0-15.43-9.45c-5.37-2.92-10.88-5.67-16.48-8.27q-4.2-1.95-8.46-3.79l-4.26-1.8c-1.42-.59-2.88-1.18-4.25-1.72l-.06,0a4.63,4.63,0,0,1,3-8.74Z" transform="translate(0 143.38)"/><path class="cls-34" d="M949.13,536.4c-1.16.66-2.4,1.39-3.6,2.1s-2.41,1.45-3.61,2.19q-3.6,2.22-7.14,4.53c-4.7,3.09-9.31,6.29-13.77,9.64a160.17,160.17,0,0,0-12.71,10.55c-2,1.84-3.87,3.74-5.61,5.67a51.11,51.11,0,0,0-4.64,5.92,21.13,21.13,0,0,0-2.75,5.66c0,.2-.12.42-.14.61l-.06.28c0,.1,0,.21,0,.21a2.21,2.21,0,0,0,.06.34,2.09,2.09,0,0,0,.38.76l.4.69.44.71c.3.46.59.88.9,1.28a16.92,16.92,0,0,0,2,2.17,19.41,19.41,0,0,0,4.89,3.32,37.94,37.94,0,0,0,13.26,3.27,74.83,74.83,0,0,0,7.53.23c2.57,0,5.18-.23,7.79-.46h.08a10.31,10.31,0,0,1,1.83,20.54,8.19,8.19,0,0,1-.85,0c-3.11,0-6.23,0-9.39-.23a93.58,93.58,0,0,1-9.57-1.11,66.43,66.43,0,0,1-9.73-2.41,47.66,47.66,0,0,1-9.64-4.39,36.57,36.57,0,0,1-8.63-7.15,35,35,0,0,1-3.38-4.55c-.49-.79-.95-1.59-1.36-2.37-.21-.4-.41-.79-.59-1.17l-.27-.56-.31-.66a18.12,18.12,0,0,1-1.68-7.51,16.9,16.9,0,0,1,.43-3.93c.07-.35.14-.58.21-.83L880,579c.15-.51.33-1,.5-1.44a31.3,31.3,0,0,1,2.5-5.09,44.55,44.55,0,0,1,3-4.27,66.82,66.82,0,0,1,6.55-7.09c2.27-2.14,4.6-4.13,7-6a172.72,172.72,0,0,1,14.61-10.25c5-3.14,10-6.08,15.15-8.87q3.84-2.09,7.73-4.07c1.3-.66,2.6-1.31,3.91-2s2.61-1.27,4-1.91a4.67,4.67,0,0,1,4.29,8.28Z" transform="translate(0 143.38)"/><path class="cls-30" d="M976.7,552.26l-11.3-.61a14.52,14.52,0,0,0-12.93,6.58l-6.17,9.48a14.5,14.5,0,0,0-.77,14.49l5.12,10.08a14.52,14.52,0,0,0,12.17,7.92l11.29.6a14.52,14.52,0,0,0,12.94-6.58l6.16-9.48a14.5,14.5,0,0,0,.78-14.49l-5.13-10.08A14.5,14.5,0,0,0,976.7,552.26Z" transform="translate(0 143.38)"/><path class="cls-7" d="M977.37,576.72l.48-.15h0l-.52.14Z" transform="translate(0 143.38)"/><path class="cls-7" d="M965.1,592.39h0s0,0,0,0Z" transform="translate(0 143.38)"/><path class="cls-7" d="M982.15,581.68a7.4,7.4,0,0,0-1-2.08,8.49,8.49,0,0,0-1.65-1.74,6.35,6.35,0,0,0-2.09-1.14h0l.52-.14a6.76,6.76,0,0,0,3.23-2,6.63,6.63,0,0,0,1.53-4.15,7.72,7.72,0,0,0-.56-3.47,7.21,7.21,0,0,0-2-2.71,10,10,0,0,0-3.13-1.8,14.07,14.07,0,0,0-4-.78l-3.77-.2c-.63,0-1.35,0-2.16,0a22.91,22.91,0,0,0-2.37.24c-.77.11-1.49.23-2.17.36s-1.2.24-1.57.34l-1.2,22.52q-.31,6.06,5.44,7.45h0a15.39,15.39,0,0,0,2.82.38l3.36.18a12.85,12.85,0,0,0,4.08-.41,10,10,0,0,0,3.5-1.7,9,9,0,0,0,2.49-2.93,9.54,9.54,0,0,0,1.09-4.11A6.24,6.24,0,0,0,982.15,581.68Zm-15.71-8.49.33-6.36,1.37-.14a8.69,8.69,0,0,1,1.31-.05l2.33.12a8.36,8.36,0,0,1,1.71.28,4.92,4.92,0,0,1,1.5.69,3.11,3.11,0,0,1,1.39,2.88,3.11,3.11,0,0,1-1.62,2.8,6.24,6.24,0,0,1-1.75.6l-.5.06a8.63,8.63,0,0,1-1.35,0l-4.76-.26h0l0-.55Zm8.37,13.21a5.65,5.65,0,0,1-3.82.86l-2.54-.14a3.47,3.47,0,0,1-1.51-.39l-.05,0h0l-.11-.08-.22-.16a1.89,1.89,0,0,1-.43-.47,1.54,1.54,0,0,1-.26-1l.33-6.16v-.24l4.94.26a6.78,6.78,0,0,1,4,1.17c.83.69,1.19,1.87,1.1,3.57A3.58,3.58,0,0,1,974.81,586.4Z" transform="translate(0 143.38)"/><path class="cls-35" d="M933.83,583.34s-4.1,5.5-1.91,18.12a28.21,28.21,0,0,0,7.39,14.88,21.26,21.26,0,0,0,11.31,6.35,25.6,25.6,0,0,1,2.68.67c2.47.75,8.29,1.62,11.47-.72a4.09,4.09,0,0,0,1.17-5.1c-1.13-2.33-3.87-5.41-10.24-4,0,0-8.19,2.4-9.17-2.28,0,0-.66-4.74,8-3.27,0,0,12.31,4.91,13.51-6.24,0,0-1.64-9.82-13.43-3.88,0,0-8.67,5.81-11.21,1.22,0,0-2.2-3.86,7.85-7,0,0,5.34-1.75,6-6.45a6.38,6.38,0,0,0-3.72-6.75c-2.54-1.08-6.45-.81-11.25,5.89,0,0-4,6.23-6.45,7C935.79,591.72,934.74,587.67,933.83,583.34Z" transform="translate(0 143.38)"/><path class="cls-36" d="M1028.39,611.85c2.93-6.82,3.66-16.48-7.48-26.76a46.49,46.49,0,0,1-1.4,7.45s-9.73,0-16.44-5.38a27.61,27.61,0,0,0-9.78-5.28,15.74,15.74,0,0,0-7.13-.59,6.62,6.62,0,0,0-4,10.34c1.55,2.25,4.49,4.47,10,4.33,0,0,16.35.23,15.07,5.26,0,0,.22,6-15.68.95,0,0-8.68-2.46-11.57,3.57a7.67,7.67,0,0,0,.66,7.9c1.5,2,4.4,3.68,9.9,1.7,0,0,12.93-6.11,16.07-1.39,0,0,1.25,4.21-11.58,5.68,0,0-6.17.67-6.39,5.88a3.85,3.85,0,0,0,.48,2.1c.64,1.15,2.11,2.81,5.4,3.25a11.27,11.27,0,0,0,6.93-1.39,66.83,66.83,0,0,1,13.07-5.62A21.47,21.47,0,0,0,1028.39,611.85Z" transform="translate(0 143.38)"/><path class="cls-37" d="M1056.36,471.46s-36.92,30.46-106.6-.13c0,0-49-27.19-46.61-74.29,0,0,13-16.38,39.16-19.92,0,0,29.67-3.08,51,5.6,0,0,27,11.72,42.53,22.41,0,0,23.16,11.81,24.28,27.95C1060.08,433.08,1062.63,461.77,1056.36,471.46Z" transform="translate(0 143.38)"/><ellipse class="cls-7" cx="982.85" cy="423.66" rx="72.64" ry="78.81" transform="translate(400.31 1464.88) rotate(-80.34)"/><path class="cls-38" d="M965.27,418.22s-8.46-23.74-25-27.3a16.42,16.42,0,0,0-12.48,2.38c-6.21,4.13-15.51,14.41-18.8,39.55,0,0-15.12,26.81,5.63,49.73a80.75,80.75,0,0,0,17.07,16.09s40.61,28.21,81.19,2.47c0,0,20.6-8.33,25.64-31.34,4.21-19.21-4.15-28.63-4.15-28.63,2.83-13.33-7.11-40.71-28.25-47a24.21,24.21,0,0,0-15.12.37C984,397.06,973.6,403.22,965.27,418.22Z" transform="translate(0 143.38)"/><path class="cls-39" d="M997.13,404.87c-1.67-2.55-10.07-.65-9.85,4.53s12.68-.13,9.85-4.53Z" transform="translate(0 143.38)"/><path class="cls-39" d="M931.94,403.28c1.46-2.67,10-1.4,10.16,3.78s-12.66.82-10.16-3.78Z" transform="translate(0 143.38)"/><path class="cls-7" d="M946.82,458.42c.15-.15.28-.3.43-.44s.29-.29.44-.42c.3-.28.6-.55.91-.81a23.1,23.1,0,0,1,1.94-1.48,29.31,29.31,0,0,1,4.25-2.45l.56-.25.57-.24.58-.22.58-.22c.78-.27,1.58-.51,2.38-.7a22.67,22.67,0,0,1,2.46-.46,23.34,23.34,0,0,1,2.51-.17,19.72,19.72,0,0,1,5,.58,20.11,20.11,0,0,1,4.66,1.81l.55.3.53.32.27.16.13.08.13.09.51.34.13.09.12.09.25.19.25.18.25.19c.31.26.64.5.94.78l.47.4.44.43c.3.27.58.57.86.86l.41.45.4.46.39.47.37.48a.33.33,0,0,1-.05.47.34.34,0,0,1-.42,0h0l-.92-.76-.46-.37-.23-.18-.23-.18c-.32-.23-.62-.48-.94-.7l-.48-.34-.48-.32c-.32-.23-.65-.43-1-.63-.16-.11-.33-.2-.49-.3l-.25-.15-.13-.07-.12-.07c-.68-.37-1.36-.71-2.06-1a20.9,20.9,0,0,0-8.79-1.85h-.56l-.57,0-.56,0-.56.06c-.76.08-1.51.2-2.25.35s-1.49.34-2.22.55l-.56.17-.54.17-.55.19-.54.2a36.53,36.53,0,0,0-4.25,1.9l-1,.56-1,.59c-.34.2-.68.4-1,.62l-.49.32-.48.32h0a.33.33,0,0,1-.43-.49Z" transform="translate(0 143.38)"/><path class="cls-7" d="M965,490.7h.08c7.77.22,15.14-4.61,21.88-14.36a1.83,1.83,0,1,0-3-2.08c-6,8.67-12.31,13-18.77,12.8h-.07c-11-.36-19.31-13.62-19.39-13.76a1.83,1.83,0,0,0-3.12,1.91C943,475.82,952,490.28,965,490.7Z" transform="translate(0 143.38)"/><path class="cls-7" d="M981.32,472.16a5.24,5.24,0,0,0,1.4,2.71,6.15,6.15,0,0,0,2.64,1.64,6,6,0,0,0,3.1.17,5.19,5.19,0,0,0,2.64-1.33.56.56,0,0,0,0-.79.65.65,0,0,0-.27-.17l-.09,0c-.46-.13-.88-.14-1.28-.22s-.77-.11-1.12-.21a10.86,10.86,0,0,1-2-.56,13.44,13.44,0,0,1-1.84-.83c-.62-.32-1.28-.74-2-1.1l-.17-.09a.76.76,0,0,0-1,.33A.88.88,0,0,0,981.32,472.16Z" transform="translate(0 143.38)"/><path class="cls-7" d="M946.33,469.57c-.65.48-1.24,1-1.8,1.43a15.22,15.22,0,0,1-1.67,1.12A12.4,12.4,0,0,1,941,473c-.33.16-.7.23-1.08.39s-.78.23-1.22.43l-.08,0a.57.57,0,0,0-.28.75.52.52,0,0,0,.21.23,5.7,5.7,0,0,0,1.34.64,5.59,5.59,0,0,0,1.48.24,6.11,6.11,0,0,0,3-.68,6.19,6.19,0,0,0,2.33-2.06,5.16,5.16,0,0,0,.93-2.9.74.74,0,0,0-.75-.76.72.72,0,0,0-.45.15Z" transform="translate(0 143.38)"/><path class="cls-6" d="M1001.64,413.92c-10-1.15-19.24,7.38-20.57,19-1.23,10.84,4.77,20.56,13.68,22.8,4.33-2.43,10.64-5.28,17-5.72a23.41,23.41,0,0,0,5.66-12.94C1018.73,425.44,1011.67,415.06,1001.64,413.92Z" transform="translate(0 143.38)"/><ellipse class="cls-40" cx="1008.07" cy="467.1" rx="13.51" ry="11.63" transform="translate(-55.87 290.45) rotate(-8.12)"/><path class="cls-6" d="M937.92,412.94c-9.56-3.25-20.37,3.12-24.14,14.23-2.54,7.46-1.25,15.16,2.76,20.4,5.87.32,11.66,3.18,16.14,6.11,6.81-1.36,13-6.86,15.71-14.74C952.17,427.83,947.48,416.19,937.92,412.94Z" transform="translate(0 143.38)"/><ellipse class="cls-41" cx="920.52" cy="464.9" rx="11.63" ry="13.51" transform="translate(184.1 1330.2) rotate(-71.23)"/><g class="cls-31"><path class="cls-6" d="M1022.61,491.34s23.17-18.85,7.34-47.28c0,0,5.7-17.23-10.2-36.69,0,0,8.89,26.35,2.74,40.39C1022.49,447.76,1037.63,467.08,1022.61,491.34Z" transform="translate(0 143.38)"/></g><ellipse class="cls-7" cx="994.86" cy="431.72" rx="14.62" ry="11.62" transform="translate(453.29 1514.69) rotate(-83.5)"/><ellipse class="cls-42" cx="994.86" cy="431.72" rx="8.65" ry="6.88" transform="translate(453.29 1514.69) rotate(-83.5)"/><circle class="cls-6" cx="990.42" cy="566.67" r="4.97"/><ellipse class="cls-7" cx="928.91" cy="429.58" rx="14.62" ry="11.62" transform="matrix(0.32, -0.95, 0.95, 0.32, 223.23, 1314.2)"/><ellipse class="cls-42" cx="928.91" cy="429.58" rx="8.61" ry="6.85" transform="translate(223.23 1314.2) rotate(-71.23)"/><circle class="cls-6" cx="926.37" cy="563.78" r="4.97"/><path class="cls-43" d="M926.14,437.74a6.4,6.4,0,0,1-4-4.62l-4.9,1.66c.84,4.1,3.31,7.41,7,8.65l.11,0,2-5.67Z" transform="translate(0 143.38)"/><path class="cls-43" d="M988.64,435.86l-4.74,1.6c1.25,4.14,4,7.34,7.61,8.44l2-5.65A6.72,6.72,0,0,1,988.64,435.86Z" transform="translate(0 143.38)"/><path class="cls-6" d="M910.19,356.21l4.08-.2-4.07.2Z" transform="translate(0 143.38)"/><path d="M914.27,356l-4.07.2h0l4.08-.2Z" transform="translate(0 143.38)"/><path class="cls-6" d="M928.77,338.12c-.63.89-1.29,1.84-1.95,2.87h0C927.48,340,928.14,339,928.77,338.12Z" transform="translate(0 143.38)"/><path d="M928.77,338.12c-.63.89-1.29,1.84-1.95,2.87h0c.66-1,1.32-2,1.95-2.87Z" transform="translate(0 143.38)"/><path class="cls-6" d="M909.79,356.23l.4,0h0Z" transform="translate(0 143.38)"/><path d="M910.2,356.21l-.4,0,.39,0Zm-.4,0h0Z" transform="translate(0 143.38)"/><path class="cls-6" d="M970.72,332.28c.56-.73,1.11-1.41,1.64-2.06C971.83,330.87,971.28,331.55,970.72,332.28Z" transform="translate(0 143.38)"/><path d="M972.36,330.22c-.53.65-1.08,1.33-1.64,2.06.56-.73,1.11-1.41,1.64-2.06Z" transform="translate(0 143.38)"/><path class="cls-6" d="M968.91,334.75q.89-1.26,1.74-2.37Q969.8,333.49,968.91,334.75Z" transform="translate(0 143.38)"/><path d="M970.65,332.38c-.29.37-.58.76-.87,1.15.29-.39.58-.78.87-1.15Zm-.87,1.15c-.29.39-.58.8-.87,1.22.29-.42.58-.83.87-1.22Z" transform="translate(0 143.38)"/><path class="cls-6" d="M968.43,353.9c-.16.59-.32,1.21-.48,1.83C968.14,355.09,968.29,354.48,968.43,353.9Z" transform="translate(0 143.38)"/><path d="M968.43,353.9c-.16.59-.32,1.21-.48,1.83.19-.64.34-1.25.48-1.83Z" transform="translate(0 143.38)"/><path class="cls-6" d="M909.76,356.23h0Z" transform="translate(0 143.38)"/><path d="M909.79,356.23v0m0,.19v0m0,.24v0m0-.43h0Zm0,0h0Z" transform="translate(0 143.38)"/><path class="cls-6" d="M1005.14,365.25c4.31,3.3,8.22,6.6,11.76,9.86C1013.36,371.85,1009.45,368.55,1005.14,365.25Z" transform="translate(0 143.38)"/><path d="M1005.14,365.25c4.31,3.3,8.22,6.6,11.76,9.86-3.54-3.26-7.45-6.56-11.76-9.86Z" transform="translate(0 143.38)"/><path class="cls-6" d="M994.48,359.34c.51.17,1,.36,1.48.55C995.49,359.7,995,359.51,994.48,359.34Z" transform="translate(0 143.38)"/><path d="M994.48,359.34c.51.17,1,.36,1.48.55-.47-.19-1-.38-1.48-.55Z" transform="translate(0 143.38)"/><path class="cls-6" d="M957.76,356h0Z" transform="translate(0 143.38)"/><path d="M957.76,356Z" transform="translate(0 143.38)"/><path class="cls-6" d="M972.47,330.09c.51-.62,1-1.2,1.49-1.75C973.48,328.89,973,329.47,972.47,330.09Z" transform="translate(0 143.38)"/><path d="M974,328.34c-.48.55-1,1.13-1.49,1.75.51-.62,1-1.2,1.49-1.75Z" transform="translate(0 143.38)"/><path class="cls-6" d="M967.76,356.44Z" transform="translate(0 143.38)"/><path d="M967.74,356.44h0Zm0,0Z" transform="translate(0 143.38)"/><path class="cls-6" d="M967.74,356.44c-2.84-.14-6-.28-9.3-.4C961.78,356.16,964.9,356.3,967.74,356.44Z" transform="translate(0 143.38)"/><path d="M958.44,356c3.22.12,6.24.25,9,.38-2.76-.13-5.78-.26-9-.38Zm9,.38.3,0-.3,0Z" transform="translate(0 143.38)"/><path class="cls-6" d="M993.69,359.07a32.5,32.5,0,0,0-9.13-1.58s-2.49-.21-6.78-.48c4.29.27,6.78.48,6.78.48A32.5,32.5,0,0,1,993.69,359.07Z" transform="translate(0 143.38)"/><path d="M977.78,357c4.29.27,6.78.48,6.78.48a32.63,32.63,0,0,1,9.14,1.58,32.63,32.63,0,0,0-9.14-1.58s-2.49-.21-6.78-.48Z" transform="translate(0 143.38)"/><path class="cls-6" d="M904.65,356.56h0Z" transform="translate(0 143.38)"/><path d="M904.65,356.56h0Zm0,0h0Z" transform="translate(0 143.38)"/><polygon class="cls-6" points="904.63 499.93 904.63 499.93 904.63 499.93 904.63 499.93"/><polygon points="904.63 499.93 904.63 499.93 904.63 499.93 904.63 499.93"/><path class="cls-44" d="M1046.72,414.1s-.31-.76-1-2.14c-2.21-4.52-8.39-15.7-20.66-28.76-.8-.85-1.61-1.7-2.46-2.56l-.17-.18-1.66-1.66q-1.86-1.83-3.88-3.69c-3.54-3.26-7.45-6.56-11.76-9.86-.61-.47-1.24-.94-1.87-1.41a32.83,32.83,0,0,0-7.31-3.95c-.47-.19-1-.38-1.48-.55l-.79-.27a32.5,32.5,0,0,0-9.13-1.58s-2.49-.21-6.78-.48l-.88-.06-1.44-.09-3.17-.18-1.74-.1-.9,0-1.87-.1h0c-2.84-.14-6-.28-9.3-.4l-.45,0h-.23c-11.11-.39-24.53-.61-38-.21h-.43c-1.54,0-3.08.1-4.62.17l-.46,0-4.08.2-.4,0h0c-1.71.1-3.42.2-5.11.33h0c-12.91.92-25,2.61-34.18,5.5a6,6,0,0,0-4,4c-.59,2-.28,4.82,3.31,7.76,0,0,31.29,21.68,33.39,23.23,0,0,46.52-46.26,143.57,17h0Z" transform="translate(0 143.38)"/><path class="cls-44" d="M1065.07,457.52c1.16-2.86,14.8-37.75,4.26-75.8,0,0-6.72-21.09-31.21-37.56a95.86,95.86,0,0,0-9.51-5.64c-7.6-2.78-24.18-8.33-36.54-8.91a12.89,12.89,0,0,0-6.75,1.53c-4.73,2.58-13,8.89-16.89,22.76-.14.58-.29,1.19-.48,1.83-.05.24-.11.47-.17.71l1.87.1.9,0,1.74.1,3.17.18,1.44.09.88.06c4.29.27,6.78.48,6.78.48a32.5,32.5,0,0,1,9.13,1.58l.79.27c.51.17,1,.36,1.48.55a32.83,32.83,0,0,1,7.31,3.95c.63.47,1.26.94,1.87,1.41,4.31,3.3,8.22,6.6,11.76,9.86q2,1.86,3.88,3.69l1.66,1.66.17.18c.85.86,1.66,1.71,2.46,2.56,12.27,13.06,18.45,24.24,20.66,28.76.68,1.38,1,2.14,1,2.14h0a48.41,48.41,0,0,1,3,4.84s9.62,19.21,6.61,52.53c0,0,7.69-1,8.78-7.16a18.45,18.45,0,0,0-.05-5.93C1065.09,458.08,1065.08,457.8,1065.07,457.52Z" transform="translate(0 143.38)"/><path class="cls-6" d="M984.44,322l-1.72,0a6.81,6.81,0,0,0-4.33,1.76,6.81,6.81,0,0,1,4.33-1.76Z" transform="translate(0 143.38)"/><path d="M984.44,322h0Zm0,0-1.68,0a6.81,6.81,0,0,0-4.33,1.76,6.81,6.81,0,0,1,4.33-1.76l1.68,0Z" transform="translate(0 143.38)"/><path class="cls-6" d="M965.14,340.57c-.48.8-.95,1.62-1.42,2.48h0C964.19,342.2,964.66,341.36,965.14,340.57Z" transform="translate(0 143.38)"/><path d="M965.14,340.57c-.48.8-.95,1.62-1.42,2.48h0c.47-.85.94-1.69,1.42-2.48Z" transform="translate(0 143.38)"/><path class="cls-6" d="M958,356l.45,0H958Z" transform="translate(0 143.38)"/><path d="M958,356h0Zm.12,0h0Z" transform="translate(0 143.38)"/><path class="cls-45" d="M909.76,356.23h0l.41,0c1.31-2.56,4.18-7.77,7.18-10.91a6.44,6.44,0,0,1,2.9-1.73,41.17,41.17,0,0,0,6.54-2.58c.66-1,1.32-2,1.95-2.87l.12-.16.52-.71.62-.83a78.89,78.89,0,0,0-25.4,20.14h0C906.34,356.43,908.05,356.33,909.76,356.23Z" transform="translate(0 143.38)"/><path class="cls-46" d="M903.14,397.05c58.34-34.79,143.56,17.05,143.56,17.05C949.66,350.78,903.14,397.05,903.14,397.05Z" transform="translate(0 143.38)"/><path class="cls-45" d="M1065.09,458.37h0c0-.28,0-.57,0-.85h0C1065.08,457.8,1065.09,458.08,1065.09,458.37Z" transform="translate(0 143.38)"/><path class="cls-45" d="M1065.09,458.37h0c0-.29,0-.57,0-.85h0A237.84,237.84,0,0,0,1063,432a69.59,69.59,0,0,0-8.66-25.64,60.06,60.06,0,0,0-33.54-27.53h0c19.31,19,25.94,35.3,25.94,35.3h0a48.41,48.41,0,0,1,3,4.84s9.62,19.21,6.61,52.53c0,0,7.69-1,8.78-7.16h0A18.45,18.45,0,0,0,1065.09,458.37Z" transform="translate(0 143.38)"/><path class="cls-7" d="M932.52,352.32l-.24,0a2.44,2.44,0,0,1-2.1-2.72c0-.24,2.8-24.17-18.47-42.88a2.43,2.43,0,1,1,3.22-3.65c23.27,20.48,20.22,46.07,20.07,47.15A2.43,2.43,0,0,1,932.52,352.32Z" transform="translate(0 143.38)"/><path class="cls-7" d="M916.4,306.67h0a6.69,6.69,0,0,0-.86-8.43L908,290.66a6.7,6.7,0,0,0-10.16.8l-1.65,2.27a6.7,6.7,0,0,0,2.08,9.75l9.22,5.3A6.71,6.71,0,0,0,916.4,306.67Z" transform="translate(0 143.38)"/><path class="cls-44" d="M958.68,352.37a6.47,6.47,0,0,0-4.33-6.93,25.71,25.71,0,0,1-11.61-7.74,6.08,6.08,0,0,0-1.21-1.12,6.45,6.45,0,0,0-4.5-1.12,6.75,6.75,0,0,0-1.63.42,7,7,0,0,0-1.39.76l0,0a48.5,48.5,0,0,1-7.15,4.33h0a41.17,41.17,0,0,1-6.54,2.58,6.44,6.44,0,0,0-2.9,1.73c-3,3.14-5.87,8.35-7.18,10.91l4.07-.2.46,0c1.54-.07,3.08-.13,4.62-.17h.43c13.45-.4,26.87-.18,38,.21.18-.48.37-1,.56-1.44C958.47,353.78,958.6,353,958.68,352.37Z" transform="translate(0 143.38)"/><path class="cls-45" d="M982.72,322.07a6.81,6.81,0,0,0-4.33,1.76l-.32.29-.42.4c-.44.41-.92.88-1.44,1.4l-.61.64-.15.16c-.22.22-.43.46-.66.7h0l-.69.76-.14.16c-.48.55-1,1.13-1.49,1.75l-.11.13c-.53.65-1.08,1.33-1.64,2.06l-.07.1q-.85,1.11-1.74,2.37l0,.07c-.6.85-1.21,1.74-1.82,2.68l0,0c-.61.95-1.24,1.95-1.86,3v0c-.48.79-.95,1.63-1.42,2.48h0a25.61,25.61,0,0,1-10.16-6.88l-.41-.48a6.39,6.39,0,0,0-6.58-2.07,87,87,0,0,0-9.54,1.84,6.45,6.45,0,0,1,4.5,1.12,6.08,6.08,0,0,1,1.21,1.12,25.71,25.71,0,0,0,11.61,7.74,6.47,6.47,0,0,1,4.33,6.93c-.08.67-.21,1.41-.36,2.2-.19.48-.38,1-.56,1.44h.68c3.34.12,6.46.26,9.3.4h0c.06-.24.12-.47.17-.71.16-.62.32-1.24.48-1.83,3.93-13.87,12.16-20.18,16.89-22.76a12.89,12.89,0,0,1,6.75-1.53c12.36.58,28.94,6.13,36.54,8.91a95.86,95.86,0,0,1,9.51,5.64c-1.78-3.55-4-8.51-9.18-12.14,0,0-17.77-8.29-37.88-9.76h0l-.6,0c-.79,0-2.26-.12-4.25-.18-.57,0-1.15,0-1.72,0Z" transform="translate(0 143.38)"/><path class="cls-44" d="M928.89,338l-.12.16c-.63.89-1.29,1.84-1.95,2.87a48.5,48.5,0,0,0,7.15-4.33l0,0a7,7,0,0,1,1.39-.76,6.75,6.75,0,0,1,1.63-.42,87,87,0,0,1,9.54-1.84,6.39,6.39,0,0,1,6.58,2.07l.41.48a25.61,25.61,0,0,0,10.16,6.88c.47-.86.94-1.68,1.42-2.48v0c.62-1.05,1.25-2.05,1.86-3l0,0c.61-.94,1.22-1.83,1.82-2.68l0-.07q.89-1.26,1.74-2.37l.07-.1c.56-.73,1.11-1.41,1.64-2.06l.11-.13c.51-.62,1-1.2,1.49-1.75l.14-.16.69-.76h0c.23-.24.44-.48.66-.7l.15-.16.61-.64c.52-.52,1-1,1.44-1.4l.42-.4.32-.29a6.81,6.81,0,0,1,4.33-1.76l1.72,0c.57,0,1.15,0,1.72,0-8.59-.26-26.72-.28-40,3.32a29.85,29.85,0,0,0-15.39,10.13l-.73.93-.62.83Z" transform="translate(0 143.38)"/><g class="cls-47"><ellipse class="cls-6" cx="1033.27" cy="359.44" rx="11.09" ry="23.93" transform="translate(131.29 1121.9) rotate(-53.65)"/></g><path class="cls-7" d="M1031.7,364.45a2.38,2.38,0,0,1-.86-.19,2.44,2.44,0,0,1-1.3-3.19c.18-.42,17.73-42.8,9.06-67.45a2.43,2.43,0,1,1,4.58-1.62c9.3,26.43-8.4,69.15-9.16,71A2.44,2.44,0,0,1,1031.7,364.45Z" transform="translate(0 143.38)"/><path class="cls-7" d="M1043.53,297.61h0a6.72,6.72,0,0,0,3.62-7.67l-2.59-10.39a6.7,6.7,0,0,0-9.11-4.56l-2.59,1.1a6.69,6.69,0,0,0-3.24,9.42l5.16,9.3A6.71,6.71,0,0,0,1043.53,297.61Z" transform="translate(0 143.38)"/><path class="cls-48" d="M802.09,205a33.06,33.06,0,0,0,33.06,33.06h301.41a33.06,33.06,0,0,0,33-33.06V192.61H802.09Z" transform="translate(0 143.38)"/><polygon class="cls-49" points="971.55 318.2 802.09 318.2 802.09 335.99 1169.61 335.99 1169.61 318.2 999.44 318.2 971.55 318.2"/><path class="cls-48" d="M1047.82,118.71c.12-1.59.2-3.2.2-4.83a62.53,62.53,0,0,0-125,0c0,1.63.08,3.24.2,4.83H802.09v56.12h367.52V118.71Zm-34.53,0a28.19,28.19,0,1,1,.42-4.83A28.22,28.22,0,0,1,1013.29,118.71Z" transform="translate(0 143.38)"/><circle class="cls-6" cx="1780.83" cy="378.6" r="32.84"/><path class="cls-50" d="M365,963.84l-126.93-2.6L134.9,959.12s19.09,10.54,33,12.33l33.35,4.79,28.87,4.15L419,1006.49s19.4,2.78,29.48-1.49c-1.41.32-2.84.62-4.28.88C444.16,1005.88,392.72,1014.83,365,963.84Z" transform="translate(0 143.38)"/><path class="cls-6" d="M558.65,718.3l-246.43-6.43s60.33,178.51-74.16,249.37L365,963.84c27.73,51,79.17,42,79.17,42,1.44-.26,2.87-.56,4.28-.88C575.28,976,558.65,718.3,558.65,718.3Z" transform="translate(0 143.38)"/><path class="cls-51" d="M112.43-26.95s-5,170.23,164.05,229.29l124.81-85.62S277.74,83.59,284-82.92Z" transform="translate(0 143.38)"/><path class="cls-52" d="M1550.31,419.16S1641,350,1575.15,234.48l86.28,32.88s61.44-11,78.72,55.2c0,0,21.12,97-55.68,150.24Z" transform="translate(0 143.38)"/></g></g></g></g></svg>