<svg xmlns="http://www.w3.org/2000/svg" viewBox="0 0 1920 1080"><defs><style>.cls-1{fill:#f3ebff;}.cls-2{fill:#d8ccea;}.cls-3{fill:#ff9300;}.cls-4,.cls-57{fill:#ffb900;}.cls-5{fill:#e66600;}.cls-6{fill:#c99fe3;}.cls-7{fill:#b588db;}.cls-8{fill:#835eb7;}.cls-9{fill:#9d6dd8;}.cls-10,.cls-18{fill:#311352;}.cls-11{fill:#55327a;}.cls-12{fill:#eeeeef;}.cls-12,.cls-13,.cls-14{fill-rule:evenodd;}.cls-13,.cls-47{fill:#fff;}.cls-14,.cls-15{fill:#d0b6e5;}.cls-16{fill:#9c81c6;}.cls-17{fill:#3e196d;}.cls-18{opacity:0.22;}.cls-19{fill:#5a4aa0;}.cls-20{fill:#513b96;}.cls-21{fill:#493087;}.cls-22{fill:#9991d8;}.cls-23{fill:#46297c;}.cls-24{fill:#402172;}.cls-25{fill:#6d3a6a;}.cls-26{fill:#bbaece;}.cls-27{fill:#523187;}.cls-28{fill:#553152;}.cls-29{fill:#e9d7f4;}.cls-30{fill:#a981c6;}.cls-31{fill:#9d77bf;}.cls-32{fill:#dec2f2;}.cls-33{fill:#422140;}.cls-34{fill:#5e2b5e;}.cls-35{fill:#724e71;}.cls-36{fill:#824982;}.cls-37{fill:#705099;}.cls-38,.cls-45,.cls-60{fill:none;}.cls-38{stroke:#000;}.cls-38,.cls-45{stroke-linecap:round;stroke-linejoin:round;}.cls-38,.cls-60{stroke-width:2px;}.cls-39{fill:#9786a5;}.cls-40{fill:#f5f0fc;}.cls-41{fill:#d0c7dd;}.cls-42{fill:#4d2a84;}.cls-43{fill:#6c489b;}.cls-44{fill:#c5b6dd;}.cls-45{stroke:#55327a;stroke-width:4px;}.cls-46,.cls-56{fill:#ffc83f;}.cls-48{fill:#9272b7;}.cls-49{fill:#aa86c4;}.cls-50{fill:#b89dd1;}.cls-51{fill:#e6d7f9;}.cls-52{fill:#c3afe2;}.cls-53{fill:#f6c329;}.cls-54{fill:#f1e8f9;}.cls-55{fill:#7856a5;}.cls-56{opacity:0.3;}.cls-57{opacity:0.5;}.cls-58{fill:#412566;}.cls-59{fill:#a295b7;}.cls-60{stroke:#412566;stroke-miterlimit:10;}</style></defs><g id="Capa_2" data-name="Capa 2"><g id="_1.CAPITULO_1:_EL_PRINCIPIO_DE_LA_HISTORIA" data-name="1.CAPITULO 1: EL PRINCIPIO DE LA HISTORIA"><g id="Imagen_1" data-name="Imagen 1"><rect class="cls-1" width="1920" height="883.88"/><rect class="cls-2" y="883.88" width="1920" height="196.12"/><polygon class="cls-3" points="50.25 216.31 34.24 209.92 34.24 182.33 50.25 188.72 50.25 216.31"/><polygon class="cls-3" points="374.46 188.72 50.25 188.72 34.24 182.33 354.13 182.33 374.46 188.72"/><rect class="cls-4" x="50.25" y="188.72" width="324.21" height="27.59"/><polygon class="cls-5" points="359.43 216.31 323.83 216.31 323.83 251.91 341.63 251.91 359.43 216.31"/><polygon class="cls-5" points="97.42 216.31 61.82 216.31 61.82 251.91 79.62 251.91 97.42 216.31"/><rect class="cls-6" x="109.19" y="55.6" width="31.96" height="133.51" rx="2.2" transform="translate(214.38 272.95) rotate(-164.99)"/><rect class="cls-7" x="89.96" y="106.37" width="70.42" height="31.96" transform="translate(-25.42 211.56) rotate(-74.99)"/><rect class="cls-8" x="155.24" y="55.21" width="31.96" height="133.51" rx="2.2" transform="translate(342.44 243.93) rotate(-180)"/><rect class="cls-6" x="155.24" y="78.84" width="31.96" height="7.92"/><rect class="cls-6" x="155.24" y="157.95" width="31.96" height="7.92"/><rect class="cls-9" x="187.2" y="55.21" width="31.96" height="133.51" rx="2.2" transform="translate(406.36 243.93) rotate(180)"/><rect class="cls-10" x="187.2" y="86.75" width="31.96" height="71.2"/><rect class="cls-7" x="219.16" y="55.21" width="31.96" height="133.51" rx="2.2" transform="translate(470.29 243.93) rotate(180)"/><rect class="cls-8" x="219.16" y="78.84" width="31.96" height="7.92"/><rect class="cls-8" x="219.16" y="157.95" width="31.96" height="7.92"/><rect class="cls-10" x="251.12" y="55.21" width="31.96" height="133.51" rx="2.2" transform="translate(534.21 243.93) rotate(180)"/><rect class="cls-11" x="251.12" y="78.84" width="31.96" height="7.92"/><rect class="cls-11" x="251.12" y="157.95" width="31.96" height="7.92"/><path class="cls-9" d="M331.14,188.72H302.76l9.42-133,12.57,5.18a10.34,10.34,0,0,1,6.39,9.56Z"/><rect class="cls-11" x="283.09" y="55.21" width="31.96" height="133.51" rx="2.2" transform="translate(598.14 243.93) rotate(180)"/><rect class="cls-10" x="283.09" y="78.84" width="31.96" height="7.92"/><rect class="cls-10" x="283.09" y="157.95" width="31.96" height="7.92"/><polygon class="cls-3" points="50.25 375.84 34.24 369.45 34.24 341.86 50.25 348.25 50.25 375.84"/><polygon class="cls-3" points="374.46 348.25 50.25 348.25 34.24 341.86 354.13 341.86 374.46 348.25"/><rect class="cls-4" x="50.25" y="348.25" width="324.21" height="27.59"/><polygon class="cls-5" points="359.43 375.84 323.83 375.84 323.83 411.44 341.63 411.44 359.43 375.84"/><polygon class="cls-5" points="97.42 375.84 61.82 375.84 61.82 411.44 79.62 411.44 97.42 375.84"/><path class="cls-11" d="M269.46,341l-125.93,4.37L134.76,341V337.5h134.7c3.85,0,7-2.3,7-5.13V320.72c0-2.82-1.42-.3-5.28-.3l-127.64-2.18-8.77-6.11h134.7c6.46,0,11.73,3.86,11.73,8.59v11.65C281.19,337.11,275.92,341,269.46,341Z"/><polygon class="cls-12" points="145.47 343.6 137.17 338.26 137.17 315.43 145.47 319.7 145.47 343.6"/><path class="cls-13" d="M145.4,345.34H278.22c5.17,0,9.37-3.07,9.37-6.86V326.84c0-3.79-4.2-6.86-9.37-6.86H145.4Z"/><polygon class="cls-14" points="145.4 326.32 159.57 327.34 145.4 328.74 145.4 326.32"/><polygon class="cls-14" points="145.4 335.15 157.33 336.11 145.4 337.42 145.4 335.15"/><path class="cls-15" d="M193.4,327.77c9.25-.91,18.5-1.15,27.75-1.21q6.94,0,13.88.21c4.63.18,9.25.46,13.88,1-4.63.54-9.25.81-13.88,1s-9.25.25-13.88.22C211.9,328.91,202.65,328.68,193.4,327.77Z"/><path class="cls-15" d="M180.22,336.34c9.25-.91,18.5-1.14,27.75-1.21q6.94,0,13.88.22c4.62.18,9.25.45,13.88,1-4.63.54-9.26.82-13.88,1s-9.25.24-13.88.21C198.72,337.49,189.47,337.26,180.22,336.34Z"/><polygon class="cls-14" points="145.4 326.32 141.88 326.21 145.4 328.74 145.4 326.32"/><polygon class="cls-14" points="145.4 335.15 142.68 334.99 145.4 337.42 145.4 335.15"/><path class="cls-16" d="M278.22,347.08H143.53v-3.47H278.22c3.86,0,7-2.3,7-5.13V326.84c0-2.83-3.14-5.13-7-5.13H143.53v-3.47H278.22c6.47,0,11.74,3.86,11.74,8.6v11.64C290,343.22,284.69,347.08,278.22,347.08Z"/><path class="cls-17" d="M287.57,321.66h0l-.06,0a10.9,10.9,0,0,0-2.46-1.75l-7.27-5.18h0a14.08,14.08,0,0,0-8.34-2.56H259.08l10.22,9.58h7.15c4,0,4.74.49,4.74.49,2.37.82,4,2.59,4,4.64v11.64c0,2.83-3.14,5.13-7,5.13H269.3v3.47h8.92c6.47,0,11.74-3.86,11.74-8.6V326.84A7.22,7.22,0,0,0,287.57,321.66Z"/><polygon class="cls-16" points="143.53 321.71 134.76 315.57 134.76 312.13 143.53 318.24 143.53 321.71"/><polygon class="cls-16" points="143.53 343.61 134.76 337.5 134.76 340.97 143.53 347.08 143.53 343.61"/><path class="cls-11" d="M269.46,311.52l-125.93,4.37-8.77-4.37v-3.47h134.7c3.85,0,7-2.3,7-5.13V291.28c0-2.83-1.42-.31-5.28-.31l-127.64-2.18-8.77-6.11h134.7c6.46,0,11.73,3.86,11.73,8.6v11.64C281.19,307.66,275.92,311.52,269.46,311.52Z"/><polygon class="cls-12" points="145.47 314.15 137.17 308.81 137.17 285.98 145.47 290.25 145.47 314.15"/><path class="cls-13" d="M145.4,315.89H278.22c5.17,0,9.37-3.07,9.37-6.85V297.39c0-3.79-4.2-6.86-9.37-6.86H145.4Z"/><polygon class="cls-14" points="145.4 296.87 159.57 297.89 145.4 299.29 145.4 296.87"/><polygon class="cls-14" points="145.4 305.7 157.33 306.66 145.4 307.97 145.4 305.7"/><path class="cls-15" d="M193.4,298.32c9.25-.91,18.5-1.15,27.75-1.21q6.94,0,13.88.21c4.63.18,9.25.46,13.88,1-4.63.54-9.25.81-13.88,1s-9.25.25-13.88.22C211.9,299.46,202.65,299.23,193.4,298.32Z"/><path class="cls-15" d="M180.22,306.9c9.25-.92,18.5-1.15,27.75-1.22q6.94,0,13.88.22c4.62.18,9.25.45,13.88,1-4.63.54-9.26.81-13.88,1s-9.25.24-13.88.22C198.72,308,189.47,307.81,180.22,306.9Z"/><polygon class="cls-14" points="145.4 296.87 141.88 296.76 145.4 299.29 145.4 296.87"/><polygon class="cls-14" points="145.4 305.7 142.68 305.54 145.4 307.97 145.4 305.7"/><path class="cls-16" d="M278.22,317.63H143.53v-3.47H278.22c3.86,0,7-2.3,7-5.12V297.39c0-2.83-3.14-5.13-7-5.13H143.53v-3.47H278.22c6.47,0,11.74,3.86,11.74,8.6V309C290,313.78,284.69,317.63,278.22,317.63Z"/><path class="cls-17" d="M287.57,292.21h0l-.06,0a10.9,10.9,0,0,0-2.46-1.75l-7.27-5.18h0a14.08,14.08,0,0,0-8.34-2.56H259.08l10.22,9.58h7.15c4,0,4.74.49,4.74.49,2.37.82,4,2.59,4,4.64V309c0,2.82-3.14,5.12-7,5.12H269.3v3.47h8.92c6.47,0,11.74-3.85,11.74-8.59V297.39A7.22,7.22,0,0,0,287.57,292.21Z"/><polygon class="cls-16" points="143.53 292.26 134.76 286.13 134.76 282.68 143.53 288.79 143.53 292.26"/><polygon class="cls-16" points="143.53 314.16 134.76 308.05 134.76 311.52 143.53 317.63 143.53 314.16"/><polygon class="cls-3" points="541.43 781.66 559.57 781.66 526.42 1080 541.12 1080 575.45 771.07 542.6 771.07 541.43 781.66"/><polygon class="cls-5" points="541.43 781.66 526.72 781.66 493.57 1080 508.28 1080 526.42 1080 559.57 781.66 541.43 781.66"/><polygon class="cls-3" points="1366.09 781.66 1364.92 771.07 1332.07 771.07 1366.4 1080 1381.1 1080 1347.96 781.66 1366.09 781.66"/><polygon class="cls-5" points="1380.8 781.66 1366.09 781.66 1347.96 781.66 1381.1 1080 1399.24 1080 1413.95 1080 1380.8 781.66"/><rect class="cls-5" x="489.32" y="787.47" width="928.88" height="37.97"/><path class="cls-18" d="M1245.81,665.3l-9.66,2.13L1224,625.28a8.45,8.45,0,0,0-2.42-3.9l-.17-.15a8.88,8.88,0,0,0-2-1.31l-.22-.1a8,8,0,0,0-1.09-.44h0a9.14,9.14,0,0,0-1.15-.27l-.27-.05a9.24,9.24,0,0,0-1.18-.11h0a9.65,9.65,0,0,0-1.2.06l-.3,0a10.51,10.51,0,0,0-1.22.24l-4.7,1.32V373.81c0-19.14-16.15-34.65-36.08-34.65H770.43c-19.93,0-36.08,15.51-36.08,34.65V649.89c0,19.13,16.15,34.65,36.08,34.65H925.29l-23.71,41.35H773.79c-10.42,0-18.88,8.12-18.88,18.13V755.2h425.26V744c0-10-8.45-18.13-18.88-18.13H1036.61l-23.71-41.35h147.94l.47,1.56c.15.51.33,1,.52,1.49.05.15.12.29.18.44.14.34.3.68.46,1l.22.45c.18.34.37.68.57,1,.07.11.13.22.19.33.28.44.57.87.88,1.29l0,0c.3.4.61.78.94,1.16.08.09.16.17.23.26.28.3.56.6.86.89l.25.24c.34.33.69.64,1,.94l.09.08c.42.34.85.66,1.3,1h0a21.15,21.15,0,0,0,7,3.17,21.51,21.51,0,0,0,10.63-.09l53.18-14.13c4-1.68,7.88-9.62,10.28-15.44A3.71,3.71,0,0,0,1245.81,665.3Z"/><path class="cls-18" d="M888.18,447.6c-24.58-6.8-46.18-7.49-64.95-4.45,15.55-47.32,7.53-90.58,7.53-90.58-18.84,5-35.49,17.93-49.14,32.43-.35-4.76-.78-9.6-1.32-14.54,0,0-7.46-46.2-7.46-71.54,0,0-32.08,20.13-60.36,61-5.77-32.81-16.51-70.08-36.5-95.25,0,0-25.23,35.86-35.43,86.41-15.63-19.59-34.51-38.06-57-52.13a698.85,698.85,0,0,0-6.69,87.73,147.55,147.55,0,0,0-22.61-20.31,411.5,411.5,0,0,0,4.41,209.08c.08.27.15.55.23.82q4.58,15.82,10.38,31.11,1.29,3.38,2.62,6.73A409.23,409.23,0,0,0,666.35,755.2H792.67v-1a45.12,45.12,0,0,0-19-36.8c7.25-27.39,13.91-46.66,13.91-46.66,9.69-28.07,2.49-43.22,2.49-43.22-.66-1.45-1.27-2.87-1.84-4.24a124.17,124.17,0,0,1-5.36-15.88h7a17.75,17.75,0,0,0,3-35.24C872.26,534,888.18,447.6,888.18,447.6Z"/><path class="cls-6" d="M604.09,571.89c-16.69-14.63-28.15-36-35.87-60.51a281.34,281.34,0,0,1-9.38-41.07,133.8,133.8,0,0,0-47.33-24.19c-21.71-6-47.82-7-78.58,1.48,0,0,17,92.16,103.33,128.17a17.67,17.67,0,0,1,11-3.88Z"/><path class="cls-19" d="M586.43,626s10.33-8.4,16.45-18.63H550.67a127.7,127.7,0,0,1-7.21,20.12s-7.2,15.15,2.49,43.22l.65,1.94a102.63,102.63,0,0,0,9.28-11.63A168.68,168.68,0,0,1,586.43,626Z"/><path class="cls-6" d="M553.67,386.65c-13.93-15.17-31.14-28.85-50.69-34.08,0,0-8.36,45.08,8.53,93.55a133.8,133.8,0,0,1,47.33,24.19C554.45,442.24,553.3,412.93,553.67,386.65Z"/><path class="cls-20" d="M587.55,699.81s10.56-42.1,42.85-74.51a62.29,62.29,0,0,0,13.27-17.89H602.88C596.76,617.64,586.43,626,586.43,626a168.68,168.68,0,0,0-30.55,35,102.63,102.63,0,0,1-9.28,11.63c2.35,7,10.6,32.38,18,63.82C572,731,580.69,720.39,587.55,699.81Z"/><path class="cls-6" d="M689.26,359.89c-5.78-32.81-16.52-70.08-36.51-95.25,0,0-25.22,35.86-35.43,86.41,18.27,22.91,32.1,47.35,42,68.11A237.49,237.49,0,0,1,689.26,359.89Z"/><path class="cls-6" d="M558.84,470.31a281.34,281.34,0,0,0,9.38,41.07c7.72,24.48,19.18,45.88,35.87,60.51h53.72c-11.81-43.16-13-81.11-7.94-113.9a232.89,232.89,0,0,1,9.48-38.83c-9.93-20.76-23.76-45.2-42-68.11-15.63-19.59-34.5-38.06-57-52.13a700.11,700.11,0,0,0-6.68,87.73C553.3,412.93,554.45,442.24,558.84,470.31Z"/><path class="cls-17" d="M711.68,698.38c-21.45,23.76-31.83,44.17-36.64,56.82h66.5a760.19,760.19,0,0,1,22.85-84.45c9.69-28.07,2.49-43.22,2.49-43.22-.66-1.45-1.27-2.87-1.84-4.24C755.68,655,711.68,698.38,711.68,698.38Z"/><path class="cls-21" d="M707.32,571.89h-160a17.76,17.76,0,0,0,0,35.52H766.64a17.76,17.76,0,0,0,0-35.52Z"/><path class="cls-22" d="M769.66,572.17a17.66,17.66,0,0,0-3-.28H547.31a17.76,17.76,0,0,0,0,35.52h6.75c-5.57-2.59-9.37-7.68-9.37-13.54a14.7,14.7,0,0,1,6.71-12,19.46,19.46,0,0,1,11.05-3.35h218A17.78,17.78,0,0,0,769.66,572.17Z"/><path class="cls-23" d="M686.53,673.23s35.84-35.75,45.46-65.82H690.84c-9.83,19.93-28,36.89-28,36.89C639.26,665,629,692.05,625.44,703.5a152.33,152.33,0,0,1-27.26,51.7h42.46a157.16,157.16,0,0,0,7.16-19.06C651.31,724.69,661.2,701.3,686.53,673.23Z"/><path class="cls-21" d="M625.44,703.5c3.52-11.45,13.82-38.51,37.37-59.2,0,0,18.2-17,28-36.89H643.67A62.29,62.29,0,0,1,630.4,625.3c-32.29,32.41-42.85,74.51-42.85,74.51-6.86,20.58-15.54,31.21-22.9,36.7,1.43,6,2.83,12.29,4.15,18.69h29.38a152.33,152.33,0,0,0,27.26-51.7Z"/><path class="cls-24" d="M686.53,673.23c-25.33,28.07-35.22,51.46-38.73,62.91a157.16,157.16,0,0,1-7.16,19.06H675c4.81-12.65,15.19-33.06,36.64-56.82,0,0,44-43.36,53.36-75.09a125.33,125.33,0,0,1-5.37-15.88H732C722.37,637.48,686.53,673.23,686.53,673.23Z"/><rect class="cls-3" x="478.02" y="755.2" width="951.55" height="36.64" rx="14.97"/><path class="cls-11" d="M437.91,618.33a25.65,25.65,0,0,0,13.25-14.39.84.84,0,0,1,1.57,0c1.49,3.94,5.27,11.48,13.26,14.56a.85.85,0,0,1,.11,1.54c-3.44,1.81-10.71,6.39-13.49,13.91a.84.84,0,0,1-1.55,0c-1.64-3.69-5.68-11-13.09-14.12A.85.85,0,0,1,437.91,618.33Z"/><circle class="cls-11" cx="490.84" cy="692.44" r="7.92"/><path class="cls-11" d="M482.23,183.91a25.74,25.74,0,0,0,13.25-14.4.84.84,0,0,1,1.57,0c1.49,3.94,5.27,11.48,13.25,14.56a.84.84,0,0,1,.12,1.54c-3.44,1.81-10.71,6.39-13.49,13.92a.84.84,0,0,1-1.55,0c-1.64-3.69-5.68-11-13.09-14.12A.84.84,0,0,1,482.23,183.91Z"/><circle class="cls-11" cx="488.39" cy="246.51" r="7.92"/><circle class="cls-11" cx="550.81" cy="176.89" r="13.03"/><path class="cls-11" d="M1353.75,103.44a39.42,39.42,0,0,0,30-1.24,1.29,1.29,0,0,1,1.7,1.7c-2.66,5.88-6.73,18.14-1.42,30.13a1.29,1.29,0,0,1-1.54,1.79c-5.69-1.76-18.53-4.68-29.69.46a1.29,1.29,0,0,1-1.73-1.63c2.22-5.77,5.74-18,1.12-29.47A1.29,1.29,0,0,1,1353.75,103.44Z"/><circle class="cls-11" cx="1417.16" cy="201.3" r="9.12"/><circle class="cls-11" cx="1410.22" cy="660.94" r="10.54"/><path class="cls-25" d="M1322.56,261.36a32.28,32.28,0,0,0-4.43-6.27l-19.61-21.76a32.46,32.46,0,0,0-42.43-5l-5.61,3.85c1,.71,2.08,1.47,3.09,2.26a61.1,61.1,0,0,1,7.84,7.29l4.15,4.6L1281,263.43l1.85,2.05,15.44,17.12,4.15,4.61a61,61,0,0,1,10.86,17l5.45-6.43c.15-.16.27-.34.41-.51A32.44,32.44,0,0,0,1322.56,261.36Z"/><path class="cls-26" d="M1254.87,725.89h28.66l123.18-210a39.89,39.89,0,0,1-23.87-8.16Z"/><path class="cls-11" d="M1298.52,233.33l19.61,21.76a32.28,32.28,0,0,1,4.43,6.27l3.78-4a22.65,22.65,0,0,0,.29-30.64l-.05-.05a22.64,22.64,0,0,0-30.5-2.88l-4.77,3.61A32.6,32.6,0,0,1,1298.52,233.33Z"/><path class="cls-4" d="M1233.07,311c-33.93-37.64-57-55.63-70.14-64.06a7.86,7.86,0,0,0,0,4.75c3.66,11.1,14.79,37.33,45.58,71.06,0,0,1.4,1.62,3.9,4.37s3.94,4.33,3.94,4.33c30.37,34.11,55.31,47.89,66,52.67a7.87,7.87,0,0,0,5.91.21c-7.83-14.49-23.46-38.12-54.45-72.5Z"/><path class="cls-10" d="M1408.29,435.76l-1.21,0a40.07,40.07,0,0,0-.37,80.14h.37a40.06,40.06,0,0,0,35.41-21.33,34.74,34.74,0,0,0,1.55-3.26,40.07,40.07,0,0,0-35.75-55.53Z"/><path class="cls-27" d="M1408.29,435.76l-1.21,0a40.07,40.07,0,0,0-14,77.63,37.37,37.37,0,0,1-3.79-2.54,38.2,38.2,0,0,1,23.1-68.61c.39,0,.78,0,1.16,0a38.13,38.13,0,0,1,28.57,14.2A40,40,0,0,0,1408.29,435.76Z"/><path class="cls-28" d="M1313.3,304.23a61,61,0,0,0-10.86-17l-4.15-4.61-15.44-17.12-1.85-2.05-15.44-17.13-4.15-4.6a61.1,61.1,0,0,0-7.84-7.29c-1-.79-2-1.55-3.09-2.26a61.18,61.18,0,0,0-69,0L1166,242.73a7.74,7.74,0,0,0-3,4.18c13.18,8.43,36.21,26.42,70.14,64.06l.75.83c31,34.38,46.62,58,54.45,72.5a7.79,7.79,0,0,0,3.29-2.27l12.13-14.32a61.24,61.24,0,0,0,9.61-63.48Z"/><path class="cls-26" d="M1408.29,435.76l-89.13-138.47c-.14.17-.26.35-.41.51l-5.45,6.43a61.33,61.33,0,0,1,3.77,35.49l66.65,103.53a39.85,39.85,0,0,1,23.36-7.52Z"/><path class="cls-22" d="M576.56,723.4c-7.52-27.33-16.21-54.18-16.21-54.18a68.66,68.66,0,0,1-2.86-10.62c-4-21.33,4.35-35.31,4.35-35.31a113.08,113.08,0,0,0,7.25-15.88H550.67a127.7,127.7,0,0,1-7.21,20.12s-7.2,15.15,2.49,43.22l.65,1.94c2.35,7,10.6,32.38,18,63.82,1.43,6,2.83,12.29,4.15,18.69h15.68C582.47,745.7,579.61,734.51,576.56,723.4Z"/><path class="cls-29" d="M447.09,459c54.18-16.05,97.23,12.17,114.45,26.3q-1.51-7.41-2.7-15a133.8,133.8,0,0,0-47.33-24.19c-21.71-6-47.82-7-78.58,1.48a140.9,140.9,0,0,0,4.42,16.24,202.11,202.11,0,0,0,30.86,59,329.32,329.32,0,0,1-14.41-38.65C449.27,469.36,447.09,459,447.09,459Z"/><path class="cls-30" d="M570.61,518.47c-45.15,30.36-89.51-3.78-116.81-34.28a329.32,329.32,0,0,0,14.41,38.65c15.51,20.29,37.41,40.15,68.05,52.93a17.67,17.67,0,0,1,11-3.88h56.78C589,558.7,578.25,540,570.61,518.47Z"/><path class="cls-29" d="M571.79,319s32,22.37,55.91,45.87q-4.94-7-10.38-13.82c-15.63-19.59-34.5-38.06-57-52.13a700.11,700.11,0,0,0-6.68,87.73c-.37,26.28.78,55.59,5.17,83.66a281.34,281.34,0,0,0,9.38,41.07c4.93,15.63,11.4,30,19.76,42.16a109.58,109.58,0,0,0,6.93,9c-.88-2.65-2-6.18-3.31-10.53C580.49,515.15,556.88,420.14,571.79,319Z"/><path class="cls-30" d="M649.87,458a232.89,232.89,0,0,1,9.48-38.83c-3.58-7.48-7.67-15.44-12.28-23.62-20.24,38.72-21.89,100.77-21.89,100.77-2.82,35.43-20.72,49.89-33.58,55.74,1.3,4.35,2.43,7.88,3.31,10.53a91.77,91.77,0,0,0,9.18,9.31h53.72C646,528.73,644.8,490.78,649.87,458Z"/><path class="cls-29" d="M672.17,298.63c-5.24-12.52-11.62-24.17-19.42-34,0,0-25.22,35.86-35.43,86.41,3.26,4.09,6.37,8.23,9.35,12.38,4.34-20,13.75-55.34,30.55-82.06A206.8,206.8,0,0,1,672.17,298.63Z"/><path class="cls-31" d="M674.71,305a80.18,80.18,0,0,1-12.64,41.19c-11.81,16-25.34,18.47-35.33,17.32a370.69,370.69,0,0,1,32.61,55.64,237.49,237.49,0,0,1,29.91-59.27C686.11,342,681.49,322.84,674.71,305Z"/><path class="cls-29" d="M513.66,363.77s5.76-1.93,17.91,3A88.27,88.27,0,0,0,503,352.57s-8.36,45.08,8.53,93.55a130.08,130.08,0,0,1,12.6,4.19c.92.36,1.84.73,2.75,1.11-.29-.82-.59-1.69-.9-2.62C520,431.17,509.84,395,513.66,363.77Z"/><path class="cls-31" d="M553.67,386.65a153.59,153.59,0,0,0-18.86-17.51c6.49,51.23-.44,71.82-8.85,79.66.31.93.61,1.8.9,2.62a137.07,137.07,0,0,1,32,18.89C554.45,442.24,553.3,412.93,553.67,386.65Z"/><ellipse class="cls-32" cx="597.18" cy="415.12" rx="14.97" ry="36.02"/><path class="cls-33" d="M1313.3,304.23c-.44-1-.91-2-1.4-3-10.73,35.52-68.06,6.66-100.4-13.07,6.63,6.67,13.81,14.24,21.57,22.84l.75.83c31,34.38,46.62,58,54.45,72.5a7.79,7.79,0,0,0,3.29-2.27l12.13-14.32a61.24,61.24,0,0,0,9.61-63.48Z"/><path class="cls-34" d="M1323.18,262.61c-3.4,16.81-31.18,3.53-49.52-7.33l7.34,8.15,1.85,2.05,15.44,17.12,4.15,4.61a61,61,0,0,1,10.86,17l5.45-6.43c.15-.16.27-.34.41-.51A32.42,32.42,0,0,0,1323.18,262.61Z"/><path class="cls-35" d="M1302.44,287.21l-4.15-4.61-15.44-17.12-1.85-2.05-15.44-17.13-4.15-4.6a61.1,61.1,0,0,0-7.84-7.29c-1-.79-2-1.55-3.09-2.26a61.18,61.18,0,0,0-69,0L1166,242.73a7.74,7.74,0,0,0-3,4.18c3,1.93,6.56,4.37,10.63,7.43a106.54,106.54,0,0,1,20.09-12.14,56.63,56.63,0,0,1,54.48,3.33,111.15,111.15,0,0,1,12.58,9.45l49.76,43.49A60.65,60.65,0,0,0,1302.44,287.21Z"/><path class="cls-36" d="M1322.56,261.36a32.28,32.28,0,0,0-4.43-6.27l-19.61-21.76a32.46,32.46,0,0,0-42.43-5l-5.61,3.85c1,.71,2.08,1.47,3.09,2.26a62.69,62.69,0,0,1,5,4.38,57.78,57.78,0,0,1,5.15-2.71,31.11,31.11,0,0,1,29.92,1.83,60.47,60.47,0,0,1,6.9,5.18l22.83,20C1323.13,262.48,1322.86,261.91,1322.56,261.36Z"/><path class="cls-37" d="M1326.63,226.68l-.05-.05a22.64,22.64,0,0,0-30.5-2.88l-4.77,3.61a32.48,32.48,0,0,1,5,3.8c7.28-4.18,25.88-11.94,36.1,10.36A22.51,22.51,0,0,0,1326.63,226.68Z"/><path class="cls-10" d="M1306.19,241.85l11.94,13.24a32.28,32.28,0,0,1,4.43,6.27l3.78-4a22.61,22.61,0,0,0,6.08-14.63C1324.25,246.72,1313.52,244.39,1306.19,241.85Z"/><line class="cls-38" x1="1177.1" y1="640.4" x2="1192.25" y2="635.43"/><path class="cls-6" d="M755.73,459A129.45,129.45,0,0,1,800,443.15c15.54-47.32,7.53-90.58,7.53-90.58-18.84,5-35.49,17.93-49.14,32.43A324.48,324.48,0,0,1,755.73,459Z"/><path class="cls-6" d="M755.73,459a324.48,324.48,0,0,0,2.67-74c-.35-4.76-.78-9.6-1.33-14.54,0,0-7.45-46.2-7.45-71.54,0,0-32.08,20.13-60.36,61a237.49,237.49,0,0,0-29.91,59.27A232.89,232.89,0,0,0,649.87,458c-5.07,32.79-3.87,70.74,7.94,113.9h49.51c16.65-20.29,37.23-53.95,46.75-103.43C754.67,465.36,755.23,462.21,755.73,459Z"/><path class="cls-6" d="M800,443.15A129.45,129.45,0,0,0,755.73,459c-.5,3.23-1.06,6.38-1.66,9.48-9.52,49.48-30.1,83.14-46.75,103.43h59.32a17.66,17.66,0,0,1,3,.28C849,534,865,447.6,865,447.6,840.38,440.8,818.77,440.11,800,443.15Z"/><path class="cls-31" d="M726.7,543.68a206.08,206.08,0,0,1-19.38,28.21h59.32a17.66,17.66,0,0,1,3,.28c44.48-21.39,69-57.93,82-85.92C811.43,535.53,750.94,542.83,726.7,543.68Z"/><path class="cls-29" d="M762.8,388.78c10.87-10.69,28.84-26.41,42.22-28.36a148,148,0,0,1,4.57,18.45,168.35,168.35,0,0,0-2.05-26.3c-17.58,4.71-33.25,16.25-46.36,29.55-.94.95-1.87,1.91-2.78,2.88.19,2.61.34,5.18.47,7.73C760,391.53,761.35,390.2,762.8,388.78Z"/><path class="cls-29" d="M745.15,322.57s4.37,18,8.42,33c.93,3.48,1.85,6.78,2.69,9.67-.45-3-1.07-7.24-1.74-12.15-2.16-15.75-4.9-38.78-4.9-54.15,0,0-32.08,20.13-60.36,61a237.49,237.49,0,0,0-29.91,59.27A232.89,232.89,0,0,0,649.87,458a255.1,255.1,0,0,0-.51,72.31C652.92,475.8,670.05,376.07,745.15,322.57Z"/><path class="cls-29" d="M865,447.6c-24.57-6.8-46.18-7.49-64.94-4.45A129.45,129.45,0,0,0,755.73,459c-.5,3.23-1.06,6.38-1.66,9.48-.49,2.55-1,5-1.56,7.5,16.5-11.37,58.81-35.63,106.74-24.63a303.67,303.67,0,0,1-6.06,31.59C862.18,462.63,865,447.6,865,447.6Z"/><path class="cls-31" d="M808.65,401.07c-15,31-39.18,31.93-49.95,30.59-.6,9.56-1.61,18.67-3,27.32A129.45,129.45,0,0,1,800,443.15,193.55,193.55,0,0,0,808.65,401.07Z"/><path class="cls-30" d="M758.4,385c-.35-4.76-.78-9.6-1.33-14.54l-.36-2.35c-10.27,24.49-16.63,52.14-19.82,68.54a160.69,160.69,0,0,1-19.15,51.07c-22.57,38.21-50.2,48.92-67,51.69a317.34,317.34,0,0,0,7.11,32.48h49.51c16.65-20.29,37.23-53.95,46.75-103.43.6-3.1,1.16-6.25,1.66-9.48A324.48,324.48,0,0,0,758.4,385Z"/><path class="cls-39" d="M1154.61,339.16H769a34.65,34.65,0,0,0-34.65,34.65V632h454.91V373.81A34.65,34.65,0,0,0,1154.61,339.16Z"/><path class="cls-40" d="M734.35,649.89A34.65,34.65,0,0,0,769,684.54h385.61a34.65,34.65,0,0,0,34.65-34.65V632H734.35Z"/><polygon class="cls-40" points="1001.81 684.53 917.69 684.53 894.93 725.89 1024.58 725.89 1001.81 684.53"/><path class="cls-40" d="M771.61,725.89h373.3a17.52,17.52,0,0,1,17.52,17.52V755.2a0,0,0,0,1,0,0H754.09a0,0,0,0,1,0,0V743.41A17.52,17.52,0,0,1,771.61,725.89Z"/><path class="cls-41" d="M1144.3,725.89h-85.25A18.13,18.13,0,0,1,1077.18,744V755.2h85.25V744A18.13,18.13,0,0,0,1144.3,725.89Z"/><circle class="cls-42" cx="960.77" cy="660.07" r="12.17"/><ellipse class="cls-43" cx="956.63" cy="656.79" rx="4.67" ry="4" transform="translate(-59.24 1217.61) rotate(-63.37)"/><polygon class="cls-44" points="1001.81 684.53 917.69 684.53 909.64 699.16 1017.85 713.66 1001.81 684.53"/><path class="cls-41" d="M1156,632c-47.4,31.39-146.85,46-212.3,52.54h210.91a34.65,34.65,0,0,0,34.65-34.65V632Z"/><path class="cls-44" d="M1154.61,339.16H769a34.65,34.65,0,0,0-34.65,34.65V632h10.8V370.81a18.24,18.24,0,0,1,18.24-18.24H1182A34.58,34.58,0,0,0,1154.61,339.16Z"/><path class="cls-4" d="M1171.5,684.25l.13-.79a9.09,9.09,0,0,1,6.91-7.37l37.64-8.66-11.67-42.15a8.64,8.64,0,0,0-10.74-6l-55.1,16a8.63,8.63,0,0,0-5.89,10.68l11.54,40.11a19.88,19.88,0,0,0,14.22,13.77A20.06,20.06,0,0,0,1171.5,684.25Z"/><path class="cls-3" d="M1225.46,665.3l-9.28,2.13-37.64,8.66a9.09,9.09,0,0,0-6.91,7.37l-.13.79a20.06,20.06,0,0,1-13,15.62,19.87,19.87,0,0,0,10.21-.09l51.06-14.13c3.83-1.68,7.57-9.62,9.87-15.44A3.66,3.66,0,0,0,1225.46,665.3Z"/><line class="cls-45" x1="1148.9" y1="649.8" x2="1172.09" y2="642.1"/><line class="cls-45" x1="1152.99" y1="662.8" x2="1197.41" y2="648.26"/><path class="cls-46" d="M1146.16,639.24l56.81-17a8.64,8.64,0,0,0-9.2-3l-55.1,16a8.63,8.63,0,0,0-5.89,10.68l11.54,40.11a19.75,19.75,0,0,0,7.46,10.6l-10.46-49.31A7,7,0,0,1,1146.16,639.24Z"/><rect class="cls-46" x="761.17" y="364.49" width="401.26" height="248.88" rx="9.18"/><polygon class="cls-42" points="1115.03 545.33 1103.16 511.85 1137.13 524.21 1119.5 528.93 1115.03 545.33"/><path class="cls-10" d="M788.74,582.1a14.17,14.17,0,0,0,14.18,14.17h254.43a14.17,14.17,0,0,0,14.18-14.17V424.85H788.74Z"/><path class="cls-11" d="M1057.35,381.59H802.92a14.18,14.18,0,0,0-14.18,14.18v29.08h282.79V395.77A14.18,14.18,0,0,0,1057.35,381.59Z"/><path class="cls-47" d="M1055.33,390.5H802.93a6.11,6.11,0,0,0-6.12,6.11v28.24h264.63V396.61A6.1,6.1,0,0,0,1055.33,390.5Z"/><path class="cls-11" d="M796.81,581.1a6.11,6.11,0,0,0,6.12,6.11h252.4a6.1,6.1,0,0,0,6.11-6.11V424.85H796.81Z"/><circle class="cls-7" cx="817.52" cy="406.22" r="7.92"/><circle class="cls-6" cx="845.24" cy="406.22" r="7.92"/><circle class="cls-15" cx="872.96" cy="406.22" r="7.92"/><path class="cls-48" d="M823.09,400.59a7.76,7.76,0,0,1-13.18,7.79,7.92,7.92,0,1,0,13.18-7.79Z"/><path class="cls-49" d="M850.81,400.59a7.76,7.76,0,0,1-13.18,7.79,7.92,7.92,0,1,0,13.18-7.79Z"/><path class="cls-50" d="M878.47,400.53a7.78,7.78,0,0,1,.58,2.94,7.66,7.66,0,0,1-13.77,4.62,7.91,7.91,0,1,0,13.19-7.56Z"/><circle class="cls-19" cx="627.23" cy="668.91" r="40.05"/><ellipse class="cls-22" cx="607.99" cy="665.17" rx="24.36" ry="13.16" transform="translate(-169.29 1121.18) rotate(-77.97)"/><path class="cls-51" d="M716,709h16.5a37,37,0,0,1,37,37v9.24a0,0,0,0,1,0,0H679a0,0,0,0,1,0,0V746A37,37,0,0,1,716,709Z"/><path class="cls-52" d="M754.33,720.48c-18.13,27.58-60.91,27.95-74.83,27.29a45.52,45.52,0,0,0-.46,6.44v1h90.41v-1A45.05,45.05,0,0,0,754.33,720.48Z"/><circle class="cls-53" cx="1407.08" cy="475.8" r="19.02"/><path class="cls-15" d="M884.44,517.27A19.41,19.41,0,0,1,881.36,528a20.5,20.5,0,0,1-9,7.47,33.79,33.79,0,0,1-14.08,2.69q-9.75,0-16.1-3.68a21.46,21.46,0,0,1-7.31-7.09A16.09,16.09,0,0,1,832,518.8a5.84,5.84,0,0,1,6-5.89,5.07,5.07,0,0,1,3.57,1.35,10.66,10.66,0,0,1,2.5,4,26.44,26.44,0,0,0,2.72,5.26,11,11,0,0,0,4.11,3.49,15.29,15.29,0,0,0,7,1.37,15.69,15.69,0,0,0,9.65-2.77,8.32,8.32,0,0,0,3.71-6.9,7.32,7.32,0,0,0-2-5.33,12.94,12.94,0,0,0-5.17-3.12c-2.12-.72-4.94-1.49-8.48-2.3a62,62,0,0,1-11.9-3.89,19.28,19.28,0,0,1-7.6-6.07,15.78,15.78,0,0,1-2.81-9.56,16.43,16.43,0,0,1,3-9.67,18.81,18.81,0,0,1,8.59-6.5A35.28,35.28,0,0,1,858.08,470a32.9,32.9,0,0,1,10.51,1.51,22.21,22.21,0,0,1,7.35,4,16.76,16.76,0,0,1,4.27,5.24,12.1,12.1,0,0,1,1.35,5.35,6.31,6.31,0,0,1-1.69,4.3,5.37,5.37,0,0,1-4.2,1.91,4.83,4.83,0,0,1-3.49-1.15,15.44,15.44,0,0,1-2.58-3.75,17.1,17.1,0,0,0-4.32-5.83q-2.52-2.08-8.1-2.09a14.07,14.07,0,0,0-8.34,2.27,6.63,6.63,0,0,0-3.17,5.47,5.54,5.54,0,0,0,1.08,3.42,9.08,9.08,0,0,0,3,2.47,20,20,0,0,0,3.82,1.62q1.94.58,6.39,1.71A99.61,99.61,0,0,1,870,499.33a30.73,30.73,0,0,1,7.7,3.82,15.74,15.74,0,0,1,4.94,5.69A18.12,18.12,0,0,1,884.44,517.27Z"/><path class="cls-15" d="M896.31,530V478.1q0-4.05,1.85-6.07a6.14,6.14,0,0,1,4.76-2,6.37,6.37,0,0,1,4.88,2q1.88,2,1.87,6.1V530q0,4.1-1.87,6.12a6.32,6.32,0,0,1-4.88,2,6.13,6.13,0,0,1-4.74-2Q896.31,534.09,896.31,530Z"/><path class="cls-15" d="M962.92,478.1v34.54a65.69,65.69,0,0,1-.38,7.64,24.36,24.36,0,0,1-1.73,6.39,17.27,17.27,0,0,1-7.42,8.48,24.54,24.54,0,0,1-12.6,3,26.07,26.07,0,0,1-11.17-2.11,16.37,16.37,0,0,1-7.22-6.84,24.73,24.73,0,0,1-2.34-5.8,23.59,23.59,0,0,1-.9-6.25,5.89,5.89,0,0,1,6.25-6.47,5.08,5.08,0,0,1,4,1.52,10.73,10.73,0,0,1,2.07,4.77,43.22,43.22,0,0,0,1.53,5.53,8.3,8.3,0,0,0,2.57,3.56,7.81,7.81,0,0,0,5.12,1.48q8.87,0,8.86-13V478.1q0-4.05,1.78-6.07a6.1,6.1,0,0,1,4.83-2,6.31,6.31,0,0,1,4.93,2Q962.92,474.06,962.92,478.1Z"/><path class="cls-15" d="M1020.85,481.43H990.76v16.19h27.7A6.64,6.64,0,0,1,1023,499a4.67,4.67,0,0,1,1.51,3.62,4.86,4.86,0,0,1-1.49,3.67,6.47,6.47,0,0,1-4.59,1.41h-27.7v18.76h31.12a6.81,6.81,0,0,1,4.75,1.46,5,5,0,0,1,1.59,3.89,4.93,4.93,0,0,1-1.59,3.8,6.85,6.85,0,0,1-4.75,1.46H985.59q-4.37,0-6.28-1.93c-1.27-1.29-1.91-3.38-1.91-6.25V479.31a11.12,11.12,0,0,1,.86-4.7,5.3,5.3,0,0,1,2.67-2.65,11.37,11.37,0,0,1,4.66-.83h35.26a6.85,6.85,0,0,1,4.74,1.41,5.27,5.27,0,0,1,0,7.47A6.85,6.85,0,0,1,1020.85,481.43Z"/><path class="cls-54" d="M1055.33,390.5h-14.88a6.11,6.11,0,0,1,6.11,6.11v28.24h14.88V396.61A6.1,6.1,0,0,0,1055.33,390.5Z"/><path class="cls-55" d="M802.4,581.1V424.85h-5.59V581.1a6.11,6.11,0,0,0,6.12,6.11h5.59A6.11,6.11,0,0,1,802.4,581.1Z"/><path class="cls-54" d="M802.4,396.61a6.11,6.11,0,0,1,6.12-6.11h-5.59a6.11,6.11,0,0,0-6.12,6.11v28.24h5.59Z"/><path class="cls-9" d="M1236.39,702.42h99.85a19.19,19.19,0,0,1,19.19,19.19v4.28a0,0,0,0,1,0,0H1217.2a0,0,0,0,1,0,0v-4.28A19.19,19.19,0,0,1,1236.39,702.42Z"/><path class="cls-7" d="M1332,702.42h-91.28a23.47,23.47,0,0,0-23.47,23.47h8.47a23.48,23.48,0,0,1,23.19-19.82h91.28a23.54,23.54,0,0,1,5.28.6A23.32,23.32,0,0,0,1332,702.42Z"/><path class="cls-10" d="M1203.45,725.89H1368a24,24,0,0,1,24,24v5.35a0,0,0,0,1,0,0H1179.49a0,0,0,0,1,0,0v-5.35A24,24,0,0,1,1203.45,725.89Z"/><path class="cls-11" d="M1362.63,725.89H1208.8a29.31,29.31,0,0,0-29.31,29.31h9.08a29.31,29.31,0,0,1,29-25.19h153.83a29.14,29.14,0,0,1,7.86,1.08A29.1,29.1,0,0,0,1362.63,725.89Z"/><path class="cls-4" d="M507.66,763.44h918.88a18.31,18.31,0,0,0-15.29-8.24H496.33a18.32,18.32,0,0,0,0,36.64H497a16.21,16.21,0,0,1,10.71-28.4Z"/><polygon class="cls-56" points="761.17 433.07 761.17 491.43 852.11 364.5 813.94 364.5 761.17 433.07"/><polygon class="cls-56" points="1071.98 364.5 892.05 613.37 930.36 613.37 1110.28 364.5 1071.98 364.5"/><path class="cls-56" d="M1152.93,364.49h-3.37L960.45,613.37h86.91l115.07-151.44V374A9.5,9.5,0,0,0,1152.93,364.49Z"/><path class="cls-57" d="M1216.39,331.42s-1.46-1.56-3.94-4.33-3.9-4.37-3.9-4.37c-21.1-23.12-33-42.71-39.53-56.33L639.8,755.2h484.14l152.27-374.13C1263.61,374.4,1241.92,360.09,1216.39,331.42Z"/><rect class="cls-11" x="1632.13" y="139.31" width="13.03" height="36.86"/><path class="cls-6" d="M1638.52,238.78h3.62V222.23a1.55,1.55,0,0,1,1.55-1.55h1.47V176.16h-13V291.62h6.39Z"/><path class="cls-47" d="M1632.13,474.55V475a4.62,4.62,0,0,0,4.62,4.62h.46A5.08,5.08,0,0,1,1632.13,474.55Z"/><path d="M1632.13,474.55V475a4.62,4.62,0,0,0,4.62,4.62h.46a5.08,5.08,0,0,1-5.08-5.08Z"/><polygon class="cls-6" points="1667.4 211.47 1670.23 211.47 1670.23 176.16 1656.24 176.16 1656.24 211.47 1667.4 211.47"/><path class="cls-11" d="M1667.4,211.47h-11.16v9.21h1.46a1.54,1.54,0,0,1,1.55,1.55v50.45a1.54,1.54,0,0,1-1.55,1.55h-14a1.55,1.55,0,0,1-1.55-1.55v-33.9h-3.62v52.84h-6.39V474.55a5.08,5.08,0,0,0,5.08,5.08h161l-13.72-93.18h-46.16l-2.93,43.75V315l-9-5.82V238.33l-.15-2.74-6.93-1.8v-6.23l-5.46-3.68.47-6.69-8.64-5.72H1691V176.16h-20.78v35.31Z"/><polygon class="cls-2" points="1632.13 28.29 1615.43 28.29 1615.43 66.69 1632.13 66.69 1645.16 66.69 1645.16 28.29 1632.13 28.29"/><polygon class="cls-2" points="1632.13 66.69 1615.43 66.69 1615.43 105.08 1632.13 105.08 1645.16 105.08 1645.16 66.69 1632.13 66.69"/><polygon class="cls-2" points="1632.13 105.08 1615.43 105.08 1615.43 139.31 1632.13 139.31 1645.16 139.31 1645.16 105.08 1632.13 105.08"/><path class="cls-58" d="M1802.37,479.63H1636.75a4.62,4.62,0,0,1-4.62-4.62V139.31h-16.7V484a12.35,12.35,0,0,0,12.34,12.35H1920v-16.7H1802.37Z"/><polygon class="cls-11" points="1656.24 176.16 1670.23 176.16 1691.01 176.16 1920 176.16 1920 139.31 1656.24 139.31 1656.24 176.16"/><rect class="cls-2" x="1656.24" y="105.08" width="263.76" height="34.23"/><rect class="cls-2" x="1656.24" y="28.29" width="263.76" height="38.4"/><rect class="cls-2" x="1656.24" y="66.69" width="263.76" height="38.39"/><rect class="cls-2" x="1656.24" width="263.76" height="28.29"/><polygon class="cls-2" points="1632.13 0 1615.43 0 1615.43 28.29 1632.13 28.29 1645.16 28.29 1645.16 0 1632.13 0"/><path class="cls-59" d="M1565.35,533.71V0h-6.68V531.26a21.83,21.83,0,0,0,21.83,21.83H1920v-6.68H1578A12.7,12.7,0,0,1,1565.35,533.71Z"/><polygon class="cls-6" points="1691.01 211.47 1699.27 211.47 1705.66 211.47 1714.3 217.19 1713.83 223.88 1719.29 227.56 1719.29 233.79 1726.22 235.59 1726.37 238.33 1726.37 247.85 1726.37 309.16 1735.35 314.98 1735.35 430.2 1738.28 386.45 1740.69 386.45 1784.44 386.45 1798.16 479.63 1802.37 479.63 1816.42 303.35 1909.76 303.35 1917.7 403.06 1920 403.06 1920 176.16 1691.01 176.16 1691.01 211.47"/><polygon class="cls-11" points="1909.76 303.35 1816.42 303.35 1802.37 479.63 1893.21 479.63 1920 479.63 1920 431.88 1920 403.06 1917.7 403.06 1909.76 303.35"/><line class="cls-60" x1="1920" y1="105.08" x2="1615.43" y2="105.08"/><line class="cls-60" x1="1615.43" y1="66.69" x2="1920" y2="66.69"/><line class="cls-60" x1="1615.43" y1="28.29" x2="1920" y2="28.29"/><path class="cls-2" d="M1642.14,222.23v50.45a1.55,1.55,0,0,0,1.55,1.55h14a1.54,1.54,0,0,0,1.55-1.55V222.23a1.54,1.54,0,0,0-1.55-1.55h-14A1.55,1.55,0,0,0,1642.14,222.23Z"/><polygon class="cls-26" points="1645.16 66.69 1645.16 105.08 1645.16 139.31 1645.16 176.16 1645.16 220.68 1649.11 220.68 1656.24 220.68 1656.24 211.47 1656.24 176.16 1656.24 139.31 1656.24 105.08 1656.24 66.69 1656.24 28.29 1656.24 0 1645.16 0 1645.16 28.29 1645.16 66.69"/><path class="cls-26" d="M1615.43,484V0h-50.08V533.71a12.7,12.7,0,0,0,12.69,12.7h342V496.33H1627.77A12.35,12.35,0,0,1,1615.43,484Z"/></g></g></g></svg>