<svg xmlns="http://www.w3.org/2000/svg" xmlns:xlink="http://www.w3.org/1999/xlink" viewBox="0 0 1920 1080"><defs><style>.cls-1{fill:#b7a3d8;}.cls-2{fill:url(#Degradado_sin_nombre_31);}.cls-3{fill:url(#Degradado_sin_nombre_31-2);}.cls-4{fill:url(#Degradado_sin_nombre_31-3);}.cls-5{fill:url(#Degradado_sin_nombre_31-4);}.cls-6{fill:url(#Degradado_sin_nombre_31-5);}.cls-7{fill:url(#Degradado_sin_nombre_31-6);}.cls-8{fill:url(#Degradado_sin_nombre_31-7);}.cls-9{fill:url(#Degradado_sin_nombre_31-8);}.cls-10{fill:url(#Degradado_sin_nombre_31-9);}.cls-11{fill:url(#Degradado_sin_nombre_31-10);}.cls-12{fill:url(#Degradado_sin_nombre_31-11);}.cls-13{fill:url(#Degradado_sin_nombre_31-12);}.cls-14{fill:url(#Degradado_sin_nombre_31-13);}.cls-15{fill:url(#Degradado_sin_nombre_31-14);}.cls-16{fill:url(#Degradado_sin_nombre_31-15);}.cls-17{fill:url(#Degradado_sin_nombre_31-16);}.cls-18{fill:url(#Degradado_sin_nombre_31-17);}.cls-19{fill:url(#Degradado_sin_nombre_31-18);}.cls-20{fill:url(#Degradado_sin_nombre_31-19);}.cls-21{fill:url(#Degradado_sin_nombre_31-20);}.cls-22{fill:url(#Degradado_sin_nombre_31-21);}.cls-23{fill:url(#Degradado_sin_nombre_31-22);}.cls-24{fill:url(#Degradado_sin_nombre_31-23);}.cls-25{fill:url(#Degradado_sin_nombre_31-24);}.cls-26{fill:url(#Degradado_sin_nombre_31-25);}.cls-27{fill:url(#Degradado_sin_nombre_31-26);}.cls-28{fill:url(#Degradado_sin_nombre_31-27);}.cls-29{fill:url(#Degradado_sin_nombre_31-28);}.cls-30{fill:url(#Degradado_sin_nombre_31-29);}.cls-31{fill:url(#Degradado_sin_nombre_31-31);}.cls-32{fill:url(#Degradado_sin_nombre_31-32);}.cls-33{fill:url(#Degradado_sin_nombre_31-33);}.cls-34{fill:url(#Degradado_sin_nombre_31-34);}.cls-35{fill:url(#Degradado_sin_nombre_31-35);}.cls-36{fill:url(#Degradado_sin_nombre_31-36);}.cls-37{fill:url(#Degradado_sin_nombre_31-37);}.cls-38{fill:url(#Degradado_sin_nombre_31-38);}.cls-39{fill:url(#Degradado_sin_nombre_31-39);}.cls-40{fill:url(#Degradado_sin_nombre_31-40);}.cls-41{fill:url(#Degradado_sin_nombre_31-41);}.cls-42{fill:url(#Degradado_sin_nombre_31-42);}.cls-43{fill:url(#Degradado_sin_nombre_31-43);}.cls-44{fill:url(#Degradado_sin_nombre_31-44);}.cls-45{fill:url(#Degradado_sin_nombre_31-45);}.cls-46{fill:url(#Degradado_sin_nombre_31-46);}.cls-47{fill:url(#Degradado_sin_nombre_31-47);}.cls-48{fill:url(#Degradado_sin_nombre_31-48);}.cls-49{fill:url(#Degradado_sin_nombre_31-49);}.cls-50{fill:url(#Degradado_sin_nombre_31-50);}.cls-51{fill:url(#Degradado_sin_nombre_31-51);}.cls-52{fill:url(#Degradado_sin_nombre_31-52);}.cls-53{fill:url(#Degradado_sin_nombre_31-53);}.cls-54{fill:url(#Degradado_sin_nombre_31-54);}.cls-55{fill:url(#Degradado_sin_nombre_31-55);}.cls-56{fill:url(#Degradado_sin_nombre_31-56);}.cls-57{fill:url(#Degradado_sin_nombre_31-57);}.cls-58{fill:url(#Degradado_sin_nombre_31-58);}.cls-59{fill:url(#Degradado_sin_nombre_31-59);}.cls-60{fill:url(#Degradado_sin_nombre_31-60);}.cls-61{fill:url(#Degradado_sin_nombre_31-62);}.cls-62{fill:url(#Degradado_sin_nombre_31-63);}.cls-63{fill:url(#Degradado_sin_nombre_31-64);}.cls-64{fill:url(#Degradado_sin_nombre_31-65);}.cls-65{fill:url(#Degradado_sin_nombre_31-66);}.cls-66{fill:url(#Degradado_sin_nombre_31-67);}.cls-67{fill:url(#Degradado_sin_nombre_31-68);}.cls-68{fill:url(#Degradado_sin_nombre_31-69);}.cls-69{fill:url(#Degradado_sin_nombre_31-70);}.cls-70{fill:url(#Degradado_sin_nombre_31-71);}.cls-71{fill:url(#Degradado_sin_nombre_31-72);}.cls-72{fill:url(#Degradado_sin_nombre_31-73);}.cls-73{fill:url(#Degradado_sin_nombre_31-74);}.cls-74{fill:url(#Degradado_sin_nombre_31-75);}.cls-75{fill:url(#Degradado_sin_nombre_31-76);}.cls-76{fill:url(#Degradado_sin_nombre_31-77);}.cls-77{fill:url(#Degradado_sin_nombre_31-78);}.cls-78{fill:url(#Degradado_sin_nombre_31-79);}.cls-79{fill:url(#Degradado_sin_nombre_31-80);}.cls-80{fill:url(#Degradado_sin_nombre_31-81);}.cls-81{fill:url(#Degradado_sin_nombre_31-82);}.cls-82{fill:url(#Degradado_sin_nombre_31-83);}.cls-83{fill:url(#Degradado_sin_nombre_45);}.cls-84{fill:url(#Degradado_sin_nombre_31-84);}.cls-85{fill:url(#Degradado_sin_nombre_31-85);}.cls-86{fill:url(#Degradado_sin_nombre_31-86);}.cls-87{fill:url(#Degradado_sin_nombre_31-87);}.cls-88{fill:url(#Degradado_sin_nombre_31-88);}.cls-89{fill:url(#Degradado_sin_nombre_31-89);}.cls-90{fill:url(#Degradado_sin_nombre_31-90);}.cls-91{fill:url(#Degradado_sin_nombre_31-91);}.cls-92{fill:url(#Degradado_sin_nombre_31-92);}.cls-93{fill:url(#Degradado_sin_nombre_31-93);}.cls-94{fill:url(#Degradado_sin_nombre_31-94);}.cls-95{fill:url(#Degradado_sin_nombre_31-95);}.cls-96{fill:url(#Degradado_sin_nombre_31-96);}.cls-97{fill:url(#Degradado_sin_nombre_31-97);}.cls-98{fill:url(#Degradado_sin_nombre_31-98);}.cls-99{fill:url(#Degradado_sin_nombre_31-99);}.cls-100{fill:url(#Degradado_sin_nombre_31-100);}.cls-101{fill:url(#Degradado_sin_nombre_31-101);}.cls-102{fill:url(#Degradado_sin_nombre_31-102);}.cls-103{fill:url(#Degradado_sin_nombre_31-103);}.cls-104{fill:url(#Degradado_sin_nombre_31-104);}.cls-105{fill:url(#Degradado_sin_nombre_31-105);}.cls-106{fill:url(#Degradado_sin_nombre_31-106);}.cls-107{fill:url(#Degradado_sin_nombre_31-107);}.cls-108{fill:url(#Degradado_sin_nombre_31-108);}.cls-109{fill:url(#Degradado_sin_nombre_31-109);}.cls-110{fill:url(#Degradado_sin_nombre_31-110);}.cls-111{fill:url(#Degradado_sin_nombre_31-111);}.cls-112{fill:url(#Degradado_sin_nombre_31-112);}.cls-113{fill:url(#Degradado_sin_nombre_31-113);}.cls-114{fill:url(#Degradado_sin_nombre_31-114);}.cls-115{fill:url(#Degradado_sin_nombre_31-115);}.cls-116{fill:url(#Degradado_sin_nombre_31-116);}.cls-117{fill:url(#Degradado_sin_nombre_31-117);}.cls-118{fill:url(#Degradado_sin_nombre_31-118);}.cls-119{fill:url(#Degradado_sin_nombre_31-119);}.cls-120{fill:url(#Degradado_sin_nombre_31-120);}.cls-121{fill:url(#Degradado_sin_nombre_31-121);}.cls-122{fill:url(#Degradado_sin_nombre_31-122);}.cls-123{fill:url(#Degradado_sin_nombre_31-123);}.cls-124{fill:url(#Degradado_sin_nombre_31-124);}.cls-125{fill:url(#Degradado_sin_nombre_45-2);}.cls-126{fill:url(#Degradado_sin_nombre_45-3);}.cls-127{fill:url(#Degradado_sin_nombre_45-4);}.cls-128{fill:url(#Degradado_sin_nombre_45-5);}.cls-129{fill:url(#Degradado_sin_nombre_45-6);}.cls-130{fill:url(#Degradado_sin_nombre_45-7);}.cls-131{fill:url(#Degradado_sin_nombre_45-8);}.cls-132{fill:url(#Degradado_sin_nombre_45-9);}.cls-133{fill:url(#Degradado_sin_nombre_31-125);}.cls-134{fill:url(#Degradado_sin_nombre_45-10);}.cls-135{fill:url(#Degradado_sin_nombre_45-11);}.cls-136{fill:url(#Degradado_sin_nombre_45-12);}.cls-137{fill:url(#Degradado_sin_nombre_45-13);}.cls-138{fill:url(#Degradado_sin_nombre_45-14);}.cls-139{fill:url(#Degradado_sin_nombre_45-15);}.cls-140{fill:url(#Degradado_sin_nombre_45-16);}.cls-141{fill:url(#Degradado_sin_nombre_45-17);}.cls-142{fill:url(#Degradado_sin_nombre_45-18);}.cls-143{fill:url(#Degradado_sin_nombre_45-19);}.cls-144{fill:url(#Degradado_sin_nombre_45-20);}.cls-145{fill:url(#Degradado_sin_nombre_45-21);}.cls-146{fill:url(#Degradado_sin_nombre_45-22);}.cls-147{fill:url(#Degradado_sin_nombre_31-126);}.cls-148{fill:url(#Degradado_sin_nombre_45-23);}.cls-149{fill:url(#Degradado_sin_nombre_45-24);}.cls-150{fill:url(#Degradado_sin_nombre_45-25);}.cls-151{fill:url(#Degradado_sin_nombre_45-26);}.cls-152{fill:url(#Degradado_sin_nombre_45-27);}.cls-153{fill:url(#Degradado_sin_nombre_45-28);}.cls-154{fill:url(#Degradado_sin_nombre_45-29);}.cls-155{fill:url(#Degradado_sin_nombre_31-127);}.cls-156{fill:url(#Degradado_sin_nombre_31-128);}.cls-157{fill:url(#Degradado_sin_nombre_31-129);}.cls-158{fill:url(#Degradado_sin_nombre_31-130);}.cls-159{fill:url(#Degradado_sin_nombre_31-132);}.cls-160{fill:url(#Degradado_sin_nombre_31-133);}.cls-161{fill:url(#Degradado_sin_nombre_31-134);}.cls-162{fill:url(#Degradado_sin_nombre_31-135);}.cls-163{fill:url(#Degradado_sin_nombre_31-136);}.cls-164{fill:url(#Degradado_sin_nombre_31-137);}.cls-165{fill:url(#Degradado_sin_nombre_31-138);}.cls-166{fill:url(#Degradado_sin_nombre_31-139);}.cls-167{fill:url(#Degradado_sin_nombre_31-140);}.cls-168{fill:url(#Degradado_sin_nombre_31-141);}.cls-169{fill:url(#Degradado_sin_nombre_31-142);}.cls-170{fill:url(#Degradado_sin_nombre_31-143);}.cls-171{fill:url(#Degradado_sin_nombre_31-144);}.cls-172{fill:url(#Degradado_sin_nombre_31-145);}.cls-173{fill:url(#Degradado_sin_nombre_31-146);}.cls-174{fill:url(#Degradado_sin_nombre_31-147);}.cls-175{fill:url(#Degradado_sin_nombre_31-148);}.cls-176{fill:url(#Degradado_sin_nombre_31-149);}.cls-177{fill:url(#Degradado_sin_nombre_31-150);}.cls-178{fill:url(#Degradado_sin_nombre_31-151);}.cls-179{fill:url(#Degradado_sin_nombre_31-152);}.cls-180{fill:url(#Degradado_sin_nombre_31-153);}.cls-181{fill:url(#Degradado_sin_nombre_31-154);}.cls-182{fill:url(#Degradado_sin_nombre_31-155);}.cls-183{fill:url(#Degradado_sin_nombre_31-156);}.cls-184{fill:url(#Degradado_sin_nombre_31-157);}.cls-185{fill:url(#Degradado_sin_nombre_31-158);}.cls-186{fill:url(#Degradado_sin_nombre_31-159);}.cls-187{fill:url(#Degradado_sin_nombre_31-160);}.cls-188{fill:url(#Degradado_sin_nombre_31-161);}.cls-189{fill:url(#Degradado_sin_nombre_31-162);}.cls-190{fill:url(#Degradado_sin_nombre_31-163);}.cls-191{fill:url(#Degradado_sin_nombre_31-164);}.cls-192{fill:url(#Degradado_sin_nombre_31-165);}.cls-193{fill:url(#Degradado_sin_nombre_31-166);}.cls-194{fill:url(#Degradado_sin_nombre_31-167);}.cls-195{fill:url(#Degradado_sin_nombre_31-168);}.cls-196{fill:url(#Degradado_sin_nombre_31-169);}.cls-197{fill:url(#Degradado_sin_nombre_31-170);}.cls-198{fill:url(#Degradado_sin_nombre_31-171);}.cls-199{fill:url(#Degradado_sin_nombre_31-172);}.cls-200{fill:url(#Degradado_sin_nombre_31-173);}.cls-201{fill:url(#Degradado_sin_nombre_31-174);}.cls-202{fill:url(#Degradado_sin_nombre_31-175);}.cls-203{fill:url(#Degradado_sin_nombre_31-176);}.cls-204{fill:url(#Degradado_sin_nombre_31-177);}.cls-205{fill:url(#Degradado_sin_nombre_31-178);}.cls-206{fill:url(#Degradado_sin_nombre_31-179);}.cls-207{fill:url(#Degradado_sin_nombre_31-180);}.cls-208{fill:url(#Degradado_sin_nombre_31-181);}.cls-209{fill:url(#Degradado_sin_nombre_31-182);}.cls-210{fill:url(#Degradado_sin_nombre_31-183);}.cls-211{fill:url(#Degradado_sin_nombre_31-184);}.cls-212{fill:url(#Degradado_sin_nombre_31-185);}.cls-213{fill:url(#Degradado_sin_nombre_31-186);}.cls-214{fill:url(#Degradado_sin_nombre_31-187);}.cls-215{fill:url(#Degradado_sin_nombre_31-188);}.cls-216{fill:url(#Degradado_sin_nombre_49);}.cls-217{fill:#8769b5;}.cls-217,.cls-241{opacity:0.5;}.cls-218{fill:#754baa;}.cls-219{fill:#976fc1;}.cls-220{fill:#c7aae2;}.cls-220,.cls-221,.cls-223,.cls-242{fill-rule:evenodd;}.cls-221,.cls-238{fill:#ecdff2;}.cls-222{fill:#fff;}.cls-223{fill:#d1b7e6;}.cls-224{fill:url(#Degradado_sin_nombre_9);}.cls-225,.cls-242{fill:#63294e;}.cls-226{fill:gold;}.cls-227{opacity:0.43;}.cls-228{fill:#ffce00;}.cls-229{fill:url(#Degradado_sin_nombre_12);}.cls-230{fill:url(#Degradado_sin_nombre_12-2);}.cls-231{fill:url(#Degradado_sin_nombre_12-3);}.cls-232{fill:url(#Degradado_sin_nombre_9-2);}.cls-233{fill:url(#Degradado_sin_nombre_9-3);}.cls-234{fill:#ce5502;}.cls-235{fill:#ffd800;}.cls-236{fill:url(#Degradado_sin_nombre_171);}.cls-237{fill:#3f1c30;}.cls-238{opacity:0.4;}.cls-239{fill:#ff9300;}.cls-240{fill:#e66600;}</style><linearGradient id="Degradado_sin_nombre_31" x1="1304.07" y1="370.47" x2="1304.07" y2="370.47" gradientUnits="userSpaceOnUse"><stop offset="0" stop-color="#ffc83f"/><stop offset="1" stop-color="#ffe1a4" stop-opacity="0"/></linearGradient><linearGradient id="Degradado_sin_nombre_31-2" x1="1304.07" y1="370.47" x2="1304.07" y2="370.47" gradientTransform="translate(818 -895.07) rotate(53.13)" xlink:href="#Degradado_sin_nombre_31"/><linearGradient id="Degradado_sin_nombre_31-3" x1="1304.07" y1="370.47" x2="1304.07" y2="370.47" gradientTransform="translate(303.35 -544.09) rotate(26.57)" xlink:href="#Degradado_sin_nombre_31"/><linearGradient id="Degradado_sin_nombre_31-4" x1="1304.07" y1="370.47" x2="1304.07" y2="370.47" gradientTransform="translate(128.79 -305.22) rotate(14.04)" xlink:href="#Degradado_sin_nombre_31"/><linearGradient id="Degradado_sin_nombre_31-5" x1="1304.07" y1="370.47" x2="1304.07" y2="370.47" gradientTransform="translate(483.1 -708.35) rotate(36.87)" xlink:href="#Degradado_sin_nombre_31"/><linearGradient id="Degradado_sin_nombre_31-6" x1="1304.07" y1="370.47" x2="1304.07" y2="370.47" xlink:href="#Degradado_sin_nombre_31"/><linearGradient id="Degradado_sin_nombre_31-7" x1="1304.07" y1="370.47" x2="1304.07" y2="370.47" gradientTransform="translate(818 -895.07) rotate(53.13)" xlink:href="#Degradado_sin_nombre_31"/><linearGradient id="Degradado_sin_nombre_31-8" x1="1304.07" y1="370.47" x2="1304.07" y2="370.47" gradientTransform="translate(818 -895.07) rotate(53.13)" xlink:href="#Degradado_sin_nombre_31"/><linearGradient id="Degradado_sin_nombre_31-9" x1="1304.07" y1="370.47" x2="1304.07" y2="370.47" gradientTransform="translate(1052.23 -961.6) rotate(63.43)" xlink:href="#Degradado_sin_nombre_31"/><linearGradient id="Degradado_sin_nombre_31-10" x1="1304.07" y1="370.47" x2="1304.07" y2="370.47" gradientTransform="translate(818 -895.07) rotate(53.13)" xlink:href="#Degradado_sin_nombre_31"/><linearGradient id="Degradado_sin_nombre_31-11" x1="1304.07" y1="370.47" x2="1304.07" y2="370.47" gradientTransform="translate(1347.2 -984.51) rotate(75.96)" xlink:href="#Degradado_sin_nombre_31"/><linearGradient id="Degradado_sin_nombre_31-12" x1="1304.07" y1="370.47" x2="1304.07" y2="370.47" xlink:href="#Degradado_sin_nombre_31"/><linearGradient id="Degradado_sin_nombre_31-13" x1="1304.07" y1="370.47" x2="1304.07" y2="370.47" gradientTransform="translate(818 -895.07) rotate(53.13)" xlink:href="#Degradado_sin_nombre_31"/><linearGradient id="Degradado_sin_nombre_31-14" x1="1304.07" y1="370.47" x2="1304.07" y2="370.47" gradientTransform="translate(818 -895.07) rotate(53.13)" xlink:href="#Degradado_sin_nombre_31"/><linearGradient id="Degradado_sin_nombre_31-15" x1="1304.07" y1="370.47" x2="1304.07" y2="370.47" xlink:href="#Degradado_sin_nombre_31"/><linearGradient id="Degradado_sin_nombre_31-16" x1="1304.07" y1="370.47" x2="1304.07" y2="370.47" xlink:href="#Degradado_sin_nombre_31"/><linearGradient id="Degradado_sin_nombre_31-17" x1="1304.07" y1="370.47" x2="1304.07" y2="370.47" gradientTransform="translate(643.92 -813.61) rotate(45)" xlink:href="#Degradado_sin_nombre_31"/><linearGradient id="Degradado_sin_nombre_31-18" x1="1304.07" y1="370.47" x2="1304.07" y2="370.47" gradientTransform="translate(643.92 -813.61) rotate(45)" xlink:href="#Degradado_sin_nombre_31"/><linearGradient id="Degradado_sin_nombre_31-19" x1="1304.07" y1="370.47" x2="1304.07" y2="370.47" xlink:href="#Degradado_sin_nombre_31"/><linearGradient id="Degradado_sin_nombre_31-20" x1="1304.07" y1="370.47" x2="1304.07" y2="370.47" gradientTransform="translate(394.57 -634.84) rotate(32.01)" xlink:href="#Degradado_sin_nombre_31"/><linearGradient id="Degradado_sin_nombre_31-21" x1="1304.07" y1="370.47" x2="1304.07" y2="370.47" gradientTransform="translate(1144.48 -975.77) rotate(67.38)" xlink:href="#Degradado_sin_nombre_31"/><linearGradient id="Degradado_sin_nombre_31-22" x1="1304.07" y1="370.47" x2="1304.07" y2="370.47" gradientTransform="translate(483.1 -708.35) rotate(36.87)" xlink:href="#Degradado_sin_nombre_31"/><linearGradient id="Degradado_sin_nombre_31-23" x1="1304.07" y1="370.47" x2="1304.07" y2="370.47" gradientTransform="translate(1347.2 -984.51) rotate(75.96)" xlink:href="#Degradado_sin_nombre_31"/><linearGradient id="Degradado_sin_nombre_31-24" x1="1304.07" y1="370.47" x2="1304.07" y2="370.47" gradientTransform="translate(1243.15 -983.83) rotate(71.57)" xlink:href="#Degradado_sin_nombre_31"/><linearGradient id="Degradado_sin_nombre_31-25" x1="1304.07" y1="370.47" x2="1304.07" y2="370.47" xlink:href="#Degradado_sin_nombre_31"/><linearGradient id="Degradado_sin_nombre_31-26" x1="1304.07" y1="370.47" x2="1304.07" y2="370.47" gradientTransform="translate(818 -895.07) rotate(53.13)" xlink:href="#Degradado_sin_nombre_31"/><linearGradient id="Degradado_sin_nombre_31-27" x1="1304.07" y1="370.47" x2="1304.07" y2="370.47" xlink:href="#Degradado_sin_nombre_31"/><linearGradient id="Degradado_sin_nombre_31-28" x1="1304.07" y1="370.47" x2="1304.07" y2="370.47" xlink:href="#Degradado_sin_nombre_31"/><linearGradient id="Degradado_sin_nombre_31-29" x1="1304.07" y1="370.47" x2="1304.07" y2="370.47" gradientTransform="translate(1509.93 -969.48) rotate(82.87)" xlink:href="#Degradado_sin_nombre_31"/><linearGradient id="Degradado_sin_nombre_31-31" x1="1304.07" y1="370.47" x2="1304.07" y2="370.47" xlink:href="#Degradado_sin_nombre_31"/><linearGradient id="Degradado_sin_nombre_31-32" x1="1304.07" y1="370.47" x2="1304.07" y2="370.47" gradientTransform="translate(257.83 -491.63) rotate(23.63)" xlink:href="#Degradado_sin_nombre_31"/><linearGradient id="Degradado_sin_nombre_31-33" x1="1304.07" y1="370.47" x2="1304.07" y2="370.47" gradientTransform="translate(1052.23 -961.6) rotate(63.43)" xlink:href="#Degradado_sin_nombre_31"/><linearGradient id="Degradado_sin_nombre_31-34" x1="1304.07" y1="370.47" x2="1304.07" y2="370.47" gradientTransform="translate(303.35 -544.09) rotate(26.57)" xlink:href="#Degradado_sin_nombre_31"/><linearGradient id="Degradado_sin_nombre_31-35" x1="1304.07" y1="370.48" x2="1304.07" y2="370.48" gradientTransform="translate(221.16 -445.09) rotate(21.12)" xlink:href="#Degradado_sin_nombre_31"/><linearGradient id="Degradado_sin_nombre_31-36" x1="1304.07" y1="370.47" x2="1304.07" y2="370.47" xlink:href="#Degradado_sin_nombre_31"/><linearGradient id="Degradado_sin_nombre_31-37" x1="1304.07" y1="370.47" x2="1304.07" y2="370.47" xlink:href="#Degradado_sin_nombre_31"/><linearGradient id="Degradado_sin_nombre_31-38" x1="1304.07" y1="370.47" x2="1304.07" y2="370.47" xlink:href="#Degradado_sin_nombre_31"/><linearGradient id="Degradado_sin_nombre_31-39" x1="1304.07" y1="370.47" x2="1304.07" y2="370.47" gradientTransform="translate(818.01 -895.07) rotate(53.13)" xlink:href="#Degradado_sin_nombre_31"/><linearGradient id="Degradado_sin_nombre_31-40" x1="1304.07" y1="370.47" x2="1304.07" y2="370.47" gradientTransform="translate(1193.06 -980.65) rotate(69.44)" xlink:href="#Degradado_sin_nombre_31"/><linearGradient id="Degradado_sin_nombre_31-41" x1="1304.07" y1="370.47" x2="1304.07" y2="370.47" gradientTransform="translate(1477 -974.12) rotate(81.47)" xlink:href="#Degradado_sin_nombre_31"/><linearGradient id="Degradado_sin_nombre_31-42" x1="1304.07" y1="370.47" x2="1304.07" y2="370.47" gradientTransform="translate(1193.06 -980.65) rotate(69.44)" xlink:href="#Degradado_sin_nombre_31"/><linearGradient id="Degradado_sin_nombre_31-43" x1="1304.07" y1="370.47" x2="1304.07" y2="370.47" gradientTransform="translate(1347.2 -984.51) rotate(75.96)" xlink:href="#Degradado_sin_nombre_31"/><linearGradient id="Degradado_sin_nombre_31-44" x1="1304.07" y1="370.47" x2="1304.07" y2="370.47" gradientTransform="translate(818 -895.07) rotate(53.13)" xlink:href="#Degradado_sin_nombre_31"/><linearGradient id="Degradado_sin_nombre_31-45" x1="1304.07" y1="370.47" x2="1304.07" y2="370.47" gradientTransform="translate(1052.23 -961.6) rotate(63.43)" xlink:href="#Degradado_sin_nombre_31"/><linearGradient id="Degradado_sin_nombre_31-46" x1="1304.07" y1="370.47" x2="1304.07" y2="370.47" xlink:href="#Degradado_sin_nombre_31"/><linearGradient id="Degradado_sin_nombre_31-47" x1="1304.07" y1="370.47" x2="1304.07" y2="370.47" gradientTransform="translate(483.1 -708.35) rotate(36.87)" xlink:href="#Degradado_sin_nombre_31"/><linearGradient id="Degradado_sin_nombre_31-48" x1="1304.07" y1="370.47" x2="1304.07" y2="370.47" xlink:href="#Degradado_sin_nombre_31"/><linearGradient id="Degradado_sin_nombre_31-49" x1="1304.07" y1="370.47" x2="1304.07" y2="370.47" xlink:href="#Degradado_sin_nombre_31"/><linearGradient id="Degradado_sin_nombre_31-50" x1="1304.07" y1="370.47" x2="1304.07" y2="370.47" gradientTransform="translate(1509.93 -969.48) rotate(82.87)" xlink:href="#Degradado_sin_nombre_31"/><linearGradient id="Degradado_sin_nombre_31-51" x1="1304.07" y1="370.47" x2="1304.07" y2="370.47" gradientTransform="translate(1347.2 -984.52) rotate(75.96)" xlink:href="#Degradado_sin_nombre_31"/><linearGradient id="Degradado_sin_nombre_31-52" x1="1304.07" y1="370.47" x2="1304.07" y2="370.47" xlink:href="#Degradado_sin_nombre_31"/><linearGradient id="Degradado_sin_nombre_31-53" x1="1304.07" y1="370.47" x2="1304.07" y2="370.47" gradientTransform="translate(483.1 -708.35) rotate(36.87)" xlink:href="#Degradado_sin_nombre_31"/><linearGradient id="Degradado_sin_nombre_31-54" x1="1304.07" y1="370.47" x2="1304.07" y2="370.47" gradientTransform="translate(778.71 -879.27) rotate(51.34)" xlink:href="#Degradado_sin_nombre_31"/><linearGradient id="Degradado_sin_nombre_31-55" x1="1304.07" y1="370.47" x2="1304.07" y2="370.47" xlink:href="#Degradado_sin_nombre_31"/><linearGradient id="Degradado_sin_nombre_31-56" x1="1304.07" y1="370.47" x2="1304.07" y2="370.47" xlink:href="#Degradado_sin_nombre_31"/><linearGradient id="Degradado_sin_nombre_31-57" x1="1304.07" y1="370.47" x2="1304.07" y2="370.47" gradientTransform="translate(1052.23 -961.6) rotate(63.43)" xlink:href="#Degradado_sin_nombre_31"/><linearGradient id="Degradado_sin_nombre_31-58" x1="1304.07" y1="370.47" x2="1304.07" y2="370.47" gradientTransform="matrix(0.83, 0.55, -0.55, 0.83, 424.52, -661.15)" xlink:href="#Degradado_sin_nombre_31"/><linearGradient id="Degradado_sin_nombre_31-59" x1="1304.07" y1="370.47" x2="1304.07" y2="370.47" xlink:href="#Degradado_sin_nombre_31"/><linearGradient id="Degradado_sin_nombre_31-60" x1="1304.07" y1="370.47" x2="1304.07" y2="370.47" xlink:href="#Degradado_sin_nombre_31"/><linearGradient id="Degradado_sin_nombre_31-62" x1="1304.07" y1="370.47" x2="1304.07" y2="370.47" gradientTransform="translate(1052.23 -961.6) rotate(63.43)" xlink:href="#Degradado_sin_nombre_31"/><linearGradient id="Degradado_sin_nombre_31-63" x1="1304.07" y1="370.47" x2="1304.07" y2="370.47" gradientTransform="translate(957.96 -940.28) rotate(59.35)" xlink:href="#Degradado_sin_nombre_31"/><linearGradient id="Degradado_sin_nombre_31-64" x1="1304.07" y1="370.46" x2="1304.07" y2="370.46" gradientTransform="translate(128.79 -305.22) rotate(14.04)" xlink:href="#Degradado_sin_nombre_31"/><linearGradient id="Degradado_sin_nombre_31-65" x1="1304.07" y1="370.45" x2="1304.07" y2="370.45" xlink:href="#Degradado_sin_nombre_31"/><linearGradient id="Degradado_sin_nombre_31-66" x1="1304.07" y1="370.46" x2="1304.07" y2="370.46" gradientTransform="translate(175.92 -381.28) rotate(17.82)" xlink:href="#Degradado_sin_nombre_31"/><linearGradient id="Degradado_sin_nombre_31-67" x1="1304.07" y1="370.46" x2="1304.07" y2="370.46" gradientTransform="translate(257.82 -491.63) rotate(23.63)" xlink:href="#Degradado_sin_nombre_31"/><linearGradient id="Degradado_sin_nombre_31-68" x1="1304.07" y1="370.46" x2="1304.07" y2="370.46" xlink:href="#Degradado_sin_nombre_31"/><linearGradient id="Degradado_sin_nombre_31-69" x1="1304.07" y1="370.46" x2="1304.07" y2="370.46" gradientTransform="translate(1468.77 -975.17) rotate(81.12)" xlink:href="#Degradado_sin_nombre_31"/><linearGradient id="Degradado_sin_nombre_31-70" x1="1304.07" y1="370.46" x2="1304.07" y2="370.46" gradientTransform="translate(1268.69 -984.75) rotate(72.65)" xlink:href="#Degradado_sin_nombre_31"/><linearGradient id="Degradado_sin_nombre_31-71" x1="1304.07" y1="370.47" x2="1304.07" y2="370.47" xlink:href="#Degradado_sin_nombre_31"/><linearGradient id="Degradado_sin_nombre_31-72" x1="1304.07" y1="370.47" x2="1304.07" y2="370.47" xlink:href="#Degradado_sin_nombre_31"/><linearGradient id="Degradado_sin_nombre_31-73" x1="1304.07" y1="370.46" x2="1304.07" y2="370.46" gradientTransform="translate(394.57 -634.84) rotate(32.01)" xlink:href="#Degradado_sin_nombre_31"/><linearGradient id="Degradado_sin_nombre_31-74" x1="1304.07" y1="370.47" x2="1304.07" y2="370.47" gradientTransform="translate(1347.19 -984.52) rotate(75.96)" xlink:href="#Degradado_sin_nombre_31"/><linearGradient id="Degradado_sin_nombre_31-75" x1="1304.07" y1="370.47" x2="1304.07" y2="370.47" xlink:href="#Degradado_sin_nombre_31"/><linearGradient id="Degradado_sin_nombre_31-76" x1="1304.07" y1="370.46" x2="1304.07" y2="370.46" xlink:href="#Degradado_sin_nombre_31"/><linearGradient id="Degradado_sin_nombre_31-77" x1="1304.07" y1="370.46" x2="1304.07" y2="370.46" gradientTransform="translate(778.71 -879.27) rotate(51.34)" xlink:href="#Degradado_sin_nombre_31"/><linearGradient id="Degradado_sin_nombre_31-78" x1="1304.07" y1="370.47" x2="1304.07" y2="370.47" xlink:href="#Degradado_sin_nombre_31"/><linearGradient id="Degradado_sin_nombre_31-79" x1="1304.07" y1="370.47" x2="1304.07" y2="370.47" gradientTransform="translate(128.79 -305.22) rotate(14.04)" xlink:href="#Degradado_sin_nombre_31"/><linearGradient id="Degradado_sin_nombre_31-80" x1="1304.07" y1="370.46" x2="1304.07" y2="370.46" gradientTransform="translate(128.79 -305.22) rotate(14.04)" xlink:href="#Degradado_sin_nombre_31"/><linearGradient id="Degradado_sin_nombre_31-81" x1="1304.07" y1="370.46" x2="1304.07" y2="370.46" gradientTransform="translate(257.82 -491.63) rotate(23.63)" xlink:href="#Degradado_sin_nombre_31"/><linearGradient id="Degradado_sin_nombre_31-82" x1="1304.07" y1="370.46" x2="1304.07" y2="370.46" gradientTransform="translate(1347.19 -984.52) rotate(75.96)" xlink:href="#Degradado_sin_nombre_31"/><linearGradient id="Degradado_sin_nombre_31-83" x1="1304.07" y1="370.46" x2="1304.07" y2="370.46" gradientTransform="translate(303.35 -544.09) rotate(26.57)" xlink:href="#Degradado_sin_nombre_31"/><linearGradient id="Degradado_sin_nombre_45" x1="1890.68" y1="-58.45" x2="1356.7" y2="329.62" gradientUnits="userSpaceOnUse"><stop offset="0" stop-color="#9485ea"/><stop offset="1" stop-color="#f3ebff"/></linearGradient><linearGradient id="Degradado_sin_nombre_31-84" x1="1304.07" y1="370.46" x2="1304.07" y2="370.46" gradientTransform="translate(213.11 -434.3) rotate(20.56)" xlink:href="#Degradado_sin_nombre_31"/><linearGradient id="Degradado_sin_nombre_31-85" x1="1304.07" y1="370.46" x2="1304.07" y2="370.46" gradientTransform="translate(303.35 -544.09) rotate(26.57)" xlink:href="#Degradado_sin_nombre_31"/><linearGradient id="Degradado_sin_nombre_31-86" x1="1304.07" y1="370.46" x2="1304.07" y2="370.46" gradientTransform="translate(1509.92 -969.48) rotate(82.87)" xlink:href="#Degradado_sin_nombre_31"/><linearGradient id="Degradado_sin_nombre_31-87" x1="1304.07" y1="370.47" x2="1304.07" y2="370.47" xlink:href="#Degradado_sin_nombre_31"/><linearGradient id="Degradado_sin_nombre_31-88" x1="1304.07" y1="370.47" x2="1304.07" y2="370.47" xlink:href="#Degradado_sin_nombre_31"/><linearGradient id="Degradado_sin_nombre_31-89" x1="1304.07" y1="370.46" x2="1304.07" y2="370.46" gradientTransform="translate(394.57 -634.84) rotate(32.01)" xlink:href="#Degradado_sin_nombre_31"/><linearGradient id="Degradado_sin_nombre_31-90" x1="1304.07" y1="370.47" x2="1304.07" y2="370.47" gradientTransform="translate(927.07 -931.73) rotate(57.99)" xlink:href="#Degradado_sin_nombre_31"/><linearGradient id="Degradado_sin_nombre_31-91" x1="1304.07" y1="370.47" x2="1304.07" y2="370.47" gradientTransform="translate(1052.23 -961.6) rotate(63.43)" xlink:href="#Degradado_sin_nombre_31"/><linearGradient id="Degradado_sin_nombre_31-92" x1="1304.07" y1="370.46" x2="1304.07" y2="370.46" gradientTransform="translate(1580.68 -956.68) rotate(85.91)" xlink:href="#Degradado_sin_nombre_31"/><linearGradient id="Degradado_sin_nombre_31-93" x1="1304.07" y1="370.47" x2="1304.07" y2="370.47" xlink:href="#Degradado_sin_nombre_31"/><linearGradient id="Degradado_sin_nombre_31-94" x1="1304.07" y1="370.47" x2="1304.07" y2="370.47" gradientTransform="translate(818 -895.07) rotate(53.13)" xlink:href="#Degradado_sin_nombre_31"/><linearGradient id="Degradado_sin_nombre_31-95" x1="1304.07" y1="370.47" x2="1304.07" y2="370.47" xlink:href="#Degradado_sin_nombre_31"/><linearGradient id="Degradado_sin_nombre_31-96" x1="1304.07" y1="370.47" x2="1304.07" y2="370.47" gradientTransform="translate(483.1 -708.35) rotate(36.87)" xlink:href="#Degradado_sin_nombre_31"/><linearGradient id="Degradado_sin_nombre_31-97" x1="1304.07" y1="370.47" x2="1304.07" y2="370.47" gradientTransform="translate(483.1 -708.35) rotate(36.87)" xlink:href="#Degradado_sin_nombre_31"/><linearGradient id="Degradado_sin_nombre_31-98" x1="1304.07" y1="370.47" x2="1304.07" y2="370.47" xlink:href="#Degradado_sin_nombre_31"/><linearGradient id="Degradado_sin_nombre_31-99" x1="1304.07" y1="370.47" x2="1304.07" y2="370.47" gradientTransform="translate(1347.2 -984.51) rotate(75.96)" xlink:href="#Degradado_sin_nombre_31"/><linearGradient id="Degradado_sin_nombre_31-100" x1="1304.07" y1="370.47" x2="1304.07" y2="370.47" xlink:href="#Degradado_sin_nombre_31"/><linearGradient id="Degradado_sin_nombre_31-101" x1="1304.07" y1="370.47" x2="1304.07" y2="370.47" gradientTransform="translate(1347.2 -984.51) rotate(75.96)" xlink:href="#Degradado_sin_nombre_31"/><linearGradient id="Degradado_sin_nombre_31-102" x1="1304.07" y1="370.47" x2="1304.07" y2="370.47" gradientTransform="translate(1052.23 -961.6) rotate(63.43)" xlink:href="#Degradado_sin_nombre_31"/><linearGradient id="Degradado_sin_nombre_31-103" x1="1304.07" y1="370.47" x2="1304.07" y2="370.47" gradientTransform="translate(818 -895.07) rotate(53.13)" xlink:href="#Degradado_sin_nombre_31"/><linearGradient id="Degradado_sin_nombre_31-104" x1="1304.07" y1="370.47" x2="1304.07" y2="370.47" xlink:href="#Degradado_sin_nombre_31"/><linearGradient id="Degradado_sin_nombre_31-105" x1="1304.07" y1="370.47" x2="1304.07" y2="370.47" gradientTransform="translate(483.1 -708.35) rotate(36.87)" xlink:href="#Degradado_sin_nombre_31"/><linearGradient id="Degradado_sin_nombre_31-106" x1="1304.07" y1="370.47" x2="1304.07" y2="370.47" xlink:href="#Degradado_sin_nombre_31"/><linearGradient id="Degradado_sin_nombre_31-107" x1="1304.07" y1="370.47" x2="1304.07" y2="370.47" gradientTransform="translate(1347.2 -984.51) rotate(75.96)" xlink:href="#Degradado_sin_nombre_31"/><linearGradient id="Degradado_sin_nombre_31-108" x1="1304.07" y1="370.47" x2="1304.07" y2="370.47" gradientTransform="translate(303.35 -544.09) rotate(26.57)" xlink:href="#Degradado_sin_nombre_31"/><linearGradient id="Degradado_sin_nombre_31-109" x1="1304.07" y1="370.47" x2="1304.07" y2="370.47" xlink:href="#Degradado_sin_nombre_31"/><linearGradient id="Degradado_sin_nombre_31-110" x1="1304.07" y1="370.47" x2="1304.07" y2="370.47" gradientTransform="translate(1052.23 -961.61) rotate(63.43)" xlink:href="#Degradado_sin_nombre_31"/><linearGradient id="Degradado_sin_nombre_31-111" x1="1304.07" y1="370.47" x2="1304.07" y2="370.47" gradientTransform="translate(1347.19 -984.52) rotate(75.96)" xlink:href="#Degradado_sin_nombre_31"/><linearGradient id="Degradado_sin_nombre_31-112" x1="1304.07" y1="370.47" x2="1304.07" y2="370.47" xlink:href="#Degradado_sin_nombre_31"/><linearGradient id="Degradado_sin_nombre_31-113" x1="1304.07" y1="370.47" x2="1304.07" y2="370.47" xlink:href="#Degradado_sin_nombre_31"/><linearGradient id="Degradado_sin_nombre_31-114" x1="1304.07" y1="370.47" x2="1304.07" y2="370.47" xlink:href="#Degradado_sin_nombre_31"/><linearGradient id="Degradado_sin_nombre_31-115" x1="1304.07" y1="370.47" x2="1304.07" y2="370.47" gradientTransform="translate(724.14 -854.9) rotate(48.81)" xlink:href="#Degradado_sin_nombre_31"/><linearGradient id="Degradado_sin_nombre_31-116" x1="1304.07" y1="370.47" x2="1304.07" y2="370.47" xlink:href="#Degradado_sin_nombre_31"/><linearGradient id="Degradado_sin_nombre_31-117" x1="1304.07" y1="370.47" x2="1304.07" y2="370.47" xlink:href="#Degradado_sin_nombre_31"/><linearGradient id="Degradado_sin_nombre_31-118" x1="1304.07" y1="370.47" x2="1304.08" y2="370.47" gradientTransform="translate(627.76 -804.46) rotate(44.22)" xlink:href="#Degradado_sin_nombre_31"/><linearGradient id="Degradado_sin_nombre_31-119" x1="1304.07" y1="370.47" x2="1304.07" y2="370.47" xlink:href="#Degradado_sin_nombre_31"/><linearGradient id="Degradado_sin_nombre_31-120" x1="1304.07" y1="370.47" x2="1304.07" y2="370.47" xlink:href="#Degradado_sin_nombre_31"/><linearGradient id="Degradado_sin_nombre_31-121" x1="1304.07" y1="370.47" x2="1304.07" y2="370.47" xlink:href="#Degradado_sin_nombre_31"/><linearGradient id="Degradado_sin_nombre_31-122" x1="1304.07" y1="370.47" x2="1304.07" y2="370.47" gradientTransform="translate(870.56 -914.02) rotate(55.49)" xlink:href="#Degradado_sin_nombre_31"/><linearGradient id="Degradado_sin_nombre_31-123" x1="1304.07" y1="370.47" x2="1304.07" y2="370.47" gradientTransform="translate(818 -895.07) rotate(53.13)" xlink:href="#Degradado_sin_nombre_31"/><linearGradient id="Degradado_sin_nombre_31-124" x1="1304.07" y1="370.47" x2="1304.07" y2="370.47" gradientTransform="translate(927.07 -931.73) rotate(57.99)" xlink:href="#Degradado_sin_nombre_31"/><linearGradient id="Degradado_sin_nombre_45-2" x1="464.86" y1="1189.24" x2="1287.21" y2="385.27" xlink:href="#Degradado_sin_nombre_45"/><linearGradient id="Degradado_sin_nombre_45-3" x1="876.04" y1="-129.16" x2="1243.46" y2="319.28" xlink:href="#Degradado_sin_nombre_45"/><linearGradient id="Degradado_sin_nombre_45-4" x1="-0.09" y1="311.65" x2="1302.16" y2="381.85" xlink:href="#Degradado_sin_nombre_45"/><linearGradient id="Degradado_sin_nombre_45-5" x1="121.03" y1="594.95" x2="1359.76" y2="435.9" xlink:href="#Degradado_sin_nombre_45"/><linearGradient id="Degradado_sin_nombre_45-6" x1="-47.3" y1="591.18" x2="1293.68" y2="402.39" xlink:href="#Degradado_sin_nombre_45"/><linearGradient id="Degradado_sin_nombre_45-7" x1="0" y1="480.11" x2="1304.07" y2="480.11" xlink:href="#Degradado_sin_nombre_45"/><linearGradient id="Degradado_sin_nombre_45-8" x1="378.58" y1="-77.59" x2="1299.38" y2="358.57" xlink:href="#Degradado_sin_nombre_45"/><linearGradient id="Degradado_sin_nombre_45-9" x1="1554.99" y1="-68.69" x2="1353.9" y2="306.18" xlink:href="#Degradado_sin_nombre_45"/><linearGradient id="Degradado_sin_nombre_31-125" x1="1304.07" y1="370.46" x2="1304.08" y2="370.46" gradientTransform="translate(327.76 -570.1) rotate(28.07)" xlink:href="#Degradado_sin_nombre_31"/><linearGradient id="Degradado_sin_nombre_45-10" x1="1449.24" y1="-77.88" x2="1322.67" y2="344.32" xlink:href="#Degradado_sin_nombre_45"/><linearGradient id="Degradado_sin_nombre_45-11" x1="1681.29" y1="-52.41" x2="1372.72" y2="300.79" xlink:href="#Degradado_sin_nombre_45"/><linearGradient id="Degradado_sin_nombre_45-12" x1="1151.08" y1="-118.13" x2="1282.45" y2="294.66" xlink:href="#Degradado_sin_nombre_45"/><linearGradient id="Degradado_sin_nombre_45-13" x1="1031.57" y1="-118.48" x2="1263.61" y2="301.65" xlink:href="#Degradado_sin_nombre_45"/><linearGradient id="Degradado_sin_nombre_45-14" x1="1360.38" y1="-118.86" x2="1307.16" y2="330.84" xlink:href="#Degradado_sin_nombre_45"/><linearGradient id="Degradado_sin_nombre_45-15" x1="1261.13" y1="-88.69" x2="1304.12" y2="348.81" xlink:href="#Degradado_sin_nombre_45"/><linearGradient id="Degradado_sin_nombre_45-16" x1="2052.32" y1="600.53" x2="1405.53" y2="403.37" xlink:href="#Degradado_sin_nombre_45"/><linearGradient id="Degradado_sin_nombre_45-17" x1="2041.34" y1="457.05" x2="1428.91" y2="391.49" xlink:href="#Degradado_sin_nombre_45"/><linearGradient id="Degradado_sin_nombre_45-18" x1="1963.74" y1="940.9" x2="1306.22" y2="372.17" xlink:href="#Degradado_sin_nombre_45"/><linearGradient id="Degradado_sin_nombre_45-19" x1="1983.95" y1="746.15" x2="1389.63" y2="415.47" xlink:href="#Degradado_sin_nombre_45"/><linearGradient id="Degradado_sin_nombre_45-20" x1="2023.5" y1="344.24" x2="1407.75" y2="357.65" xlink:href="#Degradado_sin_nombre_45"/><linearGradient id="Degradado_sin_nombre_45-21" x1="2025.27" y1="40.69" x2="1351.27" y2="347.85" xlink:href="#Degradado_sin_nombre_45"/><linearGradient id="Degradado_sin_nombre_45-22" x1="2035.7" y1="204" x2="1362.78" y2="358.81" xlink:href="#Degradado_sin_nombre_45"/><linearGradient id="Degradado_sin_nombre_31-126" x1="1304.07" y1="370.47" x2="1304.08" y2="370.47" xlink:href="#Degradado_sin_nombre_31"/><linearGradient id="Degradado_sin_nombre_45-23" x1="1163.29" y1="1169.06" x2="1303.17" y2="389.13" xlink:href="#Degradado_sin_nombre_45"/><linearGradient id="Degradado_sin_nombre_45-24" x1="1330.04" y1="1203.25" x2="1308.88" y2="475.77" xlink:href="#Degradado_sin_nombre_45"/><linearGradient id="Degradado_sin_nombre_45-25" x1="760.62" y1="1178.98" x2="1306.86" y2="364.71" xlink:href="#Degradado_sin_nombre_45"/><linearGradient id="Degradado_sin_nombre_45-26" x1="962.78" y1="1220.08" x2="1292.88" y2="396.81" xlink:href="#Degradado_sin_nombre_45"/><linearGradient id="Degradado_sin_nombre_45-27" x1="1822.99" y1="1047.19" x2="1305.42" y2="378.4" xlink:href="#Degradado_sin_nombre_45"/><linearGradient id="Degradado_sin_nombre_45-28" x1="1664.12" y1="1118.36" x2="1305.26" y2="385.03" xlink:href="#Degradado_sin_nombre_45"/><linearGradient id="Degradado_sin_nombre_45-29" x1="1502.54" y1="1178.66" x2="1315.75" y2="414.33" xlink:href="#Degradado_sin_nombre_45"/><linearGradient id="Degradado_sin_nombre_31-127" x1="1304.07" y1="370.48" x2="1304.07" y2="370.48" gradientTransform="translate(1347.2 -984.51) rotate(75.96)" xlink:href="#Degradado_sin_nombre_31"/><linearGradient id="Degradado_sin_nombre_31-128" x1="1304.07" y1="370.47" x2="1304.07" y2="370.47" xlink:href="#Degradado_sin_nombre_31"/><linearGradient id="Degradado_sin_nombre_31-129" x1="1304.07" y1="370.47" x2="1304.07" y2="370.47" gradientTransform="translate(888.95 -920.08) rotate(56.31)" xlink:href="#Degradado_sin_nombre_31"/><linearGradient id="Degradado_sin_nombre_31-130" x1="1304.07" y1="370.47" x2="1304.07" y2="370.47" xlink:href="#Degradado_sin_nombre_31"/><linearGradient id="Degradado_sin_nombre_31-132" x1="1304.07" y1="370.47" x2="1304.07" y2="370.47" gradientTransform="translate(818 -895.07) rotate(53.13)" xlink:href="#Degradado_sin_nombre_31"/><linearGradient id="Degradado_sin_nombre_31-133" x1="1304.07" y1="370.47" x2="1304.07" y2="370.47" gradientTransform="translate(613.78 -796.3) rotate(43.53)" xlink:href="#Degradado_sin_nombre_31"/><linearGradient id="Degradado_sin_nombre_31-134" x1="1304.07" y1="370.47" x2="1304.07" y2="370.47" xlink:href="#Degradado_sin_nombre_31"/><linearGradient id="Degradado_sin_nombre_31-135" x1="1304.07" y1="370.47" x2="1304.07" y2="370.47" gradientTransform="translate(1052.23 -961.6) rotate(63.43)" xlink:href="#Degradado_sin_nombre_31"/><linearGradient id="Degradado_sin_nombre_31-136" x1="1304.07" y1="370.47" x2="1304.07" y2="370.47" xlink:href="#Degradado_sin_nombre_31"/><linearGradient id="Degradado_sin_nombre_31-137" x1="1304.07" y1="370.47" x2="1304.07" y2="370.47" gradientTransform="translate(1052.23 -961.6) rotate(63.43)" xlink:href="#Degradado_sin_nombre_31"/><linearGradient id="Degradado_sin_nombre_31-138" x1="1304.07" y1="370.47" x2="1304.07" y2="370.47" gradientTransform="translate(1193.06 -980.65) rotate(69.44)" xlink:href="#Degradado_sin_nombre_31"/><linearGradient id="Degradado_sin_nombre_31-139" x1="1304.07" y1="370.47" x2="1304.07" y2="370.47" xlink:href="#Degradado_sin_nombre_31"/><linearGradient id="Degradado_sin_nombre_31-140" x1="1304.07" y1="370.47" x2="1304.07" y2="370.47" xlink:href="#Degradado_sin_nombre_31"/><linearGradient id="Degradado_sin_nombre_31-141" x1="1304.07" y1="370.47" x2="1304.07" y2="370.47" xlink:href="#Degradado_sin_nombre_31"/><linearGradient id="Degradado_sin_nombre_31-142" x1="1304.07" y1="370.47" x2="1304.07" y2="370.47" gradientTransform="translate(818 -895.07) rotate(53.13)" xlink:href="#Degradado_sin_nombre_31"/><linearGradient id="Degradado_sin_nombre_31-143" x1="1304.07" y1="370.47" x2="1304.07" y2="370.47" gradientTransform="translate(643.92 -813.61) rotate(45)" xlink:href="#Degradado_sin_nombre_31"/><linearGradient id="Degradado_sin_nombre_31-144" x1="1304.07" y1="370.47" x2="1304.07" y2="370.47" gradientTransform="translate(778.71 -879.27) rotate(51.34)" xlink:href="#Degradado_sin_nombre_31"/><linearGradient id="Degradado_sin_nombre_31-145" x1="1304.07" y1="370.47" x2="1304.07" y2="370.47" gradientTransform="translate(643.92 -813.61) rotate(45)" xlink:href="#Degradado_sin_nombre_31"/><linearGradient id="Degradado_sin_nombre_31-146" x1="1304.07" y1="370.47" x2="1304.07" y2="370.47" xlink:href="#Degradado_sin_nombre_31"/><linearGradient id="Degradado_sin_nombre_31-147" x1="1304.07" y1="370.47" x2="1304.07" y2="370.47" gradientTransform="translate(566.62 -767.07) rotate(41.19)" xlink:href="#Degradado_sin_nombre_31"/><linearGradient id="Degradado_sin_nombre_31-148" x1="1304.07" y1="370.47" x2="1304.07" y2="370.47" gradientTransform="translate(483.1 -708.35) rotate(36.87)" xlink:href="#Degradado_sin_nombre_31"/><linearGradient id="Degradado_sin_nombre_31-149" x1="1304.07" y1="370.47" x2="1304.07" y2="370.47" gradientTransform="translate(394.57 -634.84) rotate(32.01)" xlink:href="#Degradado_sin_nombre_31"/><linearGradient id="Degradado_sin_nombre_31-150" x1="1304.07" y1="370.47" x2="1304.07" y2="370.47" xlink:href="#Degradado_sin_nombre_31"/><linearGradient id="Degradado_sin_nombre_31-151" x1="1304.07" y1="370.47" x2="1304.07" y2="370.47" xlink:href="#Degradado_sin_nombre_31"/><linearGradient id="Degradado_sin_nombre_31-152" x1="1304.07" y1="370.47" x2="1304.07" y2="370.47" xlink:href="#Degradado_sin_nombre_31"/><linearGradient id="Degradado_sin_nombre_31-153" x1="1304.07" y1="370.47" x2="1304.07" y2="370.47" xlink:href="#Degradado_sin_nombre_31"/><linearGradient id="Degradado_sin_nombre_31-154" x1="1304.07" y1="370.47" x2="1304.07" y2="370.47" gradientTransform="translate(303.35 -544.09) rotate(26.57)" xlink:href="#Degradado_sin_nombre_31"/><linearGradient id="Degradado_sin_nombre_31-155" x1="1304.07" y1="370.47" x2="1304.07" y2="370.47" xlink:href="#Degradado_sin_nombre_31"/><linearGradient id="Degradado_sin_nombre_31-156" x1="1304.07" y1="370.47" x2="1304.07" y2="370.47" xlink:href="#Degradado_sin_nombre_31"/><linearGradient id="Degradado_sin_nombre_31-157" x1="1304.07" y1="370.47" x2="1304.07" y2="370.47" xlink:href="#Degradado_sin_nombre_31"/><linearGradient id="Degradado_sin_nombre_31-158" x1="1304.07" y1="370.47" x2="1304.07" y2="370.47" xlink:href="#Degradado_sin_nombre_31"/><linearGradient id="Degradado_sin_nombre_31-159" x1="1304.07" y1="370.47" x2="1304.07" y2="370.47" xlink:href="#Degradado_sin_nombre_31"/><linearGradient id="Degradado_sin_nombre_31-160" x1="1304.07" y1="370.47" x2="1304.07" y2="370.47" xlink:href="#Degradado_sin_nombre_31"/><linearGradient id="Degradado_sin_nombre_31-161" x1="1304.07" y1="370.47" x2="1304.07" y2="370.47" xlink:href="#Degradado_sin_nombre_31"/><linearGradient id="Degradado_sin_nombre_31-162" x1="1304.07" y1="370.47" x2="1304.07" y2="370.47" gradientTransform="translate(818 -895.07) rotate(53.13)" xlink:href="#Degradado_sin_nombre_31"/><linearGradient id="Degradado_sin_nombre_31-163" x1="1304.07" y1="370.47" x2="1304.07" y2="370.47" xlink:href="#Degradado_sin_nombre_31"/><linearGradient id="Degradado_sin_nombre_31-164" x1="1304.07" y1="370.47" x2="1304.07" y2="370.47" xlink:href="#Degradado_sin_nombre_31"/><linearGradient id="Degradado_sin_nombre_31-165" x1="1304.07" y1="370.47" x2="1304.07" y2="370.47" xlink:href="#Degradado_sin_nombre_31"/><linearGradient id="Degradado_sin_nombre_31-166" x1="1304.07" y1="370.47" x2="1304.08" y2="370.47" xlink:href="#Degradado_sin_nombre_31"/><linearGradient id="Degradado_sin_nombre_31-167" x1="1304.08" y1="370.47" x2="1304.08" y2="370.47" gradientTransform="translate(71.5 -193.99) rotate(8.75)" xlink:href="#Degradado_sin_nombre_31"/><linearGradient id="Degradado_sin_nombre_31-168" x1="1304.07" y1="370.47" x2="1304.08" y2="370.47" gradientTransform="translate(133.94 -314.11) rotate(14.47)" xlink:href="#Degradado_sin_nombre_31"/><linearGradient id="Degradado_sin_nombre_31-169" x1="1304.07" y1="370.47" x2="1304.07" y2="370.47" xlink:href="#Degradado_sin_nombre_31"/><linearGradient id="Degradado_sin_nombre_31-170" x1="1304.07" y1="370.47" x2="1304.08" y2="370.47" gradientTransform="translate(262.86 -497.7) rotate(23.96)" xlink:href="#Degradado_sin_nombre_31"/><linearGradient id="Degradado_sin_nombre_31-171" x1="1304.07" y1="370.47" x2="1304.08" y2="370.47" xlink:href="#Degradado_sin_nombre_31"/><linearGradient id="Degradado_sin_nombre_31-172" x1="1304.07" y1="370.47" x2="1304.08" y2="370.47" xlink:href="#Degradado_sin_nombre_31"/><linearGradient id="Degradado_sin_nombre_31-173" x1="1304.08" y1="370.47" x2="1304.1" y2="370.47" xlink:href="#Degradado_sin_nombre_31"/><linearGradient id="Degradado_sin_nombre_31-174" x1="1304.07" y1="370.47" x2="1304.07" y2="370.47" gradientTransform="translate(1193.06 -980.65) rotate(69.44)" xlink:href="#Degradado_sin_nombre_31"/><linearGradient id="Degradado_sin_nombre_31-175" x1="1304.07" y1="370.49" x2="1304.07" y2="370.49" xlink:href="#Degradado_sin_nombre_31"/><linearGradient id="Degradado_sin_nombre_31-176" x1="1304.07" y1="370.48" x2="1304.07" y2="370.48" gradientTransform="translate(1638.2 -943.38) rotate(88.41)" xlink:href="#Degradado_sin_nombre_31"/><linearGradient id="Degradado_sin_nombre_31-177" x1="1304.07" y1="370.48" x2="1304.07" y2="370.48" gradientTransform="translate(228.77 -455.1) rotate(21.66)" xlink:href="#Degradado_sin_nombre_31"/><linearGradient id="Degradado_sin_nombre_31-178" x1="1304.07" y1="370.48" x2="1304.07" y2="370.48" gradientTransform="translate(355.63 -598.19) rotate(29.74)" xlink:href="#Degradado_sin_nombre_31"/><linearGradient id="Degradado_sin_nombre_31-179" x1="1304.07" y1="370.47" x2="1304.07" y2="370.47" gradientTransform="translate(1243.15 -983.83) rotate(71.57)" xlink:href="#Degradado_sin_nombre_31"/><linearGradient id="Degradado_sin_nombre_31-180" x1="1304.07" y1="370.48" x2="1304.07" y2="370.48" gradientTransform="translate(1564.97 -959.85) rotate(85.24)" xlink:href="#Degradado_sin_nombre_31"/><linearGradient id="Degradado_sin_nombre_31-181" x1="1304.07" y1="370.47" x2="1304.07" y2="370.47" gradientTransform="translate(303.36 -544.09) rotate(26.57)" xlink:href="#Degradado_sin_nombre_31"/><linearGradient id="Degradado_sin_nombre_31-182" x1="1304.07" y1="370.47" x2="1304.07" y2="370.47" gradientTransform="translate(643.92 -813.61) rotate(45)" xlink:href="#Degradado_sin_nombre_31"/><linearGradient id="Degradado_sin_nombre_31-183" x1="1304.07" y1="370.47" x2="1304.07" y2="370.47" gradientTransform="translate(643.92 -813.61) rotate(45)" xlink:href="#Degradado_sin_nombre_31"/><linearGradient id="Degradado_sin_nombre_31-184" x1="1304.07" y1="370.47" x2="1304.07" y2="370.47" gradientTransform="translate(483.1 -708.35) rotate(36.87)" xlink:href="#Degradado_sin_nombre_31"/><linearGradient id="Degradado_sin_nombre_31-185" x1="1304.07" y1="370.47" x2="1304.07" y2="370.47" xlink:href="#Degradado_sin_nombre_31"/><linearGradient id="Degradado_sin_nombre_31-186" x1="1304.07" y1="370.47" x2="1304.07" y2="370.47" gradientTransform="translate(483.1 -708.35) rotate(36.87)" xlink:href="#Degradado_sin_nombre_31"/><linearGradient id="Degradado_sin_nombre_31-187" x1="1304.07" y1="370.47" x2="1304.07" y2="370.47" xlink:href="#Degradado_sin_nombre_31"/><linearGradient id="Degradado_sin_nombre_31-188" x1="1304.07" y1="370.47" x2="1304.07" y2="370.47" gradientTransform="translate(483.1 -708.35) rotate(36.87)" xlink:href="#Degradado_sin_nombre_31"/><radialGradient id="Degradado_sin_nombre_49" cx="1327.2" cy="285.12" r="837.49" gradientUnits="userSpaceOnUse"><stop offset="0.07" stop-color="#ffffd0"/><stop offset="0.43" stop-color="#ffd89c"/><stop offset="1" stop-color="#ffe1a4" stop-opacity="0.1"/></radialGradient><linearGradient id="Degradado_sin_nombre_9" x1="1142.75" y1="410.68" x2="1332.03" y2="368.39" gradientUnits="userSpaceOnUse"><stop offset="0" stop-color="#ffce00"/><stop offset="1" stop-color="#f5801f"/></linearGradient><linearGradient id="Degradado_sin_nombre_12" x1="1272.55" y1="272.11" x2="1345.46" y2="272.11" gradientUnits="userSpaceOnUse"><stop offset="0.12" stop-color="#ffce00"/><stop offset="1" stop-color="#f5801f"/></linearGradient><linearGradient id="Degradado_sin_nombre_12-2" x1="1280.1" y1="256.63" x2="1320.82" y2="256.63" xlink:href="#Degradado_sin_nombre_12"/><linearGradient id="Degradado_sin_nombre_12-3" x1="1274.45" y1="276.78" x2="1313.17" y2="276.78" xlink:href="#Degradado_sin_nombre_12"/><linearGradient id="Degradado_sin_nombre_9-2" x1="969.16" y1="688.06" x2="1030.93" y2="688.06" xlink:href="#Degradado_sin_nombre_9"/><linearGradient id="Degradado_sin_nombre_9-3" x1="1578.78" y1="16923.55" x2="1759.86" y2="16923.55" gradientTransform="matrix(0.08, 1, -1, 0.08, 17785.59, -2454.78)" xlink:href="#Degradado_sin_nombre_9"/><radialGradient id="Degradado_sin_nombre_171" cx="22595.72" cy="368.95" r="18.04" gradientTransform="matrix(-0.17, -0.98, -0.98, 0.17, 5432.35, 22558.83)" gradientUnits="userSpaceOnUse"><stop offset="0.06" stop-color="#f5531f"/><stop offset="0.33" stop-color="#f55a1f" stop-opacity="0.79"/><stop offset="1" stop-color="#f5801f" stop-opacity="0"/></radialGradient></defs><g id="Capa_2" data-name="Capa 2"><g id="_1.CAPITULO_1:_EL_PRINCIPIO_DE_LA_HISTORIA" data-name="1.CAPITULO 1: EL PRINCIPIO DE LA HISTORIA"><g id="Imagen_4" data-name="Imagen 4"><rect class="cls-1" width="1920" height="1080"/><rect class="cls-2" x="1304.07" y="370.47"/><rect class="cls-3" x="1304.07" y="370.47" transform="translate(225.25 1191.44) rotate(-53.13)"/><rect class="cls-4" x="1304.07" y="370.47" transform="translate(-28.01 622.31) rotate(-26.57)"/><rect class="cls-5" x="1304.07" y="370.47" transform="translate(-50.92 327.34) rotate(-14.04)"/><rect class="cls-6" x="1304.07" y="370.47" transform="translate(38.53 856.54) rotate(-36.87)"/><rect class="cls-7" x="1304.07" y="370.47"/><rect class="cls-8" x="1304.07" y="370.47" transform="translate(225.25 1191.44) rotate(-53.13)"/><rect class="cls-9" x="1304.07" y="370.47" transform="translate(225.25 1191.44) rotate(-53.13)"/><rect class="cls-10" x="1304.07" y="370.47" transform="translate(389.51 1371.19) rotate(-63.43)"/><rect class="cls-11" x="1304.07" y="370.47" transform="translate(225.25 1191.44) rotate(-53.13)"/><rect class="cls-12" x="1304.07" y="370.47" transform="translate(628.37 1545.75) rotate(-75.96)"/><rect class="cls-13" x="1304.07" y="370.47"/><rect class="cls-14" x="1304.07" y="370.47" transform="translate(225.25 1191.44) rotate(-53.13)"/><rect class="cls-15" x="1304.07" y="370.47" transform="translate(225.25 1191.44) rotate(-53.13)"/><rect class="cls-16" x="1304.07" y="370.47"/><polygon class="cls-17" points="1304.07 370.47 1304.07 370.47 1304.07 370.47 1304.07 370.47"/><rect class="cls-18" x="1304.07" y="370.47" transform="translate(119.99 1030.62) rotate(-45)"/><rect class="cls-19" x="1304.07" y="370.47" transform="translate(119.99 1030.62) rotate(-45)"/><rect class="cls-20" x="1304.07" y="370.47"/><rect class="cls-21" x="1304.07" y="370.47" transform="translate(1.87 747.47) rotate(-32.01)"/><rect class="cls-22" x="1304.07" y="370.47" transform="translate(460.53 1431.74) rotate(-67.38)"/><rect class="cls-23" x="1304.07" y="370.47" transform="translate(38.53 856.54) rotate(-36.87)"/><rect class="cls-24" x="1304.07" y="370.47" transform="translate(628.37 1545.75) rotate(-75.96)"/><rect class="cls-25" x="1304.07" y="370.47" transform="translate(540.23 1490.47) rotate(-71.57)"/><rect class="cls-26" x="1304.07" y="370.47"/><rect class="cls-27" x="1304.07" y="370.47" transform="translate(225.25 1191.44) rotate(-53.13)"/><rect class="cls-28" x="1304.07" y="370.47"/><rect class="cls-29" x="1304.07" y="370.47"/><rect class="cls-30" x="1304.07" y="370.47" transform="translate(774.71 1618.52) rotate(-82.87)"/><polygon class="cls-29" points="1304.07 370.47 1304.07 370.47 1304.07 370.47 1304.07 370.47"/><rect class="cls-31" x="1304.07" y="370.47"/><rect class="cls-32" x="1304.07" y="370.47" transform="translate(-39.16 553.76) rotate(-23.63)"/><rect class="cls-33" x="1304.07" y="370.47" transform="translate(389.51 1371.18) rotate(-63.43)"/><rect class="cls-34" x="1304.07" y="370.47" transform="translate(-28.01 622.31) rotate(-26.57)"/><rect class="cls-35" x="1304.07" y="370.48" transform="translate(-45.88 494.88) rotate(-21.12)"/><rect class="cls-36" x="1304.07" y="370.47"/><rect class="cls-37" x="1304.07" y="370.47"/><rect class="cls-38" x="1304.07" y="370.47"/><rect class="cls-39" x="1304.07" y="370.47" transform="translate(225.25 1191.44) rotate(-53.13)"/><rect class="cls-40" x="1304.07" y="370.47" transform="translate(499.3 1461.43) rotate(-69.44)"/><rect class="cls-41" x="1304.07" y="370.47" transform="translate(744.25 1605.16) rotate(-81.47)"/><rect class="cls-42" x="1304.07" y="370.47" transform="translate(499.29 1461.43) rotate(-69.44)"/><rect class="cls-43" x="1304.07" y="370.47" transform="translate(628.37 1545.75) rotate(-75.96)"/><rect class="cls-44" x="1304.07" y="370.47" transform="translate(225.25 1191.44) rotate(-53.13)"/><rect class="cls-45" x="1304.07" y="370.47" transform="translate(389.51 1371.19) rotate(-63.43)"/><polygon class="cls-46" points="1304.07 370.47 1304.07 370.47 1304.07 370.47 1304.07 370.47 1304.07 370.47 1304.07 370.47"/><rect class="cls-47" x="1304.07" y="370.47" transform="translate(38.53 856.53) rotate(-36.87)"/><rect class="cls-48" x="1304.07" y="370.47"/><rect class="cls-49" x="1304.07" y="370.47"/><rect class="cls-50" x="1304.07" y="370.47" transform="translate(774.71 1618.52) rotate(-82.87)"/><rect class="cls-51" x="1304.07" y="370.47" transform="translate(628.38 1545.75) rotate(-75.96)"/><rect class="cls-52" x="1304.07" y="370.47"/><rect class="cls-53" x="1304.07" y="370.47" transform="translate(38.53 856.54) rotate(-36.87)"/><rect class="cls-54" x="1304.07" y="370.47" transform="translate(200.13 1157.35) rotate(-51.34)"/><rect class="cls-55" x="1304.07" y="370.47"/><polygon class="cls-56" points="1304.07 370.47 1304.07 370.47 1304.07 370.47 1304.07 370.47"/><rect class="cls-57" x="1304.07" y="370.47" transform="translate(389.51 1371.19) rotate(-63.43)"/><rect class="cls-58" x="1304.07" y="370.47" transform="translate(13.52 785.59) rotate(-33.69)"/><polygon class="cls-59" points="1304.07 370.47 1304.07 370.47 1304.07 370.47 1304.07 370.47"/><polygon class="cls-60" points="1304.07 370.47 1304.07 370.47 1304.07 370.47 1304.07 370.47 1304.07 370.47 1304.07 370.47"/><polygon class="cls-59" points="1304.07 370.47 1304.07 370.47 1304.07 370.47 1304.07 370.47"/><rect class="cls-61" x="1304.07" y="370.47" transform="translate(389.51 1371.19) rotate(-63.43)"/><rect class="cls-62" x="1304.07" y="370.47" transform="translate(320.54 1303.48) rotate(-59.35)"/><rect class="cls-63" x="1304.06" y="370.46" transform="translate(-50.91 327.34) rotate(-14.04)"/><polygon class="cls-64" points="1304.07 370.45 1304.07 370.44 1304.07 370.45 1304.07 370.46 1304.07 370.45"/><rect class="cls-65" x="1304.07" y="370.46" transform="translate(-50.81 416.83) rotate(-17.82)"/><rect class="cls-66" x="1304.07" y="370.46" transform="translate(-39.15 553.75) rotate(-23.63)"/><polygon class="cls-67" points="1304.07 370.47 1304.07 370.46 1304.07 370.46 1304.07 370.47"/><rect class="cls-68" x="1304.07" y="370.46" transform="translate(736.73 1601.7) rotate(-81.12)"/><rect class="cls-69" x="1304.07" y="370.46" transform="translate(561.5 1504.67) rotate(-72.65)"/><rect class="cls-70" x="1304.07" y="370.47"/><polygon class="cls-71" points="1304.07 370.47 1304.07 370.47 1304.07 370.47 1304.07 370.47"/><rect class="cls-72" x="1304.07" y="370.46" transform="translate(1.88 747.46) rotate(-32.01)"/><rect class="cls-73" x="1304.07" y="370.47" transform="translate(628.38 1545.75) rotate(-75.96)"/><polygon class="cls-74" points="1304.07 370.47 1304.07 370.47 1304.07 370.47 1304.07 370.47"/><polygon class="cls-75" points="1304.07 370.46 1304.07 370.47 1304.07 370.46 1304.07 370.46"/><rect class="cls-76" x="1304.07" y="370.46" transform="translate(200.14 1157.34) rotate(-51.34)"/><polygon class="cls-77" points="1304.07 370.47 1304.07 370.47 1304.07 370.47 1304.07 370.47"/><rect class="cls-78" x="1304.07" y="370.47" transform="translate(-50.91 327.34) rotate(-14.04)"/><rect class="cls-79" x="1304.07" y="370.46" transform="translate(-50.91 327.34) rotate(-14.04)"/><rect class="cls-80" x="1304.07" y="370.46" transform="translate(-39.15 553.76) rotate(-23.63)"/><rect class="cls-81" x="1304.07" y="370.46" transform="translate(628.38 1545.74) rotate(-75.96)"/><rect class="cls-82" x="1304.07" y="370.46" transform="translate(-28 622.31) rotate(-26.57)"/><polygon class="cls-83" points="1873.2 0 1747.32 0 1304.08 370.46 1873.2 0"/><rect class="cls-84" x="1304.07" y="370.46" transform="translate(-47.05 481.48) rotate(-20.56)"/><rect class="cls-85" x="1304.07" y="370.46" transform="translate(-28 622.31) rotate(-26.57)"/><rect class="cls-86" x="1304.07" y="370.46" transform="translate(774.71 1618.51) rotate(-82.87)"/><polygon class="cls-87" points="1304.07 370.46 1304.07 370.47 1304.07 370.46 1304.07 370.46"/><polygon class="cls-88" points="1304.07 370.46 1304.07 370.47 1304.07 370.46 1304.07 370.46"/><rect class="cls-89" x="1304.07" y="370.46" transform="translate(1.87 747.47) rotate(-32.01)"/><rect class="cls-90" x="1304.07" y="370.47" transform="translate(298.75 1279.97) rotate(-57.99)"/><rect class="cls-91" x="1304.07" y="370.47" transform="translate(389.51 1371.18) rotate(-63.43)"/><rect class="cls-92" x="1304.07" y="370.46" transform="translate(841.63 1644.82) rotate(-85.91)"/><polygon class="cls-93" points="1304.07 370.46 1304.07 370.47 1304.07 370.46 1304.07 370.46"/><rect class="cls-94" x="1304.07" y="370.47" transform="translate(225.25 1191.44) rotate(-53.13)"/><rect class="cls-95" x="1304.07" y="370.47"/><rect class="cls-96" x="1304.07" y="370.47" transform="translate(38.53 856.54) rotate(-36.87)"/><rect class="cls-97" x="1304.07" y="370.47" transform="translate(38.53 856.54) rotate(-36.87)"/><rect class="cls-98" x="1304.07" y="370.47"/><rect class="cls-99" x="1304.07" y="370.47" transform="translate(628.38 1545.75) rotate(-75.96)"/><rect class="cls-100" x="1304.07" y="370.47"/><rect class="cls-101" x="1304.07" y="370.47" transform="translate(628.38 1545.75) rotate(-75.96)"/><rect class="cls-102" x="1304.07" y="370.47" transform="translate(389.51 1371.19) rotate(-63.43)"/><rect class="cls-103" x="1304.07" y="370.47" transform="translate(225.25 1191.44) rotate(-53.13)"/><rect class="cls-104" x="1304.07" y="370.47"/><rect class="cls-105" x="1304.07" y="370.47" transform="translate(38.53 856.54) rotate(-36.87)"/><rect class="cls-106" x="1304.07" y="370.47"/><rect class="cls-107" x="1304.07" y="370.47" transform="translate(628.38 1545.75) rotate(-75.96)"/><rect class="cls-108" x="1304.07" y="370.47" transform="translate(-28.01 622.31) rotate(-26.57)"/><polygon class="cls-109" points="1304.07 370.47 1304.07 370.47 1304.07 370.47 1304.07 370.47 1304.07 370.47 1304.07 370.47"/><rect class="cls-110" x="1304.07" y="370.47" transform="translate(389.52 1371.19) rotate(-63.43)"/><rect class="cls-111" x="1304.07" y="370.47" transform="translate(628.38 1545.75) rotate(-75.96)"/><rect class="cls-112" x="1304.07" y="370.47"/><polygon class="cls-113" points="1304.07 370.47 1304.07 370.47 1304.07 370.47 1304.07 370.47"/><polygon class="cls-114" points="1304.07 370.47 1304.07 370.47 1304.07 370.47 1304.07 370.47"/><rect class="cls-115" x="1304.07" y="370.47" transform="translate(166.53 1107.93) rotate(-48.81)"/><rect class="cls-116" x="1304.07" y="370.47"/><polygon class="cls-117" points="1304.07 370.47 1304.07 370.47 1304.07 370.47 1304.07 370.47"/><rect class="cls-118" x="1304.07" y="370.46" transform="translate(111.06 1014.35) rotate(-44.22)"/><polygon class="cls-119" points="1304.07 370.47 1304.07 370.47 1304.07 370.47 1304.07 370.47 1304.07 370.47 1304.07 370.47"/><polygon class="cls-120" points="1304.07 370.47 1304.07 370.47 1304.07 370.47 1304.07 370.47"/><polygon class="cls-121" points="1304.07 370.47 1304.07 370.47 1304.07 370.47 1304.07 370.47"/><rect class="cls-122" x="1304.07" y="370.47" transform="translate(260 1235.2) rotate(-55.49)"/><rect class="cls-123" x="1304.07" y="370.47" transform="translate(225.26 1191.44) rotate(-53.13)"/><rect class="cls-124" x="1304.07" y="370.47" transform="translate(298.75 1279.97) rotate(-57.99)"/><polygon class="cls-125" points="1304.07 370.47 495.9 1080 657.31 1080 1304.07 370.47 1304.07 370.47"/><polygon class="cls-126" points="1304.07 370.46 1019.23 0 944.5 0 1304.07 370.47 1304.07 370.46"/><polygon class="cls-127" points="0 233.71 0 389.6 1304.07 370.47 0 233.71"/><polygon class="cls-128" points="1304.07 370.47 1304.07 370.47 1304.07 370.47 1304.07 370.47 1304.07 370.47 1304.07 370.47 1304.07 370.47 1304.07 370.47 1304.07 370.47 871.64 0 770.01 0 1304.07 370.47 55.17 1080 327.97 1080 1304.07 370.47 1304.07 370.47"/><polygon class="cls-129" points="0 510.03 0 659.02 1304.07 370.47 0 510.03"/><polygon class="cls-130" points="153.25 0 0 0 0 110.96 1304.07 370.47 0 787.77 0 960.21 1304.07 370.47 153.25 0"/><polygon class="cls-131" points="648.75 0 436.03 0 1304.07 370.47 648.75 0"/><polygon class="cls-132" points="1304.07 370.47 1546.56 0 1489.73 0 1304.07 370.47 1304.07 370.47"/><rect class="cls-133" x="1304.07" y="370.46" height="0.01" transform="translate(-20.92 657.27) rotate(-28.07)"/><polygon class="cls-134" points="1304.07 370.47 1304.07 370.46 1304.07 370.47 1304.07 370.47 1304.07 370.47 1304.07 370.47 1304.07 370.47 1304.07 370.47 1448.88 0 1402.9 0 1304.07 370.46 1304.07 370.47"/><polygon class="cls-135" points="1304.08 370.46 1672.51 0 1598.49 0 1304.07 370.46 1304.08 370.46"/><polygon class="cls-136" points="1304.07 370.45 1212.91 0 1164.44 0 1304.07 370.46 1304.07 370.45"/><polygon class="cls-137" points="1304.07 370.46 1124.03 0 1069.98 0 1304.07 370.46 1304.07 370.46"/><polygon class="cls-138" points="1304.07 370.46 1367.19 0 1325.44 0 1304.07 370.45 1304.07 370.46"/><polygon class="cls-139" points="1291.35 0 1248.34 0 1304.07 370.44 1291.35 0"/><polygon class="cls-140" points="1304.07 370.47 1920 599 1920 521.39 1304.07 370.47 1304.07 370.47"/><polygon class="cls-141" points="1304.07 370.47 1920 462.51 1920 425.6 1304.08 370.47 1304.07 370.47"/><polygon class="cls-142" points="1304.07 370.47 1920 967.11 1920 839.02 1304.07 370.47 1304.07 370.47"/><polygon class="cls-143" points="1304.07 370.47 1920 755.24 1920 665.9 1304.07 370.47 1304.07 370.47"/><polygon class="cls-144" points="1920 368.82 1920 324.16 1304.1 370.47 1920 368.82"/><polygon class="cls-145" points="1304.07 370.47 1304.08 370.47 1920 131.51 1920 45.81 1304.08 370.46 1304.07 370.47"/><polygon class="cls-146" points="1304.08 370.47 1920 266.65 1920 194.59 1304.08 370.47 1304.08 370.47"/><rect class="cls-147" x="1304.07" y="370.46"/><polygon class="cls-148" points="1304.07 370.48 1138.57 1080 1219.95 1080 1304.07 370.48 1304.07 370.48"/><polygon class="cls-149" points="1304.07 370.48 1285.57 1080 1367.34 1080 1304.07 370.48 1304.07 370.48"/><polygon class="cls-150" points="1304.07 370.47 767.8 1080 886.24 1080 1304.07 370.47 1304.07 370.47"/><polygon class="cls-151" points="1304.07 370.47 969.81 1080 1068.07 1080 1304.07 370.47 1304.07 370.47"/><polygon class="cls-152" points="1304.07 370.48 1783.63 1080 1913.14 1080 1304.07 370.47 1304.07 370.48"/><polygon class="cls-153" points="1304.07 370.48 1596.78 1080 1693.91 1080 1304.07 370.48 1304.07 370.48"/><polygon class="cls-154" points="1433.83 1080 1523.02 1080 1304.07 370.49 1433.83 1080"/><rect class="cls-155" x="1304.07" y="370.47" transform="translate(628.37 1545.75) rotate(-75.96)"/><polygon class="cls-156" points="1304.07 370.47 1304.07 370.47 1304.07 370.47 1304.07 370.47"/><rect class="cls-157" x="1304.07" y="370.47" transform="translate(272.45 1250.02) rotate(-56.31)"/><polygon class="cls-158" points="1304.07 370.47 1304.07 370.47 1304.07 370.47 1304.07 370.47"/><polygon class="cls-156" points="1304.07 370.47 1304.07 370.47 1304.07 370.47 1304.07 370.47"/><rect class="cls-159" x="1304.07" y="370.47" transform="translate(225.25 1191.44) rotate(-53.13)"/><rect class="cls-160" x="1304.07" y="370.47" transform="translate(103.46 1000.06) rotate(-43.53)"/><polygon class="cls-161" points="1304.07 370.47 1304.07 370.47 1304.07 370.47 1304.07 370.47"/><rect class="cls-162" x="1304.07" y="370.47" transform="translate(389.51 1371.19) rotate(-63.43)"/><rect class="cls-163" x="1304.07" y="370.47"/><rect class="cls-164" x="1304.07" y="370.47" transform="translate(389.51 1371.19) rotate(-63.43)"/><rect class="cls-165" x="1304.07" y="370.47" transform="translate(499.3 1461.43) rotate(-69.44)"/><polygon class="cls-166" points="1304.07 370.47 1304.07 370.47 1304.07 370.47 1304.07 370.47"/><polygon class="cls-167" points="1304.07 370.47 1304.07 370.47 1304.07 370.47 1304.07 370.47"/><polygon class="cls-168" points="1304.07 370.47 1304.07 370.47 1304.07 370.47 1304.07 370.47"/><rect class="cls-169" x="1304.07" y="370.47" transform="translate(225.25 1191.44) rotate(-53.13)"/><rect class="cls-170" x="1304.07" y="370.47" transform="translate(119.99 1030.62) rotate(-45)"/><rect class="cls-171" x="1304.07" y="370.47" transform="translate(200.13 1157.35) rotate(-51.34)"/><rect class="cls-172" x="1304.07" y="370.47" transform="translate(119.99 1030.62) rotate(-45)"/><rect class="cls-173" x="1304.07" y="370.47"/><rect class="cls-174" x="1304.07" y="370.47" transform="translate(78.7 950.4) rotate(-41.19)"/><rect class="cls-175" x="1304.07" y="370.47" transform="translate(38.53 856.54) rotate(-36.87)"/><rect class="cls-176" x="1304.07" y="370.47" transform="translate(1.87 747.47) rotate(-32.01)"/><rect class="cls-177" x="1304.07" y="370.47"/><polygon class="cls-178" points="1304.07 370.47 1304.07 370.47 1304.07 370.47 1304.07 370.47"/><polygon class="cls-179" points="1304.07 370.47 1304.07 370.47 1304.07 370.47 1304.07 370.47 1304.07 370.47 1304.07 370.47"/><polygon class="cls-180" points="1304.07 370.47 1304.07 370.47 1304.07 370.47 1304.07 370.47"/><rect class="cls-181" x="1304.07" y="370.47" transform="translate(-28 622.31) rotate(-26.57)"/><rect class="cls-182" x="1304.07" y="370.47"/><polygon class="cls-183" points="1304.07 370.47 1304.07 370.47 1304.07 370.47 1304.07 370.47"/><rect class="cls-184" x="1304.07" y="370.47"/><rect class="cls-185" x="1304.07" y="370.47"/><polygon class="cls-186" points="1304.07 370.47 1304.07 370.47 1304.07 370.47 1304.07 370.47"/><polygon class="cls-187" points="1304.07 370.47 1304.07 370.47 1304.07 370.47 1304.07 370.47"/><polygon class="cls-188" points="1304.07 370.47 1304.07 370.47 1304.07 370.47 1304.07 370.47"/><rect class="cls-189" x="1304.07" y="370.47" transform="translate(225.25 1191.44) rotate(-53.13)"/><polygon class="cls-190" points="1304.07 370.47 1304.07 370.47 1304.07 370.47 1304.07 370.47"/><polygon class="cls-191" points="1304.07 370.47 1304.07 370.47 1304.07 370.47 1304.07 370.47 1304.07 370.47 1304.07 370.47"/><polygon class="cls-192" points="1304.07 370.47 1304.07 370.47 1304.07 370.47 1304.07 370.47"/><polygon class="cls-193" points="1304.07 370.47 1304.07 370.47 1304.08 370.47 1304.07 370.47"/><rect class="cls-194" x="1304.08" y="370.47" transform="translate(-41.17 202.6) rotate(-8.75)"/><rect class="cls-195" x="1304.08" y="370.47" transform="translate(-51.2 337.61) rotate(-14.47)"/><polygon class="cls-196" points="1304.07 370.47 1304.07 370.47 1304.07 370.47 1304.07 370.47"/><rect class="cls-197" x="1304.07" y="370.47" transform="translate(-38.06 561.56) rotate(-23.96)"/><polygon class="cls-198" points="1304.08 370.47 1304.07 370.47 1304.08 370.47 1304.08 370.47"/><polygon class="cls-199" points="1304.07 370.47 1304.08 370.47 1304.08 370.47 1304.07 370.47"/><polygon class="cls-200" points="1304.08 370.47 1304.1 370.47 1304.08 370.47 1304.08 370.47 1304.08 370.47"/><rect class="cls-201" x="1304.07" y="370.47" transform="translate(499.29 1461.43) rotate(-69.44)"/><polygon class="cls-202" points="1304.07 370.48 1304.07 370.49 1304.07 370.48 1304.07 370.48 1304.07 370.48"/><rect class="cls-203" x="1304.07" y="370.48" transform="translate(897.52 1663.76) rotate(-88.41)"/><rect class="cls-204" x="1304.07" y="370.48" transform="translate(-44.67 507.4) rotate(-21.66)"/><rect class="cls-205" x="1304.07" y="370.48" transform="translate(-11.99 695.81) rotate(-29.74)"/><rect class="cls-206" x="1304.07" y="370.47" transform="translate(540.22 1490.47) rotate(-71.57)"/><rect class="cls-207" x="1304.07" y="370.48" transform="translate(826.58 1639.27) rotate(-85.24)"/><rect class="cls-208" x="1304.07" y="370.47" transform="translate(-28.01 622.31) rotate(-26.57)"/><rect class="cls-209" x="1304.07" y="370.47" transform="translate(119.99 1030.63) rotate(-45)"/><rect class="cls-210" x="1304.07" y="370.47" transform="translate(119.99 1030.63) rotate(-45)"/><rect class="cls-211" x="1304.07" y="370.47" transform="translate(38.53 856.54) rotate(-36.87)"/><rect class="cls-212" x="1304.07" y="370.47"/><rect class="cls-213" x="1304.07" y="370.47" transform="matrix(0.8, -0.6, 0.6, 0.8, 38.53, 856.54)"/><rect class="cls-214" x="1304.07" y="370.47"/><rect class="cls-215" x="1304.07" y="370.47" transform="translate(38.53 856.54) rotate(-36.87)"/><rect class="cls-216" width="1920" height="1080"/><path class="cls-217" d="M1051.51,195.53,0,586.59V1080H1285.57l57.51-810.53L1306,290.05l-33.45,101.54s-77,91.6-140.37,112.71Z"/><path class="cls-218" d="M1107.72,597.87c-34,23-178,147.18-213,177.4l1.48-1,.22.46,146.69-109.65C1111.47,613,1107.72,597.87,1107.72,597.87Z"/><path class="cls-219" d="M1128.46,476.43S863.9,617.17,825,650.75c0,0-22.11,41.23,8.67,63.85a33.16,33.16,0,0,1,13.55,31c-1.9,14.19-11.3,32.21-40.82,48.34,0,0-25.76,8.6-19.1,76.07,0,0,54-50.9,88-79.42,7.86-6.59,14.64-12,19.44-15.28,35-30.22,178.94-154.35,213-177.4,0,0,3.75,15.11-64.57,67.22L896.46,774.74c2.63,5.16,28.52,52.67,83.93,35.66,0,0,168.27-116.65,194.12-209.46C1174.51,600.94,1212.3,479.48,1128.46,476.43Z"/><path class="cls-220" d="M1134.81,344.39c-27.62-61.1-127.69-153.4-197-119.45-135.47,66.34,67.67,274.54,154.18,306,83.25,30.26,94.19-72.89,42.85-186.55Z"/><path class="cls-221" d="M950.1,265.87c-4,9.75,35,29.67,39.43,21.1,4.26-8.26-35.17-31.29-39.43-21.1Zm139.17,55.72c-1.64,3.85,5.66,7,7.4,3.64s-5.8-7.64-7.4-3.64Zm-117.33,5.73c-1.64,3.85,5.72,7.05,7.4,3.64,1.71-3.19-5.73-7.62-7.4-3.64Zm76.45-24.15c-1.56,3.8,5.73,7,7.47,3.66s-5.8-7.64-7.47-3.66Zm-113.1,30.44c-1.57,3.86,5.73,7,7.46,3.65s-5.79-7.64-7.46-3.65ZM999.14,354c-3.12,7.66,11.45,14,14.87,7.3,3.36-6.46-11.53-15.26-14.87-7.3Zm21.65-25.81c-1.75,10.46,40.8,21,43.17,11.64,2.21-9-41.33-22.51-43.17-11.64Zm13.15-56c-4,9.81,34.94,29.73,39.43,21.09,4.17-8.21-35.19-31.21-39.43-21.09Zm-78.4-29.82c-3.19,7.65,14.39,15.9,17.9,9.11,3.36-6.46-14.54-17.14-17.9-9.11Zm-36.31,21.14c-3.21,7.71,14.39,15.9,17.81,9.16,3.36-6.46-14.54-17.14-17.81-9.16ZM943,290.92c-3.21,7.71,14.39,15.89,17.81,9.16,3.36-6.47-14.54-17.15-17.81-9.16Zm65.73-2.19c-4.1,9.79,18.34,20.27,22.74,11.68,4.26-8.26-18.5-21.81-22.74-11.68Zm-35.82,16c-4,9.81,26,24.62,30.48,16,4.18-8.21-26.24-26.16-30.48-16Zm14.32-54.57c-4,9.75,26,24.62,30.48,16.05,4.2-8.28-26.22-26.24-30.48-16.05Z"/><path class="cls-222" d="M980.88,196.61c55.43-14.27,98.52,35.06,99.89,51.24-9.45-6.07-24-22.72-45.9-34.4-15.33-8.21-35.89-11.81-54-16.84Zm33.93-17.69c29.15-7.51,51.77,18.43,52.52,27-4.93-3.17-12.58-11.94-24.15-18.09-8.07-4.3-18.86-6.21-28.37-8.88Z"/><path class="cls-223" d="M1003.54,375.4c-54.92-38.49-188-66.87-230.4-2.31-82.72,126.13,198.18,201.68,288.63,184.64,87-16.4,43.87-110.73-58.23-182.33Z"/><path class="cls-221" d="M825.23,384.54c-1.26,10.47,41.63,19.22,43.64,9.77,1.89-9.1-42.26-20.73-43.64-9.77Zm149,16.41c-.55,4.14,7.32,5.19,8.11,1.52s-7.64-5.81-8.11-1.52Zm-111.5,36.94c-.55,4.15,7.39,5.27,8.1,1.53.79-3.53-7.56-5.81-8.1-1.53Zm67.18-43.74c-.48,4.07,7.39,5.19,8.18,1.52s-7.64-5.81-8.18-1.52ZM829.1,453.77c-.47,4.14,7.4,5.19,8.18,1.52s-7.64-5.81-8.18-1.52Zm67,2.53c-1,8.21,14.78,10.45,16.28,3,1.5-7.12-15.2-11.61-16.28-3ZM910,425.62c1.12,10.55,45,9.35,44.71-.34-.28-9.26-45.84-10.62-44.71.34Zm-2.34-57.51c-1.26,10.53,41.63,19.29,43.64,9.77,1.83-9-42.26-20.66-43.64-9.77Zm-83.51-7.72c-1,8.21,18.12,11.46,19.67,4,1.51-7.13-18.6-12.62-19.67-4Zm-29.33,30.09c-1,8.28,18.13,11.46,19.62,4,1.51-7.12-18.6-12.62-19.62-4Zm30.24,20.1c-1,8.29,18.12,11.46,19.61,4.06,1.51-7.13-18.6-12.63-19.61-4.06Zm62.73-19.72c-1.33,10.54,23.1,14.62,25.05,5.17,1.89-9.1-23.67-16.06-25.05-5.17ZM857.6,415.91c-1.26,10.53,31.65,16.74,33.67,7.29,1.82-9-32.3-18.18-33.67-7.29Zm-.82-56.41c-1.27,10.46,31.65,16.75,33.67,7.29,1.82-9.1-32.3-18.25-33.67-7.29Z"/><path class="cls-222" d="M795.77,326.74c40.42-40.54,102.64-20.07,112.06-6.84-11.22-.41-32.2-7.33-57-6.2-17.38.75-36.9,8.14-55,13Zm20.17-32.51c21.25-21.33,53.94-10.54,58.94-3.58-5.86-.21-16.91-3.86-30-3.25-9.14.41-19.39,4.27-28.94,6.83Z"/><path class="cls-224" d="M1169.71,472.41l1.34-.84,1.41-.9,2.84-1.85q2.84-1.87,5.64-3.84,5.61-3.92,11.06-8.06c7.25-5.54,14.29-11.34,21-17.44,3.36-3,6.66-6.15,9.84-9.34,1.62-1.58,3.16-3.21,4.73-4.82s3.08-3.27,4.56-4.95a197.54,197.54,0,0,0,16.47-20.83l.58-.75.08-.11.18-.26.39-.54.84-1.21c.56-.8,1.12-1.71,1.69-2.56,1.11-1.77,2.22-3.56,3.28-5.44s2.1-3.76,3.13-5.65,2-3.87,3-5.8c3.86-7.83,7.27-16,10.41-24.23l2.3-6.22c.72-2.09,1.41-4.2,2.12-6.3l1.06-3.15c.37-1.05.66-2.13,1-3.19l1.93-6.37.49-1.6c.16-.53.29-1.07.44-1.6l.87-3.23,1.75-6.44,3.13-13,.11-.44a15.45,15.45,0,0,1,30,7.24c-.07.27-.16.59-.24.86-1.38,4.57-2.74,9.14-4.16,13.7l-2.27,6.8-1.14,3.39c-.19.57-.37,1.14-.58,1.7l-.62,1.69-2.48,6.73c-.42,1.12-.8,2.25-1.26,3.36l-1.34,3.34c-.9,2.22-1.78,4.45-2.7,6.67l-2.88,6.61c-3.94,8.77-8.18,17.44-13,25.9-1.24,2.11-2.42,4.23-3.71,6.31s-2.56,4.18-4,6.24-2.78,4.12-4.24,6.17c-.77,1-1.5,2-2.31,3.08l-1.23,1.57-.68.82-.35.42-.47.56.58-.75a220.4,220.4,0,0,1-19.74,22.27c-1.73,1.75-3.52,3.42-5.29,5.12s-3.59,3.33-5.43,4.93c-3.64,3.26-7.37,6.39-11.15,9.44-7.55,6.11-15.37,11.82-23.36,17.23q-6,4.06-12.18,7.86c-2,1.27-4.13,2.51-6.23,3.74-1,.61-2.1,1.22-3.17,1.82l-1.61.9-1.71.93a9,9,0,0,1-9.08-15.52Z"/><path class="cls-225" d="M971.34,749.49S947.41,780,905.14,787.2c0,0,22,34.82,102.48,3.34C1007.62,790.54,1018.77,757.81,971.34,749.49Z"/><path class="cls-226" d="M1042.39,750c-40.55-27.87-61.51-72.2-57.25-112.34-.85.87-1.69,1.74-2.5,2.62a112.31,112.31,0,0,0-22.53,36c4.76,34.59,26.11,69.51,60.8,93.35C1052,791,1087.49,799.14,1119,794.92a155,155,0,0,0,16.23-7.94c.67-.38,1.34-.76,2-1.15a149.28,149.28,0,0,0,28.8-21.74C1130.25,781.44,1082.28,777.42,1042.39,750Z"/><path class="cls-225" d="M1020.91,769.61c-34.69-23.84-56-58.76-60.8-93.35-.43,1.11-.84,2.22-1.23,3.34A102.8,102.8,0,0,0,953.54,705a95.38,95.38,0,0,0-.15,13.66c11.76,25.2,31.07,48.52,57,66.32a173.11,173.11,0,0,0,40.34,20.61l.23,0a141.85,141.85,0,0,0,64.67-9.3c1.13-.44,2.25-.9,3.39-1.38C1087.49,799.14,1052,791,1020.91,769.61Z"/><path class="cls-226" d="M953.39,718.65a85.4,85.4,0,0,0,1.94,13.66c5.49,24.18,22.82,49.27,64.89,66.56,0,0,11.72,5,30.48,6.71A173.11,173.11,0,0,1,1010.36,785C984.46,767.17,965.15,743.85,953.39,718.65Z"/><path class="cls-226" d="M1083.1,685.41c38.64,26.56,87.77,22.2,109.72-9.74a58.43,58.43,0,0,0,4.86-8.53,57.72,57.72,0,0,0,2.47-6.21c-.54-2.62-1.17-5.25-1.92-7.89-2.45-8.63-12.52-35.92-35.47-54.31-6.77-5.43-35.22-20.13-46.81-18.94a7,7,0,0,0-3.12,1,109.65,109.65,0,0,1-10.09,5.83,120.83,120.83,0,0,1-19.89,7.94,137.49,137.49,0,0,1-24.45,5,120.28,120.28,0,0,0-15.13,3.9C1038.43,632,1053.29,664.92,1083.1,685.41Z"/><path class="cls-225" d="M1202.35,678.49a107.69,107.69,0,0,0-1.45-13.69c-.22-1.29-.48-2.58-.75-3.87a57.72,57.72,0,0,1-2.47,6.21,58.43,58.43,0,0,1-4.86,8.53c-22,31.94-71.08,36.3-109.72,9.74-29.81-20.49-44.67-53.39-39.83-82h0a165,165,0,0,0-17.11,6.5c-4,32.8,13.47,69.67,47.3,92.92,45.22,31.08,102.64,26.13,128.59-11,.14-1.54.23-3.09.3-4.65C1202.46,684.31,1202.47,681.41,1202.35,678.49Z"/><path class="cls-226" d="M1073.45,702.81c-33.83-23.25-51.27-60.12-47.3-92.92q-2.22,1-4.51,2.09c-3.52,1.7-7.16,3.6-10.84,5.75-.55.32-1.09.66-1.64,1-1.13.68-2.25,1.39-3.36,2.11-11.39,37.72,7,83.95,47.54,111.81,42.23,29,103.71,27.08,136.79-.57,1.7-3.26,3.24-6.57,4.6-10a107.77,107.77,0,0,0,4.12-12.27q1.31-4.85,2.15-9.82.59-3.53.94-7.11c0-.35.07-.71.1-1.07C1176.09,728.94,1118.67,733.89,1073.45,702.81Z"/><path class="cls-225" d="M1053.34,732.64c-40.53-27.86-58.93-74.09-47.54-111.81a121.84,121.84,0,0,0-20.66,16.83c-4.26,40.14,16.7,84.47,57.25,112.34,39.89,27.42,87.86,31.44,123.63,14.09q3.81-3.71,7.28-7.63a122.82,122.82,0,0,0,16.83-24.39C1157.05,759.72,1095.57,761.66,1053.34,732.64Z"/><g class="cls-227"><path class="cls-222" d="M1068.22,611.78S944.66,621.44,961.9,735.52C961.9,735.52,981.33,645.28,1068.22,611.78Z"/></g><ellipse class="cls-225" cx="1147.39" cy="554.15" rx="90.12" ry="65.7" transform="translate(448.65 1619.68) rotate(-82.52)"/><path class="cls-228" d="M1143.33,432.86l-1.88,8.59-1.91,8.58c-.64,2.85-1.29,5.7-2,8.51-.33,1.41-.67,2.81-1,4.2l-.51,2.05-.52,2a18.74,18.74,0,0,0,36.26,9.48,18.54,18.54,0,0,0,.53-6.55l0-.34-.24-2.35-.25-2.29c-.18-1.51-.36-3-.55-4.51q-.55-4.47-1.15-8.89l-1.2-8.83-1.24-8.83a12.37,12.37,0,0,0-24.32-.94Z"/><path class="cls-226" d="M1187.67,511.3l-12,2.42c-3.63,0-5.89,6.47-7,9.95L1158.56,557a8.18,8.18,0,0,0,0,4.8l10.14,33.34c.06.17.11.34.18.51A7.89,7.89,0,0,0,1179,600.1l8.81-3.26a14.38,14.38,0,0,0,5.06-3.17c1.57-1.53,1.91-2.57,2.66-5l10.14-33.34a8.18,8.18,0,0,0,0-4.8l-10.14-33.34A8.26,8.26,0,0,0,1187.67,511.3Z"/><path class="cls-225" d="M1191.09,554.89c.28-.19.45-.33.45-.33h0c-.16.1-.32.21-.5.31Z"/><path class="cls-225" d="M1181.22,586.6h0s0,0,0,0Z"/><path class="cls-225" d="M1178.84,531.3c-1,.48-2.06,1-2.72,1.3s-1.16.57-1.52.78l.65,40.46a17.16,17.16,0,0,0,2.76,8.67c1.62,2.62,4.21,3.87,6.74,3.34l.41-.08a10.13,10.13,0,0,0,2.29-.77,22.9,22.9,0,0,0,3-1.57,10.39,10.39,0,0,0,3.31-3.43,18.57,18.57,0,0,0,2.23-5.53,29.49,29.49,0,0,0,.74-7.48,19.72,19.72,0,0,0-.47-3.76,18.43,18.43,0,0,0-1.21-3.61,14.43,14.43,0,0,0-1.77-2.93,6,6,0,0,0-2.15-1.8l0,0a4.63,4.63,0,0,0,.51-.31,8.54,8.54,0,0,0,3-4,19.16,19.16,0,0,0,1.17-7.6,23.5,23.5,0,0,0-.84-6.15,14.38,14.38,0,0,0-2.16-4.63,9.67,9.67,0,0,0-3.24-2.87l0,0a6.63,6.63,0,0,0-5.92-.05Zm4.84,6.93a3.19,3.19,0,0,1,2.77-.24h0a4,4,0,0,1,1.54,1.06,5.41,5.41,0,0,1,1.13,2,9.56,9.56,0,0,1,.48,3q.06,3.57-1.38,5.19a5,5,0,0,1-1.68,1.26l-5.55,2.75h0v-1.19l-.2-12.17Zm5.42,22.89c.83,1.18,1.32,3.22,1.37,6.26a9.38,9.38,0,0,1-1.13,5.12s-3.1,4.43-6.46,3.8a1.66,1.66,0,0,1-.71-.5,3.74,3.74,0,0,1-.47-.8,4.6,4.6,0,0,1-.33-1.67l-.17-11.06S1187.14,558.34,1189.1,561.12Z"/><path class="cls-229" d="M1303.45,238.49s-36.57,18.77-30.14,33.1c0,0,10.38,31.63,37.06,35.09,0,0,20.75-5.44,32.61-20.26,0,0,10.38-8.4-11.36-34.48C1331.62,251.94,1312.49,233.22,1303.45,238.49Z"/><path class="cls-230" d="M1291.9,249.45c10.25-11.9,18.28-16,25.78-10.31,4.81,3.66,5.93,13.33-10.31,25.79-11.18,8.58-21.51,14.58-25.78,10.31S1282.7,260.13,1291.9,249.45Z"/><path class="cls-231" d="M1301.26,268.85c10,10,14.59,21.51,10.31,25.78s-15.81-.35-25.78-10.31-13.24-22.43-10.31-25.78S1291.3,258.88,1301.26,268.85Z"/><path class="cls-232" d="M982.43,656.77c-4.18,14-10.81,36.81-13.27,48.39,0,0,2.93,25.82,23.52,26.17,0,0,24.42-3.49,24.77-18.15,0,0,9.42-1,13.26-15.7,0,0,2.79-8.72-11.51-23.72,0,0-3.28-4.59-4-13.64A16.73,16.73,0,0,0,998.5,644.8h0A16.76,16.76,0,0,0,982.43,656.77Z"/><path class="cls-233" d="M1115.51,499.17l-3,1.4-3,1.48c-2,1-4,2-6,3q-6,3.11-11.86,6.39c-7.84,4.39-15.51,9-22.92,13.93-3.7,2.46-7.35,5-10.88,7.59-1.79,1.28-3.5,2.64-5.24,4s-3.42,2.7-5.06,4.11-3.25,2.81-4.86,4.23-3.12,2.88-4.56,4.38-2.88,3-4.27,4.51l-2,2.31c-.67.77-1.22,1.57-1.83,2.34-.3.39-.62.78-.89,1.17l-.8,1.18-.81,1.16-.1.15,0,.07h0l0,0h0l0,.06-.27.49c-.08.14-.19.35-.29.55l-.3.6c-.2.38-.4.82-.6,1.26l-.61,1.3-.58,1.37c-.79,1.81-1.47,3.76-2.18,5.67l-1,3c-.16.49-.33,1-.49,1.47l-.42,1.52a175.3,175.3,0,0,0-5.17,25,275.12,275.12,0,0,0-1.34,52.19,15.25,15.25,0,1,1-30.43,2c0-.29,0-.57,0-.86V658a304.47,304.47,0,0,1,4.94-57.68,203.72,203.72,0,0,1,7.71-28.54l.62-1.76c.22-.59.46-1.18.69-1.77l1.4-3.51c1-2.34,2-4.67,3.19-7l.87-1.75,1-1.77c.32-.59.63-1.17,1-1.79l.54-.9c.18-.31.34-.6.56-.94l.64-1,.46-.69.13-.18.07-.1.16-.2,1.24-1.6,1.25-1.6c.42-.53.86-1,1.28-1.5.87-1,1.71-2,2.6-2.93l2.67-2.79c1.83-1.77,3.64-3.55,5.52-5.19s3.77-3.24,5.67-4.82,3.85-3.06,5.81-4.49,3.93-2.84,5.91-4.24,4-2.72,6-4c4-2.62,8.09-5.08,12.19-7.48,8.21-4.76,16.56-9.14,25-13.24q6.35-3.07,12.78-5.94c2.14-1,4.3-1.89,6.46-2.81l3.27-1.37,3.36-1.36a8.74,8.74,0,0,1,7,16Z"/><path class="cls-219" d="M1112.09,482.43c11.22-1.65,25.5,5.77,31.91,9.56a16.63,16.63,0,0,0,12.12,2,13.25,13.25,0,0,0,10.19-9.51c-26.77-28.82-52.29-16-52.29-16s-8.65,4.71-11.79,9.42C1102.23,477.88,1098.92,484.37,1112.09,482.43Z"/><path class="cls-219" d="M1171.81,464.74s12.06-1.52,17.12,7c0,0,.29,17.69-12.56,13.78a9,9,0,0,1-4.35-10.17A71.58,71.58,0,0,1,1171.81,464.74Z"/><path class="cls-225" d="M1012.65,940.27l-.07.11a19.09,19.09,0,0,0-2.57,6.49l-1.23,6.36a33.57,33.57,0,0,1-4.24,11l-2.16,3.57c-1.76,2.9-3.46,5.82-5.33,8.66s-3.79,5.66-5.53,8.57a60.22,60.22,0,0,0-4.47,9.08,52.48,52.48,0,0,0-2.9,9.84,47.17,47.17,0,0,0-.67,5.29c-.05.91-.08,1.83-.07,2.77a22.45,22.45,0,0,0,.2,2.9,20.3,20.3,0,0,0,22.72,17.55,20.82,20.82,0,0,0,8-2.79,24.51,24.51,0,0,0,2.39-1.66c.75-.58,1.44-1.18,2.12-1.79a44.48,44.48,0,0,0,3.71-3.83,52.29,52.29,0,0,0,5.88-8.4,59.27,59.27,0,0,0,4.3-9.16c1.19-3.17,2.16-6.45,3.24-9.67s2.28-6.39,3.45-9.57l3.5-9.54,3.42-9.59c1.19-3.42,2.39-6.84,3.53-10.29,3.09-9.32-2-18.84-11.28-22.62a46.67,46.67,0,0,0-7-2.3C1024.26,929.36,1016.68,933.87,1012.65,940.27Z"/><ellipse class="cls-226" cx="1044.69" cy="962.36" rx="19.25" ry="14.53" transform="translate(-149.04 1732.12) rotate(-75.47)"/><path class="cls-225" d="M1048.66,971.6a9,9,0,0,1-3.29-17.31c33.36-13.12,57-38,71-56.54,15.39-20.41,22.81-37.94,22.88-38.11C1155.42,820.82,1161.1,781.3,1163,755c2.09-28.7.29-48.39.28-48.59a9,9,0,1,1,17.85-1.69c.08.84,1.94,21.08-.22,51.16-2,27.75-8,69.48-25.11,110.68-.32.78-8.17,19.42-24.79,41.57-22.11,29.47-49.46,51.21-79.1,62.87A8.94,8.94,0,0,1,1048.66,971.6Z"/><path class="cls-225" d="M1041.64,250.64a3.43,3.43,0,0,0,1.26-.34,3.59,3.59,0,0,0,1.72-4.79c-.29-.61-28.94-62.15-17.7-99.15a3.6,3.6,0,1,0-6.88-2.1c-12.06,39.67,16.83,101.7,18.07,104.32A3.6,3.6,0,0,0,1041.64,250.64Z"/><path class="cls-225" d="M1019.89,152.57h0a9.91,9.91,0,0,1-5.84-11.1l3.15-15.53a9.92,9.92,0,0,1,13.19-7.32l3.89,1.46a9.91,9.91,0,0,1,5.4,13.72l-7,14.08A9.92,9.92,0,0,1,1019.89,152.57Z"/><path class="cls-222" d="M1079.43,164.91l-.34.21a13.58,13.58,0,0,1,2.21-.67A10.42,10.42,0,0,0,1079.43,164.91Z"/><path d="M1081.3,164.45a10.42,10.42,0,0,0-1.87.46l-.34.21a13.58,13.58,0,0,1,2.21-.67Z"/><path class="cls-234" d="M1109.64,324c-26.51,41.05-52.67,90.42-61.55,135.82-.12.59-.23,1.19-.34,1.78a164.48,164.48,0,0,0-2.65,21.82c-.11,2.26-.14,4.28-.13,6,3-3.16,135.88-143.94,132.72-256.27q-3.66,4.13-7.7,8.84A868,868,0,0,0,1109.64,324Z"/><path class="cls-225" d="M1092.06,395c-14.47-50.47,12.18-65.7,12.18-65.7-18.93-64.55,34.4-81.33,34.4-81.33,28.73-.31,45.62,13.6,55.39,28,.28-1.32.06-3.53-1.58-7.21,0,0-38.76-61.37-113.39-49.93,0,0-91.23,14.82-98.21,109.9,0,0-5.28,104.55,109.71,118.74,0,0,36,1,68.85-5.37C1110.27,440.6,1092.06,395,1092.06,395Z"/><path class="cls-235" d="M1247.19,337.92s1.73-27.44-19.68-18.3c0,0-16.31,2.83-20.73-12.31A84,84,0,0,0,1194,276c-9.77-14.43-26.66-28.34-55.39-28,0,0-53.33,16.78-34.4,81.33,0,0-26.65,15.23-12.18,65.7,0,0,18.21,45.57,67.35,47.13,13,.41,28.2-2.26,45.79-9.69,0,0,50.66-27,34.89-76.88C1240.09,355.59,1245.77,353.06,1247.19,337.92Z"/><path class="cls-225" d="M1166.17,393.78c.16-.09.43-.16.65-.26s.46-.16.69-.26l1.36-.55c.89-.38,1.75-.78,2.57-1.23a20.2,20.2,0,0,0,4.37-3.12,16.82,16.82,0,0,0,1.79-2c.3-.34.53-.73.81-1.09.14-.19.25-.39.38-.58a5.36,5.36,0,0,0,.38-.59,57.85,57.85,0,0,0,2.75-5.41l0,0a1.29,1.29,0,0,1,1.72-.63,1.33,1.33,0,0,1,.72.95,15.4,15.4,0,0,1-.51,7.14,15.07,15.07,0,0,1-1.53,3.44,17,17,0,0,1-1.07,1.59c-.41.49-.82,1-1.28,1.44a16.12,16.12,0,0,1-6.45,3.95,15.8,15.8,0,0,1-3.63.73,12.56,12.56,0,0,1-1.84,0l-.92-.07-1-.16a1.65,1.65,0,0,1-1.29-1.94,1.68,1.68,0,0,1,.81-1.12Z"/><path class="cls-225" d="M1241.68,389.09c-.48.67-.94,1.23-1.44,1.81s-1,1.12-1.53,1.67a42,42,0,0,1-3.32,3.07,46.24,46.24,0,0,1-7.52,5.1,49.31,49.31,0,0,1-8.48,3.6c-.74.21-1.47.46-2.23.65s-1.51.37-2.28.54l-2.31.4c-.78.12-1.56.18-2.34.27a40.52,40.52,0,0,1-9.46-.31,41.69,41.69,0,0,1-9.08-2.64,48.48,48.48,0,0,1-15.1-10.55,3.15,3.15,0,0,1,4.22-4.67l.13.1c1.06.86,2.09,1.76,3.15,2.59l1.64,1.2.81.6.85.54,1.69,1.08c.57.34,1.17.63,1.74,1l.87.48c.29.16.6.28.9.42l1.8.81a39,39,0,0,0,7.51,2.15,36.19,36.19,0,0,0,7.79.36,42.94,42.94,0,0,0,15.36-4.19c2.47-1.13,4.9-2.41,7.3-3.8,1.19-.7,2.39-1.42,3.57-2.16l1.77-1.14,1.72-1.14.08-.06a1.6,1.6,0,0,1,2.19,2.26Z"/><path class="cls-222" d="M1160.78,284.43c14.9-1.21,28.11,11.84,29.51,29.15,1.31,16.08-8,30.17-21.32,33.05-6.29-3.8-15.49-8.31-24.86-9.27a34.65,34.65,0,0,1-7.75-19.41C1135,300.65,1145.89,285.64,1160.78,284.43Z"/><ellipse class="cls-236" cx="1153.09" cy="368.95" rx="16.64" ry="19.34" transform="translate(589.88 1440.65) rotate(-80.02)"/><path class="cls-225" d="M1190.26,306.56c-.2-.85-.45-1.69-.74-2.54a25.77,25.77,0,0,0-6.2-9.93c-4.88-4.8-11.33-6.88-17.16-4.85-9,3.12-13.06,14.8-9.14,26.09a25.54,25.54,0,0,0,7,10.69c4.78,4.25,10.84,6,16.35,4.1a14,14,0,0,0,4.15-2.31C1190,323.45,1192.33,315.08,1190.26,306.56Z"/><path class="cls-237" d="M1190.26,306.56a18.93,18.93,0,0,0-1-4.18,16.19,16.19,0,0,0-6-8.29,6.07,6.07,0,0,0-5.3-1c-4,1.38-5.35,7.76-3.09,14.25a20.54,20.54,0,0,0,1.44,3.22c2.15,3.81,5.29,6.25,8.16,6.29a4.75,4.75,0,0,0,1.67-.26C1189.3,315.55,1190.82,311.42,1190.26,306.56Z"/><path class="cls-238" d="M1176.37,310.6,1164,326c4.78,4.25,10.84,6,16.35,4.1a14,14,0,0,0,4.15-2.31V316.89C1181.66,316.85,1178.52,314.41,1176.37,310.6Z"/><path class="cls-225" d="M907.18,913.4l-.08.12a19.05,19.05,0,0,0-2.87,6.36l-1.52,6.29a33.52,33.52,0,0,1-4.77,10.8l-2.32,3.46c-1.89,2.81-3.73,5.65-5.73,8.4s-4.06,5.48-5.94,8.3a60.08,60.08,0,0,0-4.89,8.85,53.06,53.06,0,0,0-3.36,9.69,46.15,46.15,0,0,0-.92,5.26c-.1.9-.17,1.82-.2,2.76a23.8,23.8,0,0,0,.06,2.91,20.3,20.3,0,0,0,21.86,18.6,20.6,20.6,0,0,0,8.09-2.41,22.84,22.84,0,0,0,2.46-1.54c.77-.54,1.5-1.11,2.2-1.69a45.2,45.2,0,0,0,3.9-3.64,53,53,0,0,0,6.26-8.12,59.68,59.68,0,0,0,4.73-8.94c1.34-3.11,2.46-6.34,3.7-9.51s2.57-6.28,3.89-9.4l3.95-9.36,3.87-9.41c1.36-3.37,2.71-6.73,4-10.12,3.53-9.16-1.15-18.91-10.19-23.13a47.57,47.57,0,0,0-6.85-2.63C919.29,903.06,911.51,907.2,907.18,913.4Z"/><ellipse class="cls-226" cx="941.35" cy="942.77" rx="20.48" ry="15.46" transform="translate(-339.09 1310.75) rotate(-61.08)"/><path class="cls-225" d="M947.06,952.54a9,9,0,0,1-1.52-17.8c35.32-6.1,63.54-25.66,81-41,19.21-16.88,30-32.53,30.13-32.69,23.67-34.74,37.23-72.3,44.44-97.68,7.86-27.68,10.09-47.34,10.11-47.53A9,9,0,0,1,1129,717.8c-.1.85-2.36,21-10.57,50.07-7.58,26.77-21.87,66.42-47,103.3-.48.7-11.93,17.36-32.69,35.69C1011.16,931.24,980,947,948.59,952.41A8.86,8.86,0,0,1,947.06,952.54Z"/><circle class="cls-222" cx="1160.02" cy="296.91" r="7.35"/><path class="cls-235" d="M1132.18,281.79l4.56,20.75c3.77-14,34.44-8.54,34.44-8.54,17.53-.24,12.13-12.21,12.13-12.21S1147.89,261,1132.18,281.79Z"/><path class="cls-239" d="M1058.65,194.62l.15.32c2,4.14,7,7.25,7,7.25a14.7,14.7,0,0,0-1.13,8,11.12,11.12,0,0,0,.89,2.91,8.91,8.91,0,0,0,1.68,2.55l59,28.37c6.94-8.4,14-16.26,19.29-22,1.64-1.78,3.11-3.36,4.37-4.69,2.84-3,4.58-4.81,4.58-4.81l.78-.82c-15.66-9.24-55.2-25.23-55.2-25.23-9.81-4.76-19.49,1.29-19.49,1.29-8.24-4.64-14.59-3.58-17.52-2.61a13.1,13.1,0,0,0-2.07,1C1057.65,189,1057.52,192,1058.65,194.62Z"/><path class="cls-240" d="M1048.68,199.78l-.17.48c-1.3,4.22,2.44,8.23,5.1,10.44-16.35,7.86-64,35.52-84.74,99.27,0,0-6.59,21-6.67,50,0,0,.21,1.93.48,4.2q0-6,.62-12.3c7-38.42,27.18-68.59,47-90,23.17-25.05,45.76-38,45.76-38a8.37,8.37,0,0,0,1.45,2.06l60.12,28.92c2.77-3.64,5.69-7.29,8.63-10.85l-59-28.37a8.91,8.91,0,0,1-1.68-2.55,11.12,11.12,0,0,1-.89-2.91,14.7,14.7,0,0,1,1.13-8s-5-3.11-7-7.25l-.15-.32c-1.13-2.6-1-5.59,2.32-8.46-3.77,2.21-7.19,6.26-9.46,9.37-.55.74-1,1.43-1.42,2C1049.2,198.89,1048.68,199.78,1048.68,199.78Z"/><path class="cls-239" d="M962.2,360c.08-29.07,6.67-50,6.67-50,20.78-63.75,68.39-91.41,84.74-99.27-2.66-2.21-6.4-6.22-5.1-10.44l.17-.48s.52-.89,1.41-2.22c.4-.6.87-1.29,1.42-2-5.76,1-12.69,3.18-21,7.3,0,0-75.07,39.72-75.52,127.73,0,0,3,19.39,6.81,31.28l.21.64c.21.63.42,1.25.63,1.83,0,0,0-.07,0-.1C962.41,361.94,962.2,360,962.2,360Z"/><path class="cls-239" d="M1068,352.13s16-28.65,40.9-51.21c-.76-7.09-1.79-13.93-2.62-18.95a22.25,22.25,0,0,1,3.38-16c2.39-3.6,5.09-7.34,8-11.11L1057.48,226a8.37,8.37,0,0,1-1.45-2.06s-22.59,13-45.76,38c-19.79,21.38-40,51.55-47,90q-.6,6.3-.62,12.3s0,.07,0,.1a126.32,126.32,0,0,0,3.44,30.1c9.94,41.41,39.26,68.7,59.19,83C1029,456.67,1040.08,405.62,1068,352.13Z"/><path class="cls-239" d="M1194.55,189.88a22,22,0,0,0-19.46,3.72c-2.9,2.17-5.83,4.61-8.75,7.24-3.74,3.37-7.46,7-11.09,10.87l-.78.82s-1.74,1.78-4.58,4.81c-1.26,1.33-2.73,2.91-4.37,4.69-5.31,5.76-12.35,13.62-19.29,22-2.94,3.56-5.86,7.21-8.63,10.85s-5.57,7.51-8,11.11a22.25,22.25,0,0,0-3.38,16c.83,5,1.86,11.86,2.62,18.95.85,7.94,1.34,16.18.82,22.53l-.06.58a868,868,0,0,1,60.35-82c4.85-5.82,7.69-9,7.69-9a1.34,1.34,0,0,0,0,.2c9.34-10.54,16.65-18.11,20.78-22.26a15.91,15.91,0,0,0,4.58-9.25C1203.92,194.63,1199.53,191.36,1194.55,189.88Z"/><path class="cls-240" d="M1045.1,483.45a155.72,155.72,0,0,1,2.65-21.82c.11-.59.22-1.19.34-1.78,8.88-45.4,35-94.77,61.55-135.82l.06-.58c.52-6.35,0-14.59-.82-22.53-24.92,22.56-40.9,51.21-40.9,51.21-27.9,53.49-39,104.54-42.68,125.31-1.1,6.26-1.52,9.78-1.52,9.78a18.9,18.9,0,0,0,.78,5.34,17.2,17.2,0,0,0,.92,2.38c1.86,3.82,5.66,7.94,13.23,5.76a8.8,8.8,0,0,0,6.3-8.76c0-.75,0-1.57,0-2.46a.28.28,0,0,0-.06.06C1044.92,487.52,1045,485.49,1045.1,483.45Z"/><g class="cls-241"><ellipse class="cls-222" cx="1001.19" cy="322.37" rx="39.38" ry="18.25" transform="translate(338.42 1139.09) rotate(-68.79)"/></g><path class="cls-225" d="M1000.08,315.91a3.43,3.43,0,0,0,1.06-.77,3.6,3.6,0,0,0-.12-5.09c-.5-.47-49.41-47.53-52.26-86.1a3.6,3.6,0,1,0-7.18.53c3.06,41.34,52.37,88.78,54.47,90.78A3.61,3.61,0,0,0,1000.08,315.91Z"/><path class="cls-225" d="M944.44,232.28h0A9.91,9.91,0,0,1,935,224l-2.66-15.62A9.91,9.91,0,0,1,942,196.83l4.15-.05a9.92,9.92,0,0,1,10,10.86l-1.5,15.67A9.9,9.9,0,0,1,944.44,232.28Z"/><path class="cls-242" d="M1162.53,271.21c2.4-3.82,14.88-1.21,14.7,6.46s-18.78.12-14.7-6.46Z"/></g></g></g></svg>