<svg xmlns="http://www.w3.org/2000/svg" xmlns:xlink="http://www.w3.org/1999/xlink" viewBox="0 0 2436.85 2449.62"><defs><style>.cls-1,.cls-93{fill:none;}.cls-2{isolation:isolate;}.cls-3{clip-path:url(#clip-path);}.cls-4{fill:url(#Degradado_sin_nombre_349);}.cls-10,.cls-11,.cls-12,.cls-13,.cls-14,.cls-15,.cls-16,.cls-17,.cls-18,.cls-19,.cls-20,.cls-21,.cls-22,.cls-23,.cls-24,.cls-25,.cls-26,.cls-27,.cls-28,.cls-29,.cls-30,.cls-31,.cls-32,.cls-33,.cls-34,.cls-35,.cls-36,.cls-39,.cls-40,.cls-41,.cls-42,.cls-43,.cls-44,.cls-45,.cls-46,.cls-47,.cls-48,.cls-49,.cls-5,.cls-50,.cls-51,.cls-52,.cls-53,.cls-54,.cls-55,.cls-56,.cls-57,.cls-58,.cls-59,.cls-6,.cls-60,.cls-61,.cls-62,.cls-63,.cls-72,.cls-8,.cls-9{fill-rule:evenodd;}.cls-5{fill:url(#Áåçûìÿííûé_ãðàäèåíò_492);}.cls-6{fill:url(#Áåçûìÿííûé_ãðàäèåíò_456);}.cls-33,.cls-34,.cls-35,.cls-36,.cls-44,.cls-53,.cls-54,.cls-55,.cls-7{opacity:0.2;mix-blend-mode:multiply;}.cls-8{fill:url(#Áåçûìÿííûé_ãðàäèåíò_299);}.cls-9{fill:url(#Áåçûìÿííûé_ãðàäèåíò_299-2);}.cls-10{fill:url(#Áåçûìÿííûé_ãðàäèåíò_299-3);}.cls-11{fill:url(#Áåçûìÿííûé_ãðàäèåíò_299-4);}.cls-12{fill:url(#Áåçûìÿííûé_ãðàäèåíò_299-5);}.cls-13{fill:url(#Áåçûìÿííûé_ãðàäèåíò_299-6);}.cls-14{fill:url(#Áåçûìÿííûé_ãðàäèåíò_299-7);}.cls-15{fill:url(#Áåçûìÿííûé_ãðàäèåíò_299-8);}.cls-16{fill:url(#Áåçûìÿííûé_ãðàäèåíò_299-9);}.cls-17{fill:url(#Áåçûìÿííûé_ãðàäèåíò_456-2);}.cls-18{fill:url(#Áåçûìÿííûé_ãðàäèåíò_456-3);}.cls-19{fill:url(#Áåçûìÿííûé_ãðàäèåíò_456-4);}.cls-20{fill:url(#Áåçûìÿííûé_ãðàäèåíò_456-5);}.cls-21{fill:url(#Áåçûìÿííûé_ãðàäèåíò_456-6);}.cls-22{fill:url(#Áåçûìÿííûé_ãðàäèåíò_456-7);}.cls-23{fill:url(#Áåçûìÿííûé_ãðàäèåíò_456-8);}.cls-24{fill:url(#Áåçûìÿííûé_ãðàäèåíò_456-9);}.cls-25{fill:url(#Áåçûìÿííûé_ãðàäèåíò_456-10);}.cls-26{fill:url(#Áåçûìÿííûé_ãðàäèåíò_456-11);}.cls-27{fill:url(#Áåçûìÿííûé_ãðàäèåíò_456-12);}.cls-28,.cls-58,.cls-60,.cls-61{opacity:0.6;}.cls-109,.cls-110,.cls-28,.cls-29,.cls-30,.cls-37,.cls-38,.cls-48,.cls-58,.cls-60,.cls-61,.cls-86{mix-blend-mode:screen;}.cls-28{fill:url(#Áåçûìÿííûé_ãðàäèåíò_524);}.cls-29{fill:url(#Áåçûìÿííûé_ãðàäèåíò_573);}.cls-30{fill:url(#Áåçûìÿííûé_ãðàäèåíò_573-2);}.cls-31{fill:url(#Áåçûìÿííûé_ãðàäèåíò_456-13);}.cls-32{fill:url(#Áåçûìÿííûé_ãðàäèåíò_456-14);}.cls-33{fill:url(#Áåçûìÿííûé_ãðàäèåíò_299-10);}.cls-34{fill:url(#Áåçûìÿííûé_ãðàäèåíò_299-11);}.cls-35{fill:url(#Áåçûìÿííûé_ãðàäèåíò_299-12);}.cls-36{fill:url(#Áåçûìÿííûé_ãðàäèåíò_299-13);}.cls-109,.cls-110,.cls-37,.cls-38,.cls-77,.cls-78,.cls-86{opacity:0.5;}.cls-37{fill:url(#Degradado_sin_nombre_138);}.cls-38{fill:url(#Degradado_sin_nombre_138-2);}.cls-39{fill:url(#Áåçûìÿííûé_ãðàäèåíò_546);}.cls-40{fill:url(#Áåçûìÿííûé_ãðàäèåíò_541);}.cls-41{fill:url(#Áåçûìÿííûé_ãðàäèåíò_546-2);}.cls-42{fill:url(#Áåçûìÿííûé_ãðàäèåíò_413);}.cls-43{fill:url(#Áåçûìÿííûé_ãðàäèåíò_18);}.cls-44{fill:url(#Áåçûìÿííûé_ãðàäèåíò_299-14);}.cls-45{fill:url(#Áåçûìÿííûé_ãðàäèåíò_546-3);}.cls-46{fill:url(#Áåçûìÿííûé_ãðàäèåíò_438);}.cls-47{fill:url(#Áåçûìÿííûé_ãðàäèåíò_546-4);}.cls-48{fill:url(#Áåçûìÿííûé_ãðàäèåíò_441);}.cls-49{fill:#ff884a;}.cls-50{fill:url(#Áåçûìÿííûé_ãðàäèåíò_261);}.cls-51{fill:url(#Áåçûìÿííûé_ãðàäèåíò_261-2);}.cls-52{fill:url(#Áåçûìÿííûé_ãðàäèåíò_445);}.cls-53{fill:url(#Áåçûìÿííûé_ãðàäèåíò_299-15);}.cls-54{fill:url(#Áåçûìÿííûé_ãðàäèåíò_299-16);}.cls-55{fill:url(#Áåçûìÿííûé_ãðàäèåíò_299-17);}.cls-56{fill:url(#Áåçûìÿííûé_ãðàäèåíò_547);}.cls-57{fill:url(#Áåçûìÿííûé_ãðàäèåíò_547-2);}.cls-58{fill:url(#Áåçûìÿííûé_ãðàäèåíò_573-3);}.cls-59{fill:url(#Áåçûìÿííûé_ãðàäèåíò_562);}.cls-60{fill:url(#Áåçûìÿííûé_ãðàäèåíò_572);}.cls-61{fill:url(#Áåçûìÿííûé_ãðàäèåíò_572-2);}.cls-62,.cls-80{fill:#d1b7e6;}.cls-63{fill:#ecdff2;}.cls-64{fill:url(#Degradado_sin_nombre_9);}.cls-65,.cls-72{fill:#63294e;}.cls-66{fill:#ffd800;}.cls-67{fill:#ffce00;}.cls-68{opacity:0.43;}.cls-69{fill:#fff;}.cls-70{fill:gold;}.cls-71{fill:#ce5502;}.cls-73{fill:url(#Degradado_sin_nombre_171);}.cls-74{fill:url(#Degradado_sin_nombre_171-2);}.cls-75{fill:#ff9300;}.cls-76{fill:#e66600;}.cls-77{fill:#29161a;}.cls-79{fill:url(#Degradado_sin_nombre_306);}.cls-81{fill:#e4d6f2;}.cls-82{fill:url(#Degradado_sin_nombre_305);}.cls-83{fill:url(#Degradado_sin_nombre_176);}.cls-84{fill:url(#Degradado_sin_nombre_176-2);}.cls-85{fill:url(#Degradado_sin_nombre_12);}.cls-87{fill:url(#Degradado_sin_nombre_138-3);}.cls-88{fill:url(#Degradado_sin_nombre_138-4);}.cls-89{fill:url(#Degradado_sin_nombre_138-5);}.cls-90{fill:url(#Degradado_sin_nombre_138-6);}.cls-91{fill:url(#Degradado_sin_nombre_138-7);}.cls-92{fill:url(#Degradado_sin_nombre_138-8);}.cls-93{stroke:#d0b6e5;stroke-miterlimit:10;}.cls-94{fill:#fc2226;}.cls-95{fill:#fefefe;}.cls-96{fill:#8b0402;}.cls-100,.cls-101,.cls-96,.cls-97,.cls-98,.cls-99{opacity:0.67;}.cls-97{fill:#810d0c;}.cls-98{fill:#d8d1d8;}.cls-99{fill:#97050f;}.cls-100{fill:#6f0906;}.cls-101{fill:#d2c6c8;}.cls-102{fill:#311352;}.cls-103{fill:#97acd5;}.cls-104{fill:#ee631c;}.cls-105{fill:#1d285d;}.cls-106{fill:#19214f;}.cls-107{fill:#ce480d;}.cls-108{fill:#7997c6;}.cls-109{fill:url(#Degradado_sin_nombre_257);}.cls-110{fill:url(#Degradado_sin_nombre_257-2);}</style><clipPath id="clip-path" transform="translate(290.29 171.11)"><rect class="cls-1" width="1920" height="1080.27"/></clipPath><linearGradient id="Degradado_sin_nombre_349" x1="1235.89" y1="1513.94" x2="1235.89" y2="-311.58" gradientUnits="userSpaceOnUse"><stop offset="0" stop-color="#ffc83f"/><stop offset="0.14" stop-color="#ff9f31"/><stop offset="0.24" stop-color="#fb9b34"/><stop offset="0.34" stop-color="#ee8e3c"/><stop offset="0.45" stop-color="#da794a"/><stop offset="0.56" stop-color="#bc5b5d"/><stop offset="0.67" stop-color="#973576"/><stop offset="0.67" stop-color="#973576"/><stop offset="1" stop-color="#311352"/></linearGradient><linearGradient id="Áåçûìÿííûé_ãðàäèåíò_492" x1="184.02" y1="271.75" x2="184.02" y2="52.89" gradientUnits="userSpaceOnUse"><stop offset="0" stop-color="#ba2970"/><stop offset="1" stop-color="#e04263"/></linearGradient><linearGradient id="Áåçûìÿííûé_ãðàäèåíò_456" x1="192.06" y1="267.94" x2="658.33" y2="267.94" gradientUnits="userSpaceOnUse"><stop offset="0" stop-color="#ff8b2c"/><stop offset="1" stop-color="#ff8645"/></linearGradient><linearGradient id="Áåçûìÿííûé_ãðàäèåíò_299" x1="318.04" y1="232.74" x2="318.04" y2="198.1" gradientUnits="userSpaceOnUse"><stop offset="0" stop-color="#812965"/><stop offset="1" stop-color="#4c1f5e"/></linearGradient><linearGradient id="Áåçûìÿííûé_ãðàäèåíò_299-2" x1="337.1" y1="195.74" x2="337.1" y2="193.28" xlink:href="#Áåçûìÿííûé_ãðàäèåíò_299"/><linearGradient id="Áåçûìÿííûé_ãðàäèåíò_299-3" x1="320.66" y1="202.46" x2="320.66" y2="177.6" xlink:href="#Áåçûìÿííûé_ãðàäèåíò_299"/><linearGradient id="Áåçûìÿííûé_ãðàäèåíò_299-4" x1="258.43" y1="190.51" x2="258.43" y2="126.88" xlink:href="#Áåçûìÿííûé_ãðàäèåíò_299"/><linearGradient id="Áåçûìÿííûé_ãðàäèåíò_299-5" x1="280.95" y1="126.88" x2="280.95" y2="122.54" xlink:href="#Áåçûìÿííûé_ãðàäèåíò_299"/><linearGradient id="Áåçûìÿííûé_ãðàäèåíò_299-6" x1="178.34" y1="113.17" x2="178.34" y2="64.76" xlink:href="#Áåçûìÿííûé_ãðàäèåíò_299"/><linearGradient id="Áåçûìÿííûé_ãðàäèåíò_299-7" x1="180.93" y1="135.43" x2="180.93" y2="121.33" xlink:href="#Áåçûìÿííûé_ãðàäèåíò_299"/><linearGradient id="Áåçûìÿííûé_ãðàäèåíò_299-8" x1="140.23" y1="249.8" x2="140.23" y2="131.66" xlink:href="#Áåçûìÿííûé_ãðàäèåíò_299"/><linearGradient id="Áåçûìÿííûé_ãðàäèåíò_299-9" x1="30.38" y1="150.98" x2="30.38" y2="117.86" xlink:href="#Áåçûìÿííûé_ãðàäèåíò_299"/><linearGradient id="Áåçûìÿííûé_ãðàäèåíò_456-2" x1="-290.29" y1="242.2" x2="390.13" y2="242.2" xlink:href="#Áåçûìÿííûé_ãðàäèåíò_456"/><linearGradient id="Áåçûìÿííûé_ãðàäèåíò_456-3" x1="310.25" y1="142.85" x2="310.25" y2="110.85" xlink:href="#Áåçûìÿííûé_ãðàäèåíò_456"/><linearGradient id="Áåçûìÿííûé_ãðàäèåíò_456-4" x1="357.02" y1="177.6" x2="357.02" y2="135.43" xlink:href="#Áåçûìÿííûé_ãðàäèåíò_456"/><linearGradient id="Áåçûìÿííûé_ãðàäèåíò_456-5" x1="361.12" y1="233.88" x2="361.12" y2="190.22" xlink:href="#Áåçûìÿííûé_ãðàäèåíò_456"/><linearGradient id="Áåçûìÿííûé_ãðàäèåíò_456-6" x1="502.09" y1="261.42" x2="502.09" y2="225.28" xlink:href="#Áåçûìÿííûé_ãðàäèåíò_456"/><linearGradient id="Áåçûìÿííûé_ãðàäèåíò_456-7" x1="206.63" y1="141.09" x2="206.63" y2="52.88" xlink:href="#Áåçûìÿííûé_ãðàäèåíò_456"/><linearGradient id="Áåçûìÿííûé_ãðàäèåíò_456-8" x1="80.83" y1="138.93" x2="80.83" y2="108.72" xlink:href="#Áåçûìÿííûé_ãðàäèåíò_456"/><linearGradient id="Áåçûìÿííûé_ãðàäèåíò_456-9" x1="335.48" y1="112.96" x2="335.48" y2="94.34" xlink:href="#Áåçûìÿííûé_ãðàäèåíò_456"/><linearGradient id="Áåçûìÿííûé_ãðàäèåíò_456-10" x1="320.36" y1="105.97" x2="320.36" y2="101.8" xlink:href="#Áåçûìÿííûé_ãðàäèåíò_456"/><linearGradient id="Áåçûìÿííûé_ãðàäèåíò_456-11" x1="405.92" y1="189.92" x2="405.92" y2="172.2" xlink:href="#Áåçûìÿííûé_ãðàäèåíò_456"/><linearGradient id="Áåçûìÿííûé_ãðàäèåíò_456-12" x1="189.51" y1="50.33" x2="189.51" y2="43.65" xlink:href="#Áåçûìÿííûé_ãðàäèåíò_456"/><linearGradient id="Áåçûìÿííûé_ãðàäèåíò_524" x1="244" y1="188.29" x2="244" y2="52.89" gradientUnits="userSpaceOnUse"><stop offset="0"/><stop offset="0.26" stop-color="#020100"/><stop offset="0.39" stop-color="#0a0200"/><stop offset="0.5" stop-color="#180500"/><stop offset="0.6" stop-color="#2b0a00"/><stop offset="0.68" stop-color="#441000"/><stop offset="0.76" stop-color="#631700"/><stop offset="0.83" stop-color="#871f00"/><stop offset="0.9" stop-color="#b22900"/><stop offset="0.96" stop-color="#e03400"/><stop offset="0.99" stop-color="#ff3b00"/></linearGradient><linearGradient id="Áåçûìÿííûé_ãðàäèåíò_573" x1="287.83" y1="162.04" x2="365.78" y2="162.04" gradientUnits="userSpaceOnUse"><stop offset="0"/><stop offset="0.13" stop-color="#040100"/><stop offset="0.26" stop-color="#0f0400"/><stop offset="0.38" stop-color="#230800"/><stop offset="0.5" stop-color="#3e0e00"/><stop offset="0.62" stop-color="#611600"/><stop offset="0.74" stop-color="#8c2000"/><stop offset="0.87" stop-color="#bf2c00"/><stop offset="0.98" stop-color="#f93a00"/><stop offset="0.99" stop-color="#ff3b00"/></linearGradient><linearGradient id="Áåçûìÿííûé_ãðàäèåíò_573-2" x1="189.12" y1="132.22" x2="254.03" y2="132.22" xlink:href="#Áåçûìÿííûé_ãðàäèåíò_573"/><linearGradient id="Áåçûìÿííûé_ãðàäèåíò_456-13" x1="5.13" y1="92.48" x2="5.13" y2="66.85" xlink:href="#Áåçûìÿííûé_ãðàäèåíò_456"/><linearGradient id="Áåçûìÿííûé_ãðàäèåíò_456-14" x1="-52.69" y1="87.4" x2="-52.69" y2="71.05" xlink:href="#Áåçûìÿííûé_ãðàäèåíò_456"/><linearGradient id="Áåçûìÿííûé_ãðàäèåíò_299-10" x1="-148.04" y1="140.95" x2="-148.04" y2="113.21" xlink:href="#Áåçûìÿííûé_ãðàäèåíò_299"/><linearGradient id="Áåçûìÿííûé_ãðàäèåíò_299-11" x1="-133.8" y1="187.49" x2="-133.8" y2="156.52" xlink:href="#Áåçûìÿííûé_ãðàäèåíò_299"/><linearGradient id="Áåçûìÿííûé_ãðàäèåíò_299-12" x1="-70.39" y1="156.52" x2="-70.39" y2="87.39" xlink:href="#Áåçûìÿííûé_ãðàäèåíò_299"/><linearGradient id="Áåçûìÿííûé_ãðàäèåíò_299-13" x1="-130.36" y1="242.2" x2="-130.36" y2="182.59" xlink:href="#Áåçûìÿííûé_ãðàäèåíò_299"/><linearGradient id="Degradado_sin_nombre_138" x1="10779.76" y1="1026.48" x2="10779.76" y2="929.47" gradientTransform="matrix(-1, 0, 0, 1, 11915.13, 0)" gradientUnits="userSpaceOnUse"><stop offset="0.12" stop-color="#ff3b00"/><stop offset="0.17" stop-color="#e53500"/><stop offset="0.3" stop-color="#a92700"/><stop offset="0.43" stop-color="#751b00"/><stop offset="0.56" stop-color="#4b1100"/><stop offset="0.68" stop-color="#2a0a00"/><stop offset="0.8" stop-color="#130400"/><stop offset="0.91" stop-color="#050100"/><stop offset="1"/></linearGradient><linearGradient id="Degradado_sin_nombre_138-2" x1="10765.12" y1="1055.7" x2="10765.12" y2="933.01" xlink:href="#Degradado_sin_nombre_138"/><linearGradient id="Áåçûìÿííûé_ãðàäèåíò_546" x1="1126.24" y1="280.42" x2="1126.24" y2="274.73" gradientUnits="userSpaceOnUse"><stop offset="0" stop-color="#ffa42c"/><stop offset="1" stop-color="#ff7c70"/></linearGradient><linearGradient id="Áåçûìÿííûé_ãðàäèåíò_541" x1="1400.02" y1="484" x2="1796.06" y2="-201.97" gradientUnits="userSpaceOnUse"><stop offset="0" stop-color="#e23356"/><stop offset="0.44" stop-color="#862d74"/><stop offset="0.8" stop-color="#5b3d8d"/><stop offset="1" stop-color="#451f6a"/></linearGradient><linearGradient id="Áåçûìÿííûé_ãðàäèåíò_546-2" x1="1013.54" y1="258.59" x2="1327.46" y2="258.59" xlink:href="#Áåçûìÿííûé_ãðàäèåíò_546"/><linearGradient id="Áåçûìÿííûé_ãðàäèåíò_413" x1="1242.81" y1="235.46" x2="1562.65" y2="235.46" gradientUnits="userSpaceOnUse"><stop offset="0" stop-color="#b01a65"/><stop offset="1" stop-color="#831f5e"/></linearGradient><linearGradient id="Áåçûìÿííûé_ãðàäèåíò_18" x1="1327.46" y1="273.58" x2="2146.56" y2="273.58" gradientUnits="userSpaceOnUse"><stop offset="0" stop-color="#7c2965"/><stop offset="1" stop-color="#601f5e"/></linearGradient><linearGradient id="Áåçûìÿííûé_ãðàäèåíò_299-14" x1="1327.46" y1="30.72" x2="1479.94" y2="30.72" xlink:href="#Áåçûìÿííûé_ãðàäèåíò_299"/><linearGradient id="Áåçûìÿííûé_ãðàäèåíò_546-3" x1="1119.69" y1="178" x2="1119.69" y2="-54.6" xlink:href="#Áåçûìÿííûé_ãðàäèåíò_546"/><linearGradient id="Áåçûìÿííûé_ãðàäèåíò_438" x1="1320.26" y1="161.25" x2="1320.26" y2="61.53" gradientUnits="userSpaceOnUse"><stop offset="0" stop-color="#e04263"/><stop offset="1" stop-color="#ae2970"/></linearGradient><linearGradient id="Áåçûìÿííûé_ãðàäèåíò_546-4" x1="949.48" y1="154.74" x2="1657.34" y2="154.74" xlink:href="#Áåçûìÿííûé_ãðàäèåíò_546"/><linearGradient id="Áåçûìÿííûé_ãðàäèåíò_441" x1="1191.6" y1="116.54" x2="1288.52" y2="116.54" gradientUnits="userSpaceOnUse"><stop offset="0.01" stop-color="#ff3b00"/><stop offset="0.27" stop-color="#b32900"/><stop offset="0.63" stop-color="#531300"/><stop offset="0.88" stop-color="#170500"/><stop offset="1"/></linearGradient><linearGradient id="Áåçûìÿííûé_ãðàäèåíò_261" x1="1508.96" y1="69.93" x2="1508.96" y2="-11.4" gradientUnits="userSpaceOnUse"><stop offset="0" stop-color="#ff8b2c"/><stop offset="1" stop-color="#ef6570"/></linearGradient><linearGradient id="Áåçûìÿííûé_ãðàäèåíò_261-2" x1="1521.06" y1="-21.63" x2="1521.06" y2="-69.53" xlink:href="#Áåçûìÿííûé_ãðàäèåíò_261"/><linearGradient id="Áåçûìÿííûé_ãðàäèåíò_445" x1="1533.21" y1="-79.08" x2="1533.21" y2="-103.39" gradientUnits="userSpaceOnUse"><stop offset="0" stop-color="#ce6d2c"/><stop offset="1" stop-color="#ef6570"/></linearGradient><linearGradient id="Áåçûìÿííûé_ãðàäèåíò_299-15" x1="1657.29" y1="1.87" x2="1657.29" y2="-135.91" xlink:href="#Áåçûìÿííûé_ãðàäèåíò_299"/><linearGradient id="Áåçûìÿííûé_ãðàäèåíò_299-16" x1="1644.5" y1="149.22" x2="1644.5" y2="147.12" xlink:href="#Áåçûìÿííûé_ãðàäèåíò_299"/><linearGradient id="Áåçûìÿííûé_ãðàäèåíò_299-17" x1="1851.52" y1="246.42" x2="1851.52" y2="-30.72" xlink:href="#Áåçûìÿííûé_ãðàäèåíò_299"/><linearGradient id="Áåçûìÿííûé_ãðàäèåíò_547" x1="1104.43" y1="250.05" x2="1104.43" y2="195.31" gradientUnits="userSpaceOnUse"><stop offset="0" stop-color="#ff7c70"/><stop offset="1" stop-color="#ffa42c"/></linearGradient><linearGradient id="Áåçûìÿííûé_ãðàäèåíò_547-2" x1="1195.86" y1="211.97" x2="1195.86" y2="194.46" xlink:href="#Áåçûìÿííûé_ãðàäèåíò_547"/><linearGradient id="Áåçûìÿííûé_ãðàäèåíò_573-3" x1="1615" y1="94.91" x2="1615" y2="1.91" xlink:href="#Áåçûìÿííûé_ãðàäèåíò_573"/><linearGradient id="Áåçûìÿííûé_ãðàäèåíò_562" x1="1526.57" y1="81.94" x2="1709.82" y2="81.94" gradientUnits="userSpaceOnUse"><stop offset="0.11" stop-color="#811a65"/><stop offset="1" stop-color="#511f5e"/></linearGradient><linearGradient id="Áåçûìÿííûé_ãðàäèåíò_572" x1="1262.5" y1="-31.7" x2="1422.5" y2="-31.7" gradientUnits="userSpaceOnUse"><stop offset="0.01" stop-color="#ff3b00"/><stop offset="0.02" stop-color="#f93a00"/><stop offset="0.13" stop-color="#bf2c00"/><stop offset="0.26" stop-color="#8c2000"/><stop offset="0.38" stop-color="#611600"/><stop offset="0.5" stop-color="#3e0e00"/><stop offset="0.62" stop-color="#230800"/><stop offset="0.74" stop-color="#0f0400"/><stop offset="0.87" stop-color="#040100"/><stop offset="1"/></linearGradient><linearGradient id="Áåçûìÿííûé_ãðàäèåíò_572-2" x1="1504.14" y1="-52.97" x2="1579.05" y2="-52.97" xlink:href="#Áåçûìÿííûé_ãðàäèåíò_572"/><linearGradient id="Degradado_sin_nombre_9" x1="7440.82" y1="620.84" x2="7525.3" y2="620.84" gradientTransform="matrix(-1, 0, 0, 1, 8047.4, 0)" gradientUnits="userSpaceOnUse"><stop offset="0" stop-color="#ffce00"/><stop offset="1" stop-color="#f5801f"/></linearGradient><radialGradient id="Degradado_sin_nombre_171" cx="1821.49" cy="72.32" r="14.63" gradientTransform="matrix(-0.17, -0.98, -0.98, 0.17, 842.68, 2279.55)" gradientUnits="userSpaceOnUse"><stop offset="0.06" stop-color="#f5531f"/><stop offset="0.33" stop-color="#f55a1f" stop-opacity="0.79"/><stop offset="1" stop-color="#f5801f" stop-opacity="0"/></radialGradient><radialGradient id="Degradado_sin_nombre_171-2" cx="1719.85" cy="73.06" r="14.63" gradientTransform="matrix(-0.96, -0.29, -0.29, 0.96, 2223.34, 915.85)" xlink:href="#Degradado_sin_nombre_171"/><linearGradient id="Degradado_sin_nombre_306" x1="8866.01" y1="-9248.71" x2="8875.91" y2="-9248.37" gradientTransform="translate(-5934.91 11740.21) rotate(-13.82)" gradientUnits="userSpaceOnUse"><stop offset="0" stop-color="#311352"/><stop offset="1" stop-color="#6b3e6a"/></linearGradient><linearGradient id="Degradado_sin_nombre_305" x1="6935.87" y1="305.67" x2="6898.11" y2="326.81" gradientTransform="matrix(0.33, -0.94, 0.94, 0.33, -2146.32, 7062.43)" gradientUnits="userSpaceOnUse"><stop offset="0.01" stop-color="#311352"/><stop offset="1" stop-color="#6b3e6a"/></linearGradient><linearGradient id="Degradado_sin_nombre_176" x1="2418.92" y1="620.54" x2="2518.18" y2="620.54" gradientTransform="matrix(-1, 0, 0, 1, 2887.05, 0)" gradientUnits="userSpaceOnUse"><stop offset="0.01" stop-color="#f5801f"/><stop offset="1" stop-color="#ffce00"/></linearGradient><linearGradient id="Degradado_sin_nombre_176-2" x1="17532.18" y1="654.64" x2="17590.89" y2="654.64" gradientTransform="matrix(-1, 0, 0, 1, 18017.64, 0)" xlink:href="#Degradado_sin_nombre_176"/><linearGradient id="Degradado_sin_nombre_12" x1="7504.65" y1="655.06" x2="7549.74" y2="655.06" gradientTransform="matrix(-1, 0, 0, 1, 8047.4, 0)" gradientUnits="userSpaceOnUse"><stop offset="0.12" stop-color="#ffce00"/><stop offset="1" stop-color="#f5801f"/></linearGradient><linearGradient id="Degradado_sin_nombre_138-3" x1="668.53" y1="880.14" x2="943.27" y2="880.14" gradientTransform="matrix(1, 0, 0, 1, 0, 0)" xlink:href="#Degradado_sin_nombre_138"/><linearGradient id="Degradado_sin_nombre_138-4" x1="647.4" y1="954.51" x2="936.05" y2="954.51" gradientTransform="matrix(1, 0, 0, 1, 0, 0)" xlink:href="#Degradado_sin_nombre_138"/><linearGradient id="Degradado_sin_nombre_138-5" x1="615.06" y1="973.61" x2="793.08" y2="973.61" gradientTransform="matrix(1, 0, 0, 1, 0, 0)" xlink:href="#Degradado_sin_nombre_138"/><linearGradient id="Degradado_sin_nombre_138-6" x1="99.83" y1="543.36" x2="327.11" y2="543.36" gradientTransform="matrix(1, 0, 0, 1, 0, 0)" xlink:href="#Degradado_sin_nombre_138"/><linearGradient id="Degradado_sin_nombre_138-7" x1="82.35" y1="604.89" x2="321.15" y2="604.89" gradientTransform="matrix(1, 0, 0, 1, 0, 0)" xlink:href="#Degradado_sin_nombre_138"/><linearGradient id="Degradado_sin_nombre_138-8" x1="55.59" y1="620.69" x2="202.87" y2="620.69" gradientTransform="matrix(1, 0, 0, 1, 0, 0)" xlink:href="#Degradado_sin_nombre_138"/><linearGradient id="Degradado_sin_nombre_257" x1="1258.14" y1="661.28" x2="1792.4" y2="661.28" gradientUnits="userSpaceOnUse"><stop offset="0.01" stop-color="#ff3b00"/><stop offset="0.38" stop-color="#932200"/><stop offset="0.68" stop-color="#441000"/><stop offset="0.9" stop-color="#130400"/><stop offset="1"/></linearGradient><linearGradient id="Degradado_sin_nombre_257-2" x1="846.63" y1="498.45" x2="1414.27" y2="498.45" xlink:href="#Degradado_sin_nombre_257"/></defs><g class="cls-2"><g id="Capa_2" data-name="Capa 2"><g id="_3.CAPITULO_3:_UN_CAMBIO_CON_PROPÓSICITO" data-name="3.CAPITULO 3: UN CAMBIO CON PROPÓSICITO"><g class="cls-3"><rect class="cls-4" x="247.69" y="99.86" width="1976.4" height="1165.79"/><path class="cls-5" d="M260.65,261.72l40.66-.44c-7.08-1.78-5.31-4.86-5.31-4.86-86.6-4-364.12-4.64-364.12-4.64l-222.16.39c14.64-16.06,56.72-19.42,56.72-19.42-5.57-5.26-8.61-16.48,1.69-20.69s18,0,18,0c4.46-26.72,36.81-37.65,54.2-41.63,6.57-1.5,11-2,11-2-1.78-9.45,1-11.64,1.38-11.88a0,0,0,0,1,0,0c-34,.22-35.43-29.07-29.76-32.69,5.46-3.5,13.57-1.44,14.14-1.31l0,0a30.61,30.61,0,0,1,2-9.33c4.08-10.53,14.28-17.73,30.59-17.2,20.33.66,38.42,16.46,39.19,17.14l0,0,3.27-2.33a42.51,42.51,0,0,1-6.1-23.45S-86.07,69.08-63,72.73c19.37,3.08,50.84,12.79,51.42,13.1,0-.14-.53-1.37-1-3.12C-14,77.23-15.2,66.51-2.71,66.85c16.8.44,15.47,25.63,15.47,25.63,4.86,14.59,0,30.93,0,30.93l2,.68,8.56,2.85s2.12-4.55,8.28-9.08,16.29-9,32.39-9c32.26,0,45.5,20.32,43.75,25.63s-7.09,8.84-7.09,8.84l.17,0,14.42,3.93c.6-9.19,2.91-13.7,4.27-15.61a7.46,7.46,0,0,1,1-1.19c1.17-.46,2.36-.89,3.53-1.27,25.93-8.84,52.61-3.59,52.61-3.59a29.32,29.32,0,0,1-1.78-2.78h0s0,0,0,0c-1.42-2.52-3.12-6.31-2.73-9.62a6.62,6.62,0,0,1,.55-2.14c2.67-5.74,13.27-10.24,13.27-10.24s-23.87-6.54-24.38-15.38c-.47-8.28,5-18.5,5.73-19.75a.63.63,0,0,1,.09-.13c-8-.43-7.52-8,0-11.94S186,63.75,186,63.75c11-4.42,27.38-2.64,30.91,6.64s0,25.62,0,25.62h8.85C241.66,107.5,254,141.08,254,141.08l-5.75,5.74h26.06A148.7,148.7,0,0,1,278,132.14v0c1.19-4,2.11-6.5,2.11-6.5.21-.17.42-.3.63-.45A1.43,1.43,0,0,1,281,125c20.43-14.33,38.91-10.89,38.91-10.89,10.6,4,19.88,23.87,19.88,23.87,15.91-2.65,15.46,0,15.46,0,10,16.34,8.8,35.92,8.48,39.59,0,.39-.07.62-.07.62-15.63,6.56-43.84,9.15-59,10.09-6.29.4-10.35.51-10.35.51v6.64l.13,0c1.12-.29,10-2.4,15.78.92,6.2,3.52,5.31,13.68,5.31,13.68l1.1.29,6,1.49a18.16,18.16,0,0,1,6.37-13.68,17.67,17.67,0,0,1,3.36-2.23.82.82,0,0,1,.23-.11,0,0,0,0,1,0,0,35.11,35.11,0,0,1,9.17-2.48h0c16-2.62,43.23-2,47.11,2.61,4.85,5.74,7.95,31.37,1.32,38s-18.56,13.27-18.56,13.27l8.39,4s4.42-8.84,11.06-11.92,16.78-1.78,23.41,2.21,11.05,25.19,11.05,25.19h10.61a12.16,12.16,0,0,1,9.27-9.73c8.41-2.21,11.49,4.42,11.49,4.42s10.6-24.3,23.87-29.61,24.75-5.31,37.55,0,29.06,29.74,29.06,29.74c31.82-.45,111,10.34,111,10.34l-466.28-5.16,23.21-4.7s1.81-5.81,17.4-5.81A75,75,0,0,1,260.65,261.72Z" transform="translate(290.29 171.11)"/><path class="cls-6" d="M192.06,266.58l324.45-2.44,141.82,7.6S393.44,271.88,192.06,266.58Z" transform="translate(290.29 171.11)"/><g class="cls-7"><path class="cls-8" d="M341,224.07c-6.65.08-12.13,5.16-18.49,7.11-3.55,1.09-7.33,1.16-11.06,1.23q-8.13.18-16.27.33a228.26,228.26,0,0,0,17.4-17.24,32.4,32.4,0,0,0,4-5.2l6,1.48a18.14,18.14,0,0,1,6.36-13.68c-3.09,3.79-2.39,11.56-.62,15.65A17.92,17.92,0,0,0,341,224.07Z" transform="translate(290.29 171.11)"/><path class="cls-9" d="M332.52,195.74a34.72,34.72,0,0,1,9.16-2.46l-.49.18C338.75,194.34,335.32,194.7,332.52,195.74Z" transform="translate(290.29 171.11)"/><path class="cls-10" d="M363.69,177.6c0,.39-.07.61-.07.61-22.1,9.27-69.38,10.6-69.38,10.6v6.63l.12,0c-1.67,2-2.19,5-.69,7.05a64.36,64.36,0,0,0-16-7.79l13.16-6.34a21.15,21.15,0,0,1,4-1.59,22.3,22.3,0,0,1,6.27-.24A164.88,164.88,0,0,0,363.69,177.6Z" transform="translate(290.29 171.11)"/><path class="cls-11" d="M292.16,154.7c-8.58-1.22-17.33-1.95-25.85-.48s-16.88,5.33-22.41,12-7.73,16.36-4.27,24.29a48.54,48.54,0,0,1-14.92-22.09c10-.81,18.67-9.83,19.1-19.87a37.65,37.65,0,0,0,13.3-1.72h17.24A148.26,148.26,0,0,1,278,132.14h0a25.48,25.48,0,0,0,2.42-5.25C278.81,137.32,283.41,148.67,292.16,154.7Z" transform="translate(290.29 171.11)"/><path class="cls-12" d="M281,125c-.16.62-.35,1.25-.55,1.86.08-.57.19-1.14.32-1.71a26.23,26.23,0,0,1,.73-2.63C281.34,123.38,281.18,124.21,281,125Z" transform="translate(290.29 171.11)"/><path class="cls-13" d="M195.09,107a54.83,54.83,0,0,0-12.87.79,19.21,19.21,0,0,0-10.05,5.38,6.64,6.64,0,0,1,.56-2.14C175.38,105.29,186,100.8,186,100.8s-23.86-6.55-24.36-15.39c-.48-8.29,5-18.51,5.73-19.75,2.32-.39,4.83,0,7-.9-5.61,2.21-8.88,8.63-8.38,14.63s4.3,11.42,9.21,14.9c5.65,4,14.23,5.34,19,.36A85.2,85.2,0,0,0,195.09,107Z" transform="translate(290.29 171.11)"/><path class="cls-14" d="M189.51,124.55a44,44,0,0,0-2.88,10.88c.49-3.75-11.27-12.88-14.28-14.1C176.65,124.58,184.27,124.86,189.51,124.55Z" transform="translate(290.29 171.11)"/><path class="cls-15" d="M218,245.43a12,12,0,0,1-4.42,2.5c-9.66,3.44-20.27,1.22-30.49.48-7.37-.53-14.77-.26-22.15-.26-34,0-67.66-5.54-101.17-11.1a110.84,110.84,0,0,0,28.26-7.52,25,25,0,0,0,7-4c4.08-3.55,5.75-9.09,6.9-14.38a133.53,133.53,0,0,0,2.58-16.94c.23-2.71.34-5.61-1-8a12.7,12.7,0,0,0-4.08-3.94,59.35,59.35,0,0,0-13.65-6.9c-1.83-.64-4.21-1-5.38.5a33.73,33.73,0,0,0,3.63-6.71c7.1,3.32,15.66,4.78,22.65,1.25s10.87-13.36,6.24-19.67c-2.92-4-8.09-5.5-12.87-6.78q.38-.33.75-.69l14.41,3.93c.61-9.19,2.92-13.71,4.29-15.62.21,12.32,3.26,23.69,13.53,31.74a36.44,36.44,0,0,0,35.62,4.89A40,40,0,0,0,170,195.88q-6.15-8.06-12.28-16.12a10.51,10.51,0,0,0-3.58-3.41,10.34,10.34,0,0,0-4.07-.72c-9.44-.38-19.59-.45-27.36,4.88-11.12,7.62-12.94,24.67-5.92,36.18s20.73,17.67,34.17,18.6a13.06,13.06,0,0,0,5-.35,13.22,13.22,0,0,0,5-3.48,51.56,51.56,0,0,0,10.36-14.92c1.17,4.15,2.55,8.61,6,11.21a17.18,17.18,0,0,0,4.21,2.13,54.44,54.44,0,0,0,37.84.15C220.77,235.25,221.91,241.65,218,245.43Z" transform="translate(290.29 171.11)"/><path class="cls-16" d="M47.52,151a105.39,105.39,0,0,1-31.63-12.93,5.8,5.8,0,0,1-2.2-2,5.69,5.69,0,0,1-.45-2.78,30.59,30.59,0,0,1,1.56-9.22l8.57,2.85s2.1-4.54,8.27-9.08c-.24.85-.49,1.71-.66,2.55a24.39,24.39,0,0,0,2.1,15.26C36.16,142.07,41.55,147.13,47.52,151Z" transform="translate(290.29 171.11)"/></g><path class="cls-17" d="M-274.86,242.2,179.79,240l-11.49-6s97.22-5.05,160-6c0,0,43.3,11.21,61.86,5.9,0,0-9.72,8.84-18.56,13.26L296,256.42s-516-6.68-586.3-4.25Z" transform="translate(290.29 171.11)"/><path class="cls-18" d="M280.74,125.17s13.95-7.63,30.29-6.67c0,0,10.86,9.33,9.63,24.35l19.1-4.85s-5.94-20.62-19.1-27.1C320.66,110.9,307.45,109.24,280.74,125.17Z" transform="translate(290.29 171.11)"/><path class="cls-19" d="M347.7,137s16.06,17.93,16,40.64c0,0,9.71-16.9-8-42.17Z" transform="translate(290.29 171.11)"/><path class="cls-20" d="M325.15,202.46s34.05-2.4,62.33,13c0,0,9.12,6.89,2.65,18.46,0,0,14-16,2.32-39.37C392.45,194.51,332.63,180.77,325.15,202.46Z" transform="translate(290.29 171.11)"/><path class="cls-21" d="M456.85,261.28a58.14,58.14,0,0,1,21.22-22c14.58-8.5,60.3,12.07,69.26,22.13,0,0-14.47-27-27.29-33.44s-36.67-.28-45.51,7.67S456.85,261.28,456.85,261.28Z" transform="translate(290.29 171.11)"/><path class="cls-22" d="M167.35,65.66s-2.11-4.77,4.27-7.21S186,63.76,186,63.76l-5,3.75s16.73-6.29,30,0,3.33,28.84,3.33,28.84l-9.61,4.45s4.15-4.1,20.06,4.32,29.32,36,29.32,36S247.52,108,225.75,96h-8.84s8-22.08-2.32-31.25-25.08-2.15-25.08-2.15-6.71-10.09-17.16-9.72-12.77,6-13.1,9.65S167.35,65.66,167.35,65.66Z" transform="translate(290.29 171.11)"/><path class="cls-23" d="M51.24,109.91s37.86,7,54,29c0,0,5.14-4.26,5.14-10.55C110.42,128.38,99.88,103,51.24,109.91Z" transform="translate(290.29 171.11)"/><path class="cls-24" d="M334.08,112.55c3.68,1,8.45.29,10-3.2,1.27-2.88-.29-6.18-2-8.79a17.26,17.26,0,0,0-4.24-4.72,7.39,7.39,0,0,0-6-1.29C322.46,97.13,326.7,110.6,334.08,112.55Z" transform="translate(290.29 171.11)"/><path class="cls-25" d="M319.87,105.46a1.8,1.8,0,0,1-1.88-2.3,2.3,2.3,0,0,1,3-1.19,3.21,3.21,0,0,1,1.81,2.9,1.55,1.55,0,0,1-2.8.36Z" transform="translate(290.29 171.11)"/><path class="cls-26" d="M398.8,180.1a15.43,15.43,0,0,0,.54,8,3,3,0,0,0,.74,1.32c.81.73,2.06.54,3.1.21,4.79-1.52,9.05-5.36,10-10.29a6.87,6.87,0,0,0-.4-4.3c-1.37-2.72-5.18-3.5-8-2.3s-4.73,3.84-6.11,6.56Z" transform="translate(290.29 171.11)"/><path class="cls-27" d="M188,48.39a5.18,5.18,0,0,0,5.38,1.76c.25-2.25-.47-4.77-2.39-6s-5-.29-5.42,1.93l1.89,2.17Z" transform="translate(290.29 171.11)"/><path class="cls-28" d="M363.69,177.6c0,.39-.07.61-.07.61-15.63,6.56-43.84,9.14-59,10.08l-34.45-9.79c-8.73-2.48-17.58-5-25.28-9.8-8.83-5.47-15.74-13.64-24.49-19.23a51.88,51.88,0,0,0-41.54-6.13,63.08,63.08,0,0,0-41.25-14c-5.1.12-9.78.48-13.48-.12,25.92-8.84,52.6-3.59,52.6-3.59a29.25,29.25,0,0,1-1.76-2.77v0s0,0,0,0c-1.42-2.52-3.11-6.31-2.73-9.62a6.64,6.64,0,0,1,.56-2.14C175.38,105.29,186,100.8,186,100.8s-23.86-6.55-24.36-15.39c-.48-8.29,5-18.51,5.73-19.75l.07-.13c-7.95-.44-7.51-8,0-11.94S186,63.76,186,63.76c11.05-4.43,27.39-2.65,30.93,6.63s0,25.62,0,25.62h8.84c15.91,11.5,28.28,45.08,28.28,45.08l-5.74,5.74h26.06A148.26,148.26,0,0,1,278,132.14h0c1.19-4,2.11-6.51,2.11-6.51q.31-.24.63-.45A1.14,1.14,0,0,1,281,125c20.41-14.33,38.9-10.88,38.9-10.88,10.61,4,19.89,23.86,19.89,23.86,15.91-2.65,15.46,0,15.46,0C365.2,154.34,364,173.92,363.69,177.6Z" transform="translate(290.29 171.11)"/><path class="cls-29" d="M287.83,156.51c13.22-5.42,55.07-24.3,67.86-21.08,0,0,15.69,16.31,7.93,42.78,0,0-39.12,12.59-69.38,10.6Z" transform="translate(290.29 171.11)"/><path class="cls-30" d="M189.51,124.55S188.2,108,225.75,96c0,0,23.64,24.58,28.28,45.08,0,0-10.92,18.87-29.32,27.33C224.71,168.42,184.81,154.44,189.51,124.55Z" transform="translate(290.29 171.11)"/><path class="cls-31" d="M-2.71,66.85A26.3,26.3,0,0,1,12.76,92.48S16,67.66-2.71,66.85Z" transform="translate(290.29 171.11)"/><path class="cls-32" d="M-93.83,87.4s7.36-10.34,29.29-10.34,53,8.77,53,8.77S-52.2,67.52-72.73,71.66-93.83,87.4-93.83,87.4Z" transform="translate(290.29 171.11)"/><path class="cls-33" d="M-133.27,141c-2.51-1.36-22.75-12.38-29.54-18.41a30.61,30.61,0,0,1,2-9.33C-154.47,124.19-144.76,134.65-133.27,141Z" transform="translate(290.29 171.11)"/><path class="cls-34" d="M-108,187.49c-12.7-3.42-28.7-8.35-47-15.29l-4.67-1.77c6.57-1.5,11-2,11-2-1.78-9.45,1-11.64,1.38-11.88a0,0,0,0,1,0,0S-138,176.19-108,187.49Z" transform="translate(290.29 171.11)"/><path class="cls-35" d="M-46.89,110.84s-25.57,22.45-25.87,45.68L-91,113.17l3.27-2.33a42.51,42.51,0,0,1-6.1-23.45s7.54,24.66,30.85,30.47Z" transform="translate(290.29 171.11)"/><path class="cls-36" d="M-191.37,182.59s-8.69,28,12,38.72,63-5.89,63-5.89,15,21.22,69.47,26.78H-200.73s-10.89-6-13.1-30.14C-213.83,212.06-211.11,191.43-191.37,182.59Z" transform="translate(290.29 171.11)"/><path class="cls-37" d="M1183,1018.42c-1.48.18-3.11.32-4.67.43s-3.16.22-4.75.29q-4.75.18-9.5,0c-3.16-.08-6.32-.27-9.45-.61s-6.23-.75-9.3-1.34c-12.25-2.3-24-7-33.21-14.85a54.47,54.47,0,0,1-11.46-13.9,63.61,63.61,0,0,1-3.94-8.24,81.19,81.19,0,0,1-2.8-8.8c-3-12.06-3.37-24.88-2.52-37.63a2.5,2.5,0,0,0-5-.56c-2,13-2.43,26.53.36,39.84a77.89,77.89,0,0,0,2.78,9.84,72.06,72.06,0,0,0,4.26,9.4,59.86,59.86,0,0,0,13,16.14,65.17,65.17,0,0,0,17.61,10.75,84.25,84.25,0,0,0,19.6,5.37,109.39,109.39,0,0,0,20,1.16c3.33-.12,6.65-.39,10-.76,1.65-.19,3.3-.41,4.94-.67s3.25-.58,5-1a2.5,2.5,0,0,0-.87-4.92Z" transform="translate(290.29 171.11)"/><path class="cls-38" d="M1249,1039.52c-11.1,2.22-22.46,4-33.8,5.26-5.67.66-11.34,1.21-17,1.6s-11.37.7-17,.88a282.89,282.89,0,0,1-34-1.06L1145,1046l-2.1-.25-4.2-.5c-2.8-.38-5.57-.85-8.35-1.29l-4.13-.82c-1.37-.28-2.76-.53-4.11-.89-2.71-.69-5.46-1.28-8.11-2.12l-4-1.18c-1.32-.45-2.62-.93-3.94-1.39-2.65-.86-5.17-2-7.73-3.07-1.29-.51-2.52-1.15-3.75-1.77l-3.7-1.86-3.55-2.1a39.18,39.18,0,0,1-3.49-2.18,72.12,72.12,0,0,1-6.59-4.9l-1.57-1.31-.79-.65-.4-.33-.19-.15-.12-.12c-.86-.84-1.78-1.86-2.64-2.87a71.1,71.1,0,0,1-9-13.6,74.47,74.47,0,0,1-8-31.66,82.33,82.33,0,0,1,1.17-16.56,110.63,110.63,0,0,1,4.16-16.27v0a2.5,2.5,0,0,0-4.69-1.75,94.52,94.52,0,0,0-7.37,34.67,79.23,79.23,0,0,0,7.72,35,76.08,76.08,0,0,0,9.69,15.38c1,1.19,2,2.33,3.16,3.51l.27.26.22.19.43.37.86.74L1072,1028a79.49,79.49,0,0,0,7.19,5.5c1.2.93,2.52,1.65,3.79,2.45s2.57,1.56,3.87,2.32l4,2c1.33.68,2.66,1.37,4.05,1.93,2.74,1.17,5.47,2.4,8.29,3.34,1.4.5,2.8,1,4.2,1.5l4.26,1.28a177.62,177.62,0,0,0,34.75,6.22,271.53,271.53,0,0,0,35,.49,336.49,336.49,0,0,0,68.82-10.73,2.5,2.5,0,0,0-1.13-4.87Z" transform="translate(290.29 171.11)"/><path class="cls-39" d="M1145.28,280.42H1107.2a41.2,41.2,0,0,1,19.55-5.66C1138.59,274.25,1145.28,280.42,1145.28,280.42Z" transform="translate(290.29 171.11)"/><path class="cls-40" d="M1829.3,282l-684-1.58c40.66-8.24,169.32-3.61,169.32-3.61s11.31-10.81,38.09-13.9,55,1,55,1l8.25-7.21c8.87-6.18,40.4-7.43,55.54-7.66-30.22.15-133.51.53-141-2.11-8.74-3.09-8.23-9.78-8.23-9.78-8.23,3.09-19,6.18-19,6.18s28.3,15.95,24.18,19-41.16,0-129.16,1.55-184.76-3.09-184.76-3.09,5.14-13.39,15.44-14.93,23.15,4.12,23.15,4.12l1.55-4.63c1.54-4.63,27.28-42.19,40.14-46.82s42.72-1.55,48.37,2.56A63.14,63.14,0,0,1,1153,212c8.24-10.81,21.61,0,21.61,0s-1-13.9,8.25-15.95,30.35,3.59,30.35,3.59c-11.83-7.19-13.37-17.49-13.37-17.49-13.39,2-59.19,4.63-59.19,4.63-14.92,1-57.64.51-57.64.51-14.4,6.7-43.23-8.23-43.23-8.23s-17.13-2.74-33.45-.51c-7.11,1-57.1,3.6-56.85-.52.73-12.35,16.71-21.62,49.65-29.84,8.79-2.21,30.36,13.64,31.36,14.37a38.57,38.57,0,0,1-3.24-4.25c-3.38-5-8-13.81-6.75-23.26a23.16,23.16,0,0,1,2.81-8.48c9.79-17.49,42.21-24.7,57.65-25.74s32.93,10.81,32.93,10.81a14.83,14.83,0,0,1,0-16.46c5.67-8.75,16.47-13.89,25.21-10.29s8.25,17,8.25,17h13.37c2.07-23.16,23.68-32.93,23.68-32.93V61.7s-15.44,4.12-24.19-1-15.44-23.16,0-42.19,60.72-32.42,72-28.83S1246.67,8.7,1246.67,8.7l18,3.08s-.44-2-1-5.26c-1.57-9.33-4-28.81,1-39.51,6.69-14.42,25.21-21.61,25.21-21.61s-7.21-4.64-6.17-12.88,6.68-12.86,17-13.9a60.27,60.27,0,0,1,19.56,1.55l10.29-4.79s-4.64-14.76,0-23.51,20.07-21.11,36-18,24.7,27.28,24.7,27.28a92.87,92.87,0,0,1,60.46,21.69c13.57,11.43,22.91,26.05,27,40.58,8.75,30.88-.51,63.82-7.72,71.54s-39.62,13.37-39.62,13.37l-4.63,11.33s13.9-3.61,22.64-1,13.89,20.07,13.89,20.07a23.26,23.26,0,0,1,12.88-16.47A28.84,28.84,0,0,1,1506,69.93l-1-17c-11.83,4.64-17,0-17,0-9.26-16.45-5.14-46.31,8.76-56.09s41.68-6.17,41.68-6.17a30,30,0,0,0,3.6-19.56c-7.72,8.24-35.51,11.33-40.65-6.18s10.81-34.47,10.81-34.47-11.85-13.9,3.59-25.22,45.3-6.7,45.3-6.7l11.83-20.07s-5.65-12.86,0-20.07,20.07-7.72,20.07-7.72c18-14.4,68.46-30.35,82.86-16.46,5.42,5.22,9,16.91,10.76,29.86,2.92,21.53.74,46.57-6.64,51.29-11.84,7.58-26.77,10.45-26.77,10.45l4.12,25.74c3.55-8.61,9.7-16,16.75-21.78,14.44-11.89,32.61-17.42,39.9-14.41,9.85,4.08,6.88,17.83,6.25,20.35.6-1.76,3.8-8.86,16.88-8.78,14.91.09,19,13.29,19,13.29s19.56-18.53,44.27-11.83c17.7,4.79,19.8,26.51,19.56,38.43v0c-.08,4.67,9.32,7.85,9.32,7.85s2.14-15.59,35.36-16.67S1903-7.61,1903-7.61s-12.47-48.85,0-71.47,52.55-22.15,56.35-12.48c0,0,20.76-10.4,28.78,2.2,0,0,12.15,51.24-15.58,70.44,0,0,25.09-18.34,44.53-9.11s20.7,71.45,1.36,93-45.89,18.44-45.89,18.44l-6.89,15.71s29.45-17.37,66.66-10.6,44,47.82,44,47.82,4.57-6,23.64-2.06c0,0,5.86-55.69,46.57-85.85v232Z" transform="translate(290.29 171.11)"/><path class="cls-41" d="M1013.54,260.86s47.29-10.29,83.34-11.32,75.68,11.32,75.68,11.32,135.86-2.57,154.9,1.54c0,0-52,5.43-159.28,5.29S1013.54,260.86,1013.54,260.86Z" transform="translate(290.29 171.11)"/><path class="cls-42" d="M1303.28,243.36h-60.47s67.67-11.32,76.93-11.83l-4.63-5.66s52.49-10.3,98.3,0l-4.63,6.46,153.87,11-94.18,6.12S1363,250.57,1330.55,247c0,0-5.66-4.12-8.23-9.78Z" transform="translate(290.29 171.11)"/><path class="cls-43" d="M1327.46,280.42s106.53-15.16,252.69-12.73l-17.5,6.23h100.87l-16.47-6.23,499.51-.95v13.68Z" transform="translate(290.29 171.11)"/><path class="cls-44" d="M1431.42,48.31s-37.57,2.34-104-8.35c0,0,75.4-33.79,152.21-25.84C1479.67,14.12,1486.5,39.56,1431.42,48.31Z" transform="translate(290.29 171.11)"/><path class="cls-45" d="M949.48,178s4.88-25.73,49.65-29.84c0,0,16.4-3.68,31.36,14.37,0,0-16.45-13.34-7.18-36s25.74-24.7,36-27.79L1051.62,91s-4.63-7.72,7.72-17c0,0,7.72,1,7.2,11.32l-5.72,18.81s15.91-8.54,31.46-6.46a29.1,29.1,0,0,1,21.61,13.89S1102.57,93.44,1126.24,85s21.11,16.81,21.11,16.81h13.37s-3.59-20.58,23.68-32.93V61.7s-38.61,14.41-39.12-20.07,65.88-59.19,86.46-56.1S1246.67,8.7,1246.67,8.7l18,3.08s-23.16-54,25.21-66.38c0,0-42.71,7.71-19,72l-24.18-4.53s1.7-31.42-32.87-22S1146,33,1160.5,48.53s29.56,6.13,29.56,6.13L1187,73.53s-24.45,2.83-23.93,29.85l10.55,2.58-35,4.63,6.44-6.44s.29-23.14-18-16-7.32,25.73-7.32,25.73l-9.66,2.83s-21-17.81-53.26-5.4-35,36.67-22.39,53.07l-26.5,3.28s9.52-11.79-17.76-13S949.48,178,949.48,178Z" transform="translate(290.29 171.11)"/><path class="cls-46" d="M1191.6,159s22.13-60.74,73.59-80.3,89.55,20.42,89.55,20.42,12.38-33.41,49-37.4,45.22,64.84,45.22,64.84l-75.65,14.93-35,19.78Z" transform="translate(290.29 171.11)"/><path class="cls-47" d="M949.48,178s64.83-19,111.92-12.09v5.29H1205s-14.41-4.48-13.38-12.22,119.57-19.24,170.52-16.15l-.43-11s47.86-20.72,87.23-5.28l-11.71,8.85s75,21.51,220.13,12.25c0,0-312.7,28.56-457.51,34.48,0,0-104.06,9.89-137.46,5.33,0,0-3.78,5.53-22.59-8.42Z" transform="translate(290.29 171.11)"/><path class="cls-48" d="M1191.6,159s26.41-72,91.17-84.89c0,0,12.93,3.29,0,70.69Z" transform="translate(290.29 171.11)"/><path class="cls-49" d="M1032.27,83.1q-4.32-4-8.42-8.28a3.76,3.76,0,0,1-1.09-1.63c-.37-1.53,1.17-2.81,2.59-3.47,3.73-1.75,8.28-2.2,11.91-.25s5.79,6.72,4,10.45-7.74,4.81-10.12,1.44Z" transform="translate(290.29 171.11)"/><path class="cls-49" d="M1039.6,90.38c-.23-.5-1.11,0-1,.54s.75.79,1.3.84a4.27,4.27,0,0,0,4.48-3.64,5.72,5.72,0,0,0-4.33-.58c-1.39.53-2.21,2.55-1.13,3.58Z" transform="translate(290.29 171.11)"/><path class="cls-50" d="M1506,69.93s.77-3.69,8.49-21.4L1505,52.94s-18.53-21.35-12.61-42.19,46.06-20.07,46.06-20.07S1505.53-18.59,1488,2s-3.6,48.7,1.54,52.66,15.54,0,15.54,0Z" transform="translate(290.29 171.11)"/><path class="cls-51" d="M1542.06-28.88s-20.32,8-29.33-4.63-.51-36-.51-36-17,15.68-10.81,34.47S1532-20.14,1542.06-28.88Z" transform="translate(290.29 171.11)"/><path class="cls-52" d="M1508-79.08s17.3-27.16,50.37-22.7C1558.4-101.78,1507.33-112.38,1508-79.08Z" transform="translate(290.29 171.11)"/><path class="cls-53" d="M1680-84.62c-11.84,7.58-26.77,10.45-26.77,10.45l4.12,25.74c3.55-8.61,9.7-16,16.75-21.78-17,19.68-26.47,46-24.79,72.08a135.92,135.92,0,0,0-22.6-20.66c9.12,2.58,18.68-4.77,21.87-13.68s1.66-18.75-.21-28c-2.9-14.51-6.67-29.27-15.32-41.29,12.71,8.14,30.57,3.25,41.15-7.52,6.74-6.87,9.21-17.43,12.44-26.6C1689.55-114.38,1687.37-89.34,1680-84.62Z" transform="translate(290.29 171.11)"/><path class="cls-54" d="M1632.9,149.22a203.24,203.24,0,0,1,23.19-2.1C1648.39,148.05,1640.62,148.65,1632.9,149.22Z" transform="translate(290.29 171.11)"/><path class="cls-55" d="M1819.5,244.22a276.67,276.67,0,0,0-32.44,1.17c-13.32-15.39-33.67-23.91-54-24.58s-40.54,6.05-57.62,17.14c-4.23,2.75-8.37,5.79-13.2,7.26-4.2,1.26-8.66,1.23-13,1.2q-46.37-.47-92.7-3.09l39.31-5.26c1.67-6-5.61-10.66-11.77-11.06s-12.9,1.1-18.18-2.13l52.29-10.54a33.72,33.72,0,0,0-14.72,18.12l44.78,5.79a43.67,43.67,0,0,0,10.7.5c4.84-.57,9.32-2.74,13.71-4.88q10.61-5.15,21.19-10.32c5.61-2.73,11.61-5.83,14.32-11.45,2.34-4.88,1.68-10.61,1-16-1.48-11.14-3.18-22.8-9.83-31.86-7.07-9.6-18.88-14.82-30.69-16.46a79.7,79.7,0,0,0-12.45-.68c11.63-1.42,23.11-3.61,34.05-7.78,18.15-6.92,34.89-20.1,41.37-38.43-.92,12-.28,27,10.59,32.3,5.1,2.47,11.13,1.9,16.63.57,19.16-4.58,36.53-18.69,42-37.61s-3.25-41.81-21.23-49.83a13.88,13.88,0,0,0-7-1.5c-3,.34-5.62,2.25-7.93,4.21-7,5.92-13,12.86-19.07,19.78a63.34,63.34,0,0,0,13.25-43.66c8.94,7.24,22.8,5.19,32-1.73s14.75-17.55,19.62-28c4.14-8.83,9.08-20.72,9.08-20.72l1.32-5.45,8.53,5.46s-9.7,39.28-2.48,58.45,60,2.36,70.5-12.89S1902-12.21,1902-12.21s51.44,3.52,74-9.42c0,0-29.79,21-35.24,30.73s25,67.33,77.71,55.85c0,0-5.87,15.9-45.89,18.44l-6.89,15.71s-20.34,19.18-35.54,62.15c0,0,57.85,5.66,146.22-24.93l2.12-1.53s-9.09,9.45-12.87,29.81L2100,159V134.26s22.36,40.48,46.57,54.39v39.22s-68.22-38.28-159-39.22-100,37.57-100,37.57,7.87-56-36-52.27C1803.79,178,1819.5,244.22,1819.5,244.22Z" transform="translate(290.29 171.11)"/><path class="cls-56" d="M1052.13,250.05s14.29-31.26,37.06-37.82,56.09-3.86,56.09-3.86l11.45,8.54a56.81,56.81,0,0,0-14.54-15.75c-9-6.3-34.08-9-52.22-.5S1052.13,250.05,1052.13,250.05Z" transform="translate(290.29 171.11)"/><path class="cls-57" d="M1174.61,212s-.19-7,5.16-9.39c16.09-7.27,39.11-1.55,39.11-1.55s-20.32-10.42-36-5S1174.61,212,1174.61,212Z" transform="translate(290.29 171.11)"/><path class="cls-58" d="M1533.21,48.53c9.42-11.74,28.45-15.54,45.78-.59,16.68-19.69,43.39-51,68.58-45.37s46.52,26,53.27,50.89c9.18.52,13.26,13.25,9,21.38s-13.32,12.4-21.8,16c-28.3,11.94-78.59-6.43-109-2.32C1534.17,94.55,1496.71,94,1533.21,48.53Z" transform="translate(290.29 171.11)"/><path class="cls-59" d="M1526.57,89.55s91.08-18.82,183.25-14.71C1709.82,74.84,1688,90.82,1526.57,89.55Z" transform="translate(290.29 171.11)"/><path class="cls-60" d="M1270.85,17.44s56.61,37.22,141.74-2.75c0,0,22.94-86.86-1-111.28,0,0-48.75,5.44-97.32,27.06S1251.5-35.45,1270.85,17.44Z" transform="translate(290.29 171.11)"/><path class="cls-61" d="M1512.22-69.53s13.46-17.42,49.44-8.71c0,0,18.25-1.15,17.36,33.06,0,0-36.36,22.52-59.82,19.67C1519.2-25.51,1490.6-37.63,1512.22-69.53Z" transform="translate(290.29 171.11)"/><path class="cls-62" d="M558.08,491.73c36.14-38.2,134-81,176.66-38C818.13,537.61,614.2,639.85,542,641c-69.46,1.09-51.13-78.17,16.06-149.25Z" transform="translate(290.29 171.11)"/><path class="cls-63" d="M714.17,476.45c-2.08-8.41-35.4,4.72-33.08,11.64,2.44,7.18,35-3.61,33.08-11.64ZM599.64,503c-.76-3.29-7.06-.8-6.17,1.93s7,1.25,6.17-1.93Zm90.26,18.47c-.82-3.29-7.11-.74-6.17,1.93.89,2.85,7,1.24,6.17-1.93Zm-56.37-27.86c-.82-3.29-7.12-.8-6.22,1.94s7,1.18,6.22-1.94Zm84,37.11c-.82-3.29-7.12-.8-6.23,1.94s7,1.24,6.23-1.94Zm-51.93,8.16c-1.64-6.57-14.23-1.53-12.4,3.88,1.85,5.63,13.9,2.43,12.4-3.88Zm-13.69-22.6c-.13-8.64-35.49-3.37-34.86,3.87.72,7.56,35,4.45,34.86-3.87Zm-3.5-45c-2.07-8.35-35.33,4.78-33.08,11.64,2.45,7.23,35-3.55,33.08-11.64Zm64.33-13.73c-1.64-6.63-16.79-.49-15,4.92,1.91,5.68,16.52,1.38,15-4.92Zm25.62,20.72c-1.58-6.58-16.73-.44-14.9,5,1.84,5.63,16.46,1.39,14.9-5ZM716.7,496.71c-1.58-6.58-16.73-.44-14.9,5,1.85,5.63,16.47,1.39,14.9-5ZM666,487.16c-2.08-8.36-21.34-.58-19,6.33,2.38,7.19,21,1.75,19-6.33Zm25.85,16.71c-2.08-8.36-27.8,1.92-25.55,8.79,2.44,7.18,27.5-.71,25.55-8.79Zm-4.58-44c-2.08-8.41-27.8,1.87-25.54,8.79,2.44,7.18,27.49-.76,25.54-8.79Z" transform="translate(290.29 171.11)"/><path class="cls-64" d="M524.78,576.75c1.37.87,2.83,1.83,4.24,2.78s2.83,1.91,4.24,2.89q4.23,2.91,8.36,6c5.51,4,10.9,8.24,16.09,12.59a197.75,197.75,0,0,1,14.74,13.61c2.29,2.37,4.45,4.79,6.44,7.26a60.48,60.48,0,0,1,5.24,7.47,25.46,25.46,0,0,1,3,7.05c0,.25.11.51.14.75l0,.35c0,.11,0,.25,0,.25a1.6,1.6,0,0,1-.09.41,2.81,2.81,0,0,1-.5.9l-.54.8c-.2.3-.39.58-.58.84-.39.54-.77,1-1.17,1.49a20.52,20.52,0,0,1-2.51,2.51,23.56,23.56,0,0,1-6.15,3.72,46,46,0,0,1-16.29,3.11,91.08,91.08,0,0,1-9.16-.21c-3.11-.22-6.26-.61-9.42-1.06l-.1,0a12.53,12.53,0,0,0-3.54,24.8c.34,0,.7.09,1,.11,3.77.22,7.55.37,11.4.32a110.81,110.81,0,0,0,11.69-.73,79.4,79.4,0,0,0,12-2.29,57.49,57.49,0,0,0,12-4.71,44.77,44.77,0,0,0,10.93-8.11,42.28,42.28,0,0,0,4.39-5.3c.65-.93,1.26-1.87,1.81-2.8.28-.46.54-.92.79-1.37l.37-.67.41-.78a21.86,21.86,0,0,0,2.53-9,20.29,20.29,0,0,0-.27-4.79c-.07-.44-.14-.72-.21-1l-.21-.93c-.15-.62-.34-1.18-.51-1.78a37.92,37.92,0,0,0-2.71-6.32,50.41,50.41,0,0,0-3.31-5.38,79.39,79.39,0,0,0-7.48-9c-2.62-2.74-5.32-5.3-8.08-7.73A209.53,209.53,0,0,0,566.7,589.3c-5.83-4.14-11.78-8-17.81-11.74-3-1.86-6-3.67-9.12-5.44-1.53-.89-3.07-1.76-4.61-2.63s-3.08-1.7-4.72-2.57a5.67,5.67,0,0,0-5.74,9.77Z" transform="translate(290.29 171.11)"/><path class="cls-62" d="M433.86,491.73c-36.14-38.2-134-81-176.65-38C173.81,537.61,377.75,639.85,449.93,641c69.46,1.09,51.12-78.17-16.07-149.25Z" transform="translate(290.29 171.11)"/><path class="cls-63" d="M281.88,421.67c37.43-24.79,82,.72,87.17,12.37-8.55-2.08-23.58-10.7-42.83-13.74-13.47-2.15-29.63.45-44.34,1.37Zm20.62-21.81c19.68-13,43.1.39,45.84,6.52-4.47-1.08-12.39-5.62-22.54-7.22-7.08-1.12-15.57.24-23.3.7Z" transform="translate(290.29 171.11)"/><path class="cls-63" d="M710.06,421.67c-14.7-.92-30.86-3.52-44.34-1.37-19.25,3-34.27,11.66-42.83,13.74,5.16-11.65,49.74-37.16,87.17-12.37Zm-20.61-21.81c-7.73-.46-16.22-1.82-23.31-.7-10.15,1.6-18.07,6.14-22.54,7.22,2.75-6.13,26.17-19.56,45.85-6.52Z" transform="translate(290.29 171.11)"/><path class="cls-65" d="M347.76,726s-23,20-56.58,19.22c0,0,11.77,30.07,78.43,17.78C369.61,763,383.05,739.47,347.76,726Z" transform="translate(290.29 171.11)"/><path class="cls-66" d="M412.14,734.37c-33.53-28.21-39.87-74-15.95-105.71.47-.18.93-.36,1.41-.53,3.15-1.13,6.23-2.08,9.2-2.88-11.9,28.76-3.13,64,24.39,87.18,28.88,24.3,69.26,27.63,98.44,10.46.75-.45,1.49-.9,2.22-1.37q-1.38,3.78-3.11,7.39a87.8,87.8,0,0,1-5,9C493.24,763.15,445.25,762.24,412.14,734.37Z" transform="translate(290.29 171.11)"/><path class="cls-66" d="M441.27,704.21c-26.13-22-32.4-56.79-16.55-82.43A94.63,94.63,0,0,1,437,621a106,106,0,0,0,19.56-.2,93,93,0,0,0,16.5-3.22,84.24,84.24,0,0,0,8.63-3.05c7.22-3,30.9,15.8,35.79,21.67,14.94,17.91,18.65,40.85,19.25,48a92.26,92.26,0,0,1,.31,9.64,87.56,87.56,0,0,1-.91,11,61,61,0,0,1-6.24,5.16C504.81,728,467.47,726.26,441.27,704.21Z" transform="translate(290.29 171.11)"/><path class="cls-65" d="M401.69,742.46c-31.73-26.7-42.1-67.21-29.13-100.88a95.16,95.16,0,0,1,23.63-12.92c-23.92,31.69-17.58,77.5,15.95,105.71,33.11,27.87,81.1,28.78,111.61,3.55a95.54,95.54,0,0,1-21.6,23.73C469.82,773.15,430.73,766.9,401.69,742.46Z" transform="translate(290.29 171.11)"/><path class="cls-65" d="M431.19,712.43C403.67,689.26,394.9,654,406.8,625.25a127,127,0,0,1,17.92-3.47c-15.85,25.64-9.58,60.44,16.55,82.43S504.81,728,529.85,710a61,61,0,0,0,6.24-5.16,84.82,84.82,0,0,1-4.24,16.7c-.73.47-1.47.92-2.22,1.37C500.45,740.06,460.07,736.73,431.19,712.43Z" transform="translate(290.29 171.11)"/><path class="cls-66" d="M348.43,668.86a88.83,88.83,0,0,1,24.13-27.28c-13,33.67-2.6,74.18,29.13,100.88,29,24.44,68.13,30.69,100.46,19.19A113.81,113.81,0,0,1,470,779.25l-1.7.6a120.64,120.64,0,0,1-16.5,4.35c-23-.86-47.37-9.89-67.61-26.92C355,732.72,342.28,698.2,348.43,668.86Z" transform="translate(290.29 171.11)"/><path class="cls-65" d="M340.55,688a83.18,83.18,0,0,1,7.88-19.12c-6.15,29.34,6.58,63.86,35.76,88.42,20.24,17,44.57,26.06,67.61,26.92a109.09,109.09,0,0,1-51.18-2.49A132,132,0,0,1,375.48,765c-18.79-15.81-31.49-35.32-37.61-55.33A73.53,73.53,0,0,1,340.55,688Z" transform="translate(290.29 171.11)"/><path class="cls-66" d="M375.48,765a132,132,0,0,0,25.14,16.68c-14.29-4.21-22.65-9.93-22.65-9.93-29.83-19.94-39.46-42.26-40.1-62.08C344,729.71,356.69,749.22,375.48,765Z" transform="translate(290.29 171.11)"/><ellipse class="cls-65" cx="490.52" cy="620.23" rx="70.68" ry="51.53" transform="translate(102.03 1196.98) rotate(-82.52)"/><path class="cls-67" d="M487.74,540.75l-1.47,6.74-1.5,6.72q-.75,3.36-1.53,6.68c-.26,1.11-.53,2.2-.79,3.29l-.4,1.61-.41,1.57a14.7,14.7,0,1,0,28.85,2.3l0-.27-.19-1.84-.2-1.8c-.14-1.19-.28-2.37-.42-3.53-.29-2.34-.6-4.66-.91-7l-.94-6.93-1-6.92a9.7,9.7,0,0,0-19.07-.73Z" transform="translate(290.29 171.11)"/><g class="cls-68"><path class="cls-69" d="M429.37,627.44s-96.88,7.79-83.17,97.22C346.2,724.66,361.28,653.86,429.37,627.44Z" transform="translate(290.29 171.11)"/></g><path class="cls-63" d="M277.77,476.45c-1.95,8,30.64,18.82,33.09,11.64,2.31-6.92-31-20-33.09-11.64ZM392.3,503c-.81,3.18,5.22,4.72,6.17,1.93s-5.41-5.22-6.17-1.93Zm-90.25,18.47c-.81,3.17,5.27,4.78,6.17,1.93.94-2.67-5.36-5.22-6.17-1.93Zm56.36-27.86c-.75,3.12,5.28,4.72,6.23,1.94s-5.41-5.23-6.23-1.94Zm-84,37.11c-.76,3.18,5.27,4.73,6.22,1.94s-5.41-5.23-6.22-1.94Zm51.93,8.16c-1.51,6.31,10.55,9.51,12.4,3.88,1.83-5.41-10.77-10.45-12.4-3.88ZM340,516.28c-.11,8.32,34.14,11.43,34.85,3.87.64-7.24-34.72-12.51-34.85-3.87Zm3.49-45c-1.95,8.09,30.64,18.87,33.08,11.64,2.26-6.86-31-20-33.08-11.64Zm-64.33-13.73c-1.56,6.3,13.06,10.6,15,4.92,1.83-5.41-13.32-11.55-15-4.92Zm-25.61,20.72c-1.57,6.36,13.05,10.6,14.9,5,1.83-5.41-13.32-11.55-14.9-5Zm21.68,18.45c-1.56,6.36,13.05,10.6,14.9,5,1.83-5.41-13.32-11.55-14.9-5Zm50.68-9.55c-2,8.08,16.64,13.52,19,6.33,2.31-6.91-16.95-14.69-19-6.33Zm-25.84,16.71c-2,8.08,23.1,16,25.54,8.79,2.26-6.87-23.47-17.15-25.54-8.79Zm4.57-44c-1.95,8,23.11,16,25.55,8.79,2.26-6.92-23.47-17.2-25.55-8.79Z" transform="translate(290.29 171.11)"/><path class="cls-70" d="M486.27,600.57h23.47a5.39,5.39,0,0,1,4.69,2.71l11.74,20.32a5.43,5.43,0,0,1,0,5.43l-11.74,20.32a5.39,5.39,0,0,1-4.69,2.71H486.27a5.42,5.42,0,0,1-4.7-2.71L469.84,629a5.43,5.43,0,0,1,0-5.43l11.73-20.32A5.42,5.42,0,0,1,486.27,600.57Z" transform="translate(290.29 171.11)"/><path class="cls-65" d="M505.6,625.41l.5-.2h0l-.55.18Z" transform="translate(290.29 171.11)"/><path class="cls-65" d="M493.5,642.67h0s0,0,0,0Z" transform="translate(290.29 171.11)"/><path class="cls-65" d="M510.93,630.38a7.71,7.71,0,0,0-1.22-2.14,9.54,9.54,0,0,0-1.84-1.75,6.84,6.84,0,0,0-2.28-1.08l0,0c.18,0,.37-.11.55-.18a7.13,7.13,0,0,0,3.3-2.3,7,7,0,0,0,1.39-4.48,8.14,8.14,0,0,0-.79-3.64,7.79,7.79,0,0,0-2.23-2.75,10.59,10.59,0,0,0-3.42-1.73,15.13,15.13,0,0,0-4.32-.6h-4a19.75,19.75,0,0,0-2.29.15c-.85.09-1.69.22-2.49.38s-1.57.33-2.28.51-1.25.32-1.64.44v23.89q0,6.43,6.17,7.58h0a15.38,15.38,0,0,0,3,.26h3.57a13.92,13.92,0,0,0,4.3-.67,10.72,10.72,0,0,0,3.6-2,9.49,9.49,0,0,0,2.47-3.25,10.14,10.14,0,0,0,.92-4.41A6.63,6.63,0,0,0,510.93,630.38Zm-17.1-8.1v-6.74c.44-.06.92-.14,1.44-.23a9.21,9.21,0,0,1,1.38-.13h2.47a8.16,8.16,0,0,1,1.83.21,5.22,5.22,0,0,1,1.63.63,3.57,3.57,0,0,1,1.17,1.18,3.76,3.76,0,0,1-1.1,4.85,7,7,0,0,1-1.82.73l-.53.1a9.29,9.29,0,0,1-1.42.11h-5.05v-.71Zm9.61,13.51a6,6,0,0,1-4,1.12h-2.69a3.69,3.69,0,0,1-1.62-.33l-.05,0h0l-.12-.07a2.2,2.2,0,0,1-.25-.17,2.15,2.15,0,0,1-.48-.47,1.68,1.68,0,0,1-.33-1v-6.79h5.24a7.13,7.13,0,0,1,4.25,1c.91.67,1.36,1.91,1.36,3.71A3.82,3.82,0,0,1,503.44,635.79Z" transform="translate(290.29 171.11)"/><path class="cls-65" d="M446.29,927.64v.11a14.89,14.89,0,0,0,1.59,5.32l2.35,4.58a26.45,26.45,0,0,1,2.77,9l.4,3.3c.33,2.67.71,5.34.93,8s.41,5.4.76,8.07a47,47,0,0,0,1.67,7.88,41.77,41.77,0,0,0,3,7.58,36,36,0,0,0,2.18,3.63q.61.9,1.32,1.77a17.57,17.57,0,0,0,1.55,1.72,16.15,16.15,0,0,0,22.84-.2,16.48,16.48,0,0,0,3.61-5.66,20,20,0,0,0,.68-2.22c.18-.72.32-1.44.44-2.16a34.14,34.14,0,0,0,.44-4.22,41.49,41.49,0,0,0-.46-8.14,47,47,0,0,0-1.81-7.85c-.82-2.56-1.83-5.09-2.73-7.64s-1.73-5.11-2.56-7.68l-2.5-7.69-2.58-7.67c-.93-2.73-1.87-5.46-2.85-8.18-2.66-7.34-10.55-10.77-18.19-8.6a39.69,39.69,0,0,0-5.49,2C448.18,915.11,445.66,921.65,446.29,927.64Z" transform="translate(290.29 171.11)"/><path class="cls-65" d="M366.19,894.71l0,.09a15.36,15.36,0,0,1,1.21,5.42l.17,5.15a26.68,26.68,0,0,0,2,9.19l1.25,3.07c1,2.49,2,5,3.11,7.47s2.28,4.92,3.28,7.42a48.28,48.28,0,0,1,2.38,7.7,41.46,41.46,0,0,1,1.05,8.09,35.71,35.71,0,0,1-.13,4.24c-.07.72-.16,1.45-.29,2.18a17.86,17.86,0,0,1-.52,2.26,16.15,16.15,0,0,1-20,11,16.41,16.41,0,0,1-5.91-3.19,18.25,18.25,0,0,1-1.67-1.6c-.51-.55-1-1.1-1.44-1.67a35.89,35.89,0,0,1-2.45-3.47,42.74,42.74,0,0,1-3.57-7.33,47.22,47.22,0,0,1-2.23-7.74c-.54-2.64-.89-5.33-1.34-8s-1-5.31-1.52-8L338,919.06l-1.49-8c-.52-2.83-1-5.67-1.49-8.52-1.27-7.71,4-14.55,11.68-16.38a39.59,39.59,0,0,1,5.76-.94C358.42,884.69,363.81,889.17,366.19,894.71Z" transform="translate(290.29 171.11)"/><ellipse class="cls-70" cx="476.11" cy="923.75" rx="12.12" ry="16.06" transform="translate(176.93 238.99) rotate(-7.29)"/><ellipse class="cls-70" cx="361.96" cy="900.15" rx="11.39" ry="15.1" transform="translate(97.11 275.58) rotate(-13)"/><path class="cls-65" d="M364.47,905.91a7,7,0,0,1-2-13.71c50.7-15.4,84.39-47.29,100.14-94.78,11.91-35.9,8.61-67.78,8.58-68.09a7,7,0,0,1,13.92-1.55c.15,1.41,3.67,34.81-9,73.52-7.51,22.88-19.15,42.84-34.6,59.33-19.28,20.59-44.49,35.72-74.94,45A6.92,6.92,0,0,1,364.47,905.91Z" transform="translate(290.29 171.11)"/><path class="cls-65" d="M510.59,904.64a195.9,195.9,0,0,1-26.8,22.22,7,7,0,1,1-8-11.5c46-32,67.36-73.5,63.43-123.47a171.29,171.29,0,0,0-20.16-67,7,7,0,0,1,12-7.21c.76,1.27,18.72,31.58,22.07,72.56,2,24.28-1.59,47.24-10.64,68.23C535.3,875.21,524.61,890.65,510.59,904.64Z" transform="translate(290.29 171.11)"/><path class="cls-71" d="M401.12,517.84s46.18,30.86,123.07-12.59c0,0,53.39-37.11,45.16-91.22,0,0-16.9-17.4-47.54-18.43,0,0-34.62-.1-58.19,12.41,0,0-29.81,16.68-46.5,30.83,0,0-25.36,16.35-24.77,35.11C392.35,474,392.75,507.38,401.12,517.84Z" transform="translate(290.29 171.11)"/><ellipse class="cls-65" cx="480.43" cy="454.07" rx="91.47" ry="84.3" transform="translate(186.82 315.26) rotate(-15.43)"/><path class="cls-66" d="M500.09,445.73s7-28.4,25.7-34.44a19,19,0,0,1,14.68,1.3c7.65,4,19.59,14.82,26.33,43.47,0,0,20.58,29.2-.71,58.08a93.61,93.61,0,0,1-17.83,20.57S504.66,572,454.79,547c0,0-24.75-7.21-33.25-33.19-7.1-21.7,1.45-33.54,1.45-33.54-4.83-15.06,3.46-47.85,27.13-57.57a28.11,28.11,0,0,1,17.51-1.34C476.05,423.48,488.72,429.38,500.09,445.73Z" transform="translate(290.29 171.11)"/><path class="cls-72" d="M461.75,434c1.62-3.14,11.55-1.92,11.9,4.09S459,439.44,461.75,434Z" transform="translate(290.29 171.11)"/><path class="cls-72" d="M536.84,424.6c-2-2.91-11.7-.46-11.3,5.55s14.71-.53,11.3-5.55Z" transform="translate(290.29 171.11)"/><path class="cls-65" d="M526.08,490c-.18-.17-.36-.32-.54-.47l-.56-.44c-.38-.28-.76-.56-1.15-.82-.78-.53-1.58-1-2.41-1.49a33.11,33.11,0,0,0-5.19-2.32l-.68-.23-.69-.21-.69-.19-.7-.18a27.12,27.12,0,0,0-2.83-.53,25.4,25.4,0,0,0-2.89-.24,23.63,23.63,0,0,0-5.8.54,23.31,23.31,0,0,0-8,3.43l-.59.41-.58.43-.29.22-.14.11-.14.12-.55.46-.14.11-.13.12-.27.24-.26.24a3.07,3.07,0,0,0-.26.25c-.34.33-.69.66-1,1l-.48.52-.47.54c-.31.36-.6.73-.89,1.11l-.42.56-.41.58c-.14.19-.26.39-.39.58s-.26.4-.38.6a.39.39,0,0,0,.6.48h0c.33-.32.65-.66,1-1l.49-.47.25-.24.25-.24c.33-.3.65-.62,1-.91l.51-.45.52-.43c.34-.3.7-.57,1.05-.84l.54-.4.27-.2.14-.1.14-.1c.73-.5,1.48-1,2.25-1.42a24.47,24.47,0,0,1,9.93-3.16l.65-.05.66,0,.66,0h.65c.88,0,1.76.06,2.64.14s1.76.22,2.63.38l.66.12.65.15.65.15.65.16a41.55,41.55,0,0,1,5.12,1.71c.42.16.84.34,1.26.52l1.24.56q.62.28,1.23.6l.61.31.6.32h0a.38.38,0,0,0,.43-.61Z" transform="translate(290.29 171.11)"/><ellipse class="cls-73" cx="455.78" cy="498.15" rx="13.5" ry="15.68" transform="translate(229.64 1104.22) rotate(-87.65)"/><ellipse class="cls-74" cx="556.63" cy="485.39" rx="15.68" ry="13.5" transform="translate(138.96 446.17) rotate(-24.54)"/><g class="cls-68"><path class="cls-69" d="M442.41,536.86s-29-19.06-14-53.75c0,0-8.6-19.23,7.49-43.55,0,0-7.19,31.46,1.55,46.95C437.46,486.51,422.23,510.6,442.41,536.86Z" transform="translate(290.29 171.11)"/></g><path class="cls-69" d="M556.45,367.71l-4.73.24,4.73-.24Z" transform="translate(290.29 171.11)"/><path d="M556.45,367.71l-4.73.24,4.73-.24Z" transform="translate(290.29 171.11)"/><path class="cls-69" d="M532.89,349c.84.95,1.7,2,2.59,3.08h0C534.59,351,533.73,349.94,532.89,349Z" transform="translate(290.29 171.11)"/><path d="M532.89,349c.84.95,1.7,2,2.59,3.08h0c-.89-1.11-1.75-2.13-2.59-3.08Z" transform="translate(290.29 171.11)"/><path class="cls-69" d="M556.93,367.69l-.48,0h0Z" transform="translate(290.29 171.11)"/><path d="M556.93,367.69h0Zm0,0-.44,0h0l.44,0Z" transform="translate(290.29 171.11)"/><path class="cls-69" d="M483.77,347.13c-.73-.77-1.44-1.5-2.13-2.18C482.33,345.63,483,346.36,483.77,347.13Z" transform="translate(290.29 171.11)"/><path d="M481.64,345h0Zm0,0c.69.68,1.39,1.4,2.12,2.17-.73-.77-1.43-1.49-2.12-2.17Z" transform="translate(290.29 171.11)"/><path class="cls-69" d="M486.15,349.77c-.78-.89-1.54-1.74-2.28-2.53C484.61,348,485.37,348.88,486.15,349.77Z" transform="translate(290.29 171.11)"/><path d="M483.87,347.24c.54.58,1.09,1.18,1.65,1.81-.56-.63-1.11-1.23-1.65-1.81Zm1.65,1.81.63.72-.63-.72Z" transform="translate(290.29 171.11)"/><path class="cls-69" d="M488.93,371.83c.27.67.52,1.36.77,2.06C489.41,373.17,489.16,372.49,488.93,371.83Z" transform="translate(290.29 171.11)"/><path d="M488.93,371.83c.23.66.48,1.34.77,2.06-.25-.7-.5-1.39-.77-2.06Z" transform="translate(290.29 171.11)"/><path class="cls-69" d="M557,367.68h0Z" transform="translate(290.29 171.11)"/><path d="M557,367.68h0Zm0,0Z" transform="translate(290.29 171.11)"/><path class="cls-69" d="M447.87,389.22c-4.6,4.31-8.72,8.58-12.43,12.76C439.15,397.8,443.27,393.53,447.87,389.22Z" transform="translate(290.29 171.11)"/><path d="M447.87,389.22c-4.6,4.31-8.72,8.58-12.43,12.76,3.71-4.18,7.83-8.45,12.43-12.76Z" transform="translate(290.29 171.11)"/><path class="cls-69" d="M459.49,381.15c-.57.26-1.12.54-1.65.81C458.37,381.69,458.92,381.41,459.49,381.15Z" transform="translate(290.29 171.11)"/><path d="M459.49,381.15c-.57.26-1.12.54-1.65.81.53-.27,1.08-.55,1.65-.81Z" transform="translate(290.29 171.11)"/><path class="cls-69" d="M501.5,373l-.27,0,.27,0Z" transform="translate(290.29 171.11)"/><path d="M501.5,373h0l-.27,0,.27,0Z" transform="translate(290.29 171.11)"/><path class="cls-69" d="M481.5,344.81c-.67-.66-1.31-1.27-1.93-1.84C480.19,343.54,480.83,344.15,481.5,344.81Z" transform="translate(290.29 171.11)"/><path d="M479.57,343h0Zm0,0c.61.57,1.25,1.19,1.92,1.84-.67-.66-1.31-1.27-1.92-1.84Z" transform="translate(290.29 171.11)"/><path class="cls-69" d="M490,374.69h0Z" transform="translate(290.29 171.11)"/><path d="M490,374.68h0Zm0,0h0Z" transform="translate(290.29 171.11)"/><path class="cls-69" d="M490,374.68c3.26-.49,6.85-1,10.7-1.54C496.89,373.67,493.29,374.19,490,374.68Z" transform="translate(290.29 171.11)"/><path d="M500.73,373.14c-3.85.53-7.44,1.05-10.7,1.54,3.26-.49,6.86-1,10.7-1.54Z" transform="translate(290.29 171.11)"/><path class="cls-69" d="M460.37,380.75a37.2,37.2,0,0,1,10.36-2.89s2.85-.53,7.78-1.35c-4.93.82-7.78,1.35-7.78,1.35A37.2,37.2,0,0,0,460.37,380.75Z" transform="translate(290.29 171.11)"/><path d="M478.51,376.51c-4.93.82-7.78,1.35-7.78,1.35a37.2,37.2,0,0,0-10.36,2.89,37.2,37.2,0,0,1,10.36-2.89s2.85-.53,7.78-1.35Z" transform="translate(290.29 171.11)"/><path class="cls-69" d="M562.9,367.46h0Z" transform="translate(290.29 171.11)"/><path d="M562.92,367.46h0Zm0,0h0Z" transform="translate(290.29 171.11)"/><polygon class="cls-69" points="853.21 538.57 853.21 538.57 853.21 538.57 853.21 538.57"/><polygon points="853.21 538.57 853.21 538.57 853.21 538.57 853.21 538.57"/><path class="cls-75" d="M405.56,450.48s.27-.92.89-2.59c2-5.47,7.86-19.1,20.51-35.62.81-1.07,1.65-2.15,2.53-3.25l.18-.22,1.72-2.11q1.94-2.32,4.05-4.71c3.71-4.18,7.83-8.45,12.43-12.76l2-1.85a38.7,38.7,0,0,1,8-5.41c.53-.27,1.08-.55,1.65-.81l.88-.4a37.2,37.2,0,0,1,10.36-2.89s2.85-.53,7.78-1.35l1-.17,1.64-.27,3.65-.58,2-.31,1-.16,2.14-.33h0c3.26-.49,6.86-1,10.7-1.54l.5-.08.27,0h0c12.78-1.76,28.26-3.57,43.84-4.68l.27,0h.22c1.79-.13,3.58-.24,5.36-.34l.53,0,4.73-.24.48,0h0q3-.14,5.94-.22h0c15-.44,29.2.1,40.1,2.36a7,7,0,0,1,5.1,4.15c.91,2.29.87,5.53-2.92,9.34,0,0-33.6,28.68-35.85,30.72,0,0-59.12-48-163.79,36.44h0Z" transform="translate(290.29 171.11)"/><path class="cls-75" d="M389.43,502.76c-1.67-3.17-21.48-41.87-13.75-87,0,0,5.29-25.14,31.65-47a112.7,112.7,0,0,1,10.32-7.62c8.45-4.09,27-12.44,41.16-14.55a14.89,14.89,0,0,1,8,1c5.76,2.42,16,8.75,22.15,24.3.23.66.48,1.34.77,2.06.09.27.19.53.28.8l-2.14.33-1,.16-2,.31-3.65.58-1.64.27-1,.17c-4.93.82-7.78,1.35-7.78,1.35a37.2,37.2,0,0,0-10.36,2.89l-.88.4c-.57.26-1.12.54-1.65.81a38.7,38.7,0,0,0-8,5.41l-2,1.85c-4.6,4.31-8.72,8.58-12.43,12.76q-2.12,2.38-4.05,4.71l-1.72,2.11-.18.22c-.88,1.1-1.72,2.18-2.53,3.25-12.65,16.52-18.48,30.15-20.51,35.62-.62,1.67-.89,2.59-.89,2.59h0a56.5,56.5,0,0,0-2.94,5.94s-8.87,23.3-1.5,61.43c0,0-9-.23-11-7.25a21.11,21.11,0,0,1-.64-6.85C389.48,503.41,389.46,503.08,389.43,502.76Z" transform="translate(290.29 171.11)"/><path class="cls-69" d="M466.73,336.91c.66-.06,1.33-.12,2-.16a7.85,7.85,0,0,1,5.21,1.52,7.85,7.85,0,0,0-5.21-1.52C468.06,336.79,467.39,336.85,466.73,336.91Z" transform="translate(290.29 171.11)"/><path d="M469.25,336.73l-.53,0c-.66,0-1.33.1-2,.16.66-.06,1.33-.12,2-.16l.54,0a7.9,7.9,0,0,1,4.67,1.54,7.9,7.9,0,0,0-4.68-1.54Z" transform="translate(290.29 171.11)"/><path class="cls-69" d="M491.19,356.05q1,1.31,1.92,2.7h0C492.47,357.82,491.82,356.92,491.19,356.05Z" transform="translate(290.29 171.11)"/><path d="M491.19,356.05c.63.87,1.28,1.77,1.92,2.7h0q-1-1.39-1.92-2.7Z" transform="translate(290.29 171.11)"/><path class="cls-69" d="M501.23,373.06l-.5.08.38-.06Z" transform="translate(290.29 171.11)"/><path d="M501.23,373.06l-.07,0,.07,0Zm-.07,0h0Zm-.1,0-.33.05.33-.05Z" transform="translate(290.29 171.11)"/><path class="cls-76" d="M557,367.68h0l-.48,0c-1.82-2.81-5.74-8.49-9.57-11.76a7.62,7.62,0,0,0-3.55-1.67,45.69,45.69,0,0,1-7.85-2.21c-.89-1.11-1.75-2.13-2.59-3.08l-.16-.18-.68-.76c-.27-.3-.55-.59-.82-.88a91.47,91.47,0,0,1,31.69,20.29h0Q559.94,367.55,557,367.68Z" transform="translate(290.29 171.11)"/><path class="cls-77" d="M569.36,414c-71.42-33.36-163.78,36.43-163.78,36.43C510.25,366,569.36,414,569.36,414Z" transform="translate(290.29 171.11)"/><path class="cls-76" d="M389.51,503.74h0c0-.33-.05-.66-.08-1h0C389.46,503.08,389.48,503.41,389.51,503.74Z" transform="translate(290.29 171.11)"/><path class="cls-76" d="M389.51,503.74h0c0-.33-.05-.66-.08-1h0a276.71,276.71,0,0,1-.56-29.75,80.77,80.77,0,0,1,7-30.61c9.72-21.39,25.55-31.34,35.51-35.71h0c-20.08,24.2-25.83,43.79-25.83,43.79h0a56.5,56.5,0,0,0-2.94,5.94s-8.87,23.3-1.5,61.43c0,0-9-.23-11-7.25h0A21.11,21.11,0,0,1,389.51,503.74Z" transform="translate(290.29 171.11)"/><path class="cls-65" d="M530.22,365.82l.28-.05a2.83,2.83,0,0,0,2.1-3.39c-.06-.28-6.05-27.58,16.32-51.67a2.82,2.82,0,1,0-4.13-3.84c-24.49,26.37-18,55.56-17.69,56.79A2.83,2.83,0,0,0,530.22,365.82Z" transform="translate(290.29 171.11)"/><path class="cls-65" d="M543.51,311.23h0a7.77,7.77,0,0,1,0-9.84l7.86-9.63a7.77,7.77,0,0,1,11.83-.26l2.17,2.43a7.77,7.77,0,0,1-1.27,11.5l-10,7.2A7.79,7.79,0,0,1,543.51,311.23Z" transform="translate(290.29 171.11)"/><path class="cls-75" d="M500,368.93a7.5,7.5,0,0,1,4.19-8.51,29.73,29.73,0,0,0,12.5-10.3A7.53,7.53,0,0,1,518,348.7a7.44,7.44,0,0,1,5.06-1.82,7.19,7.19,0,0,1,1.94.3,7.31,7.31,0,0,1,1.69.71l.05,0a57.23,57.23,0,0,0,8.76,4.16h0a45.69,45.69,0,0,0,7.85,2.21,7.62,7.62,0,0,1,3.55,1.67c3.83,3.27,7.75,8.95,9.57,11.76l-4.73.24-.53,0c-1.78.1-3.57.21-5.36.34h-.22l-.27,0c-15.58,1.11-31.06,2.92-43.84,4.68-.26-.54-.53-1.08-.81-1.6C500.42,370.53,500.19,369.7,500,368.93Z" transform="translate(290.29 171.11)"/><path class="cls-76" d="M468.72,336.75a7.85,7.85,0,0,1,5.21,1.52l.4.3.54.41c.55.43,1.16.91,1.82,1.46l.78.66.19.16.84.74h0c.28.26.58.52.87.8a1.54,1.54,0,0,1,.19.17c.62.57,1.26,1.18,1.93,1.84l.14.14c.69.68,1.4,1.41,2.13,2.18l.1.11c.74.79,1.5,1.64,2.28,2.53l.07.08c.79.91,1.6,1.87,2.41,2.88l0,0q1.23,1.53,2.49,3.24l0,0c.63.87,1.28,1.77,1.92,2.7h0A29.71,29.71,0,0,0,504,349.62l.42-.6a7.34,7.34,0,0,1,5.16-3.19,7.66,7.66,0,0,1,2.19,0,102,102,0,0,1,11.23,1A7.44,7.44,0,0,0,518,348.7a7.53,7.53,0,0,0-1.27,1.42,29.73,29.73,0,0,1-12.5,10.3,7.5,7.5,0,0,0-4.19,8.51c.17.77.4,1.6.67,2.5.28.52.55,1.06.81,1.6l-.27,0-.12,0-.38.06c-3.85.53-7.44,1.05-10.7,1.54h0c-.09-.27-.19-.53-.28-.8-.25-.7-.5-1.39-.77-2.06-6.14-15.55-16.39-21.88-22.15-24.3a14.89,14.89,0,0,0-8-1c-14.21,2.11-32.71,10.46-41.16,14.55a112.7,112.7,0,0,0-10.32,7.62c1.65-4.3,3.6-10.29,9.19-15.09,0,0,19.55-11.64,42.59-15.68l.07,0,.68-.11c.9-.14,2.6-.39,4.89-.7l2-.2C467.39,336.85,468.06,336.79,468.72,336.75Z" transform="translate(290.29 171.11)"/><path class="cls-75" d="M532.73,348.81l.16.18c.84.95,1.7,2,2.59,3.08a57.23,57.23,0,0,1-8.76-4.16l-.05,0a7.31,7.31,0,0,0-1.69-.71,7.19,7.19,0,0,0-1.94-.3,102,102,0,0,0-11.23-1,7.66,7.66,0,0,0-2.19,0,7.34,7.34,0,0,0-5.16,3.19l-.42.6a29.71,29.71,0,0,1-10.93,9.13q-1-1.39-1.92-2.7l0,0q-1.26-1.71-2.49-3.24l0,0c-.81-1-1.62-2-2.41-2.88l-.07-.08c-.78-.89-1.54-1.74-2.28-2.53l-.1-.11c-.73-.77-1.44-1.5-2.13-2.18l-.14-.14c-.67-.66-1.31-1.27-1.93-1.84a1.54,1.54,0,0,0-.19-.17c-.29-.28-.59-.54-.87-.8h0l-.84-.74-.19-.16-.78-.66c-.66-.55-1.27-1-1.82-1.46l-.54-.41-.4-.3a7.85,7.85,0,0,0-5.21-1.52c-.66,0-1.33.1-2,.16l-2,.2c9.89-1.3,30.82-3.44,46.58-.83a34.57,34.57,0,0,1,19,9.9l.94,1c.27.29.55.58.82.88Z" transform="translate(290.29 171.11)"/><g class="cls-78"><ellipse class="cls-69" cx="414.71" cy="385.79" rx="27.77" ry="12.87" transform="translate(138.65 548.92) rotate(-42.12)"/></g><path class="cls-65" d="M417.11,391.39a2.7,2.7,0,0,0,1-.32,2.82,2.82,0,0,0,1.13-3.83c-.25-.47-25.46-47.35-18.32-76.83a2.82,2.82,0,1,0-5.49-1.33c-7.65,31.6,17.77,78.86,18.85,80.86A2.83,2.83,0,0,0,417.11,391.39Z" transform="translate(290.29 171.11)"/><path class="cls-65" d="M395.66,315.59h0a7.79,7.79,0,0,1-5.08-8.43l1.77-12.3a7.77,7.77,0,0,1,10-6.32l3.11,1a7.78,7.78,0,0,1,4.85,10.5l-4.88,11.34A7.78,7.78,0,0,1,395.66,315.59Z" transform="translate(290.29 171.11)"/><path class="cls-79" d="M448.78,598.65s8.72-10.23,17.85,10.44L483.07,685l-6.14.62L431,679.87l-.75-54.19Z" transform="translate(290.29 171.11)"/><polygon class="cls-80" points="753.85 774.65 768.56 855.37 739.01 850.48 737.29 785.75 753.85 774.65"/><polygon class="cls-81" points="750.93 775.64 765.64 856.36 736.08 851.47 734.37 786.75 750.93 775.64"/><polygon class="cls-69" points="746.29 776.96 761 857.67 731.45 852.79 729.73 788.06 746.29 776.96"/><path class="cls-82" d="M399.92,609.27s15.52.2,25.4-1.72c0,0,5-1.08,11.62-3.22a39.08,39.08,0,0,0,13.16-7c3-2.5,8.24-3.92,14.31,7.32,0,0-18.16-7.15,1.37,85.82,0,0-30.71-10-63.59-1.69C402.19,688.76,398,620.13,399.92,609.27Z" transform="translate(290.29 171.11)"/><path class="cls-83" d="M461,570c-1.88.47-3.65.93-5.45,1.43s-3.59,1-5.37,1.5q-5.35,1.55-10.67,3.22c-7.1,2.25-14.15,4.68-21.15,7.41a206.14,206.14,0,0,0-20.81,9.34,116.31,116.31,0,0,0-10.19,6,64.8,64.8,0,0,0-9.86,7.93,38.55,38.55,0,0,0-4.56,5.45c-.35.53-.71,1.05-1,1.63l-.5.86c-.07.12-.17.32-.27.51l-.27.55a20.55,20.55,0,0,0-1.57,4.67,22.36,22.36,0,0,0,.12,9.47,21.55,21.55,0,0,0,.63,2.22c.12.38.23.68.35,1s.23.62.36.92a31.65,31.65,0,0,0,1.74,3.56,33.8,33.8,0,0,0,4.58,6.21,40.91,40.91,0,0,0,5.38,4.84,64.36,64.36,0,0,0,11.23,6.69c3.73,1.78,7.42,3.25,11.05,4.59s7.22,2.55,10.75,3.72c7.07,2.34,14,4.52,20.63,6.88a12,12,0,1,0,8-22.53l-.79-.25h-.06c-7.29-2-14.5-3.74-21.47-5.51a170.29,170.29,0,0,1-19.66-6,45,45,0,0,1-7.92-3.94,17.68,17.68,0,0,1-5.08-4.71,9.69,9.69,0,0,1-.79-1.31l-.17-.34-.14-.3a3.52,3.52,0,0,1-.18-.4,4.08,4.08,0,0,1-.28-1.41,2,2,0,0,1,.06-.55.25.25,0,0,1,0-.07s0,0,0-.1l.17-.35c.09-.23.24-.47.37-.72a20.15,20.15,0,0,1,2.25-3.13,46.72,46.72,0,0,1,6.79-6.3,95.41,95.41,0,0,1,8.32-5.76,192.07,192.07,0,0,1,18.56-10c6.43-3.06,13-5.91,19.72-8.56q5-2,10.1-3.84c1.69-.62,3.39-1.22,5.09-1.82s3.42-1.17,5.06-1.71l.06,0A5.71,5.71,0,0,0,461,570Z" transform="translate(290.29 171.11)"/><path class="cls-84" d="M427.87,662.79c-2.45-6.65-1.17-20.51,6.82-31.53,3.72-5.13,10.25-11.13,16.67-8.45,5.36,2.23,7,11-12.56,18.38,0,0,12.4.28,20.58-6a26.23,26.23,0,0,1,7.27-4.05c3.71-1.3,8.76-2.49,12.73-1.34a7.73,7.73,0,0,1,3.71,12.25c-1.95,2.52-5.52,4.92-11.95,4.41,0,0-19.1-.74-17.92,5.21,0,0-.63,7,18.25,2.08,0,0,10.66-2.41,13.44,5.29a9,9,0,0,1-1.38,8.72c-1.86,2.27-5.35,4.1-11.7,1.42,0,0-14.72-7.93-18.67-2.61,0,0-1.73,4.83,13.16,7.35,0,0,7.15,1.16,7.1,7.23a4.74,4.74,0,0,1-.7,2.46c-.82,1.3-2.65,3.15-6.52,3.45a13,13,0,0,1-7.94-2,77.46,77.46,0,0,0-14.95-7.4A25,25,0,0,1,427.87,662.79Z" transform="translate(290.29 171.11)"/><path class="cls-85" d="M540.32,634.68s4.61,6.94,1.14,22.12a34.18,34.18,0,0,1-9.93,17.57,25.74,25.74,0,0,1-14.13,7,30.85,30.85,0,0,0-3.29.65c-3.05.75-10.16,1.43-13.87-1.62a5,5,0,0,1-1.1-6.27c1.53-2.74,5.05-6.3,12.69-4.22,0,0,9.78,3.44,11.28-2.17,0,0,1.1-5.71-9.46-4.49,0,0-15.26,5.16-16-8.45,0,0,2.63-11.8,16.55-3.83,0,0,10.14,7.61,13.51,2.2,0,0,2.92-4.54-9.07-9,0,0-6.37-2.48-6.85-8.22a7.76,7.76,0,0,1,5-7.95c3.14-1.15,7.87-.57,13.27,7.88,0,0,4.41,7.81,7.37,8.91C537.4,644.73,538.93,639.88,540.32,634.68Z" transform="translate(290.29 171.11)"/><path class="cls-65" d="M521.77,471.4a38.38,38.38,0,0,1,5.57-10.62,29.26,29.26,0,0,1,9.58-8.48,17.69,17.69,0,0,1,7.06-2,14.06,14.06,0,0,1,7.43,1.65,15.69,15.69,0,0,1,5.26,4.49,17.6,17.6,0,0,1,2.93,5.6,2.11,2.11,0,0,1-1.36,2.68,2.14,2.14,0,0,1-1.85-.26l-.09-.07c-3.1-2.11-5.84-4-8.32-4.71a9.39,9.39,0,0,0-7.17.57,29.64,29.64,0,0,0-7.75,5.56c-2.53,2.32-5,5.05-7.36,7.68l-.11.12a2.26,2.26,0,0,1-3.82-2.23Z" transform="translate(290.29 171.11)"/><path class="cls-65" d="M528.61,448.54a14.86,14.86,0,0,1,4.06-3.53,17.42,17.42,0,0,1,5.05-2.08,13.81,13.81,0,0,1,5.62-.08,10.93,10.93,0,0,1,5,2.42.87.87,0,0,1-.73,1.53l-.11,0a21.89,21.89,0,0,0-4.53-.65,18.11,18.11,0,0,0-4.38.49,44.39,44.39,0,0,0-8.68,3.37l-.08,0a1,1,0,0,1-1.19-1.49Z" transform="translate(290.29 171.11)"/><path class="cls-65" d="M482.71,476.33a38.92,38.92,0,0,0-7.43-9.42,29.13,29.13,0,0,0-11-6.57,17.61,17.61,0,0,0-7.3-.66,14.15,14.15,0,0,0-7,3,15.63,15.63,0,0,0-4.34,5.39,17.34,17.34,0,0,0-1.86,6,2.13,2.13,0,0,0,1.83,2.38,2.1,2.1,0,0,0,1.77-.6l.08-.08c2.65-2.65,5-5,7.32-6.16a9.4,9.4,0,0,1,7.15-.76,29.76,29.76,0,0,1,8.63,4.05c2.91,1.81,5.82,4,8.65,6.19l.13.1a2.26,2.26,0,0,0,3.35-2.89Z" transform="translate(290.29 171.11)"/><path class="cls-65" d="M471.79,455.11a15.07,15.07,0,0,0-4.65-2.72,17.12,17.12,0,0,0-5.35-1.11,13.5,13.5,0,0,0-5.53,1,10.77,10.77,0,0,0-4.44,3.29.87.87,0,0,0,1,1.37l.1,0a21.59,21.59,0,0,1,4.34-1.47,17.79,17.79,0,0,1,4.38-.32,43.59,43.59,0,0,1,9.16,1.72l.08,0a1,1,0,0,0,1.21-.7A1,1,0,0,0,471.79,455.11Z" transform="translate(290.29 171.11)"/><path class="cls-69" d="M479.77,510s10.18,22.56,29.44,21c0,0,17.06-.54,18.85-13,0,0,1.18-8.94,4.57-11.84C532.63,506.16,498.3,514.74,479.77,510Z" transform="translate(290.29 171.11)"/><g class="cls-86"><path class="cls-87" d="M943.1,963.57a43.49,43.49,0,0,0-2.21-4.37c-.79-1.39-1.64-2.74-2.52-4.07a73.53,73.53,0,0,0-5.85-7.55,78.52,78.52,0,0,0-6.74-6.79c-1.23-1-2.43-2.08-3.7-3s-2.53-2-3.88-2.83a87.08,87.08,0,0,0-35.48-14l-2.36-.41-2.38-.28c-1.59-.17-3.17-.4-4.76-.51-3.18-.17-6.37-.43-9.56-.35a140.28,140.28,0,0,0-19,1.29,204.6,204.6,0,0,0-36.78,8.79l.48-.14c-1.8.38-3.83.75-5.77,1.09s-3.94.64-5.92.91q-5.94.82-11.93,1.32a192.81,192.81,0,0,1-23.9.51,142.37,142.37,0,0,1-23.42-2.88,91,91,0,0,1-21.83-7.41,61.91,61.91,0,0,1-18-13.24,57.4,57.4,0,0,1-11.54-18.85c-.7-1.73-1.24-3.54-1.82-5.33s-1-3.64-1.36-5.51-.68-3.75-1-5.63-.5-3.79-.61-5.76l-.22-2.86c0-.85-.05-1.8-.05-2.73,0-1.88.09-3.78.24-5.68A79.81,79.81,0,0,1,682.94,846a58.79,58.79,0,0,1,8.48-20.35,42.41,42.41,0,0,1,15.85-14,53.9,53.9,0,0,1,21.08-5.43,58.47,58.47,0,0,1,21.92,2.84,46.45,46.45,0,0,1,9.79,4.7,41.66,41.66,0,0,1,8.29,7,47.91,47.91,0,0,1,6.46,9c.51.79.87,1.67,1.32,2.5s.87,1.69,1.22,2.58l1.13,2.63c.33.86.64,1.73.92,2.61A39.07,39.07,0,0,1,781.21,851a32.25,32.25,0,0,1-1.66,10.82,21.19,21.19,0,0,1-5.71,9,23.89,23.89,0,0,1-9.73,5.24l-.09,0a2,2,0,0,0,.89,3.89,29.64,29.64,0,0,0,9.53-3,24.52,24.52,0,0,0,2.9-1.85,26.92,26.92,0,0,0,8.58-10.71,41.16,41.16,0,0,0,2.09-26.6c-.26-1.1-.57-2.18-.89-3.26l-1.07-3.11c-.34-1-.77-2-1.2-3.07s-.81-2.06-1.34-3l-1.51-3-1.74-2.88c-.56-1-1.27-1.86-1.91-2.79s-1.35-1.81-2.07-2.69a52.52,52.52,0,0,0-22-15.78,68,68,0,0,0-26.42-4.25c-2.24.07-4.46.24-6.75.54-.58.08-1.14.16-1.78.28l-1.63.32-3.24.66a62.33,62.33,0,0,0-12.87,4.63,56.34,56.34,0,0,0-11.53,7.74,53.72,53.72,0,0,0-9.12,10.42,71.61,71.61,0,0,0-10.28,24.77,93.24,93.24,0,0,0-1.88,13.05c-.15,2.18-.25,4.38-.24,6.6,0,1.11,0,2.21.08,3.41l.25,3.27c.14,2.12.47,4.3.73,6.46s.67,4.32,1.18,6.46,1,4.28,1.62,6.41,1.34,4.22,2.17,6.29a69.12,69.12,0,0,0,14.27,22.64,73.77,73.77,0,0,0,21.58,15.53,102.08,102.08,0,0,0,24.71,8.06,147.27,147.27,0,0,0,25.37,2.63A203.53,203.53,0,0,0,785.7,943q6.27-.64,12.48-1.65,3.11-.5,6.21-1.1c2.09-.4,4.08-.81,6.27-1.35l.08,0,.4-.12A194.77,194.77,0,0,1,846,929.35a143,143,0,0,1,17.84-1.78c3-.2,6-.06,8.93,0,1.49.05,3,.21,4.45.31l2.22.17,2.21.3,2.2.3c.74.09,1.48.2,2.2.36l4.36.87,4.3,1.12c1.44.38,2.82.9,4.23,1.34A78.13,78.13,0,0,1,915,939.87c1.29.74,2.47,1.64,3.71,2.46s2.38,1.78,3.57,2.67a83.24,83.24,0,0,1,6.61,6,68.48,68.48,0,0,1,5.85,6.76c.89,1.19,1.75,2.41,2.56,3.65s1.58,2.57,2.19,3.77l0,.09a2,2,0,0,0,3.61-1.69Z" transform="translate(290.29 171.11)"/><path class="cls-88" d="M936,983.84a40,40,0,0,0-2.06-4.87c-.76-1.56-1.61-3.06-2.51-4.53a61,61,0,0,0-6.18-8.32,61.76,61.76,0,0,0-7.49-7.24l-2.06-1.62c-.69-.53-1.43-1-2.14-1.51-1.41-1-2.93-1.9-4.43-2.81a70.05,70.05,0,0,0-19.46-7.66,89.37,89.37,0,0,0-20.69-2.37,121.68,121.68,0,0,0-20.57,1.72c-3.41.47-6.72,1.27-10.08,2-1.68.31-3.3.84-4.95,1.26l-4.93,1.35c-3.23,1-6.5,2-9.69,3.15l-9.33,3.42A186.94,186.94,0,0,1,791,961a195.5,195.5,0,0,1-38,4.89,186.05,186.05,0,0,1-19.05-.59,154.89,154.89,0,0,1-18.72-3c-1.55-.31-3.05-.79-4.58-1.17s-3.06-.79-4.55-1.32l-4.5-1.46c-1.48-.54-2.93-1.15-4.4-1.72l-2.21-.86c-.73-.3-1.44-.66-2.15-1l-4.3-2-4.19-2.25-2.09-1.12c-.7-.37-1.35-.84-2-1.25l-4-2.55c-.69-.41-1.31-.91-2-1.37l-1.93-1.41-1.95-1.4a22.28,22.28,0,0,1-1.9-1.46l-3.68-3.09-1.85-1.56-1.75-1.66-3.52-3.33c-2.29-2.29-4.44-4.73-6.72-7.08l-.07-.07a2,2,0,0,0-3.15,2.45,107.88,107.88,0,0,0,27.52,29.91c.7.51,1.36,1.07,2.08,1.54l2.15,1.43c1.45.94,2.87,1.92,4.34,2.82l4.54,2.51c.76.42,1.51.85,2.28,1.25l2.34,1.1a117.81,117.81,0,0,0,19.43,7.23l5,1.26c1.67.45,3.38.69,5.07,1,3.38.74,6.8,1.11,10.22,1.59a166.39,166.39,0,0,0,20.57.89,193.41,193.41,0,0,0,40.5-5.43,169,169,0,0,0,19.65-6l9.21-3.64c3-1.14,6.07-2.13,9.1-3.2,3.07-.91,6.14-1.88,9.22-2.7s6.18-1.65,9.31-2.2a111.42,111.42,0,0,1,18.84-2.35c12.58-.67,25.24,1.37,36.47,6.82a61.25,61.25,0,0,1,15.35,10.69,60.48,60.48,0,0,1,6.3,7.07c1,1.26,1.88,2.55,2.71,3.9a39.35,39.35,0,0,1,2.27,4l.06.12a2,2,0,0,0,3.7-1.5Z" transform="translate(290.29 171.11)"/><path class="cls-89" d="M790.11,981c-1.77.87-3.75,1.69-5.69,2.43s-3.9,1.46-5.89,2.09a110.17,110.17,0,0,1-12,3.18,98,98,0,0,1-12.25,1.78,100.6,100.6,0,0,1-12.27.3,104.38,104.38,0,0,1-12.13-1.33,87.87,87.87,0,0,1-11.77-3,92,92,0,0,1-21.82-10.63l0,0a2.26,2.26,0,0,0-.26-.16c-3.12-1.7-6.18-3.28-9.3-4.87s-6.22-3.13-9.39-4.58c-6.32-2.93-12.69-5.76-19.23-8.23-3.25-1.27-6.55-2.46-9.86-3.58s-6.67-2.16-10.09-3c-6.81-1.75-13.77-3.29-21-3.38a2,2,0,0,0-.4,4h0A117.16,117.16,0,0,1,636,957.75c6.35,2.33,12.57,5.08,18.77,7.9s12.33,5.77,18.4,8.89,12.21,6.21,18.07,9.5l-.31-.19a89.28,89.28,0,0,0,37.47,14.47,90,90,0,0,0,13.41.92,100.24,100.24,0,0,0,13.33-1.06,98.4,98.4,0,0,0,25.38-7.43,78.45,78.45,0,0,0,11.66-6.31,2,2,0,0,0-2-3.47Z" transform="translate(290.29 171.11)"/></g><g class="cls-86"><path class="cls-90" d="M327,612.38a39.25,39.25,0,0,0-1.83-3.61c-.66-1.15-1.36-2.27-2.09-3.37a60.64,60.64,0,0,0-4.84-6.25,62.85,62.85,0,0,0-5.58-5.61c-1-.84-2-1.72-3.06-2.53s-2.09-1.63-3.2-2.33A71.89,71.89,0,0,0,277,577.12l-2-.35-2-.23c-1.31-.14-2.62-.32-3.94-.42-2.63-.14-5.27-.35-7.9-.29a117.82,117.82,0,0,0-15.72,1.07,169.43,169.43,0,0,0-30.43,7.27l.4-.11c-1.49.31-3.17.62-4.78.9s-3.26.52-4.89.75q-4.92.69-9.87,1.09a159.32,159.32,0,0,1-19.77.43,117.73,117.73,0,0,1-19.38-2.39,75.43,75.43,0,0,1-18.06-6.13,51.38,51.38,0,0,1-14.85-11,47.31,47.31,0,0,1-9.54-15.59c-.58-1.44-1-2.93-1.51-4.41s-.82-3-1.12-4.56-.57-3.11-.84-4.66-.42-3.14-.51-4.77l-.18-2.36c0-.7,0-1.49,0-2.26,0-1.55.08-3.13.2-4.7a64.64,64.64,0,0,1,1.38-9.32,48.77,48.77,0,0,1,7-16.83,35,35,0,0,1,13.11-11.56,44.35,44.35,0,0,1,17.44-4.49,48.24,48.24,0,0,1,18.13,2.34,38.25,38.25,0,0,1,8.1,3.89,34.82,34.82,0,0,1,6.86,5.8,39.63,39.63,0,0,1,5.34,7.46c.42.65.73,1.38,1.1,2.07s.71,1.39,1,2.12l.94,2.18c.27.72.53,1.44.76,2.17a31.91,31.91,0,0,1,1.49,9,26.41,26.41,0,0,1-1.37,9,17.37,17.37,0,0,1-4.72,7.41,19.8,19.8,0,0,1-8,4.33l-.07,0a1.65,1.65,0,0,0,.73,3.22,25.3,25.3,0,0,0,5.32-1.34,24.18,24.18,0,0,0,2.57-1.13,21.54,21.54,0,0,0,2.4-1.52,22.45,22.45,0,0,0,7.1-8.86,34.15,34.15,0,0,0,1.72-22c-.21-.9-.46-1.8-.73-2.69l-.89-2.57c-.28-.86-.63-1.7-1-2.54s-.67-1.7-1.11-2.52l-1.25-2.46-1.44-2.38c-.46-.81-1-1.54-1.58-2.31a28,28,0,0,0-1.71-2.23,43.43,43.43,0,0,0-18.21-13.05,56.25,56.25,0,0,0-21.86-3.52c-1.85.06-3.69.2-5.58.45-.48.06-.94.13-1.47.23l-1.35.26-2.68.55a51.6,51.6,0,0,0-10.65,3.83,46.41,46.41,0,0,0-9.53,6.41,44.11,44.11,0,0,0-7.55,8.61,59.06,59.06,0,0,0-8.5,20.5A76,76,0,0,0,100,523.68c-.13,1.81-.21,3.62-.2,5.46,0,.92,0,1.83.07,2.82l.21,2.71c.11,1.75.38,3.56.59,5.34s.56,3.57,1,5.34.85,3.54,1.33,5.31,1.11,3.49,1.8,5.2a57,57,0,0,0,11.81,18.73,61.08,61.08,0,0,0,17.85,12.85,85.1,85.1,0,0,0,20.43,6.67,121.46,121.46,0,0,0,21,2.17,168.61,168.61,0,0,0,20.86-.89q5.17-.54,10.32-1.36,2.57-.42,5.13-.91c1.73-.33,3.38-.68,5.19-1.13h.07l.33-.1a161.45,161.45,0,0,1,28.8-7.8,118.44,118.44,0,0,1,14.76-1.48c2.47-.16,4.93-.05,7.39,0,1.23,0,2.45.18,3.68.26l1.84.14,1.82.25,1.83.25c.61.07,1.22.17,1.82.3l3.61.71,3.55.93c1.19.31,2.33.75,3.5,1.11a64.67,64.67,0,0,1,13.28,6.25c1.07.61,2,1.35,3.07,2s2,1.47,2.95,2.21a67.42,67.42,0,0,1,5.47,5,56.06,56.06,0,0,1,4.84,5.59c.74,1,1.45,2,2.12,3a34.87,34.87,0,0,1,1.8,3.11l0,.08a1.66,1.66,0,0,0,3-1.4Z" transform="translate(290.29 171.11)"/><path class="cls-91" d="M321.06,629.15a32.1,32.1,0,0,0-1.71-4c-.63-1.29-1.33-2.53-2.07-3.75a51.09,51.09,0,0,0-5.11-6.88,52.4,52.4,0,0,0-6.2-6l-1.7-1.34c-.58-.44-1.18-.83-1.77-1.25-1.17-.85-2.43-1.57-3.67-2.32a57.74,57.74,0,0,0-16.1-6.34,73.88,73.88,0,0,0-17.11-2,100.6,100.6,0,0,0-17,1.43c-2.82.38-5.56,1-8.34,1.61-1.39.26-2.73.7-4.1,1l-4.08,1.11c-2.66.87-5.37,1.68-8,2.61l-7.72,2.83a151.87,151.87,0,0,1-15.22,4.28,161.64,161.64,0,0,1-31.45,4,153,153,0,0,1-15.75-.49,128.06,128.06,0,0,1-15.49-2.47c-1.28-.26-2.53-.65-3.79-1s-2.53-.66-3.76-1.09L127.16,608c-1.22-.45-2.42-.95-3.64-1.42l-1.83-.71c-.6-.26-1.18-.55-1.78-.82l-3.55-1.65-3.46-1.86-1.74-.93c-.58-.31-1.11-.69-1.67-1l-3.33-2.11c-.57-.34-1.09-.75-1.62-1.14l-1.6-1.16L101.33,594a16.8,16.8,0,0,1-1.57-1.21l-3.05-2.55L95.18,589l-1.45-1.37-2.91-2.76C88.93,583,87.15,581,85.26,579l-.06-.06a1.66,1.66,0,0,0-2.6,2,89,89,0,0,0,22.77,24.74c.57.43,1.12.89,1.71,1.28l1.79,1.18c1.19.78,2.37,1.59,3.59,2.34l3.75,2.07c.63.34,1.25.71,1.88,1l1.94.91a97,97,0,0,0,16.07,6l4.16,1c1.38.37,2.8.57,4.19.86,2.8.61,5.63.92,8.46,1.31a136.28,136.28,0,0,0,17,.74,159.26,159.26,0,0,0,33.51-4.5A137.76,137.76,0,0,0,219.69,615l7.62-3c2.49-.95,5-1.76,7.53-2.66,2.53-.74,5.07-1.55,7.62-2.23s5.12-1.36,7.7-1.82a92.67,92.67,0,0,1,15.59-1.94A61.62,61.62,0,0,1,295.92,609a50.72,50.72,0,0,1,12.7,8.84,51.71,51.71,0,0,1,5.21,5.85c.79,1,1.55,2.12,2.24,3.23a34.46,34.46,0,0,1,1.88,3.34l.05.1a1.65,1.65,0,0,0,3.06-1.24Z" transform="translate(290.29 171.11)"/><path class="cls-92" d="M200.41,626.82c-1.46.71-3.11,1.4-4.7,2s-3.23,1.22-4.88,1.74a88.61,88.61,0,0,1-10,2.62,79.27,79.27,0,0,1-10.13,1.48,84,84,0,0,1-10.15.25,88.31,88.31,0,0,1-10-1.1,74.33,74.33,0,0,1-9.74-2.48,76.14,76.14,0,0,1-18-8.8l-.05,0-.21-.13c-2.59-1.41-5.12-2.72-7.7-4s-5.14-2.6-7.76-3.79c-5.23-2.42-10.5-4.77-15.92-6.81-2.68-1-5.41-2-8.15-3s-5.52-1.78-8.35-2.5a73.45,73.45,0,0,0-17.34-2.8,1.66,1.66,0,0,0-.34,3.29h0a97.24,97.24,0,0,1,16,4.78c5.25,1.94,10.4,4.21,15.52,6.54s10.21,4.78,15.23,7.36,10.09,5.13,14.94,7.86l-.25-.16a73.91,73.91,0,0,0,31,12,75,75,0,0,0,11.09.76,82.7,82.7,0,0,0,11-.88,84.58,84.58,0,0,0,10.74-2.37,86.25,86.25,0,0,0,10.26-3.77,64,64,0,0,0,9.64-5.23,1.65,1.65,0,0,0-1.64-2.86Z" transform="translate(290.29 171.11)"/></g><path class="cls-93" d="M1445.13,63.14s-68.75,114.06-68.75,140.63c0,0,0,576.57,23.44,682.82" transform="translate(290.29 171.11)"/><path class="cls-94" d="M1375.89,168.93A954.68,954.68,0,0,1,1263.81,293,247.79,247.79,0,0,0,1278.19,332a44,44,0,0,1-8.36,49.43l-1,.95a14.3,14.3,0,0,0-4.5,10.2c-.14,8.9-1.37,25.32-7.9,37,0,0-40.28,65.11-56.15,92.85a41.63,41.63,0,0,0-5.43,22.68c1.34,28.09,5.18,99.45,10.79,127.5,27.8-12.26,65.63-34.8,67.59-67.24,0,0,29.69-54.3,105.86-62.5,0,0,23.83-391,35.16-429.31C1414.27,113.53,1401,135.72,1375.89,168.93Z" transform="translate(290.29 171.11)"/><path class="cls-94" d="M1110.83,532.87c13.48-18.22,3.33-44.72-3.32-58-15.72,26.51-33.61,58.14-52,93.48l-.35.17C1048,572.19,930.06,632,910.75,610.8c0,0-21.88-19.53-37.12,23.44,0,0-1.74,8.75-3.87,24.11-2.38,17.13-5.23,42.48-6.67,73.16,0,0-20.71,20.7-15.24,52.34,0,0-5.34,28.42,6.25,34.83a9.69,9.69,0,0,0,3.13,1.11s26.17,22.66,19.14,60.94c0,0,80.91,13,186.72-18.75,4-1.19,14.39-5.87,28.91-21.19-17.06-27-19.16-52.64-17.39-70.66.39-3.89,1-7.42,1.58-10.54a89.67,89.67,0,0,1,6.58-19.27c11.07-24.5,6.88-67.4,6.88-67.4-1-15.31-.46-26.08.58-33.62,7-4.81,13.81-9.74,20.23-14.77.69-24.24-1.57-66.42-2.48-82a15.21,15.21,0,0,1,.4-4.21A14.57,14.57,0,0,1,1110.83,532.87Z" transform="translate(290.29 171.11)"/><path class="cls-95" d="M1281.5,342a43.77,43.77,0,0,0-3.31-10A247.79,247.79,0,0,1,1263.81,293l-1.5,1.38S1201.87,346,1170.85,379a148.69,148.69,0,0,0-15.06,19c-8.75,13-26.4,40-48.28,76.89,6.65,13.27,16.8,39.77,3.32,58a14.57,14.57,0,0,0-2.45,5.48,15.21,15.21,0,0,0-.4,4.21c.91,15.55,3.17,57.73,2.48,82-6.42,5-13.2,10-20.23,14.77-1,7.54-1.54,18.31-.58,33.62,0,0,4.19,42.9-6.88,67.4a89.67,89.67,0,0,0-6.58,19.27c-.63,3.12-1.19,6.65-1.58,10.54-1.77,18,.33,43.63,17.39,70.66,14.14-14.91,32.15-39.9,51.89-81.64,7.9-16.71,24.67-70.48,32.48-75.69,0,0,1.79-.51,4.88-1.51,5.2-1.7,14.12-4.83,24.41-9.37-5.61-28.05-9.45-99.41-10.79-127.5a41.63,41.63,0,0,1,5.43-22.68c15.87-27.74,56.15-92.85,56.15-92.85,6.53-11.69,7.76-28.11,7.9-37a14.3,14.3,0,0,1,4.5-10.2l1-.95A43.37,43.37,0,0,0,1281.5,342Z" transform="translate(290.29 171.11)"/><path class="cls-96" d="M896.29,734.24s113.63-40,193.94-94.94c7-4.81,13.81-9.74,20.23-14.77.69-24.24-1.57-66.42-2.48-82a15.21,15.21,0,0,1,.4-4.21c-15,21.87-36.19,28.7-53.19,30.18C1048,572.19,930.06,632,910.75,610.8c0,0-21.88-19.53-37.12,23.44,0,0-1.74,8.75-3.87,24.11C873.06,685.33,880.91,731.22,896.29,734.24Z" transform="translate(290.29 171.11)"/><path class="cls-97" d="M1108.38,538.35a14.57,14.57,0,0,1,2.45-5.48c13.48-18.22,3.33-44.72-3.32-58-15.72,26.51-33.61,58.14-52,93.48l-.35.17C1072.19,567.05,1093.4,560.22,1108.38,538.35Z" transform="translate(290.29 171.11)"/><path class="cls-98" d="M1110.83,532.87a14.57,14.57,0,0,0-2.45,5.48,15.21,15.21,0,0,0-.4,4.21c.91,15.55,3.17,57.73,2.48,82a268.11,268.11,0,0,0,23.34-20.37s31.12-34.76,55.59-94.66c0,0,56.78-107.29,73.44-138,0,0,7.46-11.47,18.67-29.48a43.77,43.77,0,0,0-3.31-10A247.79,247.79,0,0,1,1263.81,293l-1.5,1.38S1201.87,346,1170.85,379a148.69,148.69,0,0,0-15.06,19c-8.75,13-26.4,40-48.28,76.89C1114.16,488.15,1124.31,514.65,1110.83,532.87Z" transform="translate(290.29 171.11)"/><path class="cls-99" d="M1281.5,342c26.59-42.68,74.36-122.15,94.39-173.07A954.68,954.68,0,0,1,1263.81,293,247.79,247.79,0,0,0,1278.19,332,43.77,43.77,0,0,1,1281.5,342Z" transform="translate(290.29 171.11)"/><path class="cls-100" d="M1074.61,770.13c-.11.43-.25.86-.35,1.29-.28,1.16-.55,2.32-.8,3.51-2.61,12.45-9,23.87-19,31.81C1040.39,818,1017,827,981.88,812.46a104,104,0,0,0-15.74-5.2c-14.22-3.38-41.32-8.2-68.51-4.24-12.32,1.79-23.9,6.65-34.55,13.09a16.1,16.1,0,0,1-9,2.57,9.69,9.69,0,0,0,3.13,1.11s26.17,22.66,19.14,60.94c0,0,80.91,13,186.72-18.75,4-1.19,14.39-5.87,28.91-21.19C1074.94,813.76,1072.84,788.15,1074.61,770.13Z" transform="translate(290.29 171.11)"/><path class="cls-101" d="M1074.61,770.13c-1.77,18,.33,43.63,17.39,70.66,14.14-14.91,32.15-39.9,51.89-81.64,7.9-16.71,24.67-70.48,32.48-75.69,0,0,1.79-.51,4.88-1.51a273.22,273.22,0,0,0-48.79,18.42C1104.1,714.38,1082.48,739.54,1074.61,770.13Z" transform="translate(290.29 171.11)"/><path class="cls-69" d="M1451.49,49.92l-91.44,1911.4a12.56,12.56,0,0,1-13.14,12c-6.93-.33-10.32-41.23-10-48.16l-2,34.93L1438.77,49.27a6.37,6.37,0,0,1,12.72.65Z" transform="translate(290.29 171.11)"/><rect class="cls-102" x="1435.49" y="23.85" width="19.82" height="31.77" rx="2.04" transform="translate(294.12 98.47) rotate(2.88)"/><path class="cls-93" d="M1793.62,220.31s-52.87,122.24-49.31,148.57c0,0,43.27,511.79,164.36,671.17" transform="translate(290.29 171.11)"/><path class="cls-103" d="M1769.78,274.38s-5.21,4.56-14.38,13.1l-3.16,3A1698.78,1698.78,0,0,0,1612.2,440s-51.5,57.52-78.17,94.53c-1.47,2.05-2.89,4.05-4.2,6a129.79,129.79,0,0,0-9.3,16.4c-11.75,24-102.82,120.86-94.83,207.2,0,.57.09,1.15.16,1.73,0,0-28.85,24.66-55.51,49.77a401.69,401.69,0,0,0-59.86,71.45c-19.93,30.5-46.64,75-52.35,102.22l.33.08c2.42.62,18.81,5.41,24.21,23a70,70,0,0,0,4.37,11.3c4.29,8.42,12.3,21.49,21.74,24.53a16,16,0,0,0,8.79-3.77c9.69-7.8,20.52-14.17,32.49-17.6,26.41-7.56,53.91-6.41,68.47-5a103.54,103.54,0,0,1,16.28,3.05c36.71,9.73,58.74-2.33,71.22-15.4a51.41,51.41,0,0,0,10.25-15.83,58.6,58.6,0,0,0,4.27-18.23l.12-1.31c.06-.76.12-1.52.2-2.27,0-.45.13-.89.18-1.34,3.71-31.36,21.76-59.18,48-76.87a273.76,273.76,0,0,1,45.85-24.77c16.85-8.13,74.91-38.85,80.62-78.74a63.4,63.4,0,0,1,9.71-26.5c12.46-18.54,38.75-47.19,87.17-59.11C1792.4,704.53,1763.68,313.83,1769.78,274.38Z" transform="translate(290.29 171.11)"/><path class="cls-69" d="M1686.41,552.37s5.33.42,5.67,8.18a3.7,3.7,0,0,0,2.72,3.13l1.26.33,2.75-25.16a3,3,0,0,0-1-3c-2-1.77-5.69-1.36-7,.79L1680,556.26C1681.29,554.38,1683.46,552.22,1686.41,552.37Z" transform="translate(290.29 171.11)"/><path class="cls-104" d="M1712.19,568.26,1696.06,564l-1.26-.33a3.7,3.7,0,0,1-2.72-3.13c-.34-7.76-5.67-8.18-5.67-8.18-3-.15-5.12,2-6.45,3.89a15.11,15.11,0,0,0-1.5,2.66l-.15.36-2.25,5.29-5.81,13.65a7.38,7.38,0,0,0,8.24,10.13l33.3-6.68a6.88,6.88,0,0,0,.4-13.41Z" transform="translate(290.29 171.11)"/><path class="cls-105" d="M1752.24,290.44A1698.78,1698.78,0,0,0,1612.2,440s-51.5,57.52-78.17,94.53c22.32-19.49,51.55-41.71,59-31.75,0,0,23.44,50,82.82-28.12,0,0,43.34-62.41,64.77-127a248,248,0,0,0,9.55-37.59c1.91-7.86,3.68-15.46,5.22-22.65Z" transform="translate(290.29 171.11)"/><path class="cls-106" d="M1521.21,959.77a80.85,80.85,0,0,1,3.63-18.87c4.1-13,5.11-29.33,5.11-42.22a192,192,0,0,1,12.22-68.61,218.29,218.29,0,0,1,11.81-26s23.26-49,53.83-107.33c3-5.8,6.16-11.7,9.33-17.65l2.91-5.43c-1.26,1.57-2.53,3.12-3.81,4.67-5,6.06-10.2,11.93-15.39,17.53-9.14,9.85-18.28,18.87-26.53,26.6-.29.28-.6.54-.9.81a106.45,106.45,0,0,1-40.92,23.39c-2.26.69-4.55,1.29-6.86,1.83A105.21,105.21,0,0,1,1510,751c-1.06.08-2.12.18-3.18.27-29.29,2.51-60.18,8.36-81.1,12.87,0,.57.09,1.15.16,1.73,0,0-28.85,24.66-55.51,49.77a395.37,395.37,0,0,0-36.29,39.18c12.52,32.37,56.8,113.65,186.62,119.35.06-.76.12-1.52.2-2.27,0-.45.13-.89.18-1.34A106.72,106.72,0,0,1,1521.21,959.77Z" transform="translate(290.29 171.11)"/><path class="cls-107" d="M1399.29,992.92c-79.51-27.66-123.29-13.12-140.82-3.57,2.42.62,18.81,5.41,24.21,23a70,70,0,0,0,4.37,11.3c4.29,8.42,12.3,21.49,21.74,24.53a16,16,0,0,0,8.79-3.77c9.69-7.8,20.52-14.17,32.49-17.6,26.41-7.56,53.91-6.41,68.47-5a103.54,103.54,0,0,1,16.28,3.05c36.71,9.73,58.74-2.33,71.22-15.4a51.41,51.41,0,0,0,10.25-15.83C1474.74,1012.89,1399.29,992.92,1399.29,992.92Z" transform="translate(290.29 171.11)"/><path class="cls-104" d="M1334.06,854.78a392.87,392.87,0,0,0-23.57,32.27c-19.93,30.5-46.64,75-52.35,102.22l.33.08c17.53-9.55,61.31-24.09,140.82,3.57,0,0,75.45,20,117,.75a58.6,58.6,0,0,0,4.27-18.23l.12-1.31C1390.86,968.43,1346.58,887.15,1334.06,854.78Z" transform="translate(290.29 171.11)"/><path class="cls-108" d="M1510,751a105.21,105.21,0,0,0,15.66-2.43c2.31-.54,4.6-1.14,6.86-1.83a106.45,106.45,0,0,0,40.92-23.39c.3-.27.61-.53.9-.81,8.25-7.73,17.39-16.75,26.53-26.6,5.19-5.6,10.37-11.47,15.39-17.53,1.28-1.55,2.55-3.1,3.81-4.67l1.76-3.29q4.73-8.76,9.31-17.67,7.43-14.34,14.54-29c34.4-70.94,63-147.11,81.24-222.5,4-16.51,8.89-35,13.73-53.52-21.43,64.55-64.77,127-64.77,127C1616.48,552.8,1593,502.8,1593,502.8c-7.46-10-36.69,12.26-59,31.75-1.47,2.05-2.89,4.05-4.2,6a129.79,129.79,0,0,0-9.3,16.4c-11.75,24-102.82,120.86-94.83,207.2,20.92-4.51,51.81-10.36,81.1-12.87C1507.86,751.14,1508.92,751,1510,751Z" transform="translate(290.29 171.11)"/><path class="cls-69" d="M1539.92,630.41s-27.08,1-35.42,18.75c0,0,1,29.17,16.15,16.15,0,0,21.35-25.53,32.29,9.89,0,0,10.42,44.27-18.75,50.52,0,0-9.38,1-9.38,12.5a11,11,0,0,0,7.69,8.48,15.71,15.71,0,0,0,6.38.38s22-4.42,34.54-23.77a52.12,52.12,0,0,0,7.65-20.5S1580.54,635.1,1539.92,630.41Z" transform="translate(290.29 171.11)"/><path class="cls-69" d="M1624.59,587.67a9.41,9.41,0,0,0-11.56-4c-33.89,13.19-43.42,29.53-43.42,29.53-13.54,31.77,19.27,37,19.27,37-10.28,33.5,1.82,43.12,12,45.7a30.11,30.11,0,0,0,7,.88c3-5.8,6.16-11.7,9.33-17.65l-.9-.76c-16.26-14.46-3.33-26.87,4.6-32.39a5.23,5.23,0,0,1,7.62,1.79l2.66,5q7.43-14.34,14.54-29Zm-9.36,44.93c-4.93,4.3-16.73,12.39-24.79-.11,0,0-9.79-12.58,10.75-25.4a4,4,0,0,1,5.74,1.69l9.29,19A4.06,4.06,0,0,1,1615.23,632.6Z" transform="translate(290.29 171.11)"/><path class="cls-69" d="M1527.25,754.24l-1.61-5.71-24.56-87.29a7.09,7.09,0,0,0-8.37-5c-62.44,14.34-51.23,60.64-51.23,60.64,9.82,28.19,43.81,21.35,55.73,18a4.47,4.47,0,0,1,5.49,3l4.1,13.36,2.82,9.21a5.08,5.08,0,0,0,6.84,3.19l7.89-3.35A5.07,5.07,0,0,0,1527.25,754.24Zm-37.32-37.6c-8.61,1.4-27.81,2.85-30.22-11.23,0,0-3.32-19.95,23.58-24.92a4.11,4.11,0,0,1,4.76,3.3l5.28,28A4.12,4.12,0,0,1,1489.93,716.64Z" transform="translate(290.29 171.11)"/><path class="cls-69" d="M1791.78,218.88,2117.52,2264a12.56,12.56,0,0,1-24.8,4l-27-190.55L1779.21,220.87a6.36,6.36,0,0,1,12.57-2Z" transform="translate(290.29 171.11)"/><rect class="cls-102" x="1773.82" y="194.28" width="19.82" height="31.77" rx="2.04" transform="translate(279.37 452.71) rotate(-9)"/><path class="cls-109" d="M1769.78,274.38s-5.21,4.56-14.38,13.1l-3.16,3A1698.78,1698.78,0,0,0,1612.2,440s-51.5,57.52-78.17,94.53c-1.47,2.05-2.89,4.05-4.2,6a129.79,129.79,0,0,0-9.3,16.4c-11.75,24-102.82,120.86-94.83,207.19,0,.58.09,1.16.16,1.74,0,0-28.85,24.66-55.51,49.77a401.69,401.69,0,0,0-59.86,71.45c-19.93,30.5-46.64,75-52.35,102.22l.33.08c2.42.62,18.81,5.41,24.21,23a70,70,0,0,0,4.37,11.3c4.29,8.42,12.3,21.49,21.74,24.53a16,16,0,0,0,8.79-3.77c9.69-7.8,20.52-14.17,32.49-17.6,26.41-7.56,53.91-6.41,68.47-5a104.68,104.68,0,0,1,16.28,3c36.71,9.74,58.74-2.32,71.22-15.39a51.41,51.41,0,0,0,10.25-15.83,58.6,58.6,0,0,0,4.27-18.23l.12-1.31c.06-.76.12-1.52.2-2.27,0-.45.13-.89.18-1.34,3.71-31.36,21.76-59.18,48-76.87a273.76,273.76,0,0,1,45.85-24.77c16.85-8.12,74.91-38.85,80.62-78.74a63.31,63.31,0,0,1,9.71-26.49c12.46-18.55,38.75-47.2,87.17-59.12C1792.4,704.53,1763.68,313.83,1769.78,274.38Z" transform="translate(290.29 171.11)"/><path class="cls-110" d="M1375.89,168.93A954.68,954.68,0,0,1,1263.81,293l-1.5,1.38S1201.87,346,1170.85,379a148.69,148.69,0,0,0-15.06,19c-8.75,13-26.4,40-48.28,76.89-15.72,26.51-33.61,58.14-52,93.48l-.35.17C1048,572.19,930.06,632,910.75,610.8c0,0-21.88-19.53-37.12,23.44,0,0-1.74,8.75-3.87,24.11-2.38,17.13-5.23,42.48-6.67,73.16,0,0-20.71,20.7-15.24,52.34,0,0-5.34,28.42,6.25,34.83a9.69,9.69,0,0,0,3.13,1.11s26.17,22.66,19.14,60.94c0,0,80.91,13,186.72-18.75,4-1.19,14.39-5.87,28.91-21.19,14.14-14.91,32.15-39.9,51.89-81.64,7.9-16.71,24.67-70.48,32.48-75.69,0,0,1.79-.51,4.88-1.51,5.2-1.7,14.12-4.83,24.41-9.37,27.8-12.27,65.62-34.81,67.59-67.24,0,0,29.69-54.3,105.86-62.5,0,0,23.83-391,35.16-429.31C1414.27,113.53,1401,135.72,1375.89,168.93Z" transform="translate(290.29 171.11)"/></g></g></g></g></svg>