<svg xmlns="http://www.w3.org/2000/svg" xmlns:xlink="http://www.w3.org/1999/xlink" viewBox="0 0 1967.04 1126.78"><defs><style>.cls-1,.cls-21,.cls-22{fill:none;}.cls-2{isolation:isolate;}.cls-3{clip-path:url(#clip-path);}.cls-4{fill:url(#Degradado_sin_nombre_755);}.cls-5{fill:url(#Degradado_sin_nombre_21);}.cls-6{fill:url(#Degradado_sin_nombre_13);}.cls-7{fill:url(#Degradado_sin_nombre_13-2);}.cls-8{fill:#fff;}.cls-9{fill:#d0b6e5;}.cls-10{fill:url(#Degradado_sin_nombre_13-3);}.cls-11{fill:url(#Degradado_sin_nombre_84);}.cls-12{fill:url(#Degradado_sin_nombre_13-4);}.cls-13{fill:url(#Degradado_sin_nombre_13-5);}.cls-14{fill:url(#Degradado_sin_nombre_13-6);}.cls-15{fill:url(#Degradado_sin_nombre_13-7);}.cls-16{fill:url(#Degradado_sin_nombre_13-8);}.cls-17{fill:url(#Degradado_sin_nombre_13-9);}.cls-18{fill:url(#Degradado_sin_nombre_13-10);}.cls-19{fill:url(#Degradado_sin_nombre_13-11);}.cls-20{fill:url(#Degradado_sin_nombre_13-12);}.cls-21,.cls-22{stroke:#fff;stroke-linecap:round;stroke-linejoin:round;stroke-width:3.46px;}.cls-22{stroke-dasharray:13.74 13.74;}.cls-23{fill:#30162f;}.cls-24{fill:#553152;}.cls-25{fill:#6b3e6a;}.cls-26,.cls-29,.cls-54{mix-blend-mode:multiply;}.cls-27{fill:url(#Degradado_sin_nombre_73);}.cls-28,.cls-29,.cls-48{fill:#63294e;}.cls-30{fill:#d1b7e6;}.cls-30,.cls-31,.cls-48{fill-rule:evenodd;}.cls-31,.cls-47{fill:#ecdff2;}.cls-32,.cls-54{fill:gold;}.cls-33{opacity:0.43;}.cls-34{fill:#ffce00;}.cls-35{fill:url(#Degradado_sin_nombre_9);}.cls-36{fill:url(#Degradado_sin_nombre_9-2);}.cls-37{fill:url(#Degradado_sin_nombre_9-3);}.cls-38{fill:#ce5502;}.cls-39{fill:#ffd800;}.cls-40{fill:#ff9300;}.cls-41{fill:#e66600;}.cls-42{fill:#29161a;}.cls-42,.cls-43{opacity:0.5;}.cls-44{fill:url(#Degradado_sin_nombre_171);}.cls-45{fill:url(#Degradado_sin_nombre_171-2);}.cls-46{fill:#3f1c30;}.cls-47{opacity:0.4;}.cls-49{fill:url(#Degradado_sin_nombre_9-4);}.cls-50{fill:url(#Degradado_sin_nombre_9-5);}.cls-51{fill:url(#Degradado_sin_nombre_9-6);}.cls-52{fill:url(#Degradado_sin_nombre_9-7);}.cls-53{fill:#511b40;}.cls-55{fill:#311352;stroke:#311352;stroke-miterlimit:10;stroke-width:0.95px;}.cls-56{fill:url(#Degradado_sin_nombre_85);}.cls-57{fill:url(#Degradado_sin_nombre_86);}</style><clipPath id="clip-path"><rect class="cls-1" width="1967.04" height="1126.78"/></clipPath><linearGradient id="Degradado_sin_nombre_755" x1="983.52" y1="115.55" x2="983.52" y2="1019.88" gradientUnits="userSpaceOnUse"><stop offset="0.01" stop-color="#ffeb6c"/><stop offset="1" stop-color="#8b62f4"/></linearGradient><linearGradient id="Degradado_sin_nombre_21" x1="996.73" y1="131.1" x2="941.11" y2="1042.66" gradientUnits="userSpaceOnUse"><stop offset="0" stop-color="#d0b6e5"/><stop offset="1" stop-color="#55327a"/></linearGradient><radialGradient id="Degradado_sin_nombre_13" cx="968.47" cy="594.29" r="540.89" gradientUnits="userSpaceOnUse"><stop offset="0.6" stop-color="#fff" stop-opacity="0"/><stop offset="1" stop-color="#fff"/></radialGradient><radialGradient id="Degradado_sin_nombre_13-2" cx="1110.81" cy="76.84" r="14.13" xlink:href="#Degradado_sin_nombre_13"/><radialGradient id="Degradado_sin_nombre_13-3" cx="1602.59" cy="182.4" r="202.6" xlink:href="#Degradado_sin_nombre_13"/><linearGradient id="Degradado_sin_nombre_84" x1="335.31" y1="114.47" x2="335.31" y2="434.42" gradientUnits="userSpaceOnUse"><stop offset="0.01" stop-color="#ffeb6c"/><stop offset="1" stop-color="#ff9300"/></linearGradient><radialGradient id="Degradado_sin_nombre_13-4" cx="333.15" cy="174.95" r="210.6" xlink:href="#Degradado_sin_nombre_13"/><radialGradient id="Degradado_sin_nombre_13-5" cx="518.27" cy="169.39" r="12.05" xlink:href="#Degradado_sin_nombre_13"/><radialGradient id="Degradado_sin_nombre_13-6" cx="496.84" cy="912.95" r="14.68" xlink:href="#Degradado_sin_nombre_13"/><radialGradient id="Degradado_sin_nombre_13-7" cx="484.1" cy="496.8" r="69.4" xlink:href="#Degradado_sin_nombre_13"/><radialGradient id="Degradado_sin_nombre_13-8" cx="1522.87" cy="812.86" r="34.29" xlink:href="#Degradado_sin_nombre_13"/><radialGradient id="Degradado_sin_nombre_13-9" cx="1540.33" cy="457.53" r="34.29" xlink:href="#Degradado_sin_nombre_13"/><radialGradient id="Degradado_sin_nombre_13-10" cx="531.48" cy="347.19" r="17.87" xlink:href="#Degradado_sin_nombre_13"/><radialGradient id="Degradado_sin_nombre_13-11" cx="408.96" cy="384.11" r="12.05" xlink:href="#Degradado_sin_nombre_13"/><radialGradient id="Degradado_sin_nombre_13-12" cx="143.28" cy="386.44" r="6.65" xlink:href="#Degradado_sin_nombre_13"/><radialGradient id="Degradado_sin_nombre_73" cx="964.61" cy="913.42" r="227.17" gradientTransform="translate(0 579.04) scale(1 0.37)" gradientUnits="userSpaceOnUse"><stop offset="0" stop-color="#55327a"/><stop offset="0.25" stop-color="#58357c" stop-opacity="0.98"/><stop offset="0.42" stop-color="#613f85" stop-opacity="0.9"/><stop offset="0.58" stop-color="#715092" stop-opacity="0.77"/><stop offset="0.72" stop-color="#8768a5" stop-opacity="0.59"/><stop offset="0.85" stop-color="#a486be" stop-opacity="0.36"/><stop offset="0.97" stop-color="#c6acdd" stop-opacity="0.08"/><stop offset="1" stop-color="#d0b6e5" stop-opacity="0"/></radialGradient><linearGradient id="Degradado_sin_nombre_9" x1="1044.46" y1="689.94" x2="906.69" y2="715.04" gradientUnits="userSpaceOnUse"><stop offset="0" stop-color="#ffce00"/><stop offset="1" stop-color="#f5801f"/></linearGradient><linearGradient id="Degradado_sin_nombre_9-2" x1="-8067.12" y1="1343.47" x2="-8015.41" y2="1343.47" gradientTransform="matrix(-0.99, 0.1, 0.1, 0.99, -7227.28, 217.16)" xlink:href="#Degradado_sin_nombre_9"/><linearGradient id="Degradado_sin_nombre_9-3" x1="929.64" y1="686.44" x2="832.14" y2="705.85" xlink:href="#Degradado_sin_nombre_9"/><radialGradient id="Degradado_sin_nombre_171" cx="-2549.25" cy="-57.77" r="17.44" gradientTransform="translate(3482.47 1056.87) rotate(9.98)" gradientUnits="userSpaceOnUse"><stop offset="0.06" stop-color="#f5531f"/><stop offset="0.33" stop-color="#f55a1f" stop-opacity="0.79"/><stop offset="1" stop-color="#f5801f" stop-opacity="0"/></radialGradient><radialGradient id="Degradado_sin_nombre_171-2" cx="-2670.45" cy="-56.89" r="17.45" gradientTransform="translate(1583.77 3117.03) rotate(73.09)" xlink:href="#Degradado_sin_nombre_171"/><linearGradient id="Degradado_sin_nombre_9-4" x1="-7548.35" y1="631.86" x2="-7543.21" y2="631.86" gradientTransform="matrix(-1, 0, 0, 1, -6646.84, 0)" xlink:href="#Degradado_sin_nombre_9"/><linearGradient id="Degradado_sin_nombre_9-5" x1="-7575.95" y1="618.64" x2="-7525.24" y2="618.64" gradientTransform="matrix(-1, 0, 0, 1, -6646.84, 0)" xlink:href="#Degradado_sin_nombre_9"/><linearGradient id="Degradado_sin_nombre_9-6" x1="-7585.79" y1="595.27" x2="-7537.63" y2="595.27" gradientTransform="matrix(-1, 0, 0, 1, -6646.84, 0)" xlink:href="#Degradado_sin_nombre_9"/><linearGradient id="Degradado_sin_nombre_9-7" x1="-7570.07" y1="643.44" x2="-7524.69" y2="643.44" gradientTransform="matrix(-1, 0, 0, 1, -6646.84, 0)" xlink:href="#Degradado_sin_nombre_9"/><radialGradient id="Degradado_sin_nombre_85" cx="337.47" cy="71.27" r="161.25" gradientUnits="userSpaceOnUse"><stop offset="0" stop-color="#fff"/><stop offset="1" stop-color="#fff" stop-opacity="0"/></radialGradient><radialGradient id="Degradado_sin_nombre_86" cx="1600.43" cy="50.64" r="154.2" gradientUnits="userSpaceOnUse"><stop offset="0" stop-color="#fff"/><stop offset="0.98" stop-color="#fff" stop-opacity="0"/></radialGradient></defs><g class="cls-2"><g id="Capa_2" data-name="Capa 2"><g id="_4._CAPITULO_4:" data-name="4. CAPITULO 4:"><g class="cls-3"><rect class="cls-4" width="1967.04" height="1126.78"/><circle class="cls-5" cx="968.47" cy="594.29" r="456.61"/><circle class="cls-6" cx="968.47" cy="594.29" r="466.19"/><circle class="cls-7" cx="1110.81" cy="76.84" r="14.13"/><circle class="cls-8" cx="1061.56" cy="192.79" r="7.27"/><circle class="cls-8" cx="1111.85" cy="192.79" r="6.03"/><circle class="cls-8" cx="990.5" cy="194.87" r="8.52"/><circle class="cls-8" cx="1314.04" cy="426.98" r="14.13"/><circle class="cls-8" cx="644.57" cy="361.17" r="9.56"/><circle class="cls-8" cx="1390.92" cy="427.81" r="5.4"/><path class="cls-8" d="M1240.27,387.08a6.45,6.45,0,1,0,6.44,6.44,6.44,6.44,0,0,0-6.44-6.44Z"/><circle class="cls-8" cx="1455.34" cy="437.78" r="7.48"/><circle class="cls-9" cx="1604.75" cy="210.48" r="159.97"/><circle class="cls-10" cx="1604.75" cy="210.48" r="159.97"/><circle class="cls-11" cx="335.31" cy="218.15" r="159.97"/><circle class="cls-12" cx="335.31" cy="218.15" r="159.97"/><circle class="cls-13" cx="518.27" cy="169.39" r="12.05"/><circle class="cls-14" cx="496.84" cy="912.95" r="14.68"/><circle class="cls-15" cx="484.1" cy="496.8" r="69.4"/><circle class="cls-16" cx="1522.87" cy="812.86" r="34.29"/><circle class="cls-17" cx="1540.33" cy="457.53" r="34.29"/><circle class="cls-18" cx="531.48" cy="347.19" r="17.87"/><circle class="cls-19" cx="408.96" cy="384.11" r="12.05"/><circle class="cls-20" cx="143.28" cy="386.44" r="6.65"/><path class="cls-21" d="M711.64,805.49s2.13-1.61,5.27-4.47"/><path class="cls-22" d="M726.45,791.14c14.33-16.91,29.16-45.87-6.35-70.91a26.92,26.92,0,0,0-14.15-5c-6.34-.31-13.35,1.73-12.16,12.64a28,28,0,0,0,10.14,18.4c12,9.93,37.65,24.33,58.47-10.37,0,0,17.14-53.66-77.45-55.87,0,0-99.58-14.94-105.67-97.37,0,0-24.34-96.26,62-136.64,0,0,34.44-25.22,9.76-49.78a15.27,15.27,0,0,0-18.53-2.48,14,14,0,0,0-4.06,3.67,14.45,14.45,0,0,0,1.8,18.83c7.95,7.73,24.25,18.7,40.71.55A96.72,96.72,0,0,1,690,400.3a148.1,148.1,0,0,1,58-21.76,66.77,66.77,0,0,0,30.32-12.23c8.32-6.25,15.52-15,13.51-25.93a10.47,10.47,0,0,0-9.57-8.71c-3.07-.16-6.48,1.12-9.14,6A21.83,21.83,0,0,0,775,361.29c6,7.87,18.46,14.17,43.31-1,0,0,32.09-24.34-2.77-39.28,0,0-28.21-18.26,2.77-40.94,0,0,43.15-23.23,70.81,12.73,0,0,13.45,33.14,77,21.1a40,40,0,0,0,29.84-24c4.49-11.17,4-25.07-14.78-36.84-7.3-4.57-17.1-3.18-22.29,3.71-4.31,5.72-4.89,14.17,9.8,25.17a32.5,32.5,0,0,0,21.42,6.73c8.86-.55,19.6-5,26.5-20.93"/><path class="cls-21" d="M1019,261.31q1-3.1,1.77-6.68"/><path class="cls-23" d="M1051.94,251.26l18.12-19.73-3.88-10.14s-11.68,1.65-12,2.64-1.31,14.14-1.48,16.44l-.75,10.79"/><path class="cls-24" d="M1140.77,151.79a2,2,0,0,0-2.1-.49l-122.34,45.39a2,2,0,0,0-.14,3.64l22,10.16a5.92,5.92,0,0,1,3.33,4.21l7.1,35.53a2,2,0,0,0,3.68.55L1063.51,230a2,2,0,0,1,1.48-1,1.9,1.9,0,0,1,1.69.6l27.82,29.56a2,2,0,0,0,1.44.62l.36,0a2,2,0,0,0,1.46-1.19l43.41-104.58A2,2,0,0,0,1140.77,151.79Z"/><path class="cls-25" d="M1139.89,151.27,1040,211.84a6,6,0,0,1,1.51,2.86l7.1,35.53a2,2,0,0,0,3.68.55L1063.51,230a1.83,1.83,0,0,1,.32-.36l0-.09,76.91-77.72A2,2,0,0,0,1139.89,151.27Z"/><g class="cls-26"><ellipse class="cls-27" cx="964.61" cy="913.42" rx="260.92" ry="86.58"/></g><path class="cls-28" d="M1119.24,813.23s27.38,23.82,67.46,22.92c0,0-14,35.86-93.51,21.2C1093.19,857.35,1077.16,829.26,1119.24,813.23Z"/><path class="cls-29" d="M1104.82,820.54c-23.5,16-11.63,36.81-11.63,36.81,26.42,4.87,45.6,4.16,59.45,1C1134.74,851.47,1115.47,832.29,1104.82,820.54Z"/><path class="cls-30" d="M881.84,532.8c-43.09-45.56-159.74-96.53-210.64-45.33-99.44,100,143.73,221.94,229.8,223.29,82.82,1.3,61-93.21-19.16-178Z"/><path class="cls-31" d="M711,508.68c-2.88,9.42,35.15,24.55,38.56,16.17,3.24-8.06-35.49-26-38.56-16.17ZM845.5,548.32c-1.19,3.73,5.89,6,7.21,2.74s-6.07-6.6-7.21-2.74ZM736.77,564c-1.18,3.72,5.94,6.06,7.21,2.74,1.31-3.12-6-6.6-7.21-2.74Zm69.05-29.2c-1.11,3.67,5.95,6,7.28,2.74s-6.07-6.6-7.28-2.74ZM703.2,573c-1.12,3.73,5.95,6,7.27,2.74s-6.07-6.6-7.27-2.74Zm61.24,13.36c-2.24,7.4,11.89,12.06,14.48,5.49,2.57-6.32-12.07-13.2-14.48-5.49Zm17.88-25.94c-.71,9.89,39.83,16,41.22,7,1.26-8.57-40.46-17.33-41.22-7Zm7.32-53.33c-2.89,9.49,35.15,24.62,38.56,16.18,3.17-8-35.5-26-38.56-16.18ZM714,486.27c-2.3,7.39,14.79,13.53,17.46,6.9,2.56-6.31-15-14.68-17.46-6.9Zm-31.95,22.86c-2.31,7.46,14.79,13.54,17.39,7,2.56-6.31-15.05-14.69-17.39-7Zm24.52,23.49c-2.31,7.46,14.79,13.53,17.38,7,2.56-6.31-15-14.68-17.38-7Zm61-7.82c-3,9.49,18.86,17.27,22.21,8.88,3.24-8.06-19.15-18.67-22.21-8.88Zm-31.94,18.08c-2.89,9.49,26.39,20.63,29.8,12.26,3.16-8-26.73-22.06-29.8-12.26Zm8.54-52.06c-2.88,9.43,26.38,20.63,29.79,12.26,3.18-8.08-26.72-22.12-29.79-12.26Z"/><path class="cls-31" d="M700.63,449.25c44.63-29.56,97.79.87,103.94,14.75-10.21-2.47-28.12-12.75-51.08-16.37-16.06-2.57-35.33.53-52.86,1.62Zm24.58-26c23.46-15.55,51.38.46,54.66,7.78-5.33-1.3-14.77-6.71-26.87-8.61-8.46-1.33-18.58.28-27.79.83Z"/><path class="cls-30" d="M1029.69,532.8c43.09-45.56,159.74-96.53,210.63-45.33,99.45,100-143.73,221.94-229.79,223.29-82.82,1.3-61-93.21,19.16-178Z"/><path class="cls-31" d="M1215.58,515c-1.84-10.17-42.48,2.92-40.26,11.33,2.36,8.73,42-1.63,40.26-11.33Zm-138.31,22.88c-.65-4-8.34-1.49-7.49,1.83s8.22,2,7.49-1.83Zm106,28.84c-.73-4-8.41-1.43-7.49,1.83.85,3.45,8.21,2,7.49-1.83Zm-65-37.44c-.72-4-8.41-1.49-7.55,1.83s8.21,2,7.55-1.83Zm97.17,50.55c-.73-4-8.41-1.49-7.56,1.84s8.21,2,7.56-1.84Zm-62.42,5.76c-1.44-8-16.82-2.91-15,3.67,1.77,6.84,16.37,4,15-3.67Zm-14.57-27.93c.5-10.3-42-6.72-41.77,2,.28,9.06,41.26,8,41.77-2Zm-.73-53.82c-1.84-10.1-42.42,3-40.26,11.33,2.36,8.79,42-1.56,40.26-11.33Zm77.59-11.46c-1.45-8-19.94-1.86-18.18,4.72,1.84,6.91,19.56,2.91,18.18-4.72Zm28.9,26.61c-1.38-7.94-19.87-1.79-18.1,4.79,1.76,6.84,19.48,2.9,18.1-4.79Zm-27.2,20.31c-1.38-7.95-19.88-1.8-18.11,4.78,1.77,6.84,19.49,2.91,18.11-4.78Zm-59.58-15.23c-1.84-10.09-25.36-2.31-23.13,6.1,2.3,8.73,24.9,3.67,23.13-6.1ZM1187,545.93c-1.84-10.09-33.23.18-31.07,8.52,2.36,8.73,32.78,1.26,31.07-8.52Zm-2.1-52.71c-1.84-10.16-33.23.12-31.07,8.52,2.36,8.73,32.78,1.19,31.07-8.52Z"/><path class="cls-31" d="M1210.9,449.25c-17.53-1.09-36.8-4.19-52.86-1.62-23,3.62-40.88,13.9-51.08,16.37,6.15-13.88,59.31-44.31,103.94-14.75Zm-24.58-26c-9.22-.55-19.34-2.16-27.79-.83-12.1,1.9-21.54,7.31-26.87,8.61,3.27-7.32,31.2-23.33,54.66-7.78Z"/><path class="cls-32" d="M1043.53,827.67c40-33.64,47.53-88.26,19-126l-1.68-.63c-3.76-1.35-7.44-2.48-11-3.43,14.18,34.29,3.73,76.32-29.1,104-34.42,29-82.58,32.94-117.37,12.46q-1.33-.78-2.64-1.62,1.65,4.5,3.71,8.8a101.29,101.29,0,0,0,6,10.75C946.82,862,1004.05,860.89,1043.53,827.67Z"/><path class="cls-32" d="M1008.79,791.71c31.16-26.23,38.63-67.72,19.73-98.29a110.9,110.9,0,0,0-14.58-.92,127.3,127.3,0,0,1-23.33-.23,110.92,110.92,0,0,1-19.67-3.85,99.43,99.43,0,0,1-10.3-3.63c-8.6-3.6-36.84,18.84-42.67,25.83-17.82,21.36-22.24,48.72-23,57.24a111.61,111.61,0,0,0-.37,11.5,105.5,105.5,0,0,0,1.09,13.07,74.79,74.79,0,0,0,7.44,6.16C933,820.1,977.55,818,1008.79,791.71Z"/><path class="cls-28" d="M1056,837.31c37.83-31.84,50.2-80.14,34.73-120.29a113.63,113.63,0,0,0-28.17-15.4c28.51,37.79,21,92.41-19,126-39.48,33.22-96.71,34.32-133.08,4.23a113.31,113.31,0,0,0,25.75,28.29C974.75,873.91,1021.36,866.45,1056,837.31Z"/><path class="cls-28" d="M1020.8,801.51c32.83-27.63,43.28-69.66,29.1-104a149.93,149.93,0,0,0-21.38-4.14c18.9,30.57,11.43,72.06-19.73,98.29S933,820.1,903.17,798.59a74.79,74.79,0,0,1-7.44-6.16,100.47,100.47,0,0,0,5.06,19.92q1.31.84,2.64,1.62C938.22,834.45,986.38,830.48,1020.8,801.51Z"/><path class="cls-32" d="M1119.49,749.55A105.94,105.94,0,0,0,1090.72,717c15.47,40.15,3.1,88.45-34.73,120.29-34.63,29.14-81.24,36.6-119.79,22.88a135.44,135.44,0,0,0,38.33,21l2,.71a142.08,142.08,0,0,0,19.66,5.19c27.47-1,56.49-11.79,80.62-32.1C1111.64,825.7,1126.83,784.54,1119.49,749.55Z"/><path class="cls-28" d="M1128.89,772.35a99.4,99.4,0,0,0-9.4-22.8c7.34,35-7.85,76.15-42.64,105.43-24.13,20.31-53.15,31.08-80.62,32.1a130,130,0,0,0,61-3,157.77,157.77,0,0,0,30-19.9c22.41-18.85,37.55-42.11,44.84-66A88,88,0,0,0,1128.89,772.35Z"/><path class="cls-32" d="M1087.24,864.22a157.77,157.77,0,0,1-30,19.9c17-5,27-11.84,27-11.84,35.57-23.78,47-50.4,47.81-74C1124.79,822.11,1109.65,845.37,1087.24,864.22Z"/><ellipse class="cls-32" cx="1022.43" cy="735.12" rx="16.77" ry="21.52" transform="translate(-54.89 83.1) rotate(-4.53)"/><g class="cls-33"><path class="cls-8" d="M996.23,703.92s113.38-24,128.07,82.89C1124.3,786.81,1083,711,996.23,703.92Z"/></g><ellipse class="cls-28" cx="950.07" cy="692.96" rx="61.44" ry="84.28" transform="translate(-82.09 129.52) rotate(-7.48)"/><path class="cls-34" d="M953.38,598.19l1.76,8,1.78,8c.6,2.66,1.21,5.32,1.83,8,.31,1.32.62,2.62.94,3.92l.48,1.92.49,1.87a17.52,17.52,0,1,1-34.41,2.74l0-.32.22-2.2.24-2.14c.17-1.41.33-2.82.51-4.21q.53-4.18,1.08-8.32l1.12-8.26,1.16-8.25a11.56,11.56,0,0,1,22.74-.88Z"/><path class="cls-32" d="M950.54,666.2H930.1a16,16,0,0,0-13.8,8l-10.22,17.7a15.93,15.93,0,0,0,0,15.94l10.22,17.7a15.94,15.94,0,0,0,13.8,8h20.44a15.94,15.94,0,0,0,13.8-8l10.22-17.7a16,16,0,0,0,0-15.94l-10.22-17.7A16,16,0,0,0,950.54,666.2Z"/><path class="cls-28" d="M947.83,700c.4-.14.65-.25.65-.25h0l-.71.24Z"/><path class="cls-28" d="M932,722.52h0s0,0,0,0Z"/><path class="cls-28" d="M954.79,706.46a10,10,0,0,0-1.6-2.8,12.1,12.1,0,0,0-2.4-2.28,9.05,9.05,0,0,0-3-1.42h-.07a6.75,6.75,0,0,0,.72-.24,9.32,9.32,0,0,0,4.31-3,9.16,9.16,0,0,0,1.81-5.85,10.65,10.65,0,0,0-1-4.75,10,10,0,0,0-2.92-3.6,13.87,13.87,0,0,0-4.46-2.26,19.72,19.72,0,0,0-5.64-.77h-5.22a28,28,0,0,0-3,.18c-1.11.12-2.21.29-3.26.5s-2.05.44-3,.66-1.63.42-2.14.58V712.6q0,8.4,8.06,9.91h0a21.51,21.51,0,0,0,3.93.33h4.66a18,18,0,0,0,5.61-.87,13.87,13.87,0,0,0,4.71-2.6,12.56,12.56,0,0,0,3.23-4.24,13.39,13.39,0,0,0,1.2-5.76A8.55,8.55,0,0,0,954.79,706.46Zm-22.33-10.58v-8.81l1.87-.29a12.84,12.84,0,0,1,1.81-.17h3.22a11.52,11.52,0,0,1,2.4.26,6.77,6.77,0,0,1,2.12.84,4.48,4.48,0,0,1,1.53,1.53,4.39,4.39,0,0,1,.6,2.35,4.3,4.3,0,0,1-2,4,8.58,8.58,0,0,1-2.37.95l-.69.13a12.29,12.29,0,0,1-1.86.15h-6.59v-.93ZM945,713.53c-1.12,1-2.86,1.46-5.21,1.46h-3.53a4.79,4.79,0,0,1-2.11-.43l-.07,0h0l-.16-.1a2.92,2.92,0,0,1-.32-.21,2.65,2.65,0,0,1-.63-.62,2.15,2.15,0,0,1-.43-1.29v-8.87h6.84q3.76,0,5.55,1.32c1.19.89,1.79,2.5,1.79,4.85A5,5,0,0,1,945,713.53Z"/><path class="cls-8" d="M842.83,399.43c1.87-.17,3.75-.32,5.63-.47l-5.63.46Z"/><path d="M848.46,399l-5.63.46h0c1.87-.17,3.75-.32,5.63-.47Z"/><path class="cls-8" d="M842.27,399.47l.56,0h0Z"/><path d="M842.83,399.42l-.54.05.54,0Zm-.54.05h0Z"/><path class="cls-8" d="M923.28,393.61c-.21.83-.4,1.69-.58,2.56C922.92,395.27,923.11,394.42,923.28,393.61Z"/><path d="M923.28,393.61c-.21.83-.4,1.69-.58,2.56.22-.9.41-1.75.58-2.56Z"/><path class="cls-8" d="M842.23,399.48h0Z"/><path d="M842.29,400v0m0-.54h0Zm0,0h0Z"/><path class="cls-8" d="M974.56,407.66c6.11,4.37,11.67,8.77,16.71,13.11C986.23,416.43,980.67,412,974.56,407.66Z"/><path d="M974.56,407.66c6.11,4.37,11.67,8.77,16.71,13.11-5-4.34-10.6-8.74-16.71-13.11Z"/><path class="cls-8" d="M959.55,400c.71.22,1.41.46,2.07.7C961,400.42,960.26,400.18,959.55,400Z"/><path d="M959.55,400c.71.22,1.41.46,2.07.7-.66-.24-1.36-.48-2.07-.7Z"/><path class="cls-8" d="M908.61,397h0Z"/><path d="M908.61,397h0Z"/><path class="cls-8" d="M922.46,397.16Z"/><path d="M922.43,397.16h0Zm0,0h0Z"/><path class="cls-8" d="M922.43,397.16c-3.93-.07-8.26-.12-12.88-.14C914.17,397,918.5,397.09,922.43,397.16Z"/><path d="M909.55,397c4.62,0,9,.07,12.88.14-3.93-.07-8.26-.12-12.88-.14Z"/><path class="cls-8" d="M958.45,399.63a45,45,0,0,0-12.7-1.78s-3.46-.17-9.41-.36c5.95.19,9.41.36,9.41.36A45,45,0,0,1,958.45,399.63Z"/><path d="M936.34,397.49c5.95.19,9.41.36,9.41.36s-3.46-.17-9.41-.36Zm9.8.36Zm0,0Zm0,0h0Zm0,0a44.85,44.85,0,0,1,12.23,1.76,44.85,44.85,0,0,0-12.23-1.76Zm12.23,1.76h0Zm0,0h0Zm0,0h0Zm0,0h0Z"/><path class="cls-8" d="M835.17,400.15h0Z"/><path d="M835.17,400.15h0Z"/><polygon class="cls-8" points="835.14 400.15 835.14 400.15 835.14 400.15 835.14 400.15"/><path d="M-2432.33-154.25"/><path class="cls-8" d="M908.93,397h0Z"/><path d="M908.93,397h0Zm.13,0h0Zm.06,0h0Z"/><path class="cls-35" d="M981.58,631.18c3.66,3.92,7.1,7.79,10.57,11.76s6.86,7.93,10.19,12c6.67,8.12,13.23,16.39,19.44,25.07a232.88,232.88,0,0,1,17.46,27.81c1.31,2.56,2.58,5.21,3.74,8a66.14,66.14,0,0,1,3.07,9.32,35.54,35.54,0,0,1,1,12.64l-.12,1c-.05.33-.13.71-.2,1.06-.16.72-.29,1.4-.51,2.15s-.5,1.53-.79,2.28a23.41,23.41,0,0,1-8.33,10.44l1.75-1.36-.7.63-.51.43-.91.76c-.62.52-1.13.88-1.7,1.32-1.13.89-2.2,1.58-3.31,2.34s-2.2,1.39-3.3,2.07l-1.66,1-1.67.89c-1.12.59-2.24,1.19-3.36,1.75l-3.41,1.54c-2.27,1.08-4.59,1.85-6.91,2.73a119.17,119.17,0,0,1-28.4,6l-7.15.49c-2.38.1-4.73,0-7.11,0-4.77.12-9.39-.45-14.08-.79l-1.76-.14-1.72-.25-3.44-.52-6.89-1c-4.51-.93-9-2-13.49-3a19,19,0,0,1,8.28-37.18c.42.09.83.2,1.24.32l1.12.33,10.74,3.19,5.4,1.21,2.71.62,1.35.31,1.35.2,5.41.83c.9.11,1.81.34,2.7.39l2.69.22c1.79.13,3.6.36,5.39.44l5.34.07a89.73,89.73,0,0,0,20.72-2.55c1.62-.47,3.32-.82,4.87-1.42l2.39-.81,2.28-.93,1.14-.47,1.08-.52c.7-.35,1.48-.67,2.11-1s1.37-.73,1.92-1.09l.83-.5.32-.21.08,0,0,0,0,0-.11.12,1.76-1.37a6.6,6.6,0,0,0-2.06,2.46,3.57,3.57,0,0,0-.24.6,1.83,1.83,0,0,0-.12.46,1.7,1.7,0,0,0,0,.28s0,.1,0,.11v0c.07.14.12-.26.16-.72a12.27,12.27,0,0,0-.14-2,36.14,36.14,0,0,0-1.28-5.54c-.61-2-1.35-4.13-2.18-6.26a210.72,210.72,0,0,0-13-26.09c-5-8.67-10.32-17.31-15.9-25.81-2.8-4.25-5.61-8.5-8.48-12.72s-5.82-8.44-8.72-12.5l-.06-.09a8.53,8.53,0,0,1,13.19-10.76Z"/><path class="cls-36" d="M920.17,768.46c13-6.73,17.94-22.76,11.86-36.12-2.93-6.44-8.31-13.17-18-17.84,0,0-19.9-8.83-20.84,11.83,0,0-11.85,8.46-5.24,18.54,0,0-8.79,8.72-.55,16.57,0,0,1,13.48,18.12,9.88A25.49,25.49,0,0,0,920.17,768.46Z"/><path class="cls-37" d="M907.08,641.33c-1.37,2-2.77,4.15-4.14,6.26s-2.68,4.29-4,6.46c-2.63,4.33-5.13,8.75-7.58,13.17a293.32,293.32,0,0,0-13.14,27.16c-1.93,4.59-3.7,9.22-5.18,13.86a112.76,112.76,0,0,0-3.6,13.76,42.16,42.16,0,0,0-.69,12.41,11.44,11.44,0,0,0,1.14,4,3,3,0,0,0,1.36,1.4l-2.11-1.35-.29-.15,0,0s0,0,0,0l.18,0,.5.05a5.18,5.18,0,0,0,1.05,0,4,4,0,0,0,1.64-.6,7.94,7.94,0,0,0,1.59-1.45,15.4,15.4,0,0,0,1.86-2.77,36,36,0,0,0,3.12-8.79,75.22,75.22,0,0,0,1.65-10.87,152.36,152.36,0,0,0-.06-23.78,233.37,233.37,0,0,0-3.21-24.51,19.5,19.5,0,1,1,38.63-2.41l0,.27c-.6,9.09-1.15,18.19-2.16,27.38-.49,4.6-1.06,9.22-1.81,13.86s-1.56,9.33-2.69,14.06c-.59,2.37-1.19,4.73-1.92,7.13s-1.5,4.8-2.43,7.23A63.61,63.61,0,0,1,897,747.79a40.54,40.54,0,0,1-6.54,7.08,31,31,0,0,1-9.32,5.45A28.41,28.41,0,0,1,870.11,762a29.3,29.3,0,0,1-5.39-.77c-.88-.21-1.75-.46-2.64-.76-.44-.16-.88-.32-1.35-.51l-.74-.31-.41-.19-.66-.31-.14-.07a9.39,9.39,0,0,1-2-1.28,25.74,25.74,0,0,1-4.64-5.15,27.36,27.36,0,0,1-3-5.83,34.53,34.53,0,0,1-2-11.06,65.9,65.9,0,0,1,2.52-18.27c2.94-11.09,7.37-20.94,11.93-30.61,2.3-4.81,4.77-9.51,7.25-14.17s5.07-9.26,7.71-13.81,5.3-9.06,8-13.55c1.35-2.25,2.73-4.48,4.12-6.72s2.76-4.42,4.24-6.76A8.51,8.51,0,0,1,907.31,641l-.19.28Z"/><path class="cls-38" d="M1047.94,569.49s-54.26,38-147-11.86c0,0-64.61-42.87-56.17-107.59,0,0,19.7-21.18,56.2-23.18,0,0,41.26-1,69.69,13.3,0,0,36,19.12,56.21,35.57,0,0,30.66,18.83,30.43,41.21C1057.27,516.94,1057.65,556.81,1047.94,569.49Z"/><ellipse class="cls-28" cx="951.76" cy="495.49" rx="100.52" ry="109.07" transform="translate(237.98 1296.67) rotate(-75.8)"/><path class="cls-39" d="M928.11,486.06S919,452.38,896.6,445.67a22.62,22.62,0,0,0-17.47,1.92c-9,5-23,18.17-30.28,52.49,0,0-23.79,35.33,2.33,69.22A111.64,111.64,0,0,0,873,593.37s52.94,43.36,111.74,12.29c0,0,29.33-9.23,38.8-40.42,7.91-26-2.59-40-2.59-40,5.37-18.07-5.36-56.94-33.82-67.93a33.61,33.61,0,0,0-20.9-1.15C956.2,458.92,941.24,466.28,928.11,486.06Z"/><path class="cls-8" d="M886.54,371.57q-1.47,1.73-3,3.74h0Q885.08,373.3,886.54,371.57Z"/><path d="M886.54,371.57l0,0,0,0Zm0,0h0Zm0,0c-1,1.15-2,2.38-3,3.71h0c1-1.33,2-2.56,3-3.71Z"/><path class="cls-8" d="M945.05,368.1c.85-.94,1.67-1.82,2.47-2.65C946.72,366.28,945.9,367.16,945.05,368.1Z"/><path d="M947.52,365.45c-.8.83-1.62,1.71-2.47,2.65.85-.94,1.67-1.82,2.47-2.65Z"/><path class="cls-8" d="M942.27,371.31c.91-1.09,1.79-2.11,2.66-3.08C944.06,369.2,943.18,370.22,942.27,371.31Z"/><path d="M944.93,368.23c-.86,1-1.75,2-2.65,3.07.9-1.08,1.79-2.1,2.65-3.07Zm-2.65,3.07h0Z"/><path class="cls-8" d="M947.69,365.27c.78-.8,1.53-1.54,2.26-2.24C949.22,363.73,948.47,364.47,947.69,365.27Z"/><path d="M950,363h0Zm0,0c-.72.69-1.47,1.44-2.25,2.23.78-.79,1.53-1.54,2.25-2.23Z"/><path class="cls-40" d="M1040.93,489.3s-.35-1.09-1.13-3.06c-2.56-6.47-9.87-22.58-25.36-41.94-1-1.26-2-2.52-3.11-3.8l-.22-.27c-.69-.82-1.38-1.64-2.1-2.46-1.58-1.82-3.23-3.67-5-5.52-4.52-4.88-9.55-9.87-15.14-14.89-.8-.72-1.61-1.44-2.43-2.15a45,45,0,0,0-9.65-6.25c-.63-.32-1.3-.63-2-.93l-1.06-.45a44.44,44.44,0,0,0-12.42-3.18s-3.42-.56-9.31-1.41l-1.21-.17-2-.28-4.36-.61-2.38-.32-1.24-.16-2.57-.34h-.05c-3.91-.51-8.2-1-12.79-1.58l-.61-.07-.32,0h0c-15.28-1.76-33.78-3.53-52.38-4.44l-.33,0h-.26c-2.13-.11-4.26-.19-6.39-.27l-.63,0c-1.89-.07-3.78-.12-5.65-.17h-.6c-2.38-.05-4.75-.09-7.09-.11h0c-17.92-.14-34.81.86-47.75,3.84a8.32,8.32,0,0,0-6,5.07c-1,2.76-.91,6.62,3.72,11.07,0,0,40.78,33.33,43.52,35.7,0,0,69.24-58.72,196.18,39.25h0Z"/><path class="cls-40" d="M1061.48,551.21c1.92-3.82,24.55-50.46,14.18-104.11,0,0-7-29.83-38.94-55.23a134.65,134.65,0,0,0-12.5-8.82c-10.18-4.66-32.44-14.14-49.43-16.29a17.72,17.72,0,0,0-9.48,1.38c-6.81,3-18.86,10.84-25.79,29.54-.25.79-.54,1.61-.86,2.47-.11.32-.21.64-.32,1l2.57.34,1.24.16,2.38.32,4.36.61,2,.28,1.21.17c5.89.85,9.31,1.41,9.31,1.41a44.44,44.44,0,0,1,12.42,3.18l1.06.45c.68.3,1.35.61,2,.93a45,45,0,0,1,9.65,6.25c.82.71,1.63,1.43,2.43,2.15,5.59,5,10.62,10,15.14,14.89,1.72,1.85,3.37,3.7,5,5.52.72.82,1.41,1.64,2.1,2.46l.22.27c1.08,1.28,2.11,2.54,3.11,3.8,15.49,19.36,22.8,35.47,25.36,41.94.78,2,1.13,3.06,1.13,3.06h0a67.42,67.42,0,0,1,3.66,7s11.17,27.56,3.36,73.2c0,0,10.72-.51,12.9-8.93a25.48,25.48,0,0,0,.58-8.18Z"/><path class="cls-8" d="M965.09,355.48c-.79-.06-1.58-.1-2.37-.14a9.39,9.39,0,0,0-6.17,2,9.39,9.39,0,0,1,6.17-2C963.51,355.38,964.3,355.42,965.09,355.48Z"/><path d="M962.28,355.33a9.37,9.37,0,0,0-5.73,2,9.37,9.37,0,0,1,5.73-2h.44c.79,0,1.58.08,2.37.14-.79-.06-1.58-.1-2.37-.14Z"/><path class="cls-8" d="M936.43,378.93c-.74,1.05-1.48,2.13-2.23,3.26h0C935,381.07,935.69,380,936.43,378.93Z"/><path d="M936.43,378.93h0Zm0,0c-.74,1-1.48,2.13-2.22,3.25h0c.74-1.12,1.48-2.21,2.21-3.25Z"/><path class="cls-41" d="M858.33,394.47h.6c2.09-3.39,6.62-10.27,11.11-14.26a9,9,0,0,1,4.19-2.08,54.63,54.63,0,0,0,9.3-2.84q1.54-2,3-3.74l.18-.21c.26-.32.53-.63.79-.92l1-1.08a109,109,0,0,0-37.25,25h0C853.58,394.38,856,394.42,858.33,394.47Z"/><path class="cls-42" d="M844.72,450.05c84.29-41.6,196.18,39.24,196.18,39.24C914,391.32,844.72,450.05,844.72,450.05Z"/><path class="cls-41" d="M1061.42,552.38h0l.06-1.17h0Z"/><path class="cls-41" d="M1061.42,552.38h0l.06-1.17h0a327.85,327.85,0,0,0-.08-35.47,96.23,96.23,0,0,0-9.15-36.32c-12.13-25.24-31.25-36.7-43.24-41.65h0c24.56,28.33,31.92,51.53,31.92,51.53h0a67.42,67.42,0,0,1,3.66,7s11.17,27.56,3.36,73.2c0,0,10.72-.51,12.9-8.92h0A25.77,25.77,0,0,0,1061.42,552.38Z"/><path class="cls-28" d="M890.15,391.56l-.33-.05a3.37,3.37,0,0,1-2.6-4c.07-.32,6.51-33-20.77-61.17a3.36,3.36,0,1,1,4.83-4.68c29.87,30.8,22.84,65.78,22.53,67.25A3.35,3.35,0,0,1,890.15,391.56Z"/><path class="cls-28" d="M872.91,326.83h0a9.28,9.28,0,0,0-.25-11.73L863,303.82a9.28,9.28,0,0,0-14.11,0l-2.52,2.95a9.28,9.28,0,0,0,1.8,13.68l12.15,8.32A9.27,9.27,0,0,0,872.91,326.83Z"/><path class="cls-40" d="M926.23,394.5a9,9,0,0,0-5.22-10,35.39,35.39,0,0,1-15.16-11.95,8.84,8.84,0,0,0-7.63-3.7,9.2,9.2,0,0,0-4.3,1.29l0,0a68.15,68.15,0,0,1-10.34,5.18h0a54.63,54.63,0,0,1-9.3,2.84,9,9,0,0,0-4.19,2.08c-4.49,4-9,10.87-11.11,14.26,1.88,0,3.76.1,5.65.17l.63,0c2.13.08,4.26.16,6.39.27h.26l.33,0c18.6.91,37.1,2.68,52.38,4.44.3-.65.61-1.29.92-1.92C925.79,396.42,926,395.42,926.23,394.5Z"/><path class="cls-41" d="M962.72,355.34a9.39,9.39,0,0,0-6.17,2l-.48.36-.62.5c-.65.53-1.36,1.12-2.14,1.79l-.91.81-.23.2-1,.9h0c-.34.31-.68.64-1,1L950,363c-.73.7-1.48,1.44-2.26,2.24l-.17.18c-.8.83-1.62,1.71-2.47,2.65l-.12.13c-.87,1-1.75,2-2.66,3.08l-.08.09c-.92,1.11-1.85,2.27-2.8,3.5l0,.06c-1,1.24-1.92,2.55-2.89,3.93l0,0c-.74,1-1.48,2.14-2.22,3.26h0A35.3,35.3,0,0,1,921,371.59l-.52-.71a8.81,8.81,0,0,0-6.23-3.67,9.22,9.22,0,0,0-2.62.09,119,119,0,0,0-13.36,1.51,8.84,8.84,0,0,1,7.63,3.7A35.39,35.39,0,0,0,921,384.46a9,9,0,0,1,5.22,10c-.19.92-.44,1.92-.74,3-.31.63-.62,1.27-.92,1.92l.32,0,.15,0,.46,0c4.59.54,8.88,1.07,12.79,1.58h.05c.11-.32.21-.64.32-1,.28-.84.56-1.67.86-2.47,6.93-18.7,19-26.51,25.79-29.54a17.72,17.72,0,0,1,9.48-1.38c17,2.15,39.25,11.63,49.43,16.29a134.65,134.65,0,0,1,12.5,8.82c-2.07-5.09-4.56-12.18-11.34-17.75,0,0-23.6-13.38-51.18-17.61l-.08,0-.81-.11c-1.08-.14-3.11-.41-5.85-.71-.79-.07-1.57-.14-2.37-.19S963.51,355.38,962.72,355.34Z"/><path class="cls-40" d="M886.72,371.36l-.18.21q-1.47,1.73-3,3.74a68.15,68.15,0,0,0,10.34-5.18l0,0a9.2,9.2,0,0,1,4.3-1.29,119,119,0,0,1,13.36-1.51,9.22,9.22,0,0,1,2.62-.09,8.81,8.81,0,0,1,6.23,3.67l.52.71a35.3,35.3,0,0,0,13.25,10.6c.75-1.13,1.49-2.21,2.23-3.26l0,0c1-1.38,1.94-2.69,2.89-3.93l0-.06c1-1.23,1.88-2.39,2.8-3.5l.08-.09c.91-1.09,1.79-2.11,2.66-3.08l.12-.13c.85-.94,1.67-1.82,2.47-2.65l.17-.18c.78-.8,1.53-1.54,2.26-2.24l.21-.21c.35-.33.69-.66,1-1h0l1-.9.23-.2.91-.81c.78-.67,1.49-1.26,2.14-1.79l.62-.5.48-.36a9.39,9.39,0,0,1,6.17-2c.79,0,1.58.08,2.37.14s1.58.12,2.37.19c-11.82-1.3-36.83-3.32-55.55.21a41.08,41.08,0,0,0-22.34,12.28l-1.11,1.2-1,1.08C887.25,370.73,887,371,886.72,371.36Z"/><g class="cls-43"><ellipse class="cls-8" cx="1028.36" cy="412.42" rx="15.34" ry="33.11" transform="translate(43.38 919.79) rotate(-49.11)"/></g><path class="cls-28" d="M1025.64,419.16a3.38,3.38,0,0,1-2.61-4.89c.29-.57,29.14-57.11,19.88-92.07a3.37,3.37,0,1,1,6.51-1.72c9.93,37.47-19.17,94.47-20.41,96.88A3.38,3.38,0,0,1,1025.64,419.16Z"/><path class="cls-28" d="M1049.28,328.25h0a9.28,9.28,0,0,0,5.83-10.18l-2.42-14.62a9.27,9.27,0,0,0-12.08-7.29l-3.69,1.23a9.28,9.28,0,0,0-5.51,12.65l6.11,13.39A9.28,9.28,0,0,0,1049.28,328.25Z"/><path class="cls-28" d="M939.35,544.44c-.16-.24-.32-.47-.49-.69s-.34-.45-.52-.67c-.35-.44-.71-.87-1.09-1.29-.74-.84-1.54-1.64-2.36-2.41a38.71,38.71,0,0,0-5.33-4.19l-.73-.46-.73-.44-.74-.43-.76-.4a32.77,32.77,0,0,0-6.39-2.55,30.24,30.24,0,0,0-3.4-.73,26.38,26.38,0,0,0-6.95-.2,27.69,27.69,0,0,0-6.75,1.54l-.81.3c-.27.1-.53.22-.79.34l-.39.17-.2.08-.2.09-.77.38-.19.09-.19.1-.38.2-.37.2-.38.21c-.48.29-1,.57-1.45.88l-.71.47-.69.49c-.47.32-.91.67-1.35,1l-.66.54-.64.54-.62.57-.61.58a.46.46,0,0,0,.56.73h0c.48-.27.94-.57,1.41-.85l.7-.41.35-.21.36-.19c.48-.26.94-.54,1.43-.78l.71-.37.73-.35c.48-.24,1-.44,1.46-.66l.74-.31.37-.15.19-.08.18-.06c1-.38,2-.71,3-1a29.24,29.24,0,0,1,12.4-.79l.78.13.77.15.76.17.76.18c1,.26,2,.58,3,.93s2,.76,2.93,1.19l.73.34.71.35.71.37.7.38a49.32,49.32,0,0,1,5.44,3.45c.44.31.87.64,1.3,1s.85.66,1.28,1l1.25,1,.61.54.6.54h0a.45.45,0,0,0,.67-.58Z"/><path class="cls-28" d="M946.2,558.15a7.16,7.16,0,0,0-.29,4.21,8.7,8.7,0,0,0,5.5,6.26,7.63,7.63,0,0,0,2,.45,7.81,7.81,0,0,0,2-.14.78.78,0,0,0,.61-.91.74.74,0,0,0-.2-.38l-.09-.1c-.46-.48-.93-.8-1.35-1.18s-.84-.67-1.18-1.05a16.49,16.49,0,0,1-1.91-2.06,18.83,18.83,0,0,1-1.58-2.29c-.51-.83-1-1.81-1.59-2.75l-.14-.23a1.05,1.05,0,0,0-1.44-.34A1.09,1.09,0,0,0,946.2,558.15Z"/><path class="cls-8" d="M978.75,484.11c-13.71-2.68-27.35,8.07-30.45,24-2.89,14.81,4.33,28.88,16.37,32.94,6.24-2.87,15.26-6.11,24.06-6A32.34,32.34,0,0,0,998,517.81C1001.06,501.87,992.47,486.78,978.75,484.11Z"/><ellipse class="cls-44" cx="981.81" cy="558.18" rx="18.69" ry="16.09" transform="translate(-32.95 62.41) rotate(-3.58)"/><path class="cls-8" d="M891,475.78c-12.83-5.53-28.44,2.08-34.86,17-4.32,10-3.39,20.78,1.57,28.44,8.07,1.1,15.75,5.67,21.6,10.2,9.54-1.13,18.73-8,23.29-18.62C909,497.88,903.8,481.31,891,475.78Z"/><ellipse class="cls-45" cx="861.27" cy="545.55" rx="16.09" ry="18.69" transform="translate(19.4 1120.6) rotate(-66.69)"/><g class="cls-33"><path class="cls-8" d="M999.2,593.22s34-23.47,15.31-64.43c0,0,9.76-23.14-10-51.73,0,0,9.38,37.32-.65,56C1003.81,533.07,1022.59,561.39,999.2,593.22Z"/></g><ellipse class="cls-28" cx="877.94" cy="492.52" rx="20.24" ry="16.09" transform="translate(78.18 1103.87) rotate(-66.69)"/><ellipse class="cls-46" cx="877.94" cy="492.52" rx="11.92" ry="9.47" transform="translate(78.18 1103.87) rotate(-66.69)"/><circle class="cls-8" cx="875.44" cy="479.58" r="6.88"/><path class="cls-47" d="M873.22,503.47a8.85,8.85,0,0,1-5-6.81l-7,1.75c.71,5.75,3.76,10.6,8.64,12.7l.15.06,3.4-7.61Z"/><ellipse class="cls-28" cx="968.58" cy="503.53" rx="20.24" ry="16.09" transform="translate(288.9 1357.78) rotate(-78.96)"/><ellipse class="cls-46" cx="968.58" cy="503.53" rx="11.97" ry="9.51" transform="translate(288.9 1357.78) rotate(-78.96)"/><circle class="cls-8" cx="963.38" cy="491.42" r="6.88"/><path class="cls-47" d="M959.54,508.56l-6.7,1.69c1.26,5.84,4.74,10.56,9.56,12.47l3.39-7.57A9.31,9.31,0,0,1,959.54,508.56Z"/><path class="cls-48" d="M974.31,474.25c-.08,4.21-11.34,8.15-14.89,1.92s15-9.16,14.89-1.92Z"/><path class="cls-48" d="M878.43,465.16c1.48,3.94,13.41,3.9,14.67-3.16s-17.17-3.64-14.67,3.16Z"/><path class="cls-28" d="M947,564.24a70.64,70.64,0,0,1-7,3.41,72.77,72.77,0,0,1-7.31,2.67c-1.23.38-2.47.73-3.73,1a30.19,30.19,0,0,1-3.68.71,32.88,32.88,0,0,1-7.42.07,35.83,35.83,0,0,1-7.33-1.58c-2.55-.81-5.18-1.63-7.92-2.27a35.87,35.87,0,0,0-4.25-.75,14.66,14.66,0,0,0-4.73.16,7,7,0,0,0-2.61,1.15,5.07,5.07,0,0,0-1.84,2.52,6.23,6.23,0,0,0-.26,2.69,9.54,9.54,0,0,0,.54,2.27,1.37,1.37,0,0,0,1.75.82,1.39,1.39,0,0,0,.9-1.35v0a5.72,5.72,0,0,1,.46-3,1.48,1.48,0,0,1,.67-.56,4.14,4.14,0,0,1,1.15-.27,13.56,13.56,0,0,1,3.32.25c1.2.23,2.43.52,3.66.88,2.48.71,4.95,1.62,7.52,2.5a37.36,37.36,0,0,0,4.13,1.2,38.88,38.88,0,0,0,4.3.69,34.17,34.17,0,0,0,8.69-.23,30.88,30.88,0,0,0,4.23-.93c1.36-.37,2.7-.81,4-1.28a55.22,55.22,0,0,0,7.62-3.49c1.22-.68,2.42-1.39,3.57-2.18a34.39,34.39,0,0,0,3.4-2.53,1.58,1.58,0,0,0-1.8-2.57Z"/><path class="cls-28" d="M934,584.16a37.29,37.29,0,0,1-5.62,1.73,35.59,35.59,0,0,1-5.79.83c-1,.08-2,0-2.92,0s-1.94-.06-2.89-.23a41.34,41.34,0,0,1-5.77-1.11H911a.74.74,0,0,0-.9.55.76.76,0,0,0,.4.85,21.13,21.13,0,0,0,6,2.06,23.93,23.93,0,0,0,3.16.39,26,26,0,0,0,3.18-.06A26.58,26.58,0,0,0,929,588a23.41,23.41,0,0,0,5.72-2.66.69.69,0,0,0-.63-1.21Z"/><path class="cls-49" d="M896.37,628.76c0-.16.07-.31.11-.46a1.45,1.45,0,0,1,2.81.59,10.65,10.65,0,0,0,2.22,7.49C897.51,634.15,896.37,628.76,896.37,628.76Z"/><path class="cls-50" d="M919,630.89a11.3,11.3,0,0,0-.11-2.28c-2-15.76-7.42-16.43-7.42-16.43-11.51-2.34-28.17,5.42-28.17,5.42-2.7,2-4.19,6.1-4.92,11.14-.22-6.49.94-17.88,11.09-21.59l1.28-.48c3.58-1.32,14.05-4.91,22.41-5.27a25.1,25.1,0,0,1,4.31.16,7.23,7.23,0,0,1,5.08,3.27c3.86,6,12.73,22.59-.42,29.35a21.88,21.88,0,0,1-4.64,1.72A10,10,0,0,0,919,630.89Z"/><path class="cls-51" d="M899.62,589.83c3.55-6.37,16.59-5.94,16.59-5.94,7.21-.15,14,.27,16.89,1.72,2.49,1.24,6.25,3,5.82,9.67-.4,6.1-5,7.9-5,7.9-10.29,3.49-13.07-4.5-16.84-5a3.46,3.46,0,0,0-3.87,3l0,.17c-8.36.36-18.83,4-22.41,5.27C894.08,599.45,899.62,589.83,899.62,589.83Z"/><path class="cls-52" d="M878.42,628.74c.73-5,2.22-9.17,4.92-11.14,0,0,16.66-7.76,28.17-5.42,0,0,5.46.67,7.42,16.43a11.3,11.3,0,0,1,.11,2.28,10,10,0,0,1-1.51,5c-1.52,2.29-4.49,4.12-10.26,3.61a9.38,9.38,0,0,1-5.76-3.13,10.65,10.65,0,0,1-2.22-7.49,1.45,1.45,0,0,0-2.81-.59c0,.15-.08.3-.11.46,0,0,1.14,5.39,5.14,7.62a9.38,9.38,0,0,0,5.76,3.13c5.77.51,8.74-1.32,10.26-3.61a21.88,21.88,0,0,0,4.64-1.72c1.33,3.17,1.56,8.72-.21,17.9,0,0-3.78,19.09-28.17,23,0,0-10.3,1.06-13.23-10C880.56,665.14,876.34,643.2,878.42,628.74Z"/><path class="cls-28" d="M821,907.14s-46.12-11.34-57.72,15.55c0,0-19.37,54.7,46.76,35.37a57.67,57.67,0,0,1,17.87-2.25c9.66.28,24.44-1,28.93-10.46C856.85,945.35,873.46,917.41,821,907.14Z"/><circle class="cls-32" cx="838.8" cy="932.7" r="14.03"/><path class="cls-28" d="M1000.36,955a6.9,6.9,0,0,1-2.18-.35C805.45,892.79,774.76,836.72,773.55,834.36a7.13,7.13,0,0,1,3.25-9.69c15.79-7.6,47.56-6.19,94.41,4.17,34,7.53,64.23,17.25,64.53,17.34a7.14,7.14,0,1,1-4.39,13.59C902,850.28,825.29,829.32,791.78,835c5.34,5.93,15.21,15.27,32.38,26.91,28,19,81.68,48.16,178.38,79.2a7.14,7.14,0,0,1-2.18,13.94Z"/><ellipse class="cls-32" cx="1000.55" cy="947.47" rx="12.45" ry="9.41" transform="translate(-228.13 1571.29) rotate(-70.36)"/><path class="cls-28" d="M1067.1,914.17l-.19-.31a63.37,63.37,0,0,0-15.25,2.34,37.59,37.59,0,0,0-21.09,14.95c-9.08,13.16-9.53,31.52,1.11,44.68a36.9,36.9,0,0,0,5.89,5.82c7.83,6.21,18.73,9.7,33.55,5h0C1056.28,955.57,1061.41,929.21,1067.1,914.17Z"/><path class="cls-53" d="M1030.57,931.15a45.66,45.66,0,0,1-5.89,2.81,26.68,26.68,0,0,1-9.79,1.66c-17.63,0-23.17,26.55-4.84,32.35a28.94,28.94,0,0,0,7.7,1.23,126,126,0,0,1,13.93,6.63C1021,962.67,1021.49,944.31,1030.57,931.15Z"/><path class="cls-53" d="M1067.1,914.17c-5.69,15-10.82,41.4,4,72.43C1071.22,986.48,1094.14,957.13,1067.1,914.17Z"/><path class="cls-54" d="M852.83,932.7a13.91,13.91,0,0,0-.34-3.05c-11.06-1.25-23.83-.91-22,7.8,0,0,1.9,5.86,13.8,8.16A14,14,0,0,0,852.83,932.7Z"/><path class="cls-29" d="M858.71,930.52c-1.92-.32-4-.62-6.22-.87a14,14,0,0,1-8.19,16,57.47,57.47,0,0,0,11.89.91,12.14,12.14,0,0,0,.66-1.17A20.91,20.91,0,0,0,858.71,930.52Z"/><g class="cls-26"><path class="cls-28" d="M936.58,918.07c-9.72,1.55-16.38,2.92-27.28,4.09l49.48,19.14L987,936C983.43,934.77,940.06,919.27,936.58,918.07Z"/><path class="cls-28" d="M958.78,941.3l-13.29-4.84Q952,938.88,958.78,941.3Z"/></g><path class="cls-28" d="M865.07,940.54q-11.42,0-23.42-.31A7.14,7.14,0,1,1,842,926c186.82,4.8,260.65-48.41,278.9-64.85-9.18-6.05-30.52-11.94-80.08-6.78a612.77,612.77,0,0,0-70.29,11.91,7.14,7.14,0,0,1-3.35-13.88,617.83,617.83,0,0,1,72-12.22c52.74-5.5,84.67-.16,97.61,16.34a7.12,7.12,0,0,1-.09,8.92c-.69.85-17.58,21.09-62.82,40.33C1035.78,922,969.31,940.54,865.07,940.54Z"/><path class="cls-55" d="M217,191.53h6.78v48.35H217Zm3.29,0H248V198H220.24Zm0,21.11h24.11v6.45H220.24Zm0,20.78H248v6.46H220.24Z"/><path class="cls-55" d="M257,205.36h6.78v34.52H257ZM277.6,219a8.18,8.18,0,0,0-1.79-5.65,6.51,6.51,0,0,0-5.09-2,7.09,7.09,0,0,0-5.14,1.76,6.6,6.6,0,0,0-1.81,5l-.7-6.65a12.31,12.31,0,0,1,4.18-4.82,10.12,10.12,0,0,1,5.7-1.7,11.16,11.16,0,0,1,6.18,1.65,10.32,10.32,0,0,1,3.91,4.8,19.37,19.37,0,0,1,1.35,7.62v20.95H277.6Zm20.62,0a7.85,7.85,0,0,0-1.9-5.65,7,7,0,0,0-5.32-2,6.2,6.2,0,0,0-4.88,1.93,7.86,7.86,0,0,0-1.73,5.45L283,212a13.24,13.24,0,0,1,4.31-5.3,10.05,10.05,0,0,1,5.9-1.88,11.8,11.8,0,0,1,6.37,1.65,10.34,10.34,0,0,1,4,4.8,19,19,0,0,1,1.38,7.62v20.95h-6.78Z"/><path class="cls-55" d="M315.31,205.36h6.78v48.55h-6.78Zm9.84,33.47a9.06,9.06,0,0,1-3.52-4.37l.46-7.22a8.29,8.29,0,0,0,.8,3.79,5.5,5.5,0,0,0,2.31,2.39,7.5,7.5,0,0,0,3.68.84,6.65,6.65,0,0,0,5.2-2,8.32,8.32,0,0,0,1.85-5.77V219a8.63,8.63,0,0,0-1.85-5.89,6.58,6.58,0,0,0-5.2-2.09,7.85,7.85,0,0,0-3.68.8,5.33,5.33,0,0,0-2.31,2.34,8,8,0,0,0-.8,3.71l-.69-6.65a11.85,11.85,0,0,1,4.09-4.67,10,10,0,0,1,5.62-1.65,11.48,11.48,0,0,1,6.26,1.65,10.33,10.33,0,0,1,4,4.8,19.19,19.19,0,0,1,1.36,7.62v7.51a18.22,18.22,0,0,1-1.4,7.52,10.38,10.38,0,0,1-4.09,4.77,12.08,12.08,0,0,1-6.45,1.64A10.14,10.14,0,0,1,325.15,238.83Z"/><path class="cls-55" d="M353.85,237.73q-3.17-2.64-3.16-8c0-3.41,1-6,2.89-7.68s4.85-2.56,8.75-2.56h9.81l.46,5.45H362.36a5.81,5.81,0,0,0-4,1.18,4.6,4.6,0,0,0-1.31,3.61,4.49,4.49,0,0,0,1.74,3.89,9.1,9.1,0,0,0,5.31,1.26,15.23,15.23,0,0,0,5.8-.83,2.74,2.74,0,0,0,1.91-2.59l.7,4.85a8,8,0,0,1-2.21,2.3,9.63,9.63,0,0,1-3.05,1.35,16,16,0,0,1-3.89.44Q357,240.37,353.85,237.73Zm18-19.73a7.25,7.25,0,0,0-1.81-5.27,6.78,6.78,0,0,0-5.14-1.88,13.26,13.26,0,0,0-4,.63,12,12,0,0,0-3.51,1.76l-4.95-3.39a13,13,0,0,1,5.17-3.68,18.75,18.75,0,0,1,7.13-1.31,16.55,16.55,0,0,1,7.35,1.51,10.52,10.52,0,0,1,4.65,4.39,14,14,0,0,1,1.6,6.94v22.18h-6.45Z"/><path class="cls-55" d="M385.94,205.36H401.5v6.12H385.94Zm5.5,32.37q-1.94-2.31-1.94-6.83V195.32h6.78V231a3.28,3.28,0,0,0,.5,1.95,1.7,1.7,0,0,0,1.46.68h3.26V240h-3.92C394.78,240,392.74,239.27,391.44,237.73Z"/><path class="cls-55" d="M410.51,195.28l9.51-11.8,4.89,4.06-10.14,11.17Zm.3,10.08h6.78v34.52h-6.78Z"/><path class="cls-55" d="M429.4,237.73q-3.16-2.64-3.16-8,0-5.12,2.89-7.68t8.75-2.56h9.81l.46,5.45H437.91a5.81,5.81,0,0,0-4,1.18,4.6,4.6,0,0,0-1.32,3.61,4.49,4.49,0,0,0,1.75,3.89,9.07,9.07,0,0,0,5.3,1.26,15.26,15.26,0,0,0,5.81-.83,2.74,2.74,0,0,0,1.91-2.59l.7,4.85a8,8,0,0,1-2.21,2.3,9.63,9.63,0,0,1-3.05,1.35,16,16,0,0,1-3.89.44Q432.57,240.37,429.4,237.73Zm18-19.73a7.29,7.29,0,0,0-1.81-5.27,6.78,6.78,0,0,0-5.14-1.88,13.22,13.22,0,0,0-4,.63,12,12,0,0,0-3.51,1.76l-4.95-3.39a12.88,12.88,0,0,1,5.17-3.68,18.75,18.75,0,0,1,7.13-1.31,16.55,16.55,0,0,1,7.35,1.51,10.52,10.52,0,0,1,4.65,4.39,14,14,0,0,1,1.6,6.94v22.18h-6.45Z"/><path class="cls-55" d="M1486.66,232.31a24.55,24.55,0,0,1-10.91-5.32l4.23-5.19a19.11,19.11,0,0,0,6.08,3.59,21.12,21.12,0,0,0,7.22,1.2c3.5,0,6.22-.65,8.14-2a6.24,6.24,0,0,0,2.9-5.5v0a5.81,5.81,0,0,0-1.32-4,7.68,7.68,0,0,0-3.39-2.19,36.92,36.92,0,0,0-5.37-1.32.71.71,0,0,0-.21,0,.78.78,0,0,1-.22,0l-.5-.1a52.29,52.29,0,0,1-7.9-1.88,11.18,11.18,0,0,1-5.2-3.83q-2.16-2.78-2.16-7.89v0a14,14,0,0,1,2-7.66,12.64,12.64,0,0,1,5.87-4.84,25.53,25.53,0,0,1,14.38-1.1,25.9,25.9,0,0,1,5,1.68,29.25,29.25,0,0,1,4.8,2.81l-3.86,5.39a22.38,22.38,0,0,0-5.5-3,15.68,15.68,0,0,0-5.5-1c-3.31,0-5.87.66-7.7,2a6.5,6.5,0,0,0-2.74,5.6v0a5.33,5.33,0,0,0,1.41,3.92,8.56,8.56,0,0,0,3.52,2.11,52.63,52.63,0,0,0,5.87,1.42l.25,0a1.23,1.23,0,0,1,.25.05l.37.06.36.07a40.1,40.1,0,0,1,7.33,2.13,11.4,11.4,0,0,1,4.93,4,12.67,12.67,0,0,1,2,7.5V219a13.32,13.32,0,0,1-2.09,7.57,13.12,13.12,0,0,1-6.07,4.79,25,25,0,0,1-9.59,1.64A32,32,0,0,1,1486.66,232.31Z"/><path class="cls-55" d="M1520,184.13h6.79v6.78H1520Zm0,13.83h6.79v34.52H1520Z"/><path class="cls-55" d="M1537.1,198h6.79v34.52h-6.79Zm20.62,13.6a8.14,8.14,0,0,0-1.8-5.65,6.47,6.47,0,0,0-5.08-2,7.09,7.09,0,0,0-5.14,1.76,6.6,6.6,0,0,0-1.81,5l-.7-6.65a12.21,12.21,0,0,1,4.17-4.82,10.18,10.18,0,0,1,5.71-1.7,11.18,11.18,0,0,1,6.18,1.65,10.32,10.32,0,0,1,3.91,4.8,19.38,19.38,0,0,1,1.34,7.62v20.95h-6.78Zm20.62,0a7.85,7.85,0,0,0-1.9-5.65,7,7,0,0,0-5.32-2,6.23,6.23,0,0,0-4.89,1.93,7.9,7.9,0,0,0-1.73,5.45l-1.36-6.65a13.24,13.24,0,0,1,4.31-5.3,10.05,10.05,0,0,1,5.9-1.88,11.82,11.82,0,0,1,6.37,1.65,10.34,10.34,0,0,1,4,4.8,19,19,0,0,1,1.38,7.62v20.95h-6.78Z"/><path class="cls-55" d="M1595.43,198h6.78v48.55h-6.78Zm9.84,33.47a9.06,9.06,0,0,1-3.52-4.37l.46-7.22a8.29,8.29,0,0,0,.8,3.79,5.5,5.5,0,0,0,2.31,2.39,7.47,7.47,0,0,0,3.68.84,6.67,6.67,0,0,0,5.2-2.05A8.31,8.31,0,0,0,1616,219v-7.48a8.62,8.62,0,0,0-1.84-5.89,6.59,6.59,0,0,0-5.2-2.09,7.82,7.82,0,0,0-3.68.8,5.33,5.33,0,0,0-2.31,2.34,8,8,0,0,0-.8,3.71l-.7-6.65a12,12,0,0,1,4.09-4.67,10.08,10.08,0,0,1,5.62-1.65,11.49,11.49,0,0,1,6.27,1.65,10.33,10.33,0,0,1,4,4.8,19.37,19.37,0,0,1,1.36,7.62V219a18.39,18.39,0,0,1-1.4,7.52,10.38,10.38,0,0,1-4.09,4.77,12.08,12.08,0,0,1-6.45,1.64A10.14,10.14,0,0,1,1605.27,231.43Z"/><path class="cls-55" d="M1634,230.33q-3.17-2.64-3.16-8,0-5.12,2.89-7.68t8.75-2.56h9.81l.46,5.45h-10.24a5.81,5.81,0,0,0-4,1.18,4.6,4.6,0,0,0-1.32,3.61,4.49,4.49,0,0,0,1.75,3.89,9.07,9.07,0,0,0,5.3,1.26,15.26,15.26,0,0,0,5.81-.83A2.74,2.74,0,0,0,1652,224l.7,4.85a7.86,7.86,0,0,1-2.22,2.3,9.57,9.57,0,0,1-3,1.35,16,16,0,0,1-3.89.44C1639.26,233,1636.07,232.09,1634,230.33Zm18-19.73a7.34,7.34,0,0,0-1.81-5.28,6.83,6.83,0,0,0-5.14-1.87,13.22,13.22,0,0,0-4,.63,12,12,0,0,0-3.51,1.76l-5-3.39a13,13,0,0,1,5.18-3.68,18.71,18.71,0,0,1,7.13-1.31,16.55,16.55,0,0,1,7.35,1.51,10.52,10.52,0,0,1,4.65,4.39,14,14,0,0,1,1.6,6.94v22.18H1652Z"/><path class="cls-55" d="M1666.06,198h15.56v6.12h-15.56Zm5.5,32.37q-1.95-2.31-2-6.83V187.92h6.79v35.64a3.21,3.21,0,0,0,.5,1.95,1.7,1.7,0,0,0,1.46.68h3.26v6.45h-3.93Q1673.51,232.64,1671.56,230.33Z"/><path class="cls-55" d="M1690.63,187.88l9.51-11.8,4.89,4.06-10.14,11.17Zm.3,10.08h6.78v34.52h-6.78Z"/><path class="cls-55" d="M1709.52,230.33q-3.16-2.64-3.16-8,0-5.12,2.89-7.68c1.93-1.71,4.84-2.56,8.75-2.56h9.81l.46,5.45H1718a5.81,5.81,0,0,0-4,1.18,4.6,4.6,0,0,0-1.32,3.61,4.47,4.47,0,0,0,1.75,3.89,9.07,9.07,0,0,0,5.3,1.26,15.17,15.17,0,0,0,5.8-.83,2.73,2.73,0,0,0,1.92-2.59l.69,4.85a7.71,7.71,0,0,1-2.21,2.3,9.57,9.57,0,0,1-3,1.35,16,16,0,0,1-3.89.44Q1712.67,233,1709.52,230.33Zm18-19.73a7.3,7.3,0,0,0-1.82-5.28,6.79,6.79,0,0,0-5.13-1.87,13.22,13.22,0,0,0-4,.63,12,12,0,0,0-3.51,1.76l-5-3.39a13,13,0,0,1,5.17-3.68,18.8,18.8,0,0,1,7.14-1.31,16.55,16.55,0,0,1,7.35,1.51,10.52,10.52,0,0,1,4.65,4.39,14,14,0,0,1,1.6,6.94v22.18h-6.45Z"/><circle class="cls-56" cx="335.31" cy="218.15" r="159.97"/><circle class="cls-57" cx="1604.75" cy="210.48" r="159.97"/></g></g></g></g></svg>