<svg width="57" height="58" viewBox="0 0 57 58" fill="none" xmlns="http://www.w3.org/2000/svg">
<g clip-path="url(#clip0)">
<path d="M-1.26763e-06 29C-5.68616e-07 44.9916 12.7841 58 28.5 58C44.2159 58 57 44.9916 57 29C57 13.0084 44.2136 1.88206e-06 28.5 2.56892e-06C12.7864 3.25579e-06 -1.96664e-06 13.0084 -1.26763e-06 29ZM52.5848 29C52.5848 42.5116 41.7809 53.5074 28.5 53.5074C15.2191 53.5074 4.41516 42.5116 4.41516 29C4.41516 15.4861 15.2191 4.49262 28.5 4.49262C41.7809 4.49262 52.5848 15.4884 52.5848 29Z" fill="#582D4E"/>
<path d="M31.5466 16.1735L20.5086 27.4051C19.6521 28.2812 19.6521 29.6963 20.5086 30.5725L31.5466 41.8041C32.3722 42.5251 33.593 42.5251 34.4186 41.8041C35.3437 40.9976 35.4518 39.578 34.6592 38.6367L25.1888 29L34.6593 19.3409C35.5159 18.4647 35.5159 17.0496 34.6593 16.1735C33.7983 15.3019 32.4075 15.3019 31.5466 16.1735Z" fill="#582D4E"/>
</g>
<defs>
<clipPath id="clip0">
<rect width="58" height="57" fill="white" transform="translate(0 58) rotate(-90)"/>
</clipPath>
</defs>
</svg>
