<svg width="57" height="58" viewBox="0 0 57 58" fill="none" xmlns="http://www.w3.org/2000/svg">
<g clip-path="url(#clip0)">
<path d="M57 29C57 13.0084 44.2159 -5.58813e-07 28.5 -1.24577e-06C12.7841 -1.93274e-06 -4.38331e-06 13.0084 -5.08233e-06 29C-5.78134e-06 44.9916 12.7864 58 28.5 58C44.2136 58 57 44.9916 57 29ZM4.41516 29C4.41516 15.4884 15.2191 4.49262 28.5 4.49262C41.7809 4.49262 52.5848 15.4884 52.5848 29C52.5848 42.5139 41.7809 53.5074 28.5 53.5074C15.2191 53.5074 4.41516 42.5116 4.41516 29Z" fill="#582D4E"/>
<path d="M25.4534 41.8265L36.4914 30.5949C37.3479 29.7188 37.3479 28.3037 36.4914 27.4275L25.4534 16.1959C24.6278 15.4749 23.407 15.4749 22.5814 16.1959C21.6563 17.0024 21.5482 18.422 22.3408 19.3633L31.8112 29L22.3407 38.6591C21.4841 39.5353 21.4841 40.9504 22.3407 41.8265C23.2017 42.6981 24.5925 42.6981 25.4534 41.8265Z" fill="#582D4E"/>
</g>
<defs>
<clipPath id="clip0">
<rect width="58" height="57" fill="white" transform="translate(57) rotate(90)"/>
</clipPath>
</defs>
</svg>
