<svg width="32" height="54" viewBox="0 0 32 54" fill="none" xmlns="http://www.w3.org/2000/svg">
<rect width="54" height="32" rx="16" transform="matrix(3.64262e-08 -1 -1 -4.99559e-08 32 54)" fill="white"/>
<path d="M16.3536 41.3536C16.1583 41.5488 15.8417 41.5488 15.6464 41.3536L12.4645 38.1716C12.2692 37.9763 12.2692 37.6597 12.4645 37.4645C12.6597 37.2692 12.9763 37.2692 13.1716 37.4645L16 40.2929L18.8284 37.4645C19.0237 37.2692 19.3403 37.2692 19.5355 37.4645C19.7308 37.6597 19.7308 37.9763 19.5355 38.1716L16.3536 41.3536ZM16.5 13L16.5 41L15.5 41L15.5 13L16.5 13Z" fill="#004089"/>
</svg>
