<svg width="43" height="36" viewBox="0 0 43 36" fill="none" xmlns="http://www.w3.org/2000/svg">
<path d="M31.687 0H10.5621L0 17.6038L10.5621 35.2076H31.687L42.2491 17.6038L31.687 0Z" fill="#FFD500"/>
<path d="M31.6869 0H21.1248V35.2076H31.6869L42.249 17.6038L31.6869 0Z" fill="#FFB600"/>
<path d="M17.5446 12.8755C17.3224 12.8754 17.1051 12.9412 16.9203 13.0646C16.7354 13.188 16.5914 13.3634 16.5063 13.5687C16.4212 13.774 16.3989 14 16.4422 14.2179C16.4855 14.4359 16.5925 14.6361 16.7497 14.7933C16.9068 14.9504 17.1071 15.0574 17.325 15.1007C17.543 15.1441 17.7689 15.1218 17.9742 15.0367C18.1795 14.9516 18.355 14.8075 18.4784 14.6227C18.6018 14.4379 18.6676 14.2206 18.6675 13.9983C18.6675 13.8509 18.6386 13.7048 18.5821 13.5686C18.5257 13.4323 18.443 13.3085 18.3388 13.2042C18.2345 13.0999 18.1107 13.0172 17.9744 12.9608C17.8381 12.9044 17.6921 12.8754 17.5446 12.8755Z" fill="white"/>
<path d="M27.9807 8.64917H14.2683C13.7114 8.64917 13.1773 8.8704 12.7835 9.2642C12.3897 9.65799 12.1685 10.1921 12.1685 10.749V24.4598C12.1685 25.0167 12.3897 25.5508 12.7835 25.9446C13.1773 26.3384 13.7114 26.5597 14.2683 26.5597H27.9807C28.5376 26.5597 29.0717 26.3384 29.4655 25.9446C29.8593 25.5508 30.0806 25.0167 30.0806 24.4598V10.7479C30.0803 10.1912 29.8589 9.65736 29.4651 9.26381C29.0714 8.87025 28.5374 8.64917 27.9807 8.64917ZM28.6792 24.4598C28.6789 24.6453 28.6051 24.823 28.474 24.9542C28.3428 25.0853 28.1651 25.1591 27.9796 25.1594H14.2683C14.0828 25.1591 13.9051 25.0853 13.7739 24.9542C13.6428 24.823 13.569 24.6453 13.5687 24.4598V10.7479C13.569 10.5624 13.6428 10.3847 13.7739 10.2535C13.9051 10.1224 14.0828 10.0486 14.2683 10.0483H27.9807C28.166 10.0489 28.3435 10.1228 28.4744 10.2539C28.6053 10.385 28.6789 10.5626 28.6792 10.7479V24.4598Z" fill="white"/>
<path d="M18.4758 15.9688H16.5583V22.1599H18.4758V15.9688Z" fill="white"/>
<path d="M23.3606 15.8594C22.4278 15.8594 21.8017 16.3263 21.5459 16.8115V15.9699H19.6809V22.1589H21.5442V19.0859C21.5442 18.2808 21.7492 17.5011 22.7467 17.5011C23.7314 17.5011 23.7629 18.4217 23.7629 19.1373V22.1589H25.6533V18.7538C25.6533 17.0916 25.3024 15.8594 23.3606 15.8594Z" fill="white"/>
</svg>
