<svg width="35" height="28" viewBox="0 0 35 28" fill="none" xmlns="http://www.w3.org/2000/svg">
<path d="M25.7118 0H8.91159L0.511719 14L8.91159 27.9999H25.7118L34.1117 14L25.7118 0Z" fill="#FFD500"/>
<path d="M25.7114 0H17.3115V27.9999H25.7114L34.1113 14L25.7114 0Z" fill="#FFB600"/>
<path d="M17.2869 6.6665C13.1214 6.6665 9.75 9.71725 9.75 13.4785C9.75 15.6102 10.8334 17.5136 12.5292 18.7587V21.3792L15.0595 19.9842C15.7661 20.1798 16.513 20.2906 17.2936 20.2906C21.4591 20.2906 24.8305 17.2398 24.8305 13.4785C24.8238 9.71725 21.4524 6.6665 17.2869 6.6665ZM18.0473 15.7796L16.116 13.811L12.4148 15.7796L16.4794 11.6077L18.4309 13.5372L22.0917 11.6077L18.0473 15.7796Z" fill="white"/>
</svg>
