<svg width="32" height="33" viewBox="0 0 32 33" fill="none" xmlns="http://www.w3.org/2000/svg">
<path d="M21.788 18.1709V21.659L30.0511 14.3775L21.788 7.07422V10.5624C13.8192 10.5624 4.98842 15.8164 4.98842 26.8912C4.98842 26.8912 9.82434 18.1709 21.788 18.1709Z" stroke="white" stroke-width="1.5" stroke-miterlimit="10" stroke-linecap="round" stroke-linejoin="round"/>
<path d="M17.4211 6.18332C17.2152 6.18332 17.0483 6.01643 17.0483 5.81047C17.0483 5.56373 16.8476 5.36306 16.6009 5.36306C16.395 5.36306 16.228 5.19618 16.228 4.99022C16.228 4.78426 16.395 4.61737 16.6009 4.61737C16.8476 4.61737 17.0483 4.41671 17.0483 4.16996C17.0483 3.964 17.2152 3.79712 17.4211 3.79712C17.627 3.79712 17.794 3.964 17.794 4.16996C17.794 4.41671 17.9946 4.61737 18.2414 4.61737C18.4473 4.61737 18.6142 4.78426 18.6142 4.99022C18.6142 5.19618 18.4473 5.36306 18.2414 5.36306C17.9946 5.36306 17.794 5.56373 17.794 5.81047C17.794 6.01636 17.6271 6.18332 17.4211 6.18332Z" fill="#FFF7E4"/>
<path d="M29.9583 22.8995C29.7524 22.8995 29.5855 22.7326 29.5855 22.5267C29.5855 22.2799 29.3848 22.0792 29.138 22.0792C28.9322 22.0792 28.7652 21.9124 28.7652 21.7064C28.7652 21.5004 28.9322 21.3336 29.138 21.3336C29.3848 21.3336 29.5855 21.1329 29.5855 20.8861C29.5855 20.6802 29.7524 20.5133 29.9583 20.5133C30.1642 20.5133 30.3311 20.6802 30.3311 20.8861C30.3311 21.1329 30.5318 21.3336 30.7786 21.3336C30.9844 21.3336 31.1514 21.5004 31.1514 21.7064C31.1514 21.9124 30.9844 22.0792 30.7786 22.0792C30.5318 22.0792 30.3311 22.2799 30.3311 22.5267C30.3311 22.7325 30.1643 22.8995 29.9583 22.8995Z" fill="#FFF7E4"/>
<path d="M18.4659 28.1234C18.26 28.1234 18.0931 27.9565 18.0931 27.7505C18.0931 27.5038 17.8923 27.3031 17.6457 27.3031C17.4398 27.3031 17.2728 27.1362 17.2728 26.9303C17.2728 26.7243 17.4398 26.5574 17.6457 26.5574C17.8924 26.5574 18.0931 26.3568 18.0931 26.11C18.0931 25.9041 18.26 25.7372 18.4659 25.7372C18.6718 25.7372 18.8388 25.9041 18.8388 26.11C18.8388 26.3568 19.0394 26.5574 19.2862 26.5574C19.4921 26.5574 19.659 26.7243 19.659 26.9303C19.659 27.1362 19.4921 27.3031 19.2862 27.3031C19.0395 27.3031 18.8388 27.5038 18.8388 27.7505C18.8388 27.9565 18.6718 28.1234 18.4659 28.1234Z" fill="#FFF7E4"/>
<path d="M13.242 32.3023C13.0362 32.3023 12.8692 32.1355 12.8692 31.9295C12.8692 31.6827 12.6685 31.4821 12.4218 31.4821C12.2159 31.4821 12.049 31.3152 12.049 31.1092C12.049 30.9033 12.2159 30.7364 12.4218 30.7364C12.6685 30.7364 12.8692 30.5357 12.8692 30.289C12.8692 30.083 13.0362 29.9161 13.242 29.9161C13.4479 29.9161 13.6149 30.083 13.6149 30.289C13.6149 30.5357 13.8156 30.7364 14.0623 30.7364C14.2682 30.7364 14.4351 30.9033 14.4351 31.1092C14.4351 31.3152 14.2682 31.4821 14.0623 31.4821C13.8156 31.4821 13.6149 31.6827 13.6149 31.9295C13.6149 32.1355 13.4479 32.3023 13.242 32.3023Z" fill="#FFF7E4"/>
<path d="M1.77279 19.8115C1.67392 19.8115 1.57907 19.7723 1.50912 19.7023L0.665748 18.8588C0.595803 18.7889 0.55658 18.6941 0.55658 18.5952C0.55658 18.4963 0.595877 18.4015 0.665748 18.3316L1.50912 17.4882C1.65475 17.3426 1.89084 17.3427 2.0364 17.4882L2.87984 18.3315C2.94979 18.4015 2.98908 18.4963 2.98908 18.5952C2.98908 18.6941 2.94979 18.7889 2.87992 18.8588L2.0364 19.7023C1.96645 19.7723 1.87167 19.8115 1.77279 19.8115ZM1.4567 18.5953L1.77279 18.9114L2.08889 18.5953L1.77279 18.2793L1.4567 18.5953Z" fill="#FFF7E4"/>
<path d="M12.2204 3.09535C12.125 3.09535 12.0296 3.05896 11.9568 2.9861L11.1134 2.14273C11.0434 2.07279 11.0042 1.97801 11.0042 1.87913C11.0042 1.78025 11.0435 1.6854 11.1134 1.61553L11.9568 0.772085C12.0267 0.70214 12.1215 0.662842 12.2204 0.662842C12.3193 0.662842 12.4142 0.702065 12.4841 0.772085L13.3276 1.61553C13.3975 1.68548 13.4367 1.78025 13.4367 1.87913C13.4367 1.97801 13.3974 2.07286 13.3275 2.14281L12.4841 2.98618C12.4112 3.05896 12.3158 3.09535 12.2204 3.09535ZM11.9043 1.87921L12.2204 2.19523L12.5365 1.87921L12.2204 1.56311L11.9043 1.87921Z" fill="#FFF7E4"/>
</svg>
