<svg width="42" height="60" viewBox="0 0 42 60" fill="none" xmlns="http://www.w3.org/2000/svg">
<path fill-rule="evenodd" clip-rule="evenodd" d="M36.4 60H5.6C2.5074 60 0 57.6639 0 54.7826V15.6522C0 12.7709 2.5074 10.4348 5.6 10.4348H15.4V5.21739C15.4 2.33609 17.9074 0 21 0C24.0926 0 26.6 2.33609 26.6 5.21739V10.4348H36.4C39.4926 10.4348 42 12.7709 42 15.6522V54.7826C42 57.6639 39.4926 60 36.4 60ZM23.8 5.21739C23.8 3.77739 22.5456 2.6087 21 2.6087C19.4544 2.6087 18.2 3.77739 18.2 5.21739V13.0435C18.2 14.4835 19.4544 15.6522 21 15.6522C22.5456 15.6522 23.8 14.4835 23.8 13.0435V5.21739ZM39.2 15.6522C39.2 14.2122 37.9456 13.0435 36.4 13.0435H26.6C26.6 15.9248 24.0926 18.2609 21 18.2609C17.9074 18.2609 15.4 15.9248 15.4 13.0435H5.6C4.0544 13.0435 2.8 14.2122 2.8 15.6522V46.9565H8.1158C8.4392 46.1883 9.0342 44.9361 9.7398 44.0348C9.7748 44.0165 10.927 41.7665 16.737 41.7C16.7454 41.6726 16.751 40.3409 16.7678 40.3604C16.3198 40.097 15.736 39.6874 15.2964 39.2961C14.9394 39.0926 13.671 37.9539 13.2636 35.927C13.1418 35.22 12.5804 31.8848 12.5804 30.493C12.5804 26.357 14.3514 22.17 20.9146 22.17C20.944 22.17 21.0546 22.17 21.084 22.17C27.6472 22.17 29.4182 26.357 29.4182 30.493C29.4182 31.8848 28.8568 35.22 28.735 35.927C28.3276 37.9539 27.0606 39.0926 26.7022 39.2961C26.264 39.6887 25.6802 40.097 25.2308 40.3604C25.249 40.3409 25.256 41.6739 25.2616 41.7C31.073 41.7665 32.2252 44.0165 32.2588 44.0348C32.9644 44.9361 33.5594 46.1883 33.8828 46.9565H39.2V15.6522ZM22.4196 39.767C22.4182 39.7709 22.4182 39.7722 22.4182 39.7722C22.414 39.7722 22.3944 38.7535 22.3944 38.7535C22.3944 38.7535 24.0268 37.9696 25.2378 36.9561C25.9476 36.4122 26.2752 35.1796 26.2752 35.1796C26.467 34.0996 26.6084 31.427 26.6084 30.3496C26.6084 27.66 25.1622 24.767 20.9986 24.767C20.9986 24.767 20.9986 24.7591 20.9986 24.7578V24.767C16.835 24.767 15.3888 27.6613 15.3888 30.3496C15.3888 31.427 15.533 34.0996 15.722 35.1796C15.722 35.1796 16.0496 36.4122 16.7594 36.9561C17.9704 37.9696 19.6028 38.7535 19.6028 38.7535C19.6028 38.7535 19.5832 39.7722 19.5776 39.7722C19.5776 39.7722 19.5776 39.7709 19.5776 39.767C19.5776 39.767 19.6182 41.2617 19.6182 41.7052C19.6182 43.483 17.7072 44.3387 16.506 44.3387C16.5032 44.3387 16.5032 44.3387 16.5018 44.3387C12.8716 44.4874 12.0148 45.6117 12.0078 45.6222C11.7866 45.9522 11.48 46.2809 11.1972 46.9565H30.8042C30.52 46.2809 30.2134 45.9522 29.9894 45.6235C29.981 45.6117 29.1228 44.4887 25.494 44.34C25.4926 44.34 25.4926 44.34 25.4912 44.34C24.29 44.34 22.3776 43.4857 22.3776 41.7065C22.3776 41.2617 22.4196 39.767 22.4196 39.767ZM39.2 49.5652H2.8V54.7826C2.8 56.2226 4.0544 57.3913 5.6 57.3913H36.4C37.9456 57.3913 39.2 56.2226 39.2 54.7826V49.5652ZM30.8 54.7826H26.6C25.8258 54.7826 25.2 54.1996 25.2 53.4783C25.2 52.757 25.8258 52.1739 26.6 52.1739H30.8C31.5742 52.1739 32.2 52.757 32.2 53.4783C32.2 54.1996 31.5742 54.7826 30.8 54.7826ZM19.6 54.7826H11.2C10.4258 54.7826 9.8 54.1996 9.8 53.4783C9.8 52.757 10.4258 52.1739 11.2 52.1739H19.6C20.3742 52.1739 21 52.757 21 53.4783C21 54.1996 20.3742 54.7826 19.6 54.7826ZM19.6 5.21739H22.4V7.82609H19.6V5.21739Z" fill="#40B3C2"/>
</svg>
