<svg width="27" height="26" viewBox="0 0 27 26" fill="none" xmlns="http://www.w3.org/2000/svg">
<path fill-rule="evenodd" clip-rule="evenodd" d="M4.71375 4.74061L12.5887 1.37145C13.1625 1.12228 13.8375 1.12228 14.4113 1.37145L22.2862 4.74061C23.0962 5.08728 23.625 5.86728 23.625 6.72311V11.8148C23.625 17.8273 19.305 23.4498 13.5 24.8148C7.695 23.4498 3.375 17.8273 3.375 11.8148V6.72311C3.375 5.86728 3.90375 5.08728 4.71375 4.74061ZM7.53757 14.7398L10.4513 17.5457C10.8901 17.9682 11.6101 17.9682 12.0376 17.5457L19.4513 10.4065C19.8901 9.98399 19.8901 9.30149 19.4513 8.87899C19.0126 8.45649 18.3038 8.45649 17.8651 8.87899L11.2501 15.249L9.12382 13.2123C8.68507 12.7898 7.97632 12.7898 7.53757 13.2123C7.32691 13.4147 7.20852 13.6895 7.20852 13.9761C7.20852 14.2626 7.32691 14.5374 7.53757 14.7398Z" fill="#09C1CD"/>
</svg>
