<svg width="32" height="20" viewBox="0 0 32 20" fill="none" xmlns="http://www.w3.org/2000/svg">
<path fill-rule="evenodd" clip-rule="evenodd" d="M1.75033 3.66667C0.879492 3.66667 0.166992 2.95417 0.166992 2.08333C0.166992 1.2125 0.879492 0.5 1.75033 0.5H30.2503C31.1212 0.5 31.8337 1.2125 31.8337 2.08333C31.8337 2.95417 31.1212 3.66667 30.2503 3.66667H1.75033ZM0.166992 10C0.166992 10.8708 0.879492 11.5833 1.75033 11.5833H30.2503C31.1212 11.5833 31.8337 10.8708 31.8337 10C31.8337 9.12917 31.1212 8.41667 30.2503 8.41667H1.75033C0.879492 8.41667 0.166992 9.12917 0.166992 10ZM0.166992 17.9167C0.166992 18.7875 0.879492 19.5 1.75033 19.5H30.2503C31.1212 19.5 31.8337 18.7875 31.8337 17.9167C31.8337 17.0458 31.1212 16.3333 30.2503 16.3333H1.75033C0.879492 16.3333 0.166992 17.0458 0.166992 17.9167Z" fill="#707070"/>
</svg>
