<svg width="34" height="28" viewBox="0 0 34 28" fill="none" xmlns="http://www.w3.org/2000/svg">
<path d="M25.2245 0H8.42429L0.0244141 14L8.42429 27.9999H25.2245L33.6243 14L25.2245 0Z" fill="#FFD500"/>
<path d="M25.2246 0H16.8247V27.9999H25.2246L33.6245 14L25.2246 0Z" fill="#FFB600"/>
<path d="M13.9769 10.2397C13.8001 10.2397 13.6273 10.292 13.4803 10.3901C13.3334 10.4883 13.2188 10.6278 13.1511 10.7911C13.0834 10.9543 13.0657 11.134 13.1002 11.3074C13.1346 11.4807 13.2197 11.6399 13.3447 11.7649C13.4697 11.8899 13.6289 11.975 13.8022 12.0095C13.9756 12.0439 14.1553 12.0262 14.3185 11.9585C14.4818 11.8908 14.6213 11.7763 14.7195 11.6293C14.8176 11.4823 14.8699 11.3095 14.8699 11.1327C14.8699 11.0154 14.8469 10.8993 14.802 10.7909C14.7571 10.6826 14.6914 10.5841 14.6084 10.5012C14.5255 10.4182 14.427 10.3525 14.3187 10.3076C14.2103 10.2627 14.0942 10.2397 13.9769 10.2397Z" fill="white"/>
<path d="M22.2769 6.87842H11.3716C10.9287 6.87842 10.504 7.05436 10.1908 7.36754C9.8776 7.68072 9.70166 8.10548 9.70166 8.54838V19.4523C9.70166 19.8952 9.8776 20.32 10.1908 20.6332C10.504 20.9463 10.9287 21.1223 11.3716 21.1223H22.2769C22.7198 21.1223 23.1445 20.9463 23.4577 20.6332C23.7709 20.32 23.9468 19.8952 23.9468 19.4523V8.5475C23.9466 8.10475 23.7705 7.68021 23.4574 7.36723C23.1442 7.05424 22.7196 6.87842 22.2769 6.87842ZM22.8323 19.4523C22.8321 19.5998 22.7734 19.7412 22.6691 19.8455C22.5648 19.9498 22.4235 20.0085 22.276 20.0087H11.3716C11.2241 20.0085 11.0828 19.9498 10.9785 19.8455C10.8742 19.7412 10.8155 19.5998 10.8153 19.4523V8.5475C10.8155 8.40001 10.8742 8.25864 10.9785 8.15435C11.0828 8.05006 11.2241 7.99137 11.3716 7.99114H22.2769C22.4242 7.9916 22.5653 8.0504 22.6694 8.15466C22.7735 8.25892 22.8321 8.40017 22.8323 8.5475V19.4523Z" fill="white"/>
<path d="M14.7178 12.6997H13.1929V17.6234H14.7178V12.6997Z" fill="white"/>
<path d="M18.6022 12.6128C17.8603 12.6128 17.3624 12.9841 17.159 13.37V12.7007H15.6758V17.6227H17.1576V15.1788C17.1576 14.5385 17.3207 13.9184 18.1139 13.9184C18.897 13.9184 18.9221 14.6506 18.9221 15.2197V17.6227H20.4255V14.9147C20.4255 13.5928 20.1464 12.6128 18.6022 12.6128Z" fill="white"/>
</svg>
