<svg width="28" height="21" viewBox="0 0 28 21" fill="none" xmlns="http://www.w3.org/2000/svg">
<path d="M22.0669 8.3636V2.7638C22.0669 1.5347 21.0674 0.535156 19.8382 0.535156H3.12349C1.89439 0.535156 0.894897 1.53464 0.894897 2.7638V13.9069C0.894897 15.136 1.89439 16.1356 3.12354 16.1356H15.6186C16.3486 18.7041 18.7103 20.5928 21.5097 20.5928C22.5871 20.5928 23.6464 20.3093 24.5746 19.7723C24.8407 19.6184 24.9321 19.2777 24.7776 19.0111C24.6236 18.7445 24.2824 18.6526 24.0164 18.8082C23.2579 19.2468 22.3911 19.4785 21.5097 19.4785C18.7445 19.4785 16.4953 17.2292 16.4953 14.4641C16.4953 11.699 18.7446 9.44969 21.5097 9.44969C24.2748 9.44969 26.5241 11.699 26.5241 14.4641V15.0213C26.5241 15.6355 26.0241 16.1356 25.4098 16.1356C24.7955 16.1356 24.2955 15.6355 24.2955 15.0213V12.7926C24.2955 12.4847 24.0463 12.2355 23.7383 12.2355C23.5885 12.2355 23.4538 12.2961 23.3538 12.3922C22.8613 11.9533 22.2196 11.6783 21.5097 11.6783C19.9737 11.6783 18.7239 12.9281 18.7239 14.4641C18.7239 16 19.9737 17.2499 21.5097 17.2499C22.34 17.2499 23.0783 16.8774 23.5892 16.2991C23.9928 16.8725 24.6568 17.2499 25.4099 17.2499C26.639 17.2499 27.6385 16.2504 27.6385 15.0212V14.4641C27.6385 11.2727 25.1858 8.64639 22.0669 8.3636ZM3.12354 1.64945H19.8383C19.8615 1.64945 19.8809 1.66131 19.9038 1.66272L11.939 8.20042C11.6556 8.3789 11.2448 8.34187 11.0603 8.22873L3.05872 1.66262C3.08134 1.66126 3.10056 1.64945 3.12354 1.64945ZM20.9526 8.3636C17.8336 8.64639 15.381 11.2727 15.381 14.4641C15.381 14.6521 15.3925 14.8375 15.4092 15.0213H3.12354C2.50928 15.0213 2.00925 14.5213 2.00925 13.907V2.7638C2.00925 2.60601 2.04409 2.45698 2.10353 2.32086L10.4025 9.12652C10.7268 9.33817 11.0995 9.44974 11.481 9.44974C11.8477 9.44974 12.2062 9.34637 12.5218 9.1505C12.5534 9.13363 12.5833 9.11352 12.6116 9.09012L20.8582 2.32076C20.9177 2.45698 20.9526 2.60601 20.9526 2.76386V8.3636H20.9526ZM21.5097 16.1356C20.588 16.1356 19.8383 15.3858 19.8383 14.4641C19.8383 13.5424 20.588 12.7926 21.5097 12.7926C22.4314 12.7926 23.1812 13.5424 23.1812 14.4641C23.1812 15.3858 22.4314 16.1356 21.5097 16.1356Z" fill="white"/>
</svg>
