<svg width="12" height="13" viewBox="0 0 12 13" fill="none" xmlns="http://www.w3.org/2000/svg">
<path d="M10.1401 0.941895H6.14865C5.89603 0.941895 5.65341 1.04247 5.47467 1.22121L0.279197 6.41573C-0.0930657 6.78799 -0.0930657 7.39143 0.279197 7.76417L4.27065 11.7556C4.64292 12.1279 5.24635 12.1279 5.61862 11.7556L10.8141 6.56111C10.9928 6.38189 11.0934 6.13927 11.0934 5.88617V1.89519C11.0934 1.3685 10.6668 0.941895 10.1401 0.941895ZM8.47184 4.27844C8.07717 4.27844 7.75686 3.95813 7.75686 3.56346C7.75686 3.1688 8.07717 2.84849 8.47184 2.84849C8.8665 2.84849 9.18681 3.1688 9.18681 3.56346C9.18681 3.95813 8.8665 4.27844 8.47184 4.27844Z" fill="#FFCA01"/>
</svg>
