<svg xmlns="http://www.w3.org/2000/svg" viewBox="0 0 421.15 364.73"><defs><style>.cls-1{fill:#ffd304;}.cls-2{fill:#ffb002;}.cls-3{fill:#fff;}</style></defs><g id="Capa_2" data-name="Capa 2"><g id="Capa_1-2" data-name="Capa 1"><polygon class="cls-1" points="105.29 0 0 182.37 105.29 364.73 210.58 364.73 210.58 0 105.29 0"/><polygon class="cls-2" points="421.15 182.37 315.87 0 210.58 0 210.58 364.73 315.87 364.73 421.15 182.37"/><path class="cls-3" d="M304.74,107.57v142.5a10.45,10.45,0,0,0-.36,1.12,20.92,20.92,0,0,1-20.29,17q-68.92.07-137.86,0c-6.76,0-12.21-3-16.4-8.32-2.3-2.9-3.34-6.32-4.25-9.8V107.57a6.28,6.28,0,0,0,.33-.95c1.11-5.6,3.86-10.28,8.69-13.31,2.77-1.75,6.1-2.63,9.17-3.9H286.54c.38.12.75.28,1.13.36A20.18,20.18,0,0,1,301.8,99.86C303.14,102.23,303.78,105,304.74,107.57ZM215.16,254.26h67.52c5.34,0,8.06-2.73,8.06-8.06V111.42c0-5.33-2.72-8-8.07-8h-135c-5.34,0-8.06,2.71-8.06,8.05V246.21c0,5.33,2.73,8,8.07,8Z"/><path class="cls-3" d="M266.27,230.13H245v-1.68c0-11.51,0-23-.05-34.52a40.24,40.24,0,0,0-.59-6.58c-1.2-7.14-6-10.53-13.15-9.45-6.49,1-10.15,5.16-10.91,12.58q-.3,2.91-.31,5.84c0,10.68,0,21.37,0,32.05v1.74H199.12V160.63h20.82v8.89c.26-.14.42-.17.48-.26,4.3-6.57,10.7-9.39,18.25-9.89a30.65,30.65,0,0,1,15.09,2.4c6.21,2.84,9.58,8,10.95,14.41a65,65,0,0,1,1.52,12.5c.19,13.56.09,27.12.09,40.68C266.32,229.56,266.29,229.76,266.27,230.13Z"/><path class="cls-3" d="M163.9,160.6h21.43v69.47H163.9Z"/><path class="cls-3" d="M174.92,125.7a12.64,12.64,0,1,1-12.67,12.62A12.65,12.65,0,0,1,174.92,125.7Z"/></g></g></svg>