<svg width="82" height="82" viewBox="0 0 82 82" fill="none" xmlns="http://www.w3.org/2000/svg">
<path d="M60.19 7.50001C60.19 7.50001 50.64 1.29002 44.9 6.54002C39.17 11.79 29.14 22.78 29.14 22.78C29.14 22.78 32.01 34.24 32.01 34.72C32.01 35.2 22.93 43.32 22.93 44.27C22.93 45.23 6.20999 59.08 6.20999 59.08C6.20999 59.08 3.82001 65.77 3.82001 66.72C3.82001 67.68 4.29999 73.41 4.29999 73.41L38.51 39.2C39.94 37.77 40.45 35.66 39.83 33.74L38.54 29.72C37.46 26.34 38.36 22.63 40.87 20.12L44.9 16.57C45.48 15.99 46.23 15.39 47.07 14.82C50.51 12.48 54.61 11.31 58.76 11.31H64.01L60.19 7.50001Z" fill="#D8EEF1"/>
<path d="M58.01 27.79C60.7825 27.79 63.03 25.5425 63.03 22.77C63.03 19.9975 60.7825 17.75 58.01 17.75C55.2375 17.75 52.99 19.9975 52.99 22.77C52.99 25.5425 55.2375 27.79 58.01 27.79Z" fill="#40B3C2"/>
<path d="M80.35 26.82C78.68 22.56 75.61 16.41 70.49 11.31C65.39 6.22999 59.3 3.25 55.1 1.64C50.48 -0.129995 45.23 0.989991 41.73 4.46999L29.42 16.73C25.77 20.36 24.72 25.95 26.8 30.64C27.45 32.09 28.15 33.52 28.9 34.89L1.88 61.91C1.29 62.5 0.959991 63.3 0.959991 64.13V77.93C0.959991 79.66 2.36001 81.07 4.10001 81.07H17.9C19.63 81.07 21.04 79.67 21.04 77.93V72.29H26.68C28.41 72.29 29.82 70.89 29.82 69.15V63.51H35.46C37.19 63.51 38.6 62.11 38.6 60.37C38.6 58.64 37.2 57.23 35.46 57.23H26.68C24.95 57.23 23.54 58.63 23.54 60.37V66.01H17.9C16.17 66.01 14.76 67.41 14.76 69.15V74.79H7.23001V65.43L35.04 37.62C36.06 36.6 36.25 35.01 35.5 33.78C34.41 31.99 33.42 30.08 32.53 28.09C31.5 25.76 32.02 22.98 33.84 21.17L46.15 8.90999C47.91 7.15999 50.54 6.59998 52.86 7.48998C56.5 8.87998 61.75 11.44 66.07 15.74C70.42 20.07 73.07 25.39 74.52 29.1C75.43 31.41 74.88 34.04 73.11 35.79L60.65 48.19C58.84 50 56.13 50.52 53.75 49.54C51.79 48.72 49.89 47.76 48.11 46.66C46.63 45.75 44.7 46.22 43.8 47.69C42.89 49.17 43.36 51.1 44.83 52C46.89 53.27 49.08 54.38 51.35 55.32C56.08 57.29 61.47 56.23 65.08 52.63L77.54 40.23C81.07 36.73 82.17 31.46 80.35 26.82Z" fill="#40B3C2"/>
</svg>
