<svg xmlns="http://www.w3.org/2000/svg" viewBox="0 0 421.15 364.73"><defs><style>.cls-1{fill:#ffd304;}.cls-2{fill:#ffb002;}.cls-3{fill:#fff;}</style></defs><g id="Capa_2" data-name="Capa 2"><g id="Capa_1-2" data-name="Capa 1"><polygon class="cls-1" points="105.29 0 0 182.37 105.29 364.73 210.58 364.73 210.58 0 105.29 0"/><polygon class="cls-2" points="421.15 182.37 315.87 0 210.58 0 210.58 364.73 315.87 364.73 421.15 182.37"/><path class="cls-3" d="M275.58,118.47A91.26,91.26,0,0,0,210.63,91.6h-.09a92,92,0,0,0,0,184h.1a92,92,0,0,0,65-157.08Zm10.73,90.75a.79.79,0,0,1-.35,0h0q-14.1-.06-28.19,0H247.2c.1-2.31.22-4.61.33-6.9.31-6.17.63-12.55.63-18.8s-.33-12.62-.64-18.79q-.17-3.37-.32-6.81h9.08c9.55,0,19.43,0,29.14,0,.87,0,.95,0,1.21.88a80.82,80.82,0,0,1-.13,49.91c-.14.43-.22.55-.2.55Zm-112.06,0H163.37q-13.85,0-27.68,0c-.87,0-.88,0-1.11-.73a80.65,80.65,0,0,1,0-49.9,6.12,6.12,0,0,1,.26-.71,1.1,1.1,0,0,1,.38,0h0c9.64.05,19.44.05,28.92.05h10.06A249.06,249.06,0,0,0,174.25,209.22Zm60.47-.1H186.44a218.81,218.81,0,0,1,0-51.09h48.28A217.71,217.71,0,0,1,234.72,209.12ZM176.87,141c-.32,1.52-.65,3.09-.85,4.68a1.31,1.31,0,0,1-.05.27,1.19,1.19,0,0,1-.19,0q-13.29,0-26.59,0H140c11.23-20,27.4-33,49.3-39.43C182.42,117.71,179.16,130.14,176.87,141ZM168,221.24l2.19,0c1.73,0,3.52,0,5.29,0a2.57,2.57,0,0,1,.45,0,2.3,2.3,0,0,1,.16.61c2.18,12.43,5,22.21,9,30.77,1.19,2.59,2.58,5.11,3.92,7.54.13.23.26.46.38.69-17.27-3.36-42.79-23.75-49.33-39.6Zm20.32.15h44.53a103.63,103.63,0,0,1-5.67,21.13,104.69,104.69,0,0,1-7,14A20.1,20.1,0,0,1,215,262c-3,2.28-6.17,2.13-9.48-.43-4-3.12-6.51-7.37-9-12.8C192.92,241,190.32,232.31,188.31,221.39Zm82.27-75.49q-12.37,0-24.73,0l-.59,0h0a2,2,0,0,1-.19-.69c-2.35-13.23-5.47-23.57-9.84-32.52-1-2.09-2.17-4.1-3.39-6.23,21.87,6.45,38,19.39,49.29,39.44Zm-26.53,81.35c.41-1.91.8-3.79,1.08-5.72,0-.14,0-.23.05-.3a1.08,1.08,0,0,0,.18,0l26.35,0h9.35a78,78,0,0,1-14.41,19.27c-9.55,9.44-23.12,17.23-34.82,20.14C238.67,249.4,241.85,237.54,244.05,227.25ZM221.51,112.56c6.39,10.45,9.26,22.48,11.35,33.18H188.28c2.55-12.53,5.57-24.6,12.54-35a24,24,0,0,1,4.84-5.23c3.31-2.68,6.57-2.7,9.69-.06A30.14,30.14,0,0,1,221.51,112.56Z"/></g></g></svg>