<svg width="309" height="123" viewBox="0 0 309 123" fill="none" xmlns="http://www.w3.org/2000/svg">
<path d="M225.974 53.0736C225.974 56.8834 224.403 59.5279 221.305 61.007C218.207 62.4861 213.224 63.2032 206.355 63.2032H199.531C199.935 65.8477 201.192 67.9095 203.347 69.4782C205.502 71.047 208.106 71.8089 211.248 71.8089C213.403 71.8089 215.693 71.54 218.028 71.0021C220.362 70.4643 222.383 69.4334 224.044 67.8646H224.403V71.1366C224.403 72.4813 224.178 73.6914 223.684 74.8568C223.191 75.9773 222.338 77.0082 221.17 77.8598C220.003 78.7114 218.432 79.3838 216.456 79.8768C214.526 80.3698 212.101 80.5939 209.273 80.5939C206.669 80.5939 204.11 80.1009 201.641 79.1148C199.171 78.1287 196.971 76.7393 195.041 74.8568C193.11 73.0191 191.584 70.8229 190.417 68.2232C189.249 65.6684 188.666 62.755 188.666 59.5727C188.666 56.0766 189.16 52.9391 190.192 50.1154C191.225 47.2916 192.617 44.9161 194.412 42.9439C196.208 40.9718 198.363 39.4478 200.877 38.417C203.392 37.3861 206.13 36.8482 209.138 36.8482C211.293 36.8482 213.403 37.2068 215.424 37.9687C217.444 38.7307 219.195 39.7616 220.766 41.1511C222.338 42.5405 223.55 44.2437 224.493 46.2607C225.48 48.3225 225.974 50.6084 225.974 53.0736ZM216.187 51.8186C216.187 49.712 215.469 48.1432 214.032 47.0675C212.595 46.0366 210.665 45.4987 208.24 45.4987C206.983 45.4987 205.861 45.7228 204.783 46.2159C203.706 46.7089 202.808 47.3364 202 48.1432C201.237 48.95 200.608 49.8912 200.159 50.967C199.71 52.0427 199.486 53.208 199.441 54.3734L199.351 55.7629H203.975C206.489 55.7629 208.51 55.6732 210.036 55.5388C211.608 55.4043 212.82 55.1354 213.718 54.8216C214.616 54.5079 215.244 54.1045 215.558 53.5666C216.007 53.1632 216.187 52.5357 216.187 51.8186Z" fill="#63294E"/>
<path d="M269.254 53.0736C269.254 56.8834 267.682 59.5279 264.585 61.007C261.487 62.4861 256.503 63.2032 249.634 63.2032H242.81C243.214 65.8477 244.471 67.9095 246.626 69.4782C248.781 71.047 251.385 71.8089 254.528 71.8089C256.683 71.8089 258.973 71.54 261.307 71.0021C263.642 70.4643 265.662 69.4334 267.323 67.8646H267.682V71.1366C267.682 72.4813 267.458 73.6914 266.964 74.8568C266.47 75.9773 265.617 77.0082 264.45 77.8598C263.283 78.7114 261.711 79.3838 259.736 79.8768C257.76 80.3698 255.381 80.5939 252.553 80.5939C249.949 80.5939 247.389 80.1009 244.92 79.1148C242.451 78.1287 240.251 76.7393 238.321 74.8568C236.39 73.0191 234.864 70.8229 233.696 68.2232C232.529 65.6684 231.945 62.755 231.945 59.5727C231.945 56.0766 232.439 52.9391 233.472 50.1154C234.504 47.2916 235.896 44.9161 237.692 42.9439C239.488 40.9718 241.643 39.4478 244.157 38.417C246.671 37.3861 249.41 36.8482 252.418 36.8482C254.573 36.8482 256.683 37.2068 258.703 37.9687C260.724 38.7307 262.474 39.7616 264.046 41.1511C265.617 42.5405 266.829 44.2437 267.772 46.2607C268.76 48.3225 269.254 50.6084 269.254 53.0736ZM259.466 51.8186C259.466 49.712 258.748 48.1432 257.311 47.0675C255.875 46.0366 253.944 45.4987 251.52 45.4987C250.263 45.4987 249.14 45.7228 248.063 46.2159C246.985 46.7089 246.087 47.3364 245.279 48.1432C244.516 48.95 243.888 49.8912 243.439 50.967C242.99 52.0427 242.765 53.208 242.72 54.3734L242.631 55.7629H247.255C249.769 55.7629 251.789 55.6732 253.316 55.5388C254.887 55.4043 256.099 55.1354 256.997 54.8216C257.895 54.5079 258.524 54.1045 258.838 53.5666C259.287 53.1632 259.466 52.5357 259.466 51.8186Z" fill="#63294E"/>
<path d="M156.34 70.3298C156.34 70.3298 156.385 70.3298 156.34 70.3298C156.296 70.285 156.206 70.285 156.161 70.2402C156.206 70.285 156.296 70.3298 156.34 70.3298Z" fill="#63294E"/>
<path d="M154.365 48.5466H154.41L154.365 47.4261V48.5466Z" fill="#63294E"/>
<path d="M173.311 52.4461C173.805 52.2668 174.12 52.1323 174.12 52.1323C173.85 52.222 173.536 52.3116 173.222 52.4012C173.266 52.4461 173.266 52.4461 173.311 52.4461Z" fill="#63294E"/>
<path d="M164.108 49.8913C163.973 50.5188 164.108 51.3255 164.826 52.222C164.153 51.3704 164.018 50.5636 164.108 49.8913Z" fill="#63294E"/>
<path d="M155.757 69.9713C155.892 70.0609 156.027 70.1505 156.161 70.2402C155.712 69.9264 154.994 69.2093 154.994 69.2093C155.173 69.4782 155.443 69.7472 155.757 69.9713Z" fill="#63294E"/>
<path d="M181.886 60.4243C181.437 59.1693 180.764 58.0487 179.911 56.973C179.058 55.8973 178.07 55.0009 176.948 54.1493C175.826 53.3425 174.613 52.7598 173.266 52.4013C173.222 52.4013 173.222 52.4013 173.177 52.3564C173.491 52.2668 173.76 52.1771 174.075 52.0875C176.319 51.2807 178.07 50.0705 179.372 48.3673C180.854 46.4848 181.617 44.0645 181.617 41.1511C181.617 38.9996 181.213 37.0275 180.36 35.3243C179.507 33.5763 178.34 32.0971 176.768 30.9318C175.197 29.7216 173.401 28.7804 171.291 28.1529C169.181 27.5254 166.846 27.2116 164.332 27.2116H157.912C156.835 27.2116 155.622 27.3013 154.231 27.4357C152.839 27.5702 151.537 27.7943 150.19 28.0632C148.888 28.3321 147.676 28.6011 146.509 28.87C145.386 29.1389 144.488 29.4079 143.86 29.5871V67.9991C143.86 74.9016 147.182 78.9355 153.782 80.1905C155.218 80.4595 156.835 80.5939 158.63 80.5939H164.377C166.801 80.5939 169.091 80.2354 171.291 79.5182C173.491 78.8011 175.421 77.7254 177.083 76.2911C178.744 74.8568 180.091 73.1087 181.078 71.047C182.066 68.9852 182.56 66.6096 182.56 63.9652C182.605 62.8895 182.38 61.6793 181.886 60.4243ZM164.826 52.222C164.108 51.3255 163.973 50.5188 164.108 49.8913C164.018 50.5636 164.153 51.3704 164.826 52.222ZM154.365 47.4261V36.5793C155.084 36.4896 155.847 36.3552 156.655 36.2207C157.508 36.0863 158.226 35.9966 158.9 35.9966H162.851C163.838 35.9966 164.826 36.0863 165.814 36.3104C166.801 36.5345 167.654 36.8482 168.418 37.3413C169.181 37.7895 169.809 38.417 170.303 39.2238C170.797 40.0305 171.022 40.9718 171.022 42.0923C171.022 44.3334 170.169 45.9918 168.508 46.9779C167.61 47.5157 166.667 47.8743 165.589 48.1432C165.32 48.188 165.051 48.2777 164.736 48.3225C164.018 48.457 163.255 48.5018 162.447 48.5018H154.32V47.4261H154.365ZM169.854 69.1196C168.463 70.3298 166.308 70.9125 163.434 70.9125H159.079C158.092 70.9125 157.194 70.7332 156.475 70.3746C156.431 70.3746 156.431 70.3298 156.386 70.3298H156.341C156.296 70.3298 156.206 70.285 156.161 70.2402C156.026 70.1505 155.892 70.0609 155.757 69.9712C155.443 69.7471 155.173 69.4782 154.994 69.2093C154.635 68.7163 154.455 68.2232 154.455 67.5957V57.1075V56.7041H162.896C165.993 56.7041 168.283 57.242 169.72 58.3177C171.201 59.3934 171.92 61.3655 171.92 64.2789C171.92 66.2959 171.201 67.9095 169.854 69.1196Z" fill="#63294E"/>
<path d="M287.571 72.6605H285.012C285.012 72.6605 276.347 78.7563 278.368 79.6079C280.388 80.4595 283.351 80.325 283.261 80.2802H286.763H287.751H303.554C305.17 80.2802 306.383 79.7872 307.236 78.8459C308.089 77.9047 308.493 76.8737 308.493 75.7532V72.6157L287.571 72.6605Z" fill="url(#paint0_linear)"/>
<path d="M306.607 38.2825C305.709 37.2964 304.183 36.8034 302.073 36.8034H282.274C279.939 36.8034 278.278 37.2516 277.29 38.148C276.302 39.0445 275.809 40.3443 275.809 42.0923V44.4679H297.897C297.583 45.3643 296.999 46.3952 296.102 47.6054C295.204 48.8155 294.216 49.9809 293.183 51.1462L282.318 63.2929C280.478 65.3098 278.951 67.282 277.694 69.1645C276.437 71.047 275.764 72.9743 275.764 74.8568C275.764 76.6496 276.302 77.9943 277.335 78.9355C277.604 79.2045 277.919 79.4286 278.278 79.6078C280.747 80.1009 282.274 78.8011 283.531 77.5461C284.429 76.6496 285.326 73.8707 286.314 72.0779C286.359 71.9882 287.841 69.4782 288.065 69.1645C289.143 67.775 290.445 66.2511 291.971 64.5927L302.701 52.5805C304.317 50.7877 305.619 49.0396 306.562 47.2468C307.505 45.4539 307.999 43.8852 307.999 42.5405C307.954 40.658 307.505 39.2686 306.607 38.2825Z" fill="url(#paint1_linear)"/>
<path d="M22.7757 65.8925V38.2825L40.1503 48.2777L22.7757 65.8925Z" fill="#FF9200"/>
<path d="M64.7084 10.1346L47.7826 5.69733L48.4561 19.4575L64.7084 10.1346Z" fill="#FFD900"/>
<path d="M9.12732 34.2038L15.9066 23.1777L21.1594 31.2455L9.12732 34.2038Z" fill="#FFD900"/>
<path d="M8.99264 25.1947L4.18879 21.0711L2.9317 25.5981L8.99264 25.1947Z" fill="#FF9200"/>
<path d="M38.3096 11.0759L44.8195 22.0124L34.2241 28.2425L38.3096 11.0759Z" fill="#FFB700"/>
<path d="M29.1958 28.2425L23.494 24.8809L27.4448 18.8748L29.1958 28.2425Z" fill="#F4C000"/>
<path d="M4.77242 38.4618L0.507324 37.4309L1.8542 32.8591L4.77242 38.4618Z" fill="#FFC900"/>
<path d="M44.0114 5.02501L39.6116 5.38358L39.432 0.632507L44.0114 5.02501Z" fill="#F4C000"/>
<path d="M14.7842 45.6332L13.4822 41.4648L18.1065 40.2547L14.7842 45.6332Z" fill="#FFC900"/>
<path d="M52.811 25.3291C52.811 26.4496 51.9131 27.3461 50.7907 27.3461C49.6683 27.3461 48.7704 26.4496 48.7704 25.3291C48.7704 24.2086 49.6683 23.3121 50.7907 23.3121C51.9131 23.3121 52.811 24.2086 52.811 25.3291Z" fill="#FF9200"/>
<path d="M29.7345 66.6545C29.7345 67.775 28.8366 68.6714 27.7142 68.6714C26.5918 68.6714 25.6939 67.775 25.6939 66.6545C25.6939 65.534 26.5918 64.6375 27.7142 64.6375C28.8366 64.5927 29.7345 65.534 29.7345 66.6545Z" fill="#FF9200"/>
<path d="M45.044 85.7484C46.1598 85.7484 47.0643 84.8454 47.0643 83.7314C47.0643 82.6175 46.1598 81.7145 45.044 81.7145C43.9282 81.7145 43.0237 82.6175 43.0237 83.7314C43.0237 84.8454 43.9282 85.7484 45.044 85.7484Z" fill="#FF9200"/>
<path d="M52.9456 108.249C52.9456 109.369 52.0477 110.266 50.9253 110.266C49.8029 110.266 48.905 109.369 48.905 108.249C48.905 107.128 49.8029 106.232 50.9253 106.232C52.0477 106.232 52.9456 107.128 52.9456 108.249Z" fill="#FF9200"/>
<path d="M77.2343 32.1868C77.2343 33.3073 76.3364 34.2038 75.214 34.2038C74.0916 34.2038 73.1937 33.3073 73.1937 32.1868C73.1937 31.0663 74.0916 30.1698 75.214 30.1698C76.2915 30.125 77.2343 31.0663 77.2343 32.1868Z" fill="#FF9200"/>
<path d="M103.139 27.5254C102.735 28.3322 102.107 28.9597 101.343 29.3631L105.923 49.0845L123.208 39.1341L103.139 27.5254Z" fill="#FF9200"/>
<path d="M101.568 25.8221C101.568 26.9427 100.67 27.8391 99.5475 27.8391C98.4251 27.8391 97.5272 26.9427 97.5272 25.8221C97.5272 24.7016 98.4251 23.8052 99.5475 23.8052C100.67 23.8052 101.568 24.7016 101.568 25.8221Z" fill="#FF9200"/>
<path d="M110.404 60.5414L86.6658 101.511L94.9823 106.314L118.72 65.344L110.404 60.5414Z" fill="#63294E"/>
<path d="M93.9887 51.3079L70.2505 92.278L78.5669 97.0807L102.305 56.1106L93.9887 51.3079Z" fill="#63294E"/>
<path d="M126.855 69.7361L103.116 110.706L111.433 115.509L135.171 74.5387L126.855 69.7361Z" fill="#63294E"/>
<path d="M70.2753 57.4213C72.6548 58.8107 73.3282 62.1723 71.712 64.9961C70.0957 67.8198 66.8633 68.9404 64.4838 67.5957C62.1043 66.2063 61.4309 62.8447 63.0471 60.0209C64.6185 57.1972 67.8959 56.0318 70.2753 57.4213Z" fill="#63294E"/>
<path d="M72.4753 60.6932C71.6223 62.1275 69.602 62.5309 67.896 61.5448C66.1899 60.5588 65.4716 58.5866 66.3246 57.1523C67.1776 55.718 69.1979 55.3146 70.904 56.3007C72.61 57.2868 73.3284 59.2589 72.4753 60.6932Z" fill="#63294E"/>
<path d="M68.3 67.9991C67.447 69.4334 65.4267 69.8368 63.7206 68.8507C62.0146 67.8647 61.2963 65.8925 62.1493 64.4582C63.0023 63.0239 65.0226 62.6206 66.7287 63.6066C68.4347 64.5927 69.153 66.5648 68.3 67.9991Z" fill="#63294E"/>
<path d="M79.3893 60.7829C77.773 60.2898 76.3813 60.514 75.3038 61.0966C75.1242 61.1863 74.9446 61.3207 74.765 61.4104C74.765 61.4104 74.4507 61.5897 74.0467 61.9931C73.3732 62.6206 72.3406 63.7411 71.5325 65.1306C70.6795 66.4752 70.1856 67.8647 69.9163 68.7611C69.7367 69.3438 69.7367 69.7472 69.7367 69.7472C69.6918 69.9264 69.6918 70.1057 69.6918 70.3298C69.6918 71.5848 70.1407 72.9295 71.3529 74.1397C76.2017 78.9804 78.8505 72.4813 82.9361 72.033C81.4994 67.5509 85.9441 62.7998 79.3893 60.7829Z" fill="#63294E"/>
<path d="M50.0274 60.6036C48.8152 60.9173 47.6479 61.3207 46.5255 61.8586C47.9173 60.8277 49.4887 60.0657 51.2845 59.6623C56.0884 58.497 60.9371 60.0657 64.1247 63.4273C60.3535 60.5139 55.1904 59.3038 50.0274 60.6036Z" fill="#63294E"/>
<path d="M56.8965 48.7259C56.5373 47.5157 56.3129 46.3055 56.2231 45.0954C56.0435 46.7986 56.1782 48.5466 56.7169 50.2947C58.1087 55.0457 61.9697 58.4073 66.4593 59.4831C62.0146 57.6454 58.3781 53.7907 56.8965 48.7259Z" fill="#63294E"/>
<path d="M41.3176 63.2929L44.2808 54.5527L32.6976 60.4243L41.3176 63.2929Z" fill="#FADA0D"/>
<path d="M78.8056 30.4836L95.5967 25.598C95.6416 24.8361 95.866 24.1637 96.2701 23.5811L75.3487 11.5241V28.1977C76.8751 28.2425 78.1771 29.1837 78.8056 30.4836Z" fill="#FF9200"/>
<path d="M99.5924 29.8113H99.5475C99.3679 29.8113 99.1883 29.8112 99.0088 29.7664C98.9639 29.7664 98.8741 29.7216 98.8292 29.7216C98.7394 29.7216 98.6047 29.6768 98.5149 29.632C98.4251 29.632 98.3802 29.5871 98.2904 29.5423C98.2006 29.4975 98.1108 29.4975 98.0211 29.4527C97.9313 29.4079 97.8864 29.4079 97.7966 29.363L91.2867 40.7029L103.858 47.964L99.5924 29.8113Z" fill="#FFC900"/>
<path d="M95.866 27.3909L79.1648 32.2316C79.1648 32.7247 79.075 33.1729 78.8954 33.6211L91.2418 40.7477L97.7517 29.4079C96.8987 28.9596 96.2252 28.2425 95.866 27.3909Z" fill="#FFB700"/>
<path opacity="0.1" d="M125.901 45.3643L126.036 45.3195C125.991 45.3195 125.946 45.2747 125.946 45.2747C125.946 45.2298 125.991 45.185 125.991 45.1402L125.856 45.185C112.208 37.1172 98.7843 43.8404 98.7843 43.8404C85.5849 50.1154 82.9361 61.5 82.7116 62.3964H82.6667C82.6667 62.3964 82.6667 62.3964 82.7116 62.3964V62.4413H82.7565C83.5646 62.9791 93.307 69.3886 107.225 64.9064C107.18 64.9064 121.546 60.5588 125.901 45.3643Z" fill="#1E120D"/>
<path d="M122.983 40.2995L123.118 40.2098C123.073 40.2098 123.028 40.165 122.983 40.165C122.983 40.1202 122.983 40.0754 122.983 40.0305L122.848 40.1202C108.257 33.9797 95.8661 42.4509 95.8661 42.4509C83.6544 50.4739 82.532 62.0827 82.4422 63.0239H82.3973C82.3973 63.0239 82.3973 63.0239 82.4422 63.0239V63.0688H82.4871C83.3401 63.517 93.8906 68.537 107.045 62.2171C107.09 62.1723 120.738 55.9421 122.983 40.2995Z" fill="#FFD700"/>
<path d="M54.7415 25.3291L71.5774 30.4387C72.2059 29.0941 73.5977 28.1977 75.1691 28.1977C75.214 28.1977 75.2589 28.1977 75.3038 28.1977V11.5241L54.3374 23.6259C54.6068 24.1189 54.7415 24.7016 54.7415 25.3291Z" fill="#FFD900"/>
<path d="M44.0114 47.6502L48.8152 28.7804C48.2765 28.4666 47.8275 28.0632 47.4684 27.5702L27.4448 39.1341L43.3828 48.3225L44.0114 47.6502Z" fill="#FFB700"/>
<path d="M52.5865 28.87C52.0477 29.1389 51.4192 29.3182 50.7906 29.3182C50.7008 29.3182 50.6559 29.3182 50.5662 29.2734L45.6276 48.5466L45.448 48.7259L45.4031 48.7707L59.4106 40.7029L52.5865 28.87Z" fill="#FFC900"/>
<path d="M54.3374 27.0771C53.9783 27.8391 53.3497 28.4666 52.5865 28.87L59.4107 40.7477L71.5325 33.7555C71.3081 33.2625 71.2183 32.7247 71.2183 32.1868L54.3374 27.0771Z" fill="#FFB700"/>
<path d="M31.665 66.1614C31.665 66.3407 31.7099 66.4752 31.7099 66.6545C31.7099 67.6405 31.3507 68.537 30.7671 69.2093L42.7992 80.5043C42.889 80.4595 42.9339 80.4147 43.0237 80.3698V66.1614H31.665Z" fill="#FFB700"/>
<path d="M41.0931 83.7314C41.0931 83.0143 41.2727 82.3868 41.587 81.8041L29.2856 70.285C28.7917 70.5091 28.253 70.5987 27.7142 70.5987C27.6244 70.5987 27.5346 70.5988 27.4448 70.5539V94.2645L41.8115 85.9725C41.3625 85.3898 41.0931 84.583 41.0931 83.7314Z" fill="#FFB700"/>
<path d="M50.9253 104.26C52.4069 104.26 53.664 105.066 54.3823 106.277L73.0141 100.584L48.1867 86.2414C47.8275 86.6896 47.3786 87.0482 46.8398 87.3171L50.9253 104.26Z" fill="#FFB700"/>
<path d="M49.1295 104.708L45.044 87.7205C43.6971 87.7205 42.5298 87.0482 41.8115 86.0173L27.4448 94.3093L47.6479 105.963C48.052 105.425 48.5458 104.977 49.1295 104.708Z" fill="#FFD900"/>
<path d="M54.8762 107.98C54.8762 108.069 54.9211 108.159 54.9211 108.249C54.9211 108.831 54.7864 109.414 54.517 109.907L75.3038 121.919L73.912 102.108L54.8762 107.98Z" fill="#FF9200"/>
<path opacity="0.1" d="M80.8709 121.964L80.9158 122.099C80.9607 122.054 80.9607 122.054 81.0055 122.009C81.0504 122.009 81.0953 122.054 81.0953 122.054L81.0504 121.919C92.005 110.49 88.4583 95.9229 88.4583 95.9229C85.3155 81.6697 74.8099 76.5152 73.9569 76.1118V76.067C73.9569 76.067 73.9569 76.067 73.912 76.067H73.8671V76.1118C73.1488 76.7393 64.7084 84.8072 65.9654 99.3293C66.0103 99.3741 66.9981 114.3 80.8709 121.964Z" fill="#1E120D"/>
<path d="M75.1242 75.9773V75.8429C75.0793 75.8877 75.0793 75.8877 75.0344 75.9325C74.9895 75.8877 74.9895 75.8877 74.9446 75.8429V75.9773C62.3738 85.6588 63.6758 100.584 63.6758 100.584C64.6635 115.151 74.2263 121.83 74.9895 122.368V122.412C74.9895 122.412 74.9895 122.412 75.0344 122.412H75.0793V122.368C75.8874 121.83 85.4502 115.151 86.393 100.584C86.3481 100.584 87.6501 85.6588 75.1242 75.9773Z" fill="#FFD500"/>
<path d="M226.513 95.4298C226.244 95.4298 226.019 95.2057 226.019 94.9368V86.4207C226.019 86.1518 226.244 85.9277 226.513 85.9277H231.047C231.272 85.9277 231.496 86.107 231.496 86.3759C231.496 86.6448 231.317 86.8241 231.047 86.8241H227.007V90.2306H230.105C230.329 90.2306 230.554 90.4098 230.554 90.6788C230.554 90.9029 230.374 91.127 230.105 91.127H227.007V94.5782H231.182C231.407 94.5782 231.631 94.7575 231.631 95.0264C231.631 95.2954 231.451 95.4747 231.182 95.4747H226.513V95.4298Z" fill="#63294E"/>
<path d="M242.81 91.3511V95.1161C242.81 95.385 242.631 95.5643 242.361 95.5643C242.092 95.5643 241.912 95.385 241.912 95.1161V91.5304C241.912 90.4098 241.508 89.6479 240.161 89.6479C238.949 89.6479 238.41 90.2754 238.41 91.3511V95.1161C238.41 95.385 238.231 95.5643 237.961 95.5643C237.692 95.5643 237.512 95.385 237.512 95.1161V91.5304C237.512 90.4098 237.153 89.6479 235.761 89.6479C234.459 89.6479 234.01 90.4547 234.01 91.62V95.0713C234.01 95.3402 233.831 95.5195 233.562 95.5195C233.292 95.5195 233.113 95.3402 233.113 95.0713V89.3789C233.113 89.11 233.292 88.9307 233.562 88.9307C233.831 88.9307 234.01 89.11 234.01 89.3789V89.8272C234.235 89.2893 234.908 88.8411 235.851 88.8411C237.019 88.8411 237.737 89.2445 238.096 89.8272C238.455 89.2893 239.084 88.8411 240.161 88.8411C242.316 88.8411 242.81 90.1409 242.81 91.3511Z" fill="#63294E"/>
<path d="M245.414 89.3789V89.8272C245.683 89.3341 246.402 88.8411 247.345 88.8411C249.185 88.8411 250.308 89.9168 250.308 92.2027C250.308 94.4886 249.185 95.6091 247.345 95.6091C246.402 95.6091 245.728 95.1161 245.414 94.623V97.8054C245.414 98.0295 245.19 98.2536 244.965 98.2536C244.741 98.2536 244.516 98.0295 244.516 97.8054V89.3789C244.516 89.11 244.741 88.9307 244.965 88.9307C245.19 88.9307 245.414 89.1548 245.414 89.3789ZM247.3 94.8023C248.602 94.8023 249.32 93.9955 249.32 92.2475C249.32 90.4995 248.557 89.6927 247.255 89.6927C246.222 89.6927 245.324 90.4098 245.324 92.2475C245.369 94.0404 246.222 94.8023 247.3 94.8023Z" fill="#63294E"/>
<path d="M252.373 90.4098C252.238 90.5443 252.148 90.5891 252.014 90.5891C251.789 90.5891 251.61 90.4098 251.61 90.1857C251.61 90.0961 251.655 90.0064 251.699 89.9616C252.104 89.3341 252.867 88.8411 254.034 88.8411C255.65 88.8411 256.548 89.7823 256.548 91.2166V95.0713C256.548 95.2954 256.369 95.5195 256.099 95.5195C255.83 95.5195 255.65 95.3402 255.65 95.0713V94.5782C255.291 95.2506 254.483 95.6091 253.63 95.6091C252.148 95.6091 251.206 94.892 251.206 93.5922C251.206 92.3372 252.148 91.62 253.675 91.62H255.65V91.2614C255.65 90.3202 255.022 89.7375 253.989 89.7375C253.271 89.6927 252.822 89.9168 252.373 90.4098ZM255.695 93.0095V92.4268H253.72C252.822 92.4268 252.193 92.7854 252.193 93.637C252.193 94.3541 252.687 94.8472 253.81 94.8472C254.752 94.8023 255.695 94.2197 255.695 93.0095Z" fill="#63294E"/>
<path d="M258.613 87.5861C258.613 87.362 258.838 87.1379 259.062 87.1379C259.332 87.1379 259.511 87.362 259.511 87.5861V89.0652H260.409C260.634 89.0652 260.813 89.2445 260.813 89.4686C260.813 89.6927 260.634 89.872 260.409 89.872H259.511V93.7714C259.511 94.3541 259.871 94.7127 260.319 94.7127C260.544 94.7127 260.768 94.892 260.768 95.1161C260.768 95.3402 260.589 95.5195 260.319 95.5195C259.197 95.5195 258.613 94.7575 258.613 93.7714V89.872H258.075C257.85 89.872 257.671 89.6927 257.671 89.4686C257.671 89.2445 257.85 89.0652 258.075 89.0652H258.613V87.5861Z" fill="#63294E"/>
<path d="M261.981 87.7205L263.238 86.1966C263.372 86.0622 263.552 86.0173 263.776 86.1966C264.001 86.3759 263.956 86.5552 263.821 86.7345L262.475 88.1239C262.34 88.2584 262.205 88.3032 262.07 88.1688C261.846 87.9895 261.846 87.855 261.981 87.7205ZM263.058 95.1161C263.058 95.385 262.879 95.5643 262.609 95.5643C262.34 95.5643 262.16 95.385 262.16 95.1161V89.4238C262.16 89.1548 262.34 88.9755 262.609 88.9755C262.879 88.9755 263.058 89.1548 263.058 89.4238V95.1161Z" fill="#63294E"/>
<path d="M265.617 90.4098C265.482 90.5443 265.393 90.5891 265.258 90.5891C265.034 90.5891 264.854 90.4098 264.854 90.1857C264.854 90.0961 264.899 90.0064 264.944 89.9616C265.348 89.3341 266.111 88.8411 267.278 88.8411C268.895 88.8411 269.792 89.7823 269.792 91.2166V95.0713C269.792 95.2954 269.613 95.5195 269.344 95.5195C269.074 95.5195 268.895 95.3402 268.895 95.0713V94.5782C268.535 95.2506 267.727 95.6091 266.874 95.6091C265.393 95.6091 264.45 94.892 264.45 93.5922C264.45 92.3372 265.393 91.62 266.919 91.62H268.895V91.2614C268.895 90.3202 268.266 89.7375 267.233 89.7375C266.47 89.6927 266.021 89.9168 265.617 90.4098ZM268.895 93.0095V92.4268H266.919C266.021 92.4268 265.393 92.7854 265.393 93.637C265.393 94.3541 265.887 94.8472 267.009 94.8472C267.952 94.8023 268.895 94.2197 268.895 93.0095Z" fill="#63294E"/>
<path d="M277.47 85.9725C280.163 85.9725 281.825 87.2275 281.825 90.7236C281.825 94.1748 280.163 95.4298 277.47 95.4298H275.494C275.225 95.4298 275 95.2057 275 94.9368V86.4207C275 86.1518 275.225 85.9277 275.494 85.9277H277.47V85.9725ZM275.988 94.5782H277.515C279.625 94.5782 280.882 93.637 280.882 90.7236C280.882 87.8102 279.58 86.869 277.515 86.869H275.988V94.5782Z" fill="#63294E"/>
<path d="M283.261 87.093C283.261 86.6897 283.441 86.5104 283.8 86.5104C284.159 86.5104 284.339 86.6448 284.339 87.093C284.339 87.4516 284.159 87.6309 283.8 87.6309C283.486 87.6309 283.261 87.4068 283.261 87.093ZM284.249 95.1161C284.249 95.385 284.069 95.5643 283.8 95.5643C283.531 95.5643 283.351 95.385 283.351 95.1161V89.4238C283.351 89.1548 283.531 88.9755 283.8 88.9755C284.069 88.9755 284.249 89.1548 284.249 89.4238V95.1161Z" fill="#63294E"/>
<path d="M290.489 95.5643V94.7575C290.13 95.2057 289.502 95.6091 288.604 95.6091C286.763 95.6091 285.686 94.5334 285.686 92.2475C285.686 89.9616 286.763 88.8411 288.604 88.8411C290.22 88.8411 291.432 89.7823 291.432 91.62V95.5195C291.432 97.4468 290.13 98.2088 288.559 98.2088C287.481 98.2088 286.673 97.8054 286.224 97.2227C286.179 97.1779 286.135 97.0882 286.135 96.9538C286.135 96.7297 286.314 96.5056 286.584 96.5056C286.718 96.5056 286.808 96.5504 286.943 96.64C287.257 96.9538 287.706 97.3123 288.604 97.3123C289.636 97.402 290.489 96.8193 290.489 95.5643ZM290.489 91.6648C290.489 90.3202 289.636 89.6927 288.604 89.6927C287.302 89.6927 286.584 90.4995 286.584 92.2475C286.584 93.9956 287.302 94.8023 288.604 94.8023C289.906 94.8023 290.489 93.6818 290.489 93.6818V91.6648Z" fill="#63294E"/>
<path d="M292.959 87.093C292.959 86.6897 293.138 86.5104 293.497 86.5104C293.857 86.5104 294.036 86.6448 294.036 87.093C294.036 87.4516 293.857 87.6309 293.497 87.6309C293.138 87.6309 292.959 87.4068 292.959 87.093ZM293.946 95.1161C293.946 95.385 293.767 95.5643 293.497 95.5643C293.228 95.5643 293.049 95.385 293.049 95.1161V89.4238C293.049 89.1548 293.228 88.9755 293.497 88.9755C293.767 88.9755 293.946 89.1548 293.946 89.4238V95.1161Z" fill="#63294E"/>
<path d="M296.101 87.5861C296.101 87.362 296.326 87.1379 296.55 87.1379C296.82 87.1379 296.999 87.362 296.999 87.5861V89.0652H297.897C298.122 89.0652 298.301 89.2445 298.301 89.4686C298.301 89.6927 298.122 89.872 297.897 89.872H296.999V93.7714C296.999 94.3541 297.359 94.7127 297.808 94.7127C298.032 94.7127 298.257 94.892 298.257 95.1161C298.257 95.3402 298.077 95.5195 297.808 95.5195C296.685 95.5195 296.101 94.7575 296.101 93.7714V89.872H295.563C295.338 89.872 295.159 89.6927 295.159 89.4686C295.159 89.2445 295.338 89.0652 295.563 89.0652H296.101V87.5861Z" fill="#63294E"/>
<path d="M300.412 90.4098C300.277 90.5443 300.187 90.5891 300.052 90.5891C299.828 90.5891 299.648 90.4098 299.648 90.1857C299.648 90.0961 299.693 90.0064 299.738 89.9616C300.142 89.3341 300.905 88.8411 302.073 88.8411C303.689 88.8411 304.587 89.7823 304.587 91.2166V95.0713C304.587 95.2954 304.407 95.5195 304.138 95.5195C303.868 95.5195 303.689 95.3402 303.689 95.0713V94.5782C303.33 95.2506 302.522 95.6091 301.669 95.6091C300.187 95.6091 299.244 94.892 299.244 93.5922C299.244 92.3372 300.187 91.62 301.714 91.62H303.689V91.2614C303.689 90.3202 303.06 89.7375 302.028 89.7375C301.309 89.6927 300.86 89.9168 300.412 90.4098ZM303.689 93.0095V92.4268H301.714C300.816 92.4268 300.187 92.7854 300.187 93.637C300.187 94.3541 300.681 94.8472 301.803 94.8472C302.746 94.8023 303.689 94.2197 303.689 93.0095Z" fill="#63294E"/>
<path d="M307.146 85.8829V93.9059C307.146 94.4886 307.325 94.7127 307.73 94.7127C307.954 94.7127 308.134 94.892 308.134 95.1161C308.134 95.3402 307.954 95.5195 307.73 95.5195C306.787 95.5195 306.248 94.9368 306.248 93.8611V85.838C306.248 85.6139 306.472 85.3898 306.697 85.3898C306.966 85.4347 307.146 85.6588 307.146 85.8829Z" fill="#63294E"/>
<defs>
<linearGradient id="paint0_linear" x1="277.083" y1="76.877" x2="462.606" y2="72.6375" gradientUnits="userSpaceOnUse">
<stop stop-color="#FFE000"/>
<stop offset="0.5961" stop-color="#FFB000"/>
<stop offset="1" stop-color="#FFE000"/>
</linearGradient>
<linearGradient id="paint1_linear" x1="292.53" y1="30.0732" x2="286.906" y2="133.598" gradientUnits="userSpaceOnUse">
<stop stop-color="#FFE000"/>
<stop offset="0.5961" stop-color="#FFB000"/>
<stop offset="1" stop-color="#FFE000"/>
</linearGradient>
</defs>
</svg>
