<svg xmlns="http://www.w3.org/2000/svg" xmlns:xlink="http://www.w3.org/1999/xlink" viewBox="0 0 1946.32 1094.8"><defs><style>.cls-1{fill:url(#Degradado_sin_nombre_16);}.cls-2{fill:url(#Degradado_sin_nombre_42);}.cls-3{fill:url(#Degradado_sin_nombre_42-2);}.cls-4{fill:#dcbaf4;}.cls-5{fill:url(#Degradado_sin_nombre_42-3);}.cls-6{fill:#f9f0ff;}.cls-7{fill:#ffb900;}.cls-8{fill:#ffc83f;}.cls-9{fill:#311352;}.cls-10{fill:#5a4aa0;}.cls-11{fill:url(#Degradado_sin_nombre_38);}.cls-12{fill:#493087;}.cls-13{fill:url(#Degradado_sin_nombre_31);}.cls-14{fill:url(#Degradado_sin_nombre_31-2);}.cls-15{fill:url(#Degradado_sin_nombre_31-3);}.cls-16{fill:url(#Degradado_sin_nombre_31-4);}.cls-17{fill:url(#Degradado_sin_nombre_31-5);}.cls-18{fill:url(#Degradado_sin_nombre_31-6);}.cls-19{fill:url(#Degradado_sin_nombre_31-7);}.cls-20{fill:url(#Degradado_sin_nombre_31-8);}.cls-21{fill:url(#Degradado_sin_nombre_31-9);}.cls-22{fill:url(#Degradado_sin_nombre_31-10);}.cls-23{fill:url(#Degradado_sin_nombre_23);}.cls-24{fill:url(#Degradado_sin_nombre_53);}.cls-25{fill:url(#Degradado_sin_nombre_58);}.cls-26{fill:url(#Degradado_sin_nombre_62);}.cls-27{fill:url(#Degradado_sin_nombre_39);}.cls-28{fill:#fff;}.cls-29{fill:#f7bd61;}.cls-30{fill:url(#Degradado_sin_nombre_15);}.cls-31{fill:#513b96;}.cls-32{fill:#f9cc7d;}.cls-33{fill:url(#Degradado_sin_nombre_8);}.cls-34{fill:url(#Degradado_sin_nombre_17);}.cls-35{fill:url(#Degradado_sin_nombre_38-2);}.cls-36{fill:url(#Degradado_sin_nombre_27);}.cls-37{fill:#ecdff2;}.cls-37,.cls-49{fill-rule:evenodd;}.cls-38{fill:#ffce00;}.cls-39{fill:url(#Degradado_sin_nombre_176);}.cls-40{fill:url(#Degradado_sin_nombre_176-2);}.cls-41{fill:#ffd800;}.cls-42{fill:#63294e;}.cls-43{fill:#e66600;}.cls-44{fill:#ff9300;}.cls-45{opacity:0.5;}.cls-46{fill:url(#Degradado_sin_nombre_176-3);}.cls-47{fill:url(#Degradado_sin_nombre_176-4);}.cls-48{fill:url(#Degradado_sin_nombre_176-5);}.cls-49{fill:#d1b7e6;}.cls-50{fill:gold;}.cls-51{opacity:0.43;}</style><radialGradient id="Degradado_sin_nombre_16" cx="420.48" cy="496.09" fx="308.47558890612817" fy="504.2732141513979" r="581.47" gradientTransform="matrix(0.02, 1.01, -1.82, 0.04, 1326.72, 33.42)" gradientUnits="userSpaceOnUse"><stop offset="0" stop-color="#ffe1a4"/><stop offset="1" stop-color="#3b184f"/></radialGradient><linearGradient id="Degradado_sin_nombre_42" x1="1625.38" y1="138.16" x2="1946.32" y2="138.16" gradientUnits="userSpaceOnUse"><stop offset="0.41" stop-color="#ffe1a4"/><stop offset="1" stop-color="#bc9fdd"/></linearGradient><linearGradient id="Degradado_sin_nombre_42-2" x1="1240.98" y1="289.23" x2="1635.6" y2="289.23" xlink:href="#Degradado_sin_nombre_42"/><linearGradient id="Degradado_sin_nombre_42-3" x1="471.34" y1="375.47" x2="1035.82" y2="375.47" xlink:href="#Degradado_sin_nombre_42"/><radialGradient id="Degradado_sin_nombre_38" cx="404.98" cy="653.53" r="15.52" gradientUnits="userSpaceOnUse"><stop offset="0" stop-color="#ffe1a4"/><stop offset="1" stop-color="#bc9fdd"/></radialGradient><linearGradient id="Degradado_sin_nombre_31" x1="375.2" y1="463.38" x2="356.02" y2="205.47" gradientUnits="userSpaceOnUse"><stop offset="0" stop-color="#ffc83f"/><stop offset="1" stop-color="#ffe1a4" stop-opacity="0"/></linearGradient><linearGradient id="Degradado_sin_nombre_31-2" x1="358.02" y1="438.51" x2="186.37" y2="261.9" xlink:href="#Degradado_sin_nombre_31"/><linearGradient id="Degradado_sin_nombre_31-3" x1="351.33" y1="492.21" x2="248.14" y2="654.23" xlink:href="#Degradado_sin_nombre_31"/><linearGradient id="Degradado_sin_nombre_31-4" x1="417.89" y1="477.59" x2="599.46" y2="652.05" xlink:href="#Degradado_sin_nombre_31"/><linearGradient id="Degradado_sin_nombre_31-5" x1="394.98" y1="532.83" x2="440.05" y2="643.32" xlink:href="#Degradado_sin_nombre_31"/><linearGradient id="Degradado_sin_nombre_31-6" x1="370.11" y1="526" x2="365.24" y2="642.18" xlink:href="#Degradado_sin_nombre_31"/><linearGradient id="Degradado_sin_nombre_31-7" x1="426.54" y1="533.34" x2="535.67" y2="682.75" xlink:href="#Degradado_sin_nombre_31"/><linearGradient id="Degradado_sin_nombre_31-8" x1="422.44" y1="408.38" x2="461.24" y2="289.75" xlink:href="#Degradado_sin_nombre_31"/><linearGradient id="Degradado_sin_nombre_31-9" x1="414.85" y1="441.49" x2="540.1" y2="281.52" xlink:href="#Degradado_sin_nombre_31"/><linearGradient id="Degradado_sin_nombre_31-10" x1="397.89" y1="448.81" x2="630.75" y2="334.36" xlink:href="#Degradado_sin_nombre_31"/><linearGradient id="Degradado_sin_nombre_23" x1="390.08" y1="454.61" x2="625.46" y2="454.61" gradientUnits="userSpaceOnUse"><stop offset="0" stop-color="#ffc83f"/><stop offset="1" stop-color="#ffe1a4" stop-opacity="0.1"/></linearGradient><linearGradient id="Degradado_sin_nombre_53" x1="696.8" y1="276.32" x2="1946.32" y2="276.32" gradientUnits="userSpaceOnUse"><stop offset="0" stop-color="#ffe1a4"/><stop offset="0.3" stop-color="#a277c9"/><stop offset="1" stop-color="#493087"/></linearGradient><linearGradient id="Degradado_sin_nombre_58" x1="870.64" y1="296.04" x2="1960.92" y2="296.04" gradientUnits="userSpaceOnUse"><stop offset="0.06" stop-color="#a277c9"/><stop offset="0.62" stop-color="#493087"/><stop offset="1" stop-color="#2e0e4f"/></linearGradient><linearGradient id="Degradado_sin_nombre_62" x1="0.08" y1="360.17" x2="367.49" y2="368.44" gradientUnits="userSpaceOnUse"><stop offset="0.05" stop-color="#6a4aa0"/><stop offset="0.27" stop-color="#a277c9"/><stop offset="1" stop-color="#ffe1a4"/></linearGradient><linearGradient id="Degradado_sin_nombre_39" x1="-0.06" y1="406.46" x2="145.89" y2="406.51" gradientUnits="userSpaceOnUse"><stop offset="0" stop-color="#493087"/><stop offset="1" stop-color="#a277c9"/></linearGradient><linearGradient id="Degradado_sin_nombre_15" x1="882.91" y1="758.75" x2="1520.93" y2="758.75" gradientUnits="userSpaceOnUse"><stop offset="0.43" stop-color="#bc9fdd"/><stop offset="0.99" stop-color="#a27dc6"/></linearGradient><linearGradient id="Degradado_sin_nombre_8" x1="16.08" y1="759.48" x2="537.87" y2="759.48" gradientUnits="userSpaceOnUse"><stop offset="0" stop-color="#e9d7f4"/><stop offset="0.84" stop-color="#ffe1a4"/></linearGradient><radialGradient id="Degradado_sin_nombre_17" cx="530.75" cy="741.05" r="273.9" xlink:href="#Degradado_sin_nombre_42"/><radialGradient id="Degradado_sin_nombre_38-2" cx="470.56" cy="722.03" r="749.48" gradientTransform="translate(0 210.58) scale(1 0.71)" xlink:href="#Degradado_sin_nombre_38"/><radialGradient id="Degradado_sin_nombre_27" cx="380.77" cy="460.81" r="133.14" gradientTransform="translate(0 -28.51) scale(1 1.06)" gradientUnits="userSpaceOnUse"><stop offset="0.07" stop-color="#ffffd0"/><stop offset="0.37" stop-color="#ffe462"/><stop offset="1" stop-color="#ffe1a4" stop-opacity="0.1"/></radialGradient><linearGradient id="Degradado_sin_nombre_176" x1="11265.16" y1="568.41" x2="11325.96" y2="568.41" gradientTransform="translate(-10077.06)" gradientUnits="userSpaceOnUse"><stop offset="0.01" stop-color="#f5801f"/><stop offset="1" stop-color="#ffce00"/></linearGradient><linearGradient id="Degradado_sin_nombre_176-2" x1="11254.44" y1="589.89" x2="11290.11" y2="589.89" xlink:href="#Degradado_sin_nombre_176"/><linearGradient id="Degradado_sin_nombre_176-3" x1="8301.34" y1="589.89" x2="8327.41" y2="589.89" gradientTransform="matrix(-1, 0, 0, 1, 9514.4, 0)" xlink:href="#Degradado_sin_nombre_176"/><linearGradient id="Degradado_sin_nombre_176-4" x1="6619.05" y1="679.33" x2="6679.84" y2="679.33" gradientTransform="matrix(-1, 0.04, 0.04, 1, 7744.02, -405.44)" xlink:href="#Degradado_sin_nombre_176"/><linearGradient id="Degradado_sin_nombre_176-5" x1="12947.46" y1="700.8" x2="12973.31" y2="700.8" gradientTransform="translate(-11828.1 464.72) rotate(-2.55)" xlink:href="#Degradado_sin_nombre_176"/></defs><g id="Capa_2" data-name="Capa 2"><g id="_1.CAPITULO_1:_EL_PRINCIPIO_DE_LA_HISTORIA" data-name="1.CAPITULO 1: EL PRINCIPIO DE LA HISTORIA"><g id="Imagen_2" data-name="Imagen 2"><rect class="cls-1" width="1946.32" height="818.48"/><path class="cls-2" d="M1756.76,0s-27,7.74-19,45.7c0,0-26.28-5-19,21.45,0,0-64.23,15.28-27.73,79,0,0-35.52,13.62-15.57,44.28,0,0-39.9-12.17-50.12,22.38l100.72,63.48,116.29-42.56,78.34-92.45L1946.32,0Z"/><path class="cls-3" d="M1635.6,203.35s-10.22-17.52-36.5-13.14c0,0-5.1-22.62-45.25-19,0,0-55-30.81-79.8,15.85,0,0-25.79-8.31-35,9.2,0,0-50.12-52.06-76.39,38.93,0,0-35.52,4.38-36,56.93,0,0-22.87,2-21.41,27.25,0,0-26.53-4.87-31.14,17,0,0-31.14-4.38-33.09,28.71l45.74,30.65,96.83,21.41,48.66-16.54L1612.73,261Z"/><path class="cls-4" d="M1620.51,224s-1-34.55-33.57-27.25c0,0-24.82-32.68-61.8-1,0,0-37.46-26.72-49.63,15.12,0,0-22.14-5.35-21.41,21.9,0,0-9.48-3.65-18.73,0,0,0-13.38-17.28-24.09,2.19,0,0-30.65-2.92-34.54,20.92,0,0-3.9,22.38,20.43,33.33,0,0-21.65-4.62-25.54,15.33,0,0-27.25-5.6-32.36,18.73,0,0-29-10-29.44,18.49,0,0-50.6-3.16-52.55,17.76l64.28,31.63,57.37,18,22.25-4.86,20.08-6.33,24.33-31.38,41.84-43.55,51.83-45,54.49-53Z"/><path class="cls-5" d="M367.5,602c63.3-.88,81.33-5.25,81.33-5.25a260.67,260.67,0,0,1,42.33,0c35-4.87,81-1.46,81-1.46,42.33,0,38-10.95,38-10.95,42.33,9.49,86.67-5.11,86.67-5.11,34.12,5.84,68.06-5.84,68.06-5.84,52.55,8,75.18-8.75,75.18-8.75,35,5.1,47.44-5.11,47.44-5.11,34.31.73,48.9-6.89,48.9-6.89,60.58,11.36,74.45-19.39,74.45-19.39l81.26-267.37c0-41.85-38.44-46.23-38.44-46.23,1.46-45.25-41.85-38.93-41.85-38.93-29.19-47.68-80.77-19-80.77-19C880.91,125.25,861,177.8,861,177.8c-22.38-4.37-28.71,9.25-28.71,9.25-15.57,26.27,10.22,35.52,10.22,35.52-46.22-1.95-55,45.74-55,45.74-37,1.94-43.31,45.25-43.31,45.25-16.54-7.79-26.27,9.62-26.27,9.62-11.68-4.5-21.11,3-21.11,3-25.49-11.19-33.88,12.17-33.88,12.17-39.41-12.17-48.17,26.27-48.17,26.27-23.35,20.44,7.79,38.44,7.79,38.44-34.06,3.41-25.3,49.63-25.3,49.63-20-2.92-23.36,7.3-23.36,7.3-10.7-31.63-39.41-15.08-39.41-15.08-33.09-10.71-43.79,18-43.79,18-22.39-.49-28.71,24.33-28.71,24.33-37.47-16.54-65.69,12.16-65.69,12.16-29.68-3.4-28.78,24.82-28.78,24.82-46.78-9.73-60.27,29.68-60.27,29.68-41.84-9.73-54,23.84-54,23.84s-55.05-9.83-73,8.76c0,0-14.11,20.44,73,11.68A192.75,192.75,0,0,0,316,600.39S325.12,602.59,367.5,602Z"/><path class="cls-6" d="M790,1042.06c-13.3,29.4,73.85,6.72,73.85,6.72l.4,0C865.91,1038.49,814.28,1040.54,790,1042.06Z"/><path class="cls-6" d="M448.83,1033.46c-17.76-1.46-23.11,2.91-23.11,2.91-7.3,4.63-20.93,2.92-20.93,2.92a43.65,43.65,0,0,0-21.29,4,6.21,6.21,0,0,1-2.91.6c-5.88-.23-15-.18-22-.09-1.95,14.33,27,7,27,7,8.28-10.71,13.63-7.3,13.63-7.3,9.24,3.89,22.87-1,22.87-1,12.16-6.81,26.76-5.6,26.76-5.6,2.67-.22,6.23-1.74,9.88-3.74A51.87,51.87,0,0,1,448.83,1033.46Z"/><path class="cls-6" d="M806.47,1031.27c0-7.79-81.26-6.21-81.26-6.21,7.3-9.61-39.9-3.53-39.9-3.53-39.42,6.57-90.51,7.06-90.51,7.06-14.78-.17-37.74-.1-50.25,0,3.21,14.23,91.13,4.67,91.13,4.67,79.55-9.49,75.9-2.19,75.9-2.19-1.46,12.41,38.69,5.11,38.69,5.11,21.33-2.67,31.56-.19,36.3,2.16C805.25,1036.83,806.47,1031.27,806.47,1031.27Z"/><path class="cls-7" d="M281.93,904.51a160.86,160.86,0,0,0-18.5-1.76c2.39,1.75,4.16,3.9,3.91,6.38,0,0-5.6,69.59-4.63,81,0,0-.16,28.77,3.63,35.71a319.52,319.52,0,0,1,1.73-32.79,49.27,49.27,0,0,1,13.78-10C281.76,961,281.93,904.51,281.93,904.51Z"/><path class="cls-8" d="M186.56,937.84c-.87,3.22-.7,8-.42,11.32a6.19,6.19,0,0,1-2.46,5.5c-6.82,5-12.36,15.82-15.29,22.42a10.17,10.17,0,0,1-6.4,5.67c3.25.88,6.3,2.19,7.71,4.18a1.79,1.79,0,0,0,2.19.63c3.4-1.53,11-3.59,5.79,11.71a35.21,35.21,0,0,0-2.13,8.81.47.47,0,0,0,.81.36,27.17,27.17,0,0,1,8.44-6.26,2.66,2.66,0,0,0,1.51-2.55c-.28-4.57-.62-16.27,3-18.27a2,2,0,0,0,1-1.5c.57-3.84,2.39-15.56,3.9-20.05a.89.89,0,0,1,1.68,0l3.87,10.51a1.32,1.32,0,0,0,1.9.67c2-1.14,6.12-2.4,10.52,2.37a1.28,1.28,0,0,0,2-.09,7.5,7.5,0,0,0,.23-9.23,3.78,3.78,0,0,1-.54-3.38c1.25-3.86,2.62-12.17-9.8-10.26a4.23,4.23,0,0,1-4.2-1.72c-1.18-1.79-1.45-6.08,6.7-7.06,0,0,11-.87,4.14-8.51-.17.69-.24,1.09-.24,1.09C195.32,932.25,186.56,937.84,186.56,937.84Z"/><path class="cls-9" d="M315.51,1064.11a55.8,55.8,0,0,0-9.3-9.78,9.33,9.33,0,0,0-4.08,8.56s-10.47,1.46-10.47,13.38c0,0-.73,12-4.37,18.53h52.92l-18.06-22.43Z"/><path class="cls-10" d="M343.58,1052.12a3.42,3.42,0,0,0-1.07,1.53s-20.43-2.28-28-2.11a17.88,17.88,0,0,0-8.32,2.79,55.8,55.8,0,0,1,9.3,9.78l6.64,8.26,18.06,22.43h49.26S351.79,1045.7,343.58,1052.12Z"/><path class="cls-11" d="M424,653.93l1.79-1.71H408.46a68,68,0,0,0,11.09,3A5.14,5.14,0,0,0,424,653.93Z"/><path class="cls-9" d="M266.34,1025.86c-3.79-6.94-3.63-35.71-3.63-35.71-1-11.43,4.63-81,4.63-81,.25-2.48-1.52-4.63-3.91-6.38a175.39,175.39,0,0,0-23.34.55c-21.34,1-28.16,24.45-29.44,29.8,6.82,7.64-4.14,8.51-4.14,8.51-8.15,1-7.88,5.27-6.7,7.06a4.23,4.23,0,0,0,4.2,1.72c12.42-1.91,11.05,6.4,9.8,10.26a3.78,3.78,0,0,0,.54,3.38,7.5,7.5,0,0,1-.23,9.23,1.28,1.28,0,0,1-2,.09c-4.4-4.77-8.5-3.51-10.52-2.37a1.32,1.32,0,0,1-1.9-.67l-3.87-10.51a.89.89,0,0,0-1.68,0c-1.51,4.49-3.33,16.21-3.9,20.05a2,2,0,0,1-1,1.5c-3.61,2-3.27,13.7-3,18.27a2.66,2.66,0,0,1-1.51,2.55,27.17,27.17,0,0,0-8.44,6.26.47.47,0,0,1-.81-.36,35.21,35.21,0,0,1,2.13-8.81c5.2-15.3-2.39-13.24-5.79-11.71a1.79,1.79,0,0,1-2.19-.63c-1.41-2-4.46-3.3-7.71-4.18-.34.1-.69.19-1,.26-8.49,1.49-18.67,6.41-18.67,6.41-7.64,1-15.54-5.61-19.42-9.5a4.71,4.71,0,0,0-5.76-.66l-3.38,2.07a3.11,3.11,0,0,1-3.82-.45,4.7,4.7,0,0,0-6.92.3l-2.65,3.14a8.76,8.76,0,0,1-4.56,2.83C64.42,995,0,1022,0,1022v72.78H287.29l-19.22-47.72A116.22,116.22,0,0,1,266.34,1025.86Z"/><path class="cls-12" d="M302.13,1062.89a9.33,9.33,0,0,1,4.08-8.56,17.88,17.88,0,0,1,8.32-2.79c7.55-.17,28,2.11,28,2.11a3.42,3.42,0,0,1,1.07-1.53c-8.68-5.65-25.93-17.2-29.53-22.07,0,0-.86-4.35-2.49-10.46-3.93-14.77-12.4-39.82-24.27-38.44a25.84,25.84,0,0,0-5.44,2,49.27,49.27,0,0,0-13.78,10,319.52,319.52,0,0,0-1.73,32.79,116.22,116.22,0,0,0,1.73,21.22l19.22,47.72c3.64-6.52,4.37-18.53,4.37-18.53C291.66,1064.35,302.13,1062.89,302.13,1062.89Z"/><polygon class="cls-13" points="367.5 444.21 261.98 115.04 434.41 85.32 390.07 444.21 367.5 444.21"/><polygon class="cls-14" points="369.63 460.81 246.49 224.15 123.35 296.69 363.07 469.39 369.63 460.81"/><polygon class="cls-15" points="375.84 469.39 256.51 696.01 183.75 700.39 369.63 460.81 375.84 469.39"/><polygon class="cls-16" points="401.02 460.81 641.88 658.79 590.42 677.4 390.07 469.39 401.02 460.81"/><polygon class="cls-17" points="375.84 482.52 495.18 700.39 435.51 710.25 375.84 482.52"/><polygon class="cls-18" points="349.57 700.39 375.84 460.81 375.84 704.77 349.57 700.39"/><polygon class="cls-19" points="390.07 477.05 532.4 710.25 575.1 704.77 390.07 477.05"/><polygon class="cls-20" points="399.93 444.21 524.74 184.74 471.09 170.51 399.93 444.21"/><polygon class="cls-21" points="394.09 459.17 597.25 252.8 559.77 212.11 394.09 459.17"/><polygon class="cls-22" points="399.93 452.96 653.71 286.74 659.4 356.62 399.93 452.96"/><polygon class="cls-23" points="390.07 452.96 625.46 420.12 609.04 489.09 390.07 452.96"/><path class="cls-24" d="M1946.32,550.08V0h-34.47c-54.55,0-47.44,60.3-47.44,60.3-49.26,6.93-31.75,62.4-31.75,62.4-36.86-4-41.6,32.11-41.6,32.11-37.59-11.31-40.51,25.55-40.51,25.55-33.57,1.09-39.78,48.9-39.78,48.9-13.86-9.12-28.1-.73-28.1-.73-2.91-27-34.3-16.42-34.3-16.42,4.38-28.1-21.9-27.74-21.9-27.74-20.8.73-17.51,23-17.51,23-29.56-10.58-41,12.29-41,12.29-58.87-9.24-61.31,36-61.31,36-38,1-34.06,42.82-34.06,42.82-47.19,1.94-38.92,58.87-38.92,58.87-28.22,3.9-22.39,33.58-22.39,33.58-14.59,19-49.63,4.35-49.63,4.35-1.94-24.83-34.79-23.33-34.79-23.33-16.78-33.57-49.63-8-49.63-8-18.61-17.52-41.6-5.11-41.6-5.11,6.81-9.24-2.43-23.84-2.43-23.84-17-25.3-41.36-11.68-41.36-11.68-1.95-16.06-15.09-15.08-15.09-15.08,2-38.44-36.49-35.52-36.49-35.52,2-31.63-29.68-32.12-29.68-32.12-35-1.94-37,30.17-37,30.17-32.6,0-32.12,32.6-32.12,32.6-26.27,4.38-24.33,32.12-24.33,32.12-17,0-13.62,15.08-13.62,15.08C970,340.81,968,370.49,968,370.49,914,361.25,925.19,407,925.19,407c-62.77-3.4-64.71,65.69-64.71,65.69-37.47-4.86-46.72,24.82-46.72,24.82s-49.63-7.3-56.93,27.73c0,0-51.09,0-59.84,10.22,0,0-6.82,20,62.28,12,0,0,42.33,4.58,84.18-2.71,0,0,54,9.73,91.47-2,0,0,123,8.8,193.05-1.46,0,0,60.22,17.52,265,1.09,0,0,240.85,18.62,337.2-4.37C1730.12,538,1887.73,560,1946.32,550.08Z"/><path class="cls-25" d="M953.17,490.92s-89.77-5.11-97.07,13.14c0,0-6.57,17.51,121.89,5.11,0,0,55.47,12.4,100.72-2.92,0,0,74.44,13.86,136.48,1.46,0,0,61.31,23.35,163.49,6.2,0,0,86.49,12,158.75-1.1,0,0,122.62,14.24,180.64,0,0,0,190.46,21.34,228.25,7.39v-453s-26.44-2.19-31.18,16.06c0,0-45.25-7.67-40.51,38.68,0,0-22.63,7.66-18.25,31.75,0,0-24.69-5.11-23.72,20.68,0,0-21.89,4.38-17.51,23.84,0,0-25.31.49-24.33,20.44,0,0-28.22.48-24.82,24.81,0,0-32.6-18-52.55,10.22,0,0-31.73-4.94-40,13.41a10.44,10.44,0,0,0,6.58,14.29c21.36,6.29,67.81,21.72-49.81,5.87,0,0-26.77-3.4-26.77,19,0,0-42.82-1.94-39.9,34.55,0,0-29.68,15.57-5.35,51.58,0,0-42.82-2.44-38,32.11,0,0-159.16,36.22-152.79,5.35,0,0-3.4-12.65-81.74-1.46,0,0-21.9-27.25-54.5-8.76,0,0-37-52.06-92.45-30.65,0,0-8.27-9.24-23.36-3.41,0,0-17-25.78-51.09-12.16,0,0-22.87,15.08-9.24,40.87,0,0-12.65,2.44-12.17,14.6,0,0-28.22-2.92-27.73,17,0,0-101.21-2.92-104.62,9.25,0,0-2.43,8.75,71.53,8.75,0,0-4.86,12.17,31.14,6.82,0,0,19.22,13.86-20.43,17C992.83,487.76,955.85,473.16,953.17,490.92Z"/><path class="cls-26" d="M0,134.58s105.79-37.47,163.69,7.29c0,0,75.42,66.67-8.27,147.44,0,0,17.52,10.7,2.92,30.65,0,0,16.55-4.86,18.49,8.76,0,0,25.79-8.27,36.49,15.57,0,0,5.84,19.46-7.29,27.74,0,0,10.21,3.4,12.16,11.67,0,0,14.11-5.83,17,11.68,0,0,27.25-5.35,25.79,19.47,0,0,31.63-16.06,48.17,14.11,0,0,12.65,23.35-9.73,40.38,0,0,29.19,12.65,17,44.28,0,0,26.28,9.73,12.16,34.55,0,0,33.34,0,30.78,33.94,0,0,12.77,8.39,6.2,20.07,0,0-146.7,9.49-197.06,2.55L0,596.34Z"/><path class="cls-27" d="M0,612.4s185.59,18.49,215.27-2.92c0,0,9.25-24.33-85.15-16.55,0,0,50.6-43.79-8.76-82.71,0,0-48.17-24.82-64.23,6.81,0,0-8.76-9.73-19.46-8.27,0,0,43.31-9.25,22.87-39.42,0,0-11.68-14.59-36-11.68,0,0,20.44-26.76,1.95-51.09,0,0,37,11.2,51.58-17,0,0,64.22,39.9,74.44-22.38,0,0,2.44-69.09-74-47.68,0,0,14.11-5.84,16.06-16.06,0,0,44.28,5.35,47.2-36.49,0,0,1-61.31-56.45-38.93,0,0-7.78-22.87-21.89-13.63,0,0-34.95-54.49-63.46,11.2Z"/><path class="cls-7" d="M1180.21,872.21c16.35.72,41.12-14.44,48.15-19a2.37,2.37,0,0,0,.75-3.18,58.75,58.75,0,0,1-5.88-14.27h-12.78Z"/><path class="cls-6" d="M1568.43,964.05c-7.68.26-13.22.31-13.22.31-26.86,2.19-40.28,6.33-40.28,6.33-18,6.08-67.15,3.89-67.15,3.89-20-.73-20.68,7.72-20.68,7.72-6.08,6.74-17.52,2-17.52,2a35,35,0,0,0-27.73,3.41c-8.31,4.61-19.27,2.64-24.08,1.43a2.58,2.58,0,0,1-1.86-2.66c.19-6.51-21.36-3.72-27-2.87a9.67,9.67,0,0,1-2.74,0c-35.25-5.26-32.53,8.36-32.53,8.36,1.24,17-64.78,6.49-84.89,2.9a49.81,49.81,0,0,0-14-.56,106.78,106.78,0,0,0-28.83,7.22,22.55,22.55,0,0,1-10.46,1.64c-12.92-1.09-27.62,3.21-34.18,5.44a20.24,20.24,0,0,1-7.16,1.06c-23.07-.82-44.8,4.86-51.57,6.83a15.91,15.91,0,0,1-4.55.62c-16.42-.09-33.16,2.59-39.37,3.7a25.42,25.42,0,0,1-5.08.4c-34.43-.88-44.63,4.45-44.63,4.45-6.81,2.43-20.55,1.52-20.55,1.52-23.36-.55-22.63,7.66-22.63,7.66-7.12,1.65-6.35,5.65-6.35,5.65a20.93,20.93,0,0,1,3.34-.64c6.64-.69,9.78,2.75,11.16,5.23a10.83,10.83,0,0,1,1,3.19c.66,3.24,6.27,3.18,6.27,3.18,9,.69,12.07-.7,13.12-1.57a9.53,9.53,0,0,1,2-1.37c12-5.57,26.44-5.31,30.16-5.14a3.5,3.5,0,0,1,2.1.74c1.62,1.36.64,3.23-.25,4.37a4.75,4.75,0,0,0-1.1,3.33c.44,4.83,6.27,5.31,8.26,5.33a9,9,0,0,1,1.46.14c7.17,1.16,7.26-3.64,6.75-6.41a8.32,8.32,0,0,1,.84-5.67c2.69-4.69,6.21,3.57,6.21,3.57,3.31,6,6.87,7.08,9.59,6.65a6.16,6.16,0,0,0,4.88-4.76,15.68,15.68,0,0,1,4.26-7.24c8.52-4.87,18.25,4.87,18.25,4.87,11.43,8,17,0,17,0a79,79,0,0,1,9.24-11.93c9.25-8.27,20,2.68,20,2.68,11.16,8.41,18.46,3.36,21.4.33a20.25,20.25,0,0,1,6.63-4.68,22.2,22.2,0,0,1,15.89-.51q1.14.42,2.31.75c15.89,4.45,17-4.65,17-4.65,2-4.73,6.25-7.51,8.94-8.89,83.46,3.81,116.84-15.56,116.84-15.56,26.28-13.14,49.63-9.53,49.63-9.53,42.33,4,92.33-7.26,92.33-7.26,32.48-2.91,62.77-4.74,62.77-4.74,22.26,5.47,37.22-2.19,37.22-2.19,26.28-1.09,33.94,0,33.94,0a50.64,50.64,0,0,1,9.23-5.43c16.25-7.48,34.56-7,34.56-7a84.61,84.61,0,0,0,9.27-1.17c.4-2.36,1.55-4.46,4.24-5,0,0,11.31.32,15.69-1.48,0,0,9.42-6.38-1.83-10.12a40,40,0,0,0-16.17,6.37C1609.83,962.06,1584.46,963.51,1568.43,964.05Z"/><path class="cls-8" d="M1598.13,504.42c1.49-5,38.14-3.87,66.36-2.25h.12c12.54.72,23.4,1.54,28.75,2a6.07,6.07,0,0,0,5.34-2.43c12.77-16.8,40.9-7.86,40.9-7.86,4.75-14.23,31.39-7.3,31.39-7.3,20.07-11.68,17.15,12.41,17.15,12.41a52.42,52.42,0,0,0,34.67,0c1.82-9.49,18.25-11.32,18.25-11.32a107.19,107.19,0,0,0,20.37-15.5,115.49,115.49,0,0,0,16.48-19.53c1.1-6.2,6.21-10.58,6.21-10.58,6.57-14.24-2.92-11.68-2.92-11.68C1849.45,443.48,1852,434,1852,434c3.51-13.74,35.6-25.84,48.22-30.11a9.42,9.42,0,0,0,6-6c2.46-7.75,9.15-17.81,12.89-23.08a2.4,2.4,0,0,0-2-3.79c-5.2.1-13.17.89-20.78,1.78-10,9.89-9.26,17.05-9.26,17.05-19.71,12.77-55.47,54.74-55.47,54.74-18.25,4-50,23.72-50,23.72h-11.31l-29.2,16.42c-6.93-1.82-163.85-4.74-163.85-4.74L1567,489.46l.66,15.88C1578.91,503,1598.13,504.42,1598.13,504.42Z"/><path class="cls-28" d="M1664.49,502.17Z"/><path d="M1664.49,502.17Z"/><path class="cls-8" d="M1851.64,948.55s-121.52,25.18-133.57,33.94c0,0-26.52-4.26-49.38,8.88,0,0-51.1,13.13-48.66-3.41,0,0-22.87,1.46-30.17-.49,0,0,3.77-6.81,22.75-10.82a21.68,21.68,0,0,1-.59-8.11,84.61,84.61,0,0,1-9.27,1.17s-18.31-.5-34.56,7a50.64,50.64,0,0,0-9.23,5.43s-7.66-1.09-33.94,0c0,0-15,7.66-37.22,2.19,0,0-30.29,1.83-62.77,4.74,0,0-50,11.24-92.33,7.26,0,0-23.35-3.61-49.63,9.53,0,0-33.38,19.37-116.84,15.56-2.69,1.38-6.89,4.16-8.94,8.89,0,0-1.14,9.1-17,4.65q-1.17-.33-2.31-.75a22.2,22.2,0,0,0-15.89.51,20.25,20.25,0,0,0-6.63,4.68c-2.94,3-10.24,8.08-21.4-.33,0,0-10.7-11-20-2.68a79,79,0,0,0-9.24,11.93s-5.6,8-17,0c0,0-9.73-9.74-18.25-4.87a15.68,15.68,0,0,0-4.26,7.24,6.16,6.16,0,0,1-4.88,4.76c-2.72.43-6.28-.64-9.59-6.65,0,0-3.52-8.26-6.21-3.57a8.32,8.32,0,0,0-.84,5.67c.51,2.77.42,7.57-6.75,6.41a9,9,0,0,0-1.46-.14c-2,0-7.82-.5-8.26-5.33a4.75,4.75,0,0,1,1.1-3.33c.89-1.14,1.87-3,.25-4.37a3.5,3.5,0,0,0-2.1-.74c-3.72-.17-18.17-.43-30.16,5.14a9.53,9.53,0,0,0-2,1.37c-1,.87-4.14,2.26-13.12,1.57,0,0-5.61.06-6.27-3.18a10.83,10.83,0,0,0-1-3.19c-1.38-2.48-4.52-5.92-11.16-5.23A58.27,58.27,0,0,0,914,1042s-11.6,4.83-49.72,6.79l-.4,0s-87.15,22.68-73.85-6.72c.12-.27.24-.54.38-.82,0,0-.79-1.45-3.84-3-4.74-2.35-15-4.83-36.3-2.16,0,0-40.15,7.3-38.69-5.11,0,0,3.65-7.3-75.9,2.19,0,0-87.92,9.56-91.13-4.67a4.76,4.76,0,0,1,.62-3.36s-43.06,6.57-46-5.11c0,0-15.33-1.46-23.36,1.46a139.25,139.25,0,0,1-17.12,11.59c-3.65,2-7.21,3.52-9.88,3.74,0,0-14.6-1.21-26.76,5.6,0,0-13.63,4.86-22.87,1,0,0-5.35-3.41-13.63,7.3,0,0-28.95,7.35-27-7,.06-.42.13-.84.24-1.29,0,0-28.71-1-17.51-12.65,0,0,9.73-9.74-12.17-8.76a119.71,119.71,0,0,1-17.57-1.46c1.63,6.11,2.49,10.46,2.49,10.46,3.6,4.87,20.85,16.42,29.53,22.07,8.21-6.42,45.89,42.68,45.89,42.68H1946.32v-167S1860.4,937.6,1851.64,948.55Z"/><path class="cls-8" d="M1886.67,563.18s-127.72-5.84-148.53,8.39c0,0-.23,36.39-.4,80.65-.24,65.49-.32,148.21.77,155.83,0,0,7.3-1.1,7.3,5.84,0,0,8.76.36,10.58-4.75L1762.6,777l9.85-4.75,1.82-25.91,42.34-49.87s-17,78.34-12.17,90l29.68-34.06L1860,652.22l.87-3.41-6.41,3.41-40.3,21.41s-11.67-14.6-19-12.17a26.61,26.61,0,0,0,2.73-9.24c.44-5.06-1-10.94-8.57-14.11,0,0,.48-3.89,16.05-7.3,0,0-1.94-19,19.95-24.82,0,0,2.92-12.16,38.44-24.81,0,0,18.49-3.41,29.69-9.25,0,0,31.14-9.6,29.68-14.59C1923.17,557.34,1923.9,550.77,1886.67,563.18Z"/><path class="cls-7" d="M1345.11,793.45c-1.09-2.55-10.58-3.28-10.58-3.28-19.71,6.56-90.51,45.61-90.51,45.61h-.19l6.11,10.19a1.69,1.69,0,0,0,1.55.82l26.72-1.64L1346.57,805v-.58C1346.57,803.3,1345.11,793.45,1345.11,793.45Z"/><path class="cls-7" d="M1528.67,661.34,1525,653l-4,1.82a37.73,37.73,0,0,1-.08,6.59c-.9,12.95-4.71,38.76-5.82,46.14a5.44,5.44,0,0,1-1.85,3.33l-9.33,7.91a.79.79,0,0,1-1.3-.54l-2.27-27.34a1.49,1.49,0,0,0-1.87-1.31l-8.25,2.28a1.69,1.69,0,0,1-1.51-.32c-3.16-2.54-12-14.4-15.11-18.73a2,2,0,0,0-2.74-.43l-12.25,8.88a1.34,1.34,0,0,1-1.53,0l-3.15-2.1a3.39,3.39,0,0,0-3.25-.28l-6.43,2.83a2.32,2.32,0,0,1-2-.05l-14.76-7.38a2,2,0,0,0-2,.13l-4.07,2.72a3.77,3.77,0,0,0-1.66,2.81L1417,713.53c-1.19,1.78-8.69,1.87-11.42,1.84a3.15,3.15,0,0,1-1.78-.58c-7.65-5.35-11.68-5.39-13.14-5.11a.77.77,0,0,0-.63.81l1.06,19.1c-5.59,5.59-34.94,65.81-40.64,77.56,7.49,14.76,29.94,17.08,29.94,17.08l18.73-17.52V794.3c8.52-3.4,9.73,6.33,9.73,6.33,3.65,2.19,21.9-2.19,21.9-2.19,22.14-10.46,32.11-32.12,32.11-32.12-2.67,3.65-15.33,13.38-15.33,13.38-5.35.25,10.34-15.08,10.34-15.08-1.45-26.64,5.48-27.37,5.48-27.37,16.06,1.82,29.92-12.77,29.92-12.77,4,22.62-8.39,27-8.39,27-16.42,8.4-28.46,35.77-28.46,35.77a133.15,133.15,0,0,0,40-15.09,231.55,231.55,0,0,0,28.22-33.82c2.19-2.43,18.24,0,18.24,0,1.83-3.64,2.92-55.1,2.92-55.1,3.29-36.49,6.57,1.58,6.57,1.58H1566c1.06-9.84,2.43-21,3.93-32.6,6.11-46.9,14.56-100.68,14.56-100.68,6.57-22.33-9.49-17.07-9.49-17.07-14.11,1-3.65-9.54-3.65-9.54,3.09-4.67-4-9.86-8.42-12.52l-35.37,40.23,8.76,7.25L1533.76,594l-4.4,58.24Z"/><path class="cls-29" d="M918.58,654.71c10.63.51,34.25,1.35,50.4-.3,0,0,10.22,3.65,61.31,1,0,0,55.47-3.65,61.8,7.06,0,0,25.3,19,64.71,3.4,0,0,23.36-8.27,43.31-4.38,0,0,28.22,6.33,72.5,2.44,0,0,58.39.32,34.55,7.46,0,0-55.47,10.54-17.52,10,0,0,42.33,1.46,65.69-4.37,0,0,54-8.44,66.66-5.68,0,0,17,6.16,38.44-3.57,0,0,23.19-10,60.5-6.43a37.73,37.73,0,0,0,.08-6.59l4-1.82,3.65,8.39.69-9.12,4.4-58.24c-4-.13-9-1.33-14.76-4.53l-13.39-7.18a7.06,7.06,0,0,0-8,.92l-30,26.36a3.77,3.77,0,0,1-4.4.41l-22.1-13a6.25,6.25,0,0,0-4.67-.69l-58.49,14.38a6.76,6.76,0,0,1-5.37-1l-.67-.44a7.18,7.18,0,0,0-7.06-.54l-18.77,8.82a6,6,0,0,1-4.87.11l-80.43-33.31a5.41,5.41,0,0,0-6,1.31c-7.75,8.36-31.17,33.27-40.6,39.6a2.86,2.86,0,0,1-2.38.37l-15.92-4.39a4.32,4.32,0,0,0-4.95,2c-1.73,3.14-6.62,7.42-20.43,6.54a25.66,25.66,0,0,0-3.72,0c-5.42.42-22.26.6-32.35-11.79a3,3,0,0,0-4-.45c-9.25,7-43.17,32.08-53.84,29.57,0,0-13.92,0-22.91-8.83a6.78,6.78,0,0,0-5.11-1.91c-9.51.5-37.55,1-48.57-8.87a5.44,5.44,0,0,0-4.45-1.32c-5.33.79-17.77,4.12-36.47,18,0,0-20.63,4.95-34.9,8-2,.44-3.94.84-5.63,1.18A.66.66,0,0,0,918.58,654.71Z"/><path class="cls-6" d="M1180.21,892s19.47-1.46,22.94-2.19c0,0-8.94,14.6,21.9,13.51,0,0,25.54-.92,43.61-3.65,0,0-.37,17.07,87.22,12.45,0,0,23.1,10.41,50.12-.06a8.23,8.23,0,0,1,.42-1.81s-34.67,6.08-47.66-1.72c0,0-81.53,2.45-85.54-14,0,0-48.17,6.57-65,0,0,0,.36-9.49,17.88-13.87,0,0-46.71,4.74-62-1.83a2.26,2.26,0,0,1,.45-.66,35.1,35.1,0,0,0-8.29,6.14S1148.15,894.54,1180.21,892Z"/><path class="cls-30" d="M935.55,662.82a1.39,1.39,0,0,0,1.44,1.49c36.4-1.64,52.7,1,59.17,2.65a1.62,1.62,0,0,1,.09,3.11c-10.45,3.4-34.26,1.76-40.48,1.26a15.85,15.85,0,0,0-3.08,0c-3.37.36-6.86.57-10.37.65,4.54,3.09,8.19,7-2,7,0,0-72.51-1-54.5,7.3,0,0,41.84,2.43,58.39,3.41,0,0,9.73,1.94-9.25,4.38,0,0-25.79,7.29,1,8.75,0,0,132.35-9.73,121.15,6.82,0,0,68.13-1.46,67.64,3.4,0,0-15.57,6.81-49.63,5.84,0,0,56.44,8.76-13.63,12.65,0,0-60.33,2-18,5.84,0,0,39.9,4.87-16.06,7.3,0,0-19.95,4.38-10.22,7.3,0,0-66.66,7.78,10.22,8.27,0,0,35,7.3-14.59,6.33,0,0-65.69,2.92,0,5.35,0,0,103.87-1.95,106.92,0,0,0,18.51,5.35-99.43,4.86,0,0-76.74,4.38-22.9,5.36,0,0,84.06,1,6.43,7.3,0,0-55.25,5.35,2.65,6.81,0,0,127-4.38,50.58,8.27,0,0-44.28,5.84,2.69,7.3,0,0,150.12.48,81.51,7.3,0,0-89.24,4.38-31,7.78,0,0,70.89-2.19,58.24,8.88,0,0,12.76-.12,11.73,3.29,0,0-.54,1-24.87,2.92,0,0-50.49,3.89,5.41,5.35,0,0,44.54,1.66.83,6.67,0,0-80.67,6.35-2.58,9.08,0,0,16.89-.3,28.8,0l22.65-27.29H1244s70.8-39,90.51-45.61c0,0,9.49.73,10.58,3.28,0,0,1.46,9.85,1.46,10.95v1.09l-3.65,3.29,6.57.36,1-2c5.7-11.75,35-72,40.64-77.56l-1.06-19.1a.77.77,0,0,1,.63-.81c1.46-.28,5.49-.24,13.14,5.11a3.15,3.15,0,0,0,1.78.58c2.73,0,10.23-.06,11.42-1.84l2.77-33.59a3.77,3.77,0,0,1,1.66-2.81l4.07-2.72a2,2,0,0,1,2-.13l14.76,7.38a2.32,2.32,0,0,0,2,.05l6.43-2.83a3.39,3.39,0,0,1,3.25.28l3.15,2.1a1.34,1.34,0,0,0,1.53,0l12.25-8.88a2,2,0,0,1,2.74.43c3.16,4.33,12,16.19,15.11,18.73a1.69,1.69,0,0,0,1.51.32l8.25-2.28a1.49,1.49,0,0,1,1.87,1.31l2.27,27.34a.79.79,0,0,0,1.3.54l9.33-7.91a5.44,5.44,0,0,0,1.85-3.33c1.11-7.38,4.92-33.19,5.82-46.14-37.31-3.56-60.5,6.43-60.5,6.43-21.41,9.73-38.44,3.57-38.44,3.57-12.65-2.76-66.66,5.68-66.66,5.68-23.36,5.83-65.69,4.37-65.69,4.37-38,.49,17.52-10,17.52-10,23.84-7.14-34.55-7.46-34.55-7.46-44.28,3.89-72.5-2.44-72.5-2.44-19.95-3.89-43.31,4.38-43.31,4.38-39.41,15.57-64.71-3.4-64.71-3.4-6.33-10.71-61.8-7.06-61.8-7.06-51.09,2.68-61.31-1-61.31-1-10.77,1.1-24.86,1.09-36.2.82A10.39,10.39,0,0,1,935.55,662.82Z"/><path class="cls-28" d="M353.83,663.7l.7-.32Z"/><path d="M354.53,663.38l-.7.32.7-.32Z"/><path class="cls-28" d="M218.92,710.24s-14,0-33.75.42C191.5,711.16,202.2,711.11,218.92,710.24Z"/><path d="M217.84,710.24c-3.65,0-16.18,0-32.67.42,2.62.21,6,.32,10.23.32,6,0,13.72-.23,23.52-.74Z"/><path class="cls-28" d="M355.34,663l.73-.33Z"/><path d="M356.07,662.68l-.73.33.73-.33Z"/><path class="cls-9" d="M1689.61,519.57s-4.65,21.63-15.3,37.57a12.13,12.13,0,0,0-2,7.15c.25,7.41.38,27-1.69,74.31l.2,13.62,1.68,114.22,15.64-9.12s5.6-57.41,9-105.1c2-28,3.25-52.6,2.17-60.34,0,0,.49-16.54,3.89-23.35,0,0-4.38-22.87-1.46-27.74,0,0,21.41-8.76,64.72-4.38,0,0,13.14-5.93-7.79-11.48,0,0-18-3.7-50.11,0,0,0,3-5,25.83-10.39,0,0,23.8-3.91-2.48-6.83,0,0-7.3-.55-30.65-2,0,0-10.15-2-36.68-3.53h-.12S1689.43,509.72,1689.61,519.57Z"/><path class="cls-10" d="M1600.56,873.92l14.6-4.56,3.89,3,7.42-27.86,11.55-5.21c0-.21.08-.41.13-.63l1.1-12,26.27-12.77.73-43.8,6.26-3.65-1.68-114.22-.2-13.62c2.07-47.31,1.94-66.9,1.69-74.31a12.13,12.13,0,0,1,2-7.15c10.65-15.94,15.3-37.57,15.3-37.57-.18-9.85-25.1-17.39-25.12-17.4-28.22-1.62-64.87-2.74-66.36,2.25,0,0-19.22-1.38-30.48.92l.07,1.64-4.77,5.43c4.43,2.66,11.51,7.85,8.42,12.52,0,0-10.46,10.51,3.65,9.54,0,0,16.06-5.26,9.49,17.07,0,0-8.45,53.78-14.56,100.68-1.5,11.59-2.87,22.76-3.93,32.6h-13.63s-3.28-38.07-6.57-1.58c0,0-1.09,51.46-2.92,55.1,0,0-16.05-2.43-18.24,0a231.55,231.55,0,0,1-28.22,33.82,133.15,133.15,0,0,1-40,15.09s12-27.37,28.46-35.77c0,0,12.41-4.38,8.39-27,0,0-13.86,14.59-29.92,12.77,0,0-6.93.73-5.48,27.37,0,0-15.69,15.33-10.34,15.08,0,0,12.66-9.73,15.33-13.38,0,0-10,21.66-32.11,32.12,0,0-18.25,4.38-21.9,2.19,0,0-1.21-9.73-9.73-6.33v12.41l-18.73,17.52s-22.45-2.32-29.94-17.08l-1,2-6.57-.36,3.65-3.29V805l-68.36,40.17-26.72,1.64a1.69,1.69,0,0,1-1.55-.82l-6.11-10.19h-20.6a58.75,58.75,0,0,0,5.88,14.27,2.37,2.37,0,0,1-.75,3.18c-7,4.54-31.8,19.7-48.15,19l0,.07c-11.07,2.16-14.55,4.72-15.61,5.9a2.26,2.26,0,0,0-.45.66c15.33,6.57,62,1.83,62,1.83-17.52,4.38-17.88,13.87-17.88,13.87,16.79,6.57,65,0,65,0,4,16.42,85.54,14,85.54,14,13,7.8,47.66,1.72,47.66,1.72A8.23,8.23,0,0,0,1406,912c-2,16.54,57.35,7.68,57.35,7.68,42.7,0,82.84,11.68,82.84,11.68,14.23,4.37,36.86,10.58,36.86,10.58l.35.07,18.14-16.86Z"/><path class="cls-31" d="M1731.94,507.71c26.28,2.92,2.48,6.83,2.48,6.83-22.82,5.38-25.83,10.39-25.83,10.39,32.11-3.7,50.11,0,50.11,0,20.93,5.55,7.79,11.48,7.79,11.48-43.31-4.38-64.72,4.38-64.72,4.38-2.92,4.87,1.46,27.74,1.46,27.74-3.4,6.81-3.89,23.35-3.89,23.35,1.08,7.74-.17,32.37-2.17,60.34-3.42,47.69-9,105.1-9,105.1l-15.64,9.12-6.26,3.65-.73,43.8-26.27,12.77-1.1,12c-.05.22-.08.42-.13.63-3.52,16.68,10.35,9.22,10.35,9.22,24.82-26.64,20.32-3.89,20.32-3.89,7.29-11.19,21.41-20.19,21.41-20.19-1.46-13.38,2.91-14.6,2.91-14.6-.73-13.38,4.87-13.87,4.87-13.87,2.68-11.43,5.84-7.78,5.84-7.78,1.46,4.62-2.19,16.06-2.19,16.06,9-8.52,10.46-3.65,10.46-3.65-6.81,16-6.32,53-6.32,53,12.16.49,23.84-30.16,23.84-30.16,1.46-7.3,2.43-102.67,2.43-102.67-6.32,1-8.27,9.24-8.27,9.24,0,63.74-4.87,54.5-4.87,54.5-1.46-73-6.57-67.39-6.57-67.39,0-12.53.61-38.92,1.3-65,.92-34.61,2-68.61,2-68.61,1.09-19,9.49-15.32,9.49-15.32,8.76,0,6.57-10.22,6.57-10.22C1733,549.31,1825,547.4,1825,547.4c0-9.2,8.76-13.78,8.76-13.78-26.64,2.19-45.25-3.29-45.25-3.29-9.13-9.49,63.86-10.58,63.86-10.58-6.57-25.18,18.25-31.75,18.25-31.75-5.78-1.83-8.26-8.59-9.19-15.87a107.19,107.19,0,0,1-20.37,15.5s-16.43,1.83-18.25,11.32a52.42,52.42,0,0,1-34.67,0s2.92-24.09-17.15-12.41c0,0-26.64-6.93-31.39,7.3,0,0-28.13-8.94-40.9,7.86a6.07,6.07,0,0,1-5.34,2.43c-5.35-.42-16.21-1.24-28.75-2,26.53,1.56,36.68,3.53,36.68,3.53C1724.64,507.16,1731.94,507.71,1731.94,507.71Z"/><path class="cls-9" d="M1896.3,372.78c7.61-.89,15.58-1.68,20.78-1.78a2.4,2.4,0,0,1,2,3.79c-3.74,5.27-10.43,15.33-12.89,23.08a9.42,9.42,0,0,1-6,6c-12.62,4.27-44.71,16.37-48.22,30.11,0,0-2.55,9.49,29.2-3.65,0,0,9.49-2.56,2.92,11.68,0,0-5.11,4.38-6.21,10.58a115.49,115.49,0,0,1-16.48,19.53c.93,7.28,3.41,14,9.19,15.87,0,0-24.82,6.57-18.25,31.75,0,0-73,1.09-63.86,10.58,0,0,18.61,5.48,45.25,3.29,0,0-8.76,4.58-8.76,13.78,0,0-92,1.91-93.42,10.67,0,0,2.19,10.22-6.57,10.22,0,0-8.4-3.65-9.49,15.32,0,0-1.07,34-2,68.61-.69,26-1.3,52.43-1.3,65,0,0,5.11-5.6,6.57,67.39,0,0,4.87,9.24,4.87-54.5,0,0,1.95-8.27,8.27-9.24,0,0-1,95.37-2.43,102.67,0,0-11.68,30.65-23.84,30.16,0,0-.49-37,6.32-53,0,0-1.46-4.87-10.46,3.65,0,0,3.65-11.44,2.19-16.06,0,0-3.16-3.65-5.84,7.78,0,0-5.6.49-4.87,13.87,0,0-4.37,1.22-2.91,14.6,0,0-14.12,9-21.41,20.19,0,0,4.5-22.75-20.32,3.89,0,0-13.87,7.46-10.35-9.22l-11.55,5.21-7.42,27.86-3.89-3-14.6,4.56,1,51.27-18.14,16.86c14.15,2.82,29.94,1,29.94,1-.73,7.3,15.32,8.4,15.32,8.4.53.14,1,.29,1.46.44C1641.37,955.65,1632,962,1632,962c-4.38,1.8-15.69,1.48-15.69,1.48-2.69.57-3.84,2.67-4.24,5a21.68,21.68,0,0,0,.59,8.11c-19,4-22.75,10.82-22.75,10.82,7.3,1.95,30.17.49,30.17.49-2.44,16.54,48.66,3.41,48.66,3.41,22.86-13.14,49.38-8.88,49.38-8.88,12-8.76,133.57-33.94,133.57-33.94,8.76-10.95,94.68-20.8,94.68-20.8V346.4C1919,355.43,1904.26,365,1896.3,372.78Zm-2.81,199.15c-11.2,5.84-29.69,9.25-29.69,9.25-35.52,12.65-38.44,24.81-38.44,24.81-21.89,5.84-19.95,24.82-19.95,24.82-15.57,3.41-16.05,7.3-16.05,7.3,7.57,3.17,9,9,8.57,14.11a26.61,26.61,0,0,1-2.73,9.24c7.3-2.43,19,12.17,19,12.17l40.3-21.41,6.41-3.41-.87,3.41-25.89,100.24-29.68,34.06c-4.86-11.68,12.17-90,12.17-90l-42.34,49.87-1.82,25.91L1762.6,777l-6.21,32.11c-1.82,5.11-10.58,4.75-10.58,4.75,0-6.94-7.3-5.84-7.3-5.84-1.09-7.62-1-90.34-.77-155.83.17-44.26.4-80.65.4-80.65,20.81-14.23,148.53-8.39,148.53-8.39,37.23-12.41,36.5-5.84,36.5-5.84C1924.63,562.33,1893.49,571.93,1893.49,571.93Z"/><path class="cls-12" d="M1886.67,563.18s-127.72-5.84-148.53,8.39c0,0-.23,36.39-.4,80.65-.24,65.49-.32,148.21.77,155.83,0,0,7.3-1.1,7.3,5.84,0,0,8.76.36,10.58-4.75L1762.6,777l9.85-4.75,1.82-25.91,42.34-49.87s-17,78.34-12.17,90l29.68-34.06L1860,652.22l.87-3.41-6.41,3.41-40.3,21.41s-11.67-14.6-19-12.17a26.61,26.61,0,0,0,2.73-9.24c.44-5.06-1-10.94-8.57-14.11,0,0,.48-3.89,16.05-7.3,0,0-1.94-19,19.95-24.82,0,0,2.92-12.16,38.44-24.81,0,0,18.49-3.41,29.69-9.25,0,0,31.14-9.6,29.68-14.59C1923.17,557.34,1923.9,550.77,1886.67,563.18Z"/><polygon class="cls-31" points="1626.47 844.54 1615.16 869.36 1618.08 894.9 1622.46 893.44 1623.56 869.72 1633.04 848.19 1626.47 844.54"/><path class="cls-31" d="M1609.32,875.93l-8.76-2s-1.82,21-5.1,30.83v25.92h12l16.6-25.19-14.32,31.75,5.38,1.1,5.84-9.49,5.47-13.5,11-25.55-29.21,21.53S1607.86,888.7,1609.32,875.93Z"/><path class="cls-12" d="M1779.64,856.68a1.6,1.6,0,0,1,2.37,1.2c.37,2.72.41,9.09-2.87,22.55a126.76,126.76,0,0,0-3.41,38.44s2.19,14.84-7,12.89c0,0-6.57,1.22-5.84-21.65,0,0,2.92-22.14-2.92-25.79,0,0-5.6-2.43,2.43-11.68C1762.35,872.64,1774.4,859.69,1779.64,856.68Z"/><polygon class="cls-12" points="1693.26 925.19 1758.02 862.06 1756.03 822.64 1732.31 851.47 1730.48 870.09 1716.25 880.67 1702.02 865.34 1693.26 872.28 1693.26 878.48 1675.01 907.67 1693.26 925.19"/><polygon class="cls-31" points="1637.44 933.59 1626.47 933.59 1628.3 919.72 1662.6 893.44 1669.17 905.85 1637.44 933.59"/><path class="cls-8" d="M1437,928.51s16.16-6.09,26.72-10.83c-1.79,0-4,0-6.18-.15,0,0-5.84-1.1-10.58,0,0,0-4-8.76-16.79-4,0,0-36.37,13.87-41,22.26,0,0-2.79,4.75,24.4,2.92a3.55,3.55,0,0,0,1.47.78C1417,937.26,1422.54,933.71,1437,928.51Z"/><path class="cls-9" d="M1468.63,919.94a4.44,4.44,0,0,0-4-2.28l-.9,0c-10.56,4.74-26.72,10.83-26.72,10.83-14.43,5.2-20,8.75-22,11,2.91,1,11.29,2.41,34.29-.36,0,0-7.07,7.51,12,5.46,0,0,20.33-1.68,23.61-8.8C1484.88,935.77,1472.26,926.6,1468.63,919.94Z"/><path class="cls-8" d="M1435.61,890.89s14.76-26.31,23.82-36.51a1.66,1.66,0,0,0-.59-2.64c-3.3-1.37-9.26-4.6-12.13-10.82a2.43,2.43,0,0,0-3.31-1.15c-7.89,4-33.44,18.22-53.58,43.29a3,3,0,0,0,1,4.58C1396.55,890.53,1410.67,895.34,1435.61,890.89Z"/><path class="cls-7" d="M1384.3,893.46c-2.92-2.17-10.36-8.37-12.17-16.66a1.52,1.52,0,0,0-1.8-1.17c-6.41,1.32-31,6.64-39.72,12.37a2.61,2.61,0,0,0-1,3c1.72,5,8.25,18.35,28.66,16.27l25.92-12.38A.86.86,0,0,0,1384.3,893.46Z"/><path class="cls-7" d="M1370.9,836l-64.2,47.87a3.79,3.79,0,0,1-2.25.74h-12.32a1.76,1.76,0,0,1-1.76-1.76V870.17a2.14,2.14,0,0,1,1.31-2l78.81-33A.41.41,0,0,1,1370.9,836Z"/><path class="cls-7" d="M1367.92,826.79c-4.79-.71-15.1-3.56-18.67-15.07a1.5,1.5,0,0,0-2.18-.89c-6.2,3.53-29,16.84-61.69,39.49a1.33,1.33,0,0,0-.57,1.17c.2,3.24,1.44,15.82,8.24,12.64l75.06-36A.71.71,0,0,0,1367.92,826.79Z"/><path class="cls-8" d="M1415.45,851.48l18.19-14.19a.57.57,0,0,0-.24-1c-6.18-1-33.64-4.53-43.83,14.48a.58.58,0,0,0,.51.84h25A.62.62,0,0,0,1415.45,851.48Z"/><path class="cls-8" d="M1389.64,875.44c1.23-1.43,10.68-12.39,14.56-15a.39.39,0,0,0-.17-.7c-2.68-.36-9.17-1.2-10.78-1a.33.33,0,0,0-.16.07c-.88.67-9.44,7.22-13.48,13.13a.37.37,0,0,0,.16.56,42.41,42.41,0,0,0,9.53,3.05A.37.37,0,0,0,1389.64,875.44Z"/><path class="cls-8" d="M1471.86,825.69s24.37-23.56,39.34-29.11a1.35,1.35,0,0,0-.14-2.56c-5.55-1.51-17.15-3.18-37.25,0,0,0-21.65,18.49-28.46,27.49C1445.35,821.55,1460.67,827.15,1471.86,825.69Z"/><path class="cls-8" d="M1455.69,805s9.61-13.32,13.25-15a25.91,25.91,0,0,0-15.08,2.3s-7.54,6.95-8.51,10.6C1445.35,802.82,1448.75,806.22,1455.69,805Z"/><path class="cls-8" d="M1509.23,779.55l30.8-34.86a1,1,0,0,0-.72-1.6h-4.43a4.54,4.54,0,0,0-3.14,1.27l-34.11,33.08a.78.78,0,0,0,.4,1.32l8.73,1.64A2.64,2.64,0,0,0,1509.23,779.55Z"/><path class="cls-8" d="M1516.2,779.94l36.33-26.16a7.23,7.23,0,0,1,5.89-1.18l2.49.59a1.78,1.78,0,0,1,1.23,2.43L1550,783.83a.57.57,0,0,0,.7.78c3.81-1.26,15.46-4.21,20.3,5,0,0-51.82,61.84-72.62,98,0,0-7.6,11.29-19.67,5.1,0,0-8.43-4.73,2.16-18.78,0,0,48.53-57.48,56.2-58.57,0,0,9.48,1.33,8.75-11.56,0,0-1.23-8.84-7.72-7.88a7.09,7.09,0,0,0-5.72,5.48,15.06,15.06,0,0,0,.31,7.68l-24.4,27.1a.86.86,0,0,1-1,.2l-2.64-1.25a.84.84,0,0,1-.32-1.26l14.66-20.1a148.94,148.94,0,0,1,17.58-33.08l-39.43,55.6a1.39,1.39,0,0,1-1.57.52l-4.55-1.49a.87.87,0,0,1-.42-1.35c5.1-6.61,34.5-45.09,32.66-51.09l-6.88-1.86A.6.6,0,0,1,1516.2,779.94Z"/><path class="cls-8" d="M1450,895.56l20.09-11a2.76,2.76,0,0,0,1.42-2.11l.71-6.46a2.71,2.71,0,0,1,.7-1.52l25.48-27.07a.87.87,0,0,0-.53-1.46,66.36,66.36,0,0,0-10.19-.37,17.1,17.1,0,0,0-9.7,3.55l-25.38,19.6a.82.82,0,0,0-.09,1.21l3.87,4a1.56,1.56,0,0,1,.17,1.93l-10.83,16.23a.83.83,0,0,0,.15,1.08l2.65,2.25A1.32,1.32,0,0,0,1450,895.56Z"/><polygon class="cls-8" points="1389.51 841.99 1409.7 820.82 1399.61 820.82 1409.7 809.07 1409.7 803.3 1396.57 813.52 1381.24 835.34 1389.51 841.99"/><path class="cls-32" d="M524.64,821.7h0c1.24-.05,2.43-.1,3.55-.17C527.07,821.6,525.88,821.65,524.64,821.7Z"/><path class="cls-32" d="M353.83,663.7l.7-.32Z"/><path class="cls-32" d="M218.92,710.24s-14,0-33.75.42C191.5,711.16,202.2,711.11,218.92,710.24Z"/><path class="cls-32" d="M534.91,820.91c.46-.07.87-.14,1.24-.22C535.78,820.77,535.37,820.84,534.91,820.91Z"/><path class="cls-32" d="M510.07,821.91c-7.43,0-14.64-.13-19.19-.24C495.43,821.78,502.64,821.91,510.07,821.91Z"/><path class="cls-32" d="M486.32,821.56h0Z"/><path class="cls-32" d="M490.82,821.67l-1.55,0Z"/><path class="cls-32" d="M520.11,821.82c1.56,0,3.08-.07,4.53-.12h0C523.19,821.75,521.67,821.79,520.11,821.82Z"/><path class="cls-33" d="M97.76,669s34.31,9.49,154,8.39c0,0-112.4,9.85-132.83,17.88,0,0,34.07,5.11,96.59,0,0,0-58.59,13.15-30.35,15.38,19.71-.46,33.75-.42,33.75-.42-16.72.87-27.42.92-33.75.42-35.89.84-90.6,3.36-113.68,10.9,0,0-20.44,12.41,54.74,9.49,0,0-108.75,5.1-98.54,17.51,0,0,26.27,8,134.3-2.92,0,0-28.46,13.14,46,10.22,0,0-.73,10.95,26.28,10.22,0,0-59.85,11.68,2.19,13.14,0,0-59.8,2.19-64.93,8,0,0-109.51,0-127,11.67,0,0-17.46,13.08,127,10.22,0,0-100.75,8.76-108.78,18.25,0,0-2.19,8.76,105.83,5.84,0,0-138,5.33-151.08,17.26,0,0-18.25,20.69,77.36,13.39,0,0,87.59,7.3,142.33-1.46,0,0,143,4.6,29.17-11.93,0,0-130.62-4.12,160.59-6.31,0,0,116.05-5.84,0-16.06,0,0,69.34.73,59.12-6.57h2.27l.95,0,1.55,0h.06c4.55.11,11.76.24,19.19.24h2.22l3.64,0,4.18-.07h0c1.56,0,3.08-.07,4.53-.12,1.24-.05,2.43-.1,3.55-.17h.09l1-.06h.14l.92-.06h.11l1.92-.16h.07l.76-.08.2,0,.59-.07.22,0,.54-.08.18,0c.46-.07.87-.14,1.24-.22l.14,0,.37-.09.16,0,.29-.09.14,0,.25-.1.1,0a2.18,2.18,0,0,0,.27-.15s-2.92-4.38-108.75-1.46c0,0,84.91-3.89,91.24-8.27,0,0-5.11-2-25.18-2,0,0,5.71-4.86-30.29-5.84,0,0,19.46-1.94,10.7-6.81,0,0,28.71-2.43,26.76-5.84,0,0-15.57-2.43-43.3.49,0,0,39.41-6.81,19.46-12.17,0,0-24.81-3.4-51.09,2.92,0,0,24.82-8.75,14.11-10.7,0,0,23.36,0,21.41-3.41,0,0-11.19-1.46-53,2.44,0,0,14.6-6.33-26.27-6.33,0,0-1.46-4.38,23.35-4.87,0,0,42.82.28,41.36-3,0,0-74-5-78.82,0,0,0-16.06,2.82-28.71,0,0,0,25.3-6.22,35-7.19,0,0,66.18,1,64.72-2.44,0,0-75.91-6.81-101.7,2,0,0-21.41,4.38-16.54-4.38,0,0,1.46-6.81,31.14-4.87,0,0,47.56-2.19,9.24-3.64,0,0-44.52.36-53.28-2.19,0,0,1.46-4,46-4,0,0,70.06-1.46,7.66-4.38,0,0-46.35,1.46-54.38-2.55,0,0,10.59-1.1,38.32-1.1,0,0,54.74-2.55,5.48-7.3,0,0-11.68-5.47-38-6.2,0,0,39.05-5.84-5.47-6.57,0,0-33.57,2.92-33.57-5.47,0,0,67.87-4.38,36.12-8,0,0-38.4-2.19-40.5-8.39,0,0-1.46-2.56,33.57-3.29,0,0,59.85,2.19,58.39-4.74,0,0-15.7-3.81-9.49-6.65l.07,0h0l.18-.09.7-.32.28-.12.53-.25.73-.33.14-.07.06,0,0,0,0,0-.06,0-.14.07-.73.33-.53.25-.28.12-.7.32-.18.09h0l-.07,0s22.21-6.66,5.57-11.6H291l25,4.38S115.28,658.79,97.76,669Z"/><path class="cls-34" d="M353.58,663.82c-6.21,2.84,9.49,6.65,9.49,6.65,1.46,6.93-58.39,4.74-58.39,4.74-35,.73-33.57,3.29-33.57,3.29,2.1,6.2,40.5,8.39,40.5,8.39,31.75,3.65-36.12,8-36.12,8,0,8.39,33.57,5.47,33.57,5.47,44.52.73,5.47,6.57,5.47,6.57,26.28.73,38,6.2,38,6.2,49.26,4.75-5.48,7.3-5.48,7.3-27.73,0-38.32,1.1-38.32,1.1,8,4,54.38,2.55,54.38,2.55,62.4,2.92-7.66,4.38-7.66,4.38-44.53,0-46,4-46,4,8.76,2.55,53.28,2.19,53.28,2.19,38.32,1.45-9.24,3.64-9.24,3.64-29.68-1.94-31.14,4.87-31.14,4.87-4.87,8.76,16.54,4.38,16.54,4.38,25.79-8.76,101.7-2,101.7-2,1.46,3.41-64.72,2.44-64.72,2.44-9.73,1-35,7.19-35,7.19,12.65,2.82,28.71,0,28.71,0,4.86-5,78.82,0,78.82,0,1.46,3.3-41.36,3-41.36,3-24.81.49-23.35,4.87-23.35,4.87,40.87,0,26.27,6.33,26.27,6.33,41.85-3.9,53-2.44,53-2.44,1.95,3.41-21.41,3.41-21.41,3.41,10.71,1.95-14.11,10.7-14.11,10.7,26.28-6.32,51.09-2.92,51.09-2.92,19.95,5.36-19.46,12.17-19.46,12.17,27.73-2.92,43.3-.49,43.3-.49,1.95,3.41-26.76,5.84-26.76,5.84,8.76,4.87-10.7,6.81-10.7,6.81,36,1,30.29,5.84,30.29,5.84,20.07,0,25.18,2,25.18,2-6.33,4.38-91.24,8.27-91.24,8.27,105.83-2.92,108.75,1.46,108.75,1.46a2.18,2.18,0,0,1-.27.15l-.1,0-.25.1-.14,0-.29.09-.16,0-.37.09-.14,0c-.37.08-.78.15-1.24.22l-.18,0-.54.08-.22,0-.59.07-.2,0-.76.08h-.07l-1.92.16h-.11l-.92.06h-.14l-1,.06h-.09c-1.12.07-2.31.12-3.55.17,17.69,3.6,62.86-4.66,42.43.94-22.63,6.21,35.4,3.29,35.4,3.29-14.3,6.15,23.35,3.28,23.35,3.28,36.13-2.55,5.48-7.66,5.48-7.66-46-4,17.51-5.47,17.51-5.47,44.89,0,4-5.84,4-5.84-12-2.92,31.75-2.92,31.75-2.92,8.39-2.92-9.49-4.75-9.49-4.75,0-4.74-22.45-5.11-22.45-5.11-40.7-4.38,18.43-5.83,18.43-5.83,39,.36.37-5.11.37-5.11-19-3.29,5.84-2.92,5.84-2.92,24.08,1.09,33.57-2.92,33.57-2.92,2.56-7.3-48.53-6.21-48.53-6.21-18.25-1.46,31.75-4.38,31.75-4.38,5.47-2.55-37.59-2.55-37.59-2.55-21.53-2.92,63.13-4,63.13-4,17.15-3.65-48.17-6.21-48.17-6.21-56.93-5.47,33.57-7.66,33.57-7.66,29.93-4-29.77-4-29.77-4-33.06-2.19,5-4,5-4,22.29-.73,0-2.92,0-2.92-17.49-2.56,16.68-2.56,16.68-2.56,25.82-1.45,2.27-2.91,2.27-2.91-8-1.83,7.77-2.19,7.77-2.19,43-1,1.72-6.33,1.72-6.33-10.21-2.43,28.23-1.46,28.23-1.46,46.22-3.89-12.66-9.73-12.66-9.73-10.7-3.41,34.06-2.43,34.06-2.43,25.31-2.44-29.19-8.28-29.19-8.28,16.06-3.4-20.44-6.32-20.44-6.32,56,2.43,52.55-3.89,52.55-3.89,25.79,1,22.87-3.41,22.87-3.41-2.92-2-64.71-3.89-64.71-3.89,52.55-1.46,32.6-5.84,32.6-5.84,35,1,38.44-4.38,38.44-4.38-12.57,0-28.13-1.68-40.62-3.37-3.22.27-5.59.41-6.18.44h-.16c-27.56.94-37.15-.92-40-1.79a14.3,14.3,0,0,0-3-.57,140.91,140.91,0,0,0-20.43.66c-30.16,3.16-25.54-1.46-25.54-1.46-.24-4.38-43.18.54-43.18.54-21.72,1.1-34.49-5.1-34.49-5.1-15.51,4.56-37.22-.37-37.22-.37-10.95-1.09-33.94,1.46-33.94,1.46-11.69,2.61-23.55,1.92-29.92,1.21a30.54,30.54,0,0,0-9,.36c-12.61,2.34-33.72,1.14-40.93.63a27.09,27.09,0,0,0-4.85.11c-19,2.09-57.86-1.76-57.86-1.76.91-3.29,12.59-4.75,12.59-4.75,4.85-2.59,14.08-6.51,20.43-9.12H359.15C375.79,657.16,353.58,663.82,353.58,663.82Z"/><path class="cls-35" d="M1628.66,951.47s-16.05-1.1-15.32-8.4c0,0-16.06,1.83-30.29-1.09,0,0-22.63-6.21-36.86-10.58,0,0-40.14-11.68-82.84-11.68,0,0-59.31,8.86-57.35-7.68-27,10.47-50.12.06-50.12.06-87.59,4.62-87.22-12.45-87.22-12.45-18.07,2.73-43.61,3.65-43.61,3.65-30.84,1.09-21.9-13.51-21.9-13.51-3.47.73-22.94,2.19-22.94,2.19-32.06,2.56-24-7.66-24-7.66a35.1,35.1,0,0,1,8.29-6.14c1.06-1.18,4.54-3.74,15.61-5.9l0-.07,7.59-9.14c-11.91-.28-28.8,0-28.8,0-78.09-2.73,2.58-9.08,2.58-9.08,43.71-5-.83-6.67-.83-6.67-55.9-1.46-5.41-5.35-5.41-5.35,24.33-2,24.87-2.92,24.87-2.92,1-3.41-11.73-3.29-11.73-3.29,12.65-11.07-58.24-8.88-58.24-8.88-58.25-3.4,31-7.78,31-7.78,68.61-6.82-81.51-7.3-81.51-7.3-47-1.46-2.69-7.3-2.69-7.3,76.37-12.65-50.58-8.27-50.58-8.27-57.9-1.46-2.65-6.81-2.65-6.81,77.63-6.33-6.43-7.3-6.43-7.3-53.84-1,22.9-5.36,22.9-5.36,117.94.49,99.43-4.86,99.43-4.86-3-1.95-106.92,0-106.92,0-65.69-2.43,0-5.35,0-5.35,49.63,1,14.59-6.33,14.59-6.33-76.88-.49-10.22-8.27-10.22-8.27-9.73-2.92,10.22-7.3,10.22-7.3,56-2.43,16.06-7.3,16.06-7.3-42.33-3.89,18-5.84,18-5.84,70.07-3.89,13.63-12.65,13.63-12.65,34.06,1,49.63-5.84,49.63-5.84.49-4.86-67.64-3.4-67.64-3.4,11.2-16.55-121.15-6.82-121.15-6.82-26.77-1.46-1-8.75-1-8.75,19-2.44,9.25-4.38,9.25-4.38-16.55-1-58.39-3.41-58.39-3.41-18-8.27,54.5-7.3,54.5-7.3,10.23,0,6.58-3.86,2-7-22.88.55-47.18-4.16-54-5.61a9.14,9.14,0,0,0-3.86,0,118.17,118.17,0,0,1-54.72-1.81,3.14,3.14,0,0,0-1.72,0c-15.83,4.77-34.43,2.77-44.27,1.11a15.07,15.07,0,0,0-9.32,1.36c-.28.14-.6.29-.93.42l-.3.13-.79.29-.32.12-1.16.36h0c-.41.12-.83.24-1.27.35l-.4.1-1,.24-.42.1-1.41.3h0l-1.5.29-.45.08-1.14.19-.44.08c-1,.16-2.1.32-3.16.46l-.39.06-1.27.16-.35,0-3.16.36-.23,0-1.37.14-.16,0-2.93.27c12.49,1.69,28.05,3.37,40.62,3.37,0,0-3.41,5.35-38.44,4.38,0,0,19.95,4.38-32.6,5.84,0,0,61.79,1.94,64.71,3.89,0,0,2.92,4.38-22.87,3.41,0,0,3.41,6.32-52.55,3.89,0,0,36.5,2.92,20.44,6.32,0,0,54.5,5.84,29.19,8.28,0,0-44.76-1-34.06,2.43,0,0,58.88,5.84,12.66,9.73,0,0-38.44-1-28.23,1.46,0,0,41.31,5.35-1.72,6.33,0,0-15.79.36-7.77,2.19,0,0,23.55,1.46-2.27,2.91,0,0-34.17,0-16.68,2.56,0,0,22.29,2.19,0,2.92,0,0-38,1.82-5,4,0,0,59.7,0,29.77,4,0,0-90.5,2.19-33.57,7.66,0,0,65.32,2.56,48.17,6.21,0,0-84.66,1.09-63.13,4,0,0,43.06,0,37.59,2.55,0,0-50,2.92-31.75,4.38,0,0,51.09-1.09,48.53,6.21,0,0-9.49,4-33.57,2.92,0,0-24.82-.37-5.84,2.92,0,0,38.68,5.47-.37,5.11,0,0-59.13,1.45-18.43,5.83,0,0,22.45.37,22.45,5.11,0,0,17.88,1.83,9.49,4.75,0,0-43.79,0-31.75,2.92,0,0,40.87,5.84-4,5.84,0,0-63.49,1.46-17.51,5.47,0,0,30.65,5.11-5.48,7.66,0,0-37.65,2.87-23.35-3.28,0,0-58,2.92-35.4-3.29,20.43-5.6-24.74,2.66-42.43-.94-1.45,0-3,.09-4.53.12h0l-4.18.07-3.64,0h-2.22c-7.43,0-14.64-.13-19.19-.24h-.06l-1.55,0-.95,0h-2.27c10.22,7.3-59.12,6.57-59.12,6.57,116.05,10.22,0,16.06,0,16.06-291.21,2.19-160.59,6.31-160.59,6.31,113.85,16.53-29.17,11.93-29.17,11.93-54.74,8.76-142.33,1.46-142.33,1.46-95.61,7.3-77.36-13.39-77.36-13.39,13.11-11.93,151.08-17.26,151.08-17.26-108,2.92-105.83-5.84-105.83-5.84,8-9.49,108.78-18.25,108.78-18.25C27,812,44.48,798.92,44.48,798.92c17.52-11.67,127-11.67,127-11.67,5.13-5.84,64.93-8,64.93-8-62-1.46-2.19-13.14-2.19-13.14-27,.73-26.28-10.22-26.28-10.22-74.44,2.92-46-10.22-46-10.22-108,11-134.3,2.92-134.3,2.92-10.21-12.41,98.54-17.51,98.54-17.51-75.18,2.92-54.74-9.49-54.74-9.49,23.08-7.54,77.79-10.06,113.68-10.9-28.24-2.23,30.35-15.38,30.35-15.38-62.52,5.11-96.59,0-96.59,0,20.43-8,132.83-17.88,132.83-17.88-119.69,1.1-154-8.39-154-8.39C115.28,658.79,316,656.6,316,656.6l-25-4.38H0V1022S64.42,995,95.77,987.15a8.76,8.76,0,0,0,4.56-2.83l2.65-3.14a4.7,4.7,0,0,1,6.92-.3,3.11,3.11,0,0,0,3.82.45l3.38-2.07a4.71,4.71,0,0,1,5.76.66c3.88,3.89,11.78,10.54,19.42,9.5,0,0,10.18-4.92,18.67-6.41.35-.07.7-.16,1-.26a10.17,10.17,0,0,0,6.4-5.67c2.93-6.6,8.47-17.38,15.29-22.42a6.19,6.19,0,0,0,2.46-5.5c-.28-3.31-.45-8.1.42-11.32,0,0,8.76-5.59,23.85-3.65,0,0,.07-.4.24-1.09,1.28-5.35,8.1-28.83,29.44-29.8a175.39,175.39,0,0,1,23.34-.55,160.86,160.86,0,0,1,18.5,1.76s-.17,56.51-.08,78.61a25.84,25.84,0,0,1,5.44-2c11.87-1.38,20.34,23.67,24.27,38.44a119.71,119.71,0,0,0,17.57,1.46c21.9-1,12.17,8.76,12.17,8.76-11.2,11.67,17.51,12.65,17.51,12.65-.11.45-.18.87-.24,1.29,7-.09,16.14-.14,22,.09a6.21,6.21,0,0,0,2.91-.6,43.65,43.65,0,0,1,21.29-4s13.63,1.71,20.93-2.92c0,0,5.35-4.37,23.11-2.91a51.87,51.87,0,0,0,9.88-.34,139.25,139.25,0,0,0,17.12-11.59c8-2.92,23.36-1.46,23.36-1.46,2.92,11.68,46,5.11,46,5.11a4.76,4.76,0,0,0-.62,3.36c12.51,0,35.47-.12,50.25,0,0,0,51.09-.49,90.51-7.06,0,0,47.2-6.08,39.9,3.53,0,0,81.26-1.58,81.26,6.21,0,0-1.22,5.56-19.9,7,3,1.5,3.84,3,3.84,3-.14.28-.26.55-.38.82,24.25-1.52,75.88-3.57,74.25,6.7,38.12-2,49.72-6.79,49.72-6.79a58.27,58.27,0,0,1,8.79-2.11,20.93,20.93,0,0,0-3.34.64s-.77-4,6.35-5.65c0,0-.73-8.21,22.63-7.66,0,0,13.74.91,20.55-1.52,0,0,10.2-5.33,44.63-4.45a25.42,25.42,0,0,0,5.08-.4c6.21-1.11,23-3.79,39.37-3.7a15.91,15.91,0,0,0,4.55-.62c6.77-2,28.5-7.65,51.57-6.83a20.24,20.24,0,0,0,7.16-1.06c6.56-2.23,21.26-6.53,34.18-5.44a22.55,22.55,0,0,0,10.46-1.64,106.78,106.78,0,0,1,28.83-7.22,49.81,49.81,0,0,1,14,.56c20.11,3.59,86.13,14.12,84.89-2.9,0,0-2.72-13.62,32.53-8.36a9.67,9.67,0,0,0,2.74,0c5.63-.85,27.18-3.64,27,2.87a2.58,2.58,0,0,0,1.86,2.66c4.81,1.21,15.77,3.18,24.08-1.43a35,35,0,0,1,27.73-3.41s11.44,4.73,17.52-2c0,0,.73-8.45,20.68-7.72,0,0,49.14,2.19,67.15-3.89,0,0,13.42-4.14,40.28-6.33,0,0,5.54-.05,13.22-.31,16-.54,41.4-2,45.52-5.77a40,40,0,0,1,16.17-6.37C1629.67,951.76,1629.19,951.61,1628.66,951.47Z"/><path class="cls-32" d="M363.07,666.09s38.88,3.85,57.86,1.76a27.09,27.09,0,0,1,4.85-.11c7.21.51,28.32,1.71,40.93-.63a30.54,30.54,0,0,1,9-.36c6.37.71,18.23,1.4,29.92-1.21,0,0,23-2.55,33.94-1.46,0,0,21.71,4.93,37.22.37,0,0,12.77,6.2,34.49,5.1,0,0,42.94-4.92,43.18-.54,0,0-4.62,4.62,25.54,1.46a140.91,140.91,0,0,1,20.43-.66,14.3,14.3,0,0,1,3,.57c2.88.87,12.47,2.73,40,1.79h.16c.61,0,3-.17,6.18-.44l2.93-.27.16,0,1.37-.14.23,0,3.16-.36.35,0,1.27-.16.39-.06c1.06-.14,2.11-.3,3.16-.46l.44-.08,1.14-.19.45-.08,1.5-.29h0l1.41-.3.42-.1,1-.24.4-.1c.44-.11.86-.23,1.27-.35h0l1.16-.36.32-.12.79-.29.3-.13c.33-.13.65-.28.93-.42a15.07,15.07,0,0,1,9.32-1.36c9.84,1.66,28.44,3.66,44.27-1.11a3.14,3.14,0,0,1,1.72,0,118.17,118.17,0,0,0,54.72,1.81,9.14,9.14,0,0,1,3.86,0c6.86,1.45,31.16,6.16,54,5.61,3.51-.08,7-.29,10.37-.65a15.85,15.85,0,0,1,3.08,0c6.22.5,30,2.14,40.48-1.26a1.62,1.62,0,0,0-.09-3.11c-6.47-1.69-22.77-4.29-59.17-2.65a1.39,1.39,0,0,1-1.44-1.49,10.41,10.41,0,0,0-2.77-7.59c-4.42-5.05-15.48-10.13-42.49-9.28a12.27,12.27,0,0,1-3.71-.46c-7.65-2.22-39-10.47-66.09-5.55a9.63,9.63,0,0,1-2.57.12c-7.61-.75-46.17-5-59.19-15.91a3.86,3.86,0,0,0-3.46-.84c-6.59,1.69-28.55,6.34-50.63-.07a3.13,3.13,0,0,0-1.46-.08l-37,6.85a11.28,11.28,0,0,1-3.48.09c-8-1-41.25-5.79-51.81-14.25a1.87,1.87,0,0,0-2.13-.19c-1.1.61-3.22,1.77-7.29,4a2.37,2.37,0,0,1-1.81.17l-14.16-4.51a2.27,2.27,0,0,0-1.82.19c-3.21,1.81-14.88,8.37-27.6,15.2,0,0-19.37,10-36.41,8.08a1.89,1.89,0,0,1-.83-.3l-12-7.68a2.06,2.06,0,0,0-1.57-.28l-7.74,1.72a2.22,2.22,0,0,1-2.14-.66c-2-2.19-7.1-7.63-10.34-10.72a4.23,4.23,0,0,0-5.28-.44l-31.19,21a4.36,4.36,0,0,1-1.87.71L436,643.56a3.64,3.64,0,0,0-2,1l-8.09,7.69L424,653.93a5.14,5.14,0,0,1-4.49,1.32,68,68,0,0,1-11.09-3,35,35,0,0,1-3.74-1.66,4.78,4.78,0,0,0-4-.23l-4.65,1.89c-6.35,2.61-15.58,6.53-20.43,9.12C375.66,661.34,364,662.8,363.07,666.09Z"/><path class="cls-32" d="M743.61,672.16c.59,0,3-.17,6.18-.44h0C746.58,672,744.22,672.12,743.61,672.16Z"/><path class="cls-32" d="M749.79,671.72l2.93-.27-2.93.27Z"/><path class="cls-32" d="M355.34,663l.73-.33Z"/><circle class="cls-36" cx="380.77" cy="460.81" r="232.65"/><path class="cls-12" d="M1068.14,886.35c-12.9.45-24.93,9.92-29.11,13.57a185.73,185.73,0,0,0,20.69.13A180.37,180.37,0,0,1,1075,888.39,56.11,56.11,0,0,0,1068.14,886.35Z"/><path class="cls-7" d="M1034.92,890.16s-32,4-1.37,5.84c0,0-6.38,2.92,5.48,3.92,4.18-3.65,16.21-13.12,29.11-13.57C1059.85,884.45,1047,883.39,1034.92,890.16Z"/><path class="cls-9" d="M1156.32,932s-4.38-5.35-14.11-2.43c0,0-13.14-11.68-21.9-15.57-.56,6.42-14,10.28-14,10.28a219.16,219.16,0,0,0-32.09,15.3c6.39.37,15.15.11,27.16-1.25,0,0-.48,7.67,42.34,1.4,0,0,9.48,2.25,15.32-1.16C1159,938.57,1159.24,935.9,1156.32,932Z"/><path class="cls-7" d="M1120.31,914h0s-34.06-2-63.26,18c0,0-1.61,6.49,17.12,7.58a219.16,219.16,0,0,1,32.09-15.3S1119.75,920.42,1120.31,914Z"/><path class="cls-7" d="M1097.68,881.22s7.3,4.69,9.13,10c0,0,10.22-9.28,19.52-7.82,0,0,6.39,1.09,13.87-9.13,0,0,4.13-5.41,10.28-7l-4.87-1.22s-8.51-5.11-12.89-1.94c0,0-16.06,15.26-20.93,16.27,0,0-11.19-6.6-21.89,0,0,0-.37.22-1,.61C1092.55,879.81,1095.66,879.64,1097.68,881.22Z"/><path class="cls-9" d="M1153.15,873.61l-2.67-6.32c-6.15,1.58-10.28,7-10.28,7-7.48,10.22-13.87,9.13-13.87,9.13-9.3-1.46-19.52,7.82-19.52,7.82-1.83-5.32-9.13-10-9.13-10-2-1.58-5.13-1.41-8.76-.21-2.7,1.68-10.13,6.39-11.92,8.17,0,0-.71-.32-2-.79a180.37,180.37,0,0,0-15.31,11.66l1.11,0s42.69-4.07,40.14.25c0,0,32.78,3.7,59.73-2.56C1160.7,897.7,1161.91,873.37,1153.15,873.61Z"/><path class="cls-7" d="M1272.85,889.43a30.28,30.28,0,0,0,4.46-10s0-.12-.08-.17-5.84-2.92-25.79,13.14c0,0-18.24,8.76-22.14,13.38a26.06,26.06,0,0,0,15.33,6.57H1246C1253.18,907.57,1266.62,898.13,1272.85,889.43Z"/><path class="cls-9" d="M1277.31,879.38a30.28,30.28,0,0,1-4.46,10c-6.23,8.7-19.67,18.14-26.9,22.86,3.65,0,14-.31,19.24-1.7C1265.19,910.59,1282.13,889,1277.31,879.38Z"/><path class="cls-9" d="M1234.66,895.65a25.92,25.92,0,0,0,4.56-22.22,4.75,4.75,0,0,0-1.67-2.57c-.4,18.82-56.08,42.06-76,49.76a76.4,76.4,0,0,0,17.36,2.14s35.27,1.75,42.57-1.42c0,0,9.51-2.47,16.09-7.12a1.32,1.32,0,0,0,.37-1.71C1236.2,909.35,1231.21,899.61,1234.66,895.65Z"/><path class="cls-7" d="M1237.55,870.86a3.43,3.43,0,0,0-.43-.32c-3.24-2-11.84-4.55-31.17,3.07,0,0-44.52,23.5-57.9,40.34,0,0,3.33,4.06,13.53,6.67C1181.47,912.92,1237.15,889.68,1237.55,870.86Z"/><path class="cls-37" d="M1302.19,446.6c-9-.56-18.91-2.16-27.16-.84-11.79,1.86-21,7.14-26.24,8.41,3.16-7.13,30.47-22.76,53.4-7.57Zm-12.63-13.36c-4.74-.28-9.94-1.11-14.28-.43-6.21,1-11.06,3.76-13.8,4.42,1.68-3.75,16-12,28.08-4Z"/><path class="cls-37" d="M1039.91,446.6c22.93-15.19,50.24.44,53.4,7.57-5.24-1.27-14.45-6.55-26.24-8.41-8.25-1.32-18.15.28-27.16.84Zm12.63-13.36c12-8,26.4.24,28.08,4-2.74-.66-7.59-3.44-13.8-4.42-4.35-.68-9.55.15-14.28.43Z"/><path class="cls-38" d="M1176.09,515.65l.9,4.13.92,4.12c.31,1.37.62,2.73.94,4.09l.48,2,.25,1,.25,1a9,9,0,1,1-17.42,4.55,8.86,8.86,0,0,1-.25-3.14l0-.17.11-1.13.12-1.1c.09-.72.17-1.45.26-2.16.18-1.44.37-2.86.56-4.27l.57-4.25.6-4.24a5.94,5.94,0,0,1,11.68-.45Z"/><path class="cls-39" d="M1192.45,537.45c1.16.29,2.24.57,3.34.87l3.29.92q3.29.94,6.54,2c4.34,1.38,8.66,2.87,13,4.54a123,123,0,0,1,12.75,5.72,70.49,70.49,0,0,1,6.24,3.67,40.21,40.21,0,0,1,6,4.86,23.49,23.49,0,0,1,2.79,3.34c.22.33.44.64.64,1l.3.52c.05.08.11.2.17.31l.17.34a12.84,12.84,0,0,1,1,2.86,13.64,13.64,0,0,1-.08,5.8,12.42,12.42,0,0,1-.38,1.36c-.08.24-.15.42-.22.61s-.14.37-.22.56a17.54,17.54,0,0,1-1.06,2.18,20.78,20.78,0,0,1-2.81,3.8,25.16,25.16,0,0,1-3.29,3,39.13,39.13,0,0,1-6.88,4.09c-2.29,1.09-4.54,2-6.77,2.82s-4.42,1.56-6.59,2.27c-4.33,1.44-8.55,2.78-12.63,4.22a7.32,7.32,0,1,1-4.89-13.8l.48-.15h0c4.47-1.23,8.88-2.29,13.15-3.38a105,105,0,0,0,12-3.65,27.07,27.07,0,0,0,4.85-2.42,10.71,10.71,0,0,0,3.12-2.88,6.52,6.52,0,0,0,.48-.8,2,2,0,0,0,.1-.21l.09-.18c0-.09.08-.17.11-.25a2.59,2.59,0,0,0,.18-.86,1.76,1.76,0,0,0,0-.34.08.08,0,0,1,0,0,.26.26,0,0,0,0-.07l-.1-.21a3.74,3.74,0,0,0-.23-.44,12.84,12.84,0,0,0-1.37-1.92,29.46,29.46,0,0,0-4.16-3.86,60.31,60.31,0,0,0-5.1-3.52,115.3,115.3,0,0,0-11.37-6.14c-3.94-1.87-8-3.61-12.08-5.24-2-.81-4.11-1.6-6.18-2.35l-3.12-1.11c-1-.36-2.1-.73-3.1-1.05l0,0a3.49,3.49,0,0,1,1.93-6.71Z"/><path class="cls-40" d="M1212.38,594.84c1.49-4,.71-12.46-4.15-19.16-2.26-3.12-6.22-6.76-10.13-5.13-3.25,1.35-4.27,6.65,7.64,11.16,0,0-7.54.18-12.51-3.62a15.73,15.73,0,0,0-4.42-2.46c-2.25-.79-5.32-1.52-7.73-.82a4.7,4.7,0,0,0-2.26,7.44c1.19,1.54,3.36,3,7.27,2.69,0,0,11.6-.46,10.89,3.16,0,0,.38,4.27-11.09,1.26,0,0-6.48-1.46-8.17,3.22a5.49,5.49,0,0,0,.83,5.3c1.14,1.38,3.26,2.49,7.12.86,0,0,8.94-4.82,11.34-1.59,0,0,1,2.94-8,4.47,0,0-4.34.71-4.31,4.4a2.81,2.81,0,0,0,.43,1.49,4.82,4.82,0,0,0,4,2.1,7.92,7.92,0,0,0,4.82-1.24,47.54,47.54,0,0,1,9.09-4.49A15.25,15.25,0,0,0,1212.38,594.84Z"/><path class="cls-41" d="M1157.64,456.21s-6.56-16.68-18.41-18.82a11.58,11.58,0,0,0-8.8,2c-4.32,3.07-10.69,10.59-12.45,28.53,0,0-10.13,19.4,5.15,35.2a57,57,0,0,0,12.5,11s29.5,19.11,57.74-.12c0,0,14.45-6.39,17.5-22.85,2.54-13.75-3.61-20.25-3.61-20.25,1.7-9.54-6-28.76-21.16-32.75a17.21,17.21,0,0,0-10.73.62C1170.42,440.74,1163.21,445.35,1157.64,456.21Z"/><ellipse class="cls-42" cx="1170.25" cy="459.67" rx="51.64" ry="56.03" transform="translate(556.06 1556.73) rotate(-82.2)"/><path class="cls-43" d="M1160,390.71c7.93,22.53,8.65,51.4,8.23,64.65a17.13,17.13,0,0,0,.16,2.69l-15.92-65.49h0l5.67-6.68Q1159.08,388.24,1160,390.71Z"/><path class="cls-44" d="M1222.73,482.42a30.77,30.77,0,0,1-1.67,3.07,16.88,16.88,0,0,1-5.19,5.18c-7.94,5.1-33.71,17-77.57-6.08,0,0-24.09-13.55-28-40.11a50,50,0,0,1-.51-8.24,6,6,0,0,1,2.77-1.72l.56-.15c-.15.46-.32.91-.47,1.37.85,9.46,4.85,18.28,8.73,24.82a54.23,54.23,0,0,0,18.4,18.57,85.6,85.6,0,0,0,65,10.67,23.19,23.19,0,0,0,15.68-12.92,67.93,67.93,0,0,0,4.52-15.21c.15-.81.29-1.6.42-2.38q0-3-.3-6a13.28,13.28,0,0,1,.77,1.13c.07.11.12.23.18.33a18.37,18.37,0,0,1,2.21,6.26c-.13,1.05-.29,2.14-.47,3.27C1226.85,470.18,1225.29,477,1222.73,482.42Z"/><g class="cls-45"><path class="cls-28" d="M1222.73,482.42a30.77,30.77,0,0,1-1.67,3.07,16.88,16.88,0,0,1-5.19,5.18c-7.94,5.1-33.71,17-77.57-6.08,0,0-24.09-13.55-28-40.11a50,50,0,0,1-.51-8.24,6,6,0,0,1,2.77-1.72l.56-.15c-.15.46-.32.91-.47,1.37.85,9.46,4.85,18.28,8.73,24.82a54.23,54.23,0,0,0,18.4,18.57,85.6,85.6,0,0,0,65,10.67,23.19,23.19,0,0,0,15.68-12.92,67.93,67.93,0,0,0,4.52-15.21c.15-.81.29-1.6.42-2.38q0-3-.3-6a13.28,13.28,0,0,1,.77,1.13c.07.11.12.23.18.33a18.37,18.37,0,0,1,2.21,6.26c-.13,1.05-.29,2.14-.47,3.27C1226.85,470.18,1225.29,477,1222.73,482.42Z"/></g><path class="cls-43" d="M1218.64,495.44c-.21.18-.44.35-.66.53-17,13.87-40.87,11.16-40.87,11.16-38.42-5.23-57.26-28.39-57.26-28.39-6.49-8.78-9.66-16.73-11.14-23.11-2.22-9.64-.58-15.73-.58-15.73a7.15,7.15,0,0,1,1.7-3.66,50,50,0,0,0,.51,8.24c3.87,26.56,28,40.11,28,40.11,43.86,23.06,69.63,11.18,77.57,6.08a16.88,16.88,0,0,0,5.19-5.18,30.77,30.77,0,0,0,1.67-3.07c2.56-5.41,4.12-12.24,5-18.13.18-1.13.34-2.22.47-3.27l.06.27a37.39,37.39,0,0,1,.39,4.69c.19,9.1-2.85,17.7-5,22.51A19.27,19.27,0,0,1,1218.64,495.44Z"/><path class="cls-44" d="M1110,432.62c.87-.23,1.71-.43,2.51-.6l1.61-.32c-.34.88-.66,1.77-1,2.67l-.56.15a6,6,0,0,0-2.77,1.72,7.15,7.15,0,0,0-1.7,3.66s-1.64,6.09.58,15.73c1.48,6.38,4.65,14.33,11.14,23.11,0,0,18.84,23.16,57.26,28.39,0,0,23.83,2.71,40.87-11.16.22-.18.45-.35.66-.53a19.27,19.27,0,0,0,5.1-6.95c2.11-4.81,5.15-13.41,5-22.51,3.2,7.45-.5,19.79-.5,19.79A35.37,35.37,0,0,1,1212.51,506a31.92,31.92,0,0,1-7.87,3.54c-40.25,13.36-81.67-19-81.67-19-6.47-6-11.26-14.82-14.33-21.74a97.1,97.1,0,0,1-4.08-10.77c-6.58-16.66-5.8-18-5.8-18C1099.73,436.21,1105.18,433.92,1110,432.62Z"/><path class="cls-43" d="M1200.67,460.5h0c.09-.23.16-.48.23-.72v0c.07-.23.13-.47.2-.71a1.16,1.16,0,0,1,0-.18c0-.19.09-.38.13-.57s.11-.53.16-.8c4.5-26.35-2.41-48.49-6.93-59.38a58.4,58.4,0,0,1,8.32,6.51C1204.93,416.05,1209.11,445.14,1200.67,460.5Z"/><path class="cls-44" d="M1113.16,434.37c.32-.9.64-1.79,1-2.67,7.43-19.11,21.44-33.6,38.28-39.14l15.92,65.49a17,17,0,0,0,.57,2.68c.09.29.18.57.29.86a16.65,16.65,0,0,0,7.21,8.6c.43.25.88.48,1.34.7s1,.44,1.53.63a17,17,0,0,0,3.81.86h0l.8.06h.26l.54,0h.79l.33,0,.46,0,.33,0,.44-.06.33-.05.44-.08.32-.06.45-.1.29-.07.65-.19.33-.11.44-.15.34-.13.35-.14.35-.16.32-.14.37-.18.29-.15.37-.21.26-.15.38-.23.23-.15.4-.27.13-.09a16.4,16.4,0,0,0,2-1.65l.1-.08.4-.42.1-.11c.14-.14.27-.28.4-.43l.09-.1.39-.47.06-.08.39-.51h0a18.8,18.8,0,0,0,2.15-3.76v0c.09-.21.18-.43.26-.65l0,0c.08-.23.17-.45.24-.68h0c8.44-15.36,4.26-44.45,2.16-55.88,12.25,11.51,20.56,28.9,22.26,48.68q.26,3,.3,6c-.13.78-.27,1.57-.42,2.38a67.93,67.93,0,0,1-4.52,15.21,23.19,23.19,0,0,1-15.68,12.92,85.6,85.6,0,0,1-65-10.67,54.23,54.23,0,0,1-18.4-18.57c-3.88-6.54-7.88-15.36-8.73-24.82C1112.84,435.28,1113,434.83,1113.16,434.37Z"/><path class="cls-44" d="M1201.11,459c-.07.24-.13.48-.2.71v0c-.07.24-.14.49-.23.72h0c-.07.23-.16.45-.24.68l0,0c-.08.22-.17.44-.26.65v0a18.8,18.8,0,0,1-2.15,3.76h0l-.39.51-.06.08-.39.47-.09.1c-.13.15-.26.29-.4.43l-.1.11-.4.42-.1.08a16.4,16.4,0,0,1-2,1.65l-.13.09-.4.27-.23.15-.38.23-.26.15-.37.21-.29.15-.37.18-.32.14-.35.16-.35.14-.34.13-.44.15-.33.11-.65.19-.29.07-.45.1-.32.06-.44.08-.33.05-.44.06-.33,0-.46,0-.33,0h-.79l-.54,0h-.26l-.8-.06h0a17,17,0,0,1-3.81-.86q-.78-.28-1.53-.63c-.46-.22-.91-.45-1.34-.7a16.65,16.65,0,0,1-7.21-8.6c-.11-.29-.2-.57-.29-.86a18.11,18.11,0,0,1-.73-5.37c.42-13.25-.3-42.12-8.23-64.65q-.87-2.47-1.86-4.84l.51-.59c3-1.73,17.06-8.54,32.49,5.6a70.73,70.73,0,0,1,3.42,7.23c4.52,10.89,11.43,33,6.93,59.38,0,.27-.1.53-.16.8s-.08.38-.13.57A1.16,1.16,0,0,0,1201.11,459Z"/><g class="cls-45"><ellipse class="cls-28" cx="1135.65" cy="420.44" rx="17.01" ry="7.88" transform="translate(481.31 1439.42) rotate(-77.61)"/></g><path class="cls-42" d="M1125.32,370.18h0a4.78,4.78,0,0,0-.8-6L1119,359a4.75,4.75,0,0,0-7.2.8l-1.12,1.65a4.77,4.77,0,0,0,1.71,6.88l6.67,3.55A4.76,4.76,0,0,0,1125.32,370.18Z"/><path class="cls-42" d="M1205.4,417.92a1.66,1.66,0,0,1-.61-.12,1.72,1.72,0,0,1-1-2.23c.11-.31,11.61-30.82,4.88-48.14a1.73,1.73,0,1,1,3.22-1.25c7.21,18.56-4.37,49.32-4.87,50.62A1.74,1.74,0,0,1,1205.4,417.92Z"/><path class="cls-42" d="M1140,416.23a1.91,1.91,0,0,1-.6.18,1.73,1.73,0,0,1-1.9-1.54c0-.33-3.61-32.74-17.45-45.13a1.73,1.73,0,0,1,2.31-2.58c14.84,13.29,18.43,46,18.58,47.35A1.72,1.72,0,0,1,1140,416.23Z"/><path class="cls-42" d="M1212.26,370.15h0a4.76,4.76,0,0,0,2.4-5.53l-2.08-7.32a4.76,4.76,0,0,0-6.58-3l-1.81.84a4.77,4.77,0,0,0-2.09,6.77l3.89,6.49A4.75,4.75,0,0,0,1212.26,370.15Z"/><path class="cls-46" d="M1205.32,581.71l0-.15c-11.48-4.48-10.45-9.67-7.24-11,2.9-1.21,5.83.49,8.07,2.72a19.55,19.55,0,0,1,2.06,2.41c4.86,6.7,5.64,15.12,4.15,19.16a15.25,15.25,0,0,1-9.38,9,47.54,47.54,0,0,0-9.09,4.49,7.92,7.92,0,0,1-4.82,1.24,6.4,6.4,0,0,1-2.1-.51C1196.26,604.74,1203,594.45,1205.32,581.71Z"/><path class="cls-47" d="M1156,536.46c-1.14.34-2.21.68-3.3,1s-2.16.7-3.24,1.06c-2.16.73-4.31,1.48-6.45,2.27-4.27,1.57-8.53,3.24-12.73,5.1a126.79,126.79,0,0,0-12.48,6.29,65.42,65.42,0,0,0-6.07,3.95,38.56,38.56,0,0,0-5.82,5.12,23,23,0,0,0-2.65,3.46c-.2.33-.4.65-.59,1l-.28.54c0,.08-.1.2-.15.32l-.15.34a12.48,12.48,0,0,0-.84,2.9,13.53,13.53,0,0,0,.34,5.79A11.67,11.67,0,0,0,1102,577c.08.24.16.41.24.6s.16.37.25.55a18.22,18.22,0,0,0,1.16,2.13,20.71,20.71,0,0,0,3,3.68,24.49,24.49,0,0,0,3.42,2.81,39.29,39.29,0,0,0,7.06,3.79c2.33,1,4.62,1.79,6.88,2.51s4.49,1.36,6.69,2c4.39,1.24,8.66,2.39,12.81,3.65a7.32,7.32,0,1,0,4.26-14l-.48-.13h0c-4.52-1-9-1.89-13.29-2.79a106.12,106.12,0,0,1-12.19-3.11,27.77,27.77,0,0,1-5-2.2,10.92,10.92,0,0,1-3.25-2.74,6.52,6.52,0,0,1-.51-.78,2.12,2.12,0,0,1-.11-.21l-.1-.17c0-.09-.09-.17-.12-.25a2.39,2.39,0,0,1-.21-.85,1.27,1.27,0,0,1,0-.34s0,0,0,0,0,0,0-.07l.09-.21a4.54,4.54,0,0,1,.21-.45,12.27,12.27,0,0,1,1.29-2,28.48,28.48,0,0,1,4-4,57.65,57.65,0,0,1,4.94-3.75,116.69,116.69,0,0,1,11.08-6.63c3.86-2.05,7.82-4,11.84-5.78,2-.9,4-1.78,6.07-2.62,1-.43,2-.84,3.07-1.25s2.06-.82,3.05-1.19h0a3.5,3.5,0,0,0-2.23-6.63Z"/><ellipse class="cls-42" cx="1174.39" cy="568.22" rx="31.56" ry="43.29" transform="translate(-63.95 157.65) rotate(-7.48)"/><path class="cls-48" d="M1145.07,581.26l0-.16c11.27-5,10-10.12,6.74-11.32-2.94-1.08-5.79.75-7.94,3.08a19.94,19.94,0,0,0-1.95,2.5c-4.55,6.91-5,15.35-3.29,19.33a15.2,15.2,0,0,0,9.78,8.6,47.4,47.4,0,0,1,9.27,4.09,7.92,7.92,0,0,0,4.87,1,5,5,0,0,0,1.87-.5C1154.53,602.23,1147.74,591.15,1145.07,581.26Z"/><path class="cls-49" d="M1212.65,488.22c22.14-23.41,82.06-49.59,108.21-23.29,51.08,51.39-73.84,114-118,114.71-42.55.66-31.31-47.89,9.84-91.42Z"/><path class="cls-49" d="M1136.13,489.08c-22.14-23.4-82.06-49.59-108.21-23.28-51.08,51.39,73.84,114,118,114.7,42.55.67,31.31-47.88-9.84-91.42Z"/><path class="cls-37" d="M1308.26,478.86c-1.28-5.15-21.68,2.89-20.26,7.12,1.49,4.4,21.45-2.2,20.26-7.12Zm-70.15,16.26c-.47-2-4.33-.49-3.78,1.18s4.27.76,3.78-1.18Zm55.28,11.31c-.5-2-4.35-.45-3.78,1.19s4.28.76,3.78-1.19Zm-34.52-17.06c-.51-2-4.36-.49-3.82,1.18s4.28.73,3.82-1.18Zm51.46,22.73c-.5-2-4.35-.49-3.81,1.19s4.28.76,3.81-1.19Zm-31.81,5c-1-4-8.71-.94-7.59,2.37s8.52,1.49,7.59-2.37Zm-8.38-13.85c-.08-5.29-21.74-2.06-21.35,2.37.44,4.64,21.41,2.73,21.35-2.37ZM1268,475.69c-1.27-5.12-21.65,2.92-20.26,7.12,1.49,4.43,21.46-2.17,20.26-7.12Zm39.4-8.42c-1-4.06-10.28-.3-9.16,3,1.17,3.48,10.12.84,9.16-3Zm15.69,12.7c-1-4-10.25-.27-9.12,3s10.08.85,9.12-3Zm-13.28,11.3c-1-4-10.25-.27-9.13,3s10.09.85,9.13-3Zm-31-5.86c-1.28-5.11-13.07-.35-11.66,3.89,1.46,4.4,12.89,1.07,11.66-3.89Zm15.83,10.24c-1.27-5.12-17,1.18-15.65,5.38,1.5,4.4,16.85-.43,15.65-5.38Zm-2.8-26.95c-1.28-5.15-17,1.14-15.65,5.38,1.49,4.4,16.84-.46,15.65-5.38Z"/><path class="cls-37" d="M1040.52,479.72c-1.2,4.92,18.77,11.53,20.26,7.13,1.42-4.24-19-12.28-20.26-7.13ZM1110.67,496c-.49,1.95,3.2,2.89,3.78,1.19s-3.31-3.2-3.78-1.19Zm-55.28,11.31c-.5,1.95,3.23,2.93,3.78,1.19s-3.28-3.2-3.78-1.19Zm34.52-17.06c-.46,1.92,3.24,2.9,3.82,1.19s-3.32-3.2-3.82-1.19ZM1038.45,513c-.47,1.95,3.23,2.9,3.81,1.19s-3.31-3.2-3.81-1.19Zm31.8,5c-.92,3.87,6.47,5.82,7.6,2.38s-6.59-6.41-7.6-2.38Zm8.39-13.84c-.06,5.09,20.91,7,21.35,2.37.39-4.44-21.27-7.67-21.35-2.37Zm2.14-27.57c-1.2,4.95,18.77,11.56,20.26,7.13,1.39-4.2-19-12.25-20.26-7.13Zm-39.4-8.41c-1,3.86,8,6.49,9.16,3,1.12-3.31-8.16-7.07-9.16-3Zm-15.69,12.69c-1,3.9,8,6.49,9.12,3.05s-8.16-7.08-9.12-3.05Zm13.28,11.3c-1,3.9,8,6.5,9.13,3.05s-8.16-7.08-9.13-3.05Zm31-5.85c-1.23,5,10.19,8.28,11.66,3.88,1.41-4.23-10.38-9-11.66-3.88Zm-15.83,10.23c-1.2,5,14.15,9.79,15.65,5.39,1.38-4.2-14.38-10.5-15.65-5.39Zm2.8-26.95c-1.19,4.92,14.16,9.78,15.65,5.38,1.39-4.23-14.37-10.53-15.65-5.38Z"/><path class="cls-42" d="M1286.06,748.62a4.29,4.29,0,0,0,1.25-8.39c-31.06-9.43-51.7-29-61.34-58.06a109.92,109.92,0,0,1-5.25-41.71,4.29,4.29,0,0,0-8.53-.94,116.71,116.71,0,0,0,5.53,45,96.77,96.77,0,0,0,21.19,36.34c11.81,12.61,27.26,21.88,45.91,27.55A4.43,4.43,0,0,0,1286.06,748.62Z"/><path class="cls-42" d="M1201.39,754.78a120.92,120.92,0,0,0,16.42,13.61,4.29,4.29,0,0,0,4.89-7c-28.18-19.58-41.25-45-38.85-75.63a105,105,0,0,1,12.35-41,4.29,4.29,0,1,0-7.35-4.42,111.75,111.75,0,0,0-13.53,44.45,86.61,86.61,0,0,0,6.52,41.79A90.85,90.85,0,0,0,1201.39,754.78Z"/><ellipse class="cls-50" cx="1222.51" cy="766.48" rx="9.84" ry="7.43" transform="translate(307.11 1881.85) rotate(-82.71)"/><path class="cls-42" d="M1240.78,768.86v.07a9.11,9.11,0,0,1-1,3.26l-1.44,2.8a16.37,16.37,0,0,0-1.7,5.5l-.24,2c-.21,1.64-.44,3.27-.57,4.92s-.26,3.31-.47,5a28.11,28.11,0,0,1-1,4.82,24.58,24.58,0,0,1-1.86,4.64,20.48,20.48,0,0,1-1.33,2.23c-.26.37-.52.73-.81,1.09a10.24,10.24,0,0,1-.95,1.05,9.89,9.89,0,0,1-14-.13,10.1,10.1,0,0,1-2.21-3.46,12.43,12.43,0,0,1-.42-1.36c-.11-.44-.19-.88-.27-1.32a23.47,23.47,0,0,1-.27-2.59,25.8,25.8,0,0,1,.28-5,30.37,30.37,0,0,1,1.11-4.8c.51-1.57,1.12-3.12,1.68-4.68s1-3.13,1.56-4.71l1.54-4.71,1.58-4.7c.57-1.67,1.14-3.34,1.74-5,1.63-4.5,6.47-6.6,11.14-5.27a22.51,22.51,0,0,1,3.36,1.22C1239.62,761.19,1241.16,765.2,1240.78,768.86Z"/><ellipse class="cls-50" cx="1285.73" cy="744.28" rx="9.25" ry="6.98" transform="translate(271.35 1829.67) rotate(-77)"/><path class="cls-42" d="M1285,741.76l0,.06a9.27,9.27,0,0,0-.74,3.32l-.11,3.16a16.21,16.21,0,0,1-1.2,5.62l-.77,1.88c-.62,1.53-1.22,3.07-1.9,4.58s-1.39,3-2,4.55a29.85,29.85,0,0,0-1.46,4.71,26.09,26.09,0,0,0-.64,5,22.72,22.72,0,0,0,.08,2.6c0,.44.1.89.18,1.34a12.32,12.32,0,0,0,.31,1.38,9.9,9.9,0,0,0,12.28,6.72,10.08,10.08,0,0,0,3.62-2,9.52,9.52,0,0,0,1-1c.32-.33.61-.67.89-1a20.89,20.89,0,0,0,1.49-2.12,25.25,25.25,0,0,0,2.19-4.5,29,29,0,0,0,1.37-4.73c.33-1.62.55-3.27.82-4.91s.61-3.25.93-4.87l1-4.86.91-4.87q.48-2.61.92-5.23c.77-4.72-2.43-8.91-7.16-10a24.15,24.15,0,0,0-3.53-.57C1289.77,735.63,1286.47,738.37,1285,741.76Z"/><path class="cls-41" d="M1208.36,594.31a55.23,55.23,0,0,1,47.56-4.23,52.67,52.67,0,0,1,5.5,7.93,49.75,49.75,0,0,1,2.31,4.62,47.87,47.87,0,0,0-40.65,3.89c-21.43,12.81-29.11,40.08-18.63,63-2.06-.19-4.17-.47-6.35-.88A72.52,72.52,0,0,1,1188,666l-1-.36-.82-.31C1175.17,639.22,1184.16,608.78,1208.36,594.31Z"/><path class="cls-42" d="M1201.53,590a59.45,59.45,0,0,1,49.29-5.25,53.32,53.32,0,0,1,5.1,5.32,55.23,55.23,0,0,0-47.56,4.23c-24.2,14.47-33.19,44.91-22.22,71a71.81,71.81,0,0,1-10.82-5.06C1167.27,633.68,1177.37,604.45,1201.53,590Z"/><path class="cls-41" d="M1227.9,612.37a41.59,41.59,0,0,1,38.51-2,44.79,44.79,0,0,1,1.48,12.68c-.39,12.14-6.29,25.81-24.56,38a53.21,53.21,0,0,1-13.88,6.09,66.13,66.13,0,0,1-16.19,2.65C1202.1,649.4,1208.45,624,1227.9,612.37Z"/><path class="cls-42" d="M1223.08,606.52a47.87,47.87,0,0,1,40.65-3.89,50.17,50.17,0,0,1,2.52,7.09c.06.21.11.42.16.63a41.59,41.59,0,0,0-38.51,2c-19.45,11.63-25.8,37-14.64,57.42a67.88,67.88,0,0,1-8.81-.25C1194,646.6,1201.65,619.33,1223.08,606.52Z"/><path class="cls-41" d="M1185.59,580.53c19.38-11.59,43-10.41,61.37,1,1.34,1,2.63,2.1,3.86,3.22a59.45,59.45,0,0,0-49.29,5.25c-24.16,14.44-34.26,43.67-26.21,70.25a66.16,66.16,0,0,1-8-5.41,61.33,61.33,0,0,1-7.81-7.36C1152.54,622,1162.48,594.34,1185.59,580.53Z"/><path class="cls-42" d="M1179.5,576.88a58.44,58.44,0,0,1,23.32-7.92c1.41-.05,2.87-.14,4.38-.26a56.53,56.53,0,0,1,7.49.47,79.28,79.28,0,0,1,11,2.13c1.82.49,3.71,1.07,5.64,1.76l.86.33a57.91,57.91,0,0,1,14.47,7.91l.32.24c-18.42-11.42-42-12.6-61.37-1-23.11,13.81-33,41.44-26.13,67a56.07,56.07,0,0,1-5.42-7.18,52,52,0,0,1-3.06-5.52l-.15-.33C1148.77,611.72,1159.13,589.05,1179.5,576.88Z"/><path class="cls-41" d="M1146.11,607.42c.37-4.38,2.64-18.44,11.79-29.41,0,0,11.23-13.61,37.32-9.43a40.43,40.43,0,0,0,7.6.38,58.44,58.44,0,0,0-23.32,7.92c-20.37,12.17-30.73,34.84-28.67,57.58-.65-1.36-1.23-2.76-1.76-4.19a51.81,51.81,0,0,1-2.59-10.23,51,51,0,0,1-.56-6.72A55.89,55.89,0,0,1,1146.11,607.42Z"/><g class="cls-51"><path class="cls-28" d="M1211.84,572.64s59.35,4.77,51,59.55C1262.79,632.19,1253.55,588.82,1211.84,572.64Z"/></g><path class="cls-42" d="M1261.83,633a55.15,55.15,0,0,0,34.66,11.77s-7.21,18.42-48,10.89C1248.45,655.69,1240.22,641.26,1261.83,633Z"/></g></g></g></svg>