<svg xmlns="http://www.w3.org/2000/svg" viewBox="0 0 421.15 364.73"><defs><style>.cls-1{fill:#ffd304;}.cls-2{fill:#ffb002;}.cls-3{fill:#fff;}</style></defs><g id="Capa_2" data-name="Capa 2"><g id="Capa_1-2" data-name="Capa 1"><polygon class="cls-1" points="105.29 0 0 182.37 105.29 364.73 210.58 364.73 210.58 0 105.29 0"/><polygon class="cls-2" points="421.15 182.37 315.87 0 210.58 0 210.58 364.73 315.87 364.73 421.15 182.37"/><path class="cls-3" d="M121.2,242.15V110.21a10.86,10.86,0,0,0,.33-1.15,26.08,26.08,0,0,1,26.2-22.22q62.84,0,125.66,0a28.07,28.07,0,0,1,8.72,1.4C293.17,92,299.94,101.77,300,113.72q0,62.47,0,124.94c0,.58,0,1.16,0,1.74-.72,10.17-5.52,17.76-14.63,22.34-2.69,1.36-5.81,1.89-8.73,2.8h-132a7,7,0,0,0-1-.31c-9.26-1.53-16-6.54-19.94-15C122.49,247.71,122,244.86,121.2,242.15Zm89.38,12.92q31.15,0,62.31,0c9.77,0,16.57-6.69,16.58-16.36q0-62.56,0-125.13c0-9.43-6.74-16.24-16.14-16.25q-62.74-.06-125.5,0c-9.32,0-16.11,6.78-16.12,16.09q-.07,62.73,0,125.47a17.64,17.64,0,0,0,1.61,7.22c2.92,6.19,8.17,9,14.92,9Q179.43,255.09,210.58,255.07Z"/><path class="cls-3" d="M153.05,212.83V139.68a6.48,6.48,0,0,1,1-.14c10.24,0,20.48-.1,30.72,0a20.88,20.88,0,0,1,20.55,22.2c-.29,5.2-2.23,9.24-6.93,14.38.27.32.54.67.84,1,6.13,6.59,7.91,14.22,4.54,22.54s-9.91,12.85-18.9,13.08c-10.23.27-20.47.07-30.71.07Zm10.48-42c.32,0,.54.08.76.08,6.69,0,13.37.07,20.05-.05a11.5,11.5,0,0,0,4.53-1,10.21,10.21,0,0,0,5.75-11.36A10.35,10.35,0,0,0,184.49,150c-4.07-.11-8.14,0-12.21,0h-8.75Zm0,31.48c7.22,0,14.25.14,21.27-.05a10.4,10.4,0,0,0,.12-20.79c-7-.2-14.06,0-21.09,0-.09,0-.19.12-.3.21Z"/><path class="cls-3" d="M227.18,191.8c2.23,5.51,5.93,8.81,11.32,10.13,6.28,1.54,10.91-.46,17.28-7.32l8.68,5c-4.18,8.68-16.81,16.14-30.18,12a26.18,26.18,0,0,1,10.75-51c11.73,1.34,25,11.48,23,31.15Zm29.42-10.41c-1.89-6.47-8.91-11-15.91-10.37-6.19.55-12.59,5.57-13.15,10.37Z"/><path class="cls-3" d="M221.13,149.89V139.62h41.68v10.27Z"/></g></g></svg>