<svg xmlns="http://www.w3.org/2000/svg" viewBox="0 0 421.15 364.73"><defs><style>.cls-1{fill:#ffd304;}.cls-2{fill:#ffb002;}.cls-3{fill:#fff;}</style></defs><g id="Capa_2" data-name="Capa 2"><g id="Capa_1-2" data-name="Capa 1"><polygon class="cls-1" points="105.29 0 0 182.37 105.29 364.73 210.58 364.73 210.58 0 105.29 0"/><polygon class="cls-2" points="421.15 182.37 315.87 0 210.58 0 210.58 364.73 315.87 364.73 421.15 182.37"/><path class="cls-3" d="M121.16,253.26V111.46a6.88,6.88,0,0,0,.32-1,20.78,20.78,0,0,1,8.62-13.73A24.88,24.88,0,0,1,139.67,93h141.8a5,5,0,0,0,.81.3,20.82,20.82,0,0,1,17.69,21q0,68.08,0,136.16a23.36,23.36,0,0,1-1.16,7.18c-2.92,8.77-10.83,14.15-20.48,14.15H142.84c-.46,0-.93,0-1.4,0a20.84,20.84,0,0,1-16-8.31A24.15,24.15,0,0,1,121.16,253.26Zm118.13,4.55h38.6c5.43,0,8.12-2.71,8.12-8.16q0-67.23,0-134.46c0-5.58-2.66-8.25-8.21-8.26H143.35c-5.55,0-8.22,2.68-8.22,8.26V249.64c0,5.45,2.7,8.16,8.13,8.16h72.47c.56,0,1.13,0,1.72-.07V200.79H196.7V179.17h20.86v-2.09c0-4.83-.12-9.66.09-14.49a32,32,0,0,1,24.12-29.48c7.23-1.82,14.6-.81,21.91-1,.08,0,.17.13.24.19v21.4h-1.8c-4.13,0-8.27-.06-12.4,0-5.47.11-9.85,3.56-10.26,8.8-.42,5.47-.09,11-.09,16.69h25c-1.21,7.29-2.38,14.39-3.58,21.67H239.29Z"/></g></g></svg>