<svg width="35" height="28" viewBox="0 0 35 28" fill="none" xmlns="http://www.w3.org/2000/svg">
<path d="M25.7372 0H8.93698L0.537109 14L8.93698 27.9999H25.7372L34.137 14L25.7372 0Z" fill="#FFD500"/>
<path d="M25.7368 0H17.3369V27.9999H25.7368L34.1367 14L25.7368 0Z" fill="#FFB600"/>
<path d="M23.6536 13.0139V8.56049C23.6536 7.583 22.8587 6.78809 21.8812 6.78809H8.58828C7.61079 6.78809 6.81592 7.58296 6.81592 8.56049V17.4224C6.81592 18.3999 7.61079 19.1948 8.58832 19.1948H18.5254C19.106 21.2375 20.9842 22.7396 23.2105 22.7396C24.0673 22.7396 24.9098 22.5141 25.648 22.0871C25.8596 21.9646 25.9323 21.6937 25.8094 21.4817C25.6869 21.2697 25.4156 21.1965 25.204 21.3203C24.6008 21.6691 23.9115 21.8534 23.2105 21.8534C21.0114 21.8534 19.2226 20.0645 19.2226 17.8655C19.2226 15.6665 21.0114 13.8776 23.2105 13.8776C25.4095 13.8776 27.1983 15.6665 27.1983 17.8655V18.3086C27.1983 18.7971 26.8007 19.1948 26.3122 19.1948C25.8236 19.1948 25.426 18.7971 25.426 18.3086V16.5362C25.426 16.2913 25.2278 16.0931 24.9829 16.0931C24.8637 16.0931 24.7566 16.1413 24.6771 16.2177C24.2854 15.8688 23.775 15.65 23.2105 15.65C21.9889 15.65 20.995 16.6439 20.995 17.8655C20.995 19.087 21.9889 20.081 23.2105 20.081C23.8708 20.081 24.458 19.7848 24.8642 19.3249C25.1852 19.7809 25.7133 20.081 26.3122 20.081C27.2897 20.081 28.0846 19.2861 28.0846 18.3086V17.8655C28.0846 15.3275 26.134 13.2388 23.6536 13.0139ZM8.58832 7.67427H21.8812C21.8997 7.67427 21.9151 7.6837 21.9333 7.68482L15.5991 12.8841C15.3737 13.0261 15.047 12.9966 14.9003 12.9066L8.53677 7.68473C8.55475 7.68365 8.57004 7.67427 8.58832 7.67427ZM22.7674 13.0139C20.287 13.2388 18.3364 15.3275 18.3364 17.8655C18.3364 18.0151 18.3456 18.1624 18.3589 18.3086H8.58832C8.0998 18.3086 7.70214 17.911 7.70214 17.4225V8.56049C7.70214 8.43499 7.72985 8.31648 7.77712 8.20822L14.3772 13.6206C14.6351 13.789 14.9315 13.8777 15.2348 13.8777C15.5265 13.8777 15.8116 13.7955 16.0626 13.6397C16.0877 13.6263 16.1115 13.6103 16.134 13.5917L22.6924 8.20814C22.7397 8.31648 22.7674 8.43499 22.7674 8.56053V13.0139H22.7674ZM23.2105 19.1948C22.4775 19.1948 21.8812 18.5985 21.8812 17.8655C21.8812 17.1325 22.4775 16.5362 23.2105 16.5362C23.9435 16.5362 24.5398 17.1325 24.5398 17.8655C24.5398 18.5985 23.9435 19.1948 23.2105 19.1948Z" fill="white"/>
</svg>
