<svg width="23" height="17" viewBox="0 0 23 17" fill="none" xmlns="http://www.w3.org/2000/svg">
<path d="M17.6536 7.0139V2.56049C17.6536 1.583 16.8587 0.788086 15.8812 0.788086H2.58828C1.61079 0.788086 0.815918 1.58296 0.815918 2.56049V11.4224C0.815918 12.3999 1.61079 13.1948 2.58832 13.1948H12.5254C13.106 15.2375 14.9842 16.7396 17.2105 16.7396C18.0673 16.7396 18.9098 16.5141 19.648 16.0871C19.8596 15.9646 19.9323 15.6937 19.8094 15.4817C19.6869 15.2697 19.4156 15.1965 19.204 15.3203C18.6008 15.6691 17.9115 15.8534 17.2105 15.8534C15.0114 15.8534 13.2226 14.0645 13.2226 11.8655C13.2226 9.6665 15.0114 7.87765 17.2105 7.87765C19.4095 7.87765 21.1983 9.6665 21.1983 11.8655V12.3086C21.1983 12.7971 20.8007 13.1948 20.3122 13.1948C19.8236 13.1948 19.426 12.7971 19.426 12.3086V10.5362C19.426 10.2913 19.2278 10.0931 18.9829 10.0931C18.8637 10.0931 18.7566 10.1413 18.6771 10.2177C18.2854 9.86876 17.775 9.65001 17.2105 9.65001C15.9889 9.65001 14.995 10.6439 14.995 11.8655C14.995 13.087 15.9889 14.081 17.2105 14.081C17.8708 14.081 18.458 13.7848 18.8642 13.3249C19.1852 13.7809 19.7133 14.081 20.3122 14.081C21.2897 14.081 22.0846 13.2861 22.0846 12.3086V11.8655C22.0846 9.32749 20.134 7.2388 17.6536 7.0139ZM2.58832 1.67427H15.8812C15.8997 1.67427 15.9151 1.6837 15.9333 1.68482L9.59912 6.88413C9.37368 7.02607 9.04697 6.99662 8.90029 6.90664L2.53677 1.68473C2.55475 1.68365 2.57004 1.67427 2.58832 1.67427ZM16.7674 7.0139C14.287 7.2388 12.3364 9.32749 12.3364 11.8655C12.3364 12.0151 12.3456 12.1624 12.3589 12.3086H2.58832C2.0998 12.3086 1.70214 11.911 1.70214 11.4225V2.56049C1.70214 2.43499 1.72985 2.31648 1.77712 2.20822L8.37717 7.62064C8.63505 7.78896 8.93148 7.87769 9.23481 7.87769C9.52647 7.87769 9.8116 7.79548 10.0626 7.6397C10.0877 7.62629 10.1115 7.61029 10.134 7.59168L16.6924 2.20814C16.7397 2.31648 16.7674 2.43499 16.7674 2.56053V7.0139H16.7674ZM17.2105 13.1948C16.4775 13.1948 15.8812 12.5985 15.8812 11.8655C15.8812 11.1325 16.4775 10.5362 17.2105 10.5362C17.9435 10.5362 18.5398 11.1325 18.5398 11.8655C18.5398 12.5985 17.9435 13.1948 17.2105 13.1948Z" fill="white"/>
</svg>
