<svg width="57" height="60" viewBox="0 0 57 60" fill="none" xmlns="http://www.w3.org/2000/svg">
<g clip-path="url(#clip0)">
<path d="M24.5353 13.0334H10.9123C9.06091 13.0334 7.59381 14.5416 7.59381 16.3654V48.0367C7.59381 49.8956 9.09584 51.3687 10.9123 51.3687H42.4549C44.3062 51.3687 45.7733 49.8605 45.7733 48.0367V34.3581" stroke="white" stroke-width="2" stroke-miterlimit="10" stroke-linecap="round" stroke-linejoin="round"/>
<path d="M28.3078 16.8214H12.4492C11.8554 16.8214 11.3663 17.3124 11.3663 17.9087V46.5286C11.3663 47.1248 11.8554 47.6159 12.4492 47.6159H40.9179C41.5117 47.6159 42.0008 47.1248 42.0008 46.5286V30.6053" stroke="white" stroke-width="2" stroke-miterlimit="10" stroke-linecap="round" stroke-linejoin="round"/>
<path d="M22.5443 44.7047L44.3412 22.8189L48.0788 26.5367L49.4411 9.59625L32.5345 10.929L36.2372 14.6819L22.5443 28.4307" stroke="white" stroke-width="2" stroke-miterlimit="10" stroke-linecap="round" stroke-linejoin="round"/>
</g>
<path d="M27 9C26.6549 9 26.375 8.65031 26.375 8.21875C26.375 7.70172 26.0386 7.28125 25.625 7.28125C25.2799 7.28125 25 6.93156 25 6.5C25 6.06844 25.2799 5.71875 25.625 5.71875C26.0386 5.71875 26.375 5.29828 26.375 4.78125C26.375 4.34969 26.6549 4 27 4C27.3451 4 27.625 4.34969 27.625 4.78125C27.625 5.29828 27.9614 5.71875 28.375 5.71875C28.7201 5.71875 29 6.06844 29 6.5C29 6.93156 28.7201 7.28125 28.375 7.28125C27.9614 7.28125 27.625 7.70172 27.625 8.21875C27.625 8.65016 27.3453 9 27 9Z" fill="#FFF7E4"/>
<path d="M55 40C54.6549 40 54.375 39.7203 54.375 39.375C54.375 38.9614 54.0385 38.625 53.625 38.625C53.2799 38.625 53 38.3453 53 38C53 37.6547 53.2799 37.375 53.625 37.375C54.0386 37.375 54.375 37.0386 54.375 36.625C54.375 36.2797 54.6549 36 55 36C55.3451 36 55.625 36.2797 55.625 36.625C55.625 37.0386 55.9614 37.375 56.375 37.375C56.7201 37.375 57 37.6547 57 38C57 38.3453 56.7201 38.625 56.375 38.625C55.9615 38.625 55.625 38.9614 55.625 39.375C55.625 39.7203 55.3451 40 55 40Z" fill="#FFF7E4"/>
<path d="M51 45C50.6549 45 50.375 44.7203 50.375 44.375C50.375 43.9614 50.0386 43.625 49.625 43.625C49.2799 43.625 49 43.3453 49 43C49 42.6547 49.2799 42.375 49.625 42.375C50.0386 42.375 50.375 42.0386 50.375 41.625C50.375 41.2797 50.6549 41 51 41C51.3451 41 51.625 41.2797 51.625 41.625C51.625 42.0386 51.9614 42.375 52.375 42.375C52.7201 42.375 53 42.6547 53 43C53 43.3453 52.7201 43.625 52.375 43.625C51.9614 43.625 51.625 43.9614 51.625 44.375C51.625 44.7203 51.3451 45 51 45Z" fill="#FFF7E4"/>
<path d="M1.99994 43C1.83734 43 1.68137 42.9355 1.56635 42.8204L0.179516 41.4334C0.0644984 41.3184 0 41.1625 0 40.9999C0 40.8373 0.064621 40.6813 0.179516 40.5664L1.56635 39.1796C1.80583 38.9401 2.19405 38.9402 2.4334 39.1795L3.82036 40.5663C3.93538 40.6813 4 40.8373 4 40.9999C4 41.1625 3.93538 41.3185 3.82048 41.4334L2.4334 42.8205C2.31838 42.9355 2.16253 43 1.99994 43ZM1.48015 41L1.99994 41.5198L2.51973 41L1.99994 40.4804L1.48015 41Z" fill="#FFF7E4"/>
<path d="M19.4999 4C19.3037 4 19.1077 3.94016 18.9579 3.82036L17.2244 2.43352C17.0806 2.31851 17 2.16266 17 2.00006C17 1.83747 17.0808 1.68149 17.2244 1.5666L18.9579 0.179639C19.1017 0.064621 19.2967 0 19.4999 0C19.7032 0 19.8981 0.0644983 20.0419 0.179639L21.7756 1.5666C21.9194 1.68162 22 1.83747 22 2.00006C22 2.16266 21.9192 2.31863 21.7755 2.43365L20.0419 3.82048C19.8922 3.94016 19.696 4 19.4999 4ZM18.8502 2.00018L19.4999 2.51985L20.1497 2.00018L19.4999 1.4804L18.8502 2.00018Z" fill="#FFF7E4"/>
<path d="M28.4999 60C28.3037 60 28.1077 59.9402 27.9579 59.8204L26.2244 58.4335C26.0806 58.3185 26 58.1627 26 58.0001C26 57.8375 26.0808 57.6815 26.2244 57.5666L27.9579 56.1796C28.1017 56.0646 28.2967 56 28.4999 56C28.7032 56 28.8981 56.0645 29.0419 56.1796L30.7756 57.5666C30.9194 57.6816 31 57.8375 31 58.0001C31 58.1627 30.9192 58.3186 30.7755 58.4336L29.0419 59.8205C28.8922 59.9402 28.696 60 28.4999 60ZM27.8502 58.0002L28.4999 58.5198L29.1497 58.0002L28.4999 57.4804L27.8502 58.0002Z" fill="#FFF7E4"/>
<defs>
<clipPath id="clip0">
<rect width="43" height="43" fill="white" transform="translate(7 9)"/>
</clipPath>
</defs>
</svg>
