<svg width="32" height="33" viewBox="0 0 32 33" fill="none" xmlns="http://www.w3.org/2000/svg">
<path d="M9.92034 18.1709V21.659L1.65723 14.3775L9.92034 7.07422V10.5624C17.8891 10.5624 26.7199 15.8164 26.7199 26.8912C26.7199 26.8912 21.884 18.1709 9.92034 18.1709Z" stroke="white" stroke-width="1.5" stroke-miterlimit="10" stroke-linecap="round" stroke-linejoin="round"/>
<path d="M14.2864 6.18329C14.4923 6.18329 14.6592 6.0164 14.6592 5.81044C14.6592 5.56369 14.8599 5.36303 15.1066 5.36303C15.3125 5.36303 15.4795 5.19615 15.4795 4.99019C15.4795 4.78423 15.3125 4.61734 15.1066 4.61734C14.8599 4.61734 14.6592 4.41668 14.6592 4.16993C14.6592 3.96397 14.4923 3.79709 14.2864 3.79709C14.0805 3.79709 13.9135 3.96397 13.9135 4.16993C13.9135 4.41668 13.7129 4.61734 13.4661 4.61734C13.2603 4.61734 13.0933 4.78423 13.0933 4.99019C13.0933 5.19615 13.2603 5.36303 13.4661 5.36303C13.7129 5.36303 13.9135 5.56369 13.9135 5.81044C13.9135 6.01633 14.0804 6.18329 14.2864 6.18329Z" fill="#FFF7E4"/>
<path d="M1.74928 22.8995C1.95517 22.8995 2.12213 22.7326 2.12213 22.5267C2.12213 22.2799 2.32279 22.0792 2.56954 22.0792C2.77542 22.0792 2.94238 21.9124 2.94238 21.7064C2.94238 21.5004 2.77542 21.3336 2.56954 21.3336C2.32279 21.3336 2.12213 21.1329 2.12213 20.8861C2.12213 20.6802 1.95517 20.5133 1.74928 20.5133C1.5434 20.5133 1.37644 20.6802 1.37644 20.8861C1.37644 21.1329 1.17578 21.3336 0.929028 21.3336C0.723144 21.3336 0.556185 21.5004 0.556185 21.7064C0.556185 21.9124 0.723144 22.0792 0.929028 22.0792C1.17578 22.0792 1.37644 22.2799 1.37644 22.5267C1.37644 22.7325 1.54333 22.8995 1.74928 22.8995Z" fill="#FFF7E4"/>
<path d="M13.2424 28.1234C13.4483 28.1234 13.6153 27.9565 13.6153 27.7505C13.6153 27.5038 13.816 27.3031 14.0627 27.3031C14.2686 27.3031 14.4355 27.1362 14.4355 26.9303C14.4355 26.7243 14.2686 26.5574 14.0627 26.5574C13.816 26.5574 13.6153 26.3567 13.6153 26.11C13.6153 25.904 13.4483 25.7372 13.2424 25.7372C13.0366 25.7372 12.8696 25.904 12.8696 26.11C12.8696 26.3567 12.6689 26.5574 12.4222 26.5574C12.2163 26.5574 12.0493 26.7243 12.0493 26.9303C12.0493 27.1362 12.2163 27.3031 12.4222 27.3031C12.6689 27.3031 12.8696 27.5038 12.8696 27.7505C12.8696 27.9565 13.0366 28.1234 13.2424 28.1234Z" fill="#FFF7E4"/>
<path d="M18.4661 32.3024C18.672 32.3024 18.8389 32.1355 18.8389 31.9295C18.8389 31.6828 19.0396 31.4821 19.2863 31.4821C19.4922 31.4821 19.6592 31.3152 19.6592 31.1093C19.6592 30.9033 19.4922 30.7364 19.2863 30.7364C19.0396 30.7364 18.8389 30.5358 18.8389 30.289C18.8389 30.0831 18.672 29.9162 18.4661 29.9162C18.2602 29.9162 18.0932 30.0831 18.0932 30.289C18.0932 30.5358 17.8926 30.7364 17.6458 30.7364C17.4399 30.7364 17.273 30.9033 17.273 31.1093C17.273 31.3152 17.4399 31.4821 17.6458 31.4821C17.8926 31.4821 18.0932 31.6828 18.0932 31.9295C18.0932 32.1355 18.2602 32.3024 18.4661 32.3024Z" fill="#FFF7E4"/>
<path d="M29.9352 19.8115C30.034 19.8115 30.1289 19.7722 30.1988 19.7022L31.0422 18.8588C31.1121 18.7888 31.1514 18.6941 31.1514 18.5952C31.1514 18.4963 31.1121 18.4014 31.0422 18.3316L30.1988 17.4882C30.0532 17.3426 29.8171 17.3426 29.6716 17.4881L28.8281 18.3315C28.7582 18.4014 28.7189 18.4963 28.7189 18.5952C28.7189 18.6941 28.7582 18.7889 28.828 18.8588L29.6716 19.7023C29.7415 19.7722 29.8363 19.8115 29.9352 19.8115ZM30.2512 18.5953L29.9352 18.9113L29.6191 18.5953L29.9352 18.2792L30.2512 18.5953Z" fill="#FFF7E4"/>
<path d="M19.4879 3.09532C19.5833 3.09532 19.6787 3.05893 19.7516 2.98607L20.5949 2.1427C20.6649 2.07276 20.7041 1.97798 20.7041 1.8791C20.7041 1.78022 20.6648 1.68537 20.5949 1.6155L19.7516 0.772054C19.6816 0.702109 19.5868 0.662811 19.4879 0.662811C19.389 0.662811 19.2942 0.702034 19.2242 0.772054L18.3808 1.6155C18.3108 1.68545 18.2716 1.78022 18.2716 1.8791C18.2716 1.97798 18.3109 2.07283 18.3808 2.14278L19.2242 2.98615C19.2971 3.05893 19.3925 3.09532 19.4879 3.09532ZM19.804 1.87918L19.4879 2.1952L19.1718 1.87918L19.4879 1.56308L19.804 1.87918Z" fill="#FFF7E4"/>
</svg>
