<svg width="16" height="16" viewBox="0 0 16 16" fill="none" xmlns="http://www.w3.org/2000/svg">
<path fill-rule="evenodd" clip-rule="evenodd" d="M13.0382 2.73088C12.3562 2.0445 11.5448 1.50024 10.651 1.12963C9.75714 0.759015 8.79867 0.569412 7.83106 0.5718C3.7735 0.5718 0.470948 3.87436 0.46963 7.93324C0.467821 9.225 0.806767 10.4944 1.45227 11.6133L0.407227 15.4283L4.30965 14.4043C5.38897 14.9923 6.59845 15.3004 7.82754 15.3004H7.83106C11.8886 15.3004 15.1912 11.9978 15.1925 7.93896C15.1955 6.97155 15.0067 6.01315 14.6369 5.1192C14.2671 4.22524 13.7238 3.41348 13.0382 2.73088ZM7.83106 14.0572H7.82842C6.73258 14.0575 5.65684 13.763 4.71395 13.2046L4.49115 13.0728L2.17518 13.6801L2.7935 11.4221L2.64541 11.1897C2.03282 10.2143 1.70861 9.08549 1.71023 7.93368C1.71023 4.55993 4.45643 1.81548 7.83149 1.81548C8.63527 1.81571 9.43112 1.97428 10.1736 2.28214C10.9161 2.59 11.5906 3.04111 12.1587 3.60971C12.7269 4.17831 13.1774 4.85326 13.4846 5.596C13.7918 6.33875 13.9497 7.13474 13.9492 7.93852C13.9479 11.3123 11.203 14.0572 7.83106 14.0572ZM11.1872 9.47444C11.0035 9.38259 10.0991 8.93786 9.93036 8.87633C9.76161 8.81481 9.639 8.78404 9.51683 8.96818C9.39466 9.15231 9.04089 9.56673 8.93366 9.6889C8.82644 9.81107 8.71921 9.82733 8.53507 9.73504C8.35094 9.64275 7.75854 9.44851 7.05584 8.82184C6.50915 8.33447 6.14001 7.73197 6.03278 7.54739C5.92555 7.36282 6.03278 7.27317 6.1132 7.17209C6.31271 6.92468 6.51179 6.66539 6.57332 6.54278C6.63484 6.42017 6.60364 6.3125 6.55793 6.22066C6.51223 6.12881 6.14396 5.22308 5.99059 4.85481C5.84117 4.4962 5.69 4.54454 5.57705 4.53883C5.46411 4.53312 5.34722 4.53268 5.22549 4.53268C5.13226 4.53508 5.04054 4.55678 4.95613 4.59642C4.87172 4.63605 4.79644 4.69276 4.73505 4.76296C4.56673 4.94709 4.09123 5.39183 4.09123 6.29712C4.09123 7.20242 4.75043 8.07739 4.84227 8.2C4.93412 8.32261 6.13957 10.1807 7.98487 10.9774C8.32724 11.1252 8.67725 11.2546 9.03342 11.365C9.4086 11.4793 9.80529 11.5042 10.1918 11.438C10.5434 11.3852 11.28 10.9928 11.4333 10.5634C11.5867 10.1341 11.5867 9.76536 11.5406 9.68846C11.4944 9.61155 11.3709 9.56673 11.1868 9.47444H11.1872Z" fill="white"/>
</svg>
