<svg width="22" height="17" viewBox="0 0 22 17" fill="none" xmlns="http://www.w3.org/2000/svg">
<path d="M17.116 7.01366V2.56024C17.116 1.58276 16.3211 0.787842 15.3436 0.787842H2.05068C1.07319 0.787842 0.27832 1.58272 0.27832 2.56024V11.4222C0.27832 12.3996 1.07319 13.1946 2.05072 13.1946H11.9878C12.5684 15.2372 14.4466 16.7393 16.6729 16.7393C17.5297 16.7393 18.3722 16.5139 19.1104 16.0868C19.322 15.9643 19.3947 15.6935 19.2718 15.4814C19.1493 15.2694 18.878 15.1963 18.6664 15.3201C18.0632 15.6688 17.3739 15.8531 16.6729 15.8531C14.4738 15.8531 12.685 14.0643 12.685 11.8653C12.685 9.66625 14.4739 7.8774 16.6729 7.8774C18.8719 7.8774 20.6607 9.66625 20.6607 11.8653V12.3084C20.6607 12.7969 20.2631 13.1946 19.7746 13.1946C19.2861 13.1946 18.8884 12.7969 18.8884 12.3084V10.536C18.8884 10.2911 18.6902 10.0929 18.4453 10.0929C18.3261 10.0929 18.219 10.1411 18.1395 10.2175C17.7478 9.86851 17.2374 9.64976 16.6729 9.64976C15.4513 9.64976 14.4574 10.6437 14.4574 11.8652C14.4574 13.0868 15.4513 14.0807 16.6729 14.0807C17.3332 14.0807 17.9204 13.7845 18.3266 13.3246C18.6476 13.7806 19.1757 14.0807 19.7746 14.0807C20.7521 14.0807 21.547 13.2859 21.547 12.3083V11.8652C21.547 9.32724 19.5964 7.23855 17.116 7.01366ZM2.05072 1.67402H15.3436C15.3621 1.67402 15.3775 1.68345 15.3957 1.68457L9.06152 6.88388C8.83608 7.02583 8.50937 6.99638 8.36269 6.9064L1.99917 1.68449C2.01716 1.68341 2.03244 1.67402 2.05072 1.67402ZM16.2298 7.01366C13.7494 7.23855 11.7988 9.32724 11.7988 11.8653C11.7988 12.0148 11.808 12.1622 11.8213 12.3084H2.05072C1.56221 12.3084 1.16454 11.9107 1.16454 11.4222V2.56024C1.16454 2.43475 1.19225 2.31623 1.23952 2.20798L7.83957 7.62039C8.09746 7.78871 8.39389 7.87745 8.69721 7.87745C8.98887 7.87745 9.274 7.79524 9.52499 7.63946C9.55008 7.62604 9.57388 7.61005 9.5964 7.59144L16.1548 2.2079C16.2021 2.31623 16.2298 2.43475 16.2298 2.56028V7.01366H16.2298ZM16.6729 13.1946C15.9399 13.1946 15.3436 12.5983 15.3436 11.8653C15.3436 11.1323 15.9399 10.536 16.6729 10.536C17.4059 10.536 18.0022 11.1323 18.0022 11.8653C18.0022 12.5983 17.4059 13.1946 16.6729 13.1946Z" fill="white"/>
</svg>
