<svg width="34" height="28" viewBox="0 0 34 28" fill="none" xmlns="http://www.w3.org/2000/svg">
<path d="M25.2001 0H8.39987L0 14L8.39987 27.9999H25.2001L33.5999 14L25.2001 0Z" fill="#FFD500"/>
<path d="M25.2002 0H16.8003V27.9999H25.2002L33.6 14L25.2002 0Z" fill="#FFB600"/>
<path fill-rule="evenodd" clip-rule="evenodd" d="M22.0382 8.73088C21.3562 8.0445 20.5448 7.50024 19.651 7.12963C18.7571 6.75901 17.7987 6.56941 16.8311 6.5718C12.7735 6.5718 9.47095 9.87436 9.46963 13.9332C9.46782 15.225 9.80677 16.4944 10.4523 17.6133L9.40723 21.4283L13.3096 20.4043C14.389 20.9923 15.5985 21.3004 16.8275 21.3004H16.8311C20.8886 21.3004 24.1912 17.9978 24.1925 13.939C24.1955 12.9716 24.0067 12.0131 23.6369 11.1192C23.2671 10.2252 22.7238 9.41348 22.0382 8.73088ZM16.8311 20.0572H16.8284C15.7326 20.0575 14.6568 19.763 13.714 19.2046L13.4911 19.0728L11.1752 19.6801L11.7935 17.4221L11.6454 17.1897C11.0328 16.2143 10.7086 15.0855 10.7102 13.9337C10.7102 10.5599 13.4564 7.81548 16.8315 7.81548C17.6353 7.81571 18.4311 7.97428 19.1736 8.28214C19.9161 8.59 20.5906 9.04111 21.1587 9.60971C21.7269 10.1783 22.1774 10.8533 22.4846 11.596C22.7918 12.3387 22.9497 13.1347 22.9492 13.9385C22.9479 17.3123 20.203 20.0572 16.8311 20.0572ZM20.1872 15.4744C20.0035 15.3826 19.0991 14.9379 18.9304 14.8763C18.7616 14.8148 18.639 14.784 18.5168 14.9682C18.3947 15.1523 18.0409 15.5667 17.9337 15.6889C17.8264 15.8111 17.7192 15.8273 17.5351 15.735C17.3509 15.6428 16.7585 15.4485 16.0558 14.8218C15.5092 14.3345 15.14 13.732 15.0328 13.5474C14.9255 13.3628 15.0328 13.2732 15.1132 13.1721C15.3127 12.9247 15.5118 12.6654 15.5733 12.5428C15.6348 12.4202 15.6036 12.3125 15.5579 12.2207C15.5122 12.1288 15.144 11.2231 14.9906 10.8548C14.8412 10.4962 14.69 10.5445 14.5771 10.5388C14.4641 10.5331 14.3472 10.5327 14.2255 10.5327C14.1323 10.5351 14.0405 10.5568 13.9561 10.5964C13.8717 10.6361 13.7964 10.6928 13.735 10.763C13.5667 10.9471 13.0912 11.3918 13.0912 12.2971C13.0912 13.2024 13.7504 14.0774 13.8423 14.2C13.9341 14.3226 15.1396 16.1807 16.9849 16.9774C17.3272 17.1252 17.6773 17.2546 18.0334 17.365C18.4086 17.4793 18.8053 17.5042 19.1918 17.438C19.5434 17.3852 20.28 16.9928 20.4333 16.5634C20.5867 16.1341 20.5867 15.7654 20.5406 15.6885C20.4944 15.6116 20.3709 15.5667 20.1868 15.4744H20.1872Z" fill="white"/>
</svg>
