<svg xmlns="http://www.w3.org/2000/svg" viewBox="0 0 421.15 364.73"><defs><style>.cls-1{fill:#ffd304;}.cls-2{fill:#ffb002;}.cls-3{fill:#fff;}</style></defs><g id="Capa_2" data-name="Capa 2"><g id="Capa_1-2" data-name="Capa 1"><polygon class="cls-1" points="105.29 0 0 182.37 105.29 364.73 210.58 364.73 210.58 0 105.29 0"/><polygon class="cls-2" points="421.15 182.37 315.87 0 210.58 0 210.58 364.73 315.87 364.73 421.15 182.37"/><path class="cls-3" d="M303.66,140.41v87.3c-.11.62-.26,1.24-.33,1.86A46.35,46.35,0,0,1,297.39,248c-9.89,16.69-24.63,25.27-44,25.39-26.16.15-52.33.07-78.49,0a47.49,47.49,0,0,1-9.9-.88c-20.34-4.45-33.37-16.75-38.95-36.8-.73-2.61-1-5.35-1.47-8v-87.3c.29-1.82.49-3.67.89-5.47,4.56-20.26,16.85-33.25,36.91-38.81,2.61-.72,5.35-1,8-1.46h87.47c1.83.29,3.68.48,5.48.89,20.3,4.55,33.31,16.81,38.88,36.83C302.92,135,303.18,137.74,303.66,140.41ZM140.41,184.05q0,19.37,0,38.75a35.55,35.55,0,0,0,1.79,12c5,14.14,17.28,22.74,32.65,22.77,26.18.05,52.35.09,78.53-.06a37.18,37.18,0,0,0,11.48-1.8c14.32-4.81,22.88-17.19,22.9-32.64,0-26,.08-52-.07-78a37.87,37.87,0,0,0-1.78-11.64c-4.77-14.22-17.15-22.84-32.51-22.88q-39.34-.11-78.7,0c-11.67,0-21.11,4.67-28,14.1-4.46,6.08-6.27,13-6.26,20.48Q140.44,164.59,140.41,184.05Z"/><path class="cls-3" d="M214.1,138a46.07,46.07,0,1,1-46.17,46.11A46.32,46.32,0,0,1,214.1,138Zm30.23,46a30.24,30.24,0,1,0-30.22,30.2A30.25,30.25,0,0,0,244.33,184Z"/><path class="cls-3" d="M262.17,124.6a11.59,11.59,0,1,1-11.64,11.51A11.68,11.68,0,0,1,262.17,124.6Z"/></g></g></svg>