 <svg width="0" height="0" class="hidden">
    <symbol viewBox="0 0 24 24" fill="#fff" xmlns="http://www.w3.org/2000/svg" id="alert">
        <path fill-rule="evenodd" clip-rule="evenodd" d="M18.002 10.75v5l1.29 1.29c.63.63.18 1.71-.71 1.71H5.411c-.89 0-1.33-1.08-.7-1.71l1.29-1.29v-5c0-3.08 1.63-5.64 4.5-6.32v-.68c0-.83.67-1.5 1.5-1.5s1.5.67 1.5 1.5v.68c2.86.68 4.5 3.25 4.5 6.32zm-4 9a2 2 0 1 1-4 0h4z"
        fill="#fff"></path>
    </symbol>
    <symbol xmlns="http://www.w3.org/2000/svg" viewBox="0 0 512 512" id="archive">
        <path d="M453.594 100.001l-32.353-39.299C415.469 52.627 405.083 48 394.664 48H117.335c-10.416 0-20.801 4.627-26.576 12.702l-32.351 39.299C51.468 106.923 48 117.335 48 128.886v288.89C48 443.2 68.8 464 94.225 464h323.553C443.202 464 464 443.2 464 417.775v-288.89c0-11.55-3.463-21.962-10.406-28.884zM256 383.109L128.89 256h80.89v-46.224h92.443V256h80.89L256 383.109zM96.534 94.221L115.02 71.11h277.331l21.965 23.111H96.534z"></path>
    </symbol>
    <symbol viewBox="0 0 12 8" fill="#fff" xmlns="http://www.w3.org/2000/svg" id="arrow">
        <path d="M9.875 1l-3.88 3.88L2.115 1a.996.996 0 1 0-1.41 1.41L5.295 7c.39.39 1.02.39 1.41 0l4.59-4.59a.996.996 0 0 0 0-1.41c-.39-.38-1.03-.39-1.42 0z" fill="#fff"></path>
    </symbol>
    <symbol viewBox="0 0 32 20" fill="#fff" xmlns="http://www.w3.org/2000/svg" id="burger">
        <path fill-rule="evenodd" clip-rule="evenodd" d="M1.75 3.667c-.87 0-1.583-.713-1.583-1.584C.167 1.213.879.5 1.75.5h28.5c.871 0 1.584.712 1.584 1.583s-.713 1.584-1.584 1.584H1.75zM.167 10c0 .87.712 1.583 1.583 1.583h28.5c.871 0 1.584-.712 1.584-1.583 0-.87-.713-1.583-1.584-1.583H1.75C.88 8.417.167 9.129.167 10zm0 7.917c0 .87.712 1.583 1.583 1.583h28.5c.871 0 1.584-.712 1.584-1.583s-.713-1.584-1.584-1.584H1.75c-.87 0-1.583.713-1.583 1.584z"
        fill="#fff"></path>
    </symbol>
    <symbol viewBox="0 0 24 24" fill="#fff" xmlns="http://www.w3.org/2000/svg" id="carpet">
        <path fill-rule="evenodd" clip-rule="evenodd" d="M12 6h8c1.1 0 2 .9 2 2v10c0 1.1-.9 2-2 2H4c-1.1 0-2-.9-2-2l.01-12c0-1.1.89-2 1.99-2h5.17c.53 0 1.04.21 1.42.59L12 6zM4 17c0 .55.45 1 1 1h14c.55 0 1-.45 1-1V9c0-.55-.45-1-1-1H5c-.55 0-1 .45-1 1v8z"></path>
    </symbol>
    <symbol xmlns="http://www.w3.org/2000/svg" viewBox="0 0 944.699 944.699" id="download">
        <path d="M894.801 579.05h-309.5l-41.5 47.199c-18 20.5-44.102 32.301-71.401 32.301-27.3 0-53.4-11.801-71.4-32.301l-41.5-47.199H50c-27.6 0-50 22.4-50 50v198.5c0 27.6 22.4 50 50 50h844.699c27.602 0 50-22.4 50-50v-198.5c.102-27.6-22.299-50-49.898-50zM139.2 770.95c-23.5 0-42.6-19.102-42.6-42.602s19.1-42.6 42.6-42.6 42.6 19.1 42.6 42.6-19.1 42.602-42.6 42.602z"></path>
        <path d="M419.4 579.05l15.4 17.6c10 11.301 23.8 17 37.6 17 13.799 0 27.6-5.699 37.6-17l15.4-17.6 208.7-237.8c28.4-32.3 5.4-83-37.6-83h-65.6v-141.1c0-27.6-22.4-50-50-50h-217c-27.6 0-50 22.4-50 50v141.2h-65.6c-43 0-65.9 50.7-37.6 83l208.7 237.7z"></path>
    </symbol>
    <symbol xmlns="http://www.w3.org/2000/svg" viewBox="0 0 458.714 458.714" id="favorite">
        <path d="M210.163 22.11a21.4 21.4 0 0 1 38.379-.001l54.307 110.03a21.4 21.4 0 0 0 16.112 11.706l121.43 17.646a21.4 21.4 0 0 1 11.86 36.501l-87.869 85.648a21.4 21.4 0 0 0-6.155 18.941l20.739 120.936a21.399 21.399 0 0 1-31.049 22.558L239.311 388.98a21.4 21.4 0 0 0-19.915 0l-108.608 57.094a21.397 21.397 0 0 1-31.049-22.559l20.744-120.934a21.404 21.404 0 0 0-6.154-18.942L6.463 197.991a21.402 21.402 0 0 1 11.859-36.501l121.431-17.647a21.401 21.401 0 0 0 16.113-11.707L210.163 22.11z"></path>
    </symbol>
    <symbol xmlns="http://www.w3.org/2000/svg" viewBox="0 0 223.6 168.2" id="mail">
        <path d="M223.6 0v168.2H0V0h223.6zM26.8 15.5c1.4 1.4 1.9 2 2.5 2.6 24.4 24.8 48.9 49.6 73.3 74.3 6.8 6.8 12 6.9 18.7.1l73.2-73.8c.9-.9 1.5-1.9 2.6-3.3-56.7.1-112.9.1-170.3.1zm.2 137h169.5c-18.9-19.4-37.1-38-55.6-56.9-8.7 8.1-15.5 18-29.1 17.9-13.6-.1-20.3-10-28.9-18.2-18.6 19-37 37.8-55.9 57.2zm-11.1-11.6c19.1-19.5 37.4-38.2 56.3-57.6-19-18.5-37.7-36.7-56.3-54.8v112.4zm136.2-56.7c18.5 18.9 36.6 37.5 55.4 56.7V30.8c-18 17.4-36.5 35.2-55.4 53.4z"></path>
    </symbol>
    <symbol viewBox="0 0 19 19" fill="#fff" xmlns="http://www.w3.org/2000/svg" id="more">
        <path d="M18.226 9.33a.996.996 0 0 0-.997-.997l-6.909-.007V1.411a.996.996 0 1 0-1.994 0v6.915H1.411a.996.996 0 1 0 0 1.994h6.915v6.916a.996.996 0 1 0 1.994 0V10.32h6.916c.537 0 .99-.452.99-.99z" fill="#fff"></path>
    </symbol>  
    <symbol viewBox="0 0 24 24" fill="#fff" xmlns="http://www.w3.org/2000/svg" id="tag">
        <path d="M5.085 18.995h9.06c.65 0 1.26-.31 1.63-.84l3.95-5.57a.99.99 0 0 0 0-1.16l-3.96-5.58a1.95 1.95 0 0 0-1.62-.84h-9.06c-.81 0-1.28.93-.81 1.59l3.87 5.41-3.87 5.41c-.47.66 0 1.58.81 1.58z" fill="#fff"></path>
    </symbol>
    <symbol viewBox="0 0 40 40" xmlns="http://www.w3.org/2000/svg" id="trash">
        <path d="M28 40H11.8c-3.3 0-5.9-2.7-5.9-5.9V16c0-.6.4-1 1-1s1 .4 1 1v18.1c0 2.2 1.8 3.9 3.9 3.9H28c2.2 0 3.9-1.8 3.9-3.9V16c0-.6.4-1 1-1s1 .4 1 1v18.1c0 3.2-2.7 5.9-5.9 5.9zm5.3-35.1h-7.6C25.2 2.1 22.8 0 19.9 0s-5.3 2.1-5.8 4.9H6.5C4.2 4.9 2.4 6.7 2.4 9s1.8 4 4.1 4h26.9c2.3 0 4.1-1.8 4.1-4.1s-1.9-4-4.2-4zM19.9 2c1.8 0 3.3 1.2 3.7 2.9h-7.5c.5-1.7 2-2.9 3.8-2.9zm13.4 9H6.5c-1.1 0-2.1-.9-2.1-2.1 0-1.1.9-2.1 2.1-2.1h26.9c1.1 0 2.1.9 2.1 2.1-.1 1.2-1 2.1-2.2 2.1z"></path>
        <path d="M12.9 35.1c-.6 0-1-.4-1-1V17.4c0-.6.4-1 1-1s1 .4 1 1v16.7c0 .5-.5 1-1 1zm14 0c-.6 0-1-.4-1-1V17.4c0-.6.4-1 1-1s1 .4 1 1v16.7c0 .5-.5 1-1 1zm-7 0c-.6 0-1-.4-1-1V17.4c0-.6.4-1 1-1s1 .4 1 1v16.7c0 .5-.5 1-1 1z"></path>
    </symbol>
</svg>
