<svg width="43" height="42" viewBox="0 0 43 42" fill="none" xmlns="http://www.w3.org/2000/svg">
<g clip-path="url(#clip0)">
<path d="M2.50422e-07 21C1.12331e-07 32.5801 9.64418 42 21.5 42C33.3558 42 43 32.5801 43 21C43 9.4199 33.3541 3.97744e-07 21.5 2.56385e-07C9.64586 1.15026e-07 3.88514e-07 9.4199 2.50422e-07 21ZM39.6693 21C39.6693 30.7843 31.5189 38.7467 21.5 38.7467C11.4811 38.7467 3.33074 30.7843 3.33074 21C3.33074 11.2141 11.4811 3.25328 21.5 3.25328C31.5189 3.25328 39.6693 11.2157 39.6693 21Z" fill="#75CB40"/>
<path d="M23.7983 11.7119L15.4714 19.8451C14.8253 20.4795 14.8253 21.5043 15.4714 22.1387L23.7983 30.2719C24.4212 30.794 25.3421 30.794 25.965 30.2719C26.6628 29.6879 26.7443 28.6599 26.1465 27.9783L19.0021 21L26.1465 14.0054C26.7927 13.371 26.7927 12.3463 26.1465 11.7119C25.497 11.0807 24.4478 11.0807 23.7983 11.7119Z" fill="#75CB40"/>
</g>
<defs>
<clipPath id="clip0">
<rect width="42" height="43" fill="white" transform="translate(0 42) rotate(-90)"/>
</clipPath>
</defs>
</svg>
