<svg width="43" height="42" viewBox="0 0 43 42" fill="none" xmlns="http://www.w3.org/2000/svg">
<g clip-path="url(#clip0)">
<path d="M43 21C43 9.41989 33.3558 -4.2156e-07 21.5 -9.39795e-07C9.64418 -1.45803e-06 -4.11757e-07 9.41989 -9.17939e-07 21C-1.42412e-06 32.5801 9.64586 42 21.5 42C33.3541 42 43 32.5801 43 21ZM3.33073 21C3.33073 11.2157 11.4811 3.25328 21.5 3.25328C31.5189 3.25328 39.6693 11.2157 39.6693 21C39.6693 30.7859 31.5189 38.7467 21.5 38.7467C11.4811 38.7467 3.33073 30.7843 3.33073 21Z" fill="#75CB40"/>
<path d="M19.2017 30.2881L27.5286 22.1549C28.1747 21.5205 28.1747 20.4957 27.5286 19.8613L19.2017 11.7281C18.5788 11.206 17.6579 11.206 17.035 11.7281C16.3372 12.3121 16.2557 13.3401 16.8535 14.0217L23.9979 21L16.8535 27.9946C16.2073 28.629 16.2073 29.6537 16.8535 30.2881C17.503 30.9193 18.5522 30.9193 19.2017 30.2881Z" fill="#75CB40"/>
</g>
<defs>
<clipPath id="clip0">
<rect width="42" height="43" fill="white" transform="translate(43) rotate(90)"/>
</clipPath>
</defs>
</svg>
