<svg width="45" height="44" viewBox="0 0 45 44" fill="none" xmlns="http://www.w3.org/2000/svg">
<path d="M32.5792 26.3611L32.5626 26.4975C28.5188 24.5033 28.0959 24.2376 27.5737 25.0128C27.2114 25.5495 26.1559 26.7668 25.8377 27.1271C25.5159 27.4819 25.1959 27.5092 24.6498 27.2636C24.0981 26.9906 22.3272 26.4175 20.2309 24.5615C18.5979 23.115 17.5019 21.3409 17.1783 20.7951C16.6395 19.8744 17.7668 19.7434 18.7929 17.8219C18.9768 17.4398 18.883 17.1396 18.7469 16.8685C18.609 16.5955 17.5111 13.9208 17.0514 12.8545C16.6101 11.7919 16.1559 11.9266 15.8157 11.9266C14.7565 11.8356 13.9823 11.8501 13.3 12.5525C10.332 15.7804 11.0805 19.1102 13.62 22.651C18.6108 29.114 21.2699 30.304 26.1319 31.9562C27.4449 32.3692 28.6421 32.311 29.5891 32.1764C30.6446 32.0108 32.8384 30.8645 33.2963 29.5817C33.7653 28.2989 33.7653 27.2345 33.6273 26.9888C33.4913 26.7432 33.1308 26.6067 32.5792 26.3611Z" fill="white"/>
<path d="M38.1206 6.60503C23.9813 -6.91969 0.581155 2.88951 0.57196 21.9693C0.57196 25.7831 1.58152 29.5023 3.50502 32.7866L0.38623 43.9986L12.0357 40.9927C26.5723 48.7622 44.5127 38.4454 44.52 21.9802C44.52 16.2013 42.2398 10.7627 38.093 6.676L38.1206 6.60503ZM40.8459 21.9202C40.8349 35.8088 25.4266 44.4826 13.2402 37.3937L12.5782 37.0043L5.68229 38.7783L7.53039 32.1461L7.09089 31.4637C-0.492768 19.5184 8.21998 3.90664 22.5855 3.90664C27.466 3.90664 32.0467 5.78987 35.4965 9.20153C38.9445 12.5841 40.8459 17.1166 40.8459 21.9202Z" fill="white"/>
</svg>
