<svg width="47" height="47" viewBox="0 0 47 47" fill="none" xmlns="http://www.w3.org/2000/svg">
<path d="M46.4435 13.7706C46.3364 11.3412 45.9436 9.67112 45.3808 8.22394C44.8003 6.68779 43.9071 5.31247 42.737 4.16917C41.5937 3.00807 40.2093 2.10585 38.6909 1.53437C37.2354 0.971613 35.574 0.578766 33.1447 0.471657C30.6972 0.355478 29.9202 0.328613 23.7128 0.328613C17.5054 0.328613 16.7285 0.355478 14.2901 0.462586C11.8608 0.569695 10.1907 0.962891 8.74382 1.5253C7.20732 2.10585 5.832 2.999 4.6887 4.16917C3.5276 5.31247 2.62573 6.69686 2.0539 8.21522C1.49114 9.67112 1.0983 11.3322 0.991188 13.7615C0.875009 16.2089 0.848145 16.9859 0.848145 23.1933C0.848145 29.4007 0.875009 30.1777 0.982117 32.6161C1.08923 35.0454 1.48242 36.7155 2.04518 38.1627C2.62573 39.6988 3.5276 41.0741 4.6887 42.2174C5.832 43.3785 7.21639 44.2808 8.73475 44.8522C10.1907 45.415 11.8517 45.8078 14.2814 45.915C16.7194 46.0224 17.4967 46.0489 23.7041 46.0489C29.9115 46.0489 30.6885 46.0224 33.1269 45.915C35.5562 45.8078 37.2263 45.415 38.6731 44.8522C41.7458 43.6643 44.1751 41.235 45.363 38.1627C45.9254 36.7068 46.3186 35.0454 46.4258 32.6161C46.5329 30.1777 46.5597 29.4007 46.5597 23.1933C46.5597 16.9859 46.5507 16.2089 46.4435 13.7706ZM42.3263 32.4374C42.2279 34.6703 41.8529 35.8761 41.5403 36.6799C40.772 38.6717 39.1912 40.2525 37.1994 41.0208C36.3956 41.3334 35.1811 41.7084 32.957 41.8065C30.5454 41.9139 29.8222 41.9404 23.7219 41.9404C17.6216 41.9404 16.8893 41.9139 14.4865 41.8065C12.2536 41.7084 11.0479 41.3334 10.244 41.0208C9.25284 40.6544 8.35062 40.0739 7.61831 39.3147C6.85913 38.5733 6.27858 37.6802 5.91225 36.689C5.59964 35.8851 5.22459 34.6703 5.12655 32.4465C5.01909 30.035 4.99258 29.3114 4.99258 23.2111C4.99258 17.1108 5.01909 16.3785 5.12655 13.976C5.22459 11.7432 5.59964 10.5374 5.91225 9.73357C6.27858 8.74204 6.85913 7.84016 7.62738 7.1075C8.36841 6.34832 9.26157 5.76777 10.2531 5.40179C11.0569 5.08918 12.2718 4.71413 14.4956 4.61574C16.9071 4.50863 17.6307 4.48177 23.7306 4.48177C29.84 4.48177 30.5632 4.50863 32.966 4.61574C35.1989 4.71413 36.4047 5.08918 37.2085 5.40179C38.1997 5.76777 39.1019 6.34832 39.8342 7.1075C40.5934 7.84888 41.174 8.74204 41.5403 9.73357C41.8529 10.5374 42.2279 11.7519 42.3263 13.976C42.4334 16.3876 42.4603 17.1108 42.4603 23.2111C42.4603 29.3114 42.4334 30.0259 42.3263 32.4374Z" fill="white"/>
<path d="M23.7132 11.4487C17.2291 11.4487 11.9683 16.7093 11.9683 23.1937C11.9683 29.6781 17.2291 34.9386 23.7132 34.9386C30.1976 34.9386 35.4582 29.6781 35.4582 23.1937C35.4582 16.7093 30.1976 11.4487 23.7132 11.4487ZM23.7132 30.8123C19.5067 30.8123 16.0946 27.4006 16.0946 23.1937C16.0946 18.9868 19.5067 15.575 23.7132 15.575C27.9201 15.575 31.3319 18.9868 31.3319 23.1937C31.3319 27.4006 27.9201 30.8123 23.7132 30.8123Z" fill="white"/>
<path d="M38.6648 10.9846C38.6648 12.4988 37.4371 13.7265 35.9226 13.7265C34.4084 13.7265 33.1807 12.4988 33.1807 10.9846C33.1807 9.47006 34.4084 8.24268 35.9226 8.24268C37.4371 8.24268 38.6648 9.47006 38.6648 10.9846Z" fill="white"/>
</svg>
